<svg xmlns="http://www.w3.org/2000/svg" xmlns:xlink="http://www.w3.org/1999/xlink" version="1.1" width="1080" height="1080" viewBox="0 0 1080 1080">
<defs>
<clipPath id="clip_0">
<path transform="matrix(1,0,0,-1,0,1080)" d="M0 1080H1080V0H0Z"/>
</clipPath>
</defs>
<g>
<path transform="matrix(1,0,0,-1,0,1080)" d="M0 0H1080V1080H0Z" fill="#8d9879"/>
<g clip-path="url(#clip_0)">
<path transform="matrix(1,0,0,-1,527.9365,536.3193)" d="M0 0V10.416C16.539 34.581 25.56 47.901 25.56 59.285 25.56 65.405 23.197 68.092 19.546 68.092 15.25 68.092 13.102 64.761 13.102 60.035V54.775H.43V58.426C.43 69.81 7.732 78.616 20.19 78.616 31.144 78.616 38.236 70.454 38.236 61.433 38.236 49.19 34.37 40.166 13.532 10.954H37.053V0Z" fill="#221f20"/>
<path transform="matrix(1,0,0,-1,583.9963,513.8735)" d="M0 0V-6.229C0-10.419 2.363-12.996 5.905-12.996 10.095-12.996 12.458-10.525 12.458-3.542V14.07C12.458 19.116 9.88 21.158 6.873 21.158 2.792 21.158 .859 18.472-.32 15.25H-10.634C-10.204 27.282-9.665 36.732-9.665 55.095H22.662L22.232 44.141H1.289L.535 27.387 .75 27.173C4.081 31.144 6.873 31.683 10.954 31.683 21.158 31.683 25.13 24.271 25.13 11.278V.539C25.13-15.789 19.975-23.521 7.088-23.521-3.651-23.521-12.028-18.796-12.028-5.905V0Z" fill="#221f20"/>
<path transform="matrix(1,0,0,-1,617.931,536.3193)" d="M0 0V77.542H12.028V52.412C16.433 56.278 19.01 58.856 25.989 58.856 32.327 58.856 36.088 54.236 36.088 46.718V0H24.056V44.785C24.056 47.683 22.338 48.975 19.76 48.975 17.183 48.975 14.82 47.363 12.028 45.32V0Z" fill="#221f20"/>
<path transform="matrix(1,0,0,-1,538.6047,582.2343)" d="M0 0V2.53H-.092C-1.763 .409-2.983-.453-5.513-.453-8.68-.453-10.668 1.899-10.668 6.331V17.995C-10.668 22.423-8.68 24.772-5.513 24.772-3.3 24.772-2.26 23.869-.269 22.243V32.638H4.794V0ZM-.269 19.348C-1.265 20.071-2.168 20.616-3.164 20.616-4.521 20.616-5.605 19.89-5.605 16.679V7.64C-5.605 4.429-4.521 3.706-3.164 3.706-2.168 3.706-1.265 4.248-.269 4.974Z" fill="#221f20"/>
<path transform="matrix(1,0,0,-1,563.2318,557.9141)" d="M0 0V-24.319H-4.794V-21.881C-6.918-23.685-8.002-24.772-10.941-24.772-13.607-24.772-15.189-22.829-15.189-19.665V0H-10.126V-18.85C-10.126-20.071-9.403-20.616-8.319-20.616-7.235-20.616-6.239-19.935-5.063-19.079V0Z" fill="#221f20"/>
<path transform="matrix(1,0,0,-1,567.878,582.2343)" d="M0 0V32.638H5.063V22.243C7.051 23.869 8.09 24.772 10.307 24.772 13.47 24.772 15.461 22.423 15.461 17.995V6.331C15.461 1.899 13.47-.453 10.307-.453 7.777-.453 6.556 .409 4.882 2.53H4.79V0ZM5.063 4.974C6.058 4.248 6.962 3.706 7.957 3.706 9.314 3.706 10.395 4.429 10.395 7.64V16.679C10.395 19.89 9.314 20.616 7.957 20.616 6.962 20.616 6.058 20.071 5.063 19.348Z" fill="#221f20"/>
<path transform="matrix(1,0,0,-1,587.1685,565.0563)" d="M0 0C.273 4.93 3.392 7.596 8.138 7.596 12.84 7.596 15.506 5.424 15.506 .992V-14.602C15.506-15.369 15.686-16.365 15.823-17.18H10.985C10.941-16.498 10.76-15.867 10.716-15.277 8.817-16.815 7.235-17.63 4.794-17.63 1.357-17.63-.361-15.277-.361-12.158-.361-6.826 3.164-3.887 10.443-1.128V.317C10.443 2.352 9.628 3.437 7.957 3.437 5.653 3.437 5.155 2.08 5.063 0ZM10.443-4.838C5.833-7.46 4.701-9.134 4.701-11.254 4.701-12.84 5.516-13.474 7.054-13.474 8.455-13.474 9.584-12.43 10.443-11.21Z" fill="#221f20"/>
<path transform="matrix(1,0,0,-1,0,1080)" d="M607.594 530.404H612.657V525.795H607.594ZM607.594 522.085H612.657V497.76603H607.594Z" fill="#221f20"/>
<path transform="matrix(1,0,0,-1,527.9365,617.3213)" d="M0 0V21.257H3.297V14.37C4.504 15.431 5.21 16.136 7.125 16.136 8.861 16.136 9.894 14.872 9.894 12.809V0H6.597V12.28C6.597 13.075 6.123 13.426 5.417 13.426 4.712 13.426 4.064 12.986 3.297 12.427V0Z" fill="#221f20"/>
<path transform="matrix(1,0,0,-1,550.937,610.0188)" d="M0 0H-6.948V-2.298C-6.948-4.122-6.3-4.889-5.124-4.889-3.945-4.889-3.297-4.122-3.297-2.298V-1.943H0C-.058-5.302-1.442-7.596-5.124-7.596-8.892-7.596-10.249-5.182-10.249-1.705V2.946C-10.249 6.416-8.892 8.834-5.124 8.834-1.354 8.834 0 6.416 0 2.946ZM-3.297 2.71V3.532C-3.297 5.359-3.945 6.123-5.124 6.123-6.3 6.123-6.948 5.359-6.948 3.532V2.71Z" fill="#221f20"/>
<path transform="matrix(1,0,0,-1,0,1080)" d="M553.825 480.934H557.122V483.934H553.825ZM553.825 462.677H557.122V478.52H553.825Z" fill="#221f20"/>
<path transform="matrix(1,0,0,-1,566.7543,617.3213)" d="M0 0V12.28C0 13.075-.501 13.426-1.149 13.426-1.855 13.426-2.502 12.986-3.266 12.427V0H-6.566V15.84H-3.443V14.251C-2.059 15.431-1.354 16.136 .208 16.136 1.855 16.136 2.387 15.547 3.092 14.251 4.681 15.782 5.568 16.136 6.774 16.136 8.834 16.136 9.867 14.872 9.867 12.809V0H6.566V12.28C6.566 13.075 6.038 13.426 5.39 13.426 4.681 13.426 4.033 12.986 3.297 12.427V0Z" fill="#221f20"/>
<path transform="matrix(1,0,0,-1,579.3344,606.1322)" d="M0 0C.177 3.212 2.209 4.947 5.302 4.947 8.363 4.947 10.102 3.532 10.102 .648V-9.509C10.102-10.01 10.218-10.661 10.306-11.19H7.156C7.125-10.75 7.006-10.334 6.979-9.955 5.741-10.954 4.712-11.483 3.12-11.483 .883-11.483-.235-9.955-.235-7.92-.235-4.446 2.063-2.53 6.802-.736V.205C6.802 1.531 6.27 2.237 5.182 2.237 3.679 2.237 3.358 1.354 3.297 0ZM6.802-3.15C3.798-4.858 3.062-5.949 3.062-7.334 3.062-8.363 3.593-8.776 4.592-8.776 5.506-8.776 6.242-8.097 6.802-7.303Z" fill="#221f20"/>
<path transform="matrix(1,0,0,-1,591.3228,604.1872)" d="M0 0V2.707H1.824V6.975H5.124V2.707H7.334V0H5.124V-9.13C5.124-9.955 5.475-10.426 6.242-10.426H7.334V-13.252C6.89-13.368 6.508-13.426 5.683-13.426 3.212-13.426 1.824-12.28 1.824-9.867V0Z" fill="#221f20"/>
<path transform="matrix(1,0,0,-1,607.0507,617.3213)" d="M0 0V21.257H3.297V14.486C4.592 15.547 5.271 16.136 6.713 16.136 8.776 16.136 10.071 14.606 10.071 11.721V4.122C10.071 1.234 8.776-.293 6.713-.293 5.066-.293 4.272 .266 3.181 1.65H3.12V0ZM3.297 3.239C3.945 2.768 4.534 2.414 5.182 2.414 6.065 2.414 6.771 2.884 6.771 4.978V10.866C6.771 12.955 6.065 13.426 5.182 13.426 4.534 13.426 3.945 13.075 3.297 12.604Z" fill="#221f20"/>
<path transform="matrix(1,0,0,-1,626.2236,601.4812)" d="M0 0H3.328L-.825-17.019C-1.531-19.9-2.857-20.817-5.329-20.817H-6.713V-18.107H-5.919C-4.269-18.107-3.74-17.224-3.74-15.547-3.74-14.899-3.887-14.22-4.095-13.453L-7.538 0H-4.18L-2.063-10.129H-2.001Z" fill="#221f20"/>
<path transform="matrix(1,0,0,-1,636.3872,604.1872)" d="M0 0V2.707H1.827V6.975H5.124V2.707H7.333V0H5.124V-9.13C5.124-9.955 5.475-10.426 6.242-10.426H7.333V-13.252C6.89-13.368 6.508-13.426 5.683-13.426 3.212-13.426 1.827-12.28 1.827-9.867V0Z" fill="#221f20"/>
<path transform="matrix(1,0,0,-1,651.0828,601.5084)" d="M0 0H2.445L4.211-9.867H4.269L6.065 .027H9.246L5.595-15.813H2.946L1.149-5.803H1.091L-1.06-15.813H-3.709L-6.771 .027H-3.593L-2.151-9.867H-2.09Z" fill="#221f20"/>
<path transform="matrix(1,0,0,-1,672.0237,610.0188)" d="M0 0H-6.948V-2.298C-6.948-4.122-6.3-4.889-5.124-4.889-3.945-4.889-3.297-4.122-3.297-2.298V-1.943H0C-.058-5.302-1.442-7.596-5.124-7.596-8.892-7.596-10.249-5.182-10.249-1.705V2.946C-10.249 6.416-8.892 8.834-5.124 8.834-1.354 8.834 0 6.416 0 2.946ZM-3.297 2.71V3.532C-3.297 5.359-3.945 6.123-5.124 6.123-6.3 6.123-6.948 5.359-6.948 3.532V2.71Z" fill="#221f20"/>
<path transform="matrix(1,0,0,-1,674.8839,617.3213)" d="M0 0V15.84H3.123V14.251C4.507 15.431 5.213 16.136 7.126 16.136 8.864 16.136 9.894 14.872 9.894 12.809V0H6.597V12.28C6.597 13.075 6.123 13.426 5.417 13.426 4.712 13.426 4.064 12.986 3.297 12.427V0Z" fill="#221f20"/>
<path transform="matrix(1,0,0,-1,686.5186,604.1872)" d="M0 0V2.707H1.824V6.975H5.124V2.707H7.33V0H5.124V-9.13C5.124-9.955 5.475-10.426 6.242-10.426H7.33V-13.252C6.89-13.368 6.505-13.426 5.683-13.426 3.208-13.426 1.824-12.28 1.824-9.867V0Z" fill="#221f20"/>
<path transform="matrix(1,0,0,-1,702.0972,601.4812)" d="M0 0H3.328L-.825-17.019C-1.531-19.9-2.857-20.817-5.332-20.817H-6.713V-18.107H-5.919C-4.272-18.107-3.74-17.224-3.74-15.547-3.74-14.899-3.887-14.22-4.091-13.453L-7.538 0H-4.18L-2.063-10.129H-2.001Z" fill="#221f20"/>
<path transform="matrix(1,0,0,-1,713.7924,604.1872)" d="M0 0H-1.943V2.707H0V4.681C0 7.241 1.354 8.421 3.679 8.421H5.329V5.711H4.388C3.593 5.711 3.297 5.417 3.297 4.65V2.707H5.182V0H3.297V-13.133H0ZM6.331 8.124H9.628V5.1239998H6.331ZM6.331 2.707H9.628V-13.133H6.331Z" fill="#221f20"/>
<path transform="matrix(1,0,0,-1,732.6992,601.4812)" d="M0 0H3.358L-.471-15.84H-3.679L-7.507 0H-4.153L-2.121-10.6H-2.059Z" fill="#221f20"/>
<path transform="matrix(1,0,0,-1,747.8674,610.0188)" d="M0 0H-6.948V-2.298C-6.948-4.122-6.3-4.889-5.124-4.889-3.945-4.889-3.297-4.122-3.297-2.298V-1.943H0C-.058-5.302-1.442-7.596-5.124-7.596-8.892-7.596-10.249-5.182-10.249-1.705V2.946C-10.249 6.416-8.892 8.834-5.124 8.834-1.354 8.834 0 6.416 0 2.946ZM-3.297 2.71V3.532C-3.297 5.359-3.945 6.123-5.124 6.123-6.3 6.123-6.948 5.359-6.948 3.532V2.71Z" fill="#221f20"/>
<path transform="matrix(1,0,0,-1,757.1193,617.3213)" d="M0 0V21.257H3.297V14.37C4.507 15.431 5.213 16.136 7.125 16.136 8.864 16.136 9.894 14.872 9.894 12.809V0H6.597V12.28C6.597 13.075 6.123 13.426 5.417 13.426 4.712 13.426 4.064 12.986 3.297 12.427V0Z" fill="#221f20"/>
<path transform="matrix(1,0,0,-1,769.8727,607.0742)" d="M0 0C0 3.474 1.354 5.888 5.124 5.888 8.892 5.888 10.249 3.474 10.249 0V-4.65C10.249-8.128 8.892-10.538 5.124-10.538 1.354-10.538 0-8.128 0-4.65ZM6.948 .59C6.948 2.417 6.3 3.181 5.124 3.181 3.945 3.181 3.297 2.417 3.297 .59V-5.244C3.297-7.068 3.945-7.835 5.124-7.835 6.3-7.835 6.948-7.068 6.948-5.244Z" fill="#221f20"/>
<path transform="matrix(1,0,0,-1,792.8735,601.4812)" d="M0 0V-15.84H-3.123V-14.248C-4.507-15.427-5.213-16.133-7.125-16.133-8.864-16.133-9.894-14.868-9.894-12.809V0H-6.597V-12.277C-6.597-13.071-6.123-13.426-5.417-13.426-4.712-13.426-4.064-12.983-3.297-12.424V0Z" fill="#221f20"/>
<path transform="matrix(1,0,0,-1,795.9099,617.3213)" d="M0 0V15.84H3.15V13.985H3.208C4.006 15.342 5.39 16.136 6.948 16.136H7.627V12.69C7.037 12.84 6.478 13.013 5.506 13.013 4.388 13.013 3.297 12.308 3.297 10.893V0Z" fill="#221f20"/>
<path transform="matrix(1,0,0,-1,811.5778,605.8662)" d="M0 0C-.235 1.265-.825 1.971-1.885 1.971-2.738 1.971-3.328 1.531-3.328 .706-3.328-1.766 2.857-2.768 2.857-7.48 2.857-10.306 .914-11.749-1.766-11.749-4.654-11.749-6.3-10.099-6.802-7.334L-3.914-6.539C-3.709-7.865-3.239-9.042-1.739-9.042-.883-9.042-.263-8.54-.263-7.657-.263-4.916-6.45-3.887-6.45 .44-6.45 2.946-4.504 4.681-2.032 4.681 .559 4.681 2.298 2.946 2.799 .47Z" fill="#221f20"/>
<path transform="matrix(1,0,0,-1,339.5424,645.6428)" d="M0 0C-17.947 0-35.072 6.433-48.679 18.387-63.516 31.421-72.391 49.453-73.666 69.159-74.723 85.483-70.509 101.264-61.477 114.837-62.204 118.294-62.688 121.84-62.92 125.386-64.195 145.092-57.72 164.116-44.69 178.953-31.656 193.791-13.627 202.665 6.082 203.94 18.861 204.762 31.629 202.27 43.087 196.709 54.526 205.219 68.095 210.196 82.39 211.124 102.096 212.409 121.121 205.925 135.955 192.894 150.792 179.86 159.667 161.832 160.942 142.126 161.508 133.367 160.539 124.7 158.068 116.351 165.643 105.38 170.103 92.536 170.969 79.165 172.244 59.459 165.769 40.431 152.735 25.594 139.702 10.76 121.669 1.885 101.963 .61 82.448-.641 63.673 5.66 48.911 18.4 36.712 7.674 21.131 1.207 4.886 .157 3.253 .051 1.623 0 0 0M10.869 200.995C9.342 200.995 7.811 200.947 6.28 200.848-12.601 199.624-29.876 191.121-42.361 176.908-54.846 162.691-61.048 144.468-59.824 125.583-59.592 121.973-59.081 118.362-58.31 114.851L-58.167 114.203-58.542 113.651C-67.44 100.528-71.6 85.213-70.573 69.356-69.35 50.475-60.85 33.2-46.633 20.715-32.419 8.23-14.186 2.005 4.684 3.249 20.927 4.299 35.856 10.651 47.857 21.615L48.893 22.56 49.937 21.625C64.225 8.83 82.626 2.445 101.766 3.703 120.647 4.927 137.918 13.426 150.407 27.64 162.895 41.86 169.1 60.086 167.876 78.967 167.031 92.022 162.612 104.548 155.102 115.188L154.662 115.809 154.887 116.535C157.413 124.748 158.409 133.288 157.849 141.924 156.625 160.805 148.126 178.081 133.912 190.565 119.695 203.051 101.455 209.259 82.591 208.032 68.582 207.125 55.31 202.157 44.199 193.665L43.428 193.078 42.562 193.511C32.743 198.438 21.871 200.995 10.869 200.995" fill="#221f20"/>
<path transform="matrix(1,0,0,-1,352.8511,502.24378)" d="M0 0C-.286-3.576-.314-7.194-.078-10.838 .815-24.653 5.462-37.346 12.799-47.99 13.208-46.599 13.661-45.218 14.152-43.854 7.995-34.168 4.115-22.856 3.324-10.617 3.109-7.293 3.123-3.986 3.365-.719 2.25-.453 1.128-.211 0 0M26.76 51.161C23.715 48.645 20.848 45.866 18.192 42.839 8.309 31.588 2.189 17.937 .351 3.406 1.473 3.198 2.591 2.966 3.699 2.707 5.414 16.668 11.264 29.791 20.753 40.592 23.637 43.875 26.78 46.855 30.142 49.511 29.027 50.09 27.899 50.643 26.76 51.161M73.973 64.784C72.415 64.784 70.85 64.733 69.281 64.631 56.159 63.782 43.681 59.37 33.023 51.836 33.067 51.812 33.112 51.788 33.156 51.764 43.687 59.207 56.097 63.625 69.292 64.478 70.853 64.58 72.411 64.628 73.959 64.628 91.118 64.628 107.493 58.474 120.5 47.049 134.683 34.591 143.165 17.354 144.386-1.483 144.877-9.079 144.144-16.481 142.357-23.487 142.398-23.542 142.443-23.596 142.483-23.651 144.335-16.433 145.027-8.99 144.539-1.473 143.319 17.405 134.816 34.68 120.602 47.165 107.568 58.613 91.149 64.784 73.973 64.784M73.979 68.04C72.35 68.04 70.713 67.986 69.07 67.88 54.638 66.946 41.103 61.945 29.764 53.517 29.822 53.486 29.88 53.459 29.941 53.431 41.345 61.866 54.853 66.803 69.08 67.727 70.724 67.832 72.36 67.887 73.99 67.887 91.93 67.887 109.045 61.44 122.648 49.494 137.482 36.46 146.357 18.431 147.632-1.275 148.194-9.955 147.25-18.55 144.822-26.832 144.856-26.883 144.894-26.934 144.928-26.982 147.328-18.861 148.365-10.194 147.788-1.265 146.51 18.482 137.615 36.552 122.75 49.609 109.116 61.586 91.954 68.04 73.979 68.04" fill="#221f20"/>
<path transform="matrix(1,0,0,-1,426.8408,434.35829)" d="M0 0C-1.63 0-3.266-.055-4.909-.16-19.14-1.081-32.645-6.018-44.049-14.456-43.009-14.964-41.983-15.496-40.967-16.051-30.309-8.516-17.831-4.101-4.708-3.253-3.14-3.15-1.575-3.099-.017-3.099 17.159-3.103 33.579-9.27 46.613-20.719 60.826-33.204 69.329-50.479 70.55-69.36 71.037-76.874 70.345-84.32 68.494-91.534 69.305-92.577 70.083-93.638 70.833-94.719 73.26-86.437 74.204-77.842 73.642-69.159 72.367-49.453 63.492-31.424 48.658-18.393 35.055-6.444 17.94 0 0 0" fill="#221f20"/>
<path transform="matrix(1,0,0,-1,397.5381,572.6585)" d="M0 0C-.982-.815-1.984-1.602-3.004-2.359 1.831-4.701 6.948-6.532 12.274-7.78 12.413-6.645 12.526-5.499 12.608-4.354 8.244-3.297 4.023-1.831 0 0M-28.134 23.027C-28.57 21.67-28.966 20.299-29.317 18.919-23.092 10.93-15.284 4.272-6.396-.607-5.373 .116-4.367 .869-3.382 1.65-13.174 6.754-21.666 14.091-28.134 23.027M96.488 42.832C87.869 15.99 63.533-4.241 33.739-6.167 32.194-6.27 30.66-6.318 29.133-6.318 24.646-6.318 20.245-5.891 15.973-5.08 15.881-6.219 15.765-7.354 15.622-8.486 20.009-9.301 24.523-9.727 29.123-9.727 30.722-9.727 32.341-9.676 33.961-9.57 64.263-7.61 89.182 12.413 98.888 39.306 98.124 40.503 97.327 41.679 96.488 42.832" fill="#221f20"/>
<path transform="matrix(1,0,0,-1,367.9251,587.48269)" d="M0 0C-1.101-.266-2.216-.508-3.334-.723-.051-14.831 7.282-27.609 17.984-37.68 18.84-36.937 19.686-36.166 20.511-35.379 10.214-25.754 3.157-13.518 0 0M-2.274 37.251C-4.712 28.993-5.697 20.286-5.124 11.442-4.93 8.455-4.565 5.513-4.03 2.615-2.912 2.83-1.797 3.072-.696 3.341-1.197 6.072-1.541 8.851-1.722 11.663-2.213 19.198-1.514 26.63 .297 33.742-.593 34.884-1.452 36.054-2.274 37.251M128.56 54.287C128.539 54.236 128.519 54.185 128.502 54.13 134.809 44.226 138.559 32.839 139.337 20.797 140.557 1.957 134.366-16.232 121.908-30.415 109.447-44.601 92.209-53.084 73.369-54.301 71.821-54.4 70.28-54.451 68.743-54.451 51.969-54.451 35.931-48.587 23.061-37.653 23.023-37.687 22.989-37.721 22.952-37.755 35.825-48.709 51.836-54.611 68.64-54.611 70.216-54.611 71.794-54.56 73.383-54.457 92.264-53.234 109.536-44.734 122.024-30.52 134.512-16.3 140.717 1.926 139.493 20.807 138.72 32.757 134.952 44.264 128.56 54.287M129.855 58.256C129.831 58.184 129.811 58.112 129.79 58.041 137.305 47.1 141.723 34.315 142.586 21.005 143.861 1.299 137.387-17.725 124.353-32.566 111.319-47.4 93.287-56.275 73.581-57.55 71.954-57.652 70.328-57.707 68.715-57.707 51.017-57.707 34.165-51.478 20.657-39.872 20.616-39.906 20.575-39.941 20.538-39.978 34.066-51.604 50.977-57.86 68.685-57.86H68.698C70.321-57.86 71.954-57.809 73.591-57.703 93.338-56.425 111.407-47.533 124.468-32.665 137.53-17.797 144.018 1.268 142.739 21.015 141.86 34.581 137.387 47.356 129.855 58.256M17.469 69.653C15.973 68.211 14.531 66.701 13.143 65.122 6.921 58.034 2.189 49.995-.921 41.383-.157 40.183 .644 39.003 1.476 37.854 4.401 46.964 9.198 55.463 15.703 62.872 17.088 64.444 18.526 65.947 20.023 67.379 19.481 67.884 18.929 68.385 18.37 68.876 18.069 69.138 17.773 69.397 17.469 69.653M51.283 88.234C39.681 85.435 28.997 79.891 19.996 71.978 20.204 71.801 20.412 71.62 20.62 71.436 21.274 70.863 21.915 70.277 22.549 69.684 31.039 77.061 41.086 82.247 51.979 84.893 51.774 86.014 51.543 87.126 51.283 88.234M68.879 90.317C67.266 90.317 65.64 90.263 64.017 90.16 60.833 89.952 57.696 89.55 54.614 88.957 54.873 87.852 55.105 86.737 55.313 85.619 58.238 86.182 61.218 86.563 64.239 86.758 65.8 86.86 67.352 86.908 68.903 86.908 86.062 86.908 102.441 80.754 115.447 69.329 119.47 65.797 123.033 61.883 126.102 57.656 126.538 59.006 126.93 60.369 127.281 61.754 124.441 65.385 121.24 68.78 117.698 71.89 104.053 83.873 86.887 90.317 68.879 90.317" fill="#221f20"/>
<path transform="matrix(1,0,0,-1,497.7153,529.4423)" d="M0 0C-.378-1.265-.791-2.516-1.231-3.754 5.162-13.777 8.929-25.284 9.703-37.233 10.927-56.114 4.722-74.341-7.767-88.558-20.252-102.771-37.527-111.274-56.408-112.495-57.996-112.601-59.575-112.652-61.15-112.652-77.955-112.652-93.965-106.75-106.839-95.796-107.589-96.519-108.356-97.224-109.133-97.913-95.625-109.518-78.773-115.747-61.075-115.747-59.459-115.747-57.836-115.693-56.21-115.59-36.504-114.315-18.472-105.441-5.438-90.603 7.596-75.766 14.07-56.742 12.795-37.036 11.933-23.726 7.514-10.941 0 0" fill="#221f20"/>
<path transform="matrix(1,0,0,-1,497.6744,529.0755)" d="M0 0C-.02-.072-.041-.143-.065-.215-.027-.266 .007-.317 .041-.368 .061-.297 .085-.225 .106-.15 .072-.102 .034-.051 0 0M-2.468 3.345C-2.82 1.96-3.212 .6-3.648-.753-2.809-1.906-2.012-3.079-1.248-4.275-1.227-4.224-1.21-4.173-1.19-4.118-1.783-3.191-2.397-2.281-3.031-1.381L-3.471-.76-3.246-.031C-2.918 1.033-2.615 2.107-2.339 3.181-2.383 3.236-2.424 3.29-2.468 3.345" fill="#221f20"/>
<path transform="matrix(1,0,0,-1,495.3342,525.8935)" d="M0 0C-.276-1.077-.58-2.148-.907-3.212L-1.128-3.941-.692-4.562C-.055-5.462 .559-6.375 1.149-7.299 1.592-6.065 2.005-4.811 2.38-3.549 2.346-3.498 2.312-3.447 2.277-3.396 2.298-3.324 2.318-3.253 2.339-3.181 1.589-2.1 .811-1.043 0 0" fill="#221f20"/>
<path transform="matrix(1,0,0,-1,367.0046,546.0986)" d="M0 0C-.494-1.364-.944-2.745-1.354-4.136-.532-5.329 .327-6.498 1.217-7.64 1.568-6.26 1.964-4.889 2.397-3.532 1.565-2.38 .764-1.203 0 0" fill="#221f20"/>
<path transform="matrix(1,0,0,-1,423.2375,501.86543)" d="M0 0C-1.118-.215-2.23-.457-3.331-.723-2.833-3.457-2.485-6.236-2.305-9.048-1.364-23.586-4.834-37.731-12.192-49.95-11.772-51.471-11.397-53.009-11.077-54.56-2.127-41.124 2.158-25.212 1.098-8.827 .904-5.844 .535-2.898 0 0M-37.233 51.386C-38.253 50.663-39.259 49.913-40.244 49.132-35.249 46.527-30.534 43.302-26.194 39.487-14.998 29.655-7.354 16.842-4.03 2.615-2.925 2.881-1.814 3.123-.696 3.338-4.173 18.274-12.192 31.727-23.944 42.048-28.076 45.678-32.529 48.798-37.233 51.386M-72.824 57.219C-74.354 57.219-75.882 57.168-77.413 57.069-96.294 55.845-113.569 47.346-126.057 33.132-138.542 18.915-144.744 .689-143.52-18.192-143.366-20.558-143.097-22.921-142.712-25.256-142.668-25.198-142.627-25.144-142.582-25.089-142.954-22.815-143.216-20.511-143.366-18.182-144.587 .658-138.396 18.844-125.941 33.026-113.48 47.213-96.242 55.695-77.402 56.916-75.841 57.018-74.286 57.066-72.735 57.066-62.579 57.066-52.698 54.911-43.626 50.782-43.589 50.813-43.551 50.844-43.514 50.874-52.698 55.054-62.708 57.219-72.824 57.219M-72.742 60.475C-74.361 60.475-75.991 60.424-77.624 60.318-97.371 59.04-115.441 50.145-128.498 35.277-141.56 20.412-148.048 1.347-146.766-18.404-146.534-21.98-146.053-25.505-145.33-28.956-145.289-28.894-145.248-28.829-145.208-28.768-145.913-25.366-146.387-21.881-146.612-18.393-147.891 1.316-141.416 20.34-128.382 35.178-115.352 50.012-97.32 58.886-77.614 60.161-76.022 60.264-74.429 60.315-72.841 60.315-61.74 60.315-50.769 57.829-40.786 53.015-40.731 53.056-40.677 53.097-40.622 53.138-50.567 57.956-61.494 60.475-72.742 60.475" fill="#221f20"/>
<path transform="matrix(1,0,0,-1,350.3953,441.55)" d="M0 0C-1.589 0-3.181-.051-4.773-.153-24.479-1.429-42.508-10.303-55.542-25.141-68.572-39.978-75.05-59.002-73.771-78.708-73.547-82.196-73.073-85.68-72.367-89.086-71.566-87.89-70.734-86.717-69.868-85.571-70.256-83.236-70.526-80.873-70.679-78.507-71.903-59.626-65.698-41.4-53.213-27.186-40.728-12.969-23.453-4.47-4.572-3.246-3.041-3.147-1.51-3.099 .017-3.099 10.136-3.099 20.146-5.261 29.327-9.44 30.224-8.704 31.131-7.991 32.058-7.299 22.072-2.485 11.104 0 0 0" fill="#221f20"/>
<path transform="matrix(1,0,0,-1,385.8744,450.40919)" d="M0 0C-.719-.508-1.429-1.03-2.134-1.568L-2.901-2.155-3.767-1.722C-4.555-1.326-5.349-.944-6.15-.583-6.188-.614-6.225-.644-6.263-.675-5.124-1.193-3.996-1.742-2.881-2.325-1.896-1.544-.893-.794 .13-.072 .089-.048 .044-.024 0 0M-3.259 1.681C-3.314 1.64-3.368 1.602-3.423 1.562-3.362 1.531-3.304 1.504-3.246 1.476-3.191 1.514-3.137 1.555-3.082 1.596-3.143 1.623-3.201 1.653-3.259 1.681" fill="#221f20"/>
<path transform="matrix(1,0,0,-1,382.7913,448.81379)" d="M0 0C-.055-.041-.109-.078-.16-.119-.222-.092-.28-.061-.338-.034-1.265-.726-2.172-1.439-3.068-2.175-2.267-2.54-1.473-2.922-.685-3.317L.181-3.75 .951-3.164C1.654-2.625 2.363-2.104 3.082-1.596 2.066-1.04 1.04-.508 0 0" fill="#221f20"/>
<path transform="matrix(1,0,0,-1,422.5406,498.5276)" d="M0 0C-1.118-.215-2.23-.457-3.331-.723-3.072-1.827-2.84-2.939-2.635-4.061-1.534-3.795-.423-3.552 .696-3.338 .491-2.219 .256-1.105 0 0" fill="#221f20"/>
<path transform="matrix(1,0,0,-1,391.1408,573.2671)" d="M0 0C-7.207-5.1-15.294-8.782-23.913-10.876-23.705-11.998-23.473-13.109-23.214-14.217-13.566-11.888-4.548-7.661 3.392-1.752 2.247-1.197 1.115-.614 0 0M17.378 17.548C15.84 15.335 14.166 13.198 12.362 11.145 9.488 7.872 6.358 4.903 3.017 2.257 4.125 1.677 5.254 1.128 6.396 .607 9.427 3.116 12.277 5.881 14.923 8.895 16.092 10.225 17.207 11.588 18.271 12.983 18.022 14.52 17.722 16.041 17.378 17.548M-109.59 41.751C-110.473 40.476-111.315 39.173-112.116 37.84-108.308 24.101-100.593 11.752-89.632 2.124-75.998-9.85-58.832-16.3-40.847-16.3-39.221-16.3-37.588-16.249-35.952-16.143-32.767-15.935-29.631-15.533-26.549-14.94-26.804-13.835-27.04-12.72-27.244-11.602-30.173-12.165-33.152-12.546-36.173-12.741-37.721-12.84-39.265-12.891-40.806-12.891-57.966-12.891-74.368-6.747-87.385 4.684-98.629 14.561-106.293 27.445-109.59 41.751" fill="#221f20"/>
<path transform="matrix(1,0,0,-1,394.1567,571.0088)" d="M0 0C-.985-.781-1.994-1.534-3.017-2.257-1.902-2.871-.771-3.454 .375-4.009 1.394-3.253 2.397-2.465 3.382-1.65 2.237-1.128 1.111-.58 0 0" fill="#221f20"/>
<path transform="matrix(1,0,0,-1,390.4739,517.7997)" d="M0 0C-.859-.747-1.701-1.514-2.526-2.305 7.831-11.984 14.912-24.309 18.042-37.919 18.932-36.644 19.774-35.341 20.572-34.015 16.996-21.077 9.955-9.369 0 0M-33.923 18.264C-34.063 17.128-34.175 15.983-34.257 14.837-23.606 12.284-13.644 7.245-5.08-.031-4.251 .767-3.409 1.541-2.554 2.298-11.725 10.177-22.447 15.591-33.923 18.264M-50.714 20.183C-52.34 20.183-53.973 20.129-55.61 20.023-77.897 18.581-97.269 7.371-109.822-9.154-109.57-10.688-109.273-12.212-108.925-13.719-97.051 3.413-77.76 15.175-55.392 16.624-53.83 16.723-52.276 16.774-50.724 16.774-46.289 16.774-41.908 16.362-37.622 15.557-37.53 16.696-37.414 17.831-37.271 18.959-41.669 19.771-46.166 20.183-50.714 20.183" fill="#221f20"/>
<path transform="matrix(1,0,0,-1,353.2022,498.83918)" d="M0 0C-.143-1.128-.259-2.264-.351-3.406 .777-3.617 1.899-3.856 3.014-4.125 3.096-2.976 3.208-1.834 3.348-.699 2.24-.44 1.122-.208 0 0" fill="#221f20"/>
<path transform="matrix(1,0,0,-1,387.9206,515.5031)" d="M0 0C-.856-.753-1.701-1.531-2.526-2.325-2.223-2.584-1.926-2.843-1.626-3.103-1.067-3.597-.515-4.095 .027-4.603 .852-3.812 1.694-3.041 2.554-2.298 1.923-1.701 1.279-1.118 .624-.542 .416-.361 .208-.181 0 0" fill="#221f20"/>
<path transform="matrix(1,0,0,-1,409.8114,580.43936)" d="M0 0C-1.708-13.975-7.562-27.104-17.057-37.912-18.441-39.487-19.88-40.991-21.377-42.422-20.835-42.927-20.282-43.428-19.723-43.919-19.423-44.182-19.126-44.441-18.826-44.697-17.33-43.254-15.884-41.741-14.497-40.162-4.609-28.908 1.51-15.247 3.348-.706 2.223-.494 1.108-.259 0 0M2.349 24.015C1.476 22.703 .563 21.418-.402 20.156-.034 17.896 .225 15.611 .375 13.296 .59 9.983 .573 6.686 .334 3.43 1.449 3.16 2.567 2.918 3.699 2.7 3.982 6.27 4.009 9.884 3.774 13.518 3.546 17.081 3.065 20.582 2.349 24.015M-130.854 45.256C-138.341 32.873-141.788 18.741-140.844 4.153-139.62-14.725-131.12-32.004-116.903-44.489-103.883-55.924-87.487-62.111-70.325-62.111-68.75-62.111-67.171-62.057-65.586-61.955-49.961-60.942-35.556-55.03-23.801-44.823-23.835-44.792-23.869-44.758-23.903-44.724-35.502-54.802-49.998-60.789-65.596-61.798-67.154-61.9-68.705-61.951-70.253-61.951-87.402-61.951-103.791-55.801-116.801-44.373-130.984-31.911-139.47-14.674-140.687 4.166-141.648 19.021-137.925 33.122-130.786 45.014-130.81 45.092-130.83 45.177-130.854 45.256M-131.904 49.62C-140.561 36.582-145.177 20.725-144.089 3.945-142.811-15.802-133.919-33.872-119.051-46.933-105.417-58.91-88.251-65.357-70.27-65.357-68.644-65.357-67.011-65.306-65.374-65.2-48.883-64.133-33.562-57.754-21.349-47.022-21.394-46.984-21.435-46.947-21.479-46.909-33.66-57.57-49.19-64-65.385-65.047-67.018-65.153-68.647-65.204-70.27-65.204-88.213-65.204-105.342-58.77-118.949-46.817-133.786-33.783-142.661-15.751-143.936 3.955-144.986 20.204-140.816 35.918-131.87 49.449-131.88 49.507-131.894 49.562-131.904 49.62" fill="#221f20"/>
<path transform="matrix(1,0,0,-1,277.9416,530.9908)" d="M0 0C-8.946-13.532-13.116-29.245-12.066-45.494-10.791-65.2-1.916-83.232 12.921-96.266 26.528-108.22 43.657-114.653 61.6-114.653 63.223-114.653 64.853-114.602 66.486-114.496 82.68-113.449 98.21-107.02 110.391-96.358 110.228-96.215 110.061-96.072 109.897-95.929 109.276-95.383 108.67-94.831 108.07-94.272 96.314-104.476 81.91-110.391 66.285-111.4 64.699-111.506 63.121-111.557 61.546-111.557 44.383-111.557 27.987-105.373 14.967-93.938 .75-81.453-7.749-64.174-8.973-45.293-9.918-30.708-6.471-16.576 1.016-4.19 .638-2.809 .3-1.411 0 0" fill="#221f20"/>
<path transform="matrix(1,0,0,-1,278.0288,530.6349)" d="M0 0C-.041-.061-.082-.123-.123-.184-.113-.242-.099-.297-.089-.355-.048-.293-.007-.232 .038-.17 .024-.112 .014-.058 0 0M2.625 3.682C2.581 3.628 2.54 3.57 2.499 3.515 2.7 2.281 2.935 1.057 3.201-.157L3.348-.805 2.973-1.357C2.26-2.407 1.579-3.471 .927-4.548 .951-4.63 .975-4.712 .996-4.79 1.797-3.461 2.639-2.158 3.522-.883 3.174 .624 2.874 2.144 2.625 3.682" fill="#221f20"/>
<path transform="matrix(1,0,0,-1,280.5262,527.1215)" d="M0 0C-.866-1.146-1.698-2.318-2.499-3.515-2.485-3.57-2.472-3.628-2.462-3.685-2.502-3.747-2.543-3.808-2.584-3.87-2.284-5.281-1.947-6.679-1.568-8.06-.917-6.986-.235-5.922 .474-4.872L.849-4.32 .706-3.668C.44-2.455 .205-1.231 0 0" fill="#221f20"/>
<path transform="matrix(1,0,0,-1,411.0459,551.8158)" d="M0 0C-.798-1.323-1.64-2.625-2.53-3.904-2.182-5.411-1.885-6.931-1.637-8.469-.675-7.207 .242-5.919 1.115-4.609 .794-3.058 .419-1.521 0 0" fill="#221f20"/>
</g>
</g>
</svg>
