<?xml version="1.0" encoding="UTF-8" standalone="no"?>
<svg
   xmlns:dc="http://purl.org/dc/elements/1.1/"
   xmlns:cc="http://creativecommons.org/ns#"
   xmlns:rdf="http://www.w3.org/1999/02/22-rdf-syntax-ns#"
   xmlns:svg="http://www.w3.org/2000/svg"
   xmlns="http://www.w3.org/2000/svg"
   viewBox="0 0 1440 1440"
   height="1440"
   width="1440"
   xml:space="preserve"
   id="svg2"
   version="1.1"><metadata
     id="metadata8"><rdf:RDF><cc:Work
         rdf:about=""><dc:format>image/svg+xml</dc:format><dc:type
           rdf:resource="http://purl.org/dc/dcmitype/StillImage" /></cc:Work></rdf:RDF></metadata><defs
     id="defs6"><clipPath
       id="clipPath18"
       clipPathUnits="userSpaceOnUse"><path
         id="path16"
         d="M 0,1080 H 1080 V 0 H 0 Z" /></clipPath></defs><g
     transform="matrix(1.3333333,0,0,-1.3333333,0,1440)"
     id="g10"><g
       id="g12"><g
         clip-path="url(#clipPath18)"
         id="g14"><g
           transform="translate(354.2359,457.5865)"
           id="g20"><path
             id="path22"
             style="fill:#c26924;fill-opacity:1;fill-rule:nonzero;stroke:none"
             d="m 0,0 c -2.517,-4.73 -8.592,-8.289 -17.011,-8.289 -11.76,0 -18.704,6.206 -18.704,16.1 0,9.895 6.944,16.1 18.573,16.1 7.421,0 12.412,-2.777 15.45,-6.336 L -4.86,15.362 c -2.734,3.428 -6.77,5.164 -12.282,5.164 -9.069,0 -14.841,-4.296 -14.841,-12.715 0,-8.419 5.815,-12.715 15.102,-12.715 6.032,0 10.979,1.779 13.236,5.989 v 3.949 h -13.8 V 8.419 H 0 Z" /></g><g
           transform="translate(412.5064,461.6657)"
           id="g24"><path
             id="path26"
             style="fill:#c26924;fill-opacity:1;fill-rule:nonzero;stroke:none"
             d="M 0,0 -8.462,15.579 -16.925,0 Z m 1.779,-3.298 h -20.483 l -4.426,-8.159 h -4.036 l 16.708,30.378 h 4.079 L 10.328,-11.457 H 6.206 Z" /></g><g
           transform="translate(477.3297,465.2242)"
           id="g28"><path
             id="path30"
             style="fill:#c26924;fill-opacity:1;fill-rule:nonzero;stroke:none"
             d="m 0,0 c 4.904,0 8.159,1.866 8.159,5.989 0,4.122 -3.255,5.988 -8.159,5.988 H -16.49 V 0 Z m 8.072,-15.015 -10.068,11.63 h -14.451 v -11.63 h -3.689 V 15.362 H 0.261 c 6.769,0 11.63,-3.385 11.63,-9.373 0,-5.295 -3.819,-8.593 -9.417,-9.244 l 10.372,-11.76 z" /></g><g
           transform="translate(555.2155,465.3977)"
           id="g32"><path
             id="path34"
             style="fill:#c26924;fill-opacity:1;fill-rule:nonzero;stroke:none"
             d="m 0,0 c 0,7.768 -6.119,11.804 -14.754,11.804 h -10.85 v -23.608 h 10.85 C -6.119,-11.804 0,-7.768 0,0 m 3.732,0 c 0,-9.33 -7.117,-15.189 -18.226,-15.189 h -14.755 v 30.378 h 14.755 C -3.385,15.189 3.732,9.33 3.732,0" /></g><g
           transform="translate(624.7692,453.594)"
           id="g36"><path
             id="path38"
             style="fill:#c26924;fill-opacity:1;fill-rule:nonzero;stroke:none"
             d="m 0,0 v -3.385 h -29.379 v 30.377 h 28.945 v -3.385 h -25.3 v -9.85 H -4.296 V 10.372 H -25.734 V 0 Z" /></g><g
           transform="translate(693.1949,480.5863)"
           id="g40"><path
             id="path42"
             style="fill:#c26924;fill-opacity:1;fill-rule:nonzero;stroke:none"
             d="m 0,0 v -30.377 h -3.212 l -25.517,25.734 v -25.734 h -3.558 V 0 h 3.949 L -3.559,-25.039 V 0 Z" /></g><g
           transform="translate(762.2701,459.0185)"
           id="g44"><path
             id="path46"
             style="fill:#c26924;fill-opacity:1;fill-rule:nonzero;stroke:none"
             d="m 0,0 c 0,-5.598 -5.685,-9.721 -15.579,-9.721 -6.64,0 -13.019,2.083 -17.749,6.249 l 2.56,2.734 c 4.426,-3.905 9.331,-5.598 15.406,-5.598 7.334,0 11.63,2.3 11.63,6.076 0,3.688 -4.47,4.6 -12.671,5.294 -8.116,0.694 -15.884,2.474 -15.884,8.462 0,5.728 7.204,8.983 15.319,8.983 6.596,0 12.021,-2.3 15.536,-5.424 l -2.864,-2.431 c -2.951,2.908 -7.421,4.427 -12.498,4.47 -5.425,0.044 -11.761,-1.475 -11.761,-5.468 0,-3.775 5.729,-4.556 12.889,-5.12 C -6.423,7.768 0,5.989 0,0" /></g><g
           transform="translate(201.6256,569.0682)"
           id="g48"><path
             id="path50"
             style="fill:#c26924;fill-opacity:1;fill-rule:nonzero;stroke:none"
             d="M 0,0 -27.762,51.111 -55.524,0 Z m 5.837,-10.82 h -67.199 l -14.521,-26.765 h -13.241 l 54.813,99.658 h 13.383 L 33.884,-37.585 H 20.359 Z" /></g><g
           transform="translate(428.5011,631.1417)"
           id="g52"><path
             id="path54"
             style="fill:#c26924;fill-opacity:1;fill-rule:nonzero;stroke:none"
             d="m 0,0 v -52.676 c 0,-29.044 -18.223,-49.973 -52.535,-49.973 -34.311,0 -52.677,20.929 -52.677,49.973 V 0 h 11.959 v -51.964 c 0,-24.489 14.665,-39.58 40.718,-39.58 25.912,0 40.576,15.091 40.576,39.58 l 0,51.964 z" /></g><g
           transform="translate(601.5945,580.7425)"
           id="g56"><path
             id="path58"
             style="fill:#c26924;fill-opacity:1;fill-rule:nonzero;stroke:none"
             d="M 0,0 C 16.088,0 26.766,6.123 26.766,19.647 26.766,33.173 16.088,39.295 0,39.295 H -54.101 V 0 Z m 26.481,-49.26 -33.03,38.156 H -53.958 V -49.26 H -66.06 V 50.399 H 0.854 c 22.21,0 38.155,-11.104 38.155,-30.752 0,-17.369 -12.528,-28.189 -30.894,-30.324 L 42.142,-49.26 Z" /></g><path
           id="path60"
           style="fill:#c26924;fill-opacity:1;fill-rule:nonzero;stroke:none"
           d="m 737.906,631.142 h 11.959 v -99.659 h -11.959 z" /><g
           transform="translate(934.4053,569.0682)"
           id="g62"><path
             id="path64"
             style="fill:#c26924;fill-opacity:1;fill-rule:nonzero;stroke:none"
             d="M 0,0 -27.762,51.111 -55.525,0 Z m 5.837,-10.82 h -67.199 l -14.521,-26.765 h -13.241 l 54.813,99.658 h 13.383 L 33.884,-37.585 H 20.359 Z" /></g></g></g></g></svg>