<?xml version="1.0" encoding="UTF-8" standalone="no"?>
<svg
   xmlns:dc="http://purl.org/dc/elements/1.1/"
   xmlns:cc="http://creativecommons.org/ns#"
   xmlns:rdf="http://www.w3.org/1999/02/22-rdf-syntax-ns#"
   xmlns:svg="http://www.w3.org/2000/svg"
   xmlns="http://www.w3.org/2000/svg"
   viewBox="0 0 1440 1440"
   height="1440"
   width="1440"
   xml:space="preserve"
   id="svg2"
   version="1.1"><metadata
     id="metadata8"><rdf:RDF><cc:Work
         rdf:about=""><dc:format>image/svg+xml</dc:format><dc:type
           rdf:resource="http://purl.org/dc/dcmitype/StillImage" /></cc:Work></rdf:RDF></metadata><defs
     id="defs6"><clipPath
       id="clipPath18"
       clipPathUnits="userSpaceOnUse"><path
         id="path16"
         d="M 0,1080 H 1080 V 0 H 0 Z" /></clipPath></defs><g
     transform="matrix(1.3333333,0,0,-1.3333333,0,1440)"
     id="g10"><g
       id="g12"><g
         clip-path="url(#clipPath18)"
         id="g14"><g
           transform="translate(479.5518,505.4304)"
           id="g20"><path
             id="path22"
             style="fill:#283f4a;fill-opacity:1;fill-rule:nonzero;stroke:none"
             d="m 0,0 h 2.223 c 4.179,0 5.679,1.585 5.679,3.893 0,2.329 -1.5,4.339 -5.647,4.339 H 0 Z m 7.998,-1.521 c 0.755,-0.606 1.297,-1.329 1.616,-2.159 0.32,-0.84 0.479,-1.701 0.479,-2.605 h -1.68 c 0,3.711 -0.926,5.764 -5.563,5.817 H 2.829 C 2.627,-0.479 2.403,-0.489 2.18,-0.489 H 0 L -0.011,-6.285 H -1.617 V 0 l 0.011,8.743 H 2.255 C 5.53,8.743 7.668,7.796 8.731,6.339 9.253,5.605 9.519,4.808 9.519,3.936 9.519,1.851 8.008,0.298 4.892,-0.266 6.2,-0.5 7.232,-0.915 7.998,-1.521" /></g><g
           transform="translate(502.2232,513.6945)"
           id="g24"><path
             id="path26"
             style="fill:#283f4a;fill-opacity:1;fill-rule:nonzero;stroke:none"
             d="m 0,0 h -8.317 l 0.011,-6.764 h 6.551 v -0.468 h -6.551 v -6.85 H 0 v -0.467 h -9.912 v 0.053 l -0.011,0.414 h 0.011 l -0.011,7.116 v 7.434 l 9.923,0 z" /></g><g
           transform="translate(512.0587,512.801)"
           id="g28"><path
             id="path30"
             style="fill:#283f4a;fill-opacity:1;fill-rule:nonzero;stroke:none"
             d="m 0,0 c 0,0 -0.277,0.287 -0.83,0.617 -0.553,0.329 -1.361,0.617 -2.457,0.617 -2.18,0 -3.265,-1.681 -3.265,-2.861 0,-0.926 0.809,-1.67 2,-2.383 0.585,-0.35 1.223,-0.712 1.914,-1.074 1.266,-0.648 2.521,-1.361 3.531,-2.18 1.01,-0.819 1.67,-1.797 1.67,-2.988 0,-1.819 -1.787,-3.681 -6.201,-3.681 -3.53,0 -4.711,1.128 -5.019,1.617 l -0.117,0.181 h 1.723 l 0.063,-0.138 c 0.075,-0.181 0.298,-0.479 0.798,-0.755 0.5,-0.277 1.287,-0.49 2.531,-0.49 3.095,0 4.478,1.638 4.478,2.883 0,2.169 -2.446,3.541 -4.818,4.839 -2.212,1.201 -4.329,2.414 -4.329,4.137 0,0.627 0.256,1.191 0.755,1.701 0.5,0.5 1.149,0.904 1.926,1.202 0.776,0.298 1.563,0.447 2.382,0.447 1.797,0 2.946,-0.404 3.637,-0.84 C 0.712,0.627 0.957,0.436 1.095,0.266 1.17,0.17 1.223,0.106 1.255,0.064 L 1.308,0 Z" /></g><g
           transform="translate(517.278,514.1623)"
           id="g32"><path
             id="path34"
             style="fill:#283f4a;fill-opacity:1;fill-rule:nonzero;stroke:none"
             d="M 0,0 H 1.606 L 1.617,-15.017 H 0.011 Z" /></g><g
           transform="translate(530.2946,500.634)"
           id="g36"><path
             id="path38"
             style="fill:#283f4a;fill-opacity:1;fill-rule:nonzero;stroke:none"
             d="M 0,0 C 1.106,0.649 1.979,1.521 2.627,2.616 3.276,3.712 3.595,4.924 3.595,6.254 3.595,7.625 3.276,8.817 2.627,9.838 1.979,10.859 1.106,11.646 0,12.209 -1.117,12.773 -2.361,13.05 -3.754,13.05 h -2.85 l 0.01,-14.029 h 2.872 C -2.35,-0.979 -1.106,-0.649 0,0 M 5.211,6.211 C 5.211,4.244 4.51,2.329 3.042,0.883 1.574,-0.574 -0.67,-1.489 -3.722,-1.489 H -8.2 l -0.01,15.017 h 0.617 v 0.011 h 3.796 c 6.169,0 9.008,-3.159 9.008,-7.328" /></g><g
           transform="translate(548.0841,513.6945)"
           id="g40"><path
             id="path42"
             style="fill:#283f4a;fill-opacity:1;fill-rule:nonzero;stroke:none"
             d="m 0,0 h -8.317 l 0.011,-6.764 h 6.551 v -0.468 h -6.551 v -6.85 H 0 v -0.467 h -9.912 v 0.053 l -0.011,0.414 h 0.011 l -0.011,7.116 v 7.434 l 9.923,0 z" /></g><g
           transform="translate(561.4713,514.173)"
           id="g44"><path
             id="path46"
             style="fill:#283f4a;fill-opacity:1;fill-rule:nonzero;stroke:none"
             d="M 0,0 H 0.511 V -15.028 H 0 l -10.231,12.624 v -12.624 h -0.5 V 0 h 0.5 L 0,-12.603 Z" /></g><g
           transform="translate(577.879,500.7722)"
           id="g48"><path
             id="path50"
             style="fill:#283f4a;fill-opacity:1;fill-rule:nonzero;stroke:none"
             d="m 0,0 c -1.394,-1.01 -3.159,-1.904 -5.073,-1.904 -2.255,0 -4.286,0.894 -5.775,2.351 -1.489,1.446 -2.393,3.382 -2.393,5.467 0,2.084 0.904,4.02 2.393,5.466 1.489,1.446 3.52,2.34 5.775,2.34 1.914,0 3.679,-0.872 5.073,-1.893 v -1.362 c -1.085,1.426 -2.776,2.659 -5.073,2.659 -2.095,0 -3.744,-0.936 -4.861,-2.34 -0.563,-0.712 -0.989,-1.489 -1.276,-2.339 -0.287,-0.851 -0.436,-1.692 -0.436,-2.531 0,-0.841 0.138,-1.681 0.415,-2.532 0.276,-0.851 0.691,-1.627 1.244,-2.329 1.096,-1.404 2.734,-2.34 4.914,-2.34 2.233,0 3.977,1.277 5.073,2.734 z" /></g><g
           transform="translate(590.4576,513.6945)"
           id="g52"><path
             id="path54"
             style="fill:#283f4a;fill-opacity:1;fill-rule:nonzero;stroke:none"
             d="m 0,0 h -8.317 l 0.011,-6.764 h 6.551 v -0.468 h -6.551 v -6.85 H 0 v -0.467 h -9.912 v 0.053 l -0.011,0.414 h 0.011 l -0.011,7.116 v 7.434 l 9.923,0 z" /></g><g
           transform="translate(600.2931,512.801)"
           id="g56"><path
             id="path58"
             style="fill:#283f4a;fill-opacity:1;fill-rule:nonzero;stroke:none"
             d="m 0,0 c 0,0 -0.277,0.287 -0.83,0.617 -0.553,0.329 -1.361,0.617 -2.457,0.617 -2.18,0 -3.265,-1.681 -3.265,-2.861 0,-0.926 0.809,-1.67 2,-2.383 0.585,-0.35 1.223,-0.712 1.914,-1.074 1.266,-0.648 2.521,-1.361 3.531,-2.18 1.01,-0.819 1.67,-1.797 1.67,-2.988 0,-1.819 -1.787,-3.681 -6.201,-3.681 -3.53,0 -4.711,1.128 -5.019,1.617 l -0.117,0.181 h 1.723 l 0.063,-0.138 c 0.075,-0.181 0.298,-0.479 0.798,-0.755 0.5,-0.277 1.287,-0.49 2.531,-0.49 3.095,0 4.478,1.638 4.478,2.883 0,2.169 -2.446,3.541 -4.818,4.839 -2.212,1.201 -4.329,2.414 -4.329,4.137 0,0.627 0.256,1.191 0.755,1.701 0.5,0.5 1.149,0.904 1.926,1.202 0.776,0.298 1.563,0.447 2.382,0.447 1.797,0 2.946,-0.404 3.637,-0.84 C 0.712,0.627 0.957,0.436 1.095,0.266 1.17,0.17 1.223,0.106 1.255,0.064 L 1.308,0 Z" /></g><g
           transform="translate(393.4051,535.3339)"
           id="g60"><path
             id="path62"
             style="fill:#283f4a;fill-opacity:1;fill-rule:nonzero;stroke:none"
             d="m 0,0 c -4.695,-3.405 -10.645,-6.416 -17.097,-6.416 -7.599,0 -14.445,3.011 -19.463,7.921 -5.018,4.875 -8.064,11.398 -8.064,18.423 0,7.026 3.046,13.549 8.064,18.424 5.018,4.874 11.864,7.885 19.463,7.885 6.452,0 12.402,-2.939 17.097,-6.38 v -4.588 c -3.656,4.803 -9.355,8.961 -17.097,8.961 -7.061,0 -12.616,-3.154 -16.38,-7.886 -1.9,-2.401 -3.334,-5.017 -4.301,-7.885 -0.968,-2.867 -1.47,-5.699 -1.47,-8.531 0,-2.831 0.466,-5.663 1.398,-8.53 0.932,-2.868 2.33,-5.484 4.194,-7.85 3.692,-4.731 9.211,-7.885 16.559,-7.885 7.527,0 13.406,4.301 17.097,9.212 z" /></g><g
           transform="translate(435.807,578.8827)"
           id="g64"><path
             id="path66"
             style="fill:#283f4a;fill-opacity:1;fill-rule:nonzero;stroke:none"
             d="m 0,0 h -28.029 l 0.036,-22.796 h 22.079 v -1.577 H -27.993 V -47.456 H 0 v -1.577 h -33.406 v 0.179 l -0.035,1.398 h 0.035 l -0.035,23.979 V 1.577 L 0,1.577 Z" /></g><g
           transform="translate(450.2157,531.4266)"
           id="g68"><path
             id="path70"
             style="fill:#283f4a;fill-opacity:1;fill-rule:nonzero;stroke:none"
             d="M 0,0 H 27.993 V -1.577 H -5.413 v 0.179 L -5.448,0 h 0.035 l -0.035,49.033 h 5.412 z" /></g><g
           transform="translate(520.6102,578.8827)"
           id="g72"><path
             id="path74"
             style="fill:#283f4a;fill-opacity:1;fill-rule:nonzero;stroke:none"
             d="m 0,0 h -28.029 l 0.036,-22.796 h 22.079 v -1.577 H -27.993 V -47.456 H 0 v -1.577 h -33.406 v 0.179 l -0.035,1.398 h 0.035 l -0.035,23.979 V 1.577 L 0,1.577 Z" /></g><g
           transform="translate(599.5717,578.8827)"
           id="g76"><path
             id="path78"
             style="fill:#283f4a;fill-opacity:1;fill-rule:nonzero;stroke:none"
             d="m 0,0 h -20.789 v -49.033 h -5.377 L -26.201,0 c -6.918,0.036 -13.334,0.036 -19.284,0.036 h -11.541 c -4.696,0 -7.921,-2.043 -9.606,-4.731 -0.825,-1.362 -1.254,-2.724 -1.254,-4.051 0,-3.046 2.723,-5.591 6.702,-7.993 1.972,-1.218 4.158,-2.437 6.488,-3.62 8.351,-4.48 17.527,-9.319 17.527,-17.455 0,-4.05 -2.724,-7.67 -8.853,-9.714 -3.083,-1.039 -7.097,-1.541 -12.08,-1.541 -11.828,0 -15.949,3.118 -16.881,4.444 -0.072,0.108 -0.144,0.18 -0.18,0.216 l -0.214,0.286 h 5.806 l 0.143,-0.251 c 0.359,-0.86 2.689,-3.297 11.255,-3.297 6.989,0 11.362,1.9 13.513,4.516 1.075,1.326 1.613,2.689 1.613,4.086 0,7.205 -8.28,11.972 -16.273,16.309 -7.419,4.086 -14.552,8.065 -14.552,13.943 0,6.308 8.817,10.43 16.989,10.43 h 31.542 17.778 C -2.509,1.577 0,1.577 0,1.577 Z" /></g><g
           transform="translate(604.6254,552.3593)"
           id="g80"><path
             id="path82"
             style="fill:#283f4a;fill-opacity:1;fill-rule:nonzero;stroke:none"
             d="m 0,0 c 3.011,-0.179 5.52,-0.538 7.491,-1.076 1.971,-0.537 3.728,-1.147 5.341,-1.827 2.759,-1.147 5.734,-2.151 10.036,-2.581 L 10.144,25.484 Z m 29.893,-22.51 -6.237,15.162 c -2.831,0.179 -5.233,0.574 -7.133,1.111 -1.899,0.538 -3.655,1.147 -5.232,1.828 -1.578,0.645 -3.298,1.219 -5.126,1.756 -1.828,0.538 -4.122,0.861 -6.811,1.04 L -8.925,-22.51 h -3.011 L 8.495,28.136 h 6.2 L 35.054,-22.51 Z" /></g><g
           transform="translate(707.0995,577.8431)"
           id="g84"><path
             id="path86"
             style="fill:#283f4a;fill-opacity:1;fill-rule:nonzero;stroke:none"
             d="m 0,0 -10.144,-25.484 c 2.975,-0.179 5.484,-0.538 7.456,-1.076 1.971,-0.537 3.763,-1.147 5.376,-1.827 2.76,-1.147 5.699,-2.151 10.036,-2.581 z m -53.048,-26.811 h 7.527 c 14.086,0 19.141,5.341 19.141,13.119 0,7.85 -5.055,14.624 -19.033,14.624 h -7.599 z m 66.525,-6.021 c -2.832,0.179 -5.198,0.574 -7.097,1.111 -1.9,0.538 -3.656,1.147 -5.233,1.828 -1.577,0.645 -3.298,1.219 -5.126,1.756 -1.828,0.538 -4.122,0.861 -6.81,1.04 l -8.208,-20.681 v -0.216 h -5.663 c 0,12.51 -3.118,19.428 -18.746,19.607 h -0.072 c -0.681,-0.036 -1.434,-0.072 -2.186,-0.072 h -7.384 v -19.535 h -5.412 v 21.183 l 0.036,29.463 h 13.011 c 11.039,0 18.244,-3.19 21.828,-8.1 1.756,-2.473 2.652,-5.161 2.652,-8.1 0,-7.026 -5.089,-12.259 -15.591,-14.159 5.126,-0.931 8.997,-2.688 11.685,-5.268 2.652,-2.581 4.373,-5.592 5.161,-9.033 l 17.993,44.66 h 6.237 l 20.359,-50.646 h -5.198 z" /></g></g></g></g></svg>