<?xml version="1.0" encoding="UTF-8" standalone="no"?>
<svg
   xmlns:dc="http://purl.org/dc/elements/1.1/"
   xmlns:cc="http://creativecommons.org/ns#"
   xmlns:rdf="http://www.w3.org/1999/02/22-rdf-syntax-ns#"
   xmlns:svg="http://www.w3.org/2000/svg"
   xmlns="http://www.w3.org/2000/svg"
   viewBox="0 0 1122.52 793.70135"
   height="793.70135"
   width="1122.52"
   xml:space="preserve"
   id="svg2"
   version="1.1"><metadata
     id="metadata8"><rdf:RDF><cc:Work
         rdf:about=""><dc:format>image/svg+xml</dc:format><dc:type
           rdf:resource="http://purl.org/dc/dcmitype/StillImage" /></cc:Work></rdf:RDF></metadata><defs
     id="defs6"><clipPath
       id="clipPath18"
       clipPathUnits="userSpaceOnUse"><path
         id="path16"
         d="M 0,595.276 H 841.89 V 0 H 0 Z" /></clipPath></defs><g
     transform="matrix(1.3333333,0,0,-1.3333333,0,793.70133)"
     id="g10"><g
       id="g12"><g
         clip-path="url(#clipPath18)"
         id="g14"><g
           transform="translate(202.8636,259.6726)"
           id="g20"><path
             id="path22"
             style="fill:#b59759;fill-opacity:1;fill-rule:nonzero;stroke:none"
             d="m 0,0 c 0,3.575 0.746,7.636 2.016,11.99 -5.65,8.411 -11.285,16.155 -15.88,22.26 -4.36,-9.362 -7.223,-18.076 -7.223,-24.878 0,-24.928 17.042,-45.863 40.1,-51.817 C 7.356,-31.999 0,-16.846 0,0" /></g><g
           transform="translate(212.5397,272.8594)"
           id="g24"><path
             id="path26"
             style="fill:#b59759;fill-opacity:1;fill-rule:nonzero;stroke:none"
             d="M 0,0 C 9.195,-13.972 18.174,-29.523 22.75,-42.773 27.34,-29.523 36.314,-13.967 45.51,0.01 41.155,12.736 32.038,28.277 22.755,42.234 13.471,28.277 4.359,12.731 0,0" /></g><g
           transform="translate(260.7026,259.6726)"
           id="g28"><path
             id="path30"
             style="fill:#b59759;fill-opacity:1;fill-rule:nonzero;stroke:none"
             d="M 0,0 C 0,1.221 -0.128,2.525 -0.309,3.874 -10.328,-11.858 -19.293,-28.684 -21.151,-40.798 -8.371,-31.735 0,-16.836 0,0" /></g><g
           transform="translate(262.8112,279.936)"
           id="g32"><path
             id="path34"
             style="fill:#b59759;fill-opacity:1;fill-rule:nonzero;stroke:none"
             d="M 0,0 C 5.62,8.19 11.034,15.497 15.271,21.048 8.16,34.584 -1.329,48.825 -9.583,60.325 -13.501,55.137 -18.297,48.629 -23.255,41.444 -14.379,28.243 -5.365,13.261 0,0" /></g><g
           transform="translate(288.813,269.0443)"
           id="g36"><path
             id="path38"
             style="fill:#b59759;fill-opacity:1;fill-rule:nonzero;stroke:none"
             d="m 0,0 c 0,6.802 -2.859,15.516 -7.234,24.878 -4.585,-6.105 -10.21,-13.839 -15.86,-22.25 1.27,-4.359 2.006,-8.425 2.006,-12 0,-16.845 -7.356,-31.999 -19.013,-42.445 C -17.037,-45.863 0,-24.928 0,0" /></g><g
           transform="translate(209.8867,259.6726)"
           id="g40"><path
             id="path42"
             style="fill:#b59759;fill-opacity:1;fill-rule:nonzero;stroke:none"
             d="M 0,0 C 0,-16.836 8.371,-31.735 21.146,-40.798 19.293,-28.684 10.333,-11.858 0.318,3.864 0.132,2.515 0,1.221 0,0" /></g><g
           transform="translate(235.2894,327.5988)"
           id="g44"><path
             id="path46"
             style="fill:#b59759;fill-opacity:1;fill-rule:nonzero;stroke:none"
             d="M 0,0 C 5.032,7.214 9.813,13.638 13.614,18.621 5.821,29.18 0,36.28 0,36.28 0,36.28 -5.821,29.18 -13.609,18.621 -9.793,13.638 -5.026,7.214 0,0" /></g><g
           transform="translate(192.5013,300.9793)"
           id="g48"><path
             id="path50"
             style="fill:#b59759;fill-opacity:1;fill-rule:nonzero;stroke:none"
             d="M 0,0 C 4.247,-5.556 9.651,-12.863 15.281,-21.048 20.647,-7.783 29.65,7.195 38.532,20.401 33.574,27.586 28.777,34.093 24.849,39.282 16.6,27.777 7.116,13.54 0,0" /></g><g
           transform="translate(326.2658,351.9824)"
           id="g52"><path
             id="path54"
             style="fill:#b59759;fill-opacity:1;fill-rule:nonzero;stroke:none"
             d="m 0,0 c 1.906,0 3.975,-0.043 6.206,-0.124 2.231,-0.081 4.462,-0.274 6.698,-0.573 2.231,-0.299 4.351,-0.773 6.364,-1.427 2.013,-0.654 3.757,-1.582 5.227,-2.774 0.27,0.598 0.53,3.307 0.774,3.986 0.244,0.684 0.479,1.321 0.692,1.919 0.218,0.654 0.466,1.308 0.736,1.962 H -19.781 V 2.478 c 1.034,-0.599 1.833,-1.415 2.406,-2.449 0.573,-1.035 0.859,-2.15 0.859,-3.347 v -44.409 c 0,-1.201 -0.286,-2.329 -0.859,-3.389 -0.573,-1.06 -1.372,-1.894 -2.406,-2.492 v -0.487 h 46.478 l -2.368,7.199 c -0.923,-0.71 -1.945,-1.308 -3.061,-1.8 -1.115,-0.487 -2.153,-0.752 -3.401,-1.076 -2.834,-0.766 -5.839,-1.227 -9.023,-1.39 -3.184,-0.162 -6.112,-0.273 -8.775,-0.324 h -7.104 l -0.146,24.147 17.388,3.346 c 1.197,0.218 2.312,0.163 3.351,-0.162 1.03,-0.329 2.009,-0.872 2.936,-1.633 0.107,0.432 0.274,2.634 0.487,3.121 0.385,0.927 0.74,1.85 1.065,2.778 -0.274,-0.056 -0.847,-0.167 -1.714,-0.329 -0.872,-0.163 -1.932,-0.368 -3.185,-0.611 -1.252,-0.244 -2.611,-0.505 -4.081,-0.774 -1.471,-0.274 -2.971,-0.547 -4.493,-0.816 -3.534,-0.654 -7.454,-1.419 -11.754,-2.287 l 0,24.706 z" /></g><g
           transform="translate(466.9559,289.7845)"
           id="g56"><path
             id="path58"
             style="fill:#b59759;fill-opacity:1;fill-rule:nonzero;stroke:none"
             d="m 0,0 c -11.284,-3.757 -21.637,-9.814 -32.433,-14.804 -10.796,-4.99 -22.471,-8.986 -34.337,-8.187 -11.866,0.799 -23.947,7.312 -28.486,18.305 -3.033,7.345 -2.383,15.91 0.821,23.181 3.203,7.272 8.782,13.32 15.199,18.006 7.696,-7.719 15.391,-15.438 23.086,-23.158 1.447,-1.451 2.848,-4.039 1.184,-5.234 5.283,-0.012 10.565,-0.024 15.848,-0.036 -10.959,10.57 -22.793,22.149 -33.484,32.99 5.391,5.022 10.641,10.049 15.754,15.354 1.275,1.322 2.238,2.218 2.842,3.953 0.603,1.735 -0.447,5.512 -1.924,6.604 -1.502,-1.173 -3.004,-2.346 -4.506,-3.519 2.244,-2.247 0.935,-4.955 -1.151,-7.349 -3.795,-4.356 -8.785,-9.297 -13.118,-13.118 -6.286,6.312 -10.227,10.561 -16.514,16.873 -1.458,1.464 -2.892,4.027 -1.262,5.297 -5.282,0.013 -10.564,0.025 -15.846,0.037 9.346,-9.229 17.742,-17.493 27.087,-26.721 -0.004,0.004 -0.134,-0.093 -0.147,-0.102 -0.979,-0.816 -2.09,-1.511 -3.108,-2.28 -0.997,-0.753 -1.988,-1.514 -2.986,-2.265 -2.269,-1.706 -4.362,-3.655 -6.239,-5.786 -1.883,-2.139 -3.552,-4.471 -4.938,-6.962 -1.368,-2.459 -2.461,-5.078 -3.187,-7.799 -0.72,-2.702 -1.073,-5.503 -0.985,-8.3 0.091,-2.888 0.658,-5.753 1.668,-8.461 3.072,-8.238 10.427,-14.412 18.667,-17.479 8.24,-3.067 17.294,-3.314 26.027,-2.304 16.389,1.897 31.957,8.022 47.203,14.325 11.131,4.601 22.409,9.381 34.384,10.663 11.975,1.283 24.996,-1.45 33.438,-10.04 0.04,2.203 0.08,4.405 0.12,6.608 C 40.125,5.694 18.951,6.31 0,0" /></g><g
           transform="translate(442.4818,348.3712)"
           id="g60"><path
             id="path62"
             style="fill:#b59759;fill-opacity:1;fill-rule:nonzero;stroke:none"
             d="m 0,0 c 2.403,1.627 5.055,2.887 7.887,3.741 2.849,0.851 5.766,1.283 8.667,1.283 2.599,0 5.087,-0.327 7.409,-0.982 3.415,-0.89 6.36,-2.417 8.751,-4.536 2.415,-2.144 4.315,-4.675 5.649,-7.524 1.346,-2.853 2.126,-6.001 2.327,-9.354 0.205,-3.344 -0.225,-6.691 -1.274,-9.942 -0.996,-3.048 -2.455,-5.81 -4.331,-8.213 -1.873,-2.396 -4.059,-4.454 -6.493,-6.117 -2.435,-1.651 -5.103,-2.925 -7.928,-3.777 -2.857,-0.856 -5.773,-1.29 -8.67,-1.29 -2.552,0 -5.007,0.33 -7.325,0.989 -3.359,0.884 -6.276,2.427 -8.675,4.572 -2.411,2.162 -4.311,4.717 -5.649,7.598 -1.35,2.903 -2.134,6.067 -2.327,9.406 -0.204,3.329 0.222,6.674 1.274,9.937 1.001,3.051 2.447,5.799 4.295,8.17 C -4.56,-3.658 -2.403,-1.627 0,0 m -9.326,-41.837 c 2.994,-2.644 6.562,-4.765 10.612,-6.3 4.038,-1.539 8.433,-2.314 13.07,-2.314 4.581,0 8.952,0.775 12.982,2.314 4.038,1.531 7.61,3.648 10.615,6.3 3.01,2.66 5.433,5.82 7.197,9.402 1.767,3.606 2.663,7.508 2.663,11.594 0,4.086 -0.896,7.988 -2.667,11.598 -1.764,3.578 -4.183,6.752 -7.189,9.428 C 34.96,2.865 31.384,5 27.338,6.537 23.3,8.072 18.932,8.852 14.356,8.852 9.723,8.852 5.328,8.072 1.286,6.537 -2.772,4.994 -6.344,2.857 -9.33,0.187 c -3.001,-2.674 -5.42,-5.846 -7.184,-9.43 -1.776,-3.604 -2.676,-7.506 -2.676,-11.598 0,-4.092 0.9,-7.994 2.676,-11.596 1.764,-3.584 4.183,-6.744 7.188,-9.4" /></g><g
           transform="translate(492.7147,352.9923)"
           id="g64"><path
             id="path66"
             style="fill:#b59759;fill-opacity:1;fill-rule:nonzero;stroke:none"
             d="m 0,0 c 0.218,-0.603 0.449,-1.239 0.697,-1.919 0.243,-0.68 0.5,-3.223 0.773,-3.821 1.197,0.979 2.582,1.765 4.163,2.368 1.578,0.598 3.266,1.073 5.061,1.427 1.795,0.355 3.633,0.599 5.509,0.736 1.881,0.136 2.019,0.23 3.762,0.286 L 19.728,-48.82 c -0.055,-1.145 -0.371,-2.244 -0.94,-3.308 -0.573,-1.06 -1.376,-1.889 -2.41,-2.487 v -0.492 h 16.328 v 0.492 c -0.983,0.598 -1.756,1.427 -2.325,2.487 -0.577,1.064 -0.889,2.163 -0.94,3.308 l -0.118,47.897 c 1.739,-0.056 0.921,-0.15 2.802,-0.286 1.876,-0.137 3.697,-0.381 5.471,-0.736 1.765,-0.354 3.453,-0.829 5.06,-1.427 1.603,-0.603 3.005,-1.389 4.202,-2.368 0.218,0.598 0.461,3.141 0.735,3.821 0.269,0.68 0.517,1.316 0.735,1.919 0.218,0.65 0.462,1.304 0.735,1.958 H -0.735 C -0.466,1.304 -0.218,0.65 0,0" /></g><g
           transform="translate(550.3154,354.4593)"
           id="g68"><path
             id="path70"
             style="fill:#b59759;fill-opacity:1;fill-rule:nonzero;stroke:none"
             d="m 0,0 c 1.034,-0.598 1.851,-1.415 2.449,-2.449 0.598,-1.034 0.898,-2.15 0.898,-3.347 V -50.367 C 3.24,-52.872 2.124,-54.778 0,-56.081 v -0.492 h 16.088 v 0.492 c -0.979,0.598 -1.77,1.414 -2.364,2.449 -0.603,1.03 -0.902,2.175 -0.902,3.428 V -5.715 C 12.933,-3.21 14.019,-1.304 16.088,0 V 0.492 L 0,0.492 Z" /></g><g
           transform="translate(583.2411,338.0493)"
           id="g72"><path
             id="path74"
             style="fill:#b59759;fill-opacity:1;fill-rule:nonzero;stroke:none"
             d="m 0,0 c 1.522,3.266 3.522,6.112 6.001,8.531 2.475,2.424 5.304,4.33 8.489,5.715 3.184,1.389 6.462,2.163 9.839,2.329 3.59,0.107 6.556,-0.154 8.898,-0.778 2.338,-0.624 4.215,-1.32 5.63,-2.081 1.632,-0.979 2.885,-2.069 3.757,-3.266 h 5.714 c -1.034,1.308 -2.479,2.475 -4.325,3.51 -1.633,0.927 -3.826,1.756 -6.574,2.491 -2.748,0.736 -6.3,1.103 -10.656,1.103 -4.949,0 -11.989,-0.722 -16.319,-2.163 C 6.129,13.947 2.359,11.921 -0.851,9.309 -4.065,6.698 -6.596,3.607 -8.442,0.043 -10.317,-3.56 -11.22,-7.62 -11.22,-11.673 v -0.859 c 0,-3.919 0.786,-6.813 2.368,-10.407 1.577,-3.591 3.808,-6.737 6.693,-9.429 2.885,-2.693 6.369,-4.843 10.451,-6.45 4.081,-1.603 8.625,-2.406 13.634,-2.406 5.005,0 11.977,0.722 16.118,2.162 4.134,1.441 7.561,3.471 10.284,6.083 l -0.941,2.297 c -1.141,-1.09 -2.517,-2.099 -4.12,-3.022 -1.607,-0.927 -3.338,-1.714 -5.184,-2.368 -1.851,-0.654 -3.745,-1.171 -5.677,-1.551 -1.931,-0.381 -3.769,-0.573 -5.509,-0.573 -2.932,0 -5.874,0.314 -8.711,1.07 -8.174,2.178 -15.871,7.13 -18.879,15.371 -1.282,3.513 -1.867,7.172 -1.756,10.98 C -2.342,-6.856 -1.522,-3.265 0,0" /></g><g
           transform="translate(671.3738,321.11)"
           id="g76"><path
             id="path78"
             style="fill:#b59759;fill-opacity:1;fill-rule:nonzero;stroke:none"
             d="M 0,0 C -0.475,0.269 -0.957,0.523 -1.443,0.769 0.852,-0.333 3.142,-1.775 5.253,-3.656 5.328,-3.813 5.395,-3.961 5.471,-4.12 3.894,-2.543 2.069,-1.171 0,0 m -9.338,27.185 c 0.903,-1.947 1.852,-3.956 2.893,-6.079 0.923,-2.069 2.013,-4.398 3.265,-6.98 C -1.932,11.54 -0.624,8.805 0.735,5.92 L 1.146,5.022 C 1.526,4.206 1.962,3.308 2.453,2.329 2.885,1.513 3.351,0.547 3.838,-0.568 3.984,-0.899 4.144,-1.248 4.299,-1.591 0.516,1.288 -7.776,6.284 -19.34,5.594 Z m 32.343,-47.552 c -0.518,0.817 -1.155,1.933 -1.915,3.347 -1.257,2.612 -2.753,5.715 -4.493,9.305 -1.743,3.595 -3.564,7.347 -5.47,11.267 -1.578,3.159 -3.129,6.33 -4.651,9.51 -1.526,3.184 -2.953,6.163 -4.287,8.942 -1.333,2.773 -2.504,5.223 -3.513,7.347 -1.005,2.124 -1.783,3.757 -2.325,4.898 -0.107,-0.218 -4.472,-0.94 -5.045,-2.163 -0.568,-1.227 -1.303,-2.778 -2.201,-4.654 -0.897,-1.877 -1.919,-4.014 -3.064,-6.407 -1.142,-2.398 -2.313,-4.898 -3.51,-7.514 -1.632,-3.428 -3.265,-6.869 -4.898,-10.327 -1.633,-3.453 -3.116,-6.625 -4.449,-9.51 -1.334,-2.885 -2.449,-5.278 -3.347,-7.185 -0.898,-1.906 -1.427,-3.017 -1.59,-3.346 -0.927,-1.907 -2.056,-3.291 -3.389,-4.164 -1.334,-0.871 -2.629,-1.44 -3.881,-1.713 v -0.492 h 11.596 v 0.492 c -0.381,0.055 -0.83,0.256 -1.347,0.611 -0.517,0.355 -0.983,0.804 -1.389,1.351 -0.343,0.458 -0.486,0.985 -0.635,1.523 l 10.8,23.422 c 2.183,-0.039 4.458,-0.229 6.859,-0.621 2.663,-0.436 5.236,-1.116 7.711,-2.039 2.479,-0.927 4.804,-2.111 6.979,-3.552 2.176,-1.444 3.976,-3.141 5.39,-5.103 0.761,-1.688 1.534,-3.373 2.325,-5.061 0.791,-1.688 1.565,-3.265 2.325,-4.736 0.599,-1.252 0.672,-2.38 0.206,-3.385 -0.462,-1.009 -1.21,-1.812 -2.244,-2.41 v -0.492 h 15.7 v 0.492 c -0.983,0.76 -1.731,1.551 -2.248,2.367" /></g></g></g><text
       id="text82"
       style="font-variant:normal;font-weight:normal;font-stretch:normal;font-size:58.82160187px;font-family:Saudagar;-inkscape-font-specification:Saudagar;writing-mode:lr-tb;fill:#b59759;fill-opacity:1;fill-rule:nonzero;stroke:none"
       transform="matrix(1,0,0,-0.82451174,399.17378,223.5908)"><tspan
         id="tspan80"
         y="0"
         x="0 36.469391 49.527786 67.174271 110.05521 139.76012 166.99452 180.17056 212.93419">Al Marina</tspan></text>
<text
       id="text86"
       style="font-variant:normal;font-weight:bold;font-stretch:normal;font-size:37.88679886px;font-family:'August Script Bold free';-inkscape-font-specification:AugustScriptBoldfree;writing-mode:lr-tb;fill:#b59759;fill-opacity:1;fill-rule:nonzero;stroke:none"
       transform="matrix(1,0,0,-1,363.6104,228.5601)"><tspan
         id="tspan84"
         y="0"
         x="0 13.525588">by</tspan></text>
</g></svg>