<svg xmlns="http://www.w3.org/2000/svg" xmlns:xlink="http://www.w3.org/1999/xlink" version="1.1" width="1080" height="1080" viewBox="0 0 1080 1080">
<defs>
<clipPath id="clip_1">
<path transform="matrix(1,0,0,-1,0,1080)" d="M0 1080H1080V0H0Z"/>
</clipPath>
</defs>
<g>
<path transform="matrix(1,0,0,-1,0,1080)" d="M0 0H1080V1080H0Z" fill="#eb5758"/>
<path transform="matrix(1,0,0,-1,327.4585,391.12434)" d="M0 0V-60.686H-72.033V0H-107.132V-161.968H-72.033V-95.13H0V-161.968H35.303V0ZM-72.033-63.063H0 2.365V-60.686-2.377H32.938V-159.592H2.365V-95.13-92.755H0-72.033-74.398V-95.13-159.592H-104.768V-2.377H-74.398V-60.686-63.063Z" fill="#fcf295"/>
<path transform="matrix(1,0,0,-1,507.6489,391.12434)" d="M0 0-44.485-67.452-88.766 0H-127.742L-62.034-99.231V-161.968H-26.731V-99.231L38.771 0ZM-42.514-68.765 1.27-2.377H34.366L-28.702-97.918-29.096-98.515V-99.231-159.592H-59.669V-99.231-98.513L-60.065-97.914-123.328-2.377H-90.039L-46.459-68.761-44.49-71.76Z" fill="#fcf295"/>
<g clip-path="url(#clip_1)">
<path transform="matrix(1,0,0,-1,598.4659,521.3136)" d="M0 0V98.411H36.119C50.539 98.411 61.831 94.106 69.993 85.495 78.155 76.884 82.237 64.924 82.237 49.616 82.237 34.034 78.155 21.869 69.993 13.122 61.831 4.374 50.539 0 36.119 0ZM36.119 130.19H-35.098V-31.778H36.119C52.579-31.778 67.034-28.498 79.481-21.938 91.929-15.377 101.555-5.979 108.356 6.253 115.159 18.486 118.56 32.872 118.56 49.411 118.56 66.222 115.193 80.711 108.458 92.875 101.724 105.04 92.168 114.301 79.788 120.656 67.409 127.012 52.852 130.19 36.119 130.19M-2.365-2.376H0 36.119C51.152-2.376 63.129 2.292 71.718 11.496 80.267 20.658 84.601 33.483 84.601 49.616 84.601 65.483 80.262 78.106 71.705 87.134 63.118 96.193 51.144 100.786 36.119 100.786H0-2.365V98.411 0-2.376M36.119 127.813C52.396 127.813 66.727 124.693 78.712 118.541 90.609 112.432 99.921 103.409 106.391 91.72 112.896 79.97 116.195 65.735 116.195 49.411 116.195 33.36 112.863 19.23 106.292 7.412 99.749-4.355 90.359-13.521 78.383-19.833 66.337-26.183 52.117-29.403 36.119-29.403H-32.733V127.813Z" fill="#fcf295"/>
<path transform="matrix(1,0,0,-1,859.6736,391.12409)" d="M0 0H-125.701V-161.968H0V-127.524H-90.603V-96.976H0V-64.172H-90.603V-34.444H0ZM-2.365-2.376V-32.067H-90.603-92.968V-34.444-64.172-66.548H-90.603-2.365V-94.6H-90.603-92.968V-96.976-127.524-129.9H-90.603-2.365V-159.592H-123.337V-2.376Z" fill="#fcf295"/>
<path transform="matrix(1,0,0,-1,227.9505,605.828)" d="M0 0H10.782C14.707 0 16.827 2.707 16.827 6.09 16.827 9.79 14.21 11.684 10.782 11.684H0ZM-3.789-16.421V15.158H10.602C16.556 15.158 20.662 11.594 20.662 6.451 20.662 2.707 18.135-.451 14.301-1.669 15.97-2.12 17.143-3.203 17.729-4.782L22.105-16.421H18.045L13.985-5.459C13.488-4.105 12.406-3.383 10.918-3.383H0V-16.421Z" fill="#fcf295"/>
<path transform="matrix(1,0,0,-1,294.5764,622.2492)" d="M0 0V31.579H21.564V28.105H3.744V18.135H19.759V14.752H3.744V3.474H21.97V0Z" fill="#fcf295"/>
<path transform="matrix(1,0,0,-1,360.2101,612.6853)" d="M0 0H3.97C4.421-4.06 8.256-6.632 13.804-6.632 18.632-6.632 21.158-4.647 21.158-1.353 21.158 1.85 18.361 3.068 15.338 4.015L9.88 5.729C7.354 6.541 .993 7.895 .993 14.075 .993 19.173 5.188 22.512 11.73 22.512 18.948 22.512 23.413 18.857 23.91 12.136H19.985C19.669 16.601 16.556 19.083 11.549 19.083 7.579 19.083 4.782 17.278 4.782 14.256 4.782 10.782 8.391 10.06 11.098 9.203L16.195 7.624C20.211 6.361 25.037 4.782 25.037-1.173 25.037-6.722 20.797-10.06 13.804-10.06 5.865-10.06 .406-5.955 0 0" fill="#fcf295"/>
<path transform="matrix(1,0,0,-1,0,1080)" d="M430.175 489.33H433.964V457.75099H430.175Z" fill="#fcf295"/>
<path transform="matrix(1,0,0,-1,484.6219,618.7757)" d="M0 0H7.579C14.12 0 18.722 5.143 18.722 12.497 18.722 19.308 14.12 24.632 7.579 24.632H0ZM-3.789-3.474V28.106H7.354C16.421 28.106 22.737 21.7 22.737 12.497 22.737 3.068 16.421-3.474 7.354-3.474Z" fill="#fcf295"/>
<path transform="matrix(1,0,0,-1,552.7817,622.2492)" d="M0 0V31.579H21.564V28.105H3.744V18.135H19.76V14.752H3.744V3.474H21.97V0Z" fill="#fcf295"/>
<path transform="matrix(1,0,0,-1,619.9949,622.2492)" d="M0 0V31.579H4.331L22.195 5.414V31.579H25.985V0H21.654L3.789 26.165V0Z" fill="#fcf295"/>
<path transform="matrix(1,0,0,-1,691.402,606.3697)" d="M0 0C0 9.384 5.73 16.196 15.429 16.196 23.459 16.196 28.962 11.504 30.316 3.564H26.392C25.218 9.339 21.158 12.722 15.429 12.722 8.346 12.722 3.97 7.805 3.97 0 3.97-8.075 8.346-12.902 15.429-12.902 21.339-12.902 25.174-9.699 26.392-3.744H30.316C28.918-11.954 23.684-16.376 15.429-16.376 5.73-16.376 0-9.564 0 0" fill="#fcf295"/>
<path transform="matrix(1,0,0,-1,767.0961,622.2492)" d="M0 0V31.579H21.564V28.105H3.744V18.135H19.76V14.752H3.744V3.474H21.97V0Z" fill="#fcf295"/>
<path transform="matrix(1,0,0,-1,832.7297,612.6853)" d="M0 0H3.97C4.421-4.06 8.255-6.632 13.805-6.632 18.632-6.632 21.158-4.647 21.158-1.353 21.158 1.85 18.361 3.068 15.339 4.015L9.879 5.729C7.353 6.541 .992 7.895 .992 14.075 .992 19.173 5.188 22.512 11.729 22.512 18.948 22.512 23.414 18.857 23.91 12.136H19.985C19.669 16.601 16.557 19.083 11.549 19.083 7.579 19.083 4.782 17.278 4.782 14.256 4.782 10.782 8.391 10.06 11.097 9.203L16.195 7.624C20.21 6.361 25.038 4.782 25.038-1.173 25.038-6.722 20.797-10.06 13.805-10.06 5.865-10.06 .406-5.955 0 0" fill="#fcf295"/>
<path transform="matrix(1,0,0,-1,227.9505,684.9065)" d="M0 0H7.579C14.12 0 18.722 5.143 18.722 12.497 18.722 19.309 14.12 24.632 7.579 24.632H0ZM-3.789-3.473V28.106H7.354C16.421 28.106 22.737 21.7 22.737 12.497 22.737 3.068 16.421-3.473 7.354-3.473Z" fill="#fcf295"/>
<path transform="matrix(1,0,0,-1,279.1494,677.7782)" d="M0 0V20.978H3.789V.09C3.789-4.917 7.76-7.579 12.586-7.579 17.414-7.579 21.384-4.917 21.384 .09V20.978H25.173V0C25.173-6 20.707-11.143 12.586-11.098 4.421-11.098 0-6 0 0" fill="#fcf295"/>
<path transform="matrix(1,0,0,-1,338.0172,684.9065)" d="M0 0H11.504C14.662 0 16.872 2.256 16.872 5.549 16.872 9.068 14.12 10.918 10.737 10.918H0ZM0 14.301H10.512C13.894 14.301 16.241 16.557 16.241 19.76 16.241 22.647 14.12 24.632 11.098 24.632H0ZM-3.744-3.473V28.106H10.737C16.241 28.106 20.075 24.858 20.075 20.166 20.075 16.782 17.684 13.985 13.985 12.812 18.09 12.001 20.797 9.023 20.797 5.143 20.797 .046 16.827-3.473 11.098-3.473Z" fill="#fcf295"/>
<path transform="matrix(1,0,0,-1,393.9983,675.92886)" d="M0 0H11.73L5.865 14.301ZM-9.068-12.451 3.925 19.128H7.76L20.797-12.451H16.872L13.173-3.428H-1.443L-5.143-12.451Z" fill="#fcf295"/>
<path transform="matrix(1,0,0,-1,0,1080)" d="M442.445 423.199H446.23503V391.62H442.445Z" fill="#fcf295"/>
<path transform="matrix(1,0,0,-1,646.0236,688.3799)" d="M0 0V31.579H3.789V18H23.188V31.579H26.977V0H23.188V14.526H3.789V0Z" fill="#fcf295"/>
<path transform="matrix(1,0,0,-1,0,1080)" d="M703.222 423.199H707.011V391.62H703.222Z" fill="#fcf295"/>
<path transform="matrix(1,0,0,-1,737.1888,688.3799)" d="M0 0V31.579H3.79V3.473H20.707V0Z" fill="#fcf295"/>
<path transform="matrix(1,0,0,-1,786.0882,688.3799)" d="M0 0V31.579H3.789V3.473H20.707V0Z" fill="#fcf295"/>
<path transform="matrix(1,0,0,-1,832.595,678.8161)" d="M0 0H3.97C4.422-4.06 8.256-6.632 13.805-6.632 18.633-6.632 21.159-4.647 21.159-1.353 21.159 1.85 18.361 3.068 15.339 4.015L9.88 5.729C7.354 6.541 .993 7.895 .993 14.075 .993 19.173 5.188 22.512 11.73 22.512 18.948 22.512 23.414 18.857 23.91 12.136H19.985C19.669 16.601 16.557 19.083 11.549 19.083 7.58 19.083 4.782 17.278 4.782 14.256 4.782 10.782 8.392 10.061 11.098 9.203L16.196 7.624C20.211 6.361 25.038 4.782 25.038-1.173 25.038-6.722 20.797-10.06 13.805-10.06 5.866-10.06 .406-5.955 0 0" fill="#fcf295"/>
</g>
</g>
</svg>
