<?xml version="1.0" encoding="UTF-8"?><svg id="Layer_1" xmlns="http://www.w3.org/2000/svg" xmlns:xlink="http://www.w3.org/1999/xlink" viewBox="0 0 855.95 611.63"><defs><style>.cls-1{fill:#003876;}.cls-1,.cls-2,.cls-3{stroke-width:0px;}.cls-4{clip-path:url(#clippath);}.cls-2{fill:none;}.cls-3{fill:#fff;}</style><clipPath id="clippath"><rect class="cls-2" x="-109.23" y="-221.69" width="1080" height="1080"/></clipPath></defs><rect class="cls-1" x="-7.95" y="-8.78" width="874.06" height="628.83"/><g class="cls-4"><path class="cls-3" d="M488.09,375.86c-1.6-.81-3.5-1.22-5.7-1.22s-4.07.41-5.68,1.22c-1.61.81-2.86,1.96-3.74,3.45s-1.33,3.25-1.33,5.29.44,3.8,1.32,5.29c.88,1.49,2.12,2.64,3.73,3.45,1.61.81,3.51,1.22,5.68,1.22s4.09-.41,5.7-1.22c1.6-.82,2.85-1.97,3.73-3.47.89-1.5,1.33-3.25,1.33-5.27s-.44-3.8-1.31-5.29c-.88-1.49-2.12-2.64-3.72-3.45M487.82,389.88c-1.3,1.27-3.11,1.91-5.43,1.91s-4.16-.63-5.46-1.9c-1.3-1.27-1.95-3.03-1.95-5.3s.66-4.03,1.97-5.3c1.31-1.27,3.12-1.9,5.44-1.9s4.15.63,5.44,1.9c1.29,1.27,1.94,3.03,1.94,5.3s-.65,4.01-1.95,5.29"/><path class="cls-3" d="M453.96,386.67h5.87v3.9c-1.61.83-3.6,1.25-5.98,1.25s-4.28-.62-5.6-1.87c-1.33-1.25-1.99-3.02-1.99-5.33s.62-4.02,1.86-5.31c1.24-1.29,3.01-1.94,5.31-1.94,1.52,0,2.76.27,3.71.82.95.55,1.64,1.38,2.08,2.5l3.19-.48c-.57-1.75-1.6-3.12-3.11-4.1-1.51-.98-3.43-1.47-5.79-1.47-2.11,0-3.95.4-5.54,1.21-1.58.81-2.82,1.96-3.7,3.45-.89,1.5-1.33,3.29-1.33,5.38s.44,3.82,1.32,5.3c.88,1.48,2.13,2.61,3.76,3.4,1.63.79,3.57,1.18,5.82,1.18,1.73,0,3.4-.23,4.98-.69,1.59-.46,2.92-1.11,4.02-1.94v-7.86h-8.87v2.6Z"/><rect class="cls-3" x="430.13" y="375.12" width="3.21" height="18.96"/><polygon class="cls-3" points="401.73 383.64 395.71 375.12 391.96 375.12 400.06 386.24 400.06 394.08 403.27 394.08 403.27 386.24 411.38 375.12 407.79 375.12 401.73 383.64"/><path class="cls-3" d="M381.65,384.04c2.05-.69,3.08-2.04,3.08-4.06,0-3.24-2.52-4.86-7.57-4.86h-8.74v18.96h9.11c2.6,0,4.58-.47,5.92-1.41,1.35-.94,2.02-2.3,2.02-4.09,0-2.18-1.27-3.69-3.82-4.54M371.51,377.67h5.5c1.57,0,2.72.2,3.44.6.72.4,1.07,1.04,1.07,1.93,0,.96-.34,1.65-1.02,2.1-.68.44-1.76.66-3.23.66h-5.76v-5.29ZM381.07,390.83c-.76.47-2,.7-3.72.7h-5.84v-6.11h5.9c1.63,0,2.84.26,3.62.77.79.51,1.18,1.3,1.18,2.36s-.38,1.8-1.14,2.27"/><polygon class="cls-3" points="317.51 243.8 262.61 243.8 259.71 243.81 259.71 326.11 312.51 326.11 316.55 320.75 272.01 320.75 272.03 281.49 311.9 281.49 315.95 276.44 272.03 276.44 272.01 248.88 312.51 248.88 317.51 243.8"/><path class="cls-3" d="M211.59,243.54h-32.31v82.58h12.67v-20.09h19.64c18.8,0,36.06-13.78,36.06-30.78v-.92c0-17.01-17.26-30.79-36.07-30.79M235.09,275.26h0c0,14.11-8.77,25.55-23.5,25.55h-19.64v-52.06h19.64c14.74,0,23.5,11.44,23.5,25.55v.97Z"/><path class="cls-3" d="M485.63,290.32h15.9v20.92c-1.48,4.19-7.38,9.17-14.47,10.35-17.69,2.96-33.64-14.77-35.76-35.1-1.89-18.13,4.99-35.69,22.68-38.64,11.6-1.94,23.02,3.5,30.55,13.2l5.86-4.6c-7.34-8.77-17.99-14.33-29.87-14.33-22.08,0-41.87,16.37-41.87,44.38,0,23.5,19.79,40.84,41.87,40.84,9.1,0,16.61-3.44,21.02-8.76v7.1h12.57v-40.41h-30.82l2.35,5.06Z"/><path class="cls-3" d="M654.12,280.6c-13.85-5.01-22.61-7.12-24.49-15.28-1.03-4.44,1.3-17.03,19-17.03,10.79,0,18.6,6,23.53,13.62l7.36-2.75c-6.42-9.93-17.13-15.16-31.12-15.16-20.8,0-29.57,13.32-29.57,21.74,0,15.32,15.43,20.21,28.15,24.81,14.39,5.21,24.35,8.4,24.28,17.5-.07,9.23-8.64,15.22-18.59,15.22-16.5,0-22.97-7.64-24.94-16.41l-7.94,1.58c3.24,13.17,14.76,19.82,30.77,19.82s31.71-5.72,31.71-21.44c0-13.96-15.02-21.48-28.15-26.22"/><path class="cls-3" d="M396.48,299.37c7.46,0,14.59-3.03,19.91-7.91l.13,5.83h8.93v-51.65h-6.06l-3.14,5.99c-5.31-4.82-12.37-7.8-19.77-7.8-15.17,0-29.58,12.46-29.58,27.77s14.42,27.77,29.58,27.77M394.67,248.79c9.88-1.29,17.81,4.97,20.77,14.73.49,1.62.86,3.32,1.06,5.11.31,2.71.22,5.38-.18,7.91-1.48,9.26-7.46,16.76-16.5,17.95-11.52,1.5-20.98-7.35-22.4-19.95-1.42-12.6,5.74-24.25,17.26-25.75"/><path class="cls-3" d="M567.34,242.06c-22.08,0-41.89,19.12-41.89,42.62s19.81,42.61,41.89,42.61,42.14-19.13,42.14-42.63-20.06-42.6-42.14-42.6M573.88,321.55c-17.69,2.96-32.03-11.18-35.63-31.51-3.61-20.33,4.86-39.28,22.54-42.23,17.69-2.95,32.52,10.44,36.12,30.77,3.61,20.33-5.34,40.02-23.04,42.98"/><path class="cls-3" d="M395.8,322.03c-7.02,0-12.8-1.22-18.39-2.42-5.41-1.15-11.02-2.34-17.48-2.34-5.35,0-11.14.77-16.65,1.85v-75.93s-12.65,0-12.65,0l-.02,84.62c6.55-2.01,22.04-4.57,29.33-4.27,5.8.24,10.85,1.07,16.17,2.21,5.91,1.26,12.02,2.56,19.7,2.56,11.46,0,22.16-4.22,29.66-8.47v-5.35c-15.65,7.98-29.66,7.55-29.66,7.55"/></g></svg>