<svg xmlns="http://www.w3.org/2000/svg" xmlns:xlink="http://www.w3.org/1999/xlink" version="1.1" width="1080" height="1080" viewBox="0 0 1080 1080">
<defs>
<clipPath id="clip_16">
<path transform="matrix(1,0,0,-1,0,1080)" d="M0 1080H1080V0H0Z"/>
</clipPath>
</defs>
<g>
<path transform="matrix(1,0,0,-1,0,1080)" d="M0 0H1080V1080H0Z" fill="#1d4a4e"/>
<g clip-path="url(#clip_16)">
<path transform="matrix(1,0,0,-1,706.4216,529.2964)" d="M0 0C.217 .046 .35 .214 .477 .382 .578 .521 .659 .636 .654 .816 .645 .975 .578 1.134 .486 1.262 .275 1.539-.055 1.629-.341 1.453-.368 1.438-.391 1.42-.417 1.4-.431 1.388-.443 1.374-.454 1.36-.749 1.044-.894 .544-.567 .194-.425 .04-.208-.046 0 0" fill="#ffffff"/>
<path transform="matrix(1,0,0,-1,316.2206,589.1472)" d="M0 0H-2.908V25.385H0C8.728 25.385 11.768 20.889 11.768 12.694 11.768 3.437 8.728 0 0 0M13.75-6.61C22.212-5.155 27.896 1.322 27.896 14.279 27.896 28.955 20.23 38.605 2.247 38.605H-19.038V-44.687H-2.908V-12.957H.529C7.669-12.957 9.387-17.453 9.917-26.045 10.446-36.491 10.709-41.117 11.899-44.687H28.162C26.177-40.587 26.311-35.962 25.651-25.385 25.122-15.072 22.608-8.595 13.75-6.61" fill="#ffffff"/>
<path transform="matrix(1,0,0,-1,429.6455,587.296)" d="M0 0-7.536 4.759C-11.767 7.404-14.279 10.18-14.279 15.733-14.279 21.154-12.031 24.724-7.404 24.724-2.115 24.724 .264 20.757 .264 13.221V8.329H14.676V13.089C14.676 29.086 7.007 37.812-7.404 37.812-20.757 37.812-29.351 28.557-29.351 14.676-29.351 .793-22.211-4.892-14.147-9.916L-7.272-14.279C-2.247-17.584 .926-19.699 .926-25.649 .926-31.202-1.586-34.507-6.611-34.507-12.163-34.507-15.072-30.012-15.072-22.872V-17.849H-29.615V-22.608C-29.615-39.267-20.625-47.596-6.611-47.596 7.139-47.596 16.13-39.267 16.13-24.327 16.13-11.502 9.651-5.685 0 0" fill="#ffffff"/>
<path transform="matrix(1,0,0,-1,0,1080)" d="M451.393 446.166H467.78703V529.459H451.393Z" fill="#ffffff"/>
<path transform="matrix(1,0,0,-1,506.9601,603.956)" d="M0 0C0-11.632-2.908-16.921-10.709-16.921H-14.939V40.457H-10.709C-2.908 40.457 0 35.169 0 23.534ZM-8.725 53.414H-31.333V-29.878H-8.725C8.991-29.878 16.66-17.846 16.66 4.892V18.642C16.66 41.383 8.991 53.414-8.725 53.414" fill="#ffffff"/>
<path transform="matrix(1,0,0,-1,613.9963,594.4354)" d="M0 0H-.529L-18.245 43.894H-33.317V-39.399H-18.113V9.122H-17.584L2.776-39.399H15.204V43.894H0Z" fill="#ffffff"/>
<path transform="matrix(1,0,0,-1,659.0207,549.4838)" d="M0 0C-17.981 0-24.855-13.089-24.855-36.755V-48.654C-24.855-72.319-17.981-85.408 0-85.408 17.32-85.408 23.005-72.187 23.005-52.223V-48.785H7.008V-56.322C7.008-65.973 5.95-72.055-.396-72.055-6.611-72.055-7.932-65.973-7.932-56.322V-29.086C-7.932-19.435-6.611-13.353-.396-13.353 5.95-13.353 7.008-19.435 7.008-29.086V-36.622H23.005V-33.185C23.005-13.221 17.32 0 0 0" fill="#ffffff"/>
<path transform="matrix(1,0,0,-1,768.0032,587.296)" d="M0 0-7.536 4.759C-11.767 7.404-14.279 10.18-14.279 15.733-14.279 21.154-12.031 24.724-7.404 24.724-2.115 24.724 .264 20.757 .264 13.221V8.329H14.676V13.089C14.676 29.086 7.008 37.812-7.404 37.812-20.757 37.812-29.35 28.557-29.35 14.676-29.35 .793-22.211-4.892-14.147-9.916L-7.272-14.279C-2.247-17.584 .926-19.699 .926-25.649 .926-31.202-1.586-34.507-6.611-34.507-12.163-34.507-15.072-30.012-15.072-22.872V-17.849H-29.615V-22.608C-29.615-39.267-20.625-47.596-6.611-47.596 7.139-47.596 16.13-39.267 16.13-24.327 16.13-11.502 9.651-5.685 0 0" fill="#ffffff"/>
<path transform="matrix(1,0,0,-1,378.7156,583.7029)" d="M0 0H-14.959V5.149C-14.959 14.812-13.634 20.901-7.414 20.901-1.059 20.901 0 14.812 0 5.149ZM-7.018 34.269C-25.018 34.269-31.903 21.164-31.903-2.529V-14.441C-31.903-38.134-25.018-51.239-7.018-51.239 10.325-51.239 16.015-39.488 16.015-19.501V-16.284H0V-22.119C0-31.781-1.059-37.871-7.414-37.871-13.634-37.871-14.959-31.781-14.959-22.119V-11.644H16.015V0H16.012C15.925 19.738 10.194 34.269-7.018 34.269" fill="#ffffff"/>
<path transform="matrix(1,0,0,-1,559.8652,583.7029)" d="M0 0H-14.956V5.149C-14.956 14.812-13.634 20.901-7.412 20.901-1.059 20.901 0 14.812 0 5.149ZM-7.016 34.269C-25.018 34.269-31.9 21.164-31.9-2.529V-14.441C-31.9-38.134-25.018-51.239-7.016-51.239 10.325-51.239 16.018-39.488 16.018-19.501V-16.284H0V-22.119C0-31.781-1.059-37.871-7.412-37.871-13.634-37.871-14.956-31.781-14.956-22.119V-11.644H16.018V0H16.012C15.928 19.738 10.197 34.269-7.016 34.269" fill="#ffffff"/>
<path transform="matrix(1,0,0,-1,718.9767,583.7029)" d="M0 0H-14.956V5.149C-14.956 14.812-13.634 20.901-7.412 20.901-1.059 20.901 0 14.812 0 5.149ZM-14.491 47.104-9.351 50.879C-9.88 48.55-9.259 45.331-8.364 43.308-6.929 40.07-2.765 39.414 .283 40.265 .583 40.349 .444 40.77 .155 40.689-3.256 39.738-7.212 40.841-8.276 44.506-8.78 46.246-9.274 48.608-8.929 50.538-7.827 47.201-4.767 44.943-1.661 43.497 .376 42.549 2.592 41.818 4.851 41.405 1.705 37.856-5.07 37.589-9.204 38.816-13.128 39.98-14.412 43.47-14.491 47.104M-12.231 56.585C-11.936 56.455-11.659 56.246-11.479 55.975-11.282 55.677-11.297 55.416-11.346 55.078-11.407 54.667-11.43 54.198-11.748 53.889-12.04 53.602-12.48 53.55-12.859 53.666-13.839 53.967-14.077 55.116-13.822 55.998V56.001C-13.82 56.015-13.813 56.027-13.811 56.041-13.805 56.059-13.796 56.076-13.785 56.093-13.507 56.727-12.847 56.857-12.231 56.585M-7.016 34.269C-7.255 34.269-7.491 34.266-7.725 34.26-7.792 35.502-7.836 36.765-7.703 37.998-3.321 37.194 2.535 37.919 5.381 41.314 6.71 41.102 8.05 41 9.374 41.035 9.679 41.043 9.681 41.48 9.374 41.472 8.069 41.437 6.748 41.537 5.438 41.749 5.384 41.777 5.317 41.789 5.254 41.78 3.054 42.153 .891 42.838-1.1 43.729-4.465 45.235-7.835 47.659-8.686 51.448-8.686 51.464-8.69 51.478-8.694 51.493-8.696 51.513-8.703 51.53-8.711 51.547-9.3 53.664-8.862 55.754-10.14 57.677-10.943 58.885-11.962 59.111-13.324 58.602-14.957 57.99-15.263 56.957-15.875 55.489-16.322 54.416-17.602 53.904-18.537 53.293-18.699 53.186-18.688 52.933-18.479 52.885-17.762 52.723-17.044 52.56-16.326 52.397-15.872 52.294-15.415 52.197-14.962 52.087-14.939 52.082-14.921 52.08-14.904 52.078-14.908 52.056-14.911 52.031-14.912 51.999-14.931 50.922-14.929 49.843-14.927 48.764-15.22 44.423-14.126 39.885-9.458 38.426-9.05 38.298-8.616 38.186-8.165 38.09-8.171 38.073-8.181 38.057-8.182 38.038-8.321 36.788-8.275 35.508-8.207 34.249-8.208 34.249-8.209 34.249-8.21 34.249-25.325 33.676-31.9 20.632-31.9-2.529V-14.441C-31.9-38.134-25.018-51.239-7.016-51.239 10.325-51.239 16.018-39.488 16.018-19.501V-16.284H0V-22.119C0-31.781-1.059-37.871-7.412-37.871-13.634-37.871-14.956-31.781-14.956-22.119V-11.644H16.018V0H16.012C15.928 19.738 10.197 34.269-7.016 34.269" fill="#ffffff"/>
<path transform="matrix(1,0,0,-1,327.758,468.75154)" d="M0 0H-4.874V42.521H0C14.618 42.521 19.709 34.994 19.709 21.263 19.709 5.76 14.618 0 0 0M23.029-11.07C37.205-8.635 46.726 2.217 46.726 23.92 46.726 48.503 33.881 64.668 3.766 64.668H-31.891V-74.852H-4.874V-21.703H.886C12.845-21.703 15.721-29.229 16.607-43.624 17.497-61.121 17.938-68.875 19.932-74.852H47.172C43.847-67.989 44.069-60.235 42.961-42.521 42.075-25.246 37.869-14.395 23.029-11.07" fill="#ffffff"/>
<path transform="matrix(1,0,0,-1,0,1080)" d="M410.581 675.917H383.119V536.396H410.581Z" fill="#ffffff"/>
<path transform="matrix(1,0,0,-1,456.4255,545.3754)" d="M0 0C23.032 0 38.091 13.952 38.091 38.977 38.091 60.459 27.24 70.203 11.073 79.726L-1.55 87.698C-8.637 92.128-12.844 96.779-12.844 106.08-12.844 115.16-9.08 121.139-1.328 121.139 7.53 121.139 11.516 114.495 11.516 101.872V93.678H35.655V101.651C35.655 128.447 22.811 143.064-1.328 143.064-23.696 143.064-38.091 127.562-38.091 104.308-38.091 81.055-26.133 71.532-12.623 63.116L-1.107 55.808C7.308 50.271 12.623 46.728 12.623 36.763 12.623 27.461 8.416 21.925 0 21.925-9.301 21.925-14.173 29.454-14.173 41.413V49.829H-38.534V41.857C-38.534 13.952-23.475 0 0 0" fill="#ffffff"/>
<path transform="matrix(1,0,0,-1,551.487,459.64729)" d="M0 0H-25.023V8.615C-25.023 24.782-22.812 34.97-12.401 34.97-1.771 34.97 0 24.782 0 8.615ZM-11.737 57.336C-41.858 57.336-53.372 35.41-53.372-4.231V-24.161C-53.372-63.802-41.858-85.728-11.737-85.728 17.275-85.728 26.8-66.067 26.8-32.627V-27.245H0V-37.008C0-53.174-1.771-63.362-12.401-63.362-22.812-63.362-25.023-53.174-25.023-37.008V-19.481H26.8V0H26.79C26.65 33.024 17.061 57.336-11.737 57.336" fill="#ffffff"/>
<path transform="matrix(1,0,0,-1,305.4118,668.09329)" d="M0 0C3.079 0 4.939 1.538 4.939 4.258 4.939 7.05 3.008 8.555-.108 8.555H-4.798V0ZM-.324 11.563C2.435 11.563 3.937 12.957 3.937 15.212 3.937 17.467 2.471 18.9-.216 18.9H-4.798V11.563ZM-8.555-.288V19.149 21.905H.609C5.191 21.905 7.803 19.614 7.803 15.785 7.803 13.101 6.228 10.63 3.4 10.165 6.549 9.772 8.771 7.41 8.771 4.081 8.771-.396 5.763-3.151 .501-3.151H-8.555Z" fill="#ffffff"/>
<path transform="matrix(1,0,0,-1,327.9438,674.3933)" d="M0 0 2.432 5.119-3.151 17.431C-3.868 19.078-3.868 19.078-4.546 20.583H-.501C.177 18.9 .177 18.9 .822 17.395L4.51 9.236 7.982 17.254C8.768 19.149 8.768 19.149 9.341 20.583H13.314L11.848 17.254 2.576-3.295H-1.541Z" fill="#ffffff"/>
<path transform="matrix(1,0,0,-1,366.1938,668.23709)" d="M0 0V4.474C2.147 1.538 5.011-.036 8.375-.036 11.239-.036 13.065 1.431 13.065 3.616 13.065 5.263 12.097 6.48 9.986 7.338L5.476 9.236C2.111 10.63 .678 12.78 .678 15.644 .678 19.794 4.009 22.588 8.591 22.588 11.74 22.588 14.211 21.656 16.106 20.01V15.785C14.354 17.899 11.455 19.152 8.66 19.152 6.228 19.152 4.615 17.863 4.615 15.893 4.615 14.498 5.404 13.425 7.551 12.528L12.063 10.702C15.356 9.38 17.002 7.053 17.002 3.937 17.002-.609 13.494-3.544 8.196-3.544 4.687-3.544 1.967-2.363 0 0" fill="#ffffff"/>
<path transform="matrix(1,0,0,-1,402.1118,655.6009)" d="M0 0 .285-.288C3.005 1.395 3.901 2.54 3.901 4.258 3.901 6.084 2.576 7.302 .429 7.302-1.397 7.302-2.722 6.336-2.722 4.474-2.722 3.221-2.186 2.327 0 0M.429-13.065C2.756-13.065 4.51-12.315 5.584-11.062L-1.076-4.009C-3.544-5.442-4.69-6.837-4.69-8.879-4.69-11.239-2.507-13.065 .429-13.065M-6.588 4.33C-6.588 7.517-3.616 9.952 .285 9.952 4.474 9.952 7.41 7.625 7.41 4.294 7.41 1.826 5.584-.324 2.111-2.255L7.623-8.054C8.303-6.516 8.591-4.51 8.624-2.111H11.812C11.812-5.406 11.131-8.411 9.914-10.489L14.783-15.644H9.95L7.695-13.281C5.797-15.143 3.293-16.18-.108-16.18-4.798-16.18-8.591-13.173-8.591-9.344-8.591-6.12-7.125-4.225-2.936-2.075L-3.223-1.754C-5.586 .717-6.588 2.255-6.588 4.33" fill="#ffffff"/>
<path transform="matrix(1,0,0,-1,425.7867,668.23709)" d="M0 0V4.474C2.147 1.538 5.011-.036 8.375-.036 11.239-.036 13.065 1.431 13.065 3.616 13.065 5.263 12.097 6.48 9.986 7.338L5.476 9.236C2.111 10.63 .678 12.78 .678 15.644 .678 19.794 4.009 22.588 8.591 22.588 11.74 22.588 14.211 21.656 16.106 20.01V15.785C14.352 17.899 11.455 19.152 8.66 19.152 6.228 19.152 4.618 17.863 4.618 15.893 4.618 14.498 5.404 13.425 7.551 12.528L12.061 10.702C15.356 9.38 17.002 7.053 17.002 3.937 17.002-.609 13.494-3.544 8.196-3.544 4.687-3.544 1.967-2.363 0 0" fill="#ffffff"/>
<path transform="matrix(1,0,0,-1,479.2875,667.8801)" d="M0 0C4.654 0 8.984 2.972 8.984 9.164 8.984 15.359 4.654 18.328 0 18.328H-4.726V0ZM-8.483-.501V18.936 21.692H.108C7.158 21.692 12.885 17.254 12.885 9.164 12.885 1.074 7.158-3.365 .108-3.365H-8.483Z" fill="#ffffff"/>
<path transform="matrix(1,0,0,-1,515.7063,660.4345)" d="M0 0C0 2.399-1.538 4.582-4.618 4.582-7.41 4.582-9.128 2.758-9.341 0ZM-13.101-2.183C-13.101 3.295-9.986 7.16-4.618 7.16 .896 7.16 3.868 3.724 3.796-2.504H-9.377C-9.164-6.228-6.3-7.874-2.576-7.874 .036-7.874 2.435-6.909 3.508-5.191 3.508-8.984 .753-11.347-3.973-11.347-9.413-11.347-13.101-7.982-13.101-2.183" fill="#ffffff"/>
<path transform="matrix(1,0,0,-1,533.153,657.2832)" d="M0 0 3.688-9.629 7.41 .108C8.126 1.967 8.126 1.967 8.663 3.472H12.6L11.134-.18 5.584-13.961H1.79L-3.757-.216C-4.582 1.79-4.582 1.79-5.227 3.472H-1.289Z" fill="#ffffff"/>
<path transform="matrix(1,0,0,-1,567.5312,660.4345)" d="M0 0C0 2.399-1.538 4.582-4.618 4.582-7.41 4.582-9.128 2.758-9.341 0ZM-13.102-2.183C-13.102 3.295-9.986 7.16-4.618 7.16 .896 7.16 3.868 3.724 3.796-2.504H-9.377C-9.164-6.228-6.3-7.874-2.576-7.874 .036-7.874 2.435-6.909 3.508-5.191 3.508-8.984 .753-11.347-3.973-11.347-9.413-11.347-13.102-7.982-13.102-2.183" fill="#ffffff"/>
<path transform="matrix(1,0,0,-1,582.4352,668.63)" d="M0 0V19.545 23.518H3.616V.141-2.615H0Z" fill="#ffffff"/>
<path transform="matrix(1,0,0,-1,606.6417,668.4169)" d="M0 0C3.221 0 5.512 2.435 5.512 5.943 5.512 9.38 3.257 11.742 0 11.742-3.293 11.742-5.512 9.38-5.512 5.943-5.512 2.435-3.257 0 0 0M-9.236 5.943C-9.236 11.455-5.263 15.143 0 15.143 5.263 15.143 9.236 11.455 9.236 5.943 9.236 .396 5.263-3.365 0-3.365-5.263-3.365-9.236 .396-9.236 5.943" fill="#ffffff"/>
<path transform="matrix(1,0,0,-1,635.7948,668.4169)" d="M0 0C3.221 0 5.44 2.435 5.44 5.907 5.44 9.38 3.221 11.742 0 11.742-2.183 11.742-4.045 10.633-4.939 8.414V3.365C-4.045 1.181-2.219 0 0 0M-8.555 14.606H-4.939V12.387C-3.76 14.177-1.574 15.143 .788 15.143 5.62 15.143 9.2 11.563 9.2 5.907 9.2 .216 5.62-3.365 .788-3.365-1.61-3.365-3.793-2.432-4.939-.645V-6.513-9.272H-8.555V-6.657 10.633Z" fill="#ffffff"/>
<path transform="matrix(1,0,0,-1,656.3568,668.63)" d="M0 0V10.846 14.819H3.616V12.849C4.762 14.424 6.513 15.356 8.735 15.356 11.275 15.356 13.173 14.282 14.211 12.528 15.284 14.067 17.146 15.356 19.902 15.356 24.199 15.356 26.703 12.672 26.703 8.696V-.036-2.615H23.125V0 7.659C23.125 10.273 21.62 11.884 19.185 11.884 17.182 11.884 15.893 10.81 15.14 8.984V8.696-.036-2.615H11.563V0 7.659C11.563 10.273 10.094 11.884 7.659 11.884 5.763 11.884 4.546 10.954 3.616 9.2V.141-2.615H0Z" fill="#ffffff"/>
<path transform="matrix(1,0,0,-1,707.2405,660.4345)" d="M0 0C0 2.399-1.538 4.582-4.618 4.582-7.41 4.582-9.128 2.758-9.341 0ZM-13.101-2.183C-13.101 3.295-9.986 7.16-4.618 7.16 .896 7.16 3.868 3.724 3.796-2.504H-9.377C-9.164-6.228-6.3-7.874-2.576-7.874 .036-7.874 2.435-6.909 3.508-5.191 3.508-8.984 .753-11.347-3.973-11.347-9.413-11.347-13.101-7.982-13.101-2.183" fill="#ffffff"/>
<path transform="matrix(1,0,0,-1,734.2798,668.63)" d="M0 0V7.587C0 10.273-1.541 11.884-4.117 11.884-6.3 11.884-7.697 10.918-8.519 8.948V.141-2.615H-12.135V0 10.846 14.819H-8.519V12.564C-7.446 14.318-5.62 15.356-3.043 15.356 1.146 15.356 3.578 12.672 3.578 8.696V.036-2.615H0Z" fill="#ffffff"/>
<path transform="matrix(1,0,0,-1,750.9379,666.16189)" d="M0 0V9.092H-3.65L3.58 16.969V12.351H10.813V9.092H3.58V1.217C3.58-1.002 4.906-2.147 7.017-2.147 8.771-2.147 10.204-1.395 11.062 0 11.062-3.614 8.879-5.62 5.442-5.62 1.934-5.62 0-3.472 0 0" fill="#ffffff"/>
<path transform="matrix(1,0,0,-1,771.1738,669.3825)" d="M0 0V3.865C1.469 1.898 3.937 .609 6.156 .609 7.875 .609 8.771 1.397 8.771 2.648 8.771 3.757 8.27 4.366 7.053 4.867L3.829 6.264C1.503 7.266 .357 8.771 .357 11.026 .357 13.961 2.9 16.109 6.48 16.109 8.555 16.109 10.309 15.536 11.706 14.426V10.774C10.633 12.099 8.411 13.173 6.588 13.173 5.047 13.173 4.081 12.42 4.081 11.311 4.081 10.237 4.69 9.665 5.943 9.164L9.2 7.731C11.383 6.801 12.492 5.262 12.492 2.972 12.492-.216 9.88-2.399 6.192-2.399 3.616-2.399 1.574-1.61 0 0" fill="#ffffff"/>
</g>
</g>
</svg>
