<svg xmlns="http://www.w3.org/2000/svg" xmlns:xlink="http://www.w3.org/1999/xlink" version="1.1" width="1080" height="1080" viewBox="0 0 1080 1080">
<defs>
<clipPath id="clip_2">
<path transform="matrix(1,0,0,-1,0,1080)" d="M0 1080H1080V0H0Z"/>
</clipPath>
</defs>
<g>
<path transform="matrix(1,0,0,-1,0,1080)" d="M0 0H1080V1080H0Z" fill="#293e79"/>
<g clip-path="url(#clip_2)">
<path transform="matrix(1,0,0,-1,433.3785,520.851)" d="M0 0C.245-5.359-1.033-10.44-3.834-15.242-6.636-20.046-10.592-23.648-15.704-26.05-17.675-26.912-20.077-27.573-22.908-28.036-25.741-28.498-27.959-28.775-29.559-28.867-31.161-28.959-33.946-28.959-37.919-28.867-41.891-28.775-44.186-28.729-44.801-28.729V-42.399C-44.678-47.018-43.323-50.192-40.737-51.914H-56.255C-54.592-50.744-53.499-49.344-52.975-47.71-52.453-46.08-52.19-44.002-52.19-41.476V-27.898C-53.853-27.774-56.347-27.59-59.672-27.343-66.077-26.851-70.85-26.512-73.991-26.326L-68.447-42.399C-67.648-44.617-66.754-46.404-65.769-47.758-64.538-49.545-62.998-50.93-61.151-51.914H-68.91-76.669C-75.376-50.744-74.761-49.204-74.821-47.296-74.884-45.942-75.345-44.031-76.208-41.568L-81.472-26.142C-84.922-26.081-88.077-26.173-90.94-26.418-93.804-26.665-96.668-27.113-99.531-27.76-102.395-28.406-104.92-29.268-107.105-30.346-109.292-31.424-111.279-32.855-113.064-34.64-114.851-36.427-116.266-38.49-117.313-40.83L-117.498-41.568C-118.237-43.6-118.421-45.448-118.051-47.111-117.621-49.267-116.421-50.868-114.449-51.914H-122.208-129.967C-128.552-51.606-127.274-51.083-126.134-50.344-124.995-49.604-124.087-48.898-123.409-48.219-122.732-47.543-122.024-46.526-121.284-45.172-120.546-43.818-120.069-42.862-119.853-42.307-119.637-41.753-119.252-40.769-118.698-39.352-116.851-33.933-113.588-24.372-108.907-10.67-104.228 3.032-100.625 13.608-98.099 21.06-98.223 21.305-98.346 21.522-98.469 21.706-99.762 23.615-101.425 25.155-103.457 26.325-102.349 26.325-101.041 26.356-99.531 26.417-98.022 26.477-97.007 26.523-96.482 26.557-95.96 26.586-95.267 26.511-94.404 26.325-93.542 26.14-92.973 25.893-92.696 25.586-92.419 25.278-92.019 24.709-91.495 23.878-90.972 23.045-90.525 22.123-90.155 21.106-89.786 20.091-89.324 18.657-88.769 16.812-85.444 7.019-80.95-6.129-75.284-22.633-77.932-22.509-80.396-22.447-82.674-22.447-88.093-6.621-92.496 6.157-95.883 15.887-96.252 17.057-96.621 18.042-96.991 18.844-99.27 12.191-102.472 2.785-106.598-9.377-110.724-21.539-113.495-29.685-114.911-33.809-113.557-32.332-112.048-31.053-110.385-29.976-108.722-28.898-106.798-28.006-104.612-27.297-102.426-26.59-100.362-26.004-98.422-25.542-96.482-25.079-94.081-24.773-91.217-24.619-88.354-24.466-85.907-24.341-83.874-24.248-81.842-24.156-79.133-24.202-75.745-24.387-72.359-24.573-69.727-24.726-67.848-24.849-65.97-24.972-63.215-25.188-59.58-25.496-52.929-25.989-48.003-26.326-44.801-26.512-41.106-26.636-37.78-26.743-34.824-26.835-31.868-26.927-28.898-26.498-25.911-25.542-22.924-24.587-20.107-23.033-17.458-20.877-14.318-18.291-11.948-15.12-10.346-11.362-8.745-7.606-8.036-3.758-8.222 .184-8.345 3.263-9.068 6.249-10.392 9.145-11.717 12.039-13.486 14.625-15.704 16.904-17.921 19.181-20.708 20.997-24.063 22.353-27.421 23.707-31.069 24.385-35.009 24.385H-44.801V-15.058C-44.801-16.414-44.986-17.736-45.355-19.03-45.724-20.323-46.495-21.524-47.664-22.633-48.835-23.74-50.343-24.294-52.19-24.294V15.887C-52.19 18.411-52.453 20.49-52.975 22.123-53.499 23.753-54.592 25.155-56.255 26.325H-28.728C-25.342 26.325-22.123 25.847-19.075 24.893-16.027 23.937-13.38 22.614-11.131 20.921-8.884 19.227-6.928 17.272-5.266 15.056-3.602 12.838-2.326 10.452-1.432 7.897-.54 5.34-.063 2.708 0 0" fill="#ffffff"/>
<path transform="matrix(1,0,0,-1,463.7696,547.6397)" d="M0 0C4.187 0 8.05 .785 11.593 2.356 15.133 3.926 18.013 5.989 20.229 8.544 22.447 11.099 24.14 13.978 25.309 17.182 26.479 20.382 26.973 23.648 26.789 26.973 26.663 30.051 25.941 33.037 24.617 35.933 23.292 38.827 21.522 41.414 19.306 43.692 17.09 45.969 14.303 47.786 10.946 49.142 7.59 50.495 3.94 51.173 0 51.173H-9.791V0ZM35.008 26.789C35.195 23.215 34.655 19.722 33.393 16.303 32.129 12.886 30.313 9.822 27.942 7.113 25.571 4.403 22.493 2.216 18.705 .554 14.918-1.109 10.777-1.94 6.282-1.94H-9.791V-15.611C-9.668-20.229-8.314-23.403-5.727-25.125H-21.246C-19.582-23.956-18.49-22.555-17.967-20.921-17.443-19.291-17.182-17.213-17.182-14.688V42.676C-17.182 44.339-17.259 45.693-17.412 46.739-17.567 47.786-17.952 48.911-18.567 50.112-19.182 51.313-20.076 52.312-21.246 53.113H6.282C10.53 53.113 14.47 52.375 18.105 50.897 21.738 49.42 24.74 47.434 27.111 44.94 29.482 42.445 31.361 39.641 32.746 36.534 34.132 33.422 34.885 30.175 35.008 26.789" fill="#ffffff"/>
<path transform="matrix(1,0,0,-1,563.0696,563.2502)" d="M0 0C.122-4.618 1.477-7.792 4.064-9.515H-11.455C-10.285-8.715-9.391-7.713-8.776-6.512-8.161-5.311-7.776-4.189-7.621-3.141-7.468-2.095-7.391-.739-7.391 .923V38.334C-8.192 36.547-9.454 35.04-11.178 33.807-12.903 32.575-14.811 31.591-16.906 30.853-18.998 30.112-21.231 29.419-23.602 28.773-25.973 28.126-28.283 27.387-30.53 26.557-32.778 25.726-34.841 24.692-36.718 23.462-38.597 22.229-40.152 20.536-41.382 18.381-42.617 16.226-43.385 13.671-43.692 10.714V0C-43.569-4.618-42.215-7.792-39.629-9.515H-55.147C-53.484-8.345-52.391-6.945-51.868-5.311-51.345-3.681-51.083-1.603-51.083 .923V58.286C-51.083 60.81-51.345 62.89-51.868 64.522-52.391 66.152-53.484 67.554-55.147 68.724H-39.629C-42.215 67-43.569 63.829-43.692 59.211V18.844C-41.845 21.859-39.258 24.324-35.933 26.232-34.395 27.095-32.654 27.879-30.714 28.589-28.775 29.296-26.619 29.989-24.248 30.667-21.878 31.344-20.139 31.899-19.03 32.33-17.245 32.945-15.719 33.638-14.457 34.408-13.195 35.178-11.994 36.193-10.854 37.457-9.716 38.719-8.853 40.334-8.268 42.305-7.684 44.276-7.391 46.616-7.391 49.326V58.286C-7.391 59.95-7.468 61.304-7.621 62.35-7.776 63.396-8.161 64.522-8.776 65.723-9.391 66.924-10.285 67.922-11.455 68.724H4.064C1.477 67 .122 63.829 0 59.211Z" fill="#ffffff"/>
<path transform="matrix(1,0,0,-1,588.9335,563.2502)" d="M0 0C.122-4.618 1.477-7.792 4.064-9.515H-11.455C-9.793-8.345-8.699-6.945-8.176-5.311-7.652-3.681-7.391-1.603-7.391 .923V44.153C-7.391 46.616-7.652 48.679-8.176 50.343-8.699 52.004-9.793 53.421-11.455 54.591H4.064C1.477 52.804 .122 49.633 0 45.078Z" fill="#ffffff"/>
<path transform="matrix(1,0,0,-1,663.7548,572.765)" d="M0 0C.184 0 .276-.029 .276-.092 .216-.216 .153-.308 .092-.37-8.96-2.032-15.889-1.477-20.691 1.293-22.97 2.586-25.188 4.51-27.341 7.067-29.499 9.622-31.637 12.331-33.761 15.196-35.887 18.059-37.812 20.198-39.535 21.616-42.368 24.077-43.385 26.109-42.583 27.712-41.661 29.559-39.105 30.081-34.916 29.281-31.346 28.666-28.067 28.896-25.079 29.974-22.093 31.052-19.676 32.715-17.828 34.962-15.981 37.21-14.581 39.813-13.625 42.768-12.67 45.724-12.285 48.834-12.47 52.098-12.595 55.177-13.317 58.163-14.641 61.059-15.966 63.953-17.736 66.539-19.952 68.818-22.169 71.095-24.956 72.911-28.312 74.267-31.669 75.621-35.318 76.299-39.258 76.299H-49.049V9.515C-48.926 4.896-47.572 1.722-44.986 0H-60.504C-58.841 1.17-57.748 2.57-57.225 4.204-56.702 5.834-56.44 7.912-56.44 10.438V67.801C-56.44 70.325-56.702 72.404-57.225 74.037-57.748 75.667-58.841 77.069-60.504 78.239H-32.977C-28.729 78.239-24.788 77.5-21.154 76.022-17.521 74.545-14.518 72.559-12.147 70.065-9.776 67.571-7.897 64.767-6.512 61.659-5.127 58.548-4.373 55.3-4.25 51.914-4.064 47.725-4.71 43.891-6.19 40.413-7.667 36.934-9.808 34.115-12.61 31.962-15.411 29.804-18.737 28.312-22.585 27.481-26.435 26.649-30.668 26.789-35.287 27.896-37.628 28.266-39.29 28.281-40.273 27.942-41.261 27.603-41.428 26.956-40.782 26.002-40.135 25.048-38.796 24.077-36.764 23.093-35.841 22.662-34.979 22.229-34.178 21.8-33.378 21.369-32.669 20.982-32.054 20.645-31.438 20.306-30.775 19.89-30.068 19.398-29.36 18.904-28.821 18.536-28.45 18.289-28.082 18.042-27.542 17.596-26.835 16.95-26.127 16.303-25.634 15.872-25.356 15.657-25.079 15.441-24.541 14.918-23.74 14.087-22.94 13.256-22.415 12.716-22.169 12.47-21.924 12.223-21.308 11.561-20.323 10.484-19.337 9.406-18.691 8.682-18.383 8.314-17.458 7.328-16.627 6.495-15.889 5.819-15.148 5.141-14.288 4.403-13.302 3.603-12.317 2.802-11.394 2.201-10.53 1.802-9.669 1.4-8.636 .971-7.437 .508-6.236 .046-5.081-.169-3.972-.138-2.863-.107-1.54-.061 0 0" fill="#ffffff"/>
<path transform="matrix(1,0,0,-1,708.7405,496.37409)" d="M0 0H-34.27C-34.27-7.266-34.301-14.872-34.362-22.815-34.362-25.031-34.24-26.879-33.993-28.358-33.747-29.836-33.253-31.221-32.514-32.514-31.776-33.807-30.7-34.776-29.281-35.423-27.866-36.07-26.019-36.425-23.74-36.486H-10.9C-8.437-36.486-6.158-35.931-4.064-34.824-1.971-33.715-.647-31.96-.092-29.558V-44.984C-1.14-42.644-2.618-40.966-4.526-39.949-6.437-38.934-8.406-38.426-10.438-38.426H-24.108C-25.217-38.426-26.234-38.564-27.157-38.842-28.08-39.118-28.881-39.474-29.559-39.903-30.237-40.336-30.838-40.92-31.361-41.659-31.884-42.397-32.315-43.107-32.654-43.783-32.993-44.462-33.269-45.323-33.485-46.369-33.701-47.417-33.87-48.309-33.993-49.049-34.117-49.788-34.209-50.742-34.27-51.912-34.332-53.082-34.362-53.975-34.362-54.591-34.362-55.208-34.347-56.068-34.316-57.177-34.286-58.286-34.27-58.995-34.27-59.301-34.27-63.49-32.792-67.077-29.836-70.063-26.881-73.051-23.309-74.543-19.122-74.543H0C2.463-74.543 4.756-73.974 6.882-72.834 9.006-71.695 10.346-69.925 10.9-67.523V-76.391H.462-23.924C-28.789-76.391-32.962-74.652-36.44-71.172-39.92-67.694-41.661-63.521-41.661-58.654-41.661-57.978-41.675-56.932-41.707-55.515-41.738-54.099-41.753-53.067-41.753-52.421-41.753-51.774-41.721-50.866-41.661-49.696-41.6-48.526-41.506-47.633-41.382-47.016-41.261-46.402-41.075-45.63-40.828-44.708-40.583-43.783-40.26-43.061-39.859-42.536-39.459-42.014-38.967-41.428-38.38-40.782-37.796-40.135-37.12-39.627-36.348-39.257-35.58-38.888-34.686-38.534-33.669-38.195-32.654-37.857-31.499-37.626-30.206-37.503-31.56-37.317-32.761-37.072-33.807-36.764-34.856-36.456-35.78-36.103-36.58-35.701-37.379-35.301-38.074-34.73-38.658-33.992-39.244-33.253-39.735-32.56-40.135-31.914-40.537-31.267-40.844-30.359-41.06-29.189-41.276-28.019-41.445-26.988-41.567-26.094-41.692-25.203-41.767-23.97-41.799-22.399-41.83-20.829-41.83-19.475-41.799-18.335-41.767-17.197-41.738-15.625-41.707-13.625-41.675-11.624-41.661-9.946-41.661-8.59-41.661-6.066-41.922-3.986-42.445-2.354-42.968-.724-44.061 .678-45.724 1.848H10.9V-7.019C10.346-4.618 9.006-2.848 6.882-1.708 4.756-.569 2.463 0 0 0" fill="#ffffff"/>
<path transform="matrix(1,0,0,-1,780.6714,574.79006)" d="M0 0C4.093 3.136 7.294 7.142 9.603 12.021 11.91 16.899 13.108 21.885 13.196 26.981 13.282 32.077 12.629 36.955 11.236 41.615 9.842 46.274 7.513 50.282 4.246 53.636 .98 56.988-2.875 59.144-7.317 60.104L13.719 93.683H-22.082-24.499-27.112C-27.504 93.683-28.288 93.66-29.464 93.618-30.639 93.572-31.469 93.487-31.946 93.356-32.426 93.225-33.167 93.073-34.167 92.899-35.17 92.724-35.932 92.485-36.454 92.18-36.976 91.874-37.609 91.527-38.349 91.135-39.09 90.743-39.743 90.286-40.309 89.763-40.876 89.241-41.419 88.63-41.942 87.934V104.135H-33.057 23.518L-1.437 64.677C2.917 63.717 6.837 61.933 10.322 59.319 13.805 56.706 16.636 53.657 18.815 50.174 20.991 46.688 22.604 42.856 23.649 38.676 24.694 34.494 25.064 30.313 24.76 26.133 24.453 21.951 23.408 17.878 21.624 13.916 19.837 9.951 17.398 6.423 14.307 3.332 11.214 .239 7.163-2.286 2.156-4.246-2.855-6.206-8.493-7.272-14.765-7.447-19.121-7.62-23.303-7.206-27.308-6.206-31.316-5.205-35.039-3.615-38.479-1.437-41.921 .739-44.731 3.398-46.907 6.534-48.736 9.147-49.781 12.064-50.043 15.288-50.304 18.509-49.804 21.34-48.54 23.78-47.278 26.218-45.557 27.7-43.379 28.222-43.032 22.56-41.746 17.464-39.524 12.936-37.303 8.406-34.582 4.855-31.358 2.288-28.137-.283-24.652-2.178-20.905-3.397-17.161-4.617-13.438-4.922-9.734-4.311-6.033-3.703-2.789-2.266 0 0" fill="#ffffff"/>
<path transform="matrix(1,0,0,-1,796.1738,529.1201)" d="M0 0C-2.352 .085-4.377 .892-6.076 2.417-7.774 3.94-8.711 5.899-8.885 8.297-9.061 10.691-8.058 13.412-5.88 16.463-2.919 20.468 .87 23.757 5.488 26.327 10.104 28.896 14.961 30.486 20.057 31.097 25.151 31.704 30.183 31.531 35.147 30.573 40.113 29.615 44.77 27.568 49.127 24.432 53.483 21.297 56.88 17.332 59.318 12.543 61.061 9.232 62.258 5.834 62.913 2.351 63.566-1.134 63.566-4.77 62.913-8.558 62.258-12.347 60.822-15.898 58.6-19.208 56.379-22.519 53.265-25.609 49.258-28.484 45.25-31.358 41.112-33.776 36.846-35.735 32.576-37.695 28.092-39.874 23.387-42.268 18.685-44.666 14.438-47.017 10.648-49.324 6.86-51.633 3.547-54.551 .718-58.078-2.113-61.607-3.92-65.506-4.704-69.773H38.414 42.333C43.203-69.773 44.597-69.707 46.515-69.576 48.43-69.446 49.932-69.249 51.022-68.989 52.109-68.727 53.46-68.335 55.073-67.813 56.684-67.289 57.967-66.681 58.927-65.984 59.885-65.287 60.799-64.35 61.671-63.174 62.54-61.998 63.152-60.672 63.5-59.189V-80.225H52.264-10.845C-10.584-73.606-9.538-67.747-7.709-62.652-5.88-57.556-3.528-53.397-.654-50.174 2.221-46.952 5.399-44.098 8.884-41.615 12.367-39.133 16.071-36.868 19.991-34.821 23.911-32.776 27.635-30.75 31.161-28.746 34.69-26.742 38.152-24.238 41.549-21.232 44.947-18.227 47.646-14.852 49.65-11.106 52.264-6.316 53.308-1.134 52.787 4.442 52.348 9.145 51.174 13.216 49.258 16.659 47.341 20.098 44.988 22.711 42.202 24.498 39.415 26.283 36.343 27.481 32.99 28.091 29.637 28.7 26.327 28.68 23.062 28.026 19.795 27.373 16.635 26.132 13.589 24.302 10.538 22.472 8.013 20.206 6.011 17.508 2.437 12.628 .435 6.794 0 0" fill="#ffffff"/>
<path transform="matrix(1,0,0,-1,592.8608,494.8783)" d="M0 0-7.623-9.795-15.245 0-11.801 2.878H-3.445Z" fill="#ffffff"/>
<path transform="matrix(1,0,0,-1,255.9367,575.9073)" d="M0 0C-2.368-.048-5.056-.045-7.723 .339-11.709 .912-15.59 1.853-19.272 3.547-22.188 4.888-24.94 6.464-27.398 8.551-30.316 11.03-32.666 13.961-34.029 17.524-35.865 22.325-36.127 27.268-34.685 32.257-33.885 35.024-32.697 37.612-31.321 40.134-30.055 42.456-28.619 44.662-26.819 46.583-24.554 49.001-22.121 51.253-19.059 52.673-18.263 53.042-17.438 53.347-16.538 53.339-16.316 53.338-16.049 53.414-15.913 53.145-15.775 52.87-15.947 52.655-16.095 52.452-16.616 51.736-17.301 51.182-17.976 50.626-21.978 47.328-24.909 43.248-26.96 38.498-28.26 35.487-29.117 32.352-29.492 29.116-29.927 25.366-29.941 21.607-28.61 17.982-27.757 15.658-26.516 13.584-24.817 11.745-23.175 9.966-21.395 8.386-19.279 7.228-16.479 5.696-13.484 4.667-10.371 3.955-5.415 2.821-.383 2.514 4.661 2.768 8.844 2.978 12.973 3.71 16.99 4.97 21.474 6.377 25.721 8.293 29.65 10.883 32.293 12.625 34.693 14.624 36.782 17.041 38.728 19.292 40.339 21.718 41.504 24.435 42.625 27.051 43.341 29.772 43.214 32.658 43.099 35.277 42.207 37.623 40.792 39.813 38.889 42.757 36.169 44.693 33.144 46.321 29.398 48.338 25.46 49.923 21.588 51.659 17.965 53.283 14.266 54.783 10.916 56.934 8.105 58.738 5.522 60.83 3.983 63.946 2.046 67.868 2.071 71.728 4.159 75.58 5.698 78.419 7.816 80.733 10.383 82.676 11.847 83.784 13.337 84.84 14.985 85.649 18.657 87.455 22.486 88.776 26.545 89.415 30.556 90.046 34.587 90.315 38.641 90.255 41.569 90.212 44.489 89.923 47.311 89.164 50.353 88.346 53.246 87.139 55.464 84.735 57.242 82.808 58.091 80.566 58 77.932 57.849 73.587 55.332 70.947 51.695 69.152 50.305 68.466 48.833 67.918 47.292 67.62 47.008 67.565 46.713 67.561 46.422 67.55 46.061 67.538 45.769 67.663 45.634 68.027 45.495 68.399 45.516 68.746 45.793 69.062 46.255 69.59 46.893 69.698 47.528 69.802 48.415 69.949 49.27 70.194 50.118 70.495 52.1 71.199 53.256 72.612 53.862 74.586 54.76 77.515 53.757 79.958 51.936 82.155 49.257 85.389 45.619 86.831 41.578 87.295 36.791 87.845 32.103 87.137 27.496 85.823 24.518 84.973 21.545 84.107 18.824 82.566 16.599 81.305 14.679 79.679 12.98 77.775 12.17 76.866 11.478 75.884 10.976 74.777 9.621 71.79 10.045 68.965 11.828 66.303 13.5 63.806 15.796 61.993 18.389 60.543 21.944 58.554 25.672 56.92 29.371 55.223 32.89 53.607 36.402 51.962 39.759 50.024 42.271 48.574 44.658 46.951 46.742 44.878 48.816 42.816 50.085 40.336 50.905 37.616 51.956 34.124 51.559 30.684 50.144 27.348 48.699 23.942 46.603 20.966 44.184 18.188 40.869 14.38 36.977 11.271 32.759 8.539 27.33 5.024 21.39 2.785 15.109 1.359 11.354 .506 6.073-.129 0 0" fill="#ffffff"/>
</g>
</g>
</svg>
