<svg xmlns="http://www.w3.org/2000/svg" xmlns:xlink="http://www.w3.org/1999/xlink" version="1.1" width="1080" height="1080" viewBox="0 0 1080 1080">
<defs>
<clipPath id="clip_3">
<path transform="matrix(1,0,0,-1,0,1080)" d="M0 1080H1080V0H0Z"/>
</clipPath>
</defs>
<g>
<path transform="matrix(1,0,0,-1,0,1080)" d="M0 0H1080V1080H0Z" fill="#f3d985"/>
<g clip-path="url(#clip_3)">
<path transform="matrix(1,0,0,-1,756.4937,433.52693)" d="M0 0C-32.33 10.969-41.182 18.782-41.182 36.36-41.182 53.459-28.573 64.509-9.067 64.509 13.835 64.509 38.438 50.19 46.259 21.947H48.663V61.504C33.687 71.762 13.351 77.64-7.204 77.64-25.44 77.64-40.815 72.532-51.663 62.865-62.256 53.427-67.857 40.304-67.857 24.92-67.857-6.85-47.383-19.946-12.017-31.829 20.56-42.879 30.495-51.314 30.495-67.92 30.495-88.005 16.947-99.53-6.671-99.53-30.96-99.53-58.322-83.684-67.218-52.442H-69.684L-67.611-95.209C-56.767-103.814-35.648-112.926-8.534-112.926 10.128-112.926 26.926-108.054 38.764-99.207 51.676-89.559 58.5-75.523 58.5-58.607 58.5-25.91 37.049-12.357 0 0M-132.73-52.442H-135.582C-143.496-82.27-167.561-97.398-189.166-97.398H-201.926C-218.447-97.398-227.397-94.399-227.397-78.559V44.074C-227.397 59.646-219.683 71.703-202.41 72.572V74.98H-285.176V72.572C-267.375 71.703-259.92 59.771-259.92 44.074V-79.091C-259.92-95.236-267.72-107.262-285.176-107.858V-110.266H-142.104ZM-421.808 0C-454.138 10.969-462.99 18.782-462.99 36.36-462.99 53.459-450.382 64.509-430.874 64.509-407.973 64.509-383.37 50.19-375.548 21.948H-373.14V61.505C-388.121 71.762-408.457 77.64-429.012 77.64-447.248 77.64-462.622 72.532-473.471 62.865-484.064 53.427-489.665 40.304-489.665 24.92-489.665-6.85-469.191-19.946-433.825-31.828-401.244-42.879-391.313-51.314-391.313-67.92-391.313-88.005-404.862-99.529-428.479-99.529-452.768-99.529-480.13-83.684-489.026-52.442H-491.487L-489.415-95.209C-478.571-103.814-457.456-112.925-430.341-112.925-411.676-112.925-394.882-108.054-383.044-99.207-370.132-89.558-363.308-75.522-363.308-58.607-363.308-25.91-384.759-12.357-421.808 0" fill="#1c1c1b"/>
<path transform="matrix(1,0,0,-1,293.2949,616.3795)" d="M0 0C4.348 0 7.919 1.129 10.714 3.388 13.509 5.646 14.907 8.921 14.907 13.213 14.907 17.165 13.763 20.313 11.477 22.657 9.19 24.999 5.872 26.172 1.525 26.172H.424C-1.892 26.172-3.614 26.002-4.743 25.664-5.873 25.325-6.649 24.717-7.072 23.843-7.496 22.966-7.708 21.598-7.708 19.735V.085ZM-18.888-29.051C-17.646-28.6-16.757-27.641-16.219-26.172-15.683-24.704-15.414-22.445-15.414-19.396V16.431C-15.414 19.423-15.683 21.626-16.219 23.038-16.757 24.449-17.646 25.38-18.888 25.833-20.13 26.284-21.993 26.51-24.478 26.51V28.035H1.864C8.752 28.035 14.018 26.722 17.66 24.097 21.302 21.471 23.123 17.899 23.123 13.382 23.123 9.656 21.696 6.507 18.846 3.938 15.994 1.368 12.167-.339 7.369-1.186L17.533-14.737C20.637-18.86 23.123-21.952 24.986-24.012 26.849-26.074 28.571-27.542 30.153-28.416 31.733-29.292 33.456-29.729 35.32-29.729V-31.254H20.666L-1.185-1.779H-7.708V-18.972C-7.708-22.191-7.44-24.549-6.903-26.045-6.367-27.542-5.492-28.53-4.277-29.009-3.063-29.49-1.214-29.729 1.271-29.729V-31.254H-24.478V-29.729C-21.993-29.729-20.13-29.504-18.888-29.051" fill="#1c1c1b"/>
<path transform="matrix(1,0,0,-1,373.8417,649.58108)" d="M0 0C0 .791-.283 1.313-.847 1.567-1.412 1.821-2.344 1.948-3.642 1.948H-41.502V3.473C-39.018 3.473-37.154 3.698-35.912 4.15-34.671 4.602-33.781 5.548-33.243 6.988-32.708 8.427-32.439 10.672-32.439 13.721V49.464C-32.439 52.513-32.708 54.757-33.243 56.197-33.781 57.637-34.671 58.582-35.912 59.035-37.154 59.486-39.018 59.712-41.502 59.712V61.237H-5.42C-4.179 61.237-3.275 61.377-2.71 61.66-2.146 61.942-1.863 62.45-1.863 63.185-1.863 63.693-1.92 64.116-2.032 64.455L-.508 64.879 4.32 46.923 2.711 46.415C1.355 49.915 .07 52.541-1.143 54.291-2.358 56.041-3.953 57.326-5.928 58.145-7.906 58.963-10.616 59.373-14.059 59.373H-16.347C-18.888 59.373-20.723 59.217-21.852 58.908-22.982 58.597-23.745 57.989-24.139 57.086-24.534 56.182-24.732 54.686-24.732 52.598V33.795H-19.057C-16.347 33.795-14.328 34.119-13.001 34.769-11.675 35.417-10.799 36.378-10.375 37.648-9.952 38.919-9.74 40.768-9.74 43.196H-8.13V22.614H-9.74C-9.74 25.099-9.966 26.976-10.417 28.247-10.87 29.517-11.745 30.449-13.043 31.042-14.343 31.635-16.319 31.931-18.972 31.931H-24.732V10.587C-24.732 8.555-24.534 7.072-24.139 6.141-23.745 5.209-22.996 4.587-21.894 4.277-20.793 3.966-19.029 3.811-16.601 3.811H-11.942C-8.442 3.811-5.674 4.248-3.642 5.124-1.609 5.999 .042 7.439 1.313 9.444 2.583 11.447 3.839 14.399 5.082 18.295L6.691 17.787 1.355-1.694-.169-1.27C-.057-.932 0-.508 0 0" fill="#1c1c1b"/>
<path transform="matrix(1,0,0,-1,388.4943,628.4066)" d="M0 0 1.864 .423C4.856-12.281 11.18-18.634 20.836-18.634 23.885-18.634 26.539-18.083 28.797-16.982 31.056-15.881 32.764-14.414 33.922-12.578 35.078-10.743 35.658-8.753 35.658-6.606 35.658-4.123 35.008-2.033 33.71-.339 32.411 1.355 30.619 2.795 28.332 3.981 26.045 5.167 22.897 6.493 18.888 7.962 14.878 9.43 11.561 10.884 8.936 12.324 6.311 13.763 4.206 15.57 2.626 17.744 1.044 19.917 .255 22.558 .255 25.664 .255 28.656 1.129 31.366 2.88 33.795 4.629 36.222 6.973 38.127 9.91 39.512 12.845 40.894 16.008 41.587 19.396 41.587 22.67 41.587 25.946 41.079 29.221 40.062 29.446 40.005 29.912 39.878 30.619 39.681 31.324 39.482 31.932 39.385 32.439 39.385 33.117 39.385 33.653 39.709 34.049 40.359 34.443 41.007 34.613 41.841 34.557 42.857L36.167 43.111 40.571 23.8 38.792 23.461C37.268 28.543 34.853 32.509 31.55 35.361 28.247 38.212 24.308 39.639 19.735 39.639 15.725 39.639 12.662 38.665 10.545 36.717 8.427 34.769 7.369 32.326 7.369 29.39 7.369 26.227 8.568 23.602 10.968 21.513 13.368 19.423 17.419 17.448 23.123 15.584 29.842 13.382 34.769 10.784 37.902 7.792 41.036 4.799 42.604 1.157 42.604-3.134 42.604-6.522 41.643-9.558 39.724-12.239 37.803-14.921 35.192-17.011 31.889-18.507 28.586-20.002 24.901-20.751 20.836-20.751 18.35-20.751 16.248-20.524 14.526-20.073 12.803-19.621 11.011-19.002 9.148-18.21 7.509-17.533 6.323-17.194 5.59-17.194 4.009-17.194 3.162-18.267 3.049-20.412L1.44-20.582Z" fill="#1c1c1b"/>
<path transform="matrix(1,0,0,-1,441.6836,645.431)" d="M0 0C1.241 .452 2.131 1.398 2.669 2.837 3.204 4.277 3.473 6.522 3.473 9.571V45.313C3.473 48.363 3.204 50.607 2.669 52.047 2.131 53.487 1.241 54.432 0 54.884-1.242 55.336-3.106 55.562-5.59 55.562V57.087H20.158V55.562C17.787 55.562 15.979 55.336 14.737 54.884 13.495 54.432 12.591 53.487 12.027 52.047 11.462 50.607 11.18 48.363 11.18 45.313V9.656C11.18 6.606 11.447 4.348 11.985 2.88 12.521 1.411 13.395 .452 14.61 0 15.824-.453 17.673-.678 20.158-.678V-2.202H-5.59V-.678C-3.106-.678-1.242-.453 0 0" fill="#1c1c1b"/>
<path transform="matrix(1,0,0,-1,487.5479,642.8476)" d="M0 0C.593-1.158 1.524-1.935 2.795-2.329 4.065-2.725 5.83-2.922 8.089-2.922H11.138C15.824-2.922 19.932-1.765 23.461 .551 26.99 2.865 29.7 6.168 31.592 10.46 33.484 14.751 34.43 19.748 34.43 25.452 34.43 30.985 33.399 35.785 31.338 39.85 29.276 43.916 26.256 47.063 22.276 49.294 18.295 51.524 13.509 52.64 7.919 52.64 4.701 52.64 2.427 52.202 1.101 51.327-.226 50.451-.889 48.687-.889 46.033V5.04C-.889 2.837-.593 1.157 0 0M-11.985-2.583C-10.799-2.132-9.939-1.173-9.401 .296-8.865 1.764-8.597 4.051-8.597 7.157V42.815C-8.597 45.864-8.865 48.094-9.401 49.506-9.939 50.917-10.799 51.848-11.985 52.301-13.171 52.753-14.978 52.979-17.405 52.979V54.503H8.089C15.316 54.503 21.555 53.36 26.807 51.073 32.058 48.786 36.067 45.483 38.833 41.163 41.6 36.844 42.984 31.719 42.984 25.791 42.984 19.296 41.629 13.763 38.919 9.19 36.208 4.616 32.326 1.143 27.273-1.228 22.218-3.6 16.247-4.785 9.359-4.785H-17.405V-3.261C-14.978-3.261-13.171-3.036-11.985-2.583" fill="#1c1c1b"/>
<path transform="matrix(1,0,0,-1,574.491,649.58108)" d="M0 0C0 .791-.283 1.313-.847 1.567-1.412 1.821-2.344 1.948-3.642 1.948H-41.502V3.473C-39.018 3.473-37.154 3.698-35.912 4.15-34.671 4.602-33.781 5.548-33.243 6.988-32.708 8.427-32.439 10.672-32.439 13.721V49.464C-32.439 52.513-32.708 54.757-33.243 56.197-33.781 57.637-34.671 58.582-35.912 59.035-37.154 59.486-39.018 59.712-41.502 59.712V61.237H-5.42C-4.179 61.237-3.275 61.377-2.71 61.66-2.146 61.942-1.863 62.45-1.863 63.185-1.863 63.693-1.92 64.116-2.032 64.455L-.508 64.879 4.32 46.923 2.711 46.415C1.355 49.915 .07 52.541-1.143 54.291-2.358 56.041-3.953 57.326-5.928 58.145-7.906 58.963-10.616 59.373-14.059 59.373H-16.347C-18.888 59.373-20.723 59.217-21.852 58.908-22.982 58.597-23.745 57.989-24.139 57.086-24.534 56.182-24.732 54.686-24.732 52.598V33.795H-19.057C-16.347 33.795-14.328 34.119-13.001 34.769-11.675 35.417-10.799 36.378-10.375 37.648-9.952 38.919-9.74 40.768-9.74 43.196H-8.13V22.614H-9.74C-9.74 25.099-9.966 26.976-10.417 28.247-10.87 29.517-11.745 30.449-13.044 31.042-14.343 31.635-16.319 31.931-18.972 31.931H-24.732V10.587C-24.732 8.555-24.534 7.072-24.139 6.141-23.745 5.209-22.995 4.587-21.894 4.277-20.793 3.966-19.029 3.811-16.601 3.811H-11.942C-8.442 3.811-5.674 4.248-3.642 5.124-1.609 5.999 .042 7.439 1.313 9.444 2.583 11.447 3.839 14.399 5.082 18.295L6.691 17.787 1.355-1.694-.169-1.27C-.057-.932 0-.508 0 0" fill="#1c1c1b"/>
<path transform="matrix(1,0,0,-1,592.8292,643.8216)" d="M0 0C1.44 1.525 2.16 4.065 2.16 7.623V46.923C2.16 49.576 1.495 51.412 .169 52.428-1.158 53.444-3.375 53.953-6.479 53.953V55.477H8.427L47.473 9.147V43.958C47.473 47.685 46.598 50.281 44.848 51.751 43.096 53.218 40.329 53.953 36.547 53.953V55.477H57.468V53.953C54.701 53.953 52.682 53.218 51.412 51.751 50.141 50.281 49.506 47.713 49.506 44.043V-4.404H48.574L4.277 47.77V7.623C4.277 3.952 5.082 1.383 6.691-.085 8.3-1.554 10.996-2.287 14.78-2.287V-3.811H-6.395V-2.287C-3.572-2.287-1.44-1.525 0 0" fill="#1c1c1b"/>
<path transform="matrix(1,0,0,-1,668.8869,645.34609)" d="M0 0C-4.546 2.541-8.188 6.154-10.925 10.841-13.666 15.527-15.034 20.948-15.034 27.103-15.034 33.202-13.594 38.65-10.714 43.45-7.834 48.249-4.023 51.962 .72 54.588 5.464 57.214 10.573 58.526 16.051 58.526 18.931 58.526 22.092 58.158 25.537 57.425 27.456 57.086 28.698 56.917 29.263 56.917 31.296 56.917 32.312 57.595 32.312 58.95 32.312 59.458 32.256 59.882 32.143 60.22L33.668 60.559 38.665 41.333 37.055 40.824C35.192 46.188 32.425 50.169 28.755 52.767 25.084 55.363 20.821 56.663 15.966 56.663 11.617 56.663 7.763 55.42 4.405 52.936 1.044 50.451-1.567 47.007-3.43 42.603-5.294 38.199-6.225 33.229-6.225 27.696-6.225 22.049-5.096 17.095-2.837 12.832-.58 8.568 2.414 5.307 6.141 3.049 9.867 .79 13.876-.339 18.168-.339 22.346-.339 26.312 .678 30.068 2.71 33.823 4.743 36.801 7.82 39.003 11.942L40.359 11.011C37.648 6.098 34.062 2.399 29.602-.085 25.141-2.569 20.229-3.811 14.865-3.811 9.499-3.811 4.545-2.541 0 0" fill="#1c1c1b"/>
<path transform="matrix(1,0,0,-1,755.4912,649.58108)" d="M0 0C0 .791-.283 1.313-.847 1.567-1.412 1.821-2.344 1.948-3.642 1.948H-41.502V3.473C-39.018 3.473-37.154 3.698-35.912 4.15-34.671 4.602-33.781 5.548-33.243 6.988-32.708 8.427-32.439 10.672-32.439 13.721V49.464C-32.439 52.513-32.708 54.757-33.243 56.197-33.781 57.637-34.671 58.582-35.912 59.035-37.154 59.486-39.018 59.712-41.502 59.712V61.237H-5.42C-4.179 61.237-3.275 61.377-2.71 61.66-2.146 61.942-1.863 62.45-1.863 63.185-1.863 63.693-1.92 64.116-2.032 64.455L-.508 64.879 4.32 46.923 2.711 46.415C1.355 49.915 .07 52.541-1.143 54.291-2.358 56.041-3.953 57.326-5.928 58.145-7.906 58.963-10.616 59.373-14.059 59.373H-16.347C-18.888 59.373-20.723 59.217-21.852 58.908-22.982 58.597-23.745 57.989-24.139 57.086-24.534 56.182-24.732 54.686-24.732 52.598V33.795H-19.057C-16.347 33.795-14.328 34.119-13.001 34.769-11.675 35.417-10.799 36.378-10.375 37.648-9.952 38.919-9.74 40.768-9.74 43.196H-8.13V22.614H-9.74C-9.74 25.099-9.966 26.976-10.417 28.247-10.871 29.517-11.745 30.449-13.044 31.042-14.343 31.635-16.319 31.931-18.972 31.931H-24.732V10.587C-24.732 8.555-24.534 7.072-24.139 6.141-23.745 5.209-22.996 4.587-21.894 4.277-20.793 3.966-19.029 3.811-16.601 3.811H-11.942C-8.442 3.811-5.674 4.248-3.642 5.124-1.609 5.999 .042 7.439 1.313 9.444 2.583 11.447 3.839 14.399 5.082 18.295L6.691 17.787 1.355-1.694-.169-1.27C-.057-.932 0-.508 0 0" fill="#1c1c1b"/>
<path transform="matrix(1,0,0,-1,770.1437,628.4066)" d="M0 0 1.864 .423C4.856-12.281 11.18-18.634 20.836-18.634 23.885-18.634 26.539-18.083 28.797-16.982 31.056-15.881 32.764-14.414 33.922-12.578 35.078-10.743 35.658-8.753 35.658-6.606 35.658-4.123 35.008-2.033 33.71-.339 32.411 1.355 30.619 2.795 28.332 3.981 26.045 5.167 22.896 6.493 18.888 7.962 14.878 9.43 11.561 10.884 8.936 12.324 6.311 13.763 4.206 15.57 2.626 17.744 1.044 19.917 .255 22.558 .255 25.664 .255 28.656 1.129 31.366 2.88 33.795 4.629 36.222 6.973 38.127 9.91 39.512 12.845 40.894 16.008 41.587 19.396 41.587 22.67 41.587 25.946 41.079 29.221 40.062 29.446 40.005 29.912 39.878 30.619 39.681 31.324 39.482 31.932 39.385 32.439 39.385 33.117 39.385 33.653 39.709 34.049 40.359 34.443 41.007 34.613 41.841 34.557 42.857L36.167 43.111 40.571 23.8 38.792 23.461C37.268 28.543 34.853 32.509 31.55 35.361 28.247 38.212 24.308 39.639 19.735 39.639 15.725 39.639 12.662 38.665 10.545 36.717 8.427 34.769 7.369 32.326 7.369 29.39 7.369 26.227 8.568 23.602 10.968 21.513 13.368 19.423 17.419 17.448 23.123 15.584 29.842 13.382 34.769 10.784 37.902 7.792 41.036 4.799 42.604 1.157 42.604-3.134 42.604-6.522 41.643-9.558 39.724-12.239 37.803-14.921 35.192-17.011 31.889-18.507 28.586-20.002 24.901-20.751 20.836-20.751 18.35-20.751 16.248-20.524 14.526-20.073 12.803-19.621 11.011-19.002 9.148-18.21 7.509-17.533 6.323-17.194 5.59-17.194 4.009-17.194 3.162-18.267 3.049-20.412L1.44-20.582Z" fill="#1c1c1b"/>
<path transform="matrix(1,0,0,-1,289.0395,698.4162)" d="M0 0-6.921 17.918-13.841 0ZM2.253-12.232C3.004-11.802 3.38-11.087 3.38-10.086 3.38-9.227 3.076-8.03 2.467-6.492L.429-1.18H-14.27L-16.094-5.901C-16.596-7.225-16.846-8.315-16.846-9.174-16.846-11.642-14.986-12.875-11.266-12.875V-13.841H-23.981V-12.875C-22.407-12.875-21.146-12.304-20.198-11.159-19.251-10.014-18.24-8.083-17.167-5.365L-7.565 19.527-8.744 22.585-8.691 22.961C-6.974 23.783-5.669 24.731-4.775 25.804H-4.399L7.94-6.33C8.619-8.119 9.218-9.46 9.737-10.354 10.255-11.248 10.828-11.892 11.453-12.285 12.079-12.679 12.892-12.875 13.894-12.875V-13.841H-1.288V-12.875C.322-12.875 1.501-12.661 2.253-12.232" fill="#1c1c1b"/>
<path transform="matrix(1,0,0,-1,313.5833,710.8623)" d="M0 0C.768 .286 1.314 .859 1.637 1.716 1.958 2.575 2.12 3.934 2.12 5.794V31.116C2.12 32.581 1.851 33.61 1.314 34.2 .778 34.79-.152 35.085-1.476 35.085H-3.192C-4.694 35.085-5.973 34.71-7.028 33.958-8.083 33.207-9.004 32.143-9.791 30.766-10.577 29.39-11.49 27.467-12.527 25L-13.439 25.321-10.434 38.25-9.576 38.035C-9.648 37.678-9.683 37.427-9.683 37.285-9.683 36.819-9.504 36.515-9.147 36.373-8.789 36.229-8.181 36.158-7.323 36.158H16.55C17.372 36.158 17.963 36.22 18.321 36.346 18.678 36.471 18.857 36.766 18.857 37.231 18.857 37.553 18.821 37.821 18.75 38.035L19.608 38.25 22.666 25.321 21.754 25C20.681 27.503 19.76 29.434 18.991 30.793 18.222 32.152 17.319 33.207 16.282 33.958 15.245 34.71 13.975 35.085 12.473 35.085H10.757C9.397 35.085 8.441 34.79 7.886 34.2 7.331 33.61 7.055 32.581 7.055 31.116V5.794C7.055 3.934 7.215 2.575 7.538 1.716 7.859 .859 8.404 .286 9.174 0 9.942-.287 11.132-.429 12.741-.429V-1.395H-3.567V-.429C-1.958-.429-.769-.287 0 0" fill="#1c1c1b"/>
<path transform="matrix(1,0,0,-1,368.3296,695.5731)" d="M0 0C1.681 0 3.254 .411 4.721 1.234 6.187 2.056 7.368 3.227 8.261 4.748 9.155 6.268 9.603 8.029 9.603 10.032 9.603 13.43 8.655 15.888 6.759 17.409 4.864 18.928 2.522 19.688-.268 19.688-1.377 19.688-2.218 19.581-2.79 19.367-3.362 19.152-3.765 18.758-3.997 18.186-4.229 17.614-4.345 16.738-4.345 15.558V.483C-3.058 .161-1.609 0 0 0M-11.427-15.289C-10.641-15.004-10.077-14.396-9.737-13.465-9.398-12.535-9.227-11.087-9.227-9.12V13.358C-9.227 15.325-9.398 16.765-9.737 17.677-10.077 18.589-10.631 19.187-11.4 19.474-12.17 19.76-13.358 19.903-14.967 19.903V20.869H.59C5.06 20.869 8.547 19.921 11.051 18.025 13.554 16.129 14.807 13.465 14.807 10.032 14.807 7.672 14.153 5.651 12.848 3.97 11.543 2.288 9.782 1.01 7.565 .134 5.346-.742 2.897-1.18 .215-1.18-1.323-1.18-2.843-1.055-4.345-.805V-8.959C-4.345-10.998-4.167-12.482-3.809-13.411-3.452-14.342-2.835-14.959-1.959-15.262-1.082-15.567 .286-15.719 2.146-15.719V-16.684H-14.967V-15.719C-13.394-15.719-12.214-15.576-11.427-15.289" fill="#1c1c1b"/>
<path transform="matrix(1,0,0,-1,403.4154,698.4162)" d="M0 0-6.92 17.918-13.841 0ZM2.253-12.232C3.004-11.802 3.38-11.087 3.38-10.086 3.38-9.227 3.076-8.03 2.467-6.492L.429-1.18H-14.27L-16.094-5.901C-16.596-7.225-16.846-8.315-16.846-9.174-16.846-11.642-14.986-12.875-11.266-12.875V-13.841H-23.981V-12.875C-22.407-12.875-21.146-12.304-20.198-11.159-19.251-10.014-18.24-8.083-17.167-5.365L-7.565 19.527-8.744 22.585-8.691 22.961C-6.974 23.783-5.669 24.731-4.775 25.804H-4.399L7.94-6.33C8.619-8.119 9.218-9.46 9.737-10.354 10.255-11.248 10.828-11.892 11.453-12.285 12.079-12.679 12.892-12.875 13.894-12.875V-13.841H-1.288V-12.875C.322-12.875 1.501-12.661 2.253-12.232" fill="#1c1c1b"/>
<path transform="matrix(1,0,0,-1,446.011,713.4912)" d="M0 0C0 .465-.188 .787-.563 .966-.939 1.145-1.538 1.234-2.361 1.234H-26.18V2.2C-24.643 2.2-23.48 2.342-22.693 2.629-21.907 2.914-21.334 3.514-20.977 4.426-20.619 5.338-20.44 6.76-20.44 8.691V31.33C-20.44 33.262-20.61 34.683-20.95 35.595-21.289 36.507-21.853 37.105-22.639 37.392-23.426 37.678-24.606 37.822-26.18 37.822V38.787H-9.066V37.822C-10.963 37.822-12.348 37.678-13.224 37.392-14.101 37.105-14.708 36.515-15.048 35.622-15.388 34.727-15.557 33.297-15.557 31.33V6.652C-15.557 5.4-15.406 4.48-15.102 3.89-14.798 3.299-14.262 2.906-13.492 2.709-12.724 2.512-11.552 2.414-9.979 2.414H-8.154C-5.615 2.414-3.648 2.763-2.253 3.461-.859 4.158 .241 5.231 1.046 6.679 1.851 8.128 2.717 10.318 3.648 13.251L4.614 12.982 .805-1.073-.107-.805C-.036-.59 0-.322 0 0" fill="#1c1c1b"/>
<path transform="matrix(1,0,0,-1,457.4109,709.8698)" d="M0 0C.84 .947 1.261 2.62 1.261 5.016V29.64C1.261 31.464 .84 32.679 0 33.288-.84 33.896-2.172 34.2-3.997 34.2V35.166H5.553L20.306 6.572 34.307 35.166H44.446V34.2C42.979 34.2 41.88 34.048 41.147 33.744 40.414 33.44 39.877 32.823 39.538 31.893 39.198 30.963 39.028 29.496 39.028 27.494V5.016C39.028 3.049 39.189 1.618 39.511 .724 39.833-.171 40.351-.751 41.067-1.02 41.782-1.288 42.909-1.422 44.446-1.422V-2.387H28.675V-1.422C30.212-1.422 31.338-1.288 32.054-1.02 32.769-.751 33.296-.161 33.637 .751 33.976 1.663 34.147 3.12 34.147 5.123V31.571L18.589-.349H17.999L2.655 30.337 2.601 5.07C2.601 2.637 3.022 .947 3.863 0 4.702-.948 6.017-1.422 7.805-1.422V-2.387H-3.943V-1.422C-2.155-1.422-.84-.948 0 0" fill="#1c1c1b"/>
<path transform="matrix(1,0,0,-1,516.0468,723.3085)" d="M0 0C-.912 .537-1.368 1.252-1.368 2.146-1.368 2.719-1.171 3.21-.778 3.621-.384 4.033 .134 4.238 .778 4.238 1.243 4.238 1.645 4.113 1.985 3.863 2.325 3.613 2.744 3.219 3.245 2.682 3.817 2.039 4.345 1.547 4.828 1.207 5.311 .868 5.91 .697 6.625 .697 7.877 .697 8.815 1.377 9.442 2.736 10.068 4.096 10.38 6.438 10.38 9.764V41.147C10.38 43.114 10.201 44.545 9.844 45.439 9.486 46.333 8.869 46.923 7.993 47.209 7.116 47.495 5.731 47.639 3.836 47.639V48.605H20.949V47.639C19.375 47.639 18.204 47.495 17.435 47.209 16.666 46.923 16.112 46.324 15.773 45.412 15.432 44.5 15.263 43.079 15.263 41.147V11.695C15.263 7.654 14.278 4.56 12.312 2.414 10.345 .268 7.609-.805 4.104-.805 2.28-.805 .912-.537 0 0" fill="#1c1c1b"/>
<path transform="matrix(1,0,0,-1,548.8779,709.5749)" d="M0 0C-2.343 2.431-3.514 6.169-3.514 11.213V27.414C-3.514 29.345-3.684 30.766-4.023 31.679-4.364 32.591-4.927 33.189-5.714 33.476-6.5 33.762-7.681 33.905-9.254 33.905V34.871H7.109V33.905C5.57 33.905 4.416 33.762 3.648 33.476 2.878 33.189 2.307 32.581 1.932 31.652 1.556 30.721 1.368 29.309 1.368 27.414V11.802C1.368 7.474 2.28 4.193 4.104 1.958 5.928-.277 8.52-1.395 11.883-1.395 15.817-1.395 18.75-.197 20.681 2.2 22.612 4.595 23.578 8.315 23.578 13.358V27.36C23.578 29.792 23.076 31.491 22.076 32.456 21.074 33.422 19.411 33.905 17.086 33.905V34.871H30.176V33.905C28.388 33.905 27.056 33.403 26.18 32.403 25.303 31.401 24.865 29.738 24.865 27.414V13.358C24.865 7.707 23.712 3.461 21.405 .617 19.098-2.226 15.531-3.648 10.703-3.648 5.91-3.648 2.342-2.433 0 0" fill="#1c1c1b"/>
<path transform="matrix(1,0,0,-1,585.7335,709.8698)" d="M0 0C.84 .947 1.261 2.62 1.261 5.016V29.64C1.261 31.464 .84 32.679 0 33.288-.84 33.896-2.172 34.2-3.997 34.2V35.166H5.553L20.306 6.572 34.307 35.166H44.446V34.2C42.979 34.2 41.88 34.048 41.147 33.744 40.414 33.44 39.877 32.823 39.538 31.893 39.198 30.963 39.028 29.496 39.028 27.494V5.016C39.028 3.049 39.189 1.618 39.511 .724 39.833-.171 40.351-.751 41.067-1.02 41.782-1.288 42.909-1.422 44.446-1.422V-2.387H28.675V-1.422C30.212-1.422 31.338-1.288 32.054-1.02 32.769-.751 33.296-.161 33.637 .751 33.976 1.663 34.147 3.12 34.147 5.123V31.571L18.589-.349H17.999L2.655 30.337 2.601 5.07C2.601 2.637 3.022 .947 3.863 0 4.702-.948 6.017-1.422 7.805-1.422V-2.387H-3.943V-1.422C-2.155-1.422-.84-.948 0 0" fill="#1c1c1b"/>
<path transform="matrix(1,0,0,-1,661.7247,713.4912)" d="M0 0C0 .502-.179 .832-.537 .993-.895 1.153-1.484 1.234-2.307 1.234H-26.287V2.2C-24.714 2.2-23.533 2.342-22.746 2.629-21.96 2.914-21.397 3.514-21.057 4.426-20.717 5.338-20.547 6.76-20.547 8.691V31.33C-20.547 33.262-20.717 34.683-21.057 35.595-21.397 36.507-21.96 37.105-22.746 37.392-23.533 37.678-24.714 37.822-26.287 37.822V38.787H-3.434C-2.647 38.787-2.075 38.876-1.717 39.055-1.36 39.233-1.18 39.556-1.18 40.021-1.18 40.343-1.217 40.611-1.288 40.826L-.322 41.094 2.736 29.721 1.716 29.398C.859 31.615 .044 33.279-.724 34.388-1.494 35.496-2.504 36.31-3.755 36.829-5.008 37.347-6.725 37.607-8.905 37.607H-10.354C-11.963 37.607-13.126 37.508-13.841 37.312-14.557 37.114-15.04 36.73-15.29 36.158-15.54 35.586-15.665 34.638-15.665 33.315V21.405H-12.071C-10.354 21.405-9.076 21.611-8.236 22.023-7.395 22.433-6.841 23.042-6.572 23.846-6.304 24.651-6.17 25.822-6.17 27.36H-5.15V14.324H-6.17C-6.17 15.897-6.313 17.086-6.599 17.892-6.886 18.696-7.439 19.286-8.261 19.662-9.085 20.037-10.336 20.225-12.017 20.225H-15.665V6.706C-15.665 5.418-15.54 4.48-15.29 3.89-15.04 3.299-14.565 2.906-13.868 2.709-13.171 2.512-12.053 2.414-10.515 2.414H-7.565C-5.348 2.414-3.595 2.691-2.307 3.245-1.02 3.8 .026 4.712 .832 5.982 1.636 7.251 2.432 9.12 3.219 11.588L4.238 11.266 .859-1.073-.107-.805C-.036-.59 0-.322 0 0" fill="#1c1c1b"/>
<path transform="matrix(1,0,0,-1,672.7761,710.8623)" d="M0 0C.786 .286 1.35 .885 1.69 1.797 2.029 2.709 2.199 4.131 2.199 6.062V28.701C2.199 30.633 2.029 32.054 1.69 32.966 1.35 33.878 .786 34.477 0 34.764-.787 35.049-1.967 35.193-3.54 35.193V36.158H12.768V35.193C11.266 35.193 10.121 35.049 9.335 34.764 8.547 34.477 7.975 33.878 7.618 32.966 7.26 32.054 7.082 30.633 7.082 28.701V6.116C7.082 4.184 7.251 2.754 7.591 1.824 7.931 .894 8.485 .286 9.254 0 10.023-.287 11.194-.429 12.768-.429V-1.395H-3.54V-.429C-1.967-.429-.787-.287 0 0" fill="#1c1c1b"/>
<path transform="matrix(1,0,0,-1,706.3054,692.4614)" d="M0 0C2.754 0 5.016 .715 6.786 2.146 8.557 3.576 9.442 5.651 9.442 8.369 9.442 10.872 8.718 12.866 7.269 14.35 5.82 15.834 3.72 16.577 .966 16.577H.268C-1.199 16.577-2.289 16.469-3.004 16.255-3.72 16.04-4.211 15.655-4.48 15.102-4.748 14.547-4.882 13.68-4.882 12.5V.054ZM-11.963-18.401C-11.177-18.116-10.614-17.508-10.274-16.577-9.934-15.647-9.764-14.217-9.764-12.285V10.407C-9.764 12.303-9.934 13.697-10.274 14.592-10.614 15.485-11.177 16.076-11.963 16.362-12.75 16.648-13.931 16.792-15.504 16.792V17.757H1.18C5.543 17.757 8.879 16.925 11.186 15.262 13.492 13.6 14.646 11.337 14.646 8.476 14.646 6.116 13.742 4.122 11.936 2.495 10.13 .867 7.707-.215 4.667-.751L11.105-9.335C13.072-11.946 14.646-13.904 15.826-15.209 17.006-16.515 18.096-17.445 19.098-17.999 20.099-18.553 21.19-18.83 22.371-18.83V-19.796H13.09L-.751-1.126H-4.882V-12.017C-4.882-14.055-4.712-15.549-4.372-16.496-4.033-17.445-3.479-18.07-2.709-18.374-1.94-18.678-.769-18.83 .805-18.83V-19.796H-15.504V-18.83C-13.931-18.83-12.75-18.688-11.963-18.401" fill="#1c1c1b"/>
<path transform="matrix(1,0,0,-1,754.3187,698.4162)" d="M0 0-6.92 17.918-13.841 0ZM2.253-12.232C3.004-11.802 3.38-11.087 3.38-10.086 3.38-9.227 3.076-8.03 2.467-6.492L.429-1.18H-14.27L-16.094-5.901C-16.596-7.225-16.846-8.315-16.846-9.174-16.846-11.642-14.986-12.875-11.266-12.875V-13.841H-23.981V-12.875C-22.407-12.875-21.146-12.304-20.198-11.159-19.251-10.014-18.24-8.083-17.167-5.365L-7.565 19.527-8.744 22.585-8.691 22.961C-6.974 23.783-5.669 24.731-4.775 25.804H-4.399L7.94-6.33C8.619-8.119 9.218-9.46 9.737-10.354 10.255-11.248 10.828-11.892 11.453-12.285 12.079-12.679 12.892-12.875 13.894-12.875V-13.841H-1.288V-12.875C.322-12.875 1.501-12.661 2.253-12.232" fill="#1c1c1b"/>
<path transform="matrix(1,0,0,-1,799.3553,710.8623)" d="M0 0C.769 .286 1.323 .885 1.663 1.797 2.003 2.709 2.173 4.131 2.173 6.062V17.596H-17.998V6.169C-17.998 4.202-17.829 2.754-17.488 1.824-17.149 .894-16.595 .286-15.825 0-15.057-.287-13.886-.429-12.312-.429V-1.395H-28.62V-.429C-27.047-.429-25.866-.287-25.08 0-24.294 .286-23.73 .885-23.39 1.797-23.051 2.709-22.881 4.131-22.881 6.062V28.701C-22.881 30.633-23.051 32.054-23.39 32.966-23.73 33.878-24.294 34.477-25.08 34.764-25.866 35.049-27.047 35.193-28.62 35.193V36.158H-12.312V35.193C-13.813 35.193-14.959 35.049-15.745 34.764-16.533 34.477-17.105 33.869-17.462 32.939-17.82 32.009-17.998 30.596-17.998 28.701V18.777H2.173V28.701C2.173 30.633 2.003 32.054 1.663 32.966 1.323 33.878 .769 34.477 0 34.764-.769 35.049-1.94 35.193-3.514 35.193V36.158H12.795V35.193C11.257 35.193 10.103 35.049 9.335 34.764 8.565 34.477 8.002 33.878 7.645 32.966 7.287 32.054 7.109 30.633 7.109 28.701V6.169C7.109 4.202 7.277 2.754 7.618 1.824 7.958 .894 8.512 .286 9.281 0 10.049-.287 11.221-.429 12.795-.429V-1.395H-3.514V-.429C-1.94-.429-.769-.287 0 0" fill="#1c1c1b"/>
</g>
</g>
</svg>
