<?xml version="1.0" standalone="no"?>
<!DOCTYPE svg PUBLIC "-//W3C//DTD SVG 20010904//EN"
 "http://www.w3.org/TR/2001/REC-SVG-20010904/DTD/svg10.dtd">
<svg version="1.0" xmlns="http://www.w3.org/2000/svg"
 width="933.000000pt" height="481.000000pt" viewBox="0 0 933.000000 481.000000"
 preserveAspectRatio="xMidYMid meet">

    <rect width="100%" height="100%" fill="#ffffff"/>

<g transform="translate(0.000000,481.000000) scale(0.100000,-0.100000)"
fill="#000000" stroke="none">
<path d="M5985 2844 c-219 -47 -373 -194 -395 -376 -29 -241 105 -425 361
-495 50 -14 100 -18 234 -17 156 0 176 2 251 27 152 50 256 141 305 264 32 82
33 234 1 313 -49 124 -157 218 -305 266 -70 23 -103 27 -232 30 -109 3 -169
-1 -220 -12z m395 -99 c130 -40 213 -105 258 -204 21 -46 26 -71 26 -137 0
-72 -4 -89 -32 -147 -53 -107 -152 -173 -307 -202 -208 -40 -441 9 -543 115
-62 63 -86 121 -90 217 -5 109 14 166 80 238 56 61 138 106 228 124 30 6 64
13 75 15 43 10 252 -3 305 -19z"/>
<path d="M7527 2845 c-132 -27 -232 -93 -258 -172 -19 -58 -7 -145 25 -188 70
-92 169 -116 541 -135 217 -11 261 -19 302 -55 24 -20 28 -31 28 -78 0 -45 -5
-60 -25 -82 -64 -69 -155 -90 -380 -89 -181 1 -290 17 -440 63 l-61 19 -10
-26 c-22 -59 -19 -64 57 -88 129 -41 217 -55 379 -61 369 -13 584 85 585 265
0 62 -16 98 -64 139 -64 57 -162 77 -442 93 -328 17 -392 41 -401 147 -8 91
49 140 187 162 124 20 336 10 538 -25 51 -9 95 -15 97 -12 2 2 7 22 11 45 l6
41 -53 12 c-183 39 -486 52 -622 25z"/>
<path d="M1113 2756 c28 -46 151 -242 272 -434 l220 -351 62 -1 61 0 271 430
c149 237 271 433 271 436 0 3 -25 4 -56 2 l-57 -3 -238 -379 c-130 -208 -242
-383 -247 -388 -5 -5 -106 147 -253 382 l-244 390 -57 0 -58 0 53 -84z"/>
<path d="M2752 2668 l3 -173 48 -3 47 -3 0 130 0 131 430 0 430 0 0 45 0 45
-480 0 -480 0 2 -172z"/>
<path d="M4280 2405 l0 -435 460 0 460 0 0 45 0 45 -410 0 -410 0 0 390 0 390
-50 0 -50 0 0 -435z"/>
<path d="M2858 2440 c-45 -24 -82 -72 -97 -125 -6 -22 -11 -109 -11 -192 l0
-153 490 0 490 0 0 45 0 45 -440 0 -440 0 0 105 c0 69 5 118 14 140 26 62 42
65 361 65 l285 0 0 45 0 45 -307 0 c-286 -1 -311 -2 -345 -20z"/>
</g>
</svg>
