<svg width="20" height="21" viewBox="0 0 20 21" fill="none" xmlns="http://www.w3.org/2000/svg">
<path d="M11 9.5C11 8.94772 10.5523 8.5 10 8.5C9.44772 8.5 9 8.94772 9 9.5L11 9.5ZM9.29289 11.2071C9.68342 11.5976 10.3166 11.5976 10.7071 11.2071L17.0711 4.84315C17.4616 4.45262 17.4616 3.81946 17.0711 3.42893C16.6805 3.03841 16.0474 3.03841 15.6569 3.42893L10 9.08579L4.34315 3.42893C3.95262 3.03841 3.31946 3.03841 2.92893 3.42893C2.53841 3.81946 2.53841 4.45262 2.92893 4.84314L9.29289 11.2071ZM9 9.5L9 10.5L11 10.5L11 9.5L9 9.5Z" fill="white"/>
</svg>
