<svg width="21" height="21" viewBox="0 0 21 21" fill="none" xmlns="http://www.w3.org/2000/svg">
<path d="M14.325 8H13V3.83333C13 3.375 12.625 3 12.1667 3H8.83332C8.37499 3 7.99999 3.375 7.99999 3.83333V8H6.67499C5.93332 8 5.55832 8.9 6.08332 9.425L9.90832 13.25C10.2333 13.575 10.7583 13.575 11.0833 13.25L14.9083 9.425C15.4333 8.9 15.0667 8 14.325 8ZM4.66666 16.3333C4.66666 16.7917 5.04166 17.1667 5.49999 17.1667H15.5C15.9583 17.1667 16.3333 16.7917 16.3333 16.3333C16.3333 15.875 15.9583 15.5 15.5 15.5H5.49999C5.04166 15.5 4.66666 15.875 4.66666 16.3333Z" fill="white"/>
</svg>
