<svg width="21" height="21" viewBox="0 0 21 21" fill="none" xmlns="http://www.w3.org/2000/svg">
<path d="M15.5 7.16667C15.5 7.60869 15.3244 8.03262 15.0118 8.34518C14.6993 8.65774 14.2754 8.83333 13.8333 8.83333C13.3913 8.83333 12.9674 8.65774 12.6548 8.34518C12.3423 8.03262 12.1667 7.60869 12.1667 7.16667C12.1667 6.72464 12.3423 6.30072 12.6548 5.98816C12.9674 5.67559 13.3913 5.5 13.8333 5.5C14.2754 5.5 14.6993 5.67559 15.0118 5.98816C15.3244 6.30072 15.5 6.72464 15.5 7.16667Z" fill="white"/>
<path fill-rule="evenodd" clip-rule="evenodd" d="M10.4525 1.5415H10.5475C12.4717 1.5415 13.9792 1.5415 15.1558 1.69984C16.3592 1.8615 17.3092 2.19984 18.055 2.94484C18.8008 3.69067 19.1383 4.64067 19.3 5.84484C19.4583 7.02067 19.4583 8.52817 19.4583 10.4523V10.5257C19.4583 12.1165 19.4583 13.4182 19.3717 14.4782C19.285 15.5448 19.1075 16.434 18.7092 17.174C18.5342 17.4998 18.3175 17.7923 18.055 18.0548C17.3092 18.8007 16.3592 19.1382 15.155 19.2998C13.9792 19.4582 12.4717 19.4582 10.5475 19.4582H10.4525C8.52832 19.4582 7.02082 19.4582 5.84416 19.2998C4.64082 19.1382 3.69082 18.7998 2.94499 18.0548C2.28416 17.394 1.94249 16.5715 1.76166 15.5498C1.58249 14.5473 1.54999 13.2998 1.54332 11.7515C1.54166 11.3573 1.54166 10.9407 1.54166 10.5007V10.4523C1.54166 8.52817 1.54166 7.02067 1.69999 5.844C1.86166 4.64067 2.19999 3.69067 2.94499 2.94484C3.69082 2.199 4.64082 1.8615 5.84499 1.69984C7.02082 1.5415 8.52832 1.5415 10.4525 1.5415ZM6.01082 2.93817C4.94582 3.0815 4.30332 3.35484 3.82916 3.829C3.35416 4.304 3.08166 4.94567 2.93832 6.0115C2.79332 7.09484 2.79166 8.51817 2.79166 10.4998V11.2032L3.62582 10.4732C3.99172 10.1529 4.46567 9.98364 4.95168 9.99973C5.43769 10.0158 5.89942 10.216 6.24332 10.5598L9.81832 14.1348C10.0957 14.4122 10.4621 14.5828 10.8529 14.6167C11.2438 14.6505 11.634 14.5454 11.955 14.3198L12.2033 14.1448C12.6664 13.8194 13.2262 13.6608 13.7911 13.6949C14.356 13.7289 14.8927 13.9537 15.3133 14.3323L17.6717 16.4548C17.91 15.9565 18.0508 15.3015 18.1258 14.3773C18.2075 13.3732 18.2083 12.1215 18.2083 10.4998C18.2083 8.51817 18.2067 7.09484 18.0617 6.0115C17.9183 4.94567 17.645 4.30317 17.1708 3.82817C16.6958 3.354 16.0542 3.0815 14.9883 2.93817C13.905 2.79317 12.4817 2.7915 10.5 2.7915C8.51832 2.7915 7.09416 2.79317 6.01082 2.93817Z" fill="white"/>
</svg>
