<svg width="21" height="21" viewBox="0 0 21 21" fill="none" xmlns="http://www.w3.org/2000/svg">
<path d="M7.16666 2.99992V15.0833M13 5.91659V17.5833M4.87749 3.99659L3.85499 4.58992C3.03082 5.06742 2.61916 5.30659 2.39332 5.70409C2.16666 6.10159 2.16666 6.58492 2.16666 7.55325V14.3566C2.16666 15.6283 2.16666 16.2649 2.45166 16.6183C2.64166 16.8533 2.90749 17.0116 3.20166 17.0641C3.64332 17.1433 4.18499 16.8291 5.26666 16.2016C6.00166 15.7758 6.70832 15.3324 7.58749 15.4533C7.98749 15.5074 8.36832 15.6974 9.13166 16.0766L12.3092 17.6566C12.9967 17.9983 13.0033 17.9999 13.7675 17.9999H15.5C17.0717 17.9999 17.8567 17.9999 18.345 17.5008C18.8333 17.0024 18.8333 16.1991 18.8333 14.5924V8.97575C18.8333 7.36992 18.8333 6.56742 18.345 6.06742C17.8567 5.56909 17.0717 5.56909 15.5 5.56909H13.7675C13.0033 5.56909 12.9967 5.56742 12.3092 5.22575L9.53332 3.84575C8.37416 3.26909 7.79416 2.98075 7.17666 2.99992C6.55916 3.01909 5.99999 3.34575 4.87749 3.99659Z" stroke="white" stroke-width="1.5" stroke-linecap="round" stroke-linejoin="round"/>
</svg>
