<?xml version="1.0" standalone="no"?>
<!DOCTYPE svg PUBLIC "-//W3C//DTD SVG 1.1//EN" "http://www.w3.org/Graphics/SVG/1.1/DTD/svg11.dtd" >
<svg xmlns="http://www.w3.org/2000/svg" xmlns:xlink="http://www.w3.org/1999/xlink" version="1.1">
<metadata>
Created by FontForge 20201107 at Sun May 24 06:39:01 2020
 By 
Copyright (c) 2020 Cerebri Sans ProTM Version - 2020 Edition by Alfredo Marco Pradil. All rights reserved.
</metadata>
<defs>
<font id="CerebriSansPro-ExtraBold" horiz-adv-x="0" >
  <font-face 
    font-family="Cerebri Sans Pro ExtraBold"
    font-weight="800"
    font-stretch="normal"
    units-per-em="1000"
    panose-1="0 0 9 0 0 0 0 0 0 0"
    ascent="750"
    descent="-250"
    x-height="511"
    cap-height="713"
    bbox="-813 -250 1355 1093"
    underline-thickness="75"
    underline-position="-213"
    unicode-range="U+000D-FB02"
  />
<missing-glyph horiz-adv-x="548" 
d="M39 0v713h469v-713h-469zM159 120h229v473h-229v-473z" />
    <glyph glyph-name="fi" unicode="fi" horiz-adv-x="677" 
d="M377 760q94 0 153.5 -41.5t83.5 -111.5l-154 -40q-11 37 -32.5 52t-59.5 15q-15 0 -31 -3t-29.5 -12.5t-22 -26.5t-8.5 -45v-36h108v-121h-108v-390h-158v390h-102v121h102v36q0 59 20.5 99.5t55.5 65.5t82 36.5t100 11.5zM461 511h158v-511h-158v511z" />
    <glyph glyph-name="fl" unicode="fl" horiz-adv-x="677" 
d="M369 760q51 0 96.5 -11.5t80 -36.5t54.5 -65.5t20 -99.5v-547h-159v538q0 28 -7.5 46.5t-20 29.5t-29.5 15.5t-36 4.5q-15 0 -31 -3t-29.5 -12.5t-22 -26.5t-8.5 -45v-36h108v-121h-108v-390h-158v390h-102v121h102v36q0 59 20 99.5t54.5 65.5t80 36.5t95.5 11.5z" />
    <glyph glyph-name="f_f" unicode="ff" horiz-adv-x="753" 
d="M706 625q-10 0 -24 -1.5t-26 -9t-20.5 -23.5t-8.5 -44v-36h108v-121h-108v-390h-159v390h-191v-390h-158v390h-102v121h102v36q0 59 20.5 99.5t55.5 65.5t82 36.5t100 11.5q99 0 156 -48q32 23 75.5 30.5t97.5 7.5h29v-125h-29zM277 511h191v36q0 11 0.5 21.5t1.5 21.5
q-35 44 -102 44q-48 0 -69.5 -21.5t-21.5 -65.5v-36z" />
    <glyph glyph-name="f_f_i" unicode="ffi" horiz-adv-x="1020" 
d="M720 760q94 0 153 -41.5t84 -111.5l-154 -40q-12 37 -33 52t-59 15q-15 0 -31 -3t-29.5 -12.5t-22 -26.5t-8.5 -45v-36h108v-121h-108v-390h-159v390h-184v-390h-158v390h-102v121h102v36q0 59 20.5 99.5t55.5 65.5t82 36.5t100 11.5q52 0 91 -13t67 -36q35 26 83 37.5
t102 11.5zM461 511v36q0 13 1 25.5t3 23.5q-35 38 -97 38q-48 0 -69.5 -21.5t-21.5 -65.5v-36h184zM804 511h158v-511h-158v511z" />
    <glyph glyph-name="f_f_l" unicode="ffl" horiz-adv-x="1020" 
d="M712 760q50 0 95.5 -11.5t80 -36.5t54.5 -65.5t20 -99.5v-547h-158v538q0 28 -7.5 46.5t-20 29.5t-29.5 15.5t-36 4.5q-15 0 -31 -4.5t-29.5 -14.5t-22 -26.5t-8.5 -41.5v-36h108v-121h-108v-390h-159v390h-184v-390h-158v390h-102v121h102v36q0 59 20.5 99.5t55.5 65.5
t82 36.5t100 11.5q51 0 90 -13t67 -36q35 26 81 37.5t97 11.5zM461 511v36q0 13 1 25.5t3 23.5q-35 38 -97 38q-48 0 -69.5 -21.5t-21.5 -65.5v-36h184z" />
    <glyph glyph-name="h_d_c_o.liga" unicode="hdco" horiz-adv-x="795" 
d="M398 0q-78 0 -147.5 30t-121 81.5t-81.5 121t-30 147.5q0 79 30 148t81.5 120.5t121 81.5t147.5 30q79 0 148 -30t120.5 -81.5t81.5 -120.5t30 -148q0 -78 -30 -147.5t-81.5 -121t-120.5 -81.5t-148 -30zM398 36q71 0 134 27t109.5 74t73.5 109.5t27 133.5t-27 134
t-73.5 109.5t-109.5 73.5t-134 27t-133.5 -27t-109.5 -73.5t-74 -109.5t-27 -134t27 -133.5t74 -109.5t109.5 -74t133.5 -27zM597 217q-7 0 -12 6l-145 144q-12 14 0 26l145 145q13 13 25 0q5 -5 5 -13t-5 -13l-132 -132l132 -132q5 -5 5 -12t-5 -13q-4 -6 -13 -6zM199 217
q-8 0 -13 5t-5 13v290q0 8 5 13t13 5t13 -5t5 -13v-290q0 -8 -5 -13t-13 -5zM398 217q-8 0 -13 5t-5 13v290q0 8 5 13t13 5t13 -5t5 -13v-290q0 -8 -5 -13t-13 -5zM253 362q-8 0 -13 5t-5 13t5 13t13 5h91q8 0 13 -5t5 -13t-5 -13t-13 -5h-91z" />
    <glyph glyph-name="hyphen_greater.liga" unicode="&#x2d;&#x3e;" horiz-adv-x="753" 
d="M574 72h-126l103 125h-551v118h551l-103 125h126l152 -184z" />
    <glyph glyph-name="less_hyphen.liga" unicode="&#x3c;&#x2d;" horiz-adv-x="753" 
d="M179 72l-152 184l152 184h126l-103 -125h551v-118h-551l103 -125h-126z" />
    <glyph glyph-name="parenleft_greater_parenright.liga" unicode="&#x28;&#x3e;&#x29;" horiz-adv-x="799" 
d="M399 -10q-75 0 -142 29t-116.5 78.5t-78.5 116.5t-29 142q0 76 29 142.5t78.5 116.5t116.5 79t142 29q76 0 142.5 -29t116.5 -79t79 -116.5t29 -142.5q0 -75 -29 -142t-79 -116.5t-116.5 -78.5t-142.5 -29zM399 71q60 0 112 22t90.5 60.5t60.5 90.5t22 112t-22 112
t-60.5 90.5t-90.5 60.5t-112 22t-112 -22t-90.5 -60.5t-60.5 -90.5t-22 -112t22 -112t60.5 -90.5t90.5 -60.5t112 -22zM313 157v398l291 -199z" />
    <glyph glyph-name=".notdef" horiz-adv-x="548" 
d="M39 0v713h469v-713h-469zM159 120h229v473h-229v-473z" />
    <glyph glyph-name=".null" 
 />
    <glyph glyph-name=".null" 
 />
    <glyph glyph-name="nonmarkingreturn" unicode="&#xd;" horiz-adv-x="250" 
 />
    <glyph glyph-name="space" unicode=" " horiz-adv-x="260" 
 />
    <glyph glyph-name="exclam" unicode="!" horiz-adv-x="283" 
d="M78 236l-17 477h160l-18 -477h-125zM141 -10q-37 0 -62.5 25.5t-25.5 62.5t25.5 62.5t62.5 25.5t62.5 -25.5t25.5 -62.5t-25.5 -62.5t-62.5 -25.5z" />
    <glyph glyph-name="quotedbl" unicode="&#x22;" horiz-adv-x="450" 
d="M62 393l-23 320h151l-18 -320h-110zM279 393l-18 320h150l-22 -320h-110z" />
    <glyph glyph-name="numbersign" unicode="#" horiz-adv-x="780" 
d="M151 0l22 158h-137l14 108h138l27 178h-140l19 108h135l23 161h108l-22 -161h159l23 161h108l-22 -161h139l-17 -108h-137l-25 -178h137l-15 -108h-137l-24 -158h-108l23 158h-162l-21 -158h-108zM297 266h159l26 178h-161z" />
    <glyph glyph-name="dollar" unicode="$" horiz-adv-x="615" 
d="M578 207q0 -47 -17 -86t-48.5 -67.5t-75.5 -45.5t-99 -21v-67h-55v67q-54 3 -101 18.5t-83.5 43t-60 66.5t-31.5 88l163 35q14 -54 42.5 -82t70.5 -34v172q-8 3 -16.5 5.5t-17.5 5.5q-39 12 -77.5 27t-69 38.5t-50 58t-19.5 84.5q0 48 18.5 87t51.5 66.5t79 43.5t101 17
v57h55v-60q41 -4 79.5 -17.5t70.5 -37t55 -58t33 -81.5l-149 -34q-26 77 -89 92v-156l9 -3q39 -12 80 -28t74.5 -41t55 -62t21.5 -91zM200 522q0 -29 23.5 -45t59.5 -28v142q-38 -3 -60.5 -21t-22.5 -48zM338 122q68 12 68 72q0 30 -18.5 48.5t-49.5 32.5v-153z" />
    <glyph glyph-name="percent" unicode="%" horiz-adv-x="886" 
d="M222 376q-36 0 -68 13.5t-55.5 37t-37 55t-13.5 67.5t13.5 67.5t37.5 55.5t55.5 37.5t67.5 13.5t67.5 -13.5t55 -37.5t37 -55.5t13.5 -67.5t-13.5 -67.5t-37 -55t-55 -37t-67.5 -13.5zM191 0l370 713h130l-371 -713h-129zM222 479q30 0 50 20.5t20 49.5t-21 50t-49 21
q-29 0 -49.5 -20.5t-20.5 -50.5q0 -29 20.5 -49.5t49.5 -20.5zM665 -8q-36 0 -68 13.5t-55.5 37t-37 55t-13.5 67.5t13.5 67.5t37.5 55.5t55.5 37.5t67.5 13.5t67.5 -13.5t55 -37.5t37 -55.5t13.5 -67.5t-13.5 -67.5t-37 -55t-55 -37t-67.5 -13.5zM665 96q29 0 49.5 20
t20.5 49t-20.5 49.5t-49.5 20.5t-50 -20t-21 -50q0 -29 21 -49t50 -20z" />
    <glyph glyph-name="ampersand" unicode="&#x26;" horiz-adv-x="772" 
d="M738 0h-179l-37 45q-47 -28 -102 -43.5t-118 -15.5q-60 0 -109.5 15t-85 42.5t-55 67t-19.5 87.5q0 38 11.5 69t33.5 58t54 51.5t73 49.5l-15 19q-21 26 -33.5 57t-12.5 63q0 39 15.5 69t42.5 51t63.5 31.5t77.5 10.5q52 0 91.5 -12t66 -33.5t40 -51t13.5 -63.5
q0 -54 -37.5 -94t-106.5 -73l124 -151q23 38 35 82.5t12 95.5h141q0 -83 -24.5 -157t-71.5 -133zM351 623q-27 0 -42.5 -13t-15.5 -36q0 -16 7.5 -32.5t20.5 -32.5l15 -18q37 21 54 42.5t17 42.5q0 20 -16 33.5t-40 13.5zM317 119q62 0 118 31l-151 181q-43 -26 -67 -50.5
t-24 -67.5q0 -47 33.5 -70.5t90.5 -23.5z" />
    <glyph glyph-name="quotesingle" unicode="'" horiz-adv-x="230" 
d="M58 393l-18 320h150l-22 -320h-110z" />
    <glyph glyph-name="parenleft" unicode="(" horiz-adv-x="369" 
d="M201 -250q-75 95 -116 238.5t-41 314.5t41 314t116 238h150q-40 -43 -71 -102t-52.5 -129.5t-33 -151.5t-11.5 -169t11.5 -169t33 -152t52.5 -130t71 -102h-150z" />
    <glyph glyph-name="parenright" unicode=")" horiz-adv-x="369" 
d="M18 -250q40 43 71 102t52.5 130t33 152t11.5 169t-11.5 169t-33 151.5t-52.5 129.5t-71 102h150q75 -95 116 -238t41 -314t-41 -314.5t-116 -238.5h-150z" />
    <glyph glyph-name="asterisk" unicode="*" horiz-adv-x="417" 
d="M146 379l-74 44l80 95q12 15 6.5 25t-24.5 7l-124 -21v85l124 -20q19 -4 25 6.5t-7 24.5l-80 96l74 44l44 -119q6 -18 18 -18t19 18l44 119l75 -44l-81 -96q-13 -14 -7 -24.5t25 -6.5l124 20v-85l-124 21q-19 3 -25 -6.5t8 -25.5l80 -95l-75 -44l-44 118q-6 18 -18 18
t-19 -18z" />
    <glyph glyph-name="plus" unicode="+" horiz-adv-x="600" 
d="M241 11v186h-186v118h186v186h118v-186h186v-118h-186v-186h-118z" />
    <glyph glyph-name="comma" unicode="," horiz-adv-x="331" 
d="M60 -181l62 325h162l-111 -325h-113z" />
    <glyph glyph-name="hyphen" unicode="-" horiz-adv-x="397" 
d="M24 197v118h350v-118h-350z" />
    <glyph glyph-name="period" unicode="." horiz-adv-x="324" 
d="M161 -10q-18 0 -34 7t-28 19t-19 28t-7 34t7 34t19 28t28 19t34 7q37 0 63 -26t26 -62t-26 -62t-63 -26z" />
    <glyph glyph-name="slash" unicode="/" horiz-adv-x="642" 
d="M3 -205l487 955h149l-487 -955h-149z" />
    <glyph glyph-name="zero" unicode="0" horiz-adv-x="610" 
d="M305 -14q-127 0 -196 91t-69 279q0 190 69 280.5t196 90.5q126 0 195.5 -90.5t69.5 -280.5q0 -188 -69 -279t-196 -91zM305 127q49 0 77.5 54t28.5 175q0 122 -28.5 175.5t-77.5 53.5t-78 -53.5t-29 -175.5q0 -121 29 -175t78 -54z" />
    <glyph glyph-name="one" unicode="1" horiz-adv-x="610" 
d="M288 713h152v-713h-158v529l-162 -131v179z" />
    <glyph glyph-name="two" unicode="2" horiz-adv-x="610" 
d="M278 140h281v-140h-507v122l284 288q27 28 41 51.5t14 51.5q0 36 -22 54.5t-62 18.5q-99 0 -99 -108v-33l-158 16v31q0 55 17.5 98.5t50 74t78.5 46.5t104 16q54 0 99.5 -14t78 -41t51 -65.5t18.5 -87.5q0 -59 -22 -103.5t-70 -92.5z" />
    <glyph glyph-name="three" unicode="3" horiz-adv-x="610" 
d="M311 -14q-131 0 -200 66.5t-69 194.5h162q1 -25 6 -47.5t17 -38.5t31.5 -25.5t48.5 -9.5q50 0 74.5 27.5t24.5 69.5q0 31 -11.5 49t-28 27.5t-33.5 12t-28 2.5h-23v120h21q36 0 59.5 22.5t23.5 60.5q0 32 -22 51.5t-57 19.5q-42 0 -65.5 -28t-23.5 -78v-8l-160 16
q0 57 17.5 101t49.5 74.5t77.5 46t100.5 15.5q51 0 93 -15.5t72.5 -42t47.5 -62t17 -75.5q0 -30 -8.5 -54.5t-22 -43t-29 -31t-29.5 -18.5q22 -6 44 -18t39.5 -33t28.5 -50.5t11 -70.5q0 -51 -18 -92.5t-51.5 -71.5t-80.5 -46.5t-106 -16.5z" />
    <glyph glyph-name="four" unicode="4" horiz-adv-x="610" 
d="M585 275v-139h-73v-136h-159v136h-326v140l242 437h243v-438h73zM171 275h182v333z" />
    <glyph glyph-name="five" unicode="5" horiz-adv-x="610" 
d="M310 462q124 0 190.5 -54.5t66.5 -169.5q0 -58 -18 -104.5t-52 -79.5t-82 -50.5t-107 -17.5q-58 0 -105.5 16.5t-81.5 47t-52.5 74t-18.5 97.5v14t1 14h155q-1 -5 -1 -14q0 -51 27 -80t78 -29t75 29.5t24 72.5q0 36 -15 57t-37.5 31.5t-49.5 13t-51 2.5h-185l23 381h438
v-140h-292l-7 -111h77z" />
    <glyph glyph-name="six" unicode="6" horiz-adv-x="610" 
d="M339 475q47 0 89.5 -17t74.5 -48t51 -75t19 -97t-22 -99t-59 -80t-86.5 -53.5t-103.5 -19.5q-56 0 -104.5 20.5t-84 55.5t-56 81t-20.5 98q0 43 14.5 85.5t49.5 91.5l219 295h189l-182 -238h12zM419 241q1 51 -30 86t-88 35q-53 0 -83.5 -32.5t-32.5 -83.5q-1 -23 6 -45
t21.5 -38.5t36 -26.5t49.5 -10q27 0 49 9.5t37.5 25t24.5 36.5t10 44z" />
    <glyph glyph-name="seven" unicode="7" horiz-adv-x="610" 
d="M53 713h507v-140l-313 -573h-183l326 573h-337v140z" />
    <glyph glyph-name="eight" unicode="8" horiz-adv-x="610" 
d="M305 -14q-57 0 -105 16t-83.5 45t-55.5 70.5t-20 93.5q0 61 28.5 107t76.5 73q-35 25 -55.5 60.5t-20.5 80.5q0 43 17.5 78.5t48.5 61.5t74 40.5t95 14.5q51 0 94 -14.5t74 -40.5t48.5 -61.5t17.5 -78.5q0 -45 -20.5 -80.5t-53.5 -60.5q48 -27 76 -72.5t28 -107.5
q0 -51 -20 -93t-55.5 -71t-83.5 -45t-105 -16zM305 436q37 0 63.5 25t26.5 65q0 38 -26.5 62t-63.5 24q-38 0 -64 -24t-26 -62q0 -40 26 -65t64 -25zM305 126q45 0 75.5 29t30.5 75q0 48 -30.5 74.5t-75.5 26.5q-46 0 -75.5 -26.5t-29.5 -74.5q0 -46 30 -75t75 -29z" />
    <glyph glyph-name="nine" unicode="9" horiz-adv-x="610" 
d="M308 727q56 0 104.5 -20.5t84 -55.5t56 -81t20.5 -98q0 -43 -14.5 -85.5t-49.5 -91.5l-219 -295h-189l182 238h-12q-47 0 -89.5 17t-74.5 48t-51 75t-19 97t22 99t59 80t86.5 53.5t103.5 19.5zM426 467q1 23 -6.5 44.5t-22 38t-36 26.5t-49.5 10q-27 0 -48.5 -9
t-37.5 -25t-25 -37t-9 -44q-1 -25 7 -47t23 -38.5t37 -26t50 -9.5q53 0 84 33t33 84z" />
    <glyph glyph-name="colon" unicode=":" horiz-adv-x="306" 
d="M153 327q-36 0 -62 26t-26 62t26 62t62 26t62 -26t26 -62t-26 -62t-62 -26zM153 -10q-36 0 -62 26t-26 62t26 62t62 26t62 -26t26 -62t-26 -62t-62 -26z" />
    <glyph glyph-name="semicolon" unicode=";" horiz-adv-x="328" 
d="M178 327q-35 0 -61 26t-26 62t26 62t61 26q37 0 63 -26t26 -62t-26 -62t-63 -26zM47 -181l61 325h162l-111 -325h-112z" />
    <glyph glyph-name="less" unicode="&#x3c;" horiz-adv-x="494" 
d="M439 499v-127l-231 -116l231 -117v-127l-384 194v101z" />
    <glyph glyph-name="equal" unicode="=" horiz-adv-x="560" 
d="M55 307v118h450v-118h-450zM55 87v118h450v-118h-450z" />
    <glyph glyph-name="greater" unicode="&#x3e;" horiz-adv-x="494" 
d="M55 499l384 -192v-101l-384 -194v127l231 117l-231 116v127z" />
    <glyph glyph-name="question" unicode="?" horiz-adv-x="542" 
d="M201 228v44q0 26 6.5 44.5t17.5 32t25.5 23.5t30.5 19l28 18t25 22t17.5 30t6.5 42q0 46 -27 70t-69 24q-45 0 -71 -26t-26 -67q0 -13 3 -30l-140 10q0 6 -0.5 13t-0.5 16q0 47 17 86t47.5 67.5t74 44.5t96.5 16q54 0 99 -15t77.5 -42.5t50 -66.5t17.5 -88q0 -51 -14 -85
t-34 -57.5t-43.5 -38t-41.5 -26.5q-21 -14 -33.5 -28t-12.5 -34v-18h-126zM266 -10q-38 0 -63.5 25.5t-25.5 62.5t26 62.5t63 25.5q35 0 61 -25.5t26 -62.5t-25.5 -62.5t-61.5 -25.5z" />
    <glyph glyph-name="at" unicode="@" horiz-adv-x="885" 
d="M444 -111q-80 0 -150.5 28.5t-123 79.5t-82.5 120t-30 150q0 86 29 158t80.5 124.5t122 82t154.5 29.5q87 0 158 -30.5t121.5 -82t78.5 -119t28 -141.5q0 -97 -43 -150.5t-126 -53.5q-46 0 -74.5 14.5t-50.5 49.5h-8q-20 -33 -52 -51t-74 -18q-25 0 -48.5 7t-41.5 20
t-28.5 32.5t-10.5 44.5q0 28 12.5 47.5t31 33t41 21.5t41.5 12l105 26v17q0 27 -15.5 40t-41.5 13q-28 0 -45 -14t-24 -46l-101 24q13 48 55.5 78.5t114.5 30.5q29 0 58 -7t52.5 -23.5t38 -44.5t14.5 -70v-87q0 -38 14.5 -54t47.5 -16q37 0 54 27t17 87q0 61 -21 114.5
t-60 93.5t-94 63.5t-123 23.5q-65 0 -120 -22.5t-94.5 -63t-62 -96.5t-22.5 -123q0 -63 23.5 -116.5t64 -92.5t95 -61t116.5 -22q45 0 86 12.5t79 35.5l40 -76q-45 -29 -97 -44t-109 -15zM427 153q34 0 55.5 25t21.5 63v22l-66 -21q-35 -11 -46.5 -22t-11.5 -28
q0 -19 13.5 -29t33.5 -10z" />
    <glyph glyph-name="A" unicode="A" horiz-adv-x="742" 
d="M561 0l-49 140h-283l-49 -140h-175l264 713h204l264 -713h-176zM278 277h186l-93 265z" />
    <glyph glyph-name="B" unicode="B" horiz-adv-x="630" 
d="M465 381q61 -20 96 -62t35 -117q0 -73 -31 -113.5t-74 -60t-88.5 -24t-73.5 -4.5h-265v713h237q124 0 187 -46t63 -137q0 -108 -86 -149zM386 502q0 75 -88 75h-69v-149h69q88 0 88 74zM331 140q52 0 75.5 19.5t23.5 62.5q0 42 -23.5 61.5t-75.5 19.5h-102v-163h102z" />
    <glyph glyph-name="C" unicode="C" horiz-adv-x="769" 
d="M401 -14q-81 0 -148.5 27t-116 75.5t-76 117t-27.5 150.5q0 83 27.5 151t76 117t116 76t148.5 27q62 0 116 -16.5t98.5 -46.5t77.5 -72.5t51 -95.5l-155 -55q-20 63 -70 99t-118 36q-44 0 -81.5 -16t-64.5 -44.5t-42 -69t-15 -90.5q0 -49 15 -89.5t42 -69.5t64.5 -44.5
t81.5 -15.5q68 0 118 36t70 99l155 -55q-18 -53 -51 -95.5t-77.5 -72.5t-98.5 -46.5t-116 -16.5z" />
    <glyph glyph-name="D" unicode="D" horiz-adv-x="711" 
d="M64 0v713h226q90 0 151.5 -16.5t106.5 -48.5q64 -46 95.5 -120.5t31.5 -171.5t-31.5 -171t-95.5 -120q-45 -32 -106.5 -48.5t-151.5 -16.5h-226zM229 144h60q46 0 81.5 10t61.5 28q39 26 58.5 70.5t19.5 103.5q0 60 -19.5 104.5t-58.5 70.5q-54 37 -143 37h-60v-424z" />
    <glyph glyph-name="E" unicode="E" horiz-adv-x="533" 
d="M488 568h-259v-140h231v-143h-231v-141h259v-144h-424v713h424v-145z" />
    <glyph glyph-name="F" unicode="F" horiz-adv-x="523" 
d="M497 568h-268v-140h231v-143h-231v-285h-165v713h433v-145z" />
    <glyph glyph-name="G" unicode="G" horiz-adv-x="791" 
d="M391 -14q-78 0 -144 27t-113.5 75.5t-74 117t-26.5 150.5q0 83 27.5 151t76 117t116 76t148.5 27q106 0 188.5 -46t128.5 -127l-144 -78q-26 48 -71 74t-102 26q-44 0 -81.5 -16t-64.5 -44.5t-42 -69t-15 -90.5q0 -49 14 -89t40.5 -69t64 -45t84.5 -16q60 0 111 30.5
t71 96.5h-175v132h336v-396h-128v92q-34 -47 -89 -76.5t-136 -29.5z" />
    <glyph glyph-name="H" unicode="H" horiz-adv-x="745" 
d="M64 0v713h165v-284h287v284h165v-713h-165v286h-287v-286h-165z" />
    <glyph glyph-name="I" unicode="I" horiz-adv-x="293" 
d="M64 0v713h165v-713h-165z" />
    <glyph glyph-name="J" unicode="J" horiz-adv-x="479" 
d="M203 -14q-49 0 -97 12t-102 44l69 135q27 -19 52.5 -29t55.5 -10q38 0 56 23.5t18 83.5v468h165v-499q0 -55 -16 -98t-44.5 -71.5t-68.5 -43.5t-88 -15z" />
    <glyph glyph-name="K" unicode="K" horiz-adv-x="711" 
d="M498 0l-219 296h-50v-296h-165v713h165v-275h49l220 275h201l-279 -341l285 -372h-207z" />
    <glyph glyph-name="L" unicode="L" horiz-adv-x="457" 
d="M64 0v713h165v-569h219v-144h-384z" />
    <glyph glyph-name="M" unicode="M" horiz-adv-x="949" 
d="M909 0h-167l-44 536l-168 -536h-112l-168 536l-44 -536h-167l61 713h242l132 -405l132 405h242z" />
    <glyph glyph-name="N" unicode="N" horiz-adv-x="785" 
d="M556 713h165v-713h-198l-294 480v-480h-165v713h195l297 -479v479z" />
    <glyph glyph-name="O" unicode="O" horiz-adv-x="801" 
d="M401 -14q-81 0 -148.5 27t-116 75.5t-76 117t-27.5 150.5q0 83 27.5 151t76 117t116 76t148.5 27q80 0 147.5 -27t116.5 -76t76 -117t27 -151q0 -82 -27 -150.5t-76 -117t-116.5 -75.5t-147.5 -27zM401 137q44 0 81 15.5t64 44.5t42 69.5t15 89.5q0 50 -15 90.5t-42 69
t-64 44.5t-81 16t-81.5 -16t-64.5 -44.5t-42 -69t-15 -90.5q0 -49 15 -89.5t42 -69.5t64.5 -44.5t81.5 -15.5z" />
    <glyph glyph-name="P" unicode="P" horiz-adv-x="607" 
d="M517 655q31 -26 48.5 -67t17.5 -99q0 -68 -26 -124.5t-81 -86.5q-21 -12 -44.5 -18.5t-46.5 -9.5t-44 -3.5t-38 -0.5h-74v-246h-165v713h239q78 0 128.5 -14.5t85.5 -43.5zM387 405q31 22 31 74q0 28 -8.5 46.5t-23.5 29.5q-21 14 -50.5 17t-55.5 3h-51v-191h51
q12 0 26.5 0.5t29 2.5t28 6t23.5 12z" />
    <glyph glyph-name="Q" unicode="Q" horiz-adv-x="808" 
d="M792 -28l-143 -55l-90 100q-73 -31 -158 -31q-81 0 -148.5 27t-116 75.5t-76 117t-27.5 150.5q0 83 27.5 151t76 117t116 76t148.5 27q80 0 147.5 -27t116.5 -76t76 -117t27 -151q0 -75 -22 -137.5t-63 -110.5zM198 356q0 -49 15 -89.5t42 -69.5t64.5 -44.5t81.5 -15.5
t81 15.5t64 44.5t42 69.5t15 89.5q0 50 -15 90.5t-42 69t-64 44.5t-81 16t-81.5 -16t-64.5 -44.5t-42 -69t-15 -90.5z" />
    <glyph glyph-name="R" unicode="R" horiz-adv-x="650" 
d="M436 0l-176 270h-31v-270h-165v713h239q78 0 128.5 -14.5t85.5 -43.5q31 -26 48.5 -67t17.5 -99q0 -64 -26 -118.5t-81 -83.5q-16 -8 -28 -12l190 -275h-202zM229 575v-191h51q12 0 26.5 0.5t29 2.5t28 6t23.5 12q31 22 31 74q0 28 -8.5 46.5t-23.5 29.5q-21 14 -50.5 17
t-55.5 3h-51z" />
    <glyph glyph-name="S" unicode="S" horiz-adv-x="615" 
d="M307 -14q-58 0 -109 14.5t-91 42t-66 68t-34 92.5l163 35q16 -63 51.5 -90.5t87.5 -27.5q47 0 72 19.5t25 54.5q0 21 -11.5 36t-31 26t-45 20t-54.5 18q-39 12 -80 27t-74.5 39.5t-55 61t-21.5 91.5q0 48 19 87.5t52.5 67.5t81 43.5t104.5 15.5q47 0 93.5 -10.5t85.5 -34
t67 -61t40 -91.5l-149 -34q-17 51 -47 73.5t-80 22.5q-45 0 -72.5 -18.5t-27.5 -51.5q0 -18 10.5 -30.5t28.5 -22t41.5 -16.5t50.5 -15q41 -12 84.5 -27t79.5 -40.5t59.5 -64.5t23.5 -99q0 -50 -19.5 -91t-55 -70t-85.5 -44.5t-111 -15.5z" />
    <glyph glyph-name="T" unicode="T" horiz-adv-x="516" 
d="M507 713v-145h-166v-568h-165v568h-166v145h497z" />
    <glyph glyph-name="U" unicode="U" horiz-adv-x="688" 
d="M344 -14q-61 0 -113.5 16t-91.5 49t-61 84t-22 121v457h165v-436q0 -39 9.5 -66.5t26 -44t39 -24t48.5 -7.5t48.5 7.5t39 24t26 44t9.5 66.5v436h165v-457q0 -70 -22 -121t-61 -84t-91.5 -49t-113.5 -16z" />
    <glyph glyph-name="V" unicode="V" horiz-adv-x="743" 
d="M561 713h176l-264 -713h-204l-264 713h175l191 -543z" />
    <glyph glyph-name="W" unicode="W" horiz-adv-x="1077" 
d="M894 713h171l-180 -713h-219l-128 409l-127 -409h-219l-180 713h171l131 -534l155 534h139l154 -534z" />
    <glyph glyph-name="X" unicode="X" horiz-adv-x="764" 
d="M5 0l279 371l-273 342h201l170 -221l170 221h201l-273 -342l279 -371h-207l-170 235l-170 -235h-207z" />
    <glyph glyph-name="Y" unicode="Y" horiz-adv-x="636" 
d="M637 713l-236 -373v-340h-165v335l-239 378h182l139 -230l139 230h180z" />
    <glyph glyph-name="Z" unicode="Z" horiz-adv-x="582" 
d="M228 144h320v-144h-515v130l318 438h-317v145h512v-130z" />
    <glyph glyph-name="bracketleft" unicode="[" horiz-adv-x="356" 
d="M58 -250v1105h270v-111h-131v-883h131v-111h-270z" />
    <glyph glyph-name="backslash" unicode="\" horiz-adv-x="642" 
d="M490 -205l-487 955h149l487 -955h-149z" />
    <glyph glyph-name="bracketright" unicode="]" horiz-adv-x="356" 
d="M299 -250h-271v111h132v883h-132v111h271v-1105z" />
    <glyph glyph-name="asciicircum" unicode="^" horiz-adv-x="725" 
d="M685 161h-133l-189 416l-190 -416h-133l251 552h143z" />
    <glyph glyph-name="underscore" unicode="_" horiz-adv-x="500" 
d="M0 -131v118h500v-118h-500z" />
    <glyph glyph-name="grave" unicode="`" horiz-adv-x="382" 
d="M180 571l-116 142h167l88 -142h-139z" />
    <glyph glyph-name="a" unicode="a" horiz-adv-x="579" 
d="M522 91q0 -22 1.5 -41t9.5 -36v-14h-157l-6 61q-27 -38 -73 -54.5t-94 -16.5q-30 0 -60 7t-54.5 23.5t-39.5 43.5t-15 66q0 44 18 73t46.5 48t62.5 30t66 18l88 20q20 5 34.5 12.5t14.5 26.5q0 29 -24.5 40t-53.5 11q-39 0 -64.5 -17.5t-33.5 -53.5l-151 23
q17 83 84.5 121.5t166.5 38.5q115 0 174.5 -48t59.5 -141v-241zM250 98q21 0 43 9t40 26.5t29 44t11 61.5l-121 -34q-20 -5 -39.5 -17t-19.5 -41q0 -25 16 -37t41 -12z" />
    <glyph glyph-name="b" unicode="b" horiz-adv-x="652" 
d="M368 521q51 0 96.5 -18t79.5 -52.5t53.5 -84t19.5 -112.5t-19.5 -112t-53.5 -83t-79.5 -51.5t-96.5 -17.5q-50 0 -91 16.5t-63 49.5l-5 -56h-150v750h158v-293q23 32 63 48t88 16zM334 120q54 0 89.5 35t35.5 99t-35.5 100t-89.5 36q-53 0 -88.5 -36t-35.5 -100t35.5 -99
t88.5 -35z" />
    <glyph glyph-name="c" unicode="c" horiz-adv-x="603" 
d="M314 -10q-62 0 -113.5 19.5t-88.5 54.5t-57.5 84t-20.5 108t20.5 107.5t57.5 83.5t88.5 54.5t113.5 19.5q103 0 171 -50.5t85 -144.5l-145 -14q-11 45 -39.5 65t-72.5 20q-57 0 -89 -39t-32 -102t32 -103t89 -40q44 0 72.5 21t39.5 65l145 -14q-8 -47 -30.5 -83.5
t-56 -61t-76.5 -37.5t-93 -13z" />
    <glyph glyph-name="d" unicode="d" horiz-adv-x="652" 
d="M435 750h158v-750h-149l-6 55q-22 -32 -63 -48.5t-91 -16.5q-51 0 -96.5 17.5t-79.5 51.5t-53.5 83t-19.5 112t19.5 112.5t53.5 84t79.5 52.5t96.5 18q48 0 88 -16t63 -47v292zM318 120q53 0 88.5 35t35.5 99t-35.5 100t-88.5 36q-54 0 -89.5 -36t-35.5 -100t35.5 -99
t89.5 -35z" />
    <glyph glyph-name="e" unicode="e" horiz-adv-x="604" 
d="M566 224h-376q5 -55 39.5 -83t82.5 -28q37 0 63 15.5t39 47.5l146 -20q-25 -80 -90.5 -123t-156.5 -43q-64 0 -116 18t-88.5 52t-56 83.5t-19.5 111.5q0 63 20 112t56.5 83.5t87 52.5t111.5 18q56 0 103 -15.5t82 -47.5t55 -81t20 -117zM309 404q-47 0 -76 -20t-39 -64
h218q-7 41 -35 62.5t-68 21.5z" />
    <glyph glyph-name="f" unicode="f" horiz-adv-x="403" 
d="M356 625q-10 0 -23.5 -1.5t-26 -9t-21 -23.5t-8.5 -44v-36h108v-121h-108v-390h-158v390h-102v121h102v36q0 65 17.5 105t49 62t75 29t95.5 7h29v-125h-29z" />
    <glyph glyph-name="g" unicode="g" horiz-adv-x="633" 
d="M426 511h150v-495q0 -72 -19 -122.5t-54 -82.5t-85.5 -46.5t-112.5 -14.5q-114 0 -177.5 44t-89.5 116l131 53q22 -47 52 -69.5t78 -22.5q65 0 91.5 36.5t26.5 96.5v74q-22 -27 -61.5 -44.5t-88.5 -17.5q-48 0 -90 18t-74 51t-50.5 80t-18.5 105t18.5 104.5t50.5 79
t75 50t91 17.5q52 0 91.5 -19t59.5 -50zM306 143q53 0 87 36t34 91t-33.5 90.5t-87.5 35.5q-52 0 -86 -35.5t-34 -90.5q0 -27 9 -50.5t25.5 -40.5t38.5 -26.5t47 -9.5z" />
    <glyph glyph-name="h" unicode="h" horiz-adv-x="628" 
d="M387 521q92 0 140 -49t48 -147v-325h-158v300q0 54 -26 75t-65 21q-19 0 -38.5 -5.5t-35 -19.5t-26 -38t-10.5 -61v-272h-158v750h158v-300q29 33 71.5 52t99.5 19z" />
    <glyph glyph-name="i" unicode="i" horiz-adv-x="272" 
d="M136 574q-37 0 -63 26t-26 63q0 36 26 62t63 26q36 0 62 -26t26 -62q0 -37 -26 -63t-62 -26zM57 0v511h158v-511h-158z" />
    <glyph glyph-name="j" unicode="j" horiz-adv-x="270" 
d="M133 574q-37 0 -63 26t-26 63q0 36 26 62t63 26q36 0 62 -26t26 -62q0 -37 -26 -63t-62 -26zM-52 -122q33 0 53.5 8t32 25t15.5 43t4 63v494h159v-494q0 -130 -60.5 -195t-203.5 -65v121z" />
    <glyph glyph-name="k" unicode="k" horiz-adv-x="602" 
d="M372 271l220 -271h-190l-161 207h-25v-207h-158v750h158v-435h22l162 196h177z" />
    <glyph glyph-name="l" unicode="l" horiz-adv-x="273" 
d="M58 0v750h158v-750h-158z" />
    <glyph glyph-name="m" unicode="m" horiz-adv-x="933" 
d="M699 521q85 0 133 -39.5t48 -110.5v-371h-159v317q0 40 -23 59.5t-56 19.5q-18 0 -35 -6t-30 -20.5t-21 -38.5t-8 -61v-270h-158v317q0 40 -23.5 59.5t-56.5 19.5q-18 0 -35 -6t-30 -20.5t-21 -38.5t-8 -61v-270h-158v511h149l7 -61q26 34 65 52.5t88 18.5
q63 0 106.5 -22t61.5 -64q26 42 68 64t96 22z" />
    <glyph glyph-name="n" unicode="n" horiz-adv-x="628" 
d="M378 521q99 0 147.5 -47t48.5 -132v-342h-158v309q0 47 -26 67t-63 20q-20 0 -38.5 -5t-33.5 -17.5t-25.5 -32.5t-13.5 -50v-291h-158v511h149l6 -58q28 32 69.5 50t95.5 18z" />
    <glyph glyph-name="o" unicode="o" horiz-adv-x="639" 
d="M320 -10q-63 0 -116 18.5t-90.5 52.5t-58.5 83t-21 112q0 62 21 111t58.5 83t90.5 52.5t116 18.5t115.5 -18.5t90 -52.5t58.5 -83t21 -111q0 -63 -21 -112t-58.5 -83t-90 -52.5t-115.5 -18.5zM320 115q58 0 92.5 39t34.5 102q0 62 -34.5 101t-92.5 39q-59 0 -93.5 -39
t-34.5 -101q0 -63 34.5 -102t93.5 -39z" />
    <glyph glyph-name="p" unicode="p" horiz-adv-x="652" 
d="M367 521q51 0 96.5 -17.5t79.5 -51.5t53.5 -83t19.5 -112t-19.5 -112.5t-53.5 -84t-79.5 -52.5t-96.5 -18q-48 0 -88 16t-63 46v-295h-158v754h149l6 -54q22 32 63 48t91 16zM333 120q53 0 89 36t36 101q0 64 -36 98.5t-89 34.5q-54 0 -89 -34.5t-35 -98.5q0 -65 35 -101
t89 -36z" />
    <glyph glyph-name="q" unicode="q" horiz-adv-x="652" 
d="M445 511h150v-754h-159v295q-23 -30 -63 -46t-88 -16q-51 0 -96.5 18t-79.5 52.5t-53.5 84t-19.5 112.5t19.5 112t53.5 83t79.5 51.5t96.5 17.5q50 0 91 -16t63 -48zM319 120q54 0 89 36t35 101q0 64 -35 98.5t-89 34.5q-53 0 -89 -34.5t-36 -98.5q0 -65 36 -101t89 -36z
" />
    <glyph glyph-name="r" unicode="r" horiz-adv-x="401" 
d="M216 444q23 35 66.5 56t100.5 21v-147q-44 0 -75.5 -6.5t-52 -23t-30 -44t-9.5 -69.5v-231h-158v511h158v-67z" />
    <glyph glyph-name="s" unicode="s" horiz-adv-x="524" 
d="M274 -10q-45 0 -85.5 8.5t-72.5 26t-53.5 44.5t-29.5 64l132 37q13 -41 38.5 -56.5t60.5 -15.5q26 0 48.5 9.5t22.5 34.5q0 15 -9 25t-23.5 17t-33.5 11.5t-40 8.5q-42 8 -76 19.5t-58 29t-36.5 43t-12.5 61.5q0 78 57 121t154 43q37 0 72.5 -7.5t64.5 -23t51 -40.5
t32 -61l-139 -30q-12 32 -33.5 45t-52.5 13q-28 0 -45.5 -10t-17.5 -30q0 -23 30.5 -34t73.5 -20q47 -10 83 -22.5t60.5 -31t37.5 -44.5t13 -65q0 -46 -18 -78t-47.5 -52.5t-68 -30t-79.5 -9.5z" />
    <glyph glyph-name="t" unicode="t" horiz-adv-x="417" 
d="M279 0q-79 0 -121 43.5t-42 122.5v224h-99v121h34q19 0 34.5 4t26.5 15t17 30.5t6 50.5v62h139v-162h106v-121h-106v-200q0 -35 16 -50t45 -15h45v-125h-101z" />
    <glyph glyph-name="u" unicode="u" horiz-adv-x="628" 
d="M412 511h158v-511h-150l-6 59q-28 -33 -69.5 -51t-95.5 -18q-99 0 -148 46.5t-49 131.5v343h159v-310q0 -47 25.5 -66t63.5 -19q21 0 41 6t36 20t25.5 37.5t9.5 59.5v272z" />
    <glyph glyph-name="v" unicode="v" horiz-adv-x="600" 
d="M417 511h172l-219 -511h-141l-219 511h172l118 -324z" />
    <glyph glyph-name="w" unicode="w" horiz-adv-x="910" 
d="M729 511h168l-177 -511h-161l-104 312l-104 -312h-161l-177 511h168l98 -318l114 318h125l113 -317z" />
    <glyph glyph-name="x" unicode="x" horiz-adv-x="646" 
d="M11 0l217 256l-217 255h199l113 -152l114 152h197l-217 -256l217 -255h-197l-113 150l-114 -150h-199z" />
    <glyph glyph-name="y" unicode="y" horiz-adv-x="600" 
d="M417 511h172l-321 -754h-172l121 272l-207 482h172l117 -319z" />
    <glyph glyph-name="z" unicode="z" horiz-adv-x="496" 
d="M472 511l-216 -390h205v-121h-440l215 390h-195v121h431z" />
    <glyph glyph-name="braceleft" unicode="{" horiz-adv-x="361" 
d="M266 -250q-40 0 -71.5 11t-53 30.5t-32.5 45.5t-11 56v244q0 36 -3.5 56.5t-11.5 31.5t-22.5 17t-36.5 12v98q22 6 36.5 11.5t22.5 16.5t11.5 31.5t3.5 56.5v244q0 30 11 56t32.5 45.5t53 30.5t71.5 11h67v-113h-37q-20 0 -34.5 -11.5t-14.5 -37.5v-220
q0 -65 -17.5 -107.5t-72.5 -62.5q55 -21 72.5 -63.5t17.5 -107.5v-220q0 -26 14.5 -37.5t34.5 -11.5h37v-113h-67z" />
    <glyph glyph-name="bar" unicode="|" horiz-adv-x="353" 
d="M98 -150v900h158v-900h-158z" />
    <glyph glyph-name="braceright" unicode="}" horiz-adv-x="361" 
d="M29 -250v113h36q20 0 34.5 11.5t14.5 37.5v220q0 65 18 107.5t73 63.5q-55 20 -73 62.5t-18 107.5v220q0 26 -14.5 37.5t-34.5 11.5h-36v113h67q40 0 71 -11t52.5 -30.5t32.5 -45.5t11 -56v-244q0 -36 3.5 -56.5t11.5 -31.5t22.5 -16.5t36.5 -11.5v-98q-22 -6 -36.5 -12
t-22.5 -17t-11.5 -31.5t-3.5 -56.5v-244q0 -30 -11 -56t-32.5 -45.5t-52.5 -30.5t-71 -11h-67z" />
    <glyph glyph-name="asciitilde" unicode="~" horiz-adv-x="629" 
d="M416 151q-30 0 -54 9t-42 22t-30.5 26t-20.5 21q-14 13 -24 17t-18 4q-16 0 -28 -8t-19.5 -21t-11 -30t-3.5 -34h-110q0 45 11 82.5t33 64.5t55 42t76 15q47 0 75.5 -18.5t54.5 -53.5q8 -11 18.5 -21t28.5 -10q25 0 43 24t16 68h108q0 -42 -10.5 -78.5t-30.5 -63.5
t-49.5 -42t-67.5 -15z" />
    <glyph glyph-name="exclamdown" unicode="&#xa1;" horiz-adv-x="283" 
d="M141 519q37 0 62.5 -25.5t25.5 -62.5t-25.5 -62.5t-62.5 -25.5t-62.5 25.5t-25.5 62.5t25.5 62.5t62.5 25.5zM78 273h125l18 -477h-160z" />
    <glyph glyph-name="cent" unicode="&#xa2;" horiz-adv-x="603" 
d="M313 219q44 0 72.5 20t39.5 65l145 -14q-14 -84 -71.5 -132.5t-140.5 -59.5v-98h-91v98q-52 7 -95 29t-74 56t-47.5 79t-16.5 98q0 54 16.5 99t47.5 79t74 55.5t95 28.5v91h91v-91q85 -10 141 -58.5t71 -132.5l-145 -14q-11 44 -39.5 64.5t-72.5 20.5q-57 0 -89 -39.5
t-32 -102.5t32 -102t89 -39z" />
    <glyph glyph-name="sterling" unicode="&#xa3;" horiz-adv-x="658" 
d="M461 495q1 6 1 11.5v10.5q0 42 -22 60.5t-62 18.5q-45 0 -70.5 -28t-25.5 -91v-78h134v-112h-134v-153h295v-134h-512v93l31 7q42 12 42 60v127h-73v112h73v78q0 55 18 100.5t50 78t76.5 50.5t98.5 18q39 0 77.5 -10t68.5 -32.5t48.5 -58.5t18.5 -88q0 -8 -0.5 -15
t-0.5 -14z" />
    <glyph glyph-name="currency" unicode="&#xa4;" horiz-adv-x="680" 
d="M151 87l-83 87l60 61q-17 28 -26 60t-9 64q0 68 35 126l-59 60l83 87l62 -62q59 35 126 35t125 -35l61 61l85 -85l-61 -60q18 -29 26 -61t8 -65q0 -32 -8 -64.5t-26 -61.5l60 -60l-83 -87l-62 62q-59 -34 -126 -34q-66 0 -126 34zM339 233q27 0 50.5 10.5t40.5 28.5
t26.5 41t9.5 48q0 26 -10 48.5t-27 39.5t-40.5 27t-49.5 10t-49 -10t-40 -27.5t-27 -41t-10 -49.5q0 -27 10.5 -50t28 -39.5t40 -26t47.5 -9.5z" />
    <glyph glyph-name="yen" unicode="&#xa5;" horiz-adv-x="636" 
d="M637 713l-183 -288h106v-118h-159v-102h159v-118h-159v-87h-165v87h-161v118h161v102h-161v118h105l-183 288h182l139 -229l139 229h180z" />
    <glyph glyph-name="brokenbar" unicode="&#xa6;" horiz-adv-x="353" 
d="M98 390v360h158v-360h-158zM98 -150v360h158v-360h-158z" />
    <glyph glyph-name="section" unicode="&#xa7;" horiz-adv-x="622" 
d="M326 -172q-43 0 -85 9t-76.5 29.5t-59.5 53t-35 79.5l128 32q10 -51 40 -73t80 -22q45 0 74.5 19t29.5 60q0 20 -11.5 33t-31.5 23t-45.5 18t-54.5 16q-37 11 -74.5 24.5t-68 35.5t-50 54.5t-19.5 81.5q0 37 10.5 66.5t30.5 52.5q-19 20 -30 46t-11 61q0 45 17 80
t47.5 59.5t72.5 37.5t92 13q44 0 85.5 -9.5t76 -29.5t59.5 -52.5t35 -79.5l-128 -32q-10 51 -40 73t-80 22q-45 0 -74.5 -19t-29.5 -60q0 -19 11.5 -32.5t31 -23.5t45.5 -18t54 -16q37 -11 75 -25t68.5 -35.5t50 -54.5t19.5 -81q0 -37 -10.5 -66.5t-30.5 -52.5
q19 -20 30 -46t11 -61q0 -45 -17 -80.5t-47.5 -59.5t-72.5 -37t-92 -13zM401 186q18 21 18 51q0 24 -12.5 40t-34 27.5t-49.5 20.5t-58 18q-12 4 -23 7t-21 8q-18 -19 -18 -50q0 -24 12.5 -40t34 -28t49.5 -21t58 -18q12 -3 23 -6.5t21 -8.5z" />
    <glyph glyph-name="dieresis" unicode="&#xa8;" horiz-adv-x="523" 
d="M153 574q-37 0 -63 26t-26 63q0 36 26 62t63 26q36 0 62 -26t26 -62q0 -37 -26 -63t-62 -26zM371 574q-37 0 -63 26t-26 63q0 36 26 62t63 26q36 0 62 -26t26 -62q0 -37 -26 -63t-62 -26z" />
    <glyph glyph-name="copyright" unicode="&#xa9;" horiz-adv-x="848" 
d="M424 -10q-75 0 -142 29t-116.5 78.5t-78.5 116.5t-29 142q0 76 29 142.5t78.5 116.5t116.5 79t142 29t142 -29t116.5 -79t78.5 -116.5t29 -142.5q0 -75 -29 -142t-78.5 -116.5t-116 -78.5t-142.5 -29zM424 71q60 0 112 22t90.5 60.5t60.5 90.5t22 112t-22 112t-60.5 90.5
t-90.5 60.5t-112 22t-112 -22t-90.5 -60.5t-60.5 -90.5t-22 -112t22 -112t60.5 -90.5t90.5 -60.5t112 -22zM424 173q-39 0 -72.5 14.5t-58 39t-39 58t-14.5 71.5q0 39 14.5 72.5t39 58t58 39t72.5 14.5q46 0 84 -20t64 -54l-66 -47q-14 18 -35 29t-47 11q-44 0 -73.5 -29.5
t-29.5 -73.5q0 -43 29.5 -72.5t73.5 -29.5q26 0 47 11t35 29l66 -48q-26 -34 -64 -53.5t-84 -19.5z" />
    <glyph glyph-name="ordfeminine" unicode="&#xaa;" horiz-adv-x="435" 
d="M280 713h89v-300h-89v37q-17 -20 -41.5 -31.5t-54.5 -11.5q-31 0 -58 12t-47 33t-31.5 49.5t-11.5 61.5t11.5 61.5t31.5 49.5t47 33t58 12q30 0 54.5 -11.5t41.5 -31.5v37zM202 483q32 0 55 23.5t23 56.5t-23 56t-55 23t-55.5 -23t-23.5 -56t23.5 -56.5t55.5 -23.5z" />
    <glyph glyph-name="guillemotleft" unicode="&#xab;" horiz-adv-x="577" 
d="M179 72l-152 184l152 184h126l-152 -184l152 -184h-126zM424 72l-152 184l152 184h126l-152 -184l152 -184h-126z" />
    <glyph glyph-name="logicalnot" unicode="&#xac;" horiz-adv-x="778" 
d="M596 68v247h-541v128h668v-375h-127z" />
    <glyph glyph-name="uni00AD" unicode="&#xad;" horiz-adv-x="397" 
d="M24 197v118h350v-118h-350z" />
    <glyph glyph-name="registered" unicode="&#xae;" horiz-adv-x="435" 
d="M217 307q-43 0 -80.5 16.5t-65.5 45t-44.5 66.5t-16.5 80q0 43 16 81t44 66t66 44.5t81 16.5q42 0 80 -16.5t66.5 -44.5t45 -66t16.5 -81q0 -42 -16.5 -80t-45 -66.5t-66.5 -45t-80 -16.5zM217 355q33 0 62.5 12.5t51 34t34 51t12.5 62.5q0 34 -12.5 63.5t-34 51t-51 34
t-62.5 12.5q-34 0 -63 -12.5t-51 -34t-34.5 -51t-12.5 -63.5q0 -33 12.5 -62.5t34.5 -51t51 -34t63 -12.5zM135 404v222h106q28 0 47 -19t19 -48q0 -20 -9.5 -35t-24.5 -23l40 -97h-55l-34 90h-38v-90h-51zM186 535h43q14 0 20.5 6.5t6.5 17.5q0 23 -27 23h-43v-47z" />
    <glyph glyph-name="macron" unicode="&#xaf;" horiz-adv-x="415" 
d="M64 590v99h287v-99h-287z" />
    <glyph glyph-name="degree" unicode="&#xb0;" horiz-adv-x="446" 
d="M223 417q-32 0 -60 12t-48.5 32.5t-32.5 48.5t-12 60t12 60t32.5 48.5t48.5 32.5t60 12t60 -12t48.5 -32.5t32.5 -48.5t12 -60t-12 -60t-32.5 -48.5t-48.5 -32.5t-60 -12zM223 503q29 0 47.5 19t18.5 48q0 28 -18.5 46.5t-47.5 18.5q-28 0 -47 -18.5t-19 -46.5
q0 -29 19 -48t47 -19z" />
    <glyph glyph-name="plusminus" unicode="&#xb1;" horiz-adv-x="600" 
d="M241 188v133h-186v118h186v134h118v-134h186v-118h-186v-133h-118zM55 12v118h490v-118h-490z" />
    <glyph glyph-name="uni00B2" unicode="&#xb2;" horiz-adv-x="353" 
d="M161 489h168v-84h-304v73l170 173q17 17 25 31t8 31q0 21 -13.5 32.5t-36.5 11.5q-60 0 -60 -65v-20l-94 10v18q0 66 40 103.5t110 37.5q65 0 106.5 -33t41.5 -92q0 -35 -13.5 -62t-41.5 -56z" />
    <glyph glyph-name="uni00B3" unicode="&#xb3;" horiz-adv-x="358" 
d="M182 396q-79 0 -120.5 40t-41.5 117h98q0 -31 13 -51.5t48 -20.5q30 0 45 16t15 41q0 19 -7 30t-17 16.5t-20.5 7t-16.5 1.5h-14v73h13q21 0 35.5 13t14.5 36q0 20 -13.5 31.5t-34.5 11.5q-25 0 -39 -17t-14 -47v-5l-96 10q0 69 40 105.5t107 36.5q30 0 55.5 -9.5t44 -25
t28.5 -37t10 -45.5q0 -36 -18.5 -58t-34.5 -30q13 -3 26 -10.5t23.5 -20t17 -30.5t6.5 -42q0 -61 -41.5 -99t-111.5 -38z" />
    <glyph glyph-name="acute" unicode="&#xb4;" horiz-adv-x="382" 
d="M64 571l87 142h168l-117 -142h-138z" />
    <glyph glyph-name="uni00B5" unicode="&#xb5;" horiz-adv-x="627" 
d="M411 511h158v-511h-150l-6 59q-28 -33 -69.5 -51t-95.5 -18q-10 0 -19 0.5t-18 1.5v-235h-159v754h159v-310q0 -47 25.5 -66t62.5 -19q21 0 41 6t36 20t25.5 37.5t9.5 59.5v272z" />
    <glyph glyph-name="paragraph" unicode="&#xb6;" horiz-adv-x="593" 
d="M241 -150v528h-16q-83 0 -130.5 43t-47.5 125t47.5 124.5t130.5 42.5h95v-863h-79zM415 -150v863h80v-863h-80z" />
    <glyph glyph-name="periodcentered" unicode="&#xb7;" horiz-adv-x="351" 
d="M174 266q-36 0 -63 26t-27 64q0 18 7.5 34.5t19.5 29t28.5 20t34.5 7.5t34 -7.5t29 -20t20.5 -29t7.5 -34.5q0 -19 -7.5 -35.5t-20.5 -28.5t-29 -19t-34 -7z" />
    <glyph glyph-name="cedilla" unicode="&#xb8;" horiz-adv-x="374" 
d="M218 -48q42 0 67 -25.5t25 -66.5q0 -45 -32 -76.5t-85 -31.5q-57 0 -88 21.5t-41 53.5l86 23q5 -14 16 -21t24 -7q16 0 28 10t12 28q0 20 -12 29.5t-28 9.5q-23 0 -35 -17l-73 31l78 129l75 -28l-44 -65q15 3 27 3z" />
    <glyph glyph-name="uni00B9" unicode="&#xb9;" horiz-adv-x="256" 
d="M112 832h92v-427h-95v317l-97 -78v107z" />
    <glyph glyph-name="ordmasculine" unicode="&#xba;" horiz-adv-x="398" 
d="M199 411q-35 0 -65.5 12t-53 33t-35.5 49.5t-13 61.5t13 61.5t35.5 49.5t53 33t65.5 12t65.5 -12t53.5 -33t36 -49.5t13 -61.5t-13 -61.5t-36 -49.5t-53.5 -33t-65.5 -12zM199 487q33 0 56 23.5t23 56.5t-23 56t-56 23t-56.5 -23t-23.5 -56t23.5 -56.5t56.5 -23.5z" />
    <glyph glyph-name="guillemotright" unicode="&#xbb;" horiz-adv-x="577" 
d="M154 72h-127l152 184l-152 184h127l152 -184zM398 72h-126l152 184l-152 184h126l152 -184z" />
    <glyph glyph-name="onequarter" unicode="&#xbc;" horiz-adv-x="810" 
d="M519 713h96l-402 -713h-96zM204 285h-95v317l-97 -78v107l100 81h92v-427zM789 165v-84h-44v-81h-95v81h-196v85l145 262h146v-263h44zM541 165h109v200z" />
    <glyph glyph-name="onehalf" unicode="&#xbd;" horiz-adv-x="829" 
d="M519 713h96l-402 -713h-96zM204 285h-95v317l-97 -78v107l100 81h92v-427zM637 84h169v-84h-304v73l170 173q17 17 25 31t8 31q0 21 -13.5 32.5t-36.5 11.5q-60 0 -60 -65v-20l-94 10v18q0 66 40 103.5t110 37.5q65 0 106.5 -33t41.5 -92q0 -35 -13.5 -61.5t-41.5 -55.5z
" />
    <glyph glyph-name="threequarters" unicode="&#xbe;" horiz-adv-x="911" 
d="M335 413q0 -61 -41.5 -99t-111.5 -38q-79 0 -120.5 40t-41.5 117h98q0 -31 13 -51.5t48 -20.5q30 0 45 16t15 41q0 19 -7 30t-17 16.5t-20.5 7t-16.5 1.5h-14v73h13q21 0 35.5 13t14.5 36q0 20 -13.5 31.5t-34.5 11.5q-25 0 -39 -17t-14 -47v-5l-96 10q0 69 40 105.5
t107 36.5q30 0 55.5 -9.5t44 -25t28.5 -37t10 -45.5q0 -36 -18.5 -58t-34.5 -30q13 -3 26 -10.5t23.5 -20t17 -30.5t6.5 -42zM621 713h96l-402 -713h-96zM890 165v-84h-44v-81h-95v81h-196v85l145 262h146v-263h44zM642 165h109v200z" />
    <glyph glyph-name="questiondown" unicode="&#xbf;" horiz-adv-x="542" 
d="M268 521q37 0 62.5 -26t25.5 -62q0 -37 -26 -62.5t-62 -25.5t-61.5 25.5t-25.5 62.5q0 36 25 62t62 26zM332 283v-44q0 -26 -6.5 -44.5t-17.5 -32t-25.5 -23.5t-29.5 -19t-29 -18.5t-25 -22t-17.5 -29.5t-6.5 -42q0 -47 27 -70.5t69 -23.5q46 0 71.5 26t25.5 66
q0 15 -3 30l140 -9q0 -7 0.5 -14t0.5 -16q0 -46 -17 -85.5t-47.5 -68t-74 -44.5t-96.5 -16q-54 0 -99 15t-77.5 42.5t-50 66.5t-17.5 88q0 51 14 85.5t34 58t43.5 38t41.5 26.5q21 14 33.5 27.5t12.5 34.5v18h126z" />
    <glyph glyph-name="Agrave" unicode="&#xc0;" horiz-adv-x="742" 
d="M441 743h-138l-114 138h167zM561 0l-49 140h-283l-49 -140h-175l264 713h204l264 -713h-176zM278 277h186l-93 265z" />
    <glyph glyph-name="Aacute" unicode="&#xc1;" horiz-adv-x="742" 
d="M554 881l-114 -138h-138l85 138h167zM561 0l-49 140h-283l-49 -140h-175l264 713h204l264 -713h-176zM278 277h186l-93 265z" />
    <glyph glyph-name="Acircumflex" unicode="&#xc2;" horiz-adv-x="742" 
d="M372 810l-56 -65h-130l96 136h179l96 -136h-130zM561 0l-49 140h-283l-49 -140h-175l264 713h204l264 -713h-176zM278 277h186l-93 265z" />
    <glyph glyph-name="Atilde" unicode="&#xc3;" horiz-adv-x="742" 
d="M304 811q-15 0 -20.5 -18.5t-5.5 -43.5h-75q0 64 29 105t81 41q35 0 54 -14t32 -29q9 -11 18 -18t21 -7q15 0 19.5 18t4.5 44h76q0 -31 -7 -57.5t-20.5 -46t-34 -31t-47.5 -11.5q-36 0 -55 14t-31 29q-9 10 -17.5 17.5t-21.5 7.5zM561 0l-49 140h-283l-49 -140h-175
l264 713h204l264 -713h-176zM278 277h186l-93 265z" />
    <glyph glyph-name="Adieresis" unicode="&#xc4;" horiz-adv-x="742" 
d="M263 748q-37 0 -63 26t-26 63q0 36 26 62t63 26q36 0 62 -26t26 -62q0 -37 -26 -63t-62 -26zM481 748q-37 0 -63 26t-26 63q0 36 26 62t63 26q36 0 62 -26t26 -62q0 -37 -26 -63t-62 -26zM561 0l-49 140h-283l-49 -140h-175l264 713h204l264 -713h-176zM278 277h186
l-93 265z" />
    <glyph glyph-name="Aring" unicode="&#xc5;" horiz-adv-x="742" 
d="M371 741q-28 0 -53 9.5t-43.5 26.5t-29 41t-10.5 54t10.5 54t29 41.5t43.5 26.5t53 9t52.5 -9t43 -26.5t29 -41.5t10.5 -54t-10.5 -54t-29 -41t-43 -26.5t-52.5 -9.5zM371 932q-26 0 -42 -16.5t-16 -43.5q0 -26 16 -42.5t42 -16.5t43 16.5t17 42.5q0 27 -17 43.5
t-43 16.5zM561 0l-49 140h-283l-49 -140h-175l264 713h204l264 -713h-176zM278 277h186l-93 265z" />
    <glyph glyph-name="AE" unicode="&#xc6;" horiz-adv-x="922" 
d="M5 0l264 713h608v-145h-268v-140h231v-144h-231v-139h268v-145h-433v140h-214l-50 -140h-175zM277 277h167v291h-64z" />
    <glyph glyph-name="Ccedilla" unicode="&#xc7;" horiz-adv-x="769" 
d="M401 137q68 0 118 36t70 99l155 -55q-35 -100 -117 -161t-194 -69l-26 -38q15 3 27 3q42 0 67 -25.5t25 -66.5q0 -45 -32 -76.5t-85 -31.5q-57 0 -88 21.5t-41 53.5l86 23q5 -14 16 -21t24 -7q16 0 28 10t12 28q0 20 -12 29.5t-28 9.5q-23 0 -35 -17l-73 31l46 77
q-69 9 -126 39t-98.5 78t-64 111t-22.5 138q0 83 27.5 151t76 117t116 76t148.5 27q62 0 116 -16.5t98.5 -46.5t77.5 -72.5t51 -95.5l-155 -55q-20 63 -70 99t-118 36q-44 0 -81.5 -16t-64.5 -44.5t-42 -69t-15 -90.5q0 -49 15 -89.5t42 -69.5t64.5 -44.5t81.5 -15.5z" />
    <glyph glyph-name="Egrave" unicode="&#xc8;" horiz-adv-x="533" 
d="M350 743h-138l-114 138h167zM488 568h-259v-140h231v-143h-231v-141h259v-144h-424v713h424v-145z" />
    <glyph glyph-name="Eacute" unicode="&#xc9;" horiz-adv-x="533" 
d="M464 881l-114 -138h-138l85 138h167zM488 568h-259v-140h231v-143h-231v-141h259v-144h-424v713h424v-145z" />
    <glyph glyph-name="Ecircumflex" unicode="&#xca;" horiz-adv-x="533" 
d="M282 810l-56 -65h-130l96 136h179l96 -136h-130zM488 568h-259v-140h231v-143h-231v-141h259v-144h-424v713h424v-145z" />
    <glyph glyph-name="Edieresis" unicode="&#xcb;" horiz-adv-x="533" 
d="M172 748q-37 0 -63 26t-26 63q0 36 26 62t63 26q36 0 62 -26t26 -62q0 -37 -26 -63t-62 -26zM390 748q-37 0 -63 26t-26 63q0 36 26 62t63 26q36 0 62 -26t26 -62q0 -37 -26 -63t-62 -26zM488 568h-259v-140h231v-143h-231v-141h259v-144h-424v713h424v-145z" />
    <glyph glyph-name="Igrave" unicode="&#xcc;" horiz-adv-x="293" 
d="M77 743l-114 138h167l85 -138h-138zM64 0v713h165v-713h-165z" />
    <glyph glyph-name="Iacute" unicode="&#xcd;" horiz-adv-x="293" 
d="M77 743l85 138h167l-114 -138h-138zM64 0v713h165v-713h-165z" />
    <glyph glyph-name="Icircumflex" unicode="&#xce;" horiz-adv-x="293" 
d="M-40 745l96 136h179l96 -136h-130l-55 65l-56 -65h-130zM64 0v713h165v-713h-165z" />
    <glyph glyph-name="Idieresis" unicode="&#xcf;" horiz-adv-x="293" 
d="M37 748q-37 0 -63 26t-26 63q0 36 26 62t63 26q36 0 62 -26t26 -62q0 -37 -26 -63t-62 -26zM255 748q-37 0 -63 26t-26 63q0 36 26 62t63 26q36 0 62 -26t26 -62q0 -37 -26 -63t-62 -26zM64 0v713h165v-713h-165z" />
    <glyph glyph-name="Eth" unicode="&#xd0;" horiz-adv-x="711" 
d="M548 648q64 -46 95.5 -120.5t31.5 -171.5t-31.5 -171t-95.5 -120q-45 -32 -106.5 -48.5t-151.5 -16.5h-226v309h-74v95h74v309h226q90 0 151.5 -16.5t106.5 -48.5zM432 182q39 26 58.5 70.5t19.5 103.5q0 60 -19.5 104.5t-58.5 70.5q-54 37 -143 37h-60v-164h113v-95
h-113v-165h60q46 0 81.5 10t61.5 28z" />
    <glyph glyph-name="Ntilde" unicode="&#xd1;" horiz-adv-x="785" 
d="M327 811q-15 0 -20.5 -18.5t-5.5 -43.5h-75q0 64 29 105t81 41q35 0 54 -14t32 -29q9 -11 18 -18t21 -7q15 0 19.5 18t4.5 44h76q0 -31 -7 -57.5t-20.5 -46t-34 -31t-47.5 -11.5q-36 0 -55 14t-31 29q-9 10 -17.5 17.5t-21.5 7.5zM556 713h165v-713h-198l-294 480v-480
h-165v713h195l297 -479v479z" />
    <glyph glyph-name="Ograve" unicode="&#xd2;" horiz-adv-x="801" 
d="M332 743l-114 138h167l85 -138h-138zM401 -14q-81 0 -148.5 27t-116 75.5t-76 117t-27.5 150.5q0 83 27.5 151t76 117t116 76t148.5 27q80 0 147.5 -27t116.5 -76t76 -117t27 -151q0 -82 -27 -150.5t-76 -117t-116.5 -75.5t-147.5 -27zM401 137q44 0 81 15.5t64 44.5
t42 69.5t15 89.5q0 50 -15 90.5t-42 69t-64 44.5t-81 16t-81.5 -16t-64.5 -44.5t-42 -69t-15 -90.5q0 -49 15 -89.5t42 -69.5t64.5 -44.5t81.5 -15.5z" />
    <glyph glyph-name="Oacute" unicode="&#xd3;" horiz-adv-x="801" 
d="M332 743l85 138h167l-114 -138h-138zM401 -14q-81 0 -148.5 27t-116 75.5t-76 117t-27.5 150.5q0 83 27.5 151t76 117t116 76t148.5 27q80 0 147.5 -27t116.5 -76t76 -117t27 -151q0 -82 -27 -150.5t-76 -117t-116.5 -75.5t-147.5 -27zM401 137q44 0 81 15.5t64 44.5
t42 69.5t15 89.5q0 50 -15 90.5t-42 69t-64 44.5t-81 16t-81.5 -16t-64.5 -44.5t-42 -69t-15 -90.5q0 -49 15 -89.5t42 -69.5t64.5 -44.5t81.5 -15.5z" />
    <glyph glyph-name="Ocircumflex" unicode="&#xd4;" horiz-adv-x="801" 
d="M215 745l96 136h179l96 -136h-130l-55 65l-56 -65h-130zM401 -14q-81 0 -148.5 27t-116 75.5t-76 117t-27.5 150.5q0 83 27.5 151t76 117t116 76t148.5 27q80 0 147.5 -27t116.5 -76t76 -117t27 -151q0 -82 -27 -150.5t-76 -117t-116.5 -75.5t-147.5 -27zM401 137
q44 0 81 15.5t64 44.5t42 69.5t15 89.5q0 50 -15 90.5t-42 69t-64 44.5t-81 16t-81.5 -16t-64.5 -44.5t-42 -69t-15 -90.5q0 -49 15 -89.5t42 -69.5t64.5 -44.5t81.5 -15.5z" />
    <glyph glyph-name="Otilde" unicode="&#xd5;" horiz-adv-x="801" 
d="M459 743q-36 0 -55 14t-31 29q-9 10 -17.5 17.5t-21.5 7.5q-15 0 -20.5 -18.5t-5.5 -43.5h-75q0 64 29 105t81 41q35 0 54 -14t32 -29q9 -11 18 -18t21 -7q15 0 19.5 18t4.5 44h76q0 -31 -7 -57.5t-20.5 -46t-34 -31t-47.5 -11.5zM401 -14q-81 0 -148.5 27t-116 75.5
t-76 117t-27.5 150.5q0 83 27.5 151t76 117t116 76t148.5 27q80 0 147.5 -27t116.5 -76t76 -117t27 -151q0 -82 -27 -150.5t-76 -117t-116.5 -75.5t-147.5 -27zM401 137q44 0 81 15.5t64 44.5t42 69.5t15 89.5q0 50 -15 90.5t-42 69t-64 44.5t-81 16t-81.5 -16t-64.5 -44.5
t-42 -69t-15 -90.5q0 -49 15 -89.5t42 -69.5t64.5 -44.5t81.5 -15.5z" />
    <glyph glyph-name="Odieresis" unicode="&#xd6;" horiz-adv-x="801" 
d="M292 748q-37 0 -63 26t-26 63q0 36 26 62t63 26q36 0 62 -26t26 -62q0 -37 -26 -63t-62 -26zM510 748q-37 0 -63 26t-26 63q0 36 26 62t63 26q36 0 62 -26t26 -62q0 -37 -26 -63t-62 -26zM401 -14q-81 0 -148.5 27t-116 75.5t-76 117t-27.5 150.5q0 83 27.5 151t76 117
t116 76t148.5 27q80 0 147.5 -27t116.5 -76t76 -117t27 -151q0 -82 -27 -150.5t-76 -117t-116.5 -75.5t-147.5 -27zM401 137q44 0 81 15.5t64 44.5t42 69.5t15 89.5q0 50 -15 90.5t-42 69t-64 44.5t-81 16t-81.5 -16t-64.5 -44.5t-42 -69t-15 -90.5q0 -49 15 -89.5t42 -69.5
t64.5 -44.5t81.5 -15.5z" />
    <glyph glyph-name="multiply" unicode="&#xd7;" horiz-adv-x="540" 
d="M138 41l-83 84l132 131l-132 132l83 83l132 -131l132 131l83 -83l-132 -132l132 -131l-83 -84l-132 132z" />
    <glyph glyph-name="Oslash" unicode="&#xd8;" horiz-adv-x="801" 
d="M643 644q59 -50 92 -123t33 -165q0 -82 -27 -150.5t-76 -117t-116.5 -75.5t-147.5 -27q-52 0 -98.5 11.5t-87.5 32.5l-56 -81l-60 35l59 85q-59 49 -92 122t-33 165q0 83 27.5 151t76 117t116 76t148.5 27q52 0 98 -11.5t87 -32.5l56 81l60 -35zM198 356
q0 -48 13.5 -86.5t39.5 -67.5l245 352q-44 22 -95 22q-44 0 -81.5 -16t-64.5 -44.5t-42 -69t-15 -90.5zM401 137q44 0 81 15.5t64 44.5t42 69.5t15 89.5q0 48 -14 87t-39 68l-245 -352q44 -22 96 -22z" />
    <glyph glyph-name="Ugrave" unicode="&#xd9;" horiz-adv-x="688" 
d="M274 743l-114 138h167l85 -138h-138zM344 -14q-61 0 -113.5 16t-91.5 49t-61 84t-22 121v457h165v-436q0 -39 9.5 -66.5t26 -44t39 -24t48.5 -7.5t48.5 7.5t39 24t26 44t9.5 66.5v436h165v-457q0 -70 -22 -121t-61 -84t-91.5 -49t-113.5 -16z" />
    <glyph glyph-name="Uacute" unicode="&#xda;" horiz-adv-x="688" 
d="M274 743l85 138h167l-114 -138h-138zM344 -14q-61 0 -113.5 16t-91.5 49t-61 84t-22 121v457h165v-436q0 -39 9.5 -66.5t26 -44t39 -24t48.5 -7.5t48.5 7.5t39 24t26 44t9.5 66.5v436h165v-457q0 -70 -22 -121t-61 -84t-91.5 -49t-113.5 -16z" />
    <glyph glyph-name="Ucircumflex" unicode="&#xdb;" horiz-adv-x="688" 
d="M157 745l96 136h179l96 -136h-130l-55 65l-56 -65h-130zM344 -14q-61 0 -113.5 16t-91.5 49t-61 84t-22 121v457h165v-436q0 -39 9.5 -66.5t26 -44t39 -24t48.5 -7.5t48.5 7.5t39 24t26 44t9.5 66.5v436h165v-457q0 -70 -22 -121t-61 -84t-91.5 -49t-113.5 -16z" />
    <glyph glyph-name="Udieresis" unicode="&#xdc;" horiz-adv-x="688" 
d="M234 748q-37 0 -63 26t-26 63q0 36 26 62t63 26q36 0 62 -26t26 -62q0 -37 -26 -63t-62 -26zM452 748q-37 0 -63 26t-26 63q0 36 26 62t63 26q36 0 62 -26t26 -62q0 -37 -26 -63t-62 -26zM344 -14q-61 0 -113.5 16t-91.5 49t-61 84t-22 121v457h165v-436q0 -39 9.5 -66.5
t26 -44t39 -24t48.5 -7.5t48.5 7.5t39 24t26 44t9.5 66.5v436h165v-457q0 -70 -22 -121t-61 -84t-91.5 -49t-113.5 -16z" />
    <glyph glyph-name="Yacute" unicode="&#xdd;" horiz-adv-x="636" 
d="M501 881l-114 -138h-138l85 138h167zM637 713l-236 -373v-340h-165v335l-239 378h182l139 -230l139 230h180z" />
    <glyph glyph-name="Thorn" unicode="&#xde;" horiz-adv-x="607" 
d="M517 557q31 -26 48.5 -67.5t17.5 -99.5q0 -68 -26 -124.5t-81 -86.5q-21 -12 -44.5 -18t-46.5 -9t-44 -3.5t-38 -0.5h-74v-148h-165v713h165v-99h74q145 0 214 -57zM387 306q31 22 31 74q0 28 -8.5 46.5t-23.5 29.5q-21 14 -50.5 17.5t-55.5 3.5h-51v-192h51
q12 0 26.5 0.5t29 2.5t28 6.5t23.5 11.5z" />
    <glyph glyph-name="germandbls" unicode="&#xdf;" horiz-adv-x="728" 
d="M488 -10q-46 0 -86.5 8.5t-73 26t-54 44.5t-28.5 64l131 36q13 -40 39 -55.5t61 -15.5q28 0 50.5 9.5t22.5 35.5q0 15 -9 25.5t-23.5 17t-32.5 11t-37 8.5q-43 9 -76.5 20t-55.5 28t-33.5 41.5t-11.5 60.5q0 39 13 64.5t33.5 42.5t45 27.5t47.5 19.5q32 14 56 27.5
t24 39.5t-28 42.5t-83 16.5q-58 0 -91 -19.5t-49 -51t-19.5 -70t-3.5 -76.5v-418h-158v444q0 89 24 149t67 97.5t101.5 53.5t128.5 16q61 0 109.5 -15t82 -41t51 -62.5t17.5 -80.5q0 -38 -13 -62.5t-33.5 -40t-44.5 -24t-47 -15.5q-29 -8 -49.5 -18t-20.5 -30
q0 -22 22.5 -30.5t60.5 -17.5q45 -9 80 -21t59 -30.5t36.5 -45t12.5 -65.5q0 -46 -18 -78.5t-48 -53t-68.5 -30t-79.5 -9.5z" />
    <glyph glyph-name="agrave" unicode="&#xe0;" horiz-adv-x="579" 
d="M364 571h-139l-116 142h167zM522 91q0 -22 1.5 -41t9.5 -36v-14h-157l-6 61q-27 -38 -73 -54.5t-94 -16.5q-30 0 -60 7t-54.5 23.5t-39.5 43.5t-15 66q0 44 18 73t46.5 48t62.5 30t66 18l88 20q20 5 34.5 12.5t14.5 26.5q0 29 -24.5 40t-53.5 11q-39 0 -64.5 -17.5
t-33.5 -53.5l-151 23q17 83 84.5 121.5t166.5 38.5q115 0 174.5 -48t59.5 -141v-241zM250 98q21 0 43 9t40 26.5t29 44t11 61.5l-121 -34q-20 -5 -39.5 -17t-19.5 -41q0 -25 16 -37t41 -12z" />
    <glyph glyph-name="aacute" unicode="&#xe1;" horiz-adv-x="579" 
d="M478 713l-117 -142h-138l87 142h168zM522 91q0 -22 1.5 -41t9.5 -36v-14h-157l-6 61q-27 -38 -73 -54.5t-94 -16.5q-30 0 -60 7t-54.5 23.5t-39.5 43.5t-15 66q0 44 18 73t46.5 48t62.5 30t66 18l88 20q20 5 34.5 12.5t14.5 26.5q0 29 -24.5 40t-53.5 11
q-39 0 -64.5 -17.5t-33.5 -53.5l-151 23q17 83 84.5 121.5t166.5 38.5q115 0 174.5 -48t59.5 -141v-241zM250 98q21 0 43 9t40 26.5t29 44t11 61.5l-121 -34q-20 -5 -39.5 -17t-19.5 -41q0 -25 16 -37t41 -12z" />
    <glyph glyph-name="acircumflex" unicode="&#xe2;" horiz-adv-x="579" 
d="M293 640l-55 -69h-130l96 142h178l96 -142h-130zM522 91q0 -22 1.5 -41t9.5 -36v-14h-157l-6 61q-27 -38 -73 -54.5t-94 -16.5q-30 0 -60 7t-54.5 23.5t-39.5 43.5t-15 66q0 44 18 73t46.5 48t62.5 30t66 18l88 20q20 5 34.5 12.5t14.5 26.5q0 29 -24.5 40t-53.5 11
q-39 0 -64.5 -17.5t-33.5 -53.5l-151 23q17 83 84.5 121.5t166.5 38.5q115 0 174.5 -48t59.5 -141v-241zM250 98q21 0 43 9t40 26.5t29 44t11 61.5l-121 -34q-20 -5 -39.5 -17t-19.5 -41q0 -25 16 -37t41 -12z" />
    <glyph glyph-name="atilde" unicode="&#xe3;" horiz-adv-x="579" 
d="M226 631q-15 0 -20.5 -18.5t-5.5 -42.5h-75q0 63 29 104.5t81 41.5q35 0 54 -14.5t32 -29.5q9 -11 18 -18t21 -7q15 0 19.5 18t4.5 44h76q0 -31 -7 -57.5t-20.5 -46t-34 -31t-47.5 -11.5q-36 0 -55 14.5t-31 28.5q-9 11 -17.5 18t-21.5 7zM522 91q0 -22 1.5 -41t9.5 -36
v-14h-157l-6 61q-27 -38 -73 -54.5t-94 -16.5q-30 0 -60 7t-54.5 23.5t-39.5 43.5t-15 66q0 44 18 73t46.5 48t62.5 30t66 18l88 20q20 5 34.5 12.5t14.5 26.5q0 29 -24.5 40t-53.5 11q-39 0 -64.5 -17.5t-33.5 -53.5l-151 23q17 83 84.5 121.5t166.5 38.5q115 0 174.5 -48
t59.5 -141v-241zM250 98q21 0 43 9t40 26.5t29 44t11 61.5l-121 -34q-20 -5 -39.5 -17t-19.5 -41q0 -25 16 -37t41 -12z" />
    <glyph glyph-name="adieresis" unicode="&#xe4;" horiz-adv-x="579" 
d="M184 574q-37 0 -63 26t-26 63q0 36 26 62t63 26q36 0 62 -26t26 -62q0 -37 -26 -63t-62 -26zM402 574q-37 0 -63 26t-26 63q0 36 26 62t63 26q36 0 62 -26t26 -62q0 -37 -26 -63t-62 -26zM522 91q0 -22 1.5 -41t9.5 -36v-14h-157l-6 61q-27 -38 -73 -54.5t-94 -16.5
q-30 0 -60 7t-54.5 23.5t-39.5 43.5t-15 66q0 44 18 73t46.5 48t62.5 30t66 18l88 20q20 5 34.5 12.5t14.5 26.5q0 29 -24.5 40t-53.5 11q-39 0 -64.5 -17.5t-33.5 -53.5l-151 23q17 83 84.5 121.5t166.5 38.5q115 0 174.5 -48t59.5 -141v-241zM250 98q21 0 43 9t40 26.5
t29 44t11 61.5l-121 -34q-20 -5 -39.5 -17t-19.5 -41q0 -25 16 -37t41 -12z" />
    <glyph glyph-name="aring" unicode="&#xe5;" horiz-adv-x="579" 
d="M293 562q-59 0 -93 36t-34 88q0 25 8.5 47t25 38.5t40 26.5t53.5 10q29 0 52.5 -10t40 -26.5t25 -38.5t8.5 -47q0 -52 -33.5 -88t-92.5 -36zM293 734q-20 0 -34.5 -12.5t-14.5 -35.5t14.5 -36t34.5 -13q21 0 35.5 13t14.5 36t-14.5 35.5t-35.5 12.5zM522 91
q0 -22 1.5 -41t9.5 -36v-14h-157l-6 61q-27 -38 -73 -54.5t-94 -16.5q-30 0 -60 7t-54.5 23.5t-39.5 43.5t-15 66q0 44 18 73t46.5 48t62.5 30t66 18l88 20q20 5 34.5 12.5t14.5 26.5q0 29 -24.5 40t-53.5 11q-39 0 -64.5 -17.5t-33.5 -53.5l-151 23q17 83 84.5 121.5
t166.5 38.5q115 0 174.5 -48t59.5 -141v-241zM250 98q21 0 43 9t40 26.5t29 44t11 61.5l-121 -34q-20 -5 -39.5 -17t-19.5 -41q0 -25 16 -37t41 -12z" />
    <glyph glyph-name="ae" unicode="&#xe6;" horiz-adv-x="919" 
d="M879 224h-376q5 -55 39.5 -83t82.5 -28q36 0 62 15.5t40 47.5l146 -20q-25 -80 -91 -123t-156 -43q-70 0 -125 21t-91 61q-41 -41 -93.5 -61.5t-112.5 -20.5q-34 0 -64.5 7.5t-53 24t-36 42.5t-13.5 64q0 43 17 71.5t45 47t64 29.5t73 19l72 16q29 6 39 16t10 26
q0 35 -25.5 48t-56.5 13q-38 0 -64 -18t-31 -66l-140 21q16 89 75.5 129t171.5 40q45 0 88 -9t74 -38q71 48 171 48q56 0 103.5 -15.5t82.5 -47.5t55 -81t20 -117zM621 404q-46 0 -75 -20t-39 -64h218q-7 41 -35 62.5t-69 21.5zM249 112q29 0 60.5 14t46.5 45q-6 26 -9 52
l-88 -21q-33 -8 -50.5 -19.5t-17.5 -30.5q0 -20 16 -30t42 -10z" />
    <glyph glyph-name="ccedilla" unicode="&#xe7;" horiz-adv-x="603" 
d="M313 113q44 0 72.5 21t39.5 65l145 -14q-15 -88 -77 -137.5t-151 -56.5l-29 -42q15 3 27 3q42 0 67 -25.5t25 -66.5q0 -45 -32 -76.5t-85 -31.5q-57 0 -88 21.5t-41 53.5l86 23q5 -14 16 -21t24 -7q16 0 28 10t12 28q0 20 -12 29.5t-28 9.5q-23 0 -35 -17l-73 31l50 82
q-50 9 -90.5 31.5t-69.5 56t-44.5 77.5t-15.5 96q0 59 20.5 107.5t57.5 83.5t88.5 54.5t113.5 19.5q103 0 171 -50.5t85 -144.5l-145 -14q-11 45 -39.5 65t-72.5 20q-57 0 -89 -39t-32 -102t32 -103t89 -40z" />
    <glyph glyph-name="egrave" unicode="&#xe8;" horiz-adv-x="604" 
d="M383 572h-139l-116 142h167zM566 224h-376q5 -55 39.5 -83t82.5 -28q37 0 63 15.5t39 47.5l146 -20q-25 -80 -90.5 -123t-156.5 -43q-64 0 -116 18t-88.5 52t-56 83.5t-19.5 111.5q0 63 20 112t56.5 83.5t87 52.5t111.5 18q56 0 103 -15.5t82 -47.5t55 -81t20 -117z
M309 404q-47 0 -76 -20t-39 -64h218q-7 41 -35 62.5t-68 21.5z" />
    <glyph glyph-name="eacute" unicode="&#xe9;" horiz-adv-x="604" 
d="M497 714l-117 -142h-138l87 142h168zM566 224h-376q5 -55 39.5 -83t82.5 -28q37 0 63 15.5t39 47.5l146 -20q-25 -80 -90.5 -123t-156.5 -43q-64 0 -116 18t-88.5 52t-56 83.5t-19.5 111.5q0 63 20 112t56.5 83.5t87 52.5t111.5 18q56 0 103 -15.5t82 -47.5t55 -81
t20 -117zM309 404q-47 0 -76 -20t-39 -64h218q-7 41 -35 62.5t-68 21.5z" />
    <glyph glyph-name="ecircumflex" unicode="&#xea;" horiz-adv-x="604" 
d="M312 641l-55 -69h-130l96 142h178l96 -142h-130zM566 224h-376q5 -55 39.5 -83t82.5 -28q37 0 63 15.5t39 47.5l146 -20q-25 -80 -90.5 -123t-156.5 -43q-64 0 -116 18t-88.5 52t-56 83.5t-19.5 111.5q0 63 20 112t56.5 83.5t87 52.5t111.5 18q56 0 103 -15.5t82 -47.5
t55 -81t20 -117zM309 404q-47 0 -76 -20t-39 -64h218q-7 41 -35 62.5t-68 21.5z" />
    <glyph glyph-name="edieresis" unicode="&#xeb;" horiz-adv-x="604" 
d="M203 575q-37 0 -63 26t-26 63q0 36 26 62t63 26q36 0 62 -26t26 -62q0 -37 -26 -63t-62 -26zM421 575q-37 0 -63 26t-26 63q0 36 26 62t63 26q36 0 62 -26t26 -62q0 -37 -26 -63t-62 -26zM566 224h-376q5 -55 39.5 -83t82.5 -28q37 0 63 15.5t39 47.5l146 -20
q-25 -80 -90.5 -123t-156.5 -43q-64 0 -116 18t-88.5 52t-56 83.5t-19.5 111.5q0 63 20 112t56.5 83.5t87 52.5t111.5 18q56 0 103 -15.5t82 -47.5t55 -81t20 -117zM309 404q-47 0 -76 -20t-39 -64h218q-7 41 -35 62.5t-68 21.5z" />
    <glyph glyph-name="igrave" unicode="&#xec;" horiz-adv-x="272" 
d="M67 571l-116 142h167l88 -142h-139zM57 0v511h158v-511h-158z" />
    <glyph glyph-name="iacute" unicode="&#xed;" horiz-adv-x="272" 
d="M66 571l87 142h168l-117 -142h-138zM57 0v511h158v-511h-158z" />
    <glyph glyph-name="icircumflex" unicode="&#xee;" horiz-adv-x="272" 
d="M-49 571l96 142h178l96 -142h-130l-55 69l-55 -69h-130zM57 0v511h158v-511h-158z" />
    <glyph glyph-name="idieresis" unicode="&#xef;" horiz-adv-x="272" 
d="M27 574q-37 0 -63 26t-26 63q0 36 26 62t63 26q36 0 62 -26t26 -62q0 -37 -26 -63t-62 -26zM245 574q-37 0 -63 26t-26 63q0 36 26 62t63 26q36 0 62 -26t26 -62q0 -37 -26 -63t-62 -26zM57 0v511h158v-511h-158z" />
    <glyph glyph-name="eth" unicode="&#xf0;" horiz-adv-x="600" 
d="M529 427q26 -34 41.5 -76.5t15.5 -94.5q0 -63 -21 -112t-59 -83t-90.5 -52.5t-115.5 -18.5t-115.5 18.5t-90.5 52.5t-59 83t-21 112q0 60 19.5 107.5t55 81.5t84.5 53.5t109 22.5l-64 81l-121 -31l-12 43l103 26l-86 110h177l56 -72l91 23l12 -44l-73 -18zM300 114
q58 0 93 39.5t35 102.5q0 62 -34.5 101t-93.5 39t-94 -39t-35 -101q0 -63 35 -102.5t94 -39.5z" />
    <glyph glyph-name="ntilde" unicode="&#xf1;" horiz-adv-x="628" 
d="M242 631q-15 0 -20.5 -18.5t-5.5 -42.5h-75q0 63 29 104.5t81 41.5q35 0 54 -14.5t32 -29.5q9 -11 18 -18t21 -7q15 0 19.5 18t4.5 44h76q0 -31 -7 -57.5t-20.5 -46t-34 -31t-47.5 -11.5q-36 0 -55 14.5t-31 28.5q-9 11 -17.5 18t-21.5 7zM378 521q99 0 147.5 -47
t48.5 -132v-342h-158v309q0 47 -26 67t-63 20q-20 0 -38.5 -5t-33.5 -17.5t-25.5 -32.5t-13.5 -50v-291h-158v511h149l6 -58q28 32 69.5 50t95.5 18z" />
    <glyph glyph-name="ograve" unicode="&#xf2;" horiz-adv-x="639" 
d="M253 571l-116 142h167l88 -142h-139zM320 -10q-63 0 -116 18.5t-90.5 52.5t-58.5 83t-21 112q0 62 21 111t58.5 83t90.5 52.5t116 18.5t115.5 -18.5t90 -52.5t58.5 -83t21 -111q0 -63 -21 -112t-58.5 -83t-90 -52.5t-115.5 -18.5zM320 115q58 0 92.5 39t34.5 102
q0 62 -34.5 101t-92.5 39q-59 0 -93.5 -39t-34.5 -101q0 -63 34.5 -102t93.5 -39z" />
    <glyph glyph-name="oacute" unicode="&#xf3;" horiz-adv-x="639" 
d="M251 571l87 142h168l-117 -142h-138zM320 -10q-63 0 -116 18.5t-90.5 52.5t-58.5 83t-21 112q0 62 21 111t58.5 83t90.5 52.5t116 18.5t115.5 -18.5t90 -52.5t58.5 -83t21 -111q0 -63 -21 -112t-58.5 -83t-90 -52.5t-115.5 -18.5zM320 115q58 0 92.5 39t34.5 102
q0 62 -34.5 101t-92.5 39q-59 0 -93.5 -39t-34.5 -101q0 -63 34.5 -102t93.5 -39z" />
    <glyph glyph-name="ocircumflex" unicode="&#xf4;" horiz-adv-x="639" 
d="M136 571l96 142h178l96 -142h-130l-55 69l-55 -69h-130zM320 -10q-63 0 -116 18.5t-90.5 52.5t-58.5 83t-21 112q0 62 21 111t58.5 83t90.5 52.5t116 18.5t115.5 -18.5t90 -52.5t58.5 -83t21 -111q0 -63 -21 -112t-58.5 -83t-90 -52.5t-115.5 -18.5zM320 115
q58 0 92.5 39t34.5 102q0 62 -34.5 101t-92.5 39q-59 0 -93.5 -39t-34.5 -101q0 -63 34.5 -102t93.5 -39z" />
    <glyph glyph-name="otilde" unicode="&#xf5;" horiz-adv-x="639" 
d="M379 563q-36 0 -55 14.5t-31 28.5q-9 11 -17.5 18t-21.5 7q-15 0 -20.5 -18.5t-5.5 -42.5h-75q0 63 29 104.5t81 41.5q35 0 54 -14.5t32 -29.5q9 -11 18 -18t21 -7q15 0 19.5 18t4.5 44h76q0 -31 -7 -57.5t-20.5 -46t-34 -31t-47.5 -11.5zM320 -10q-63 0 -116 18.5
t-90.5 52.5t-58.5 83t-21 112q0 62 21 111t58.5 83t90.5 52.5t116 18.5t115.5 -18.5t90 -52.5t58.5 -83t21 -111q0 -63 -21 -112t-58.5 -83t-90 -52.5t-115.5 -18.5zM320 115q58 0 92.5 39t34.5 102q0 62 -34.5 101t-92.5 39q-59 0 -93.5 -39t-34.5 -101q0 -63 34.5 -102
t93.5 -39z" />
    <glyph glyph-name="odieresis" unicode="&#xf6;" horiz-adv-x="639" 
d="M213 574q-37 0 -63 26t-26 63q0 36 26 62t63 26q36 0 62 -26t26 -62q0 -37 -26 -63t-62 -26zM431 574q-37 0 -63 26t-26 63q0 36 26 62t63 26q36 0 62 -26t26 -62q0 -37 -26 -63t-62 -26zM320 -10q-63 0 -116 18.5t-90.5 52.5t-58.5 83t-21 112q0 62 21 111t58.5 83
t90.5 52.5t116 18.5t115.5 -18.5t90 -52.5t58.5 -83t21 -111q0 -63 -21 -112t-58.5 -83t-90 -52.5t-115.5 -18.5zM320 115q58 0 92.5 39t34.5 102q0 62 -34.5 101t-92.5 39q-59 0 -93.5 -39t-34.5 -101q0 -63 34.5 -102t93.5 -39z" />
    <glyph glyph-name="divide" unicode="&#xf7;" horiz-adv-x="610" 
d="M300 367q-31 0 -54.5 22.5t-23.5 55.5q0 31 23.5 54.5t54.5 23.5q32 0 55.5 -23.5t23.5 -54.5q0 -33 -23.5 -55.5t-55.5 -22.5zM55 197v118h500v-118h-500zM300 -12q-31 0 -54.5 22.5t-23.5 56.5q0 31 23.5 54.5t54.5 23.5q32 0 55.5 -23.5t23.5 -54.5q0 -34 -23.5 -56.5
t-55.5 -22.5z" />
    <glyph glyph-name="oslash" unicode="&#xf8;" horiz-adv-x="639" 
d="M508 464q46 -34 71.5 -86.5t25.5 -121.5q0 -63 -21 -112t-58.5 -83t-90 -52.5t-115.5 -18.5q-68 0 -126 22l-40 -57l-60 35l39 55q-47 35 -73 88t-26 123q0 62 21 111t58.5 83t90.5 52.5t116 18.5q70 0 128 -23l39 56l59 -35zM192 256q0 -52 25 -90l153 221q-22 9 -50 9
q-59 0 -93.5 -39t-34.5 -101zM320 115q58 0 92.5 39t34.5 102q0 52 -24 86l-152 -218q23 -9 49 -9z" />
    <glyph glyph-name="ugrave" unicode="&#xf9;" horiz-adv-x="628" 
d="M382 571h-139l-116 142h167zM412 511h158v-511h-150l-6 59q-28 -33 -69.5 -51t-95.5 -18q-99 0 -148 46.5t-49 131.5v343h159v-310q0 -47 25.5 -66t63.5 -19q21 0 41 6t36 20t25.5 37.5t9.5 59.5v272z" />
    <glyph glyph-name="uacute" unicode="&#xfa;" horiz-adv-x="628" 
d="M496 713l-117 -142h-138l87 142h168zM412 511h158v-511h-150l-6 59q-28 -33 -69.5 -51t-95.5 -18q-99 0 -148 46.5t-49 131.5v343h159v-310q0 -47 25.5 -66t63.5 -19q21 0 41 6t36 20t25.5 37.5t9.5 59.5v272z" />
    <glyph glyph-name="ucircumflex" unicode="&#xfb;" horiz-adv-x="628" 
d="M311 640l-55 -69h-130l96 142h178l96 -142h-130zM412 511h158v-511h-150l-6 59q-28 -33 -69.5 -51t-95.5 -18q-99 0 -148 46.5t-49 131.5v343h159v-310q0 -47 25.5 -66t63.5 -19q21 0 41 6t36 20t25.5 37.5t9.5 59.5v272z" />
    <glyph glyph-name="udieresis" unicode="&#xfc;" horiz-adv-x="628" 
d="M202 574q-37 0 -63 26t-26 63q0 36 26 62t63 26q36 0 62 -26t26 -62q0 -37 -26 -63t-62 -26zM420 574q-37 0 -63 26t-26 63q0 36 26 62t63 26q36 0 62 -26t26 -62q0 -37 -26 -63t-62 -26zM412 511h158v-511h-150l-6 59q-28 -33 -69.5 -51t-95.5 -18q-99 0 -148 46.5
t-49 131.5v343h159v-310q0 -47 25.5 -66t63.5 -19q21 0 41 6t36 20t25.5 37.5t9.5 59.5v272z" />
    <glyph glyph-name="yacute" unicode="&#xfd;" horiz-adv-x="600" 
d="M490 713l-117 -142h-138l87 142h168zM417 511h172l-321 -754h-172l121 272l-207 482h172l117 -319z" />
    <glyph glyph-name="thorn" unicode="&#xfe;" horiz-adv-x="652" 
d="M367 521q51 0 96.5 -18t79.5 -52.5t53.5 -84t19.5 -112.5t-19.5 -112.5t-53.5 -84t-79.5 -52.5t-96.5 -18q-48 0 -88 16t-63 47v-293h-158v993h158v-292q23 31 63 47t88 16zM334 118q53 0 88.5 36t35.5 100t-35.5 100t-88.5 36q-54 0 -89.5 -36t-35.5 -100t35.5 -100
t89.5 -36z" />
    <glyph glyph-name="ydieresis" unicode="&#xff;" horiz-adv-x="600" 
d="M196 574q-37 0 -63 26t-26 63q0 36 26 62t63 26q36 0 62 -26t26 -62q0 -37 -26 -63t-62 -26zM414 574q-37 0 -63 26t-26 63q0 36 26 62t63 26q36 0 62 -26t26 -62q0 -37 -26 -63t-62 -26zM417 511h172l-321 -754h-172l121 272l-207 482h172l117 -319z" />
    <glyph glyph-name="Amacron" unicode="&#x100;" horiz-adv-x="742" 
d="M535 877v-99h-327v99h327zM561 0l-49 140h-283l-49 -140h-175l264 713h204l264 -713h-176zM278 277h186l-93 265z" />
    <glyph glyph-name="amacron" unicode="&#x101;" horiz-adv-x="579" 
d="M436 689v-99h-287v99h287zM522 91q0 -22 1.5 -41t9.5 -36v-14h-157l-6 61q-27 -38 -73 -54.5t-94 -16.5q-30 0 -60 7t-54.5 23.5t-39.5 43.5t-15 66q0 44 18 73t46.5 48t62.5 30t66 18l88 20q20 5 34.5 12.5t14.5 26.5q0 29 -24.5 40t-53.5 11q-39 0 -64.5 -17.5
t-33.5 -53.5l-151 23q17 83 84.5 121.5t166.5 38.5q115 0 174.5 -48t59.5 -141v-241zM250 98q21 0 43 9t40 26.5t29 44t11 61.5l-121 -34q-20 -5 -39.5 -17t-19.5 -41q0 -25 16 -37t41 -12z" />
    <glyph glyph-name="Abreve" unicode="&#x102;" horiz-adv-x="742" 
d="M371 744q-40 0 -73.5 6t-57.5 21.5t-37 42t-14 67.5h99q1 -32 20.5 -45.5t62.5 -13.5t62.5 13.5t21.5 45.5h99q-1 -41 -14.5 -67.5t-37.5 -42t-57 -21.5t-74 -6zM561 0l-49 140h-283l-49 -140h-175l264 713h204l264 -713h-176zM278 277h186l-93 265z" />
    <glyph glyph-name="abreve" unicode="&#x103;" horiz-adv-x="579" 
d="M293 561q-41 0 -74.5 8t-57.5 26t-37 47t-13 71h112q0 -33 17 -52t53 -19q38 0 55 19t17 52h112q0 -42 -13.5 -71t-37.5 -47t-58 -26t-75 -8zM522 91q0 -22 1.5 -41t9.5 -36v-14h-157l-6 61q-27 -38 -73 -54.5t-94 -16.5q-30 0 -60 7t-54.5 23.5t-39.5 43.5t-15 66
q0 44 18 73t46.5 48t62.5 30t66 18l88 20q20 5 34.5 12.5t14.5 26.5q0 29 -24.5 40t-53.5 11q-39 0 -64.5 -17.5t-33.5 -53.5l-151 23q17 83 84.5 121.5t166.5 38.5q115 0 174.5 -48t59.5 -141v-241zM250 98q21 0 43 9t40 26.5t29 44t11 61.5l-121 -34q-20 -5 -39.5 -17
t-19.5 -41q0 -25 16 -37t41 -12z" />
    <glyph glyph-name="Aogonek" unicode="&#x104;" horiz-adv-x="742" 
d="M662 -99q0 -11 9.5 -17.5t23.5 -6.5q23 0 42 16v-96q-17 -8 -37 -11.5t-41 -3.5q-39 0 -69 15.5t-30 52.5t32.5 74.5t79.5 75.5h-111l-49 140h-283l-49 -140h-175l264 713h204l264 -713q-34 -26 -54.5 -52.5t-20.5 -46.5zM278 277h186l-93 265z" />
    <glyph glyph-name="aogonek" unicode="&#x105;" horiz-adv-x="579" 
d="M459 -99q0 -11 9.5 -17.5t23.5 -6.5q23 0 42 16v-96q-17 -8 -37 -11.5t-41 -3.5q-39 0 -69 15.5t-30 52.5t32.5 74.5t79.5 75.5h-93l-6 61q-27 -38 -73 -54.5t-94 -16.5q-30 0 -60 7t-54.5 23.5t-39.5 43.5t-15 66q0 44 18 73t46.5 48t62.5 30t66 18l88 20
q20 5 34.5 12.5t14.5 26.5q0 29 -24.5 40t-53.5 11q-39 0 -64.5 -17.5t-33.5 -53.5l-151 23q17 83 84.5 121.5t166.5 38.5q115 0 174.5 -48t59.5 -141v-241q0 -22 1.5 -41t9.5 -36v-14h1q-34 -26 -54.5 -52.5t-20.5 -46.5zM250 98q21 0 43 9t40 26.5t29 44t11 61.5l-121 -34
q-20 -5 -39.5 -17t-19.5 -41q0 -25 16 -37t41 -12z" />
    <glyph glyph-name="Cacute" unicode="&#x106;" horiz-adv-x="769" 
d="M332 743l85 138h167l-114 -138h-138zM401 -14q-81 0 -148.5 27t-116 75.5t-76 117t-27.5 150.5q0 83 27.5 151t76 117t116 76t148.5 27q62 0 116 -16.5t98.5 -46.5t77.5 -72.5t51 -95.5l-155 -55q-20 63 -70 99t-118 36q-44 0 -81.5 -16t-64.5 -44.5t-42 -69t-15 -90.5
q0 -49 15 -89.5t42 -69.5t64.5 -44.5t81.5 -15.5q68 0 118 36t70 99l155 -55q-18 -53 -51 -95.5t-77.5 -72.5t-98.5 -46.5t-116 -16.5z" />
    <glyph glyph-name="cacute" unicode="&#x107;" horiz-adv-x="603" 
d="M236 571l87 142h168l-117 -142h-138zM314 -10q-62 0 -113.5 19.5t-88.5 54.5t-57.5 84t-20.5 108t20.5 107.5t57.5 83.5t88.5 54.5t113.5 19.5q103 0 171 -50.5t85 -144.5l-145 -14q-11 45 -39.5 65t-72.5 20q-57 0 -89 -39t-32 -102t32 -103t89 -40q44 0 72.5 21
t39.5 65l145 -14q-8 -47 -30.5 -83.5t-56 -61t-76.5 -37.5t-93 -13z" />
    <glyph glyph-name="Cdotaccent" unicode="&#x10a;" horiz-adv-x="769" 
d="M401 748q-37 0 -63 26t-26 63q0 36 26 62t63 26q36 0 62 -26t26 -62q0 -37 -26 -63t-62 -26zM401 -14q-81 0 -148.5 27t-116 75.5t-76 117t-27.5 150.5q0 83 27.5 151t76 117t116 76t148.5 27q62 0 116 -16.5t98.5 -46.5t77.5 -72.5t51 -95.5l-155 -55q-20 63 -70 99
t-118 36q-44 0 -81.5 -16t-64.5 -44.5t-42 -69t-15 -90.5q0 -49 15 -89.5t42 -69.5t64.5 -44.5t81.5 -15.5q68 0 118 36t70 99l155 -55q-18 -53 -51 -95.5t-77.5 -72.5t-98.5 -46.5t-116 -16.5z" />
    <glyph glyph-name="cdotaccent" unicode="&#x10b;" horiz-adv-x="603" 
d="M307 574q-37 0 -63 26t-26 63q0 36 26 62t63 26q36 0 62 -26t26 -62q0 -37 -26 -63t-62 -26zM314 -10q-62 0 -113.5 19.5t-88.5 54.5t-57.5 84t-20.5 108t20.5 107.5t57.5 83.5t88.5 54.5t113.5 19.5q103 0 171 -50.5t85 -144.5l-145 -14q-11 45 -39.5 65t-72.5 20
q-57 0 -89 -39t-32 -102t32 -103t89 -40q44 0 72.5 21t39.5 65l145 -14q-8 -47 -30.5 -83.5t-56 -61t-76.5 -37.5t-93 -13z" />
    <glyph glyph-name="Ccaron" unicode="&#x10c;" horiz-adv-x="769" 
d="M311 745l-96 136h130l56 -65l55 65h130l-96 -136h-179zM401 -14q-81 0 -148.5 27t-116 75.5t-76 117t-27.5 150.5q0 83 27.5 151t76 117t116 76t148.5 27q62 0 116 -16.5t98.5 -46.5t77.5 -72.5t51 -95.5l-155 -55q-20 63 -70 99t-118 36q-44 0 -81.5 -16t-64.5 -44.5
t-42 -69t-15 -90.5q0 -49 15 -89.5t42 -69.5t64.5 -44.5t81.5 -15.5q68 0 118 36t70 99l155 -55q-18 -53 -51 -95.5t-77.5 -72.5t-98.5 -46.5t-116 -16.5z" />
    <glyph glyph-name="ccaron" unicode="&#x10d;" horiz-adv-x="603" 
d="M218 571l-96 142h130l55 -70l55 70h130l-96 -142h-178zM314 -10q-62 0 -113.5 19.5t-88.5 54.5t-57.5 84t-20.5 108t20.5 107.5t57.5 83.5t88.5 54.5t113.5 19.5q103 0 171 -50.5t85 -144.5l-145 -14q-11 45 -39.5 65t-72.5 20q-57 0 -89 -39t-32 -102t32 -103t89 -40
q44 0 72.5 21t39.5 65l145 -14q-8 -47 -30.5 -83.5t-56 -61t-76.5 -37.5t-93 -13z" />
    <glyph glyph-name="Dcaron" unicode="&#x10e;" horiz-adv-x="711" 
d="M205 745l-96 136h130l56 -65l55 65h130l-96 -136h-179zM64 0v713h226q90 0 151.5 -16.5t106.5 -48.5q64 -46 95.5 -120.5t31.5 -171.5t-31.5 -171t-95.5 -120q-45 -32 -106.5 -48.5t-151.5 -16.5h-226zM229 144h60q46 0 81.5 10t61.5 28q39 26 58.5 70.5t19.5 103.5
q0 60 -19.5 104.5t-58.5 70.5q-54 37 -143 37h-60v-424z" />
    <glyph glyph-name="dcaron" unicode="&#x10f;" horiz-adv-x="812" 
d="M435 750h158v-750h-149l-4 58q-21 -34 -63 -51t-93 -17t-96.5 17.5t-79.5 51.5t-53.5 83t-19.5 112t19.5 112.5t53.5 84t79.5 52.5t96.5 18q48 0 88 -16t63 -47v292zM716 713h161l-110 -326h-113zM318 120q53 0 88.5 35t35.5 99t-35.5 100t-88.5 36q-54 0 -89.5 -36
t-35.5 -100t35.5 -99t89.5 -35z" />
    <glyph glyph-name="Dcroat" unicode="&#x110;" horiz-adv-x="711" 
d="M548 648q64 -46 95.5 -120.5t31.5 -171.5t-31.5 -171t-95.5 -120q-45 -32 -106.5 -48.5t-151.5 -16.5h-226v309h-74v95h74v309h226q90 0 151.5 -16.5t106.5 -48.5zM432 182q39 26 58.5 70.5t19.5 103.5q0 60 -19.5 104.5t-58.5 70.5q-54 37 -143 37h-60v-164h113v-95
h-113v-165h60q46 0 81.5 10t61.5 28z" />
    <glyph glyph-name="dcroat" unicode="&#x111;" horiz-adv-x="652" 
d="M657 677v-95h-64v-582h-149l-6 55q-22 -32 -63 -48.5t-91 -16.5q-51 0 -96.5 17.5t-79.5 51.5t-53.5 83t-19.5 112t19.5 112.5t53.5 84t79.5 52.5t96.5 18q48 0 88 -16t63 -47v124h-130v95h130v73h158v-73h64zM318 120q53 0 88.5 35t35.5 99t-35.5 100t-88.5 36
q-54 0 -89.5 -36t-35.5 -100t35.5 -99t89.5 -35z" />
    <glyph glyph-name="Emacron" unicode="&#x112;" horiz-adv-x="533" 
d="M445 877v-99h-327v99h327zM488 568h-259v-140h231v-143h-231v-141h259v-144h-424v713h424v-145z" />
    <glyph glyph-name="emacron" unicode="&#x113;" horiz-adv-x="604" 
d="M456 690v-99h-287v99h287zM566 224h-376q5 -55 39.5 -83t82.5 -28q37 0 63 15.5t39 47.5l146 -20q-25 -80 -90.5 -123t-156.5 -43q-64 0 -116 18t-88.5 52t-56 83.5t-19.5 111.5q0 63 20 112t56.5 83.5t87 52.5t111.5 18q56 0 103 -15.5t82 -47.5t55 -81t20 -117z
M309 404q-47 0 -76 -20t-39 -64h218q-7 41 -35 62.5t-68 21.5z" />
    <glyph glyph-name="Ebreve" unicode="&#x114;" horiz-adv-x="533" 
d="M281 744q-40 0 -73.5 6t-57.5 21.5t-37 42t-14 67.5h99q1 -32 20.5 -45.5t62.5 -13.5t62.5 13.5t21.5 45.5h99q-1 -41 -14.5 -67.5t-37.5 -42t-57 -21.5t-74 -6zM488 568h-259v-140h231v-143h-231v-141h259v-144h-424v713h424v-145z" />
    <glyph glyph-name="ebreve" unicode="&#x115;" horiz-adv-x="604" 
d="M312 562q-41 0 -74.5 8t-57.5 26t-37 47t-13 71h112q0 -33 17 -52t53 -19q38 0 55 19t17 52h112q0 -42 -13.5 -71t-37.5 -47t-58 -26t-75 -8zM566 224h-376q5 -55 39.5 -83t82.5 -28q37 0 63 15.5t39 47.5l146 -20q-25 -80 -90.5 -123t-156.5 -43q-64 0 -116 18t-88.5 52
t-56 83.5t-19.5 111.5q0 63 20 112t56.5 83.5t87 52.5t111.5 18q56 0 103 -15.5t82 -47.5t55 -81t20 -117zM309 404q-47 0 -76 -20t-39 -64h218q-7 41 -35 62.5t-68 21.5z" />
    <glyph glyph-name="Edotaccent" unicode="&#x116;" horiz-adv-x="533" 
d="M282 748q-37 0 -63 26t-26 63q0 36 26 62t63 26q36 0 62 -26t26 -62q0 -37 -26 -63t-62 -26zM488 568h-259v-140h231v-143h-231v-141h259v-144h-424v713h424v-145z" />
    <glyph glyph-name="edotaccent" unicode="&#x117;" horiz-adv-x="604" 
d="M313 575q-37 0 -63 26t-26 63q0 36 26 62t63 26q36 0 62 -26t26 -62q0 -37 -26 -63t-62 -26zM566 224h-376q5 -55 39.5 -83t82.5 -28q37 0 63 15.5t39 47.5l146 -20q-25 -80 -90.5 -123t-156.5 -43q-64 0 -116 18t-88.5 52t-56 83.5t-19.5 111.5q0 63 20 112t56.5 83.5
t87 52.5t111.5 18q56 0 103 -15.5t82 -47.5t55 -81t20 -117zM309 404q-47 0 -76 -20t-39 -64h218q-7 41 -35 62.5t-68 21.5z" />
    <glyph glyph-name="Eogonek" unicode="&#x118;" horiz-adv-x="533" 
d="M488 568h-259v-140h231v-143h-231v-141h259v-144q-34 -26 -54.5 -52.5t-20.5 -46.5q0 -11 9.5 -17.5t23.5 -6.5q23 0 42 16v-96q-17 -8 -37 -11.5t-41 -3.5q-39 0 -69 15.5t-30 52.5t32.5 74.5t79.5 75.5h-359v713h424v-145z" />
    <glyph glyph-name="eogonek" unicode="&#x119;" horiz-adv-x="604" 
d="M566 224h-376q5 -55 39.5 -83t82.5 -28q37 0 63 15.5t39 47.5l146 -20q-19 -62 -63 -101.5t-106 -55.5q-33 -26 -53.5 -52t-20.5 -46q0 -11 9.5 -17.5t23.5 -6.5q23 0 42 16v-96q-17 -8 -37 -11.5t-41 -3.5q-39 0 -69 15.5t-30 52.5q0 35 29 70t71 70h-2q-64 0 -116 18
t-88.5 52t-56 83.5t-19.5 111.5q0 63 20 112t56.5 83.5t87 52.5t111.5 18q56 0 103 -15.5t82 -47.5t55 -81t20 -117zM309 404q-47 0 -76 -20t-39 -64h218q-7 41 -35 62.5t-68 21.5z" />
    <glyph glyph-name="Ecaron" unicode="&#x11a;" horiz-adv-x="533" 
d="M371 745h-179l-96 136h130l56 -65l55 65h130zM488 568h-259v-140h231v-143h-231v-141h259v-144h-424v713h424v-145z" />
    <glyph glyph-name="ecaron" unicode="&#x11b;" horiz-adv-x="604" 
d="M401 572h-178l-96 142h130l55 -70l55 70h130zM566 224h-376q5 -55 39.5 -83t82.5 -28q37 0 63 15.5t39 47.5l146 -20q-25 -80 -90.5 -123t-156.5 -43q-64 0 -116 18t-88.5 52t-56 83.5t-19.5 111.5q0 63 20 112t56.5 83.5t87 52.5t111.5 18q56 0 103 -15.5t82 -47.5
t55 -81t20 -117zM309 404q-47 0 -76 -20t-39 -64h218q-7 41 -35 62.5t-68 21.5z" />
    <glyph glyph-name="Gcircumflex" unicode="&#x11c;" horiz-adv-x="791" 
d="M214 745l96 136h179l96 -136h-130l-55 65l-56 -65h-130zM391 -14q-78 0 -144 27t-113.5 75.5t-74 117t-26.5 150.5q0 83 27.5 151t76 117t116 76t148.5 27q106 0 188.5 -46t128.5 -127l-144 -78q-26 48 -71 74t-102 26q-44 0 -81.5 -16t-64.5 -44.5t-42 -69t-15 -90.5
q0 -49 14 -89t40.5 -69t64 -45t84.5 -16q60 0 111 30.5t71 96.5h-175v132h336v-396h-128v92q-34 -47 -89 -76.5t-136 -29.5z" />
    <glyph glyph-name="gcircumflex" unicode="&#x11d;" horiz-adv-x="633" 
d="M324 640l-55 -69h-130l96 142h178l96 -142h-130zM426 511h150v-495q0 -72 -19 -122.5t-54 -82.5t-85.5 -46.5t-112.5 -14.5q-114 0 -177.5 44t-89.5 116l131 53q22 -47 52 -69.5t78 -22.5q65 0 91.5 36.5t26.5 96.5v74q-22 -27 -61.5 -44.5t-88.5 -17.5q-48 0 -90 18
t-74 51t-50.5 80t-18.5 105t18.5 104.5t50.5 79t75 50t91 17.5q52 0 91.5 -19t59.5 -50zM306 143q53 0 87 36t34 91t-33.5 90.5t-87.5 35.5q-52 0 -86 -35.5t-34 -90.5q0 -27 9 -50.5t25.5 -40.5t38.5 -26.5t47 -9.5z" />
    <glyph glyph-name="Gbreve" unicode="&#x11e;" horiz-adv-x="791" 
d="M399 744q-40 0 -73.5 6t-57.5 21.5t-37 42t-14 67.5h99q1 -32 20.5 -45.5t62.5 -13.5t62.5 13.5t21.5 45.5h99q-1 -41 -14.5 -67.5t-37.5 -42t-57 -21.5t-74 -6zM391 -14q-78 0 -144 27t-113.5 75.5t-74 117t-26.5 150.5q0 83 27.5 151t76 117t116 76t148.5 27
q106 0 188.5 -46t128.5 -127l-144 -78q-26 48 -71 74t-102 26q-44 0 -81.5 -16t-64.5 -44.5t-42 -69t-15 -90.5q0 -49 14 -89t40.5 -69t64 -45t84.5 -16q60 0 111 30.5t71 96.5h-175v132h336v-396h-128v92q-34 -47 -89 -76.5t-136 -29.5z" />
    <glyph glyph-name="gbreve" unicode="&#x11f;" horiz-adv-x="633" 
d="M324 561q-41 0 -74.5 8t-57.5 26t-37 47t-13 71h112q0 -33 17 -52t53 -19q38 0 55 19t17 52h112q0 -42 -13.5 -71t-37.5 -47t-58 -26t-75 -8zM426 511h150v-495q0 -72 -19 -122.5t-54 -82.5t-85.5 -46.5t-112.5 -14.5q-114 0 -177.5 44t-89.5 116l131 53q22 -47 52 -69.5
t78 -22.5q65 0 91.5 36.5t26.5 96.5v74q-22 -27 -61.5 -44.5t-88.5 -17.5q-48 0 -90 18t-74 51t-50.5 80t-18.5 105t18.5 104.5t50.5 79t75 50t91 17.5q52 0 91.5 -19t59.5 -50zM306 143q53 0 87 36t34 91t-33.5 90.5t-87.5 35.5q-52 0 -86 -35.5t-34 -90.5q0 -27 9 -50.5
t25.5 -40.5t38.5 -26.5t47 -9.5z" />
    <glyph glyph-name="Gdotaccent" unicode="&#x120;" horiz-adv-x="791" 
d="M401 748q-37 0 -63 26t-26 63q0 36 26 62t63 26q36 0 62 -26t26 -62q0 -37 -26 -63t-62 -26zM391 -14q-78 0 -144 27t-113.5 75.5t-74 117t-26.5 150.5q0 83 27.5 151t76 117t116 76t148.5 27q106 0 188.5 -46t128.5 -127l-144 -78q-26 48 -71 74t-102 26
q-44 0 -81.5 -16t-64.5 -44.5t-42 -69t-15 -90.5q0 -49 14 -89t40.5 -69t64 -45t84.5 -16q60 0 111 30.5t71 96.5h-175v132h336v-396h-128v92q-34 -47 -89 -76.5t-136 -29.5z" />
    <glyph glyph-name="gdotaccent" unicode="&#x121;" horiz-adv-x="633" 
d="M325 574q-37 0 -63 26t-26 63q0 36 26 62t63 26q36 0 62 -26t26 -62q0 -37 -26 -63t-62 -26zM426 511h150v-495q0 -72 -19 -122.5t-54 -82.5t-85.5 -46.5t-112.5 -14.5q-114 0 -177.5 44t-89.5 116l131 53q22 -47 52 -69.5t78 -22.5q65 0 91.5 36.5t26.5 96.5v74
q-22 -27 -61.5 -44.5t-88.5 -17.5q-48 0 -90 18t-74 51t-50.5 80t-18.5 105t18.5 104.5t50.5 79t75 50t91 17.5q52 0 91.5 -19t59.5 -50zM306 143q53 0 87 36t34 91t-33.5 90.5t-87.5 35.5q-52 0 -86 -35.5t-34 -90.5q0 -27 9 -50.5t25.5 -40.5t38.5 -26.5t47 -9.5z" />
    <glyph glyph-name="uni0122" unicode="&#x122;" horiz-adv-x="791" 
d="M391 -14q-78 0 -144 27t-113.5 75.5t-74 117t-26.5 150.5q0 83 27.5 151t76 117t116 76t148.5 27q106 0 188.5 -46t128.5 -127l-144 -78q-26 48 -71 74t-102 26q-44 0 -81.5 -16t-64.5 -44.5t-42 -69t-15 -90.5q0 -49 14 -89t40.5 -69t64 -45t84.5 -16q60 0 111 30.5
t71 96.5h-175v132h336v-396h-128v92q-34 -47 -89 -76.5t-136 -29.5zM236 -172l96 142h132l-116 -142h-112z" />
    <glyph glyph-name="uni0123" unicode="&#x123;" horiz-adv-x="633" 
d="M486 713l-96 -142h-132l116 142h112zM426 511h150v-495q0 -72 -19 -122.5t-54 -82.5t-85.5 -46.5t-112.5 -14.5q-114 0 -177.5 44t-89.5 116l131 53q22 -47 52 -69.5t78 -22.5q65 0 91.5 36.5t26.5 96.5v74q-22 -27 -61.5 -44.5t-88.5 -17.5q-48 0 -90 18t-74 51
t-50.5 80t-18.5 105t18.5 104.5t50.5 79t75 50t91 17.5q52 0 91.5 -19t59.5 -50zM306 143q53 0 87 36t34 91t-33.5 90.5t-87.5 35.5q-52 0 -86 -35.5t-34 -90.5q0 -27 9 -50.5t25.5 -40.5t38.5 -26.5t47 -9.5z" />
    <glyph glyph-name="Hcircumflex" unicode="&#x124;" horiz-adv-x="745" 
d="M187 745l96 136h179l96 -136h-130l-55 65l-56 -65h-130zM64 0v713h165v-284h287v284h165v-713h-165v286h-287v-286h-165z" />
    <glyph glyph-name="hcircumflex" unicode="&#x125;" horiz-adv-x="628" 
d="M315 847l-56 -65h-130l96 136h179l96 -136h-130zM387 521q92 0 140 -49t48 -147v-325h-158v300q0 54 -26 75t-65 21q-19 0 -38.5 -5.5t-35 -19.5t-26 -38t-10.5 -61v-272h-158v750h158v-300q29 33 71.5 52t99.5 19z" />
    <glyph glyph-name="Hbar" unicode="&#x126;" horiz-adv-x="745" 
d="M743 593v-60h-62v-533h-165v286h-287v-286h-165v533h-61v60h61v120h165v-120h287v120h165v-120h62zM516 429v104h-287v-104h287z" />
    <glyph glyph-name="hbar" unicode="&#x127;" horiz-adv-x="628" 
d="M387 521q92 0 140 -49t48 -147v-325h-158v300q0 54 -26 75t-65 21q-19 0 -38.5 -5.5t-35 -19.5t-26 -38t-10.5 -61v-272h-158v582h-58v95h58v73h158v-73h136v-95h-136v-132q29 33 71.5 52t99.5 19z" />
    <glyph glyph-name="Itilde" unicode="&#x128;" horiz-adv-x="293" 
d="M203 743q-36 0 -55 14t-31 29q-9 10 -17.5 17.5t-21.5 7.5q-15 0 -20.5 -18.5t-5.5 -43.5h-75q0 64 29 105t81 41q35 0 54 -14t32 -29q9 -11 18 -18t21 -7q15 0 19.5 18t4.5 44h76q0 -31 -7 -57.5t-20.5 -46t-34 -31t-47.5 -11.5zM64 0v713h165v-713h-165z" />
    <glyph glyph-name="itilde" unicode="&#x129;" horiz-adv-x="272" 
d="M194 563q-36 0 -55 14.5t-31 28.5q-9 11 -17.5 18t-21.5 7q-15 0 -20.5 -18.5t-5.5 -42.5h-75q0 63 29 104.5t81 41.5q35 0 54 -14.5t32 -29.5q9 -11 18 -18t21 -7q15 0 19.5 18t4.5 44h76q0 -31 -7 -57.5t-20.5 -46t-34 -31t-47.5 -11.5zM57 0v511h158v-511h-158z" />
    <glyph glyph-name="Imacron" unicode="&#x12a;" horiz-adv-x="293" 
d="M-18 778v99h327v-99h-327zM64 0v713h165v-713h-165z" />
    <glyph glyph-name="imacron" unicode="&#x12b;" horiz-adv-x="272" 
d="M-8 590v99h287v-99h-287zM57 0v511h158v-511h-158z" />
    <glyph glyph-name="Ibreve" unicode="&#x12c;" horiz-adv-x="293" 
d="M145 744q-40 0 -73.5 6t-57.5 21.5t-37.5 42t-13.5 67.5h99q1 -32 20.5 -45.5t62.5 -13.5t62.5 13.5t21.5 45.5h99q-1 -41 -14.5 -67.5t-37.5 -42t-57 -21.5t-74 -6zM64 0v713h165v-713h-165z" />
    <glyph glyph-name="ibreve" unicode="&#x12d;" horiz-adv-x="272" 
d="M135 561q-41 0 -74.5 8t-57.5 26t-37 47t-13 71h112q0 -33 17 -52t53 -19q38 0 55 19t17 52h112q0 -42 -13.5 -71t-37.5 -47t-58 -26t-75 -8zM57 0v511h158v-511h-158z" />
    <glyph glyph-name="Iogonek" unicode="&#x12e;" horiz-adv-x="293" 
d="M229 0q-34 -26 -54.5 -52.5t-20.5 -46.5q0 -11 9.5 -17.5t23.5 -6.5q23 0 42 16v-96q-17 -8 -37 -11.5t-41 -3.5q-39 0 -69 15.5t-30 52.5t32.5 74.5t79.5 75.5h-100v713h165v-713z" />
    <glyph glyph-name="iogonek" unicode="&#x12f;" horiz-adv-x="272" 
d="M136 574q-37 0 -63 26t-26 63q0 36 26 62t63 26q36 0 62 -26t26 -62q0 -37 -26 -63t-62 -26zM57 0v511h158v-511q-34 -26 -54.5 -52.5t-20.5 -46.5q0 -11 9.5 -17.5t23.5 -6.5q23 0 42 16v-96q-17 -8 -37 -11.5t-41 -3.5q-39 0 -69 15.5t-30 52.5t32.5 74.5t79.5 75.5
h-93z" />
    <glyph glyph-name="Idotaccent" unicode="&#x130;" horiz-adv-x="293" 
d="M146 748q-37 0 -63 26t-26 63q0 36 26 62t63 26q36 0 62 -26t26 -62q0 -37 -26 -63t-62 -26zM64 0v713h165v-713h-165z" />
    <glyph glyph-name="dotlessi" unicode="&#x131;" horiz-adv-x="272" 
d="M57 0v511h158v-511h-158z" />
    <glyph glyph-name="IJ" unicode="&#x132;" horiz-adv-x="772" 
d="M64 0v713h165v-713h-165zM496 -14q-49 0 -97 12t-102 44l69 135q27 -19 52.5 -29t55.5 -10q38 0 56 23.5t18 83.5v468h165v-499q0 -55 -16 -98t-44.5 -71.5t-68.5 -43.5t-88 -15z" />
    <glyph glyph-name="ij" unicode="&#x133;" horiz-adv-x="542" 
d="M136 574q-37 0 -63 26t-26 63q0 36 26 62t63 26q36 0 62 -26t26 -62q0 -37 -26 -63t-62 -26zM405 574q-37 0 -63 26t-26 63q0 36 26 62t63 26q36 0 62 -26t26 -62q0 -37 -26 -63t-62 -26zM57 0v511h158v-511h-158zM220 -122q33 0 53.5 8t32 25t15.5 43t4 63v494h159v-494
q0 -130 -60.5 -195t-203.5 -65v121z" />
    <glyph glyph-name="Jcircumflex" unicode="&#x134;" horiz-adv-x="479" 
d="M152 745l96 136h179l96 -136h-130l-55 65l-56 -65h-130zM203 -14q-49 0 -97 12t-102 44l69 135q27 -19 52.5 -29t55.5 -10q38 0 56 23.5t18 83.5v468h165v-499q0 -55 -16 -98t-44.5 -71.5t-68.5 -43.5t-88 -15z" />
    <glyph glyph-name="jcircumflex" unicode="&#x135;" horiz-adv-x="270" 
d="M-52 571l96 142h178l96 -142h-130l-55 69l-55 -69h-130zM-52 -122q33 0 53.5 8t32 25t15.5 43t4 63v494h159v-494q0 -130 -60.5 -195t-203.5 -65v121z" />
    <glyph glyph-name="uni0136" unicode="&#x136;" horiz-adv-x="711" 
d="M420 372l285 -372h-207l-219 296h-50v-296h-165v713h165v-275h49l220 275h201zM180 -172l96 142h132l-116 -142h-112z" />
    <glyph glyph-name="uni0137" unicode="&#x137;" horiz-adv-x="602" 
d="M372 271l220 -271h-190l-161 207h-25v-207h-158v750h158v-435h22l162 196h177zM127 -172l96 142h132l-116 -142h-112z" />
    <glyph glyph-name="kgreenlandic" unicode="&#x138;" horiz-adv-x="602" 
d="M372 271l220 -271h-190l-161 207h-25v-207h-158v511h158v-196h23l162 196h177z" />
    <glyph glyph-name="Lacute" unicode="&#x139;" horiz-adv-x="457" 
d="M77 743l85 138h167l-114 -138h-138zM64 0v713h165v-569h219v-144h-384z" />
    <glyph glyph-name="lacute" unicode="&#x13a;" horiz-adv-x="273" 
d="M67 811l87 142h168l-117 -142h-138zM58 0v750h158v-750h-158z" />
    <glyph glyph-name="uni013B" unicode="&#x13b;" horiz-adv-x="457" 
d="M64 0v713h165v-569h219v-144h-384zM90 -172l96 142h132l-116 -142h-112z" />
    <glyph glyph-name="uni013C" unicode="&#x13c;" horiz-adv-x="273" 
d="M58 0v750h158v-750h-158zM-26 -172l96 142h132l-116 -142h-112z" />
    <glyph glyph-name="Lcaron" unicode="&#x13d;" horiz-adv-x="446" 
d="M64 0v713h165v-569h219v-144h-384zM301 387l62 326h161l-110 -326h-113z" />
    <glyph glyph-name="lcaron" unicode="&#x13e;" horiz-adv-x="435" 
d="M58 0v750h158v-750h-158zM277 387l61 326h162l-110 -326h-113z" />
    <glyph glyph-name="Ldot" unicode="&#x13f;" horiz-adv-x="529" 
d="M64 0v713h165v-569h219v-144h-384zM428 266q-36 0 -63 26t-27 64q0 18 7.5 34.5t19.5 29t28.5 20t34.5 7.5t34 -7.5t29 -20t20.5 -29t7.5 -34.5q0 -19 -7.5 -35.5t-20.5 -28.5t-29 -19t-34 -7z" />
    <glyph glyph-name="ldot" unicode="&#x140;" horiz-adv-x="453" 
d="M58 0v750h158v-750h-158zM376 285q-36 0 -63 26t-27 64q0 18 7.5 34.5t19.5 28.5t28.5 19.5t34.5 7.5t34 -7.5t28.5 -19.5t20 -28.5t7.5 -34.5q0 -19 -7.5 -35.5t-20 -28.5t-28.5 -19t-34 -7z" />
    <glyph glyph-name="Lslash" unicode="&#x141;" horiz-adv-x="457" 
d="M229 144h219v-144h-384v201l-62 -46v131l62 46v381h165v-259l100 74v-132l-100 -74v-178z" />
    <glyph glyph-name="lslash" unicode="&#x142;" horiz-adv-x="273" 
d="M299 527v-132l-83 -61v-334h-158v217l-86 -63v131l86 64v401h158v-284z" />
    <glyph glyph-name="Nacute" unicode="&#x143;" horiz-adv-x="785" 
d="M577 881l-114 -138h-138l85 138h167zM556 713h165v-713h-198l-294 480v-480h-165v713h195l297 -479v479z" />
    <glyph glyph-name="nacute" unicode="&#x144;" horiz-adv-x="628" 
d="M494 713l-117 -142h-138l87 142h168zM378 521q99 0 147.5 -47t48.5 -132v-342h-158v309q0 47 -26 67t-63 20q-20 0 -38.5 -5t-33.5 -17.5t-25.5 -32.5t-13.5 -50v-291h-158v511h149l6 -58q28 32 69.5 50t95.5 18z" />
    <glyph glyph-name="uni0145" unicode="&#x145;" horiz-adv-x="785" 
d="M556 713h165v-713h-198l-294 480v-480h-165v713h195l297 -479v479zM232 -172l96 142h132l-116 -142h-112z" />
    <glyph glyph-name="uni0146" unicode="&#x146;" horiz-adv-x="628" 
d="M378 521q99 0 147.5 -47t48.5 -132v-342h-158v309q0 47 -26 67t-63 20q-20 0 -38.5 -5t-33.5 -17.5t-25.5 -32.5t-13.5 -50v-291h-158v511h149l6 -58q28 32 69.5 50t95.5 18zM147 -172l96 142h132l-116 -142h-112z" />
    <glyph glyph-name="Ncaron" unicode="&#x147;" horiz-adv-x="785" 
d="M483 745h-179l-96 136h130l56 -65l55 65h130zM556 713h165v-713h-198l-294 480v-480h-165v713h195l297 -479v479z" />
    <glyph glyph-name="ncaron" unicode="&#x148;" horiz-adv-x="628" 
d="M398 571h-178l-96 142h130l55 -70l55 70h130zM378 521q99 0 147.5 -47t48.5 -132v-342h-158v309q0 47 -26 67t-63 20q-20 0 -38.5 -5t-33.5 -17.5t-25.5 -32.5t-13.5 -50v-291h-158v511h149l6 -58q28 32 69.5 50t95.5 18z" />
    <glyph glyph-name="napostrophe" unicode="&#x149;" horiz-adv-x="819" 
d="M109 713h162l-110 -326h-113zM570 521q99 0 147.5 -47t48.5 -132v-342h-158v309q0 47 -26 67t-63 20q-20 0 -39 -5t-34 -17.5t-25 -32.5t-13 -50v-291h-159v511h150l6 -58q28 32 69.5 50t95.5 18z" />
    <glyph glyph-name="Eng" unicode="&#x14a;" horiz-adv-x="785" 
d="M556 713h165v-718q0 -110 -66 -169t-181 -59v121q29 0 47 15.5t18 49.5q0 21 -16 47l-294 481v-481h-165v713h195l297 -477v477z" />
    <glyph glyph-name="eng" unicode="&#x14b;" horiz-adv-x="628" 
d="M378 521q99 0 147.5 -47t48.5 -132v-325q0 -130 -60.5 -195t-202.5 -65v121q33 0 53.5 8t32 25t15.5 43t4 63v292q0 47 -26 67t-63 20q-20 0 -38.5 -5t-33.5 -17.5t-25.5 -32.5t-13.5 -50v-291h-158v511h149l6 -58q28 32 69.5 50t95.5 18z" />
    <glyph glyph-name="Omacron" unicode="&#x14c;" horiz-adv-x="801" 
d="M237 778v99h327v-99h-327zM401 -14q-81 0 -148.5 27t-116 75.5t-76 117t-27.5 150.5q0 83 27.5 151t76 117t116 76t148.5 27q80 0 147.5 -27t116.5 -76t76 -117t27 -151q0 -82 -27 -150.5t-76 -117t-116.5 -75.5t-147.5 -27zM401 137q44 0 81 15.5t64 44.5t42 69.5
t15 89.5q0 50 -15 90.5t-42 69t-64 44.5t-81 16t-81.5 -16t-64.5 -44.5t-42 -69t-15 -90.5q0 -49 15 -89.5t42 -69.5t64.5 -44.5t81.5 -15.5z" />
    <glyph glyph-name="omacron" unicode="&#x14d;" horiz-adv-x="639" 
d="M178 590v99h287v-99h-287zM320 -10q-63 0 -116 18.5t-90.5 52.5t-58.5 83t-21 112q0 62 21 111t58.5 83t90.5 52.5t116 18.5t115.5 -18.5t90 -52.5t58.5 -83t21 -111q0 -63 -21 -112t-58.5 -83t-90 -52.5t-115.5 -18.5zM320 115q58 0 92.5 39t34.5 102q0 62 -34.5 101
t-92.5 39q-59 0 -93.5 -39t-34.5 -101q0 -63 34.5 -102t93.5 -39z" />
    <glyph glyph-name="Obreve" unicode="&#x14e;" horiz-adv-x="801" 
d="M400 744q-40 0 -73.5 6t-57.5 21.5t-37 42t-14 67.5h99q1 -32 20.5 -45.5t62.5 -13.5t62.5 13.5t21.5 45.5h99q-1 -41 -14.5 -67.5t-37.5 -42t-57 -21.5t-74 -6zM401 -14q-81 0 -148.5 27t-116 75.5t-76 117t-27.5 150.5q0 83 27.5 151t76 117t116 76t148.5 27
q80 0 147.5 -27t116.5 -76t76 -117t27 -151q0 -82 -27 -150.5t-76 -117t-116.5 -75.5t-147.5 -27zM401 137q44 0 81 15.5t64 44.5t42 69.5t15 89.5q0 50 -15 90.5t-42 69t-64 44.5t-81 16t-81.5 -16t-64.5 -44.5t-42 -69t-15 -90.5q0 -49 15 -89.5t42 -69.5t64.5 -44.5
t81.5 -15.5z" />
    <glyph glyph-name="obreve" unicode="&#x14f;" horiz-adv-x="639" 
d="M321 561q-41 0 -74.5 8t-57.5 26t-37 47t-13 71h112q0 -33 17 -52t53 -19q38 0 55 19t17 52h112q0 -42 -13.5 -71t-37.5 -47t-58 -26t-75 -8zM320 -10q-63 0 -116 18.5t-90.5 52.5t-58.5 83t-21 112q0 62 21 111t58.5 83t90.5 52.5t116 18.5t115.5 -18.5t90 -52.5
t58.5 -83t21 -111q0 -63 -21 -112t-58.5 -83t-90 -52.5t-115.5 -18.5zM320 115q58 0 92.5 39t34.5 102q0 62 -34.5 101t-92.5 39q-59 0 -93.5 -39t-34.5 -101q0 -63 34.5 -102t93.5 -39z" />
    <glyph glyph-name="Ohungarumlaut" unicode="&#x150;" horiz-adv-x="801" 
d="M228 743l93 138h159l-114 -138h-138zM435 743l94 138h158l-114 -138h-138zM401 -14q-81 0 -148.5 27t-116 75.5t-76 117t-27.5 150.5q0 83 27.5 151t76 117t116 76t148.5 27q80 0 147.5 -27t116.5 -76t76 -117t27 -151q0 -82 -27 -150.5t-76 -117t-116.5 -75.5
t-147.5 -27zM401 137q44 0 81 15.5t64 44.5t42 69.5t15 89.5q0 50 -15 90.5t-42 69t-64 44.5t-81 16t-81.5 -16t-64.5 -44.5t-42 -69t-15 -90.5q0 -49 15 -89.5t42 -69.5t64.5 -44.5t81.5 -15.5z" />
    <glyph glyph-name="ohungarumlaut" unicode="&#x151;" horiz-adv-x="639" 
d="M149 571l96 142h159l-117 -142h-138zM356 571l96 142h159l-117 -142h-138zM320 -10q-63 0 -116 18.5t-90.5 52.5t-58.5 83t-21 112q0 62 21 111t58.5 83t90.5 52.5t116 18.5t115.5 -18.5t90 -52.5t58.5 -83t21 -111q0 -63 -21 -112t-58.5 -83t-90 -52.5t-115.5 -18.5z
M320 115q58 0 92.5 39t34.5 102q0 62 -34.5 101t-92.5 39q-59 0 -93.5 -39t-34.5 -101q0 -63 34.5 -102t93.5 -39z" />
    <glyph glyph-name="OE" unicode="&#x152;" horiz-adv-x="948" 
d="M418 0q-90 0 -151.5 16.5t-106.5 48.5q-63 46 -95 120t-32 171t32 171.5t95 120.5q45 32 106.5 48.5t151.5 16.5h485v-145h-258v-140h230v-143h-230v-141h258v-144h-485zM479 144v424h-60q-89 0 -143 -37q-39 -26 -58.5 -70.5t-19.5 -104.5q0 -59 19.5 -103.5t58.5 -70.5
q26 -18 61.5 -28t81.5 -10h60z" />
    <glyph glyph-name="oe" unicode="&#x153;" horiz-adv-x="1021" 
d="M982 224h-377q5 -55 39.5 -83t82.5 -28q37 0 63 15.5t39 47.5l146 -20q-24 -80 -90 -123t-157 -43q-65 0 -116 18t-88 52q-38 -34 -89.5 -52t-114.5 -18t-116 18.5t-90.5 52.5t-58.5 83t-21 112q0 62 21 111t58.5 83t90.5 52.5t116 18.5t115 -18t90 -52q36 34 86 52
t112 18q56 0 103 -15.5t82 -47.5t55 -81t20 -117zM724 404q-46 0 -75 -20t-40 -64h218q-7 41 -35 62.5t-68 21.5zM320 115q58 0 92.5 39t34.5 102q0 62 -34.5 101t-92.5 39q-59 0 -93.5 -39t-34.5 -101q0 -63 34.5 -102t93.5 -39z" />
    <glyph glyph-name="Racute" unicode="&#x154;" horiz-adv-x="650" 
d="M490 881l-114 -138h-138l85 138h167zM436 0l-176 270h-31v-270h-165v713h239q78 0 128.5 -14.5t85.5 -43.5q31 -26 48.5 -67t17.5 -99q0 -64 -26 -118.5t-81 -83.5q-16 -8 -28 -12l190 -275h-202zM229 575v-191h51q12 0 26.5 0.5t29 2.5t28 6t23.5 12q31 22 31 74
q0 28 -8.5 46.5t-23.5 29.5q-21 14 -50.5 17t-55.5 3h-51z" />
    <glyph glyph-name="racute" unicode="&#x155;" horiz-adv-x="401" 
d="M375 713l-117 -142h-138l87 142h168zM216 444q23 35 66.5 56t100.5 21v-147q-44 0 -75.5 -6.5t-52 -23t-30 -44t-9.5 -69.5v-231h-158v511h158v-67z" />
    <glyph glyph-name="uni0156" unicode="&#x156;" horiz-adv-x="650" 
d="M638 0h-202l-176 270h-31v-270h-165v713h239q78 0 128.5 -14.5t85.5 -43.5q31 -26 48.5 -67t17.5 -99q0 -64 -26 -118.5t-81 -83.5q-16 -8 -28 -12zM229 575v-191h51q12 0 26.5 0.5t29 2.5t28 6t23.5 12q31 22 31 74q0 28 -8.5 46.5t-23.5 29.5q-21 14 -50.5 17t-55.5 3
h-51zM145 -172l96 142h132l-116 -142h-112z" />
    <glyph glyph-name="uni0157" unicode="&#x157;" horiz-adv-x="401" 
d="M216 444q23 35 66.5 56t100.5 21v-147q-44 0 -75.5 -6.5t-52 -23t-30 -44t-9.5 -69.5v-231h-158v511h158v-67zM-24 -172l96 142h132l-116 -142h-112z" />
    <glyph glyph-name="Rcaron" unicode="&#x158;" horiz-adv-x="650" 
d="M397 745h-179l-96 136h130l56 -65l55 65h130zM436 0l-176 270h-31v-270h-165v713h239q78 0 128.5 -14.5t85.5 -43.5q31 -26 48.5 -67t17.5 -99q0 -64 -26 -118.5t-81 -83.5q-16 -8 -28 -12l190 -275h-202zM229 575v-191h51q12 0 26.5 0.5t29 2.5t28 6t23.5 12
q31 22 31 74q0 28 -8.5 46.5t-23.5 29.5q-21 14 -50.5 17t-55.5 3h-51z" />
    <glyph glyph-name="rcaron" unicode="&#x159;" horiz-adv-x="401" 
d="M279 571h-178l-96 142h130l55 -70l55 70h130zM216 444q23 35 66.5 56t100.5 21v-147q-44 0 -75.5 -6.5t-52 -23t-30 -44t-9.5 -69.5v-231h-158v511h158v-67z" />
    <glyph glyph-name="Sacute" unicode="&#x15a;" horiz-adv-x="615" 
d="M231 743l85 138h167l-114 -138h-138zM307 -14q-58 0 -109 14.5t-91 42t-66 68t-34 92.5l163 35q16 -63 51.5 -90.5t87.5 -27.5q47 0 72 19.5t25 54.5q0 21 -11.5 36t-31 26t-45 20t-54.5 18q-39 12 -80 27t-74.5 39.5t-55 61t-21.5 91.5q0 48 19 87.5t52.5 67.5t81 43.5
t104.5 15.5q47 0 93.5 -10.5t85.5 -34t67 -61t40 -91.5l-149 -34q-17 51 -47 73.5t-80 22.5q-45 0 -72.5 -18.5t-27.5 -51.5q0 -18 10.5 -30.5t28.5 -22t41.5 -16.5t50.5 -15q41 -12 84.5 -27t79.5 -40.5t59.5 -64.5t23.5 -99q0 -50 -19.5 -91t-55 -70t-85.5 -44.5
t-111 -15.5z" />
    <glyph glyph-name="sacute" unicode="&#x15b;" horiz-adv-x="524" 
d="M189 571l87 142h168l-117 -142h-138zM274 -10q-45 0 -85.5 8.5t-72.5 26t-53.5 44.5t-29.5 64l132 37q13 -41 38.5 -56.5t60.5 -15.5q26 0 48.5 9.5t22.5 34.5q0 15 -9 25t-23.5 17t-33.5 11.5t-40 8.5q-42 8 -76 19.5t-58 29t-36.5 43t-12.5 61.5q0 78 57 121t154 43
q37 0 72.5 -7.5t64.5 -23t51 -40.5t32 -61l-139 -30q-12 32 -33.5 45t-52.5 13q-28 0 -45.5 -10t-17.5 -30q0 -23 30.5 -34t73.5 -20q47 -10 83 -22.5t60.5 -31t37.5 -44.5t13 -65q0 -46 -18 -78t-47.5 -52.5t-68 -30t-79.5 -9.5z" />
    <glyph glyph-name="Scedilla" unicode="&#x15e;" horiz-adv-x="615" 
d="M578 207q0 -48 -17.5 -87t-49.5 -67.5t-77.5 -45.5t-101.5 -20l-26 -38q15 3 27 3q42 0 67 -25.5t25 -66.5q0 -45 -32 -76.5t-85 -31.5q-57 0 -88 21.5t-41 53.5l86 23q5 -14 16 -21t24 -7q16 0 28 10t12 28q0 20 -12 29.5t-28 9.5q-23 0 -35 -17l-73 31l47 78
q-47 7 -87.5 24t-71.5 44t-51 63t-27 81l163 35q16 -63 51.5 -90.5t87.5 -27.5q47 0 72 19.5t25 54.5q0 21 -11.5 36t-31 26t-45 20t-54.5 18q-39 12 -80 27t-74.5 39.5t-55 61t-21.5 91.5q0 48 19 87.5t52.5 67.5t81 43.5t104.5 15.5q47 0 93.5 -10.5t85.5 -34t67 -61
t40 -91.5l-149 -34q-17 51 -47 73.5t-80 22.5q-45 0 -72.5 -18.5t-27.5 -51.5q0 -18 10.5 -30.5t28.5 -22t41.5 -16.5t50.5 -15q41 -12 84.5 -27t79.5 -40.5t59.5 -64.5t23.5 -99z" />
    <glyph glyph-name="scedilla" unicode="&#x15f;" horiz-adv-x="524" 
d="M487 160q0 -41 -14.5 -71.5t-39.5 -51t-58 -32t-69 -14.5l-29 -42q15 3 27 3q42 0 67 -25.5t25 -66.5q0 -45 -32 -76.5t-85 -31.5q-57 0 -88 21.5t-41 53.5l86 23q5 -14 16 -21t24 -7q16 0 28 10t12 28q0 20 -12 29.5t-28 9.5q-23 0 -35 -17l-73 31l49 81q-71 9 -121 43
t-63 96l132 37q13 -41 38.5 -56.5t60.5 -15.5q26 0 48.5 9.5t22.5 34.5q0 15 -9 25t-23.5 17t-33.5 11.5t-40 8.5q-42 8 -76 19.5t-58 29t-36.5 43t-12.5 61.5q0 78 57 121t154 43q37 0 72.5 -7.5t64.5 -23t51 -40.5t32 -61l-139 -30q-12 32 -33.5 45t-52.5 13
q-28 0 -45.5 -10t-17.5 -30q0 -23 30.5 -34t73.5 -20q47 -10 83 -22.5t60.5 -31t37.5 -44.5t13 -65z" />
    <glyph glyph-name="Scaron" unicode="&#x160;" horiz-adv-x="615" 
d="M211 745l-96 136h130l56 -65l55 65h130l-96 -136h-179zM307 -14q-58 0 -109 14.5t-91 42t-66 68t-34 92.5l163 35q16 -63 51.5 -90.5t87.5 -27.5q47 0 72 19.5t25 54.5q0 21 -11.5 36t-31 26t-45 20t-54.5 18q-39 12 -80 27t-74.5 39.5t-55 61t-21.5 91.5q0 48 19 87.5
t52.5 67.5t81 43.5t104.5 15.5q47 0 93.5 -10.5t85.5 -34t67 -61t40 -91.5l-149 -34q-17 51 -47 73.5t-80 22.5q-45 0 -72.5 -18.5t-27.5 -51.5q0 -18 10.5 -30.5t28.5 -22t41.5 -16.5t50.5 -15q41 -12 84.5 -27t79.5 -40.5t59.5 -64.5t23.5 -99q0 -50 -19.5 -91t-55 -70
t-85.5 -44.5t-111 -15.5z" />
    <glyph glyph-name="scaron" unicode="&#x161;" horiz-adv-x="524" 
d="M170 571l-96 142h130l55 -70l55 70h130l-96 -142h-178zM274 -10q-45 0 -85.5 8.5t-72.5 26t-53.5 44.5t-29.5 64l132 37q13 -41 38.5 -56.5t60.5 -15.5q26 0 48.5 9.5t22.5 34.5q0 15 -9 25t-23.5 17t-33.5 11.5t-40 8.5q-42 8 -76 19.5t-58 29t-36.5 43t-12.5 61.5
q0 78 57 121t154 43q37 0 72.5 -7.5t64.5 -23t51 -40.5t32 -61l-139 -30q-12 32 -33.5 45t-52.5 13q-28 0 -45.5 -10t-17.5 -30q0 -23 30.5 -34t73.5 -20q47 -10 83 -22.5t60.5 -31t37.5 -44.5t13 -65q0 -46 -18 -78t-47.5 -52.5t-68 -30t-79.5 -9.5z" />
    <glyph glyph-name="uni0162" unicode="&#x162;" horiz-adv-x="516" 
d="M341 0h-41l-35 -51q15 3 27 3q42 0 67 -25.5t25 -66.5q0 -45 -32 -76.5t-85 -31.5q-57 0 -88 21.5t-41 53.5l86 23q5 -14 16 -21t24 -7q16 0 28 10t12 28q0 20 -12 29.5t-28 9.5q-23 0 -35 -17l-73 31l53 87h-33v568h-166v145h497v-145h-166v-568z" />
    <glyph glyph-name="uni0163" unicode="&#x163;" horiz-adv-x="417" 
d="M380 390h-106v-200q0 -35 16 -50t45 -15h45v-125h-94l-35 -51q15 3 27 3q42 0 67 -25.5t25 -66.5q0 -45 -32 -76.5t-85 -31.5q-57 0 -88 21.5t-41 53.5l86 23q5 -14 16 -21t24 -7q16 0 28 10t12 28q0 20 -12 29.5t-28 9.5q-23 0 -35 -17l-73 31l61 101q-43 17 -65 56
t-22 96v224h-99v121h34q19 0 34.5 4t26.5 15t17 30.5t6 50.5v62h139v-162h106v-121z" />
    <glyph glyph-name="Tcaron" unicode="&#x164;" horiz-adv-x="516" 
d="M348 745h-179l-96 136h130l56 -65l55 65h130zM507 713v-145h-166v-568h-165v568h-166v145h497z" />
    <glyph glyph-name="tcaron" unicode="&#x165;" horiz-adv-x="411" 
d="M320 566l61 326h162l-111 -326h-112zM279 0q-79 0 -121 43.5t-42 122.5v224h-99v121h34q19 0 34.5 4t26.5 15t17 30.5t6 50.5v62h139v-162h106v-121h-106v-200q0 -35 16 -50t45 -15h45v-125h-101z" />
    <glyph glyph-name="Tbar" unicode="&#x166;" horiz-adv-x="516" 
d="M507 568h-166v-164h94v-95h-94v-309h-165v309h-93v95h93v164h-166v145h497v-145z" />
    <glyph glyph-name="tbar" unicode="&#x167;" horiz-adv-x="417" 
d="M381 209h-107v-19q0 -35 16 -50t45 -15h45v-125h-101q-79 0 -121 43.5t-42 122.5v43h-99v95h99v86h-99v121h34q19 0 34.5 4t26.5 15t17 30.5t6 50.5v62h139v-162h106v-121h-106v-86h107v-95z" />
    <glyph glyph-name="Utilde" unicode="&#x168;" horiz-adv-x="688" 
d="M401 743q-36 0 -55 14t-31 29q-9 10 -17.5 17.5t-21.5 7.5q-15 0 -20.5 -18.5t-5.5 -43.5h-75q0 64 29 105t81 41q35 0 54 -14t32 -29q9 -11 18 -18t21 -7q15 0 19.5 18t4.5 44h76q0 -31 -7 -57.5t-20.5 -46t-34 -31t-47.5 -11.5zM344 -14q-61 0 -113.5 16t-91.5 49
t-61 84t-22 121v457h165v-436q0 -39 9.5 -66.5t26 -44t39 -24t48.5 -7.5t48.5 7.5t39 24t26 44t9.5 66.5v436h165v-457q0 -70 -22 -121t-61 -84t-91.5 -49t-113.5 -16z" />
    <glyph glyph-name="utilde" unicode="&#x169;" horiz-adv-x="628" 
d="M244 631q-15 0 -20.5 -18.5t-5.5 -42.5h-75q0 63 29 104.5t81 41.5q35 0 54 -14.5t32 -29.5q9 -11 18 -18t21 -7q15 0 19.5 18t4.5 44h76q0 -31 -7 -57.5t-20.5 -46t-34 -31t-47.5 -11.5q-36 0 -55 14.5t-31 28.5q-9 11 -17.5 18t-21.5 7zM412 511h158v-511h-150l-6 59
q-28 -33 -69.5 -51t-95.5 -18q-99 0 -148 46.5t-49 131.5v343h159v-310q0 -47 25.5 -66t63.5 -19q21 0 41 6t36 20t25.5 37.5t9.5 59.5v272z" />
    <glyph glyph-name="Umacron" unicode="&#x16a;" horiz-adv-x="688" 
d="M179 778v99h327v-99h-327zM344 -14q-61 0 -113.5 16t-91.5 49t-61 84t-22 121v457h165v-436q0 -39 9.5 -66.5t26 -44t39 -24t48.5 -7.5t48.5 7.5t39 24t26 44t9.5 66.5v436h165v-457q0 -70 -22 -121t-61 -84t-91.5 -49t-113.5 -16z" />
    <glyph glyph-name="umacron" unicode="&#x16b;" horiz-adv-x="628" 
d="M455 689v-99h-287v99h287zM412 511h158v-511h-150l-6 59q-28 -33 -69.5 -51t-95.5 -18q-99 0 -148 46.5t-49 131.5v343h159v-310q0 -47 25.5 -66t63.5 -19q21 0 41 6t36 20t25.5 37.5t9.5 59.5v272z" />
    <glyph glyph-name="Uring" unicode="&#x16e;" horiz-adv-x="688" 
d="M343 741q-28 0 -53 9.5t-43.5 26.5t-29 41t-10.5 54t10.5 54t29 41.5t43.5 26.5t53 9t52.5 -9t43 -26.5t29 -41.5t10.5 -54t-10.5 -54t-29 -41t-43 -26.5t-52.5 -9.5zM343 813q26 0 43 16.5t17 42.5q0 27 -17 43.5t-43 16.5t-42 -16.5t-16 -43.5q0 -26 16 -42.5t42 -16.5
zM344 -14q-61 0 -113.5 16t-91.5 49t-61 84t-22 121v457h165v-436q0 -39 9.5 -66.5t26 -44t39 -24t48.5 -7.5t48.5 7.5t39 24t26 44t9.5 66.5v436h165v-457q0 -70 -22 -121t-61 -84t-91.5 -49t-113.5 -16z" />
    <glyph glyph-name="uring" unicode="&#x16f;" horiz-adv-x="628" 
d="M311 562q-59 0 -93 36t-34 88q0 25 8.5 47t25 38.5t40 26.5t53.5 10q29 0 52.5 -10t40 -26.5t25 -38.5t8.5 -47q0 -52 -33.5 -88t-92.5 -36zM311 734q-20 0 -34.5 -12.5t-14.5 -35.5t14.5 -36t34.5 -13q21 0 35.5 13t14.5 36t-14.5 35.5t-35.5 12.5zM412 511h158v-511
h-150l-6 59q-28 -33 -69.5 -51t-95.5 -18q-99 0 -148 46.5t-49 131.5v343h159v-310q0 -47 25.5 -66t63.5 -19q21 0 41 6t36 20t25.5 37.5t9.5 59.5v272z" />
    <glyph glyph-name="Uhungarumlaut" unicode="&#x170;" horiz-adv-x="688" 
d="M170 743l93 138h159l-114 -138h-138zM377 743l94 138h158l-114 -138h-138zM344 -14q-61 0 -113.5 16t-91.5 49t-61 84t-22 121v457h165v-436q0 -39 9.5 -66.5t26 -44t39 -24t48.5 -7.5t48.5 7.5t39 24t26 44t9.5 66.5v436h165v-457q0 -70 -22 -121t-61 -84t-91.5 -49
t-113.5 -16z" />
    <glyph glyph-name="uhungarumlaut" unicode="&#x171;" horiz-adv-x="628" 
d="M394 713l-117 -142h-138l96 142h159zM484 571h-138l96 142h159zM412 511h158v-511h-150l-6 59q-28 -33 -69.5 -51t-95.5 -18q-99 0 -148 46.5t-49 131.5v343h159v-310q0 -47 25.5 -66t63.5 -19q21 0 41 6t36 20t25.5 37.5t9.5 59.5v272z" />
    <glyph glyph-name="Uogonek" unicode="&#x172;" horiz-adv-x="688" 
d="M467 713h165v-457q0 -55 -14 -98.5t-39 -75.5t-60 -53t-77 -32q-33 -25 -52.5 -51t-19.5 -45q0 -11 9.5 -17.5t23.5 -6.5q23 0 42 16v-96q-17 -8 -37 -11.5t-41 -3.5q-39 0 -69 15.5t-30 52.5q0 34 27.5 68t67.5 68h-19q-61 0 -113.5 16t-91.5 49t-61 84t-22 121v457h165
v-436q0 -39 9.5 -66.5t26 -44t39 -24t48.5 -7.5t48.5 7.5t39 24t26 44t9.5 66.5v436z" />
    <glyph glyph-name="uogonek" unicode="&#x173;" horiz-adv-x="628" 
d="M570 0q-34 -26 -54.5 -52.5t-20.5 -46.5q0 -11 9.5 -17.5t23.5 -6.5q23 0 42 16v-96q-17 -8 -37 -11.5t-41 -3.5q-39 0 -69 15.5t-30 52.5t32.5 74.5t79.5 75.5h-85l-6 59q-28 -33 -69.5 -51t-95.5 -18q-99 0 -148 46.5t-49 131.5v343h159v-310q0 -47 25.5 -66t63.5 -19
q21 0 41 6t36 20t25.5 37.5t9.5 59.5v272h158v-511z" />
    <glyph glyph-name="Wcircumflex" unicode="&#x174;" horiz-adv-x="1077" 
d="M539 810l-56 -65h-130l96 136h179l96 -136h-130zM894 713h171l-180 -713h-219l-128 409l-127 -409h-219l-180 713h171l131 -534l155 534h139l154 -534z" />
    <glyph glyph-name="wcircumflex" unicode="&#x175;" horiz-adv-x="910" 
d="M455 640l-55 -69h-130l96 142h178l96 -142h-130zM729 511h168l-177 -511h-161l-104 312l-104 -312h-161l-177 511h168l98 -318l114 318h125l113 -317z" />
    <glyph glyph-name="Ycircumflex" unicode="&#x176;" horiz-adv-x="636" 
d="M319 810l-56 -65h-130l96 136h179l96 -136h-130zM637 713l-236 -373v-340h-165v335l-239 378h182l139 -230l139 230h180z" />
    <glyph glyph-name="ycircumflex" unicode="&#x177;" horiz-adv-x="600" 
d="M305 640l-55 -69h-130l96 142h178l96 -142h-130zM417 511h172l-321 -754h-172l121 272l-207 482h172l117 -319z" />
    <glyph glyph-name="Ydieresis" unicode="&#x178;" horiz-adv-x="636" 
d="M209 748q-37 0 -63 26t-26 63q0 36 26 62t63 26q36 0 62 -26t26 -62q0 -37 -26 -63t-62 -26zM427 748q-37 0 -63 26t-26 63q0 36 26 62t63 26q36 0 62 -26t26 -62q0 -37 -26 -63t-62 -26zM637 713l-236 -373v-340h-165v335l-239 378h182l139 -230l139 230h180z" />
    <glyph glyph-name="Zacute" unicode="&#x179;" horiz-adv-x="582" 
d="M488 881l-114 -138h-138l85 138h167zM228 144h320v-144h-515v130l318 438h-317v145h512v-130z" />
    <glyph glyph-name="zacute" unicode="&#x17a;" horiz-adv-x="496" 
d="M435 713l-117 -142h-138l87 142h168zM472 511l-216 -390h205v-121h-440l215 390h-195v121h431z" />
    <glyph glyph-name="Zdotaccent" unicode="&#x17b;" horiz-adv-x="582" 
d="M306 748q-37 0 -63 26t-26 63q0 36 26 62t63 26q36 0 62 -26t26 -62q0 -37 -26 -63t-62 -26zM228 144h320v-144h-515v130l318 438h-317v145h512v-130z" />
    <glyph glyph-name="zdotaccent" unicode="&#x17c;" horiz-adv-x="496" 
d="M251 574q-37 0 -63 26t-26 63q0 36 26 62t63 26q36 0 62 -26t26 -62q0 -37 -26 -63t-62 -26zM472 511l-216 -390h205v-121h-440l215 390h-195v121h431z" />
    <glyph glyph-name="Zcaron" unicode="&#x17d;" horiz-adv-x="582" 
d="M395 745h-179l-96 136h130l56 -65l55 65h130zM228 144h320v-144h-515v130l318 438h-317v145h512v-130z" />
    <glyph glyph-name="zcaron" unicode="&#x17e;" horiz-adv-x="496" 
d="M339 571h-178l-96 142h130l55 -70l55 70h130zM472 511l-216 -390h205v-121h-440l215 390h-195v121h431z" />
    <glyph glyph-name="florin" unicode="&#x192;" horiz-adv-x="452" 
d="M405 625q-10 0 -24 -1.5t-26.5 -9t-21 -23.5t-8.5 -44v-36h109v-121h-109v-390q0 -65 -17.5 -105t-49 -61.5t-75 -29t-95.5 -7.5h-29v125h29q10 0 23.5 1.5t26 9t21 23.5t8.5 44v390h-101v121h101v36q0 65 17.5 105t49 62t75.5 29t96 7h29v-125h-29z" />
    <glyph glyph-name="Ohorn" unicode="&#x1a0;" horiz-adv-x="801" 
d="M694 770h106v-85q0 -30 -8 -50.5t-21.5 -34t-29.5 -20t-33 -9.5q29 -45 44.5 -98.5t15.5 -116.5q0 -82 -27 -150.5t-76 -117t-116.5 -75.5t-147.5 -27q-81 0 -148.5 27t-116 75.5t-76 117t-27.5 150.5q0 83 27.5 151t76 117t116 76t148.5 27q75 0 138 -23t111 -66
q26 1 35 14t9 51v67zM401 137q44 0 81 15.5t64 44.5t42 69.5t15 89.5q0 50 -15 90.5t-42 69t-64 44.5t-81 16t-81.5 -16t-64.5 -44.5t-42 -69t-15 -90.5q0 -49 15 -89.5t42 -69.5t64.5 -44.5t81.5 -15.5z" />
    <glyph glyph-name="ohorn" unicode="&#x1a1;" horiz-adv-x="639" 
d="M548 602h106v-85q0 -29 -8 -49.5t-20.5 -33.5t-28.5 -20.5t-32 -10.5q40 -62 40 -147q0 -63 -21 -112t-58.5 -83t-90 -52.5t-115.5 -18.5t-116 18.5t-90.5 52.5t-58.5 83t-21 112q0 62 21 111t58.5 83t90.5 52.5t116 18.5q106 0 180 -51h1q28 0 37.5 13t9.5 52v67z
M320 115q58 0 92.5 39t34.5 102q0 62 -34.5 101t-92.5 39q-59 0 -93.5 -39t-34.5 -101q0 -63 34.5 -102t93.5 -39z" />
    <glyph glyph-name="Uhorn" unicode="&#x1af;" horiz-adv-x="688" 
d="M705 806h106v-85q0 -38 -13 -61t-32 -35.5t-41 -16.5t-40 -4q-11 0 -25 2.5t-28 7.5v-358q0 -70 -22 -121t-61 -84t-91.5 -49t-113.5 -16t-113.5 16t-91.5 49t-61 84t-22 121v457h165v-436q0 -39 9.5 -66.5t26 -44t39 -24t48.5 -7.5t48.5 7.5t39 24t26 44t9.5 66.5v436
h165v-34q8 -3 14.5 -4t11.5 -1q28 0 37.5 13t9.5 52v67z" />
    <glyph glyph-name="uhorn" unicode="&#x1b0;" horiz-adv-x="628" 
d="M630 604h106v-85q0 -38 -13 -61t-32 -35.5t-41 -16.5t-40 -4q-19 0 -40 6v-408h-150l-6 59q-28 -33 -69.5 -51t-95.5 -18q-99 0 -148 46.5t-49 131.5v343h159v-310q0 -47 25.5 -66t63.5 -19q21 0 41 6t36 20t25.5 37.5t9.5 59.5v272h158v-38q5 -1 13 -1q28 0 37.5 13
t9.5 52v67z" />
    <glyph glyph-name="uni01CD" unicode="&#x1cd;" horiz-adv-x="742" 
d="M461 745h-179l-96 136h130l56 -65l55 65h130zM561 0l-49 140h-283l-49 -140h-175l264 713h204l264 -713h-176zM278 277h186l-93 265z" />
    <glyph glyph-name="uni01CE" unicode="&#x1ce;" horiz-adv-x="579" 
d="M382 571h-178l-96 142h130l55 -70l55 70h130zM522 91q0 -22 1.5 -41t9.5 -36v-14h-157l-6 61q-27 -38 -73 -54.5t-94 -16.5q-30 0 -60 7t-54.5 23.5t-39.5 43.5t-15 66q0 44 18 73t46.5 48t62.5 30t66 18l88 20q20 5 34.5 12.5t14.5 26.5q0 29 -24.5 40t-53.5 11
q-39 0 -64.5 -17.5t-33.5 -53.5l-151 23q17 83 84.5 121.5t166.5 38.5q115 0 174.5 -48t59.5 -141v-241zM250 98q21 0 43 9t40 26.5t29 44t11 61.5l-121 -34q-20 -5 -39.5 -17t-19.5 -41q0 -25 16 -37t41 -12z" />
    <glyph glyph-name="uni01CF" unicode="&#x1cf;" horiz-adv-x="293" 
d="M56 745l-96 136h130l56 -65l55 65h130l-96 -136h-179zM64 0v713h165v-713h-165z" />
    <glyph glyph-name="uni01D0" unicode="&#x1d0;" horiz-adv-x="272" 
d="M47 571l-96 142h130l55 -70l55 70h130l-96 -142h-178zM57 0v511h158v-511h-158z" />
    <glyph glyph-name="uni01D1" unicode="&#x1d1;" horiz-adv-x="801" 
d="M311 745l-96 136h130l56 -65l55 65h130l-96 -136h-179zM401 -14q-81 0 -148.5 27t-116 75.5t-76 117t-27.5 150.5q0 83 27.5 151t76 117t116 76t148.5 27q80 0 147.5 -27t116.5 -76t76 -117t27 -151q0 -82 -27 -150.5t-76 -117t-116.5 -75.5t-147.5 -27zM401 137
q44 0 81 15.5t64 44.5t42 69.5t15 89.5q0 50 -15 90.5t-42 69t-64 44.5t-81 16t-81.5 -16t-64.5 -44.5t-42 -69t-15 -90.5q0 -49 15 -89.5t42 -69.5t64.5 -44.5t81.5 -15.5z" />
    <glyph glyph-name="uni01D2" unicode="&#x1d2;" horiz-adv-x="639" 
d="M232 571l-96 142h130l55 -70l55 70h130l-96 -142h-178zM320 -10q-63 0 -116 18.5t-90.5 52.5t-58.5 83t-21 112q0 62 21 111t58.5 83t90.5 52.5t116 18.5t115.5 -18.5t90 -52.5t58.5 -83t21 -111q0 -63 -21 -112t-58.5 -83t-90 -52.5t-115.5 -18.5zM320 115q58 0 92.5 39
t34.5 102q0 62 -34.5 101t-92.5 39q-59 0 -93.5 -39t-34.5 -101q0 -63 34.5 -102t93.5 -39z" />
    <glyph glyph-name="uni01D3" unicode="&#x1d3;" horiz-adv-x="688" 
d="M253 745l-96 136h130l56 -65l55 65h130l-96 -136h-179zM344 -14q-61 0 -113.5 16t-91.5 49t-61 84t-22 121v457h165v-436q0 -39 9.5 -66.5t26 -44t39 -24t48.5 -7.5t48.5 7.5t39 24t26 44t9.5 66.5v436h165v-457q0 -70 -22 -121t-61 -84t-91.5 -49t-113.5 -16z" />
    <glyph glyph-name="uni01D4" unicode="&#x1d4;" horiz-adv-x="628" 
d="M400 571h-178l-96 142h130l55 -70l55 70h130zM412 511h158v-511h-150l-6 59q-28 -33 -69.5 -51t-95.5 -18q-99 0 -148 46.5t-49 131.5v343h159v-310q0 -47 25.5 -66t63.5 -19q21 0 41 6t36 20t25.5 37.5t9.5 59.5v272z" />
    <glyph glyph-name="uni01D5" unicode="&#x1d5;" horiz-adv-x="688" 
d="M179 990v99h327v-99h-327zM234 748q-37 0 -63 26t-26 63q0 36 26 62t63 26q36 0 62 -26t26 -62q0 -37 -26 -63t-62 -26zM452 748q-37 0 -63 26t-26 63q0 36 26 62t63 26q36 0 62 -26t26 -62q0 -37 -26 -63t-62 -26zM344 -14q-61 0 -113.5 16t-91.5 49t-61 84t-22 121v457
h165v-436q0 -39 9.5 -66.5t26 -44t39 -24t48.5 -7.5t48.5 7.5t39 24t26 44t9.5 66.5v436h165v-457q0 -70 -22 -121t-61 -84t-91.5 -49t-113.5 -16z" />
    <glyph glyph-name="uni01D6" unicode="&#x1d6;" horiz-adv-x="628" 
d="M455 919v-99h-287v99h287zM202 574q-37 0 -63 26t-26 63q0 36 26 62t63 26q36 0 62 -26t26 -62q0 -37 -26 -63t-62 -26zM331 663q0 36 26 62t63 26q36 0 62 -26t26 -62q0 -37 -26 -63t-62 -26q-37 0 -63 26t-26 63zM412 511h158v-511h-150l-6 59q-28 -33 -69.5 -51
t-95.5 -18q-99 0 -148 46.5t-49 131.5v343h159v-310q0 -47 25.5 -66t63.5 -19q21 0 41 6t36 20t25.5 37.5t9.5 59.5v272z" />
    <glyph glyph-name="uni01D7" unicode="&#x1d7;" horiz-adv-x="688" 
d="M274 955l85 138h167l-114 -138h-138zM234 748q-37 0 -63 26t-26 63q0 36 26 62t63 26q36 0 62 -26t26 -62q0 -37 -26 -63t-62 -26zM452 748q-37 0 -63 26t-26 63q0 36 26 62t63 26q36 0 62 -26t26 -62q0 -37 -26 -63t-62 -26zM344 -14q-61 0 -113.5 16t-91.5 49t-61 84
t-22 121v457h165v-436q0 -39 9.5 -66.5t26 -44t39 -24t48.5 -7.5t48.5 7.5t39 24t26 44t9.5 66.5v436h165v-457q0 -70 -22 -121t-61 -84t-91.5 -49t-113.5 -16z" />
    <glyph glyph-name="uni01D8" unicode="&#x1d8;" horiz-adv-x="628" 
d="M496 943l-117 -142h-138l87 142h168zM202 574q-37 0 -63 26t-26 63q0 36 26 62t63 26q36 0 62 -26t26 -62q0 -37 -26 -63t-62 -26zM420 751q36 0 62 -26t26 -62q0 -37 -26 -63t-62 -26q-37 0 -63 26t-26 63q0 36 26 62t63 26zM412 511h158v-511h-150l-6 59
q-28 -33 -69.5 -51t-95.5 -18q-99 0 -148 46.5t-49 131.5v343h159v-310q0 -47 25.5 -66t63.5 -19q21 0 41 6t36 20t25.5 37.5t9.5 59.5v272z" />
    <glyph glyph-name="uni01D9" unicode="&#x1d9;" horiz-adv-x="688" 
d="M253 957l-96 136h130l56 -65l55 65h130l-96 -136h-179zM234 748q-37 0 -63 26t-26 63q0 36 26 62t63 26q36 0 62 -26t26 -62q0 -37 -26 -63t-62 -26zM452 748q-37 0 -63 26t-26 63q0 36 26 62t63 26q36 0 62 -26t26 -62q0 -37 -26 -63t-62 -26zM344 -14q-61 0 -113.5 16
t-91.5 49t-61 84t-22 121v457h165v-436q0 -39 9.5 -66.5t26 -44t39 -24t48.5 -7.5t48.5 7.5t39 24t26 44t9.5 66.5v436h165v-457q0 -70 -22 -121t-61 -84t-91.5 -49t-113.5 -16z" />
    <glyph glyph-name="uni01DA" unicode="&#x1da;" horiz-adv-x="628" 
d="M400 801h-178l-96 142h130l55 -70l55 70h130zM202 574q-37 0 -63 26t-26 63q0 36 26 62t63 26q36 0 62 -26t26 -62q0 -37 -26 -63t-62 -26zM420 751q36 0 62 -26t26 -62q0 -37 -26 -63t-62 -26q-37 0 -63 26t-26 63q0 36 26 62t63 26zM412 511h158v-511h-150l-6 59
q-28 -33 -69.5 -51t-95.5 -18q-99 0 -148 46.5t-49 131.5v343h159v-310q0 -47 25.5 -66t63.5 -19q21 0 41 6t36 20t25.5 37.5t9.5 59.5v272z" />
    <glyph glyph-name="uni01DB" unicode="&#x1db;" horiz-adv-x="688" 
d="M274 955l-114 138h167l85 -138h-138zM234 748q-37 0 -63 26t-26 63q0 36 26 62t63 26q36 0 62 -26t26 -62q0 -37 -26 -63t-62 -26zM452 748q-37 0 -63 26t-26 63q0 36 26 62t63 26q36 0 62 -26t26 -62q0 -37 -26 -63t-62 -26zM344 -14q-61 0 -113.5 16t-91.5 49t-61 84
t-22 121v457h165v-436q0 -39 9.5 -66.5t26 -44t39 -24t48.5 -7.5t48.5 7.5t39 24t26 44t9.5 66.5v436h165v-457q0 -70 -22 -121t-61 -84t-91.5 -49t-113.5 -16z" />
    <glyph glyph-name="uni01DC" unicode="&#x1dc;" horiz-adv-x="628" 
d="M382 801h-139l-116 142h167zM202 574q-37 0 -63 26t-26 63q0 36 26 62t63 26q36 0 62 -26t26 -62q0 -37 -26 -63t-62 -26zM331 663q0 36 26 62t63 26q36 0 62 -26t26 -62q0 -37 -26 -63t-62 -26q-37 0 -63 26t-26 63zM412 511h158v-511h-150l-6 59q-28 -33 -69.5 -51
t-95.5 -18q-99 0 -148 46.5t-49 131.5v343h159v-310q0 -47 25.5 -66t63.5 -19q21 0 41 6t36 20t25.5 37.5t9.5 59.5v272z" />
    <glyph glyph-name="Gcaron" unicode="&#x1e6;" horiz-adv-x="791" 
d="M310 745l-96 136h130l56 -65l55 65h130l-96 -136h-179zM391 -14q-78 0 -144 27t-113.5 75.5t-74 117t-26.5 150.5q0 83 27.5 151t76 117t116 76t148.5 27q106 0 188.5 -46t128.5 -127l-144 -78q-26 48 -71 74t-102 26q-44 0 -81.5 -16t-64.5 -44.5t-42 -69t-15 -90.5
q0 -49 14 -89t40.5 -69t64 -45t84.5 -16q60 0 111 30.5t71 96.5h-175v132h336v-396h-128v92q-34 -47 -89 -76.5t-136 -29.5z" />
    <glyph glyph-name="gcaron" unicode="&#x1e7;" horiz-adv-x="633" 
d="M413 571h-178l-96 142h130l55 -70l55 70h130zM426 511h150v-495q0 -72 -19 -122.5t-54 -82.5t-85.5 -46.5t-112.5 -14.5q-114 0 -177.5 44t-89.5 116l131 53q22 -47 52 -69.5t78 -22.5q65 0 91.5 36.5t26.5 96.5v74q-22 -27 -61.5 -44.5t-88.5 -17.5q-48 0 -90 18t-74 51
t-50.5 80t-18.5 105t18.5 104.5t50.5 79t75 50t91 17.5q52 0 91.5 -19t59.5 -50zM306 143q53 0 87 36t34 91t-33.5 90.5t-87.5 35.5q-52 0 -86 -35.5t-34 -90.5q0 -27 9 -50.5t25.5 -40.5t38.5 -26.5t47 -9.5z" />
    <glyph glyph-name="uni01EA" unicode="&#x1ea;" horiz-adv-x="801" 
d="M504 -1q-33 -26 -53 -52t-20 -46q0 -11 9.5 -17.5t23.5 -6.5q23 0 42 16v-96q-17 -8 -37 -11.5t-41 -3.5q-39 0 -69 15.5t-30 52.5q0 34 27.5 68t68.5 69q-6 -1 -12 -1h-12q-81 0 -148.5 27t-116 75.5t-76 117t-27.5 150.5q0 83 27.5 151t76 117t116 76t148.5 27
q80 0 147.5 -27t116.5 -76t76 -117t27 -151q0 -69 -19 -127.5t-53.5 -104.5t-83.5 -78t-108 -47zM198 356q0 -49 15 -89.5t42 -69.5t64.5 -44.5t81.5 -15.5t81 15.5t64 44.5t42 69.5t15 89.5q0 50 -15 90.5t-42 69t-64 44.5t-81 16t-81.5 -16t-64.5 -44.5t-42 -69t-15 -90.5
z" />
    <glyph glyph-name="uni01EB" unicode="&#x1eb;" horiz-adv-x="639" 
d="M404 0q-33 -26 -53.5 -52.5t-20.5 -46.5q0 -11 9.5 -17.5t23.5 -6.5q23 0 42 16v-96q-17 -8 -37 -11.5t-41 -3.5q-39 0 -69 15.5t-30 52.5q0 35 29 70t71 70h-8q-63 0 -116 18.5t-90.5 52.5t-58.5 83t-21 112q0 62 21 111t58.5 83t90.5 52.5t116 18.5t115.5 -18.5
t90 -52.5t58.5 -83t21 -111q0 -103 -54.5 -169t-146.5 -87zM192 256q0 -63 34.5 -102t93.5 -39q58 0 92.5 39t34.5 102q0 62 -34.5 101t-92.5 39q-59 0 -93.5 -39t-34.5 -101z" />
    <glyph glyph-name="Aringacute" unicode="&#x1fa;" horiz-adv-x="742" 
d="M371 741q-28 0 -53 9.5t-43.5 26.5t-29 41t-10.5 54t10.5 54t29 41.5t43.5 26.5t53 9h4l46 74h167l-105 -128q11 -15 17 -34.5t6 -42.5q0 -30 -10.5 -54t-29 -41t-43 -26.5t-52.5 -9.5zM371 932q-26 0 -42 -16.5t-16 -43.5q0 -26 16 -42.5t42 -16.5t43 16.5t17 42.5
q0 27 -17 43.5t-43 16.5zM561 0l-49 140h-283l-49 -140h-175l264 713h204l264 -713h-176zM278 277h186l-93 265z" />
    <glyph glyph-name="aringacute" unicode="&#x1fb;" horiz-adv-x="579" 
d="M293 562q-59 0 -93 36t-34 88q0 25 8.5 47t25 38.5t40 26.5t53.5 10h11l46 75h168l-113 -138q14 -26 14 -59q0 -52 -33.5 -88t-92.5 -36zM293 734q-20 0 -34.5 -12.5t-14.5 -35.5t14.5 -36t34.5 -13q21 0 35.5 13t14.5 36t-14.5 35.5t-35.5 12.5zM522 91q0 -22 1.5 -41
t9.5 -36v-14h-157l-6 61q-27 -38 -73 -54.5t-94 -16.5q-30 0 -60 7t-54.5 23.5t-39.5 43.5t-15 66q0 44 18 73t46.5 48t62.5 30t66 18l88 20q20 5 34.5 12.5t14.5 26.5q0 29 -24.5 40t-53.5 11q-39 0 -64.5 -17.5t-33.5 -53.5l-151 23q17 83 84.5 121.5t166.5 38.5
q115 0 174.5 -48t59.5 -141v-241zM250 98q21 0 43 9t40 26.5t29 44t11 61.5l-121 -34q-20 -5 -39.5 -17t-19.5 -41q0 -25 16 -37t41 -12z" />
    <glyph glyph-name="AEacute" unicode="&#x1fc;" horiz-adv-x="922" 
d="M394 743l85 138h167l-114 -138h-138zM5 0l264 713h608v-145h-268v-140h231v-144h-231v-139h268v-145h-433v140h-214l-50 -140h-175zM277 277h167v291h-64z" />
    <glyph glyph-name="aeacute" unicode="&#x1fd;" horiz-adv-x="919" 
d="M644 713l-117 -142h-138l87 142h168zM879 224h-376q5 -55 39.5 -83t82.5 -28q36 0 62 15.5t40 47.5l146 -20q-25 -80 -91 -123t-156 -43q-70 0 -125 21t-91 61q-41 -41 -93.5 -61.5t-112.5 -20.5q-34 0 -64.5 7.5t-53 24t-36 42.5t-13.5 64q0 43 17 71.5t45 47t64 29.5
t73 19l72 16q29 6 39 16t10 26q0 35 -25.5 48t-56.5 13q-38 0 -64 -18t-31 -66l-140 21q16 89 75.5 129t171.5 40q45 0 88 -9t74 -38q71 48 171 48q56 0 103.5 -15.5t82.5 -47.5t55 -81t20 -117zM621 404q-46 0 -75 -20t-39 -64h218q-7 41 -35 62.5t-69 21.5zM249 112
q29 0 60.5 14t46.5 45q-6 26 -9 52l-88 -21q-33 -8 -50.5 -19.5t-17.5 -30.5q0 -20 16 -30t42 -10z" />
    <glyph glyph-name="Oslashacute" unicode="&#x1fe;" horiz-adv-x="801" 
d="M584 881l-114 -138h-138l85 138h167zM643 644q59 -50 92 -123t33 -165q0 -82 -27 -150.5t-76 -117t-116.5 -75.5t-147.5 -27q-52 0 -98.5 11.5t-87.5 32.5l-56 -81l-60 35l59 85q-59 49 -92 122t-33 165q0 83 27.5 151t76 117t116 76t148.5 27q52 0 98 -11.5t87 -32.5
l56 81l60 -35zM198 356q0 -48 13.5 -86.5t39.5 -67.5l245 352q-44 22 -95 22q-44 0 -81.5 -16t-64.5 -44.5t-42 -69t-15 -90.5zM401 137q44 0 81 15.5t64 44.5t42 69.5t15 89.5q0 48 -14 87t-39 68l-245 -352q44 -22 96 -22z" />
    <glyph glyph-name="oslashacute" unicode="&#x1ff;" horiz-adv-x="639" 
d="M506 713l-117 -142h-138l87 142h168zM508 464q46 -34 71.5 -86.5t25.5 -121.5q0 -63 -21 -112t-58.5 -83t-90 -52.5t-115.5 -18.5q-68 0 -126 22l-40 -57l-60 35l39 55q-47 35 -73 88t-26 123q0 62 21 111t58.5 83t90.5 52.5t116 18.5q70 0 128 -23l39 56l59 -35z
M192 256q0 -52 25 -90l153 221q-22 9 -50 9q-59 0 -93.5 -39t-34.5 -101zM320 115q58 0 92.5 39t34.5 102q0 52 -24 86l-152 -218q23 -9 49 -9z" />
    <glyph glyph-name="uni0218" unicode="&#x218;" horiz-adv-x="615" 
d="M307 -14q-58 0 -109 14.5t-91 42t-66 68t-34 92.5l163 35q16 -63 51.5 -90.5t87.5 -27.5q47 0 72 19.5t25 54.5q0 21 -11.5 36t-31 26t-45 20t-54.5 18q-39 12 -80 27t-74.5 39.5t-55 61t-21.5 91.5q0 48 19 87.5t52.5 67.5t81 43.5t104.5 15.5q47 0 93.5 -10.5t85.5 -34
t67 -61t40 -91.5l-149 -34q-17 51 -47 73.5t-80 22.5q-45 0 -72.5 -18.5t-27.5 -51.5q0 -18 10.5 -30.5t28.5 -22t41.5 -16.5t50.5 -15q41 -12 84.5 -27t79.5 -40.5t59.5 -64.5t23.5 -99q0 -50 -19.5 -91t-55 -70t-85.5 -44.5t-111 -15.5zM138 -172l96 142h132l-116 -142
h-112z" />
    <glyph glyph-name="uni0219" unicode="&#x219;" horiz-adv-x="524" 
d="M274 -10q-45 0 -85.5 8.5t-72.5 26t-53.5 44.5t-29.5 64l132 37q13 -41 38.5 -56.5t60.5 -15.5q26 0 48.5 9.5t22.5 34.5q0 15 -9 25t-23.5 17t-33.5 11.5t-40 8.5q-42 8 -76 19.5t-58 29t-36.5 43t-12.5 61.5q0 78 57 121t154 43q37 0 72.5 -7.5t64.5 -23t51 -40.5
t32 -61l-139 -30q-12 32 -33.5 45t-52.5 13q-28 0 -45.5 -10t-17.5 -30q0 -23 30.5 -34t73.5 -20q47 -10 83 -22.5t60.5 -31t37.5 -44.5t13 -65q0 -46 -18 -78t-47.5 -52.5t-68 -30t-79.5 -9.5zM109 -172l96 142h132l-116 -142h-112z" />
    <glyph glyph-name="uni021A" unicode="&#x21a;" horiz-adv-x="516" 
d="M507 713v-145h-166v-568h-165v568h-166v145h497zM96 -172l96 142h132l-116 -142h-112z" />
    <glyph glyph-name="uni021B" unicode="&#x21b;" horiz-adv-x="417" 
d="M279 0q-79 0 -121 43.5t-42 122.5v224h-99v121h34q19 0 34.5 4t26.5 15t17 30.5t6 50.5v62h139v-162h106v-121h-106v-200q0 -35 16 -50t45 -15h45v-125h-101zM83 -172l96 142h132l-116 -142h-112z" />
    <glyph glyph-name="uni0232" unicode="&#x232;" horiz-adv-x="636" 
d="M482 877v-99h-327v99h327zM637 713l-236 -373v-340h-165v335l-239 378h182l139 -230l139 230h180z" />
    <glyph glyph-name="uni0233" unicode="&#x233;" horiz-adv-x="600" 
d="M448 689v-99h-287v99h287zM417 511h172l-321 -754h-172l121 272l-207 482h172l117 -319z" />
    <glyph glyph-name="uni0237" unicode="&#x237;" horiz-adv-x="270" 
d="M-52 -122q33 0 53.5 8t32 25t15.5 43t4 63v494h159v-494q0 -130 -60.5 -195t-203.5 -65v121z" />
    <glyph glyph-name="uni0272" unicode="&#x272;" horiz-adv-x="623" 
d="M374 521q99 0 147.5 -47t48.5 -132v-342h-158v309q0 47 -26 67t-63 20q-20 0 -39 -5t-34 -17.5t-25 -32.5t-13 -50v-274q0 -130 -60.5 -195t-203.5 -65v121q33 0 53.5 8t32 25t15.5 43t4 63v494h150l6 -58q28 32 69.5 50t95.5 18z" />
    <glyph glyph-name="circumflex" unicode="&#x2c6;" horiz-adv-x="498" 
d="M64 571l96 142h178l96 -142h-130l-55 69l-55 -69h-130z" />
    <glyph glyph-name="caron" unicode="&#x2c7;" horiz-adv-x="498" 
d="M160 571l-96 142h130l55 -70l55 70h130l-96 -142h-178z" />
    <glyph glyph-name="breve" unicode="&#x2d8;" horiz-adv-x="493" 
d="M246 561q-41 0 -74.5 8t-57.5 26t-37 47t-13 71h112q0 -33 17 -52t53 -19q38 0 55 19t17 52h112q0 -42 -13.5 -71t-37.5 -47t-58 -26t-75 -8z" />
    <glyph glyph-name="dotaccent" unicode="&#x2d9;" horiz-adv-x="305" 
d="M153 574q-37 0 -63 26t-26 63q0 36 26 62t63 26q36 0 62 -26t26 -62q0 -37 -26 -63t-62 -26z" />
    <glyph glyph-name="ring" unicode="&#x2da;" horiz-adv-x="381" 
d="M191 562q-59 0 -93 36t-34 88q0 25 8.5 47t25 38.5t40 26.5t53.5 10q29 0 52.5 -10t40 -26.5t25 -38.5t8.5 -47q0 -52 -33.5 -88t-92.5 -36zM191 637q21 0 35.5 13t14.5 36t-14.5 35.5t-35.5 12.5q-20 0 -34.5 -12.5t-14.5 -35.5t14.5 -36t34.5 -13z" />
    <glyph glyph-name="ogonek" unicode="&#x2db;" horiz-adv-x="305" 
d="M163 -218q-39 0 -69 15.5t-30 52.5q0 21 11 42t29.5 42t42.5 42t51 42l43 -18q-34 -26 -54.5 -52.5t-20.5 -46.5q0 -11 9.5 -17.5t23.5 -6.5q23 0 42 16v-96q-17 -8 -37 -11.5t-41 -3.5z" />
    <glyph glyph-name="tilde" unicode="&#x2dc;" horiz-adv-x="463" 
d="M290 563q-36 0 -55 14.5t-31 28.5q-9 11 -17.5 18t-21.5 7q-15 0 -20.5 -18.5t-5.5 -42.5h-75q0 63 29 104.5t81 41.5q35 0 54 -14.5t32 -29.5q9 -11 18 -18t21 -7q15 0 19.5 18t4.5 44h76q0 -31 -7 -57.5t-20.5 -46t-34 -31t-47.5 -11.5z" />
    <glyph glyph-name="hungarumlaut" unicode="&#x2dd;" horiz-adv-x="589" 
d="M64 571l96 142h159l-117 -142h-138zM271 571l96 142h159l-117 -142h-138z" />
    <glyph glyph-name="gravecomb" unicode="&#x300;" 
d="M-202 571l-116 142h167l88 -142h-139z" />
    <glyph glyph-name="acutecomb" unicode="&#x301;" 
d="M-318 571l87 142h168l-117 -142h-138z" />
    <glyph glyph-name="uni0302" unicode="&#x302;" 
d="M-434 571l96 142h178l96 -142h-130l-55 69l-55 -69h-130z" />
    <glyph glyph-name="tildecomb" unicode="&#x303;" 
d="M-173 563q-36 0 -55 14.5t-31 28.5q-9 11 -17.5 18t-21.5 7q-15 0 -20.5 -18.5t-5.5 -42.5h-75q0 63 29 104.5t81 41.5q35 0 54 -14.5t32 -29.5q9 -11 18 -18t21 -7q15 0 19.5 18t4.5 44h76q0 -31 -7 -57.5t-20.5 -46t-34 -31t-47.5 -11.5z" />
    <glyph glyph-name="uni0304" unicode="&#x304;" 
d="M-351 590v99h287v-99h-287z" />
    <glyph glyph-name="uni0306" unicode="&#x306;" 
d="M-247 561q-41 0 -74.5 8t-57.5 26t-37 47t-13 71h112q0 -33 17 -52t53 -19q38 0 55 19t17 52h112q0 -42 -13.5 -71t-37.5 -47t-58 -26t-75 -8z" />
    <glyph glyph-name="uni0307" unicode="&#x307;" 
d="M-152 574q-37 0 -63 26t-26 63q0 36 26 62t63 26q36 0 62 -26t26 -62q0 -37 -26 -63t-62 -26z" />
    <glyph glyph-name="uni0308" unicode="&#x308;" 
d="M-370 574q-37 0 -63 26t-26 63q0 36 26 62t63 26q36 0 62 -26t26 -62q0 -37 -26 -63t-62 -26zM-152 574q-37 0 -63 26t-26 63q0 36 26 62t63 26q36 0 62 -26t26 -62q0 -37 -26 -63t-62 -26z" />
    <glyph glyph-name="hookabovecomb" unicode="&#x309;" 
d="M-257 546v60q44 5 61.5 15.5t17.5 26.5q0 29 -41 29q-13 0 -28 -4t-35 -14l-40 61q30 14 59.5 22.5t65.5 8.5q68 0 100.5 -23.5t32.5 -62.5q0 -19 -7 -32t-18 -21.5t-26 -14t-30 -9.5v-42h-112z" />
    <glyph glyph-name="uni030A" unicode="&#x30a;" 
d="M-190 562q-59 0 -93 36t-34 88q0 25 8.5 47t25 38.5t40 26.5t53.5 10q29 0 52.5 -10t40 -26.5t25 -38.5t8.5 -47q0 -52 -33.5 -88t-92.5 -36zM-190 637q21 0 35.5 13t14.5 36t-14.5 35.5t-35.5 12.5q-20 0 -34.5 -12.5t-14.5 -35.5t14.5 -36t34.5 -13z" />
    <glyph glyph-name="uni030B" unicode="&#x30b;" 
d="M-525 571l96 142h159l-117 -142h-138zM-318 571l96 142h159l-117 -142h-138z" />
    <glyph glyph-name="uni030C" unicode="&#x30c;" 
d="M-338 571l-96 142h130l55 -70l55 70h130l-96 -142h-178z" />
    <glyph glyph-name="uni0312" unicode="&#x312;" 
d="M-292 571l116 142h112l-96 -142h-132z" />
    <glyph glyph-name="uni031B" unicode="&#x31b;" 
d="M-190 366q-21 0 -47.5 8t-52.5 24l24 53q15 -8 27.5 -11.5t21.5 -3.5q28 0 37.5 13t9.5 52v67h106v-85q0 -38 -13 -61t-32 -35.5t-41 -16.5t-40 -4z" />
    <glyph glyph-name="dotbelowcomb" unicode="&#x323;" 
d="M-152 -236q-37 0 -63 25.5t-26 63.5q0 36 26 61.5t63 25.5q36 0 62 -25.5t26 -61.5q0 -38 -26 -63.5t-62 -25.5z" />
    <glyph glyph-name="uni0326" unicode="&#x326;" 
d="M-292 -172l96 142h132l-116 -142h-112z" />
    <glyph glyph-name="uni0327" unicode="&#x327;" 
d="M-156 -48q42 0 67 -25.5t25 -66.5q0 -45 -32 -76.5t-85 -31.5q-57 0 -88 21.5t-41 53.5l86 23q5 -14 16 -21t24 -7q16 0 28 10t12 28q0 20 -12 29.5t-28 9.5q-23 0 -35 -17l-73 31l78 129l75 -28l-44 -65q15 3 27 3z" />
    <glyph glyph-name="uni0328" unicode="&#x328;" 
d="M-142 -218q-39 0 -69 15.5t-30 52.5q0 21 11 42t29.5 42t42.5 42t51 42l43 -18q-34 -26 -54.5 -52.5t-20.5 -46.5q0 -11 9.5 -17.5t23.5 -6.5q23 0 42 16v-96q-17 -8 -37 -11.5t-41 -3.5z" />
    <glyph glyph-name="uni0335" unicode="&#x335;" 
d="M-416 202v95h352v-95h-352z" />
    <glyph glyph-name="uni0336" unicode="&#x336;" 
d="M-813 230v60h750v-60h-750z" />
    <glyph glyph-name="uni0337" unicode="&#x337;" 
d="M-391 120v131l327 242v-132z" />
    <glyph glyph-name="uni0338" unicode="&#x338;" 
d="M-456 66l-60 35l393 564l59 -35z" />
    <glyph glyph-name="uni0394" unicode="&#x394;" horiz-adv-x="823" 
d="M498 750l301 -750h-776l301 750h174zM412 584l-168 -435h335z" />
    <glyph glyph-name="uni03A9" unicode="&#x3a9;" horiz-adv-x="852" 
d="M50 0v136h112v4q-16 18 -34 44.5t-32 59.5t-23.5 71t-9.5 79q0 64 25.5 124.5t73 108t114.5 76.5t150 29q82 0 149 -28.5t114.5 -75.5t73.5 -108t26 -127q0 -41 -9.5 -79t-23.5 -70.5t-31.5 -59t-34.5 -44.5v-4h112v-136h-331v106q28 24 53.5 49.5t44.5 56t30 66.5t11 81
q0 49 -14 89t-38.5 68.5t-58.5 44t-73 15.5t-73 -15.5t-58.5 -44t-38.5 -68.5t-14 -89q0 -45 11 -81t30 -66.5t44.5 -56t53.5 -49.5v-106h-331z" />
    <glyph glyph-name="uni03BC" unicode="&#x3bc;" horiz-adv-x="627" 
d="M411 511h158v-511h-150l-6 59q-28 -33 -69.5 -51t-95.5 -18q-10 0 -19 0.5t-18 1.5v-235h-159v754h159v-310q0 -47 25.5 -66t62.5 -19q21 0 41 6t36 20t25.5 37.5t9.5 59.5v272z" />
    <glyph glyph-name="pi" unicode="&#x3c0;" horiz-adv-x="657" 
d="M71 0q14 42 25 96.5t19 110t12 106.5t4 85l-101 -5l-15 118h625v-113h-83v-255q0 -45 3.5 -82t9.5 -61h-144q-11 17 -14.5 54.5t-3.5 82.5v261h-131q-1 -38 -5 -91.5t-11.5 -110t-19 -108.5t-26.5 -88h-144z" />
    <glyph glyph-name="Wgrave" unicode="&#x1e80;" horiz-adv-x="1077" 
d="M607 743h-138l-114 138h167zM894 713h171l-180 -713h-219l-128 409l-127 -409h-219l-180 713h171l131 -534l155 534h139l154 -534z" />
    <glyph glyph-name="wgrave" unicode="&#x1e81;" horiz-adv-x="910" 
d="M526 571h-139l-116 142h167zM729 511h168l-177 -511h-161l-104 312l-104 -312h-161l-177 511h168l98 -318l114 318h125l113 -317z" />
    <glyph glyph-name="Wacute" unicode="&#x1e82;" horiz-adv-x="1077" 
d="M721 881l-114 -138h-138l85 138h167zM894 713h171l-180 -713h-219l-128 409l-127 -409h-219l-180 713h171l131 -534l155 534h139l154 -534z" />
    <glyph glyph-name="wacute" unicode="&#x1e83;" horiz-adv-x="910" 
d="M640 713l-117 -142h-138l87 142h168zM729 511h168l-177 -511h-161l-104 312l-104 -312h-161l-177 511h168l98 -318l114 318h125l113 -317z" />
    <glyph glyph-name="Wdieresis" unicode="&#x1e84;" horiz-adv-x="1077" 
d="M429 748q-37 0 -63 26t-26 63q0 36 26 62t63 26q36 0 62 -26t26 -62q0 -37 -26 -63t-62 -26zM647 748q-37 0 -63 26t-26 63q0 36 26 62t63 26q36 0 62 -26t26 -62q0 -37 -26 -63t-62 -26zM894 713h171l-180 -713h-219l-128 409l-127 -409h-219l-180 713h171l131 -534
l155 534h139l154 -534z" />
    <glyph glyph-name="wdieresis" unicode="&#x1e85;" horiz-adv-x="910" 
d="M346 574q-37 0 -63 26t-26 63q0 36 26 62t63 26q36 0 62 -26t26 -62q0 -37 -26 -63t-62 -26zM564 574q-37 0 -63 26t-26 63q0 36 26 62t63 26q36 0 62 -26t26 -62q0 -37 -26 -63t-62 -26zM729 511h168l-177 -511h-161l-104 312l-104 -312h-161l-177 511h168l98 -318
l114 318h125l113 -317z" />
    <glyph glyph-name="uni1E9E" unicode="&#x1e9e;" horiz-adv-x="763" 
d="M541 407q36 -11 69.5 -27.5t59 -40.5t41 -56.5t15.5 -75.5q0 -50 -18 -91t-50.5 -70t-78 -44.5t-100.5 -15.5q-62 0 -107.5 9.5t-81.5 29.5l85 125q19 -13 43 -21.5t57 -8.5q40 0 63 19.5t23 54.5q0 24 -12.5 41t-34 29t-50.5 21.5t-61 19.5l-78 26l136 237h-232v-568
h-165v713h593v-122z" />
    <glyph glyph-name="uni1EA0" unicode="&#x1ea0;" horiz-adv-x="742" 
d="M737 0h-176l-49 140h-283l-49 -140h-175l264 713h204zM278 277h186l-93 265zM372 -60q36 0 62 -25.5t26 -61.5q0 -38 -26 -63.5t-62 -25.5q-37 0 -63 25.5t-26 63.5q0 36 26 61.5t63 25.5z" />
    <glyph glyph-name="uni1EA1" unicode="&#x1ea1;" horiz-adv-x="579" 
d="M522 91q0 -22 1.5 -41t9.5 -36v-14h-157l-6 61q-27 -38 -73 -54.5t-94 -16.5q-30 0 -60 7t-54.5 23.5t-39.5 43.5t-15 66q0 44 18 73t46.5 48t62.5 30t66 18l88 20q20 5 34.5 12.5t14.5 26.5q0 29 -24.5 40t-53.5 11q-39 0 -64.5 -17.5t-33.5 -53.5l-151 23
q17 83 84.5 121.5t166.5 38.5q115 0 174.5 -48t59.5 -141v-241zM250 98q21 0 43 9t40 26.5t29 44t11 61.5l-121 -34q-20 -5 -39.5 -17t-19.5 -41q0 -25 16 -37t41 -12zM324 -60q36 0 62 -25.5t26 -61.5q0 -38 -26 -63.5t-62 -25.5q-37 0 -63 25.5t-26 63.5q0 36 26 61.5
t63 25.5z" />
    <glyph glyph-name="uni1EA2" unicode="&#x1ea2;" horiz-adv-x="742" 
d="M361 882q-12 0 -26.5 -4t-27.5 -14l-40 53q23 14 47.5 22t60.5 8q61 0 92.5 -23.5t31.5 -62.5q0 -19 -7 -32t-18 -21.5t-26 -14t-30 -9.5v-41h-94v68q43 5 60.5 15.5t17.5 26.5q0 29 -41 29zM561 0l-49 140h-283l-49 -140h-175l264 713h204l264 -713h-176zM278 277h186
l-93 265z" />
    <glyph glyph-name="uni1EA3" unicode="&#x1ea3;" horiz-adv-x="579" 
d="M274 677q-13 0 -28 -4t-35 -14l-40 61q30 14 59.5 22.5t65.5 8.5q68 0 100.5 -23.5t32.5 -62.5q0 -19 -7 -32t-18 -21.5t-26 -14t-30 -9.5v-42h-112v60q44 5 61.5 15.5t17.5 26.5q0 29 -41 29zM522 91q0 -22 1.5 -41t9.5 -36v-14h-157l-6 61q-27 -38 -73 -54.5t-94 -16.5
q-30 0 -60 7t-54.5 23.5t-39.5 43.5t-15 66q0 44 18 73t46.5 48t62.5 30t66 18l88 20q20 5 34.5 12.5t14.5 26.5q0 29 -24.5 40t-53.5 11q-39 0 -64.5 -17.5t-33.5 -53.5l-151 23q17 83 84.5 121.5t166.5 38.5q115 0 174.5 -48t59.5 -141v-241zM250 98q21 0 43 9t40 26.5
t29 44t11 61.5l-121 -34q-20 -5 -39.5 -17t-19.5 -41q0 -25 16 -37t41 -12z" />
    <glyph glyph-name="uni1EA4" unicode="&#x1ea4;" horiz-adv-x="742" 
d="M372 810l-56 -65h-130l96 136h179l5 -7l46 74h167l-113 -138h-55l46 -65h-130zM561 0l-49 140h-283l-49 -140h-175l264 713h204l264 -713h-176zM278 277h186l-93 265z" />
    <glyph glyph-name="uni1EA5" unicode="&#x1ea5;" horiz-adv-x="579" 
d="M293 640l-55 -69h-130l96 142h178l7 -11l50 81h168l-117 -142h-59l47 -70h-130zM522 91q0 -22 1.5 -41t9.5 -36v-14h-157l-6 61q-27 -38 -73 -54.5t-94 -16.5q-30 0 -60 7t-54.5 23.5t-39.5 43.5t-15 66q0 44 18 73t46.5 48t62.5 30t66 18l88 20q20 5 34.5 12.5
t14.5 26.5q0 29 -24.5 40t-53.5 11q-39 0 -64.5 -17.5t-33.5 -53.5l-151 23q17 83 84.5 121.5t166.5 38.5q115 0 174.5 -48t59.5 -141v-241zM250 98q21 0 43 9t40 26.5t29 44t11 61.5l-121 -34q-20 -5 -39.5 -17t-19.5 -41q0 -25 16 -37t41 -12z" />
    <glyph glyph-name="uni1EA6" unicode="&#x1ea6;" horiz-adv-x="742" 
d="M688 810h-138l-114 138h167zM372 810l-56 -65h-130l96 136h179l96 -136h-130zM561 0l-49 140h-283l-49 -140h-175l264 713h204l264 -713h-176zM278 277h186l-93 265z" />
    <glyph glyph-name="uni1EA7" unicode="&#x1ea7;" horiz-adv-x="579" 
d="M618 641h-138l-117 142h168zM293 640l-55 -69h-130l96 142h178l96 -142h-130zM522 91q0 -22 1.5 -41t9.5 -36v-14h-157l-6 61q-27 -38 -73 -54.5t-94 -16.5q-30 0 -60 7t-54.5 23.5t-39.5 43.5t-15 66q0 44 18 73t46.5 48t62.5 30t66 18l88 20q20 5 34.5 12.5t14.5 26.5
q0 29 -24.5 40t-53.5 11q-39 0 -64.5 -17.5t-33.5 -53.5l-151 23q17 83 84.5 121.5t166.5 38.5q115 0 174.5 -48t59.5 -141v-241zM250 98q21 0 43 9t40 26.5t29 44t11 61.5l-121 -34q-20 -5 -39.5 -17t-19.5 -41q0 -25 16 -37t41 -12z" />
    <glyph glyph-name="uni1EA8" unicode="&#x1ea8;" horiz-adv-x="742" 
d="M564 950q-13 0 -27.5 -4t-27.5 -15l-40 53q23 14 47.5 22.5t60.5 8.5q61 0 92.5 -23.5t31.5 -62.5q0 -19 -7 -32t-18 -21.5t-26 -14t-30 -9.5v-41h-94v68q44 5 61 15.5t17 26.5q0 29 -40 29zM372 810l-56 -65h-130l96 136h179l96 -136h-130zM561 0l-49 140h-283l-49 -140
h-175l264 713h204l264 -713h-176zM278 277h186l-93 265z" />
    <glyph glyph-name="uni1EA9" unicode="&#x1ea9;" horiz-adv-x="579" 
d="M494 846q69 0 101.5 -24t32.5 -62q0 -19 -7 -32t-18.5 -21.5t-26.5 -14t-30 -9.5v-42h-111v60q43 5 60.5 15.5t17.5 26.5q0 29 -41 29q-12 0 -27.5 -4t-35.5 -15l-40 62q30 14 59.5 22.5t65.5 8.5zM293 640l-55 -69h-130l96 142h178l96 -142h-130zM522 91q0 -22 1.5 -41
t9.5 -36v-14h-157l-6 61q-27 -38 -73 -54.5t-94 -16.5q-30 0 -60 7t-54.5 23.5t-39.5 43.5t-15 66q0 44 18 73t46.5 48t62.5 30t66 18l88 20q20 5 34.5 12.5t14.5 26.5q0 29 -24.5 40t-53.5 11q-39 0 -64.5 -17.5t-33.5 -53.5l-151 23q17 83 84.5 121.5t166.5 38.5
q115 0 174.5 -48t59.5 -141v-241zM250 98q21 0 43 9t40 26.5t29 44t11 61.5l-121 -34q-20 -5 -39.5 -17t-19.5 -41q0 -25 16 -37t41 -12z" />
    <glyph glyph-name="uni1EAA" unicode="&#x1eaa;" horiz-adv-x="742" 
d="M304 966q-14 0 -19.5 -18.5t-5.5 -42.5h-76q0 63 29.5 104.5t80.5 41.5q35 0 54.5 -14.5t32.5 -28.5q9 -11 17.5 -18.5t21.5 -7.5q15 0 19.5 18t4.5 44h76q0 -31 -7 -57.5t-21 -46t-34.5 -31t-47.5 -11.5q-35 0 -54 14.5t-31 28.5q-9 11 -18 18t-22 7zM372 810l-56 -65
h-130l96 136h179l96 -136h-129zM561 0l-49 140h-283l-49 -140h-175l264 713h204l264 -713h-176zM278 277h186l-93 265z" />
    <glyph glyph-name="uni1EAB" unicode="&#x1eab;" horiz-adv-x="579" 
d="M225 811q-14 0 -19.5 -18.5t-5.5 -43.5h-76q0 64 29.5 105t80.5 41q35 0 54.5 -14t32.5 -29q9 -11 17.5 -18t21.5 -7q15 0 19.5 18t4.5 44h76q0 -31 -7 -57.5t-21 -46t-34.5 -31t-47.5 -11.5q-35 0 -54 14t-31 29q-9 10 -18 17.5t-22 7.5zM293 640l-56 -69h-129l96 142
h178l96 -142h-130zM522 91q0 -22 1.5 -41t9.5 -36v-14h-157l-6 61q-27 -38 -73 -54.5t-94 -16.5q-30 0 -60 7t-54.5 23.5t-39.5 43.5t-15 66q0 44 18 73t46.5 48t62.5 30t66 18l88 20q20 5 34.5 12.5t14.5 26.5q0 29 -24.5 40t-53.5 11q-39 0 -64.5 -17.5t-33.5 -53.5
l-151 23q17 83 84.5 121.5t166.5 38.5q115 0 174.5 -48t59.5 -141v-241zM250 98q21 0 43 9t40 26.5t29 44t11 61.5l-121 -34q-20 -5 -39.5 -17t-19.5 -41q0 -25 16 -37t41 -12z" />
    <glyph glyph-name="uni1EAC" unicode="&#x1eac;" horiz-adv-x="742" 
d="M372 810l-56 -65h-130l96 136h179l96 -136h-130zM737 0h-176l-49 140h-283l-49 -140h-175l264 713h204zM278 277h186l-93 265zM372 -60q36 0 62 -25.5t26 -61.5q0 -38 -26 -63.5t-62 -25.5q-37 0 -63 25.5t-26 63.5q0 36 26 61.5t63 25.5z" />
    <glyph glyph-name="uni1EAD" unicode="&#x1ead;" horiz-adv-x="579" 
d="M293 640l-55 -69h-130l96 142h178l96 -142h-130zM522 91q0 -22 1.5 -41t9.5 -36v-14h-157l-6 61q-27 -38 -73 -54.5t-94 -16.5q-30 0 -60 7t-54.5 23.5t-39.5 43.5t-15 66q0 44 18 73t46.5 48t62.5 30t66 18l88 20q20 5 34.5 12.5t14.5 26.5q0 29 -24.5 40t-53.5 11
q-39 0 -64.5 -17.5t-33.5 -53.5l-151 23q17 83 84.5 121.5t166.5 38.5q115 0 174.5 -48t59.5 -141v-241zM250 98q21 0 43 9t40 26.5t29 44t11 61.5l-121 -34q-20 -5 -39.5 -17t-19.5 -41q0 -25 16 -37t41 -12zM324 -60q36 0 62 -25.5t26 -61.5q0 -38 -26 -63.5t-62 -25.5
q-37 0 -63 25.5t-26 63.5q0 36 26 61.5t63 25.5z" />
    <glyph glyph-name="uni1EAE" unicode="&#x1eae;" horiz-adv-x="742" 
d="M555 1041l-114 -138h-139l85 138h168zM371 744q-40 0 -73.5 6t-57.5 21.5t-37 42t-14 67.5h99q1 -32 20.5 -45.5t62.5 -13.5t62.5 13.5t21.5 45.5h99q-1 -41 -14.5 -67.5t-37.5 -42t-57 -21.5t-74 -6zM561 0l-49 140h-283l-49 -140h-175l264 713h204l264 -713h-176z
M278 277h186l-93 265z" />
    <glyph glyph-name="uni1EAF" unicode="&#x1eaf;" horiz-adv-x="579" 
d="M479 876l-117 -142h-138l87 142h168zM293 561q-41 0 -74.5 8t-57.5 26t-37 47t-13 71h112q0 -33 17 -52t53 -19q38 0 55 19t17 52h112q0 -42 -13.5 -71t-37.5 -47t-58 -26t-75 -8zM522 91q0 -22 1.5 -41t9.5 -36v-14h-157l-6 61q-27 -38 -73 -54.5t-94 -16.5q-30 0 -60 7
t-54.5 23.5t-39.5 43.5t-15 66q0 44 18 73t46.5 48t62.5 30t66 18l88 20q20 5 34.5 12.5t14.5 26.5q0 29 -24.5 40t-53.5 11q-39 0 -64.5 -17.5t-33.5 -53.5l-151 23q17 83 84.5 121.5t166.5 38.5q115 0 174.5 -48t59.5 -141v-241zM250 98q21 0 43 9t40 26.5t29 44t11 61.5
l-121 -34q-20 -5 -39.5 -17t-19.5 -41q0 -25 16 -37t41 -12z" />
    <glyph glyph-name="uni1EB0" unicode="&#x1eb0;" horiz-adv-x="742" 
d="M441 903h-139l-113 138h167zM371 744q-40 0 -73.5 6t-57.5 21.5t-37.5 42t-13.5 67.5h98q2 -32 21.5 -45.5t62.5 -13.5t62.5 13.5t21.5 45.5h98q0 -41 -13.5 -67.5t-37.5 -42t-57 -21.5t-74 -6zM561 0l-49 140h-283l-49 -140h-175l264 713h204l264 -713h-176zM278 277
h186l-93 265z" />
    <glyph glyph-name="uni1EB1" unicode="&#x1eb1;" horiz-adv-x="579" 
d="M364 734h-138l-117 142h168zM293 642q37 0 54.5 19t17.5 52h111q0 -42 -13 -71t-37 -47t-58 -26t-75 -8t-74.5 8t-57.5 26t-37 47t-13 71h112q0 -33 17 -52t53 -19zM522 91q0 -22 1.5 -41t9.5 -36v-14h-157l-6 61q-27 -38 -73 -54.5t-94 -16.5q-30 0 -60 7t-54.5 23.5
t-39.5 43.5t-15 66q0 44 18 73t46.5 48t62.5 30t66 18l88 20q20 5 34.5 12.5t14.5 26.5q0 29 -24.5 40t-53.5 11q-39 0 -64.5 -17.5t-33.5 -53.5l-151 23q17 83 84.5 121.5t166.5 38.5q115 0 174.5 -48t59.5 -141v-241zM250 98q21 0 43 9t40 26.5t29 44t11 61.5l-121 -34
q-20 -5 -39.5 -17t-19.5 -41q0 -25 16 -37t41 -12z" />
    <glyph glyph-name="uni1EB2" unicode="&#x1eb2;" horiz-adv-x="742" 
d="M362 1015q-13 0 -27 -4t-28 -14l-40 53q23 14 47.5 22t60.5 8q62 0 93.5 -23.5t31.5 -62.5q0 -19 -7 -32t-18.5 -21.5t-26.5 -14t-30 -8.5v-42h-94v68q44 5 61.5 15.5t17.5 26.5q0 29 -41 29zM371 744q-40 0 -73.5 6t-57.5 21.5t-37 42t-14 67.5h99q1 -32 20.5 -45.5
t62.5 -13.5t62.5 13.5t21.5 45.5h99q-1 -41 -14.5 -67.5t-37.5 -42t-57 -21.5t-74 -6zM561 0l-49 140h-283l-49 -140h-175l264 713h204l264 -713h-176zM278 277h186l-93 265z" />
    <glyph glyph-name="uni1EB3" unicode="&#x1eb3;" horiz-adv-x="579" 
d="M284 828q-12 0 -26.5 -4.5t-28.5 -14.5l-39 53q23 14 47.5 22t59.5 8q62 0 93.5 -23.5t31.5 -62.5q0 -19 -7 -32t-18 -21.5t-26 -14t-30 -8.5v-25h-94v51q43 5 60.5 15.5t17.5 27.5q0 13 -10.5 21t-30.5 8zM293 561q-41 0 -74.5 8t-57.5 26t-37 47t-13 71h112
q0 -33 17 -52t53 -19q38 0 55 19t17 52h112q0 -42 -13.5 -71t-37.5 -47t-58 -26t-75 -8zM522 91q0 -22 1.5 -41t9.5 -36v-14h-157l-6 61q-27 -38 -73 -54.5t-94 -16.5q-30 0 -60 7t-54.5 23.5t-39.5 43.5t-15 66q0 44 18 73t46.5 48t62.5 30t66 18l88 20q20 5 34.5 12.5
t14.5 26.5q0 29 -24.5 40t-53.5 11q-39 0 -64.5 -17.5t-33.5 -53.5l-151 23q17 83 84.5 121.5t166.5 38.5q115 0 174.5 -48t59.5 -141v-241zM250 98q21 0 43 9t40 26.5t29 44t11 61.5l-121 -34q-20 -5 -39.5 -17t-19.5 -41q0 -25 16 -37t41 -12z" />
    <glyph glyph-name="uni1EB4" unicode="&#x1eb4;" horiz-adv-x="742" 
d="M305 979q-15 0 -20.5 -18.5t-5.5 -43.5h-75q0 64 29 105t80 41q35 0 54.5 -14t32.5 -29q9 -11 17.5 -18t21.5 -7q15 0 19.5 18t4.5 44h76q0 -31 -7 -57.5t-21 -46t-34.5 -31t-47.5 -11.5q-35 0 -54 14t-31 29q-9 10 -18 17.5t-21 7.5zM371 744q-40 0 -73.5 6t-57.5 21.5
t-37 42t-14 67.5h99q1 -32 21 -45.5t62 -13.5q43 0 62.5 13.5t21.5 45.5h99q-1 -41 -14.5 -67.5t-37.5 -42t-57 -21.5t-74 -6zM561 0l-49 140h-283l-49 -140h-175l264 713h204l264 -713h-176zM278 277h186l-93 265z" />
    <glyph glyph-name="uni1EB5" unicode="&#x1eb5;" horiz-adv-x="579" 
d="M227 833q-15 0 -20.5 -18.5t-5.5 -42.5h-75q0 63 29 104.5t80 41.5q35 0 54.5 -14.5t32.5 -28.5q9 -11 17.5 -18.5t21.5 -7.5q15 0 19.5 18t4.5 44h76q0 -31 -7 -57.5t-21 -46t-34.5 -31t-47.5 -11.5q-35 0 -54 14.5t-31 28.5q-9 11 -18 18t-21 7zM293 561q-41 0 -74.5 8
t-57.5 26t-37.5 47t-13.5 71h112q0 -33 17 -52t54 -19t54 19t17 52h112q0 -42 -13 -71t-37 -47t-58 -26t-75 -8zM522 91q0 -22 1.5 -41t9.5 -36v-14h-157l-6 61q-27 -38 -73 -54.5t-94 -16.5q-30 0 -60 7t-54.5 23.5t-39.5 43.5t-15 66q0 44 18 73t46.5 48t62.5 30t66 18
l88 20q20 5 34.5 12.5t14.5 26.5q0 29 -24.5 40t-53.5 11q-39 0 -64.5 -17.5t-33.5 -53.5l-151 23q17 83 84.5 121.5t166.5 38.5q115 0 174.5 -48t59.5 -141v-241zM250 98q21 0 43 9t40 26.5t29 44t11 61.5l-121 -34q-20 -5 -39.5 -17t-19.5 -41q0 -25 16 -37t41 -12z" />
    <glyph glyph-name="uni1EB6" unicode="&#x1eb6;" horiz-adv-x="742" 
d="M371 744q-40 0 -73.5 6t-57.5 21.5t-37 42t-14 67.5h99q1 -32 20.5 -45.5t62.5 -13.5t62.5 13.5t21.5 45.5h99q-1 -41 -14.5 -67.5t-37.5 -42t-57 -21.5t-74 -6zM737 0h-176l-49 140h-283l-49 -140h-175l264 713h204zM278 277h186l-93 265zM372 -60q36 0 62 -25.5
t26 -61.5q0 -38 -26 -63.5t-62 -25.5q-37 0 -63 25.5t-26 63.5q0 36 26 61.5t63 25.5z" />
    <glyph glyph-name="uni1EB7" unicode="&#x1eb7;" horiz-adv-x="579" 
d="M293 561q-41 0 -74.5 8t-57.5 26t-37 47t-13 71h112q0 -33 17 -52t53 -19q38 0 55 19t17 52h112q0 -42 -13.5 -71t-37.5 -47t-58 -26t-75 -8zM522 91q0 -22 1.5 -41t9.5 -36v-14h-157l-6 61q-27 -38 -73 -54.5t-94 -16.5q-30 0 -60 7t-54.5 23.5t-39.5 43.5t-15 66
q0 44 18 73t46.5 48t62.5 30t66 18l88 20q20 5 34.5 12.5t14.5 26.5q0 29 -24.5 40t-53.5 11q-39 0 -64.5 -17.5t-33.5 -53.5l-151 23q17 83 84.5 121.5t166.5 38.5q115 0 174.5 -48t59.5 -141v-241zM250 98q21 0 43 9t40 26.5t29 44t11 61.5l-121 -34q-20 -5 -39.5 -17
t-19.5 -41q0 -25 16 -37t41 -12zM324 -60q36 0 62 -25.5t26 -61.5q0 -38 -26 -63.5t-62 -25.5q-37 0 -63 25.5t-26 63.5q0 36 26 61.5t63 25.5z" />
    <glyph glyph-name="uni1EB8" unicode="&#x1eb8;" horiz-adv-x="533" 
d="M488 568h-259v-140h231v-143h-231v-141h259v-144h-424v713h424v-145zM282 -60q36 0 62 -25.5t26 -61.5q0 -38 -26 -63.5t-62 -25.5q-37 0 -63 25.5t-26 63.5q0 36 26 61.5t63 25.5z" />
    <glyph glyph-name="uni1EB9" unicode="&#x1eb9;" horiz-adv-x="604" 
d="M566 224h-376q5 -55 39.5 -83t82.5 -28q37 0 63 15.5t39 47.5l146 -20q-25 -80 -90.5 -123t-156.5 -43q-64 0 -116 18t-88.5 52t-56 83.5t-19.5 111.5q0 63 20 112t56.5 83.5t87 52.5t111.5 18q56 0 103 -15.5t82 -47.5t55 -81t20 -117zM309 404q-47 0 -76 -20t-39 -64
h218q-7 41 -35 62.5t-68 21.5zM320 -61q36 0 62 -25.5t26 -61.5q0 -38 -26 -63.5t-62 -25.5q-37 0 -63 25.5t-26 63.5q0 36 26 61.5t63 25.5z" />
    <glyph glyph-name="uni1EBA" unicode="&#x1eba;" horiz-adv-x="533" 
d="M271 882q-12 0 -26.5 -4t-27.5 -14l-40 53q23 14 47.5 22t60.5 8q61 0 92.5 -23.5t31.5 -62.5q0 -19 -7 -32t-18 -21.5t-26 -14t-30 -9.5v-41h-94v68q43 5 60.5 15.5t17.5 26.5q0 29 -41 29zM488 568h-259v-140h231v-143h-231v-141h259v-144h-424v713h424v-145z" />
    <glyph glyph-name="uni1EBB" unicode="&#x1ebb;" horiz-adv-x="604" 
d="M293 678q-13 0 -28 -4t-35 -14l-40 61q30 14 59.5 22.5t65.5 8.5q68 0 100.5 -23.5t32.5 -62.5q0 -19 -7 -32t-18 -21.5t-26 -14t-30 -9.5v-42h-112v60q44 5 61.5 15.5t17.5 26.5q0 29 -41 29zM566 224h-376q5 -55 39.5 -83t82.5 -28q37 0 63 15.5t39 47.5l146 -20
q-25 -80 -90.5 -123t-156.5 -43q-64 0 -116 18t-88.5 52t-56 83.5t-19.5 111.5q0 63 20 112t56.5 83.5t87 52.5t111.5 18q56 0 103 -15.5t82 -47.5t55 -81t20 -117zM309 404q-47 0 -76 -20t-39 -64h218q-7 41 -35 62.5t-68 21.5z" />
    <glyph glyph-name="uni1EBC" unicode="&#x1ebc;" horiz-adv-x="533" 
d="M214 811q-15 0 -20.5 -18.5t-5.5 -43.5h-75q0 64 29 105t81 41q35 0 54 -14t32 -29q9 -11 18 -18t21 -7q15 0 19.5 18t4.5 44h76q0 -31 -7 -57.5t-20.5 -46t-34 -31t-47.5 -11.5q-36 0 -55 14t-31 29q-9 10 -17.5 17.5t-21.5 7.5zM488 568h-259v-140h231v-143h-231v-141
h259v-144h-424v713h424v-145z" />
    <glyph glyph-name="uni1EBD" unicode="&#x1ebd;" horiz-adv-x="604" 
d="M245 632q-15 0 -20.5 -18.5t-5.5 -42.5h-75q0 63 29 104.5t81 41.5q35 0 54 -14.5t32 -29.5q9 -11 18 -18t21 -7q15 0 19.5 18t4.5 44h76q0 -31 -7 -57.5t-20.5 -46t-34 -31t-47.5 -11.5q-36 0 -55 14.5t-31 28.5q-9 11 -17.5 18t-21.5 7zM566 224h-376q5 -55 39.5 -83
t82.5 -28q37 0 63 15.5t39 47.5l146 -20q-25 -80 -90.5 -123t-156.5 -43q-64 0 -116 18t-88.5 52t-56 83.5t-19.5 111.5q0 63 20 112t56.5 83.5t87 52.5t111.5 18q56 0 103 -15.5t82 -47.5t55 -81t20 -117zM309 404q-47 0 -76 -20t-39 -64h218q-7 41 -35 62.5t-68 21.5z" />
    <glyph glyph-name="uni1EBE" unicode="&#x1ebe;" horiz-adv-x="533" 
d="M282 810l-56 -65h-130l96 136h179l5 -7l46 74h167l-113 -138h-55l46 -65h-130zM64 0v713h424v-145h-259v-140h231v-143h-231v-141h259v-144h-424z" />
    <glyph glyph-name="uni1EBF" unicode="&#x1ebf;" horiz-adv-x="604" 
d="M312 641l-55 -69h-130l96 142h178l7 -11l50 81h168l-117 -142h-59l47 -70h-130zM308 521q56 0 103 -15.5t82 -47.5t55 -81t20 -117l-2 -36h-376q5 -55 39.5 -83t82.5 -28q37 0 63 15.5t39 47.5l146 -20q-25 -80 -90.5 -123t-156.5 -43q-64 0 -116 18t-88.5 52t-56 83.5
t-19.5 111.5q0 63 20 112t56.5 83.5t87 52.5t111.5 18zM309 404q-47 0 -76 -20t-39 -64h218q-7 41 -35 62.5t-68 21.5z" />
    <glyph glyph-name="uni1EC0" unicode="&#x1ec0;" horiz-adv-x="533" 
d="M598 810h-138l-114 138h167zM282 810l-56 -65h-130l96 136h179l96 -136h-130zM64 0v713h424v-145h-259v-140h231v-143h-231v-141h259v-144h-424z" />
    <glyph glyph-name="uni1EC1" unicode="&#x1ec1;" horiz-adv-x="604" 
d="M637 642h-138l-117 142h168zM312 641l-55 -69h-130l96 142h178l96 -142h-130zM308 521q56 0 103 -15.5t82 -47.5t55 -81t20 -117l-2 -36h-376q5 -55 39.5 -83t82.5 -28q37 0 63 15.5t39 47.5l146 -20q-25 -80 -90.5 -123t-156.5 -43q-64 0 -116 18t-88.5 52t-56 83.5
t-19.5 111.5q0 63 20 112t56.5 83.5t87 52.5t111.5 18zM309 404q-47 0 -76 -20t-39 -64h218q-7 41 -35 62.5t-68 21.5z" />
    <glyph glyph-name="uni1EC2" unicode="&#x1ec2;" horiz-adv-x="533" 
d="M487 1015q61 0 92.5 -23.5t31.5 -62.5q0 -19 -7 -32t-18 -21.5t-26 -14t-30 -9.5v-41h-94v68q44 5 61 15.5t17 26.5q0 29 -40 29q-13 0 -27.5 -4t-27.5 -15l-40 53q23 14 47.5 22.5t60.5 8.5zM282 810l-56 -65h-130l96 136h179l96 -136h-130zM64 0v713h424v-145h-259
v-140h231v-143h-231v-141h259v-144h-424z" />
    <glyph glyph-name="uni1EC3" unicode="&#x1ec3;" horiz-adv-x="604" 
d="M513 847q69 0 101.5 -24t32.5 -62q0 -19 -7 -32t-18.5 -21.5t-26.5 -14t-30 -9.5v-42h-111v60q43 5 60.5 15.5t17.5 26.5q0 29 -41 29q-12 0 -27.5 -4t-35.5 -15l-40 62q30 14 59.5 22.5t65.5 8.5zM312 641l-55 -69h-130l96 142h178l96 -142h-130zM308 521
q56 0 103 -15.5t82 -47.5t55 -81t20 -117l-2 -36h-376q5 -55 39.5 -83t82.5 -28q37 0 63 15.5t39 47.5l146 -20q-25 -80 -90.5 -123t-156.5 -43q-64 0 -116 18t-88.5 52t-56 83.5t-19.5 111.5q0 63 20 112t56.5 83.5t87 52.5t111.5 18zM309 404q-47 0 -76 -20t-39 -64h218
q-7 41 -35 62.5t-68 21.5z" />
    <glyph glyph-name="uni1EC4" unicode="&#x1ec4;" horiz-adv-x="533" 
d="M214 966q-14 0 -19.5 -18.5t-5.5 -42.5h-76q0 63 29.5 104.5t80.5 41.5q35 0 54.5 -14.5t32.5 -28.5q9 -11 17.5 -18.5t21.5 -7.5q15 0 19.5 18t4.5 44h76q0 -31 -7 -57.5t-21 -46t-34.5 -31t-47.5 -11.5q-35 0 -54 14.5t-31 28.5q-9 11 -18 18t-22 7zM282 810l-56 -65
h-130l96 136h179l96 -136h-129zM488 568h-259v-140h231v-143h-231v-141h259v-144h-424v713h424v-145z" />
    <glyph glyph-name="uni1EC5" unicode="&#x1ec5;" horiz-adv-x="604" 
d="M245 812q-14 0 -19.5 -18.5t-5.5 -43.5h-76q0 64 29.5 105t80.5 41q35 0 54.5 -14t32.5 -29q9 -11 17.5 -18t21.5 -7q15 0 19.5 18t4.5 44h76q0 -31 -7 -57.5t-21 -46t-34.5 -31t-47.5 -11.5q-35 0 -54 14t-31 29q-9 10 -18 17.5t-22 7.5zM313 641l-56 -69h-129l96 142
h178l96 -142h-130zM566 224h-376q5 -55 39.5 -83t82.5 -28q37 0 63 15.5t39 47.5l146 -20q-25 -80 -90.5 -123t-156.5 -43q-64 0 -116 18t-88.5 52t-56 83.5t-19.5 111.5q0 63 20 112t56.5 83.5t87 52.5t111.5 18q56 0 103 -15.5t82 -47.5t55 -81t20 -117zM309 404
q-47 0 -76 -20t-39 -64h218q-7 41 -35 62.5t-68 21.5z" />
    <glyph glyph-name="uni1EC6" unicode="&#x1ec6;" horiz-adv-x="533" 
d="M282 810l-56 -65h-130l96 136h179l96 -136h-130zM488 568h-259v-140h231v-143h-231v-141h259v-144h-424v713h424v-145zM282 -60q36 0 62 -25.5t26 -61.5q0 -38 -26 -63.5t-62 -25.5q-37 0 -63 25.5t-26 63.5q0 36 26 61.5t63 25.5z" />
    <glyph glyph-name="uni1EC7" unicode="&#x1ec7;" horiz-adv-x="604" 
d="M312 641l-55 -69h-130l96 142h178l96 -142h-130zM566 224h-376q5 -55 39.5 -83t82.5 -28q37 0 63 15.5t39 47.5l146 -20q-25 -80 -90.5 -123t-156.5 -43q-64 0 -116 18t-88.5 52t-56 83.5t-19.5 111.5q0 63 20 112t56.5 83.5t87 52.5t111.5 18q56 0 103 -15.5t82 -47.5
t55 -81t20 -117zM309 404q-47 0 -76 -20t-39 -64h218q-7 41 -35 62.5t-68 21.5zM320 -61q36 0 62 -25.5t26 -61.5q0 -38 -26 -63.5t-62 -25.5q-37 0 -63 25.5t-26 63.5q0 36 26 61.5t63 25.5z" />
    <glyph glyph-name="uni1EC8" unicode="&#x1ec8;" horiz-adv-x="293" 
d="M98 743v68q43 5 60.5 15.5t17.5 26.5q0 29 -41 29q-12 0 -26.5 -4t-27.5 -14l-40 53q23 14 47.5 22t60.5 8q61 0 92.5 -23.5t31.5 -62.5q0 -19 -7 -32t-18 -21.5t-26 -14t-30 -9.5v-41h-94zM64 0v713h165v-713h-165z" />
    <glyph glyph-name="uni1EC9" unicode="&#x1ec9;" horiz-adv-x="272" 
d="M79 546v60q44 5 61.5 15.5t17.5 26.5q0 29 -41 29q-13 0 -28 -4t-35 -14l-40 61q30 14 59.5 22.5t65.5 8.5q68 0 100.5 -23.5t32.5 -62.5q0 -19 -7 -32t-18 -21.5t-26 -14t-30 -9.5v-42h-112zM57 0v511h158v-511h-158z" />
    <glyph glyph-name="uni1ECA" unicode="&#x1eca;" horiz-adv-x="293" 
d="M64 0v713h165v-713h-165zM146 -236q-37 0 -63 25.5t-26 63.5q0 36 26 61.5t63 25.5q36 0 62 -25.5t26 -61.5q0 -38 -26 -63.5t-62 -25.5z" />
    <glyph glyph-name="uni1ECB" unicode="&#x1ecb;" horiz-adv-x="272" 
d="M136 574q-37 0 -63 26t-26 63q0 36 26 62t63 26q36 0 62 -26t26 -62q0 -37 -26 -63t-62 -26zM57 0v511h158v-511h-158zM136 -236q-37 0 -63 25.5t-26 63.5q0 36 26 61.5t63 25.5q36 0 62 -25.5t26 -61.5q0 -38 -26 -63.5t-62 -25.5z" />
    <glyph glyph-name="uni1ECC" unicode="&#x1ecc;" horiz-adv-x="801" 
d="M401 -14q-81 0 -148.5 27t-116 75.5t-76 117t-27.5 150.5q0 83 27.5 151t76 117t116 76t148.5 27q80 0 147.5 -27t116.5 -76t76 -117t27 -151q0 -82 -27 -150.5t-76 -117t-116.5 -75.5t-147.5 -27zM401 137q44 0 81 15.5t64 44.5t42 69.5t15 89.5q0 50 -15 90.5t-42 69
t-64 44.5t-81 16t-81.5 -16t-64.5 -44.5t-42 -69t-15 -90.5q0 -49 15 -89.5t42 -69.5t64.5 -44.5t81.5 -15.5zM401 -236q-37 0 -63 25.5t-26 63.5q0 36 26 61.5t63 25.5q36 0 62 -25.5t26 -61.5q0 -38 -26 -63.5t-62 -25.5z" />
    <glyph glyph-name="uni1ECD" unicode="&#x1ecd;" horiz-adv-x="639" 
d="M320 -10q-63 0 -116 18.5t-90.5 52.5t-58.5 83t-21 112q0 62 21 111t58.5 83t90.5 52.5t116 18.5t115.5 -18.5t90 -52.5t58.5 -83t21 -111q0 -63 -21 -112t-58.5 -83t-90 -52.5t-115.5 -18.5zM320 115q58 0 92.5 39t34.5 102q0 62 -34.5 101t-92.5 39q-59 0 -93.5 -39
t-34.5 -101q0 -63 34.5 -102t93.5 -39zM322 -236q-37 0 -63 25.5t-26 63.5q0 36 26 61.5t63 25.5q36 0 62 -25.5t26 -61.5q0 -38 -26 -63.5t-62 -25.5z" />
    <glyph glyph-name="uni1ECE" unicode="&#x1ece;" horiz-adv-x="801" 
d="M353 743v68q43 5 60.5 15.5t17.5 26.5q0 29 -41 29q-12 0 -26.5 -4t-27.5 -14l-40 53q23 14 47.5 22t60.5 8q61 0 92.5 -23.5t31.5 -62.5q0 -19 -7 -32t-18 -21.5t-26 -14t-30 -9.5v-41h-94zM401 -14q-81 0 -148.5 27t-116 75.5t-76 117t-27.5 150.5q0 83 27.5 151
t76 117t116 76t148.5 27q80 0 147.5 -27t116.5 -76t76 -117t27 -151q0 -82 -27 -150.5t-76 -117t-116.5 -75.5t-147.5 -27zM401 137q44 0 81 15.5t64 44.5t42 69.5t15 89.5q0 50 -15 90.5t-42 69t-64 44.5t-81 16t-81.5 -16t-64.5 -44.5t-42 -69t-15 -90.5q0 -49 15 -89.5
t42 -69.5t64.5 -44.5t81.5 -15.5z" />
    <glyph glyph-name="uni1ECF" unicode="&#x1ecf;" horiz-adv-x="639" 
d="M265 546v60q44 5 61.5 15.5t17.5 26.5q0 29 -41 29q-13 0 -28 -4t-35 -14l-40 61q30 14 59.5 22.5t65.5 8.5q68 0 100.5 -23.5t32.5 -62.5q0 -19 -7 -32t-18 -21.5t-26 -14t-30 -9.5v-42h-112zM320 -10q-63 0 -116 18.5t-90.5 52.5t-58.5 83t-21 112q0 62 21 111t58.5 83
t90.5 52.5t116 18.5t115.5 -18.5t90 -52.5t58.5 -83t21 -111q0 -63 -21 -112t-58.5 -83t-90 -52.5t-115.5 -18.5zM320 115q58 0 92.5 39t34.5 102q0 62 -34.5 101t-92.5 39q-59 0 -93.5 -39t-34.5 -101q0 -63 34.5 -102t93.5 -39z" />
    <glyph glyph-name="uni1ED0" unicode="&#x1ed0;" horiz-adv-x="801" 
d="M401 810l-56 -65h-130l96 136h179l5 -7l46 74h167l-113 -138h-55l46 -65h-130zM401 727q80 0 147.5 -27t116.5 -76t76 -117t27 -151q0 -82 -27 -150.5t-76 -117t-116.5 -75.5t-147.5 -27q-81 0 -148.5 27t-116 75.5t-76 117t-27.5 150.5q0 83 27.5 151t76 117t116 76
t148.5 27zM401 137q44 0 81 15.5t64 44.5t42 69.5t15 89.5q0 50 -15 90.5t-42 69t-64 44.5t-81 16t-81.5 -16t-64.5 -44.5t-42 -69t-15 -90.5q0 -49 15 -89.5t42 -69.5t64.5 -44.5t81.5 -15.5z" />
    <glyph glyph-name="uni1ED1" unicode="&#x1ed1;" horiz-adv-x="639" 
d="M321 640l-55 -69h-130l96 142h178l7 -11l50 81h168l-117 -142h-59l47 -70h-130zM320 521q63 0 115.5 -18.5t90 -52.5t58.5 -83t21 -111q0 -63 -21 -112t-58.5 -83t-90 -52.5t-115.5 -18.5t-116 18.5t-90.5 52.5t-58.5 83t-21 112q0 62 21 111t58.5 83t90.5 52.5t116 18.5
zM320 115q58 0 92.5 39t34.5 102q0 62 -34.5 101t-92.5 39q-59 0 -93.5 -39t-34.5 -101q0 -63 34.5 -102t93.5 -39z" />
    <glyph glyph-name="uni1ED2" unicode="&#x1ed2;" horiz-adv-x="801" 
d="M579 810l-114 138h167l85 -138h-138zM215 745l96 136h179l96 -136h-130l-55 65l-56 -65h-130zM401 -14q-81 0 -148.5 27t-116 75.5t-76 117t-27.5 150.5q0 83 27.5 151t76 117t116 76t148.5 27q80 0 147.5 -27t116.5 -76t76 -117t27 -151q0 -82 -27 -150.5t-76 -117
t-116.5 -75.5t-147.5 -27zM401 137q44 0 81 15.5t64 44.5t42 69.5t15 89.5q0 50 -15 90.5t-42 69t-64 44.5t-81 16t-81.5 -16t-64.5 -44.5t-42 -69t-15 -90.5q0 -49 15 -89.5t42 -69.5t64.5 -44.5t81.5 -15.5z" />
    <glyph glyph-name="uni1ED3" unicode="&#x1ed3;" horiz-adv-x="639" 
d="M508 641l-117 142h168l87 -142h-138zM136 571l96 142h178l96 -142h-130l-55 69l-55 -69h-130zM320 -10q-63 0 -116 18.5t-90.5 52.5t-58.5 83t-21 112q0 62 21 111t58.5 83t90.5 52.5t116 18.5t115.5 -18.5t90 -52.5t58.5 -83t21 -111q0 -63 -21 -112t-58.5 -83
t-90 -52.5t-115.5 -18.5zM320 115q58 0 92.5 39t34.5 102q0 62 -34.5 101t-92.5 39q-59 0 -93.5 -39t-34.5 -101q0 -63 34.5 -102t93.5 -39z" />
    <glyph glyph-name="uni1ED4" unicode="&#x1ed4;" horiz-adv-x="801" 
d="M649 811h-94v68q44 5 61 15.5t17 26.5q0 29 -40 29q-13 0 -27.5 -4t-27.5 -15l-40 53q23 14 47.5 22.5t60.5 8.5q61 0 92.5 -23.5t31.5 -62.5q0 -19 -7 -32t-18 -21.5t-26 -14t-30 -9.5v-41zM345 745h-130l96 136h179l96 -136h-130l-55 65zM401 -14q-81 0 -148.5 27
t-116 75.5t-76 117t-27.5 150.5q0 83 27.5 151t76 117t116 76t148.5 27q80 0 147.5 -27t116.5 -76t76 -117t27 -151q0 -82 -27 -150.5t-76 -117t-116.5 -75.5t-147.5 -27zM401 137q44 0 81 15.5t64 44.5t42 69.5t15 89.5q0 50 -15 90.5t-42 69t-64 44.5t-81 16t-81.5 -16
t-64.5 -44.5t-42 -69t-15 -90.5q0 -49 15 -89.5t42 -69.5t64.5 -44.5t81.5 -15.5z" />
    <glyph glyph-name="uni1ED5" unicode="&#x1ed5;" horiz-adv-x="639" 
d="M574 641h-111v60q43 5 60.5 15.5t17.5 26.5q0 29 -41 29q-12 0 -27.5 -4t-35.5 -15l-40 62q30 14 59.5 22.5t65.5 8.5q69 0 101.5 -24t32.5 -62q0 -19 -7 -32t-18.5 -21.5t-26.5 -14t-30 -9.5v-42zM136 571l96 142h178l96 -142h-130l-55 69l-55 -69h-130zM320 -10
q-63 0 -116 18.5t-90.5 52.5t-58.5 83t-21 112q0 62 21 111t58.5 83t90.5 52.5t116 18.5t115.5 -18.5t90 -52.5t58.5 -83t21 -111q0 -63 -21 -112t-58.5 -83t-90 -52.5t-115.5 -18.5zM320 115q58 0 92.5 39t34.5 102q0 62 -34.5 101t-92.5 39q-59 0 -93.5 -39t-34.5 -101
q0 -63 34.5 -102t93.5 -39z" />
    <glyph glyph-name="uni1ED6" unicode="&#x1ed6;" horiz-adv-x="801" 
d="M458 898q-35 0 -54 14.5t-31 28.5q-9 11 -18 18t-22 7q-14 0 -19.5 -18.5t-5.5 -42.5h-76q0 63 29.5 104.5t80.5 41.5q35 0 54.5 -14.5t32.5 -28.5q9 -11 17.5 -18.5t21.5 -7.5q15 0 19.5 18t4.5 44h76q0 -31 -7 -57.5t-21 -46t-34.5 -31t-47.5 -11.5zM345 745h-130
l96 136h179l96 -136h-129l-56 65zM401 -14q-81 0 -148.5 27t-116 75.5t-76 117t-27.5 150.5q0 83 27.5 151t76 117t116 76t148.5 27q80 0 147.5 -27t116.5 -76t76 -117t27 -151q0 -82 -27 -150.5t-76 -117t-116.5 -75.5t-147.5 -27zM401 137q44 0 81 15.5t64 44.5t42 69.5
t15 89.5q0 50 -15 90.5t-42 69t-64 44.5t-81 16t-81.5 -16t-64.5 -44.5t-42 -69t-15 -90.5q0 -49 15 -89.5t42 -69.5t64.5 -44.5t81.5 -15.5z" />
    <glyph glyph-name="uni1ED7" unicode="&#x1ed7;" horiz-adv-x="639" 
d="M379 743q-35 0 -54 14t-31 29q-9 10 -18 17.5t-22 7.5q-14 0 -19.5 -18.5t-5.5 -43.5h-76q0 64 29.5 105t80.5 41q35 0 54.5 -14t32.5 -29q9 -11 17.5 -18t21.5 -7q15 0 19.5 18t4.5 44h76q0 -31 -7 -57.5t-21 -46t-34.5 -31t-47.5 -11.5zM266 571h-129l96 142h178
l96 -142h-130l-55 69zM320 -10q-63 0 -116 18.5t-90.5 52.5t-58.5 83t-21 112q0 62 21 111t58.5 83t90.5 52.5t116 18.5t115.5 -18.5t90 -52.5t58.5 -83t21 -111q0 -63 -21 -112t-58.5 -83t-90 -52.5t-115.5 -18.5zM320 115q58 0 92.5 39t34.5 102q0 62 -34.5 101t-92.5 39
q-59 0 -93.5 -39t-34.5 -101q0 -63 34.5 -102t93.5 -39z" />
    <glyph glyph-name="uni1ED8" unicode="&#x1ed8;" horiz-adv-x="801" 
d="M215 745l96 136h179l96 -136h-130l-55 65l-56 -65h-130zM401 -14q-81 0 -148.5 27t-116 75.5t-76 117t-27.5 150.5q0 83 27.5 151t76 117t116 76t148.5 27q80 0 147.5 -27t116.5 -76t76 -117t27 -151q0 -82 -27 -150.5t-76 -117t-116.5 -75.5t-147.5 -27zM401 137
q44 0 81 15.5t64 44.5t42 69.5t15 89.5q0 50 -15 90.5t-42 69t-64 44.5t-81 16t-81.5 -16t-64.5 -44.5t-42 -69t-15 -90.5q0 -49 15 -89.5t42 -69.5t64.5 -44.5t81.5 -15.5zM401 -236q-37 0 -63 25.5t-26 63.5q0 36 26 61.5t63 25.5q36 0 62 -25.5t26 -61.5q0 -38 -26 -63.5
t-62 -25.5z" />
    <glyph glyph-name="uni1ED9" unicode="&#x1ed9;" horiz-adv-x="639" 
d="M136 571l96 142h178l96 -142h-130l-55 69l-55 -69h-130zM320 -10q-63 0 -116 18.5t-90.5 52.5t-58.5 83t-21 112q0 62 21 111t58.5 83t90.5 52.5t116 18.5t115.5 -18.5t90 -52.5t58.5 -83t21 -111q0 -63 -21 -112t-58.5 -83t-90 -52.5t-115.5 -18.5zM320 115
q58 0 92.5 39t34.5 102q0 62 -34.5 101t-92.5 39q-59 0 -93.5 -39t-34.5 -101q0 -63 34.5 -102t93.5 -39zM322 -236q-37 0 -63 25.5t-26 63.5q0 36 26 61.5t63 25.5q36 0 62 -25.5t26 -61.5q0 -38 -26 -63.5t-62 -25.5z" />
    <glyph glyph-name="uni1EDA" unicode="&#x1eda;" horiz-adv-x="801" 
d="M584 881l-114 -138h-138l85 138h167zM694 770h106v-85q0 -30 -8 -50.5t-21.5 -34t-29.5 -20t-33 -9.5q29 -45 44.5 -98.5t15.5 -116.5q0 -82 -27 -150.5t-76 -117t-116.5 -75.5t-147.5 -27q-81 0 -148.5 27t-116 75.5t-76 117t-27.5 150.5q0 83 27.5 151t76 117t116 76
t148.5 27q75 0 138 -23t111 -66q26 1 35 14t9 51v67zM401 137q44 0 81 15.5t64 44.5t42 69.5t15 89.5q0 50 -15 90.5t-42 69t-64 44.5t-81 16t-81.5 -16t-64.5 -44.5t-42 -69t-15 -90.5q0 -49 15 -89.5t42 -69.5t64.5 -44.5t81.5 -15.5z" />
    <glyph glyph-name="uni1EDB" unicode="&#x1edb;" horiz-adv-x="639" 
d="M506 713l-117 -142h-138l87 142h168zM548 602h106v-85q0 -29 -8 -49.5t-20.5 -33.5t-28.5 -20.5t-32 -10.5q40 -62 40 -147q0 -63 -21 -112t-58.5 -83t-90 -52.5t-115.5 -18.5t-116 18.5t-90.5 52.5t-58.5 83t-21 112q0 62 21 111t58.5 83t90.5 52.5t116 18.5
q106 0 180 -51h1q28 0 37.5 13t9.5 52v67zM320 115q58 0 92.5 39t34.5 102q0 62 -34.5 101t-92.5 39q-59 0 -93.5 -39t-34.5 -101q0 -63 34.5 -102t93.5 -39z" />
    <glyph glyph-name="uni1EDC" unicode="&#x1edc;" horiz-adv-x="801" 
d="M470 743h-138l-114 138h167zM694 770h106v-85q0 -30 -8 -50.5t-21.5 -34t-29.5 -20t-33 -9.5q29 -45 44.5 -98.5t15.5 -116.5q0 -82 -27 -150.5t-76 -117t-116.5 -75.5t-147.5 -27q-81 0 -148.5 27t-116 75.5t-76 117t-27.5 150.5q0 83 27.5 151t76 117t116 76t148.5 27
q75 0 138 -23t111 -66q26 1 35 14t9 51v67zM401 137q44 0 81 15.5t64 44.5t42 69.5t15 89.5q0 50 -15 90.5t-42 69t-64 44.5t-81 16t-81.5 -16t-64.5 -44.5t-42 -69t-15 -90.5q0 -49 15 -89.5t42 -69.5t64.5 -44.5t81.5 -15.5z" />
    <glyph glyph-name="uni1EDD" unicode="&#x1edd;" horiz-adv-x="639" 
d="M392 571h-139l-116 142h167zM548 602h106v-85q0 -29 -8 -49.5t-20.5 -33.5t-28.5 -20.5t-32 -10.5q40 -62 40 -147q0 -63 -21 -112t-58.5 -83t-90 -52.5t-115.5 -18.5t-116 18.5t-90.5 52.5t-58.5 83t-21 112q0 62 21 111t58.5 83t90.5 52.5t116 18.5q106 0 180 -51h1
q28 0 37.5 13t9.5 52v67zM320 115q58 0 92.5 39t34.5 102q0 62 -34.5 101t-92.5 39q-59 0 -93.5 -39t-34.5 -101q0 -63 34.5 -102t93.5 -39z" />
    <glyph glyph-name="uni1EDE" unicode="&#x1ede;" horiz-adv-x="801" 
d="M390 882q-12 0 -26.5 -4t-27.5 -14l-40 53q23 14 47.5 22t60.5 8q61 0 92.5 -23.5t31.5 -62.5q0 -19 -7 -32t-18 -21.5t-26 -14t-30 -9.5v-41h-94v68q43 5 60.5 15.5t17.5 26.5q0 29 -41 29zM694 770h106v-85q0 -30 -8 -50.5t-21.5 -34t-29.5 -20t-33 -9.5
q29 -45 44.5 -98.5t15.5 -116.5q0 -82 -27 -150.5t-76 -117t-116.5 -75.5t-147.5 -27q-81 0 -148.5 27t-116 75.5t-76 117t-27.5 150.5q0 83 27.5 151t76 117t116 76t148.5 27q75 0 138 -23t111 -66q26 1 35 14t9 51v67zM401 137q44 0 81 15.5t64 44.5t42 69.5t15 89.5
q0 50 -15 90.5t-42 69t-64 44.5t-81 16t-81.5 -16t-64.5 -44.5t-42 -69t-15 -90.5q0 -49 15 -89.5t42 -69.5t64.5 -44.5t81.5 -15.5z" />
    <glyph glyph-name="uni1EDF" unicode="&#x1edf;" horiz-adv-x="639" 
d="M303 677q-13 0 -28 -4t-35 -14l-40 61q30 14 59.5 22.5t65.5 8.5q68 0 100.5 -23.5t32.5 -62.5q0 -19 -7 -32t-18 -21.5t-26 -14t-30 -9.5v-42h-112v60q44 5 61.5 15.5t17.5 26.5q0 29 -41 29zM548 602h106v-85q0 -29 -8 -49.5t-20.5 -33.5t-28.5 -20.5t-32 -10.5
q40 -62 40 -147q0 -63 -21 -112t-58.5 -83t-90 -52.5t-115.5 -18.5t-116 18.5t-90.5 52.5t-58.5 83t-21 112q0 62 21 111t58.5 83t90.5 52.5t116 18.5q106 0 180 -51h1q28 0 37.5 13t9.5 52v67zM320 115q58 0 92.5 39t34.5 102q0 62 -34.5 101t-92.5 39q-59 0 -93.5 -39
t-34.5 -101q0 -63 34.5 -102t93.5 -39z" />
    <glyph glyph-name="uni1EE0" unicode="&#x1ee0;" horiz-adv-x="801" 
d="M334 811q-15 0 -20.5 -18.5t-5.5 -43.5h-75q0 64 29 105t81 41q35 0 54 -14t32 -29q9 -11 18 -18t21 -7q15 0 19.5 18t4.5 44h76q0 -31 -7 -57.5t-20.5 -46t-34 -31t-47.5 -11.5q-36 0 -55 14t-31 29q-9 10 -17.5 17.5t-21.5 7.5zM694 770h106v-85q0 -30 -8 -50.5
t-21.5 -34t-29.5 -20t-33 -9.5q29 -45 44.5 -98.5t15.5 -116.5q0 -82 -27 -150.5t-76 -117t-116.5 -75.5t-147.5 -27q-81 0 -148.5 27t-116 75.5t-76 117t-27.5 150.5q0 83 27.5 151t76 117t116 76t148.5 27q75 0 138 -23t111 -66q26 1 35 14t9 51v67zM401 137q44 0 81 15.5
t64 44.5t42 69.5t15 89.5q0 50 -15 90.5t-42 69t-64 44.5t-81 16t-81.5 -16t-64.5 -44.5t-42 -69t-15 -90.5q0 -49 15 -89.5t42 -69.5t64.5 -44.5t81.5 -15.5z" />
    <glyph glyph-name="uni1EE1" unicode="&#x1ee1;" horiz-adv-x="639" 
d="M254 631q-15 0 -20.5 -18.5t-5.5 -42.5h-75q0 63 29 104.5t81 41.5q35 0 54 -14.5t32 -29.5q9 -11 18 -18t21 -7q15 0 19.5 18t4.5 44h76q0 -31 -7 -57.5t-20.5 -46t-34 -31t-47.5 -11.5q-36 0 -55 14.5t-31 28.5q-9 11 -17.5 18t-21.5 7zM548 602h106v-85
q0 -29 -8 -49.5t-20.5 -33.5t-28.5 -20.5t-32 -10.5q40 -62 40 -147q0 -63 -21 -112t-58.5 -83t-90 -52.5t-115.5 -18.5t-116 18.5t-90.5 52.5t-58.5 83t-21 112q0 62 21 111t58.5 83t90.5 52.5t116 18.5q106 0 180 -51h1q28 0 37.5 13t9.5 52v67zM320 115q58 0 92.5 39
t34.5 102q0 62 -34.5 101t-92.5 39q-59 0 -93.5 -39t-34.5 -101q0 -63 34.5 -102t93.5 -39z" />
    <glyph glyph-name="uni1EE2" unicode="&#x1ee2;" horiz-adv-x="801" 
d="M694 770h106v-85q0 -30 -8 -50.5t-21.5 -34t-29.5 -20t-33 -9.5q29 -45 44.5 -98.5t15.5 -116.5q0 -82 -27 -150.5t-76 -117t-116.5 -75.5t-147.5 -27q-81 0 -148.5 27t-116 75.5t-76 117t-27.5 150.5q0 83 27.5 151t76 117t116 76t148.5 27q75 0 138 -23t111 -66
q26 1 35 14t9 51v67zM401 137q44 0 81 15.5t64 44.5t42 69.5t15 89.5q0 50 -15 90.5t-42 69t-64 44.5t-81 16t-81.5 -16t-64.5 -44.5t-42 -69t-15 -90.5q0 -49 15 -89.5t42 -69.5t64.5 -44.5t81.5 -15.5zM401 -60q36 0 62 -25.5t26 -61.5q0 -38 -26 -63.5t-62 -25.5
q-37 0 -63 25.5t-26 63.5q0 36 26 61.5t63 25.5z" />
    <glyph glyph-name="uni1EE3" unicode="&#x1ee3;" horiz-adv-x="639" 
d="M548 602h106v-85q0 -29 -8 -49.5t-20.5 -33.5t-28.5 -20.5t-32 -10.5q40 -62 40 -147q0 -63 -21 -112t-58.5 -83t-90 -52.5t-115.5 -18.5t-116 18.5t-90.5 52.5t-58.5 83t-21 112q0 62 21 111t58.5 83t90.5 52.5t116 18.5q106 0 180 -51h1q28 0 37.5 13t9.5 52v67z
M320 115q58 0 92.5 39t34.5 102q0 62 -34.5 101t-92.5 39q-59 0 -93.5 -39t-34.5 -101q0 -63 34.5 -102t93.5 -39zM322 -60q36 0 62 -25.5t26 -61.5q0 -38 -26 -63.5t-62 -25.5q-37 0 -63 25.5t-26 63.5q0 36 26 61.5t63 25.5z" />
    <glyph glyph-name="uni1EE4" unicode="&#x1ee4;" horiz-adv-x="688" 
d="M344 -14q-61 0 -113.5 16t-91.5 49t-61 84t-22 121v457h165v-436q0 -39 9.5 -66.5t26 -44t39 -24t48.5 -7.5t48.5 7.5t39 24t26 44t9.5 66.5v436h165v-457q0 -70 -22 -121t-61 -84t-91.5 -49t-113.5 -16zM344 -236q-37 0 -63 25.5t-26 63.5q0 36 26 61.5t63 25.5
q36 0 62 -25.5t26 -61.5q0 -38 -26 -63.5t-62 -25.5z" />
    <glyph glyph-name="uni1EE5" unicode="&#x1ee5;" horiz-adv-x="628" 
d="M412 511h158v-511h-150l-6 59q-28 -33 -69.5 -51t-95.5 -18q-99 0 -148 46.5t-49 131.5v343h159v-310q0 -47 25.5 -66t63.5 -19q21 0 41 6t36 20t25.5 37.5t9.5 59.5v272zM317 -60q36 0 62 -25.5t26 -61.5q0 -38 -26 -63.5t-62 -25.5q-37 0 -63 25.5t-26 63.5
q0 36 26 61.5t63 25.5z" />
    <glyph glyph-name="uni1EE6" unicode="&#x1ee6;" horiz-adv-x="688" 
d="M296 743v68q43 5 60.5 15.5t17.5 26.5q0 29 -41 29q-12 0 -26.5 -4t-27.5 -14l-40 53q23 14 47.5 22t60.5 8q61 0 92.5 -23.5t31.5 -62.5q0 -19 -7 -32t-18 -21.5t-26 -14t-30 -9.5v-41h-94zM344 -14q-61 0 -113.5 16t-91.5 49t-61 84t-22 121v457h165v-436
q0 -39 9.5 -66.5t26 -44t39 -24t48.5 -7.5t48.5 7.5t39 24t26 44t9.5 66.5v436h165v-457q0 -70 -22 -121t-61 -84t-91.5 -49t-113.5 -16z" />
    <glyph glyph-name="uni1EE7" unicode="&#x1ee7;" horiz-adv-x="628" 
d="M292 677q-13 0 -28 -4t-35 -14l-40 61q30 14 59.5 22.5t65.5 8.5q68 0 100.5 -23.5t32.5 -62.5q0 -19 -7 -32t-18 -21.5t-26 -14t-30 -9.5v-42h-112v60q44 5 61.5 15.5t17.5 26.5q0 29 -41 29zM412 511h158v-511h-150l-6 59q-28 -33 -69.5 -51t-95.5 -18q-99 0 -148 46.5
t-49 131.5v343h159v-310q0 -47 25.5 -66t63.5 -19q21 0 41 6t36 20t25.5 37.5t9.5 59.5v272z" />
    <glyph glyph-name="uni1EE8" unicode="&#x1ee8;" horiz-adv-x="688" 
d="M526 881l-114 -138h-138l85 138h167zM705 806h106v-85q0 -38 -13 -61t-32 -35.5t-41 -16.5t-40 -4q-11 0 -25 2.5t-28 7.5v-358q0 -70 -22 -121t-61 -84t-91.5 -49t-113.5 -16t-113.5 16t-91.5 49t-61 84t-22 121v457h165v-436q0 -39 9.5 -66.5t26 -44t39 -24t48.5 -7.5
t48.5 7.5t39 24t26 44t9.5 66.5v436h165v-34q8 -3 14.5 -4t11.5 -1q28 0 37.5 13t9.5 52v67z" />
    <glyph glyph-name="uni1EE9" unicode="&#x1ee9;" horiz-adv-x="628" 
d="M496 713l-117 -142h-138l87 142h168zM630 604h106v-85q0 -38 -13 -61t-32 -35.5t-41 -16.5t-40 -4q-19 0 -40 6v-408h-150l-6 59q-28 -33 -69.5 -51t-95.5 -18q-99 0 -148 46.5t-49 131.5v343h159v-310q0 -47 25.5 -66t63.5 -19q21 0 41 6t36 20t25.5 37.5t9.5 59.5v272
h158v-38q5 -1 13 -1q28 0 37.5 13t9.5 52v67z" />
    <glyph glyph-name="uni1EEA" unicode="&#x1eea;" horiz-adv-x="688" 
d="M412 743h-138l-114 138h167zM705 806h106v-85q0 -38 -13 -61t-32 -35.5t-41 -16.5t-40 -4q-11 0 -25 2.5t-28 7.5v-358q0 -70 -22 -121t-61 -84t-91.5 -49t-113.5 -16t-113.5 16t-91.5 49t-61 84t-22 121v457h165v-436q0 -39 9.5 -66.5t26 -44t39 -24t48.5 -7.5t48.5 7.5
t39 24t26 44t9.5 66.5v436h165v-34q8 -3 14.5 -4t11.5 -1q28 0 37.5 13t9.5 52v67z" />
    <glyph glyph-name="uni1EEB" unicode="&#x1eeb;" horiz-adv-x="628" 
d="M382 571h-139l-116 142h167zM630 604h106v-85q0 -38 -13 -61t-32 -35.5t-41 -16.5t-40 -4q-19 0 -40 6v-408h-150l-6 59q-28 -33 -69.5 -51t-95.5 -18q-99 0 -148 46.5t-49 131.5v343h159v-310q0 -47 25.5 -66t63.5 -19q21 0 41 6t36 20t25.5 37.5t9.5 59.5v272h158v-38
q5 -1 13 -1q28 0 37.5 13t9.5 52v67z" />
    <glyph glyph-name="uni1EEC" unicode="&#x1eec;" horiz-adv-x="688" 
d="M333 882q-12 0 -26.5 -4t-27.5 -14l-40 53q23 14 47.5 22t60.5 8q61 0 92.5 -23.5t31.5 -62.5q0 -19 -7 -32t-18 -21.5t-26 -14t-30 -9.5v-41h-94v68q43 5 60.5 15.5t17.5 26.5q0 29 -41 29zM705 806h106v-85q0 -38 -13 -61t-32 -35.5t-41 -16.5t-40 -4q-11 0 -25 2.5
t-28 7.5v-358q0 -70 -22 -121t-61 -84t-91.5 -49t-113.5 -16t-113.5 16t-91.5 49t-61 84t-22 121v457h165v-436q0 -39 9.5 -66.5t26 -44t39 -24t48.5 -7.5t48.5 7.5t39 24t26 44t9.5 66.5v436h165v-34q8 -3 14.5 -4t11.5 -1q28 0 37.5 13t9.5 52v67z" />
    <glyph glyph-name="uni1EED" unicode="&#x1eed;" horiz-adv-x="628" 
d="M292 677q-13 0 -28 -4t-35 -14l-40 61q30 14 59.5 22.5t65.5 8.5q68 0 100.5 -23.5t32.5 -62.5q0 -19 -7 -32t-18 -21.5t-26 -14t-30 -9.5v-42h-112v60q44 5 61.5 15.5t17.5 26.5q0 29 -41 29zM630 604h106v-85q0 -38 -13 -61t-32 -35.5t-41 -16.5t-40 -4q-19 0 -40 6
v-408h-150l-6 59q-28 -33 -69.5 -51t-95.5 -18q-99 0 -148 46.5t-49 131.5v343h159v-310q0 -47 25.5 -66t63.5 -19q21 0 41 6t36 20t25.5 37.5t9.5 59.5v272h158v-38q5 -1 13 -1q28 0 37.5 13t9.5 52v67z" />
    <glyph glyph-name="uni1EEE" unicode="&#x1eee;" horiz-adv-x="688" 
d="M276 811q-15 0 -20.5 -18.5t-5.5 -43.5h-75q0 64 29 105t81 41q35 0 54 -14t32 -29q9 -11 18 -18t21 -7q15 0 19.5 18t4.5 44h76q0 -31 -7 -57.5t-20.5 -46t-34 -31t-47.5 -11.5q-36 0 -55 14t-31 29q-9 10 -17.5 17.5t-21.5 7.5zM705 806h106v-85q0 -38 -13 -61
t-32 -35.5t-41 -16.5t-40 -4q-11 0 -25 2.5t-28 7.5v-358q0 -70 -22 -121t-61 -84t-91.5 -49t-113.5 -16t-113.5 16t-91.5 49t-61 84t-22 121v457h165v-436q0 -39 9.5 -66.5t26 -44t39 -24t48.5 -7.5t48.5 7.5t39 24t26 44t9.5 66.5v436h165v-34q8 -3 14.5 -4t11.5 -1
q28 0 37.5 13t9.5 52v67z" />
    <glyph glyph-name="uni1EEF" unicode="&#x1eef;" horiz-adv-x="628" 
d="M244 631q-15 0 -20.5 -18.5t-5.5 -42.5h-75q0 63 29 104.5t81 41.5q35 0 54 -14.5t32 -29.5q9 -11 18 -18t21 -7q15 0 19.5 18t4.5 44h76q0 -31 -7 -57.5t-20.5 -46t-34 -31t-47.5 -11.5q-36 0 -55 14.5t-31 28.5q-9 11 -17.5 18t-21.5 7zM630 604h106v-85q0 -38 -13 -61
t-32 -35.5t-41 -16.5t-40 -4q-19 0 -40 6v-408h-150l-6 59q-28 -33 -69.5 -51t-95.5 -18q-99 0 -148 46.5t-49 131.5v343h159v-310q0 -47 25.5 -66t63.5 -19q21 0 41 6t36 20t25.5 37.5t9.5 59.5v272h158v-38q5 -1 13 -1q28 0 37.5 13t9.5 52v67z" />
    <glyph glyph-name="uni1EF0" unicode="&#x1ef0;" horiz-adv-x="688" 
d="M705 806h106v-85q0 -38 -13 -61t-32 -35.5t-41 -16.5t-40 -4q-11 0 -25 2.5t-28 7.5v-358q0 -70 -22 -121t-61 -84t-91.5 -49t-113.5 -16t-113.5 16t-91.5 49t-61 84t-22 121v457h165v-436q0 -39 9.5 -66.5t26 -44t39 -24t48.5 -7.5t48.5 7.5t39 24t26 44t9.5 66.5v436
h165v-34q8 -3 14.5 -4t11.5 -1q28 0 37.5 13t9.5 52v67zM344 -60q36 0 62 -25.5t26 -61.5q0 -38 -26 -63.5t-62 -25.5q-37 0 -63 25.5t-26 63.5q0 36 26 61.5t63 25.5z" />
    <glyph glyph-name="uni1EF1" unicode="&#x1ef1;" horiz-adv-x="628" 
d="M630 604h106v-85q0 -38 -13 -61t-32 -35.5t-41 -16.5t-40 -4q-19 0 -40 6v-408h-150l-6 59q-28 -33 -69.5 -51t-95.5 -18q-99 0 -148 46.5t-49 131.5v343h159v-310q0 -47 25.5 -66t63.5 -19q21 0 41 6t36 20t25.5 37.5t9.5 59.5v272h158v-38q5 -1 13 -1q28 0 37.5 13
t9.5 52v67zM317 -60q36 0 62 -25.5t26 -61.5q0 -38 -26 -63.5t-62 -25.5q-37 0 -63 25.5t-26 63.5q0 36 26 61.5t63 25.5z" />
    <glyph glyph-name="Ygrave" unicode="&#x1ef2;" horiz-adv-x="636" 
d="M387 743h-138l-114 138h167zM637 713l-236 -373v-340h-165v335l-239 378h182l139 -230l139 230h180z" />
    <glyph glyph-name="ygrave" unicode="&#x1ef3;" horiz-adv-x="600" 
d="M375 571h-139l-116 142h167zM417 511h172l-321 -754h-172l121 272l-207 482h172l117 -319z" />
    <glyph glyph-name="uni1EF4" unicode="&#x1ef4;" horiz-adv-x="636" 
d="M236 0v335l-239 378h182l139 -230l139 230h180l-236 -373v-340h-165zM319 -60q36 0 62 -25.5t26 -61.5q0 -38 -26 -63.5t-62 -25.5q-37 0 -63 25.5t-26 63.5q0 36 26 61.5t63 25.5z" />
    <glyph glyph-name="uni1EF5" unicode="&#x1ef5;" horiz-adv-x="600" 
d="M417 511h172l-321 -754h-172l121 272l-207 482h172l117 -319zM509 -60q36 0 62 -25.5t26 -61.5q0 -38 -26 -63.5t-62 -25.5q-37 0 -63 25.5t-26 63.5q0 36 26 61.5t63 25.5z" />
    <glyph glyph-name="uni1EF6" unicode="&#x1ef6;" horiz-adv-x="636" 
d="M308 882q-12 0 -26.5 -4t-27.5 -14l-40 53q23 14 47.5 22t60.5 8q61 0 92.5 -23.5t31.5 -62.5q0 -19 -7 -32t-18 -21.5t-26 -14t-30 -9.5v-41h-94v68q43 5 60.5 15.5t17.5 26.5q0 29 -41 29zM637 713l-236 -373v-340h-165v335l-239 378h182l139 -230l139 230h180z" />
    <glyph glyph-name="uni1EF7" unicode="&#x1ef7;" horiz-adv-x="600" 
d="M286 677q-13 0 -28 -4t-35 -14l-40 61q30 14 59.5 22.5t65.5 8.5q68 0 100.5 -23.5t32.5 -62.5q0 -19 -7 -32t-18 -21.5t-26 -14t-30 -9.5v-42h-112v60q44 5 61.5 15.5t17.5 26.5q0 29 -41 29zM417 511h172l-321 -754h-172l121 272l-207 482h172l117 -319z" />
    <glyph glyph-name="uni1EF8" unicode="&#x1ef8;" horiz-adv-x="636" 
d="M251 811q-15 0 -20.5 -18.5t-5.5 -43.5h-75q0 64 29 105t81 41q35 0 54 -14t32 -29q9 -11 18 -18t21 -7q15 0 19.5 18t4.5 44h76q0 -31 -7 -57.5t-20.5 -46t-34 -31t-47.5 -11.5q-36 0 -55 14t-31 29q-9 10 -17.5 17.5t-21.5 7.5zM637 713l-236 -373v-340h-165v335
l-239 378h182l139 -230l139 230h180z" />
    <glyph glyph-name="uni1EF9" unicode="&#x1ef9;" horiz-adv-x="600" 
d="M238 631q-15 0 -20.5 -18.5t-5.5 -42.5h-75q0 63 29 104.5t81 41.5q35 0 54 -14.5t32 -29.5q9 -11 18 -18t21 -7q15 0 19.5 18t4.5 44h76q0 -31 -7 -57.5t-20.5 -46t-34 -31t-47.5 -11.5q-36 0 -55 14.5t-31 28.5q-9 11 -17.5 18t-21.5 7zM417 511h172l-321 -754h-172
l121 272l-207 482h172l117 -319z" />
    <glyph glyph-name="endash" unicode="&#x2013;" horiz-adv-x="500" 
d="M0 197v118h500v-118h-500z" />
    <glyph glyph-name="emdash" unicode="&#x2014;" horiz-adv-x="1000" 
d="M0 197v118h1000v-118h-1000z" />
    <glyph glyph-name="quoteleft" unicode="&#x2018;" horiz-adv-x="306" 
d="M35 387l110 326h113l-62 -326h-161z" />
    <glyph glyph-name="quoteright" unicode="&#x2019;" horiz-adv-x="306" 
d="M48 387l61 326h162l-110 -326h-113z" />
    <glyph glyph-name="quotesinglbase" unicode="&#x201a;" horiz-adv-x="331" 
d="M60 -181l62 325h162l-111 -325h-113z" />
    <glyph glyph-name="quotedblleft" unicode="&#x201c;" horiz-adv-x="548" 
d="M35 387l110 326h113l-62 -326h-161zM277 387l110 326h113l-61 -326h-162z" />
    <glyph glyph-name="quotedblright" unicode="&#x201d;" horiz-adv-x="548" 
d="M48 387l61 326h162l-110 -326h-113zM290 387l62 326h161l-110 -326h-113z" />
    <glyph glyph-name="quotedblbase" unicode="&#x201e;" horiz-adv-x="568" 
d="M60 -181l62 325h162l-111 -325h-113zM297 -181l62 325h162l-111 -325h-113z" />
    <glyph glyph-name="dagger" unicode="&#x2020;" horiz-adv-x="513" 
d="M469 544v-100h-133v-571h-159v571h-133v100h133v169h159v-169h133z" />
    <glyph glyph-name="daggerdbl" unicode="&#x2021;" horiz-adv-x="538" 
d="M481 444h-133v-294h133v-100h-133v-177h-158v177h-134v100h134v294h-134v100h134v169h158v-169h133v-100z" />
    <glyph glyph-name="bullet" unicode="&#x2022;" horiz-adv-x="502" 
d="M251 64q-39 0 -73.5 15t-60.5 40.5t-41.5 60.5t-15.5 75q0 39 15.5 73.5t41.5 60.5t60.5 41.5t73.5 15.5q38 0 73 -15.5t61 -41.5t41.5 -60.5t15.5 -73.5q0 -40 -15.5 -75t-41.5 -60.5t-61 -40.5t-73 -15z" />
    <glyph glyph-name="ellipsis" unicode="&#x2026;" horiz-adv-x="910" 
d="M161 -10q-18 0 -34 7t-28 19t-19 28t-7 34t7 34t19 28t28 19t34 7q37 0 63 -26t26 -62t-26 -62t-63 -26zM455 -10q-18 0 -34 7t-28 19t-19 28t-7 34t7 34t19 28t28 19t34 7q36 0 62.5 -26t26.5 -62t-26.5 -62t-62.5 -26zM747 -10q-18 0 -34 7t-28 19t-19 28t-7 34t7 34
t19 28t28 19t34 7q37 0 63 -26t26 -62t-26 -62t-63 -26z" />
    <glyph glyph-name="perthousand" unicode="&#x2030;" horiz-adv-x="1281" 
d="M222 376q-36 0 -68 13.5t-55.5 37t-37 55t-13.5 67.5t13.5 67.5t37.5 55.5t55.5 37.5t67.5 13.5t67.5 -13.5t55 -37.5t37 -55.5t13.5 -67.5t-13.5 -67.5t-37 -55t-55 -37t-67.5 -13.5zM191 0l370 713h130l-371 -713h-129zM222 479q30 0 50 20.5t20 49.5t-21 50t-49 21
q-29 0 -49.5 -20.5t-20.5 -50.5q0 -29 20.5 -49.5t49.5 -20.5zM665 -8q-36 0 -68 13.5t-55.5 37t-37 55t-13.5 67.5t13.5 67.5t37.5 55.5t55.5 37.5t67.5 13.5t67.5 -13.5t55 -37.5t37 -55.5t13.5 -67.5t-13.5 -67.5t-37 -55t-55 -37t-67.5 -13.5zM1060 -8q-36 0 -68 13.5
t-55.5 37t-37 55t-13.5 67.5t13.5 67.5t37.5 55.5t55.5 37.5t67.5 13.5t67 -13.5t54.5 -37.5t37 -55.5t13.5 -67.5t-13.5 -67.5t-37 -55t-54.5 -37t-67 -13.5zM665 96q29 0 49.5 20t20.5 49t-20.5 49.5t-49.5 20.5t-50 -20t-21 -50q0 -29 21 -49t50 -20zM1060 96
q29 0 49.5 20t20.5 49t-20.5 49.5t-49.5 20.5q-30 0 -50.5 -20t-20.5 -50q0 -29 20.5 -49t50.5 -20z" />
    <glyph glyph-name="guilsinglleft" unicode="&#x2039;" horiz-adv-x="332" 
d="M179 72l-152 184l152 184h126l-152 -184l152 -184h-126z" />
    <glyph glyph-name="guilsinglright" unicode="&#x203a;" horiz-adv-x="332" 
d="M153 72h-126l152 184l-152 184h126l152 -184z" />
    <glyph glyph-name="fraction" unicode="&#x2044;" horiz-adv-x="220" 
d="M-139 0l402 713h96l-402 -713h-96z" />
    <glyph glyph-name="uni2070" unicode="&#x2070;" horiz-adv-x="376" 
d="M188 396q-77 0 -118 54.5t-41 168.5t41.5 168t117.5 54t117.5 -54t41.5 -168t-41 -168.5t-118 -54.5zM188 481q29 0 46.5 32t17.5 106q0 73 -17.5 105t-46.5 32q-30 0 -47 -31.5t-17 -105.5t17.5 -106t46.5 -32z" />
    <glyph glyph-name="uni2074" unicode="&#x2074;" horiz-adv-x="369" 
d="M347 570v-84h-44v-81h-95v81h-196v85l145 261h146v-262h44zM99 570h109v200z" />
    <glyph glyph-name="uni2075" unicode="&#x2075;" horiz-adv-x="367" 
d="M189 682q74 0 114 -32.5t40 -101.5q0 -70 -42 -111t-114 -41q-70 0 -112.5 38t-42.5 104v8t1 8h93v-8q0 -30 16.5 -47.5t46.5 -17.5t44.5 17.5t14.5 43.5q0 22 -9 34.5t-22.5 18.5t-29.5 7.5t-31 1.5h-111l14 228h263v-83h-176l-4 -67h47z" />
    <glyph glyph-name="uni2076" unicode="&#x2076;" horiz-adv-x="349" 
d="M195 690q29 0 54.5 -10t44.5 -29t30.5 -45t11.5 -58t-13 -60t-35.5 -48.5t-52 -32t-62.5 -11.5q-34 0 -63 12t-50.5 33t-33.5 49t-12 59q0 26 8.5 51.5t30.5 54.5l131 177h113l-109 -142h7zM243 550q1 30 -18 51t-53 21q-32 0 -50 -19.5t-20 -50.5q-1 -28 17 -49.5
t52 -21.5q32 0 51.5 20.5t20.5 48.5z" />
    <glyph glyph-name="uni2077" unicode="&#x2077;" horiz-adv-x="323" 
d="M11 832h305v-83l-188 -344h-110l195 344h-202v83z" />
    <glyph glyph-name="uni2078" unicode="&#x2078;" horiz-adv-x="365" 
d="M182 396q-34 0 -63 9.5t-50 27t-33 42.5t-12 56q0 37 17 64.5t46 44.5q-21 14 -33.5 35.5t-12.5 48.5q0 52 39.5 84.5t101.5 32.5t101 -32.5t39 -84.5q0 -27 -12 -48.5t-32 -35.5q29 -17 46 -44.5t17 -64.5q0 -31 -12 -56t-33.5 -42.5t-50.5 -27t-63 -9.5zM182 667
q23 0 38.5 15t15.5 38t-15.5 37.5t-38.5 14.5t-38.5 -14.5t-15.5 -37.5t15.5 -38t38.5 -15zM182 481q27 0 45.5 17t18.5 45q0 29 -18.5 45t-45.5 16t-45 -16t-18 -45q0 -28 18 -45t45 -17z" />
    <glyph glyph-name="uni2079" unicode="&#x2079;" horiz-adv-x="349" 
d="M176 841q34 0 63 -12t50.5 -33t33.5 -49t12 -59q0 -26 -8.5 -51.5t-29.5 -54.5l-132 -177h-113l109 142h-7q-28 0 -54 10.5t-45 29t-30.5 45t-11.5 58.5t13 59.5t35.5 48t52 32t62.5 11.5zM247 685q1 28 -17 50t-52 22q-32 0 -51.5 -21t-20.5 -48q-1 -30 18 -51.5
t53 -21.5q32 0 50 20t20 50z" />
    <glyph glyph-name="uni2080" unicode="&#x2080;" horiz-adv-x="376" 
d="M188 -169q-77 0 -118 54.5t-41 168.5t41.5 168t117.5 54t117.5 -54t41.5 -168t-41 -168.5t-118 -54.5zM188 -84q29 0 46.5 32t17.5 106t-17.5 105.5t-46.5 31.5q-30 0 -47 -31.5t-17 -105.5t17.5 -106t46.5 -32z" />
    <glyph glyph-name="uni2081" unicode="&#x2081;" horiz-adv-x="256" 
d="M112 268h92v-428h-95v317l-97 -78v107z" />
    <glyph glyph-name="uni2082" unicode="&#x2082;" horiz-adv-x="353" 
d="M160 -76h169v-84h-304v73l170 173q17 17 25 31t8 31q0 21 -13.5 32.5t-36.5 11.5q-60 0 -60 -65v-20l-94 10v18q0 66 40 103.5t110 37.5q65 0 106.5 -33t41.5 -92q0 -35 -13.5 -61.5t-41.5 -55.5z" />
    <glyph glyph-name="uni2083" unicode="&#x2083;" horiz-adv-x="358" 
d="M182 -169q-79 0 -120.5 40t-41.5 117h98q0 -31 13 -51.5t48 -20.5q30 0 45 16t15 41q0 19 -7 30t-17 16.5t-20.5 7t-16.5 1.5h-14v73h13q21 0 35.5 13t14.5 36q0 20 -13.5 31.5t-34.5 11.5q-25 0 -39 -17t-14 -47v-4l-96 9q0 69 40 105.5t107 36.5q30 0 55.5 -9.5t44 -25
t28.5 -37t10 -45.5q0 -36 -18.5 -58t-34.5 -30q13 -3 26 -10.5t23.5 -20t17 -30.5t6.5 -42q0 -61 -41.5 -99t-111.5 -38z" />
    <glyph glyph-name="uni2084" unicode="&#x2084;" horiz-adv-x="369" 
d="M347 5v-84h-44v-81h-95v81h-196v85l145 262h146v-263h44zM99 5h109v200z" />
    <glyph glyph-name="uni2085" unicode="&#x2085;" horiz-adv-x="367" 
d="M189 117q74 0 114 -32.5t40 -101.5q0 -70 -42 -111t-114 -41q-70 0 -112.5 38t-42.5 104v8t1 8h93v-8q0 -30 16.5 -47.5t46.5 -17.5t44.5 17.5t14.5 43.5q0 22 -9 34.5t-22.5 18.5t-29.5 7.5t-31 1.5h-111l14 229h263v-84h-176l-4 -67h47z" />
    <glyph glyph-name="uni2086" unicode="&#x2086;" horiz-adv-x="349" 
d="M195 125q29 0 54.5 -10t44.5 -29t30.5 -45t11.5 -58t-13 -60t-35.5 -48.5t-52 -32t-62.5 -11.5q-34 0 -63 12t-50.5 33t-33.5 49t-12 59q0 26 8.5 52t30.5 55l131 177h113l-109 -143h7zM243 -15q1 30 -18 51t-53 21q-32 0 -50 -19.5t-20 -50.5q-1 -28 17 -49.5t52 -21.5
q32 0 51.5 20.5t20.5 48.5z" />
    <glyph glyph-name="uni2087" unicode="&#x2087;" horiz-adv-x="323" 
d="M11 268h305v-84l-188 -344h-110l195 344h-202v84z" />
    <glyph glyph-name="uni2088" unicode="&#x2088;" horiz-adv-x="366" 
d="M183 -169q-34 0 -63 9.5t-50 27t-33 42.5t-12 56q0 37 17 64.5t46 44.5q-21 14 -33.5 35.5t-12.5 48.5q0 52 39 84.5t102 32.5q62 0 101 -32.5t39 -84.5q0 -27 -12 -48.5t-32 -35.5q29 -17 45.5 -44t16.5 -65q0 -31 -12 -56t-33 -42.5t-50 -27t-63 -9.5zM183 102
q23 0 38.5 15t15.5 39q0 23 -15.5 37t-38.5 14t-38.5 -14t-15.5 -37q0 -24 15.5 -39t38.5 -15zM183 -84q27 0 45 17t18 45q0 29 -18 45t-45 16t-45 -16t-18 -45q0 -28 18 -45t45 -17z" />
    <glyph glyph-name="uni2089" unicode="&#x2089;" horiz-adv-x="349" 
d="M176 276q34 0 63 -12t50.5 -33t33.5 -49t12 -59q0 -26 -8.5 -51.5t-29.5 -54.5l-132 -177h-113l109 142h-7q-28 0 -54 10.5t-45 29t-30.5 45t-11.5 58.5t13 59.5t35.5 48t52 32t62.5 11.5zM247 120q1 28 -17 50t-52 22q-32 0 -51.5 -20.5t-20.5 -48.5q-1 -30 18 -51.5
t53 -21.5q32 0 50 20t20 50z" />
    <glyph glyph-name="Euro" unicode="&#x20ac;" horiz-adv-x="776" 
d="M440 139q54 0 88.5 26t53.5 71l142 -85q-43 -72 -115 -116.5t-168 -44.5q-57 0 -107 16.5t-90.5 48.5t-69.5 79.5t-43 109.5h-69v83h58q-1 8 -1 15v15v15.5t1 15.5h-58v82h69q14 62 42.5 109t69 79t91 48.5t107.5 16.5q96 0 168 -44t115 -116l-142 -85q-20 48 -55 73
t-87 25q-49 0 -86 -24.5t-56 -81.5h182v-82h-196q-1 -8 -1 -15.5v-15.5v-15t1 -15h196v-83h-182q19 -57 56.5 -81t85.5 -24z" />
    <glyph glyph-name="uni2113" unicode="&#x2113;" horiz-adv-x="595" 
d="M325 -10q-88 0 -136.5 38t-56.5 120l-52 -36l-40 77l88 63v224q0 65 14 111.5t40 76.5t62.5 44.5t80.5 14.5q83 0 121.5 -47t38.5 -119q0 -82 -52.5 -162.5t-155.5 -165.5v-32q0 -38 23.5 -61t61.5 -23t72 24.5t59 58.5l62 -66q-22 -39 -49 -65.5t-57 -43t-61.5 -24
t-62.5 -7.5zM277 359q54 53 80 107.5t26 94.5q0 27 -11 43.5t-34 16.5q-26 0 -43.5 -27.5t-17.5 -99.5v-135z" />
    <glyph glyph-name="uni2116" unicode="&#x2116;" horiz-adv-x="1414" 
d="M1087 192q-60 0 -109.5 19t-85 54t-55 84t-19.5 109q0 59 19.5 107.5t55 83.5t85 54.5t109.5 19.5t109 -19.5t84.5 -54.5t55 -83.5t19.5 -107.5q0 -60 -19.5 -109t-55 -84t-84.5 -54t-109 -19zM590 235v478h165v-713h-197l-295 481v-481h-165v713h195zM1085 591
q-51 0 -79 -35t-28 -98t28 -98t79 -35q52 0 81 35t29 98t-29 98t-81 35zM861 14v100h451v-100h-451z" />
    <glyph glyph-name="trademark" unicode="&#x2122;" horiz-adv-x="722" 
d="M93 359v280h-83v74h248v-74h-82v-280h-83zM278 359l31 354h122l65 -196l65 196h121l30 -354h-84l-22 256l-83 -256h-55l-82 257l-23 -257h-85z" />
    <glyph glyph-name="estimated" unicode="&#x212e;" horiz-adv-x="956" 
d="M482 -9q-88 0 -166 30t-136 82t-91.5 122t-33.5 149q0 80 33.5 150.5t91.5 123t136 82.5t166 30q89 0 167 -30t136 -82.5t91.5 -123t33.5 -150.5v-10h-692q-6 0 -6 -4v-210q0 -11 9 -24q51 -52 118 -83t144 -31q84 0 154.5 34.5t121.5 93.5h61q-57 -68 -145.5 -108.5
t-192.5 -40.5zM749 385q4 0 4 7v210q0 7 -2.5 13.5t-7.5 11.5q-51 50 -117 80t-143 30q-76 0 -143 -31t-118 -82q-10 -12 -10 -26v-206q0 -7 6 -7h531z" />
    <glyph glyph-name="oneeighth" unicode="&#x215b;" horiz-adv-x="841" 
d="M519 713h96l-402 -713h-96zM204 285h-95v317l-97 -78v107l100 81h92v-427zM755 235q29 -17 46 -44t17 -65q0 -31 -12 -56t-33.5 -42.5t-50.5 -27t-63 -9.5t-63 9.5t-50 27t-33 42.5t-12 56q0 37 17 64.5t46 44.5q-21 14 -33.5 35.5t-12.5 48.5q0 52 39.5 84.5t101.5 32.5
t101 -32.5t39 -84.5q0 -27 -12 -48.5t-32 -35.5zM659 367q-23 0 -38.5 -14t-15.5 -37q0 -24 15.5 -39t38.5 -15t38.5 15t15.5 39q0 23 -15.5 37t-38.5 14zM659 76q27 0 45.5 17t18.5 45q0 29 -18.5 45t-45.5 16t-45 -16t-18 -45q0 -28 18 -45t45 -17z" />
    <glyph glyph-name="threeeighths" unicode="&#x215c;" horiz-adv-x="943" 
d="M182 276q-79 0 -120.5 40t-41.5 117h98q0 -31 13 -51.5t48 -20.5q30 0 45 16t15 41q0 19 -7 30t-17 16.5t-20.5 7t-16.5 1.5h-14v73h13q21 0 35.5 13t14.5 36q0 20 -13.5 31.5t-34.5 11.5q-25 0 -39 -17t-14 -47v-5l-96 10q0 69 40 105.5t107 36.5q30 0 55.5 -9.5t44 -25
t28.5 -37t10 -45.5q0 -36 -18.5 -58t-34.5 -30q13 -3 26 -10.5t23.5 -20t17 -30.5t6.5 -42q0 -61 -41.5 -99t-111.5 -38zM219 0l402 713h96l-402 -713h-96zM760 -9q-34 0 -63 9.5t-50 27t-33 42.5t-12 56q0 37 17 64.5t46 44.5q-21 14 -33.5 35.5t-12.5 48.5q0 52 39.5 84.5
t101.5 32.5t101 -32.5t39 -84.5q0 -27 -12 -48.5t-32 -35.5q29 -17 46 -44t17 -65q0 -31 -12 -56t-33.5 -42.5t-50.5 -27t-63 -9.5zM760 262q23 0 38.5 15t15.5 39q0 23 -15.5 37t-38.5 14t-38.5 -14t-15.5 -37q0 -24 15.5 -39t38.5 -15zM760 76q27 0 45.5 17t18.5 45
q0 29 -18.5 45t-45.5 16t-45 -16t-18 -45q0 -28 18 -45t45 -17z" />
    <glyph glyph-name="fiveeighths" unicode="&#x215d;" horiz-adv-x="951" 
d="M630 713h96l-402 -713h-96zM343 428q0 -70 -42 -111t-114 -41q-70 0 -112.5 38t-42.5 104v8t1 8h93v-8q0 -30 16.5 -47.5t46.5 -17.5t44.5 17.5t14.5 43.5q0 22 -9 34.5t-22.5 18.5t-29.5 7.5t-31 1.5h-111l14 228h263v-83h-176l-4 -67h47q74 0 114 -32.5t40 -101.5z
M865 235q29 -17 46 -44t17 -65q0 -31 -12 -56t-33.5 -42.5t-50.5 -27t-63 -9.5t-63 9.5t-50 27t-33 42.5t-12 56q0 37 17 64.5t46 44.5q-21 14 -33.5 35.5t-12.5 48.5q0 52 39.5 84.5t101.5 32.5t101 -32.5t39 -84.5q0 -27 -12 -48.5t-32 -35.5zM769 367q-23 0 -38.5 -14
t-15.5 -37q0 -24 15.5 -39t38.5 -15t38.5 15t15.5 39q0 23 -15.5 37t-38.5 14zM769 76q27 0 45.5 17t18.5 45q0 29 -18.5 45t-45.5 16t-45 -16t-18 -45q0 -28 18 -45t45 -17z" />
    <glyph glyph-name="seveneighths" unicode="&#x215e;" horiz-adv-x="847" 
d="M525 713h96l-402 -713h-96zM128 285h-110l195 344h-202v83h305v-83zM761 235q29 -17 46 -44t17 -65q0 -31 -12 -56t-33.5 -42.5t-50.5 -27t-63 -9.5t-63 9.5t-50 27t-33 42.5t-12 56q0 37 17 64.5t46 44.5q-21 14 -33.5 35.5t-12.5 48.5q0 52 39.5 84.5t101.5 32.5
t101 -32.5t39 -84.5q0 -27 -12 -48.5t-32 -35.5zM665 367q-23 0 -38.5 -14t-15.5 -37q0 -24 15.5 -39t38.5 -15t38.5 15t15.5 39q0 23 -15.5 37t-38.5 14zM665 76q27 0 45.5 17t18.5 45q0 29 -18.5 45t-45.5 16t-45 -16t-18 -45q0 -28 18 -45t45 -17z" />
    <glyph glyph-name="arrowleft" unicode="&#x2190;" horiz-adv-x="753" 
d="M179 72l-152 184l152 184h126l-103 -125h551v-118h-551l103 -125h-126z" />
    <glyph glyph-name="arrowup" unicode="&#x2191;" horiz-adv-x="448" 
d="M223 713l184 -152v-126l-125 103v-538h-118v538l-125 -103v126z" />
    <glyph glyph-name="arrowright" unicode="&#x2192;" horiz-adv-x="753" 
d="M574 72h-126l103 125h-551v118h551l-103 125h126l152 -184z" />
    <glyph glyph-name="arrowdown" unicode="&#x2193;" horiz-adv-x="448" 
d="M223 0l-184 152v126l125 -103v538h118v-538l125 103v-126z" />
    <glyph glyph-name="arrowboth" unicode="&#x2194;" horiz-adv-x="993" 
d="M807 440l152 -184l-152 -184h-126l103 125h-575l103 -125h-126l-152 184l152 184h126l-103 -125h575l-103 125h126z" />
    <glyph glyph-name="arrowupdn" unicode="&#x2195;" horiz-adv-x="448" 
d="M223 0l-184 152v126l125 -103v363l-125 -103v126l184 152l184 -152v-126l-125 103v-363l125 103v-126z" />
    <glyph glyph-name="uni2196" unicode="&#x2196;" horiz-adv-x="705" 
d="M665 588v-588h-118v470h-333l103 -125h-126l-152 184l152 184h126l-103 -125h451z" />
    <glyph glyph-name="uni2197" unicode="&#x2197;" horiz-adv-x="705" 
d="M514 713l152 -184l-152 -184h-126l103 125h-333v-470h-118v588h451l-103 125h126z" />
    <glyph glyph-name="uni2198" unicode="&#x2198;" horiz-adv-x="705" 
d="M514 368l152 -184l-152 -184h-126l103 125h-451v588h118v-470h333l-103 125h126z" />
    <glyph glyph-name="uni2199" unicode="&#x2199;" horiz-adv-x="705" 
d="M547 713h118v-588h-451l103 -125h-126l-152 184l152 184h126l-103 -125h333v470z" />
    <glyph glyph-name="partialdiff" unicode="&#x2202;" horiz-adv-x="678" 
d="M569 427q26 -34 41 -76.5t15 -94.5q0 -63 -21 -112t-58.5 -83t-90 -52.5t-115.5 -18.5t-116 18.5t-90.5 52.5t-58.5 83t-21 112q0 60 19.5 107.5t55 81.5t84.5 53.5t109 22.5l-180 229h177zM340 114q58 0 93 39.5t35 102.5q0 62 -34.5 101t-93.5 39t-94 -39t-35 -101
q0 -63 35 -102.5t94 -39.5z" />
    <glyph glyph-name="emptyset" unicode="&#x2205;" horiz-adv-x="876" 
d="M823 678l-97 -97q37 -47 57.5 -104t20.5 -120q0 -76 -29 -143t-78.5 -117t-116 -79t-142.5 -29q-64 0 -121 20.5t-104 58.5l-97 -97l-63 63l97 97q-38 47 -58.5 104.5t-20.5 121.5q0 76 29 142.5t79 116t117 78.5t142 29q64 0 121 -20.5t105 -57.5l96 96zM204 357
q0 -37 10.5 -70t29.5 -62l325 325q-29 19 -62 29.5t-69 10.5q-48 0 -90.5 -18.5t-74.5 -50t-50.5 -74t-18.5 -90.5zM671 357q0 36 -10.5 69t-28.5 61l-324 -324q28 -19 61 -29.5t69 -10.5q48 0 90.5 18.5t74 50t50 74.5t18.5 91z" />
    <glyph glyph-name="product" unicode="&#x220f;" horiz-adv-x="820" 
d="M122 0v559h-74v154h724v-154h-72v-559h-154v559h-270v-559h-154z" />
    <glyph glyph-name="summation" unicode="&#x2211;" horiz-adv-x="698" 
d="M636 713v-140h-378l286 -217l-284 -216h376v-140h-566v187l225 167l-225 172v187h566z" />
    <glyph glyph-name="minus" unicode="&#x2212;" horiz-adv-x="560" 
d="M55 197v118h450v-118h-450z" />
    <glyph glyph-name="radical" unicode="&#x221a;" horiz-adv-x="804" 
d="M618 750h148l-357 -750h-134l-127 379h-100v132h202l101 -320z" />
    <glyph glyph-name="infinity" unicode="&#x221e;" horiz-adv-x="843" 
d="M244 79q-38 0 -70 13.5t-55 37t-36 56t-13 70.5t13 70t36 55.5t55 37t70 13.5q89 0 178 -90q89 90 178 90q38 0 70 -13.5t55 -37t36 -55.5t13 -70t-13 -70.5t-36 -56t-55 -37t-70 -13.5q-46 0 -89 21.5t-89 66.5q-47 -45 -89.5 -66.5t-88.5 -21.5zM243 198q43 0 98 58
q-55 57 -98 57q-26 0 -39.5 -15.5t-13.5 -41.5q0 -27 13.5 -42.5t39.5 -15.5zM601 198q25 0 39 15.5t14 42.5q0 26 -14 41.5t-39 15.5q-42 0 -99 -57q55 -58 99 -58z" />
    <glyph glyph-name="integral" unicode="&#x222b;" horiz-adv-x="457" 
d="M41 -203v125h29q11 0 24.5 1.5t26 9t21 23.5t8.5 44v547q0 65 17.5 105t49 62t75 29t95.5 7h29v-125h-29q-10 0 -23.5 -1.5t-26 -9t-21 -23.5t-8.5 -44v-547q0 -65 -17.5 -105t-49 -61.5t-75.5 -29t-96 -7.5h-29z" />
    <glyph glyph-name="approxequal" unicode="&#x2248;" horiz-adv-x="629" 
d="M416 276q-30 0 -54 9t-42 21.5t-30.5 26t-20.5 21.5q-14 14 -24.5 18t-18.5 4q-30 0 -45.5 -26t-15.5 -67h-110q0 45 11.5 82.5t33.5 64.5t54 42t74 15q40 0 70.5 -17t61.5 -56q8 -9 18 -19.5t29 -10.5q25 0 42 23t17 68h108q0 -42 -10.5 -78.5t-30.5 -63.5t-49.5 -42
t-67.5 -15zM416 25q-30 0 -54 9.5t-42 22t-30.5 26t-20.5 21.5q-11 11 -19.5 16t-23.5 4q-31 -2 -46 -26.5t-15 -66.5h-110q0 94 46 149.5t127 55.5q38 0 68.5 -17t63.5 -55l17.5 -20t29.5 -12q25 0 42 23.5t17 69.5h108q0 -42 -10.5 -78.5t-30.5 -63.5t-49.5 -42.5
t-67.5 -15.5z" />
    <glyph glyph-name="notequal" unicode="&#x2260;" horiz-adv-x="630" 
d="M69 -90l91 177h-105v118h165l52 102h-217v118h277l75 147h117l-75 -147h126v-118h-186l-52 -102h238v-118h-298l-90 -177h-118z" />
    <glyph glyph-name="lessequal" unicode="&#x2264;" horiz-adv-x="494" 
d="M439 597v-127l-229 -89l229 -91v-128l-384 168v101zM55 12v118h384v-118h-384z" />
    <glyph glyph-name="greaterequal" unicode="&#x2265;" horiz-adv-x="494" 
d="M55 597l384 -166v-101l-384 -168v128l229 91l-229 89v127zM55 12v118h384v-118h-384z" />
    <glyph glyph-name="lozenge" unicode="&#x25ca;" horiz-adv-x="671" 
d="M336 57l-297 296l297 297l296 -296zM336 231l122 123l-122 122l-123 -123z" />
    <glyph glyph-name="heart" unicode="&#x2665;" horiz-adv-x="734" 
d="M367 -10q-92 71 -156 128.5t-103.5 107t-57 94t-17.5 88.5q0 75 46 121t121 46q60 0 102.5 -33t58.5 -90h12q16 57 58.5 90t102.5 33q75 0 121 -46t46 -121q0 -44 -17.5 -88.5t-57 -94t-103.5 -107t-156 -128.5z" />
    <glyph glyph-name="uniF8FF" unicode="&#xf8ff;" horiz-adv-x="873" 
d="M437 0q-78 0 -147.5 30t-121 81.5t-81.5 121t-30 147.5q0 79 30 148t81.5 120.5t121 81.5t147.5 30q79 0 148 -30t120.5 -81.5t81.5 -120.5t30 -148q0 -78 -30 -147.5t-81.5 -121t-120.5 -81.5t-148 -30zM437 36q71 0 134 27t109.5 74t73.5 109.5t27 133.5t-27 134
t-73.5 109.5t-109.5 73.5t-134 27t-133.5 -27t-109.5 -73.5t-74 -109.5t-27 -134t27 -133.5t74 -109.5t109.5 -74t133.5 -27zM636 217q-7 0 -12 6l-145 144q-12 14 0 26l145 145q13 13 25 0q5 -5 5 -13t-5 -13l-132 -132l132 -132q5 -5 5 -12t-5 -13q-4 -6 -13 -6zM238 217
q-8 0 -13 5t-5 13v290q0 8 5 13t13 5t13 -5t5 -13v-290q0 -8 -5 -13t-13 -5zM437 217q-8 0 -13 5t-5 13v290q0 8 5 13t13 5t13 -5t5 -13v-290q0 -8 -5 -13t-13 -5zM292 362q-8 0 -13 5t-5 13t5 13t13 5h91q8 0 13 -5t5 -13t-5 -13t-13 -5h-91z" />
    <glyph glyph-name="G.ss05" horiz-adv-x="785" 
d="M403 -14q-83 0 -151.5 27t-117 75.5t-75 116.5t-26.5 150q0 83 27.5 151.5t76 117.5t116 76t148.5 27q106 0 188 -47t130 -126l-145 -77q-26 52 -70.5 78t-102.5 26q-44 0 -81.5 -15t-64.5 -43.5t-42 -69.5t-15 -94q0 -50 14 -92t41.5 -72t68.5 -47t94 -17q30 0 59.5 7.5
t54 24t41 41.5t21.5 60h-184v132h344v-76q0 -90 -30.5 -153t-79.5 -103.5t-111.5 -59t-127.5 -18.5z" />
    <glyph glyph-name="Gbreve.ss05" horiz-adv-x="785" 
d="M399 744q-40 0 -73.5 6t-57.5 21.5t-37 42t-14 67.5h99q1 -32 20.5 -45.5t62.5 -13.5t62.5 13.5t21.5 45.5h99q-1 -41 -14.5 -67.5t-37.5 -42t-57 -21.5t-74 -6zM403 -14q-83 0 -151.5 27t-117 75.5t-75 116.5t-26.5 150q0 83 27.5 151.5t76 117.5t116 76t148.5 27
q106 0 188 -47t130 -126l-145 -77q-26 52 -70.5 78t-102.5 26q-44 0 -81.5 -15t-64.5 -43.5t-42 -69.5t-15 -94q0 -50 14 -92t41.5 -72t68.5 -47t94 -17q30 0 59.5 7.5t54 24t41 41.5t21.5 60h-184v132h344v-76q0 -90 -30.5 -153t-79.5 -103.5t-111.5 -59t-127.5 -18.5z" />
    <glyph glyph-name="Gdotaccent.ss05" horiz-adv-x="785" 
d="M400 748q-37 0 -63 26t-26 63q0 36 26 62t63 26q36 0 62 -26t26 -62q0 -37 -26 -63t-62 -26zM403 -14q-83 0 -151.5 27t-117 75.5t-75 116.5t-26.5 150q0 83 27.5 151.5t76 117.5t116 76t148.5 27q106 0 188 -47t130 -126l-145 -77q-26 52 -70.5 78t-102.5 26
q-44 0 -81.5 -15t-64.5 -43.5t-42 -69.5t-15 -94q0 -50 14 -92t41.5 -72t68.5 -47t94 -17q30 0 59.5 7.5t54 24t41 41.5t21.5 60h-184v132h344v-76q0 -90 -30.5 -153t-79.5 -103.5t-111.5 -59t-127.5 -18.5z" />
    <glyph glyph-name="IJacute" horiz-adv-x="772" 
d="M77 743l85 138h167l-114 -138h-138zM562 743l85 138h167l-114 -138h-138zM64 0v713h165v-713h-165zM496 -14q-49 0 -97 12t-102 44l69 135q27 -19 52.5 -29t55.5 -10q38 0 56 23.5t18 83.5v468h165v-499q0 -55 -16 -98t-44.5 -71.5t-68.5 -43.5t-88 -15z" />
    <glyph glyph-name="M.ss03" horiz-adv-x="917" 
d="M590 713h263v-713h-165v554l-175 -554h-110l-174 553v-553h-165v713h263l130 -409z" />
    <glyph glyph-name="Q.ss04" horiz-adv-x="801" 
d="M768 356q0 -78 -24 -142.5t-68 -113.5l83 -100l-142 -55l-62 70q-70 -29 -154 -29q-81 0 -148.5 27t-116 75.5t-76 117t-27.5 150.5q0 83 27.5 151.5t76 117t116 75.5t148.5 27q80 0 147.5 -27t116.5 -75.5t76 -117t27 -151.5zM197 356q0 -49 15.5 -90t42.5 -69.5
t64.5 -44.5t81.5 -16q30 0 60 8l-114 129l146 49l78 -94q34 54 34 128q0 50 -15.5 90.5t-42.5 69.5t-64.5 45t-81.5 16t-81.5 -16t-64.5 -45t-42.5 -69.5t-15.5 -90.5z" />
    <glyph glyph-name="a.ss02" horiz-adv-x="652" 
d="M444 511h149v-511h-149l-6 55q-22 -32 -63 -48.5t-91 -16.5q-51 0 -96.5 17.5t-79.5 51.5t-53.5 83t-19.5 112t19.5 112.5t53.5 84t79.5 52.5t96.5 18q50 0 91 -17t63 -50zM318 120q53 0 88.5 35t35.5 99t-35.5 100t-88.5 36q-54 0 -89.5 -36t-35.5 -100t35.5 -99
t89.5 -35z" />
    <glyph glyph-name="aacute.ss02" horiz-adv-x="652" 
d="M512 713l-117 -142h-138l87 142h168zM444 511h149v-511h-149l-6 55q-22 -32 -63 -48.5t-91 -16.5q-51 0 -96.5 17.5t-79.5 51.5t-53.5 83t-19.5 112t19.5 112.5t53.5 84t79.5 52.5t96.5 18q50 0 91 -17t63 -50zM318 120q53 0 88.5 35t35.5 99t-35.5 100t-88.5 36
q-54 0 -89.5 -36t-35.5 -100t35.5 -99t89.5 -35z" />
    <glyph glyph-name="abreve.ss02" horiz-adv-x="652" 
d="M326 561q-41 0 -74.5 8t-57.5 26t-37 47t-13 71h112q0 -33 17 -52t53 -19q38 0 55 19t17 52h112q0 -42 -13.5 -71t-37.5 -47t-58 -26t-75 -8zM444 511h149v-511h-149l-6 55q-22 -32 -63 -48.5t-91 -16.5q-51 0 -96.5 17.5t-79.5 51.5t-53.5 83t-19.5 112t19.5 112.5
t53.5 84t79.5 52.5t96.5 18q50 0 91 -17t63 -50zM318 120q53 0 88.5 35t35.5 99t-35.5 100t-88.5 36q-54 0 -89.5 -36t-35.5 -100t35.5 -99t89.5 -35z" />
    <glyph glyph-name="acircumflex.ss02" horiz-adv-x="652" 
d="M327 640l-55 -69h-130l96 142h178l96 -142h-130zM444 511h149v-511h-149l-6 55q-22 -32 -63 -48.5t-91 -16.5q-51 0 -96.5 17.5t-79.5 51.5t-53.5 83t-19.5 112t19.5 112.5t53.5 84t79.5 52.5t96.5 18q50 0 91 -17t63 -50zM318 120q53 0 88.5 35t35.5 99t-35.5 100
t-88.5 36q-54 0 -89.5 -36t-35.5 -100t35.5 -99t89.5 -35z" />
    <glyph glyph-name="acutecomb.case" 
d="M-316 743l85 138h167l-114 -138h-138z" />
    <glyph glyph-name="adieresis.ss02" horiz-adv-x="652" 
d="M218 574q-37 0 -63 26t-26 63q0 36 26 62t63 26q36 0 62 -26t26 -62q0 -37 -26 -63t-62 -26zM436 574q-37 0 -63 26t-26 63q0 36 26 62t63 26q36 0 62 -26t26 -62q0 -37 -26 -63t-62 -26zM444 511h149v-511h-149l-6 55q-22 -32 -63 -48.5t-91 -16.5q-51 0 -96.5 17.5
t-79.5 51.5t-53.5 83t-19.5 112t19.5 112.5t53.5 84t79.5 52.5t96.5 18q50 0 91 -17t63 -50zM318 120q53 0 88.5 35t35.5 99t-35.5 100t-88.5 36q-54 0 -89.5 -36t-35.5 -100t35.5 -99t89.5 -35z" />
    <glyph glyph-name="agrave.ss02" horiz-adv-x="652" 
d="M397 571h-139l-116 142h167zM444 511h149v-511h-149l-6 55q-22 -32 -63 -48.5t-91 -16.5q-51 0 -96.5 17.5t-79.5 51.5t-53.5 83t-19.5 112t19.5 112.5t53.5 84t79.5 52.5t96.5 18q50 0 91 -17t63 -50zM318 120q53 0 88.5 35t35.5 99t-35.5 100t-88.5 36q-54 0 -89.5 -36
t-35.5 -100t35.5 -99t89.5 -35z" />
    <glyph glyph-name="amacron.ss02" horiz-adv-x="652" 
d="M470 689v-99h-287v99h287zM444 511h149v-511h-149l-6 55q-22 -32 -63 -48.5t-91 -16.5q-51 0 -96.5 17.5t-79.5 51.5t-53.5 83t-19.5 112t19.5 112.5t53.5 84t79.5 52.5t96.5 18q50 0 91 -17t63 -50zM318 120q53 0 88.5 35t35.5 99t-35.5 100t-88.5 36q-54 0 -89.5 -36
t-35.5 -100t35.5 -99t89.5 -35z" />
    <glyph glyph-name="aogonek.ss02" horiz-adv-x="652" 
d="M593 0q-34 -26 -54.5 -52.5t-20.5 -46.5q0 -11 9.5 -17.5t23.5 -6.5q23 0 42 16v-96q-17 -8 -37 -11.5t-41 -3.5q-39 0 -69 15.5t-30 52.5t32.5 74.5t79.5 75.5h-84l-6 55q-22 -32 -63 -48.5t-91 -16.5q-51 0 -96.5 17.5t-79.5 51.5t-53.5 83t-19.5 112t19.5 112.5
t53.5 84t79.5 52.5t96.5 18q50 0 91 -17t63 -50l6 57h149v-511zM318 120q53 0 88.5 35t35.5 99t-35.5 100t-88.5 36q-54 0 -89.5 -36t-35.5 -100t35.5 -99t89.5 -35z" />
    <glyph glyph-name="aring.ss02" horiz-adv-x="652" 
d="M326 562q-59 0 -93 36t-34 88q0 25 8.5 47t25 38.5t40 26.5t53.5 10q29 0 52.5 -10t40 -26.5t25 -38.5t8.5 -47q0 -52 -33.5 -88t-92.5 -36zM326 734q-20 0 -34.5 -12.5t-14.5 -35.5t14.5 -36t34.5 -13q21 0 35.5 13t14.5 36t-14.5 35.5t-35.5 12.5zM444 511h149v-511
h-149l-6 55q-22 -32 -63 -48.5t-91 -16.5q-51 0 -96.5 17.5t-79.5 51.5t-53.5 83t-19.5 112t19.5 112.5t53.5 84t79.5 52.5t96.5 18q50 0 91 -17t63 -50zM318 120q53 0 88.5 35t35.5 99t-35.5 100t-88.5 36q-54 0 -89.5 -36t-35.5 -100t35.5 -99t89.5 -35z" />
    <glyph glyph-name="aringacute.ss02" horiz-adv-x="652" 
d="M326 562q-59 0 -93 36t-34 88q0 25 8.5 47t25 38.5t40 26.5t53.5 10h11l46 75h168l-113 -138q14 -26 14 -59q0 -52 -33.5 -88t-92.5 -36zM326 734q-20 0 -34.5 -12.5t-14.5 -35.5t14.5 -36t34.5 -13q21 0 35.5 13t14.5 36t-14.5 35.5t-35.5 12.5zM444 511h149v-511h-149
l-6 55q-22 -32 -63 -48.5t-91 -16.5q-51 0 -96.5 17.5t-79.5 51.5t-53.5 83t-19.5 112t19.5 112.5t53.5 84t79.5 52.5t96.5 18q50 0 91 -17t63 -50zM318 120q53 0 88.5 35t35.5 99t-35.5 100t-88.5 36q-54 0 -89.5 -36t-35.5 -100t35.5 -99t89.5 -35z" />
    <glyph glyph-name="atilde.ss02" horiz-adv-x="652" 
d="M260 631q-15 0 -20.5 -18.5t-5.5 -42.5h-75q0 63 29 104.5t81 41.5q35 0 54 -14.5t32 -29.5q9 -11 18 -18t21 -7q15 0 19.5 18t4.5 44h76q0 -31 -7 -57.5t-20.5 -46t-34 -31t-47.5 -11.5q-36 0 -55 14.5t-31 28.5q-9 11 -17.5 18t-21.5 7zM444 511h149v-511h-149l-6 55
q-22 -32 -63 -48.5t-91 -16.5q-51 0 -96.5 17.5t-79.5 51.5t-53.5 83t-19.5 112t19.5 112.5t53.5 84t79.5 52.5t96.5 18q50 0 91 -17t63 -50zM318 120q53 0 88.5 35t35.5 99t-35.5 100t-88.5 36q-54 0 -89.5 -36t-35.5 -100t35.5 -99t89.5 -35z" />
    <glyph glyph-name="braceleft.case" horiz-adv-x="361" 
d="M266 -196q-40 0 -71.5 11t-53 30.5t-32.5 45.5t-11 56v244q0 36 -3.5 56.5t-11.5 31.5t-22.5 16.5t-36.5 11.5v98q22 6 36.5 11.5t22.5 17t11.5 32t3.5 56.5v244q0 30 11 56t32.5 45.5t53 30.5t71.5 11h67v-113h-37q-20 0 -34.5 -11.5t-14.5 -37.5v-221q0 -65 -17.5 -107
t-72.5 -63q55 -20 72.5 -62.5t17.5 -107.5v-220q0 -26 14.5 -38t34.5 -12h37v-112h-67z" />
    <glyph glyph-name="braceright.case" horiz-adv-x="361" 
d="M29 -196v112h36q20 0 34.5 12t14.5 38v220q0 65 18 107.5t73 62.5q-55 21 -73 63t-18 107v221q0 26 -14.5 37.5t-34.5 11.5h-36v113h67q40 0 71 -11t52.5 -30.5t32.5 -45.5t11 -56v-244q0 -36 3.5 -56.5t11.5 -32t22.5 -17t36.5 -11.5v-98q-22 -6 -36.5 -11.5
t-22.5 -16.5t-11.5 -31.5t-3.5 -56.5v-244q0 -30 -11 -56t-32.5 -45.5t-52.5 -30.5t-71 -11h-67z" />
    <glyph glyph-name="bracketleft.case" horiz-adv-x="354" 
d="M58 -196v1105h270v-111h-131v-883h131v-111h-270z" />
    <glyph glyph-name="bracketright.case" horiz-adv-x="355" 
d="M297 -196h-271v111h132v883h-132v111h271v-1105z" />
    <glyph glyph-name="eight.dnom" horiz-adv-x="365" 
d="M182 -9q-34 0 -63 9.5t-50 27t-33 42.5t-12 56q0 37 17 64.5t46 44.5q-21 14 -33.5 35.5t-12.5 48.5q0 52 39.5 84.5t101.5 32.5t101 -32.5t39 -84.5q0 -27 -12 -48.5t-32 -35.5q29 -17 46 -44t17 -65q0 -31 -12 -56t-33.5 -42.5t-50.5 -27t-63 -9.5zM182 262
q23 0 38.5 15t15.5 39q0 23 -15.5 37t-38.5 14t-38.5 -14t-15.5 -37q0 -24 15.5 -39t38.5 -15zM182 76q27 0 45.5 17t18.5 45q0 29 -18.5 45t-45.5 16t-45 -16t-18 -45q0 -28 18 -45t45 -17z" />
    <glyph glyph-name="eight.lf" horiz-adv-x="608" 
d="M305 -14q-57 0 -105.5 16t-83.5 45t-55 70.5t-20 93.5q0 61 28 107t77 73q-35 25 -56 60.5t-21 80.5q0 43 17.5 78.5t49 61.5t74.5 40.5t95 14.5q51 0 94 -14.5t73.5 -40.5t48 -61.5t17.5 -78.5q0 -45 -20.5 -80.5t-53.5 -60.5q48 -27 76 -72.5t28 -107.5q0 -51 -20 -93
t-55 -71t-83 -45t-105 -16zM305 436q37 0 63.5 25t26.5 65q0 38 -27 62t-63 24q-38 0 -64.5 -24t-26.5 -62q0 -40 26.5 -65t64.5 -25zM305 126q45 0 75 29t30 75q0 48 -30 74.5t-75 26.5q-46 0 -76 -26.5t-30 -74.5q0 -46 30.5 -75t75.5 -29z" />
    <glyph glyph-name="eight.numr" horiz-adv-x="365" 
d="M182 276q-34 0 -63 9.5t-50 27t-33 42.5t-12 56q0 37 17 64.5t46 44.5q-21 14 -33.5 35.5t-12.5 48.5q0 52 39.5 84.5t101.5 32.5t101 -32.5t39 -84.5q0 -27 -12 -48.5t-32 -35.5q29 -17 46 -44.5t17 -64.5q0 -31 -12 -56t-33.5 -42.5t-50.5 -27t-63 -9.5zM182 547
q23 0 38.5 15t15.5 38t-15.5 37.5t-38.5 14.5t-38.5 -14.5t-15.5 -37.5t15.5 -38t38.5 -15zM182 361q27 0 45.5 17t18.5 45q0 29 -18.5 45t-45.5 16t-45 -16t-18 -45q0 -28 18 -45t45 -17z" />
    <glyph glyph-name="exclamdown.case" horiz-adv-x="283" 
d="M141 723q37 0 62.5 -25.5t25.5 -62.5t-25.5 -62.5t-62.5 -25.5t-62.5 25.5t-25.5 62.5t25.5 62.5t62.5 25.5zM78 477h125l18 -477h-160z" />
    <glyph glyph-name="f_j" horiz-adv-x="677" 
d="M385 390h-108v-390h-158v390h-102v121h102v36q0 59 20.5 99.5t55.5 65.5t82 36.5t100 11.5q94 0 153.5 -41.5t83.5 -111.5l-154 -40q-11 37 -32.5 52t-59.5 15q-15 0 -31 -3t-29.5 -12.5t-22 -26.5t-8.5 -45v-36h108v-121zM461 511h158v-494q0 -130 -59.5 -195
t-201.5 -65v121q33 0 53 8t31.5 25t15 43t3.5 63v494z" />
    <glyph glyph-name="f_t" horiz-adv-x="752" 
d="M119 0v390h-102v121h102v36q0 65 17.5 105t49 62t75 29t95.5 7h29v-125h-29q-10 0 -23.5 -1.5t-26 -9t-21 -23.5t-8.5 -44v-36h109q45 0 68 18.5t23 63.5v80h132v-162h105v-121h-105v-206q0 -35 15 -50t45 -15h43v-119h-99q-78 0 -120 43.5t-42 122.5v224h-174v-390h-158
z" />
    <glyph glyph-name="five.dnom" horiz-adv-x="367" 
d="M189 277q74 0 114 -32.5t40 -101.5q0 -70 -42 -111t-114 -41q-70 0 -112.5 38t-42.5 104v8t1 8h93v-8q0 -30 16.5 -47.5t46.5 -17.5t44.5 17.5t14.5 43.5q0 22 -9 34.5t-22.5 18.5t-29.5 7.5t-31 1.5h-111l14 229h263v-84h-176l-4 -67h47z" />
    <glyph glyph-name="five.lf" horiz-adv-x="606" 
d="M308 462q124 0 190.5 -54.5t66.5 -169.5q0 -58 -18.5 -104.5t-52 -79.5t-81.5 -50.5t-108 -17.5q-58 0 -105.5 16.5t-81.5 47t-52.5 74t-18.5 97.5v14t1 14h155v-14q0 -51 27 -80t78 -29q50 0 74.5 29.5t24.5 72.5q0 36 -15 57t-37.5 31.5t-49.5 13t-52 2.5h-185l24 381
h438v-140h-293l-6 -111h77z" />
    <glyph glyph-name="five.numr" horiz-adv-x="367" 
d="M189 562q74 0 114 -32.5t40 -101.5q0 -70 -42 -111t-114 -41q-70 0 -112.5 38t-42.5 104v8t1 8h93v-8q0 -30 16.5 -47.5t46.5 -17.5t44.5 17.5t14.5 43.5q0 22 -9 34.5t-22.5 18.5t-29.5 7.5t-31 1.5h-111l14 228h263v-83h-176l-4 -67h47z" />
    <glyph glyph-name="four.dnom" horiz-adv-x="369" 
d="M347 165v-84h-44v-81h-95v81h-196v85l145 262h146v-263h44zM99 165h109v200z" />
    <glyph glyph-name="four.lf" horiz-adv-x="621" 
d="M591 275v-139h-74v-136h-158v136h-326v140l242 437h242v-438h74zM176 275h183v333z" />
    <glyph glyph-name="four.numr" horiz-adv-x="369" 
d="M347 450v-84h-44v-81h-95v81h-196v85l145 261h146v-262h44zM99 450h109v200z" />
    <glyph glyph-name="g.ss01" horiz-adv-x="592" 
d="M562 511v-121h-64q12 -31 12 -68q0 -46 -17.5 -78.5t-47.5 -53.5t-69.5 -30.5t-83.5 -9.5q-54 0 -96 13q-10 -17 -10 -32q0 -16 11.5 -25.5t32 -15t48.5 -8.5t62 -6q42 -4 81.5 -11.5t70.5 -24t50 -44t19 -71.5q0 -46 -20 -79t-56 -54.5t-85 -31.5t-107 -10
q-69 0 -120.5 11t-86 30t-51.5 45t-17 55t16.5 58.5t51.5 59.5q-17 15 -26.5 36.5t-9.5 50.5q0 70 54 118q-47 47 -47 119q0 45 18.5 80t49 59t71 36.5t84.5 12.5q43 0 77 -10h205zM287 260q39 0 58.5 21t19.5 52q0 32 -20 54t-59 22q-38 0 -58.5 -22t-20.5 -54t20.5 -52.5
t59.5 -20.5zM402 -99q0 16 -10.5 26t-29 15.5t-44.5 8.5t-58 6q-16 2 -32 3.5t-32 4.5q-11 -13 -15 -24t-4 -21q0 -29 32 -47.5t84 -18.5q49 0 79 9.5t30 37.5z" />
    <glyph glyph-name="gbreve.ss01" horiz-adv-x="592" 
d="M293 561q-41 0 -74.5 8t-57.5 26t-37 47t-13 71h112q0 -33 17 -52t53 -19q38 0 55 19t17 52h112q0 -42 -13.5 -71t-37.5 -47t-58 -26t-75 -8zM562 511v-121h-64q12 -31 12 -68q0 -46 -17.5 -78.5t-47.5 -53.5t-69.5 -30.5t-83.5 -9.5q-54 0 -96 13q-10 -17 -10 -32
q0 -16 11.5 -25.5t32 -15t48.5 -8.5t62 -6q42 -4 81.5 -11.5t70.5 -24t50 -44t19 -71.5q0 -46 -20 -79t-56 -54.5t-85 -31.5t-107 -10q-69 0 -120.5 11t-86 30t-51.5 45t-17 55t16.5 58.5t51.5 59.5q-17 15 -26.5 36.5t-9.5 50.5q0 70 54 118q-47 47 -47 119q0 45 18.5 80
t49 59t71 36.5t84.5 12.5q43 0 77 -10h205zM287 260q39 0 58.5 21t19.5 52q0 32 -20 54t-59 22q-38 0 -58.5 -22t-20.5 -54t20.5 -52.5t59.5 -20.5zM402 -99q0 16 -10.5 26t-29 15.5t-44.5 8.5t-58 6q-16 2 -32 3.5t-32 4.5q-11 -13 -15 -24t-4 -21q0 -29 32 -47.5t84 -18.5
q49 0 79 9.5t30 37.5z" />
    <glyph glyph-name="gdotaccent.ss01" horiz-adv-x="592" 
d="M294 574q-37 0 -63 26t-26 63q0 36 26 62t63 26q36 0 62 -26t26 -62q0 -37 -26 -63t-62 -26zM562 511v-121h-64q12 -31 12 -68q0 -46 -17.5 -78.5t-47.5 -53.5t-69.5 -30.5t-83.5 -9.5q-54 0 -96 13q-10 -17 -10 -32q0 -16 11.5 -25.5t32 -15t48.5 -8.5t62 -6
q42 -4 81.5 -11.5t70.5 -24t50 -44t19 -71.5q0 -46 -20 -79t-56 -54.5t-85 -31.5t-107 -10q-69 0 -120.5 11t-86 30t-51.5 45t-17 55t16.5 58.5t51.5 59.5q-17 15 -26.5 36.5t-9.5 50.5q0 70 54 118q-47 47 -47 119q0 45 18.5 80t49 59t71 36.5t84.5 12.5q43 0 77 -10h205z
M287 260q39 0 58.5 21t19.5 52q0 32 -20 54t-59 22q-38 0 -58.5 -22t-20.5 -54t20.5 -52.5t59.5 -20.5zM402 -99q0 16 -10.5 26t-29 15.5t-44.5 8.5t-58 6q-16 2 -32 3.5t-32 4.5q-11 -13 -15 -24t-4 -21q0 -29 32 -47.5t84 -18.5q49 0 79 9.5t30 37.5z" />
    <glyph glyph-name="gravecomb.case" 
d="M-202 743l-114 138h167l85 -138h-138z" />
    </font>
</defs>
</svg>
