<?xml version="1.0" standalone="no"?>
<!DOCTYPE svg PUBLIC "-//W3C//DTD SVG 1.1//EN" "http://www.w3.org/Graphics/SVG/1.1/DTD/svg11.dtd" >
<svg xmlns="http://www.w3.org/2000/svg" xmlns:xlink="http://www.w3.org/1999/xlink" version="1.1">
<metadata>
Created by FontForge 20201107 at Sun May 24 06:39:01 2020
 By 
Copyright (c) 2020 Cerebri Sans ProTM Version - 2020 Edition by Alfredo Marco Pradil. All rights reserved.
</metadata>
<defs>
<font id="CerebriSansPro-Heavy" horiz-adv-x="0" >
  <font-face 
    font-family="Cerebri Sans Pro Heavy"
    font-weight="900"
    font-stretch="normal"
    units-per-em="1000"
    panose-1="0 0 10 0 0 0 0 0 0 0"
    ascent="750"
    descent="-250"
    x-height="517"
    cap-height="718"
    bbox="-817 -251 1385 1116"
    underline-thickness="80"
    underline-position="-220"
    unicode-range="U+000D-FB02"
  />
<missing-glyph horiz-adv-x="551" 
d="M35 0v718h480v-718h-480zM169 134h212v450h-212v-450z" />
    <glyph glyph-name="fi" unicode="fi" horiz-adv-x="701" 
d="M391 760q98 0 160.5 -42t89.5 -114l-173 -45q-13 35 -33 47.5t-54 12.5q-12 0 -27 -2t-28 -10.5t-22 -24t-9 -42.5v-23h105v-135h-105v-382h-178v382h-102v135h102v23q0 62 22 104t59.5 67.5t87.5 37t105 11.5zM469 517h178v-517h-178v517z" />
    <glyph glyph-name="fl" unicode="fl" horiz-adv-x="701" 
d="M382 760q52 0 100 -11.5t84.5 -37t58.5 -67.5t22 -104v-540h-178v530q0 27 -7.5 44.5t-19.5 27.5t-28 13.5t-33 3.5q-12 0 -27 -2t-28 -10.5t-22 -24t-9 -42.5v-23h105v-135h-105v-382h-178v382h-102v135h102v23q0 62 22 104t58.5 67.5t84.5 37t100 11.5z" />
    <glyph glyph-name="f_f" unicode="ff" horiz-adv-x="776" 
d="M730 610q-8 0 -20.5 -0.5t-24.5 -7t-21 -21t-9 -41.5v-23h105v-135h-105v-382h-178v382h-182v-382h-178v382h-102v135h102v23q0 62 22 104t59.5 67.5t87.5 37t105 11.5q99 0 158 -45q34 22 80 28.5t101 6.5h30v-140h-30zM295 517h182v23q0 11 0.5 21t1.5 20
q-36 38 -98 38q-86 0 -86 -79v-23z" />
    <glyph glyph-name="f_f_i" unicode="ffi" horiz-adv-x="1053" 
d="M743 760q98 0 160.5 -42t89.5 -114l-173 -45q-13 35 -33 47.5t-54 12.5q-12 0 -27 -2t-28 -10.5t-22 -24t-9 -42.5v-23h105v-135h-105v-382h-178v382h-174v-382h-178v382h-102v135h102v23q0 62 22 104t59.5 67.5t87.5 37t105 11.5q52 0 92 -12t69 -35q38 25 87 36t104 11
zM469 517v23q0 27 4 47q-37 32 -92 32q-86 0 -86 -79v-23h174zM821 517h178v-517h-178v517z" />
    <glyph glyph-name="f_f_l" unicode="ffl" horiz-adv-x="1053" 
d="M734 760q52 0 100 -11.5t84.5 -37t58.5 -67.5t22 -104v-540h-178v530q0 27 -7.5 44.5t-19.5 27.5t-28 13.5t-33 3.5q-12 0 -27 -3.5t-28 -12.5t-22 -24t-9 -39v-23h105v-135h-105v-382h-178v382h-174v-382h-178v382h-102v135h102v23q0 62 22 104t59.5 67.5t87.5 37
t105 11.5q52 0 92 -12t69 -35q36 25 83.5 36t98.5 11zM469 517v23q0 27 4 47q-37 32 -92 32q-86 0 -86 -79v-23h174z" />
    <glyph glyph-name="h_d_c_o.liga" unicode="hdco" horiz-adv-x="782" 
d="M391 0q-78 0 -147.5 30t-121 81.5t-81.5 121t-30 147.5q0 79 30 148t81.5 120.5t121 81.5t147.5 30q79 0 148 -30t120.5 -81.5t81.5 -120.5t30 -148q0 -78 -30 -147.5t-81.5 -121t-120.5 -81.5t-148 -30zM391 36q71 0 134 27t109.5 74t73.5 109.5t27 133.5t-27 134
t-73.5 109.5t-109.5 73.5t-134 27t-133.5 -27t-109.5 -73.5t-74 -109.5t-27 -134t27 -133.5t74 -109.5t109.5 -74t133.5 -27zM590 217q-7 0 -12 6l-145 144q-12 14 0 26l145 145q13 13 25 0q5 -5 5 -13t-5 -13l-132 -132l132 -132q5 -5 5 -12t-5 -13q-4 -6 -13 -6zM192 217
q-8 0 -13 5t-5 13v290q0 8 5 13t13 5t13 -5t5 -13v-290q0 -8 -5 -13t-13 -5zM391 217q-8 0 -13 5t-5 13v290q0 8 5 13t13 5t13 -5t5 -13v-290q0 -8 -5 -13t-13 -5zM246 362q-8 0 -13 5t-5 13t5 13t13 5h91q8 0 13 -5t5 -13t-5 -13t-13 -5h-91z" />
    <glyph glyph-name="hyphen_greater.liga" unicode="&#x2d;&#x3e;" horiz-adv-x="766" 
d="M588 75h-140l97 118h-545v132h545l-97 118h140l152 -184z" />
    <glyph glyph-name="less_hyphen.liga" unicode="&#x3c;&#x2d;" horiz-adv-x="766" 
d="M178 75l-152 184l152 184h140l-97 -118h545v-132h-545l97 -118h-140z" />
    <glyph glyph-name="parenleft_greater_parenright.liga" unicode="&#x28;&#x3e;&#x29;" horiz-adv-x="796" 
d="M398 -10q-76 0 -143 29t-117.5 79.5t-79.5 117.5t-29 143t29 143t79.5 117.5t117.5 79.5t143 29t143 -29t117.5 -79.5t79.5 -117.5t29 -143t-29 -143t-79.5 -117.5t-117.5 -79.5t-143 -29zM398 80q59 0 109.5 21.5t88.5 59.5t59.5 89t21.5 109q0 59 -21.5 109.5
t-59.5 88.5t-88.5 59.5t-109.5 21.5q-58 0 -109 -21.5t-89 -59.5t-59.5 -88.5t-21.5 -109.5q0 -58 21.5 -109t59.5 -89t89 -59.5t109 -21.5zM313 160v398l291 -199z" />
    <glyph glyph-name=".notdef" horiz-adv-x="551" 
d="M35 0v718h480v-718h-480zM169 134h212v450h-212v-450z" />
    <glyph glyph-name=".null" 
 />
    <glyph glyph-name=".null" 
 />
    <glyph glyph-name="nonmarkingreturn" unicode="&#xd;" horiz-adv-x="250" 
 />
    <glyph glyph-name="space" unicode=" " horiz-adv-x="260" 
 />
    <glyph glyph-name="exclam" unicode="!" horiz-adv-x="294" 
d="M76 245l-20 473h180l-20 -473h-140zM146 -10q-40 0 -68 28t-28 68q0 41 28 69t68 28q41 0 69 -28t28 -69q0 -40 -28 -68t-69 -28z" />
    <glyph glyph-name="quotedbl" unicode="&#x22;" horiz-adv-x="470" 
d="M62 397l-26 321h169l-20 -321h-123zM286 397l-20 321h168l-25 -321h-123z" />
    <glyph glyph-name="numbersign" unicode="#" horiz-adv-x="797" 
d="M151 0l21 154h-136l16 121h137l25 165h-139l21 120h134l23 158h120l-21 -158h151l22 158h121l-22 -158h138l-19 -120h-136l-23 -165h136l-17 -121h-135l-24 -154h-120l22 154h-154l-20 -154h-121zM311 275h151l24 165h-153z" />
    <glyph glyph-name="dollar" unicode="$" horiz-adv-x="617" 
d="M353 440q39 -13 80 -29.5t74 -43t54.5 -64t21.5 -92.5q0 -47 -17 -86.5t-48.5 -68.5t-76.5 -47.5t-100 -22.5v-68h-60v68q-55 3 -103 19.5t-85 45t-61.5 68.5t-31.5 91l184 39q13 -51 37.5 -77t59.5 -33v149q-10 3 -19.5 6t-20.5 7q-38 13 -76 29t-69 40t-50 58.5
t-19 85.5q0 48 18.5 88t52 68.5t80.5 45t103 17.5v56h60v-59q41 -5 80.5 -19t72 -38t56 -59.5t33.5 -83.5l-167 -38q-25 69 -75 85v-133l6 -2zM215 525q0 -23 18.5 -37t47.5 -25v118q-30 -4 -48 -18.5t-18 -37.5zM341 140q49 11 49 57q0 23 -13 38.5t-36 27.5v-123z" />
    <glyph glyph-name="percent" unicode="%" horiz-adv-x="921" 
d="M227 368q-37 0 -70 14t-57.5 38.5t-38.5 57.5t-14 70t14 70t38.5 57.5t57.5 38.5t70 14q38 0 70.5 -14t57 -38.5t38.5 -57.5t14 -70t-14 -70t-38.5 -57.5t-57 -38.5t-70.5 -14zM201 0l371 718h145l-372 -718h-144zM227 483q29 0 47 18.5t18 46.5q0 27 -19.5 46t-45.5 19
q-27 0 -46 -18.5t-19 -46.5t19 -46.5t46 -18.5zM695 -8q-38 0 -71 14t-57.5 38.5t-38.5 57.5t-14 70q0 38 14 70.5t39 57t58 38.5t70 14t69.5 -14t57 -38.5t38.5 -57t14 -70.5q0 -37 -14 -70t-38.5 -57.5t-57 -38.5t-69.5 -14zM695 108q27 0 46 18.5t19 45.5
q0 26 -19.5 45.5t-45.5 19.5q-28 0 -47 -18.5t-19 -46.5q0 -27 19 -45.5t47 -18.5z" />
    <glyph glyph-name="ampersand" unicode="&#x26;" horiz-adv-x="788" 
d="M759 0h-201l-33 39q-46 -26 -100 -40t-117 -14q-62 0 -113.5 15.5t-88 44t-57 69t-20.5 89.5q0 38 10.5 68t31.5 56.5t52.5 51.5t73.5 51l-16 19q-21 25 -32 55.5t-11 61.5q0 41 16.5 72t45 52t66.5 32t81 11q56 0 97.5 -12.5t70 -35t42.5 -53t14 -65.5q0 -54 -37 -94
t-106 -73l111 -134q20 36 31 78.5t11 90.5h159q0 -83 -24.5 -158.5t-72.5 -136.5zM357 617q-24 0 -38 -10.5t-14 -30.5q0 -26 24 -55l16 -19q32 19 46.5 38.5t14.5 36.5t-14 28.5t-35 11.5zM326 134q54 0 100 23l-140 167q-38 -23 -57.5 -45t-19.5 -59q0 -42 31.5 -64
t85.5 -22z" />
    <glyph glyph-name="quotesingle" unicode="'" horiz-adv-x="242" 
d="M57 397l-20 321h168l-25 -321h-123z" />
    <glyph glyph-name="parenleft" unicode="(" horiz-adv-x="383" 
d="M198 -250q-75 98 -116 243.5t-41 316.5t41 316.5t116 243.5h167q-40 -45 -71 -105t-52.5 -132t-33 -153.5t-11.5 -169.5t11.5 -169.5t33 -153.5t52.5 -132t71 -105h-167z" />
    <glyph glyph-name="parenright" unicode=")" horiz-adv-x="383" 
d="M18 -250q40 45 71 105t52.5 132t33 153.5t11.5 169.5t-11.5 169.5t-33 153.5t-52.5 132t-71 105h167q75 -98 116 -243.5t41 -316.5t-41 -316.5t-116 -243.5h-167z" />
    <glyph glyph-name="asterisk" unicode="*" horiz-adv-x="428" 
d="M152 362l-82 49l82 95q14 16 7.5 27t-26.5 7l-125 -24v95l125 -23q20 -4 26.5 7t-7.5 27l-82 95l82 49l42 -121q7 -20 20 -20t20 20l42 121l84 -49l-84 -95q-14 -16 -7.5 -27t27.5 -7l124 23v-95l-124 24q-21 4 -27 -6.5t8 -27.5l83 -95l-84 -49l-42 120q-7 20 -20 20
t-20 -20z" />
    <glyph glyph-name="plus" unicode="+" horiz-adv-x="606" 
d="M237 11v182h-182v132h182v182h132v-182h182v-132h-182v-182h-132z" />
    <glyph glyph-name="comma" unicode="," horiz-adv-x="341" 
d="M56 -182l62 330h182l-118 -330h-126z" />
    <glyph glyph-name="hyphen" unicode="-" horiz-adv-x="400" 
d="M25 193v132h350v-132h-350z" />
    <glyph glyph-name="period" unicode="." horiz-adv-x="330" 
d="M164 -10q-19 0 -36.5 7.5t-31 21t-21 31t-7.5 36.5q0 20 7.5 37.5t21 31t31 21t36.5 7.5q20 0 37.5 -7.5t31 -21t21 -31t7.5 -37.5q0 -19 -7.5 -36.5t-21 -31t-31 -21t-37.5 -7.5z" />
    <glyph glyph-name="slash" unicode="/" horiz-adv-x="663" 
d="M4 -210l488 960h167l-488 -960h-167z" />
    <glyph glyph-name="zero" unicode="0" horiz-adv-x="620" 
d="M310 -15q-131 0 -202.5 91.5t-71.5 282.5q0 192 72 283t202 91t201.5 -91t71.5 -283q0 -191 -71 -282.5t-202 -91.5zM310 144q43 0 69 49.5t26 165.5t-26 165.5t-69 49.5t-69.5 -49.5t-26.5 -165.5t26.5 -165.5t69.5 -49.5z" />
    <glyph glyph-name="one" unicode="1" horiz-adv-x="620" 
d="M284 718h171v-718h-178v511l-160 -129v201z" />
    <glyph glyph-name="two" unicode="2" horiz-adv-x="620" 
d="M307 157h263v-157h-520v134l284 288q24 24 36.5 45t12.5 46q0 31 -18.5 46.5t-52.5 15.5q-87 0 -87 -98v-33l-177 18v31q0 56 18 100.5t51 75.5t80.5 47.5t106.5 16.5q56 0 102.5 -14.5t80.5 -42t53 -67t19 -89.5q0 -62 -22.5 -106t-67.5 -90z" />
    <glyph glyph-name="three" unicode="3" horiz-adv-x="620" 
d="M316 -15q-135 0 -205.5 68t-70.5 200h183q0 -22 4.5 -42t14.5 -35t27 -24t43 -9q45 0 65.5 24t20.5 61q0 30 -11.5 46t-26 23.5t-28.5 8.5t-19 1h-23v135h20q30 0 50.5 20t20.5 53q0 29 -19 45.5t-49 16.5q-38 0 -58.5 -25.5t-20.5 -72.5v-8l-180 18q0 59 18 104.5
t51 76.5t80 47t105 16q53 0 96.5 -16t75 -43.5t49 -64t17.5 -77.5q0 -30 -9 -54.5t-21.5 -42.5t-27 -30t-26.5 -18q19 -5 39.5 -17t38 -32.5t28.5 -50t11 -70.5q0 -52 -18.5 -94.5t-52.5 -73t-83 -47.5t-109 -17z" />
    <glyph glyph-name="four" unicode="4" horiz-adv-x="620" 
d="M596 288v-157h-71v-131h-178v131h-322v158l226 429h274v-430h71zM184 288h163v313z" />
    <glyph glyph-name="five" unicode="5" horiz-adv-x="620" 
d="M323 468q122 0 189 -55t67 -170q0 -60 -18.5 -107.5t-53.5 -81t-84 -51.5t-111 -18q-59 0 -107.5 17t-83 48t-53.5 75t-19 99v14t1 14h174v-12q0 -45 23.5 -71t67.5 -26q45 0 65.5 25.5t20.5 62.5q0 35 -15 53.5t-36.5 27t-45.5 10t-43 1.5h-192l20 395h454v-157h-289
l-4 -93h73z" />
    <glyph glyph-name="six" unicode="6" horiz-adv-x="620" 
d="M349 478q47 0 90 -17t75.5 -48t51.5 -75t19 -98t-23 -100.5t-61 -81t-88.5 -54t-105.5 -19.5q-58 0 -107.5 21t-86 56t-57.5 82t-21 99q0 42 14 85t51 94l213 296h212l-179 -240h3zM411 244q2 45 -26 76.5t-80 31.5q-48 0 -75 -29t-29 -74q-1 -20 5 -39t19 -34t32.5 -24
t44.5 -9q24 0 44 8.5t34 22.5t22 32t9 38z" />
    <glyph glyph-name="seven" unicode="7" horiz-adv-x="620" 
d="M54 718h515v-157l-304 -561h-205l317 561h-323v157z" />
    <glyph glyph-name="eight" unicode="8" horiz-adv-x="620" 
d="M310 -15q-58 0 -108 16t-86.5 46t-57 72.5t-20.5 95.5q0 61 26.5 106.5t73.5 74.5q-33 26 -52 60t-19 78t18 80.5t50 63t76.5 41t98.5 14.5q53 0 97 -14.5t76 -41t50 -63t18 -80.5t-18.5 -78t-49.5 -60q46 -29 72.5 -74.5t26.5 -106.5q0 -53 -20.5 -95.5t-57 -72.5
t-86 -46t-108.5 -16zM310 446q32 0 56 22.5t24 58.5q0 35 -24 56t-56 21q-33 0 -56.5 -21t-23.5 -56q0 -36 23.5 -58.5t56.5 -22.5zM310 143q40 0 67 26t27 68q0 44 -27 68t-67 24q-41 0 -67.5 -24t-26.5 -68q0 -42 27 -68t67 -26z" />
    <glyph glyph-name="nine" unicode="9" horiz-adv-x="620" 
d="M313 733q58 0 107.5 -21t86 -56t57.5 -82t21 -99q0 -42 -14 -85t-51 -94l-213 -296h-212l179 240h-3q-47 0 -90 17t-75.5 48t-51.5 75t-19 98t23 100.5t61 81t88.5 54t105.5 19.5zM209 474q-2 -45 26 -76.5t80 -31.5q48 0 75 29t29 74q1 20 -5 39t-19 34t-32 24t-45 9
q-24 0 -43.5 -8.5t-34 -22.5t-22.5 -32t-9 -38z" />
    <glyph glyph-name="colon" unicode=":" horiz-adv-x="311" 
d="M155 317q-19 0 -36.5 7.5t-31 21t-21 31t-7.5 37.5t7.5 37t21 30.5t31 21t36.5 7.5q20 0 37.5 -7.5t31 -21t21 -30.5t7.5 -37t-7.5 -37.5t-21 -31t-31 -21t-37.5 -7.5zM155 -10q-19 0 -36.5 7.5t-31 21t-21 31t-7.5 36.5q0 20 7.5 37.5t21 31t31 21t36.5 7.5
q20 0 37.5 -7.5t31 -21t21 -31t7.5 -37.5q0 -19 -7.5 -36.5t-21 -31t-31 -21t-37.5 -7.5z" />
    <glyph glyph-name="semicolon" unicode=";" horiz-adv-x="337" 
d="M183 317q-19 0 -36.5 7.5t-31 21t-21 31t-7.5 37.5t7.5 37t21 30.5t31 21t36.5 7.5q20 0 37.5 -7.5t31 -21t21 -30.5t7.5 -37t-7.5 -37.5t-21 -31t-31 -21t-37.5 -7.5zM42 -182l62 330h182l-118 -330h-126z" />
    <glyph glyph-name="less" unicode="&#x3c;" horiz-adv-x="496" 
d="M441 508v-142l-212 -107l212 -107v-143l-386 195v111z" />
    <glyph glyph-name="equal" unicode="=" horiz-adv-x="560" 
d="M55 305v132h450v-132h-450zM55 81v132h450v-132h-450z" />
    <glyph glyph-name="greater" unicode="&#x3e;" horiz-adv-x="496" 
d="M55 508l386 -193v-111l-386 -195v143l212 107l-212 107v142z" />
    <glyph glyph-name="question" unicode="?" horiz-adv-x="552" 
d="M198 235v47q0 27 7 45.5t18 31.5t25 22.5t29 17.5q14 8 27.5 16.5t24 20.5t16.5 28t6 39q0 42 -24.5 63t-60.5 21q-41 0 -63.5 -23t-22.5 -58q0 -13 3 -28l-157 11q0 6 -0.5 12.5t-0.5 14.5q0 47 17.5 86.5t49 68.5t76 45.5t98.5 16.5q56 0 102.5 -15t79.5 -43t51.5 -68
t18.5 -90q0 -53 -14.5 -88t-35.5 -58.5t-44.5 -38t-42.5 -26.5q-18 -11 -30 -23t-12 -31v-17h-141zM270 -10q-41 0 -69 28t-28 68q0 41 28.5 68.5t68.5 27.5q39 0 67 -27.5t28 -68.5q0 -40 -27.5 -68t-67.5 -28z" />
    <glyph glyph-name="at" unicode="@" horiz-adv-x="887" 
d="M445 -113q-81 0 -152 28.5t-124 79.5t-83.5 121t-30.5 152q0 87 29 160t81 126.5t123.5 83t156.5 29.5q89 0 161 -31t123 -82.5t78.5 -119.5t27.5 -142q0 -97 -43.5 -150.5t-128.5 -53.5q-47 0 -75.5 13t-52.5 47h-9q-20 -32 -52 -49t-72 -17q-25 0 -48.5 6.5t-41.5 20
t-29 33t-11 44.5q0 29 13 48.5t32 32.5t41 21t40 12l101 26v14q0 25 -14 36t-36 11q-26 0 -41.5 -13t-21.5 -45l-113 26q13 49 57 80.5t119 31.5q29 0 59 -6.5t54 -23.5t39.5 -45.5t15.5 -72.5v-75q0 -37 13 -52.5t45 -15.5q34 0 48.5 24t14.5 80q0 60 -20.5 112.5t-58 91.5
t-91.5 62t-122 23q-64 0 -118 -22t-93 -61.5t-60.5 -94.5t-21.5 -122q0 -62 23 -114t63 -90t93 -59.5t114 -21.5q87 0 165 49l45 -85q-45 -29 -99 -45t-112 -16zM430 164q29 0 49 21.5t20 53.5v21l-58 -21q-31 -11 -40.5 -20t-9.5 -23q0 -16 11.5 -24t27.5 -8z" />
    <glyph glyph-name="A" unicode="A" horiz-adv-x="759" 
d="M560 0l-46 133h-269l-46 -133h-198l264 718h229l264 -718h-198zM297 286h165l-82 238z" />
    <glyph glyph-name="B" unicode="B" horiz-adv-x="636" 
d="M475 386q61 -21 95.5 -63t34.5 -117q0 -51 -16 -86.5t-41 -58.5t-56.5 -35.5t-62.5 -18t-58.5 -6.5t-44.5 -1h-266v718h242q128 0 193 -46.5t65 -137.5q0 -106 -85 -148zM374 502q0 64 -76 64h-52v-127h52q76 0 76 63zM329 157q48 0 69 16.5t21 54.5t-21 54.5t-69 16.5
h-83v-142h83z" />
    <glyph glyph-name="C" unicode="C" horiz-adv-x="776" 
d="M402 -15q-81 0 -149.5 27t-118 76.5t-77.5 118.5t-28 152t28 152t77.5 118.5t118 76.5t149.5 27q64 0 120 -17t101.5 -48.5t79 -76t51.5 -99.5l-175 -62q-18 62 -65 97.5t-112 35.5q-40 0 -74.5 -14.5t-59.5 -41.5t-39 -64.5t-14 -83.5t14 -83.5t39 -64.5t59.5 -41.5
t74.5 -14.5q65 0 112 35.5t65 97.5l175 -62q-18 -55 -51.5 -99.5t-79 -76t-101.5 -48.5t-120 -17z" />
    <glyph glyph-name="D" unicode="D" horiz-adv-x="719" 
d="M60 0v718h239q90 0 151 -16.5t106 -47.5q66 -47 98.5 -122t32.5 -173t-32.5 -173t-98.5 -122q-45 -31 -106 -47.5t-151 -16.5h-239zM246 162h52q77 0 127 33q38 25 57 67t19 97t-19 97t-57 67q-50 33 -127 33h-52v-394z" />
    <glyph glyph-name="E" unicode="E" horiz-adv-x="542" 
d="M496 556h-250v-117h223v-160h-223v-117h250v-162h-436v718h436v-162z" />
    <glyph glyph-name="F" unicode="F" horiz-adv-x="531" 
d="M506 556h-260v-117h223v-160h-223v-279h-186v718h446v-162z" />
    <glyph glyph-name="G" unicode="G" horiz-adv-x="794" 
d="M391 -15q-79 0 -145.5 27t-114.5 76.5t-75 118.5t-27 152t28 152t77.5 118.5t118 76.5t149.5 27q108 0 191.5 -46.5t130.5 -128.5l-162 -87q-24 44 -65.5 68t-94.5 24q-40 0 -74.5 -14.5t-59.5 -41.5t-39 -64.5t-14 -83.5q0 -45 13 -82.5t37 -64.5t58.5 -42t78.5 -15
q25 0 50 5.5t47.5 18t40.5 32t29 47.5h-159v147h341v-405h-144v77q-34 -40 -86.5 -66t-129.5 -26z" />
    <glyph glyph-name="H" unicode="H" horiz-adv-x="757" 
d="M60 0v718h186v-278h265v278h186v-718h-186v280h-265v-280h-186z" />
    <glyph glyph-name="I" unicode="I" horiz-adv-x="306" 
d="M60 0v718h186v-718h-186z" />
    <glyph glyph-name="J" unicode="J" horiz-adv-x="493" 
d="M212 -15q-52 0 -102.5 13t-108.5 46l78 152q28 -20 53 -30t55 -10q35 0 50 20.5t15 79.5v462h186v-498q0 -58 -16.5 -102t-46.5 -73.5t-71.5 -44.5t-91.5 -15z" />
    <glyph glyph-name="K" unicode="K" horiz-adv-x="732" 
d="M497 0l-206 289h-45v-289h-186v718h186v-269h43l210 269h226l-275 -344l280 -374h-233z" />
    <glyph glyph-name="L" unicode="L" horiz-adv-x="464" 
d="M60 0v718h186v-556h210v-162h-396z" />
    <glyph glyph-name="M" unicode="M" horiz-adv-x="965" 
d="M929 0h-188l-43 513l-154 -513h-124l-154 513l-43 -513h-188l62 718h271l114 -367l114 367h271z" />
    <glyph glyph-name="N" unicode="N" horiz-adv-x="800" 
d="M554 718h186v-718h-221l-273 453v-453h-186v718h219l275 -450v450z" />
    <glyph glyph-name="O" unicode="O" horiz-adv-x="804" 
d="M402 -15q-81 0 -149.5 27t-118 76.5t-77.5 118.5t-28 152t28 152t77.5 118.5t118 76.5t149.5 27t149.5 -27t118 -76.5t77.5 -118.5t28 -152t-28 -152t-77.5 -118.5t-118 -76.5t-149.5 -27zM402 155q41 0 75 14.5t59 41.5t39 64.5t14 83.5t-14 83.5t-39 64.5t-59 41.5
t-75 14.5q-40 0 -74.5 -14.5t-59.5 -41.5t-39 -64.5t-14 -83.5t14 -83.5t39 -64.5t59.5 -41.5t74.5 -14.5z" />
    <glyph glyph-name="P" unicode="P" horiz-adv-x="613" 
d="M527 658q30 -26 47.5 -67t17.5 -100q0 -69 -26 -126.5t-83 -88.5q-22 -12 -47 -19t-49 -10t-45 -3.5t-36 -0.5h-60v-243h-186v718h246q81 0 133.5 -15t87.5 -45zM383 418q23 18 23 62q0 25 -7 40.5t-20 24.5q-20 14 -49 16.5t-51 2.5h-33v-167h33q10 0 24 0.5t28.5 2.5
t28 6t23.5 12z" />
    <glyph glyph-name="Q" unicode="Q" horiz-adv-x="812" 
d="M801 -26l-160 -62l-90 100q-67 -27 -149 -27q-81 0 -149.5 27t-118 76.5t-77.5 118.5t-28 152t28 152t77.5 118.5t118 76.5t149.5 27t149.5 -27t118 -76.5t77.5 -118.5t28 -152q0 -74 -22 -136.5t-62 -110.5zM215 359q0 -46 14 -83.5t39 -64.5t59.5 -41.5t74.5 -14.5
q41 0 75 14.5t59 41.5t39 64.5t14 83.5t-14 83.5t-39 64.5t-59 41.5t-75 14.5q-40 0 -74.5 -14.5t-59.5 -41.5t-39 -64.5t-14 -83.5z" />
    <glyph glyph-name="R" unicode="R" horiz-adv-x="661" 
d="M654 0h-227l-181 278v-278h-186v718h246q81 0 133.5 -15t87.5 -45q30 -26 47.5 -67t17.5 -100q0 -60 -26 -114t-83 -82q-7 -3 -13.5 -6t-13.5 -5zM379 545q-20 14 -49 16.5t-51 2.5h-33v-167h33q10 0 24 0.5t28.5 2.5t28 6t23.5 12q23 18 23 62q0 25 -7 40.5t-20 24.5z
" />
    <glyph glyph-name="S" unicode="S" horiz-adv-x="617" 
d="M306 -15q-59 0 -111.5 15t-93 43.5t-67 70.5t-34.5 96l184 39q15 -61 47 -87t78 -26q39 0 60 16t21 45q0 18 -10.5 31t-28.5 23.5t-41.5 19t-50.5 17.5q-39 13 -80 29t-75 41t-55.5 62.5t-21.5 93.5q0 50 19.5 90t54 69t83 44.5t106.5 15.5q47 0 94.5 -11t88 -35
t70 -62.5t40.5 -94.5l-167 -38q-17 47 -43.5 68.5t-70.5 21.5q-38 0 -62.5 -15t-24.5 -42q0 -15 9.5 -25.5t26 -19t38 -15.5t46.5 -15q41 -12 84.5 -28t80 -42t60 -66.5t23.5 -102.5q0 -51 -20 -92.5t-56 -71.5t-87 -46t-114 -16z" />
    <glyph glyph-name="T" unicode="T" horiz-adv-x="525" 
d="M517 718v-162h-161v-556h-186v556h-162v162h509z" />
    <glyph glyph-name="U" unicode="U" horiz-adv-x="694" 
d="M347 -15q-62 0 -116 15.5t-93.5 49t-62.5 85.5t-23 125v458h186v-433q0 -38 8.5 -63.5t23 -40.5t34.5 -21.5t43 -6.5t43 6.5t34.5 21.5t23 40.5t8.5 63.5v433h186v-458q0 -73 -23 -125t-62.5 -85.5t-93.5 -49t-116 -15.5z" />
    <glyph glyph-name="V" unicode="V" horiz-adv-x="760" 
d="M560 718h198l-264 -718h-229l-264 718h198l181 -524z" />
    <glyph glyph-name="W" unicode="W" horiz-adv-x="1097" 
d="M896 718h192l-176 -718h-246l-118 374l-117 -374h-246l-176 718h192l122 -514l148 514h155l147 -514z" />
    <glyph glyph-name="X" unicode="X" horiz-adv-x="784" 
d="M2 0l280 374l-275 344h226l159 -208l159 208h226l-275 -344l280 -374h-233l-157 221l-157 -221h-233z" />
    <glyph glyph-name="Y" unicode="Y" horiz-adv-x="649" 
d="M654 718l-236 -375v-343h-186v340l-238 378h204l126 -212l127 212h203z" />
    <glyph glyph-name="Z" unicode="Z" horiz-adv-x="584" 
d="M252 162h299v-162h-518v145l297 411h-297v162h516v-145z" />
    <glyph glyph-name="bracketleft" unicode="[" horiz-adv-x="368" 
d="M54 -250v1120h285v-124h-129v-872h129v-124h-285z" />
    <glyph glyph-name="backslash" unicode="\" horiz-adv-x="663" 
d="M492 -210l-488 960h167l488 -960h-167z" />
    <glyph glyph-name="bracketright" unicode="]" horiz-adv-x="368" 
d="M314 -250h-285v124h129v872h-129v124h285v-1120z" />
    <glyph glyph-name="asciicircum" unicode="^" horiz-adv-x="739" 
d="M700 166h-149l-181 400l-182 -400h-149l250 552h161z" />
    <glyph glyph-name="underscore" unicode="_" horiz-adv-x="500" 
d="M0 -142v132h500v-132h-500z" />
    <glyph glyph-name="grave" unicode="`" horiz-adv-x="394" 
d="M178 577l-118 141h188l86 -141h-156z" />
    <glyph glyph-name="a" unicode="a" horiz-adv-x="596" 
d="M541 91q0 -22 2 -40.5t10 -35.5v-15h-176l-7 53q-13 -17 -32.5 -29t-41.5 -19.5t-45.5 -11t-45.5 -3.5q-30 0 -60.5 7t-55.5 23.5t-41 43.5t-16 68q0 46 19 75.5t48.5 48.5t64 30t64.5 18l83 21q21 5 36.5 12.5t15.5 27.5q0 11 -6.5 18.5t-16.5 11.5t-22.5 5.5t-23.5 1.5
q-35 0 -59 -16t-32 -48l-170 26q18 85 89.5 124t174.5 39q120 0 182 -48.5t62 -142.5v-245zM259 111q18 0 38 7.5t37 23t28 39t11 54.5l-117 -35q-6 -2 -14 -5t-15 -8t-12 -13.5t-5 -21.5q0 -21 14.5 -31t34.5 -10z" />
    <glyph glyph-name="b" unicode="b" horiz-adv-x="661" 
d="M377 527q52 0 98 -18t80.5 -52.5t54.5 -84.5t20 -115q0 -64 -20 -114t-54.5 -84t-80.5 -51.5t-98 -17.5q-48 0 -87 14t-61 43l-6 -47h-168v750h178v-277q23 27 61 40.5t83 13.5zM338 136q48 0 81 30.5t33 90.5t-33 92t-81 32t-80.5 -32t-32.5 -92t32.5 -90.5t80.5 -30.5z
" />
    <glyph glyph-name="c" unicode="c" horiz-adv-x="613" 
d="M319 -10q-64 0 -117.5 19.5t-91.5 55t-59 85t-21 109.5t21 109.5t59 84.5t91.5 54.5t117.5 19.5q106 0 177 -51.5t87 -150.5l-164 -15q-8 42 -34 60.5t-68 18.5q-51 0 -80 -36t-29 -94t29 -94.5t80 -36.5q42 0 68 19t34 61l164 -15q-8 -49 -31 -87t-57.5 -63.5t-79.5 -39
t-96 -13.5z" />
    <glyph glyph-name="d" unicode="d" horiz-adv-x="661" 
d="M428 750h178v-750h-168l-6 47q-22 -29 -61 -43t-87 -14q-52 0 -98 17.5t-80.5 51.5t-54.5 84t-20 114q0 65 20 115t54.5 84.5t80.5 52.5t98 18q45 0 83 -13.5t61 -40.5v277zM323 136q48 0 80.5 30.5t32.5 90.5t-32.5 92t-80.5 32t-81 -32t-33 -92t33 -90.5t81 -30.5z" />
    <glyph glyph-name="e" unicode="e" horiz-adv-x="613" 
d="M577 223h-370q6 -48 37 -71.5t74 -23.5q33 0 56.5 13t34.5 42l164 -21q-24 -84 -92 -128t-162 -44q-67 0 -120 18t-90.5 52.5t-57.5 84t-20 113.5t20.5 114t57.5 84.5t89 52.5t115 18q57 0 105.5 -15t84 -47t56 -81.5t20.5 -119.5zM314 397q-41 0 -66 -16t-36 -51h192
q-8 32 -32 49.5t-58 17.5z" />
    <glyph glyph-name="f" unicode="f" horiz-adv-x="416" 
d="M370 610q-8 0 -20.5 -0.5t-24.5 -7t-21 -21t-9 -41.5v-23h105v-135h-105v-382h-178v382h-102v135h102v23q0 69 19 110.5t52.5 63.5t80 29t101.5 7h30v-140h-30z" />
    <glyph glyph-name="g" unicode="g" horiz-adv-x="640" 
d="M418 517h168v-498q0 -74 -19.5 -125t-55.5 -83t-87.5 -46.5t-115.5 -14.5q-60 0 -105.5 11.5t-79 33t-55.5 51.5t-36 66l148 60q22 -45 49 -65.5t72 -20.5q61 0 84 33t23 86v69q-22 -24 -59.5 -39t-83.5 -15q-48 0 -90.5 18t-74.5 51t-51 80t-19 106t19 105.5t51 79
t75.5 50t91.5 17.5q50 0 87.5 -17t57.5 -44zM310 162q48 0 78.5 32t30.5 81t-30.5 81t-78.5 32t-78.5 -32t-30.5 -81t31 -81t78 -32z" />
    <glyph glyph-name="h" unicode="h" horiz-adv-x="647" 
d="M407 527q94 0 142.5 -49.5t48.5 -149.5v-328h-178v300q0 50 -24 68.5t-59 18.5q-17 0 -35.5 -4.5t-33.5 -17t-25.5 -35.5t-10.5 -60v-270h-178v750h178v-293q29 32 73.5 51t101.5 19z" />
    <glyph glyph-name="i" unicode="i" horiz-adv-x="284" 
d="M143 567q-41 0 -69.5 28t-28.5 69q0 40 28.5 68t69.5 28q20 0 37 -7.5t30.5 -20.5t21 -30.5t7.5 -37.5t-7.5 -38t-21 -31t-30.5 -20.5t-37 -7.5zM53 0v517h178v-517h-178z" />
    <glyph glyph-name="j" unicode="j" horiz-adv-x="283" 
d="M140 567q-41 0 -69.5 28t-28.5 69q0 40 28.5 68t69.5 28q20 0 37 -7.5t30.5 -20.5t21 -30.5t7.5 -37.5t-7.5 -38t-21 -31t-30.5 -20.5t-37 -7.5zM-50 -107q32 0 51.5 8t30.5 24t14.5 40.5t3.5 58.5v493h178v-493q0 -131 -64.5 -199t-213.5 -68v136z" />
    <glyph glyph-name="k" unicode="k" horiz-adv-x="622" 
d="M401 275l215 -275h-213l-149 203h-22v-203h-178v750h178v-427h19l153 194h198z" />
    <glyph glyph-name="l" unicode="l" horiz-adv-x="286" 
d="M54 0v750h178v-750h-178z" />
    <glyph glyph-name="m" unicode="m" horiz-adv-x="964" 
d="M728 527q88 0 137 -39t49 -111v-377h-178v315q0 38 -22 55t-51 17q-16 0 -32.5 -5.5t-29 -19t-20.5 -37.5t-8 -61v-264h-178v315q0 38 -22 55t-51 17q-16 0 -32.5 -5.5t-29 -19t-20.5 -37.5t-8 -61v-264h-178v517h168l8 -61q56 71 157 71q66 0 110 -22t63 -64
q27 42 70 64t98 22z" />
    <glyph glyph-name="n" unicode="n" horiz-adv-x="647" 
d="M396 527q102 0 151.5 -47t49.5 -132v-348h-178v310q0 43 -24.5 60t-56.5 17q-18 0 -36 -4.5t-32.5 -15.5t-24.5 -30t-13 -48v-289h-178v517h168l7 -55q29 31 71 48t96 17z" />
    <glyph glyph-name="o" unicode="o" horiz-adv-x="650" 
d="M325 -10q-65 0 -119.5 18.5t-93.5 53t-60.5 84t-21.5 113.5q0 63 21.5 113t60.5 84t93.5 52.5t119.5 18.5t119.5 -18.5t93.5 -52.5t60.5 -84t21.5 -113q0 -64 -21.5 -113.5t-60.5 -84t-93.5 -53t-119.5 -18.5zM325 130q54 0 85.5 35.5t31.5 93.5q0 57 -31.5 92.5
t-85.5 35.5t-85.5 -35.5t-31.5 -92.5q0 -58 31.5 -93.5t85.5 -35.5z" />
    <glyph glyph-name="p" unicode="p" horiz-adv-x="661" 
d="M376 527q52 0 98 -17.5t80.5 -51.5t54.5 -83.5t20 -114.5q0 -64 -20 -114.5t-54.5 -85t-80.5 -52.5t-98 -18q-45 0 -83 13.5t-61 40.5v-287h-178v760h168l6 -46q22 29 61.5 42.5t86.5 13.5zM337 136q48 0 81 32t33 92t-33 90.5t-81 30.5t-80.5 -30.5t-32.5 -90.5
t32.5 -92t80.5 -32z" />
    <glyph glyph-name="q" unicode="q" horiz-adv-x="661" 
d="M439 517h168v-760h-178v287q-23 -27 -61 -40.5t-83 -13.5q-52 0 -98 18t-80.5 52.5t-54.5 85t-20 114.5q0 65 20 114.5t54.5 83.5t80.5 51.5t98 17.5q47 0 86.5 -13.5t61.5 -42.5zM324 136q48 0 80.5 32t32.5 92t-32.5 90.5t-80.5 30.5t-81 -30.5t-33 -90.5t33 -92
t81 -32z" />
    <glyph glyph-name="r" unicode="r" horiz-adv-x="411" 
d="M232 455q23 32 65.5 52t96.5 20v-165q-43 0 -74 -5.5t-50.5 -20t-28.5 -40t-9 -64.5v-232h-178v517h178v-62z" />
    <glyph glyph-name="s" unicode="s" horiz-adv-x="536" 
d="M281 -10q-47 0 -89.5 8.5t-76 26t-55.5 44.5t-30 65l147 41q14 -38 37 -51t55 -13q22 0 42 6.5t20 27.5q0 13 -8.5 21.5t-22.5 15t-32 10.5t-38 8q-45 9 -80 20.5t-59 30t-36.5 44.5t-12.5 63q0 81 60 125t161 44q38 0 74 -7t67 -22.5t53.5 -41t33.5 -62.5l-155 -34
q-14 30 -33 41t-46 11q-24 0 -39 -8t-15 -23q0 -20 29 -29.5t71 -18.5q49 -11 86.5 -24t62.5 -31.5t37.5 -46t12.5 -66.5q0 -48 -19 -81.5t-49.5 -54t-70.5 -30t-82 -9.5z" />
    <glyph glyph-name="t" unicode="t" horiz-adv-x="431" 
d="M284 0q-83 0 -126.5 45t-43.5 129v208h-99v135h29q21 0 38 4.5t29 16.5t18.5 33.5t6.5 55.5v53h156v-163h102v-135h-102v-181q0 -33 15 -47t41 -14h46v-140h-110z" />
    <glyph glyph-name="u" unicode="u" horiz-adv-x="648" 
d="M415 517h178v-517h-168l-7 56q-29 -31 -71.5 -48.5t-96.5 -17.5q-102 0 -151.5 47t-49.5 132v348h178v-310q0 -43 24.5 -59.5t56.5 -16.5q20 0 39 5t34 18t24.5 35.5t9.5 57.5v270z" />
    <glyph glyph-name="v" unicode="v" horiz-adv-x="617" 
d="M416 517h194l-223 -517h-158l-223 517h194l108 -305z" />
    <glyph glyph-name="w" unicode="w" horiz-adv-x="930" 
d="M732 517h189l-179 -517h-179l-98 292l-98 -292h-179l-179 517h189l89 -298l109 298h138l109 -298z" />
    <glyph glyph-name="x" unicode="x" horiz-adv-x="669" 
d="M7 0l220 259l-220 258h223l104 -142l105 142h222l-221 -259l221 -258h-222l-104 140l-104 -140h-224z" />
    <glyph glyph-name="y" unicode="y" horiz-adv-x="617" 
d="M416 517h194l-325 -760h-194l124 275l-209 485h194l108 -300z" />
    <glyph glyph-name="z" unicode="z" horiz-adv-x="502" 
d="M480 517l-199 -382h187v-135h-449l199 382h-180v135h442z" />
    <glyph glyph-name="braceleft" unicode="{" horiz-adv-x="376" 
d="M274 -250q-43 0 -76 11.5t-55.5 31.5t-34 47t-11.5 57v249q0 37 -3.5 56.5t-12 29.5t-23 14t-36.5 10v108q22 6 36.5 10.5t23 14t12 29t3.5 56.5v249q0 30 11.5 57t34 47t55.5 31.5t76 11.5h72v-126h-37q-18 0 -31.5 -9.5t-13.5 -33.5v-222q0 -67 -18.5 -107.5
t-75.5 -61.5q57 -21 75.5 -61.5t18.5 -107.5v-222q0 -24 13.5 -33.5t31.5 -9.5h37v-126h-72z" />
    <glyph glyph-name="bar" unicode="|" horiz-adv-x="364" 
d="M93 -150v900h178v-900h-178z" />
    <glyph glyph-name="braceright" unicode="}" horiz-adv-x="376" 
d="M30 -250v126h37q18 0 31.5 9.5t13.5 33.5v222q0 67 18.5 107.5t75.5 61.5q-57 21 -75.5 61.5t-18.5 107.5v222q0 24 -13.5 33.5t-31.5 9.5h-37v126h72q43 0 76 -11.5t55.5 -31.5t34 -47t11.5 -57v-249q0 -37 3.5 -56.5t12 -29t23 -14t36.5 -10.5v-108q-22 -6 -36.5 -10
t-23 -14t-12 -29.5t-3.5 -56.5v-249q0 -30 -11.5 -57t-34 -47t-55.5 -31.5t-76 -11.5h-72z" />
    <glyph glyph-name="asciitilde" unicode="~" horiz-adv-x="635" 
d="M418 151q-32 0 -56.5 9.5t-43 22.5t-31.5 26t-21 20q-12 11 -20 13t-13 2q-15 0 -25.5 -8t-17 -20.5t-9.5 -28t-3 -30.5h-123q0 47 11.5 85.5t34 66t56.5 43t80 15.5q47 0 76 -17t55 -54q6 -8 15 -17t24 -9q22 0 38.5 22t13.5 64h121q0 -43 -10.5 -80.5t-31 -65.5
t-51 -43.5t-69.5 -15.5z" />
    <glyph glyph-name="exclamdown" unicode="&#xa1;" horiz-adv-x="294" 
d="M146 525q41 0 69 -28t28 -68q0 -41 -28 -69t-69 -28q-40 0 -68 28t-28 69q0 40 28 68t68 28zM76 270h140l20 -473h-180z" />
    <glyph glyph-name="cent" unicode="&#xa2;" horiz-adv-x="613" 
d="M317 234q42 0 68 18.5t34 60.5l164 -15q-14 -87 -72 -137.5t-143 -62.5v-98h-102v99q-54 8 -97.5 30t-74 56.5t-47.5 79.5t-17 99t17 99t47.5 79t74 56.5t97.5 29.5v90h102v-89q87 -11 144 -61.5t71 -137.5l-164 -15q-8 42 -34 60.5t-68 18.5q-51 0 -80 -36t-29 -94
t29 -94t80 -36z" />
    <glyph glyph-name="sterling" unicode="&#xa3;" horiz-adv-x="663" 
d="M453 497q1 6 1 11v10q0 37 -19 52.5t-54 15.5q-38 0 -60.5 -24.5t-22.5 -81.5v-73h124v-125h-124v-132h283v-150h-517v103l28 8q44 13 44 65v106h-72v125h72v73q0 55 18.5 101t51.5 79t79 51.5t100 18.5q39 0 78 -9.5t69.5 -32t50 -59.5t19.5 -91q0 -8 -0.5 -14.5
t-0.5 -13.5z" />
    <glyph glyph-name="currency" unicode="&#xa4;" horiz-adv-x="683" 
d="M159 86l-93 98l54 54q-33 57 -33 124q0 68 33 126l-53 53l93 98l56 -56q59 33 126 33t124 -33l55 55l95 -95l-54 -54q17 -29 24.5 -61t7.5 -65q0 -32 -7.5 -64.5t-24.5 -61.5l53 -53l-93 -98l-56 56q-58 -32 -125 -32t-126 32zM341 242q26 0 48 10t38 27t25 39t9 46
q0 25 -9.5 46.5t-26 37.5t-38 25.5t-46.5 9.5t-47 -10t-38 -26.5t-25.5 -38.5t-9.5 -47q0 -26 10 -48t26.5 -37.5t38 -24.5t45.5 -9z" />
    <glyph glyph-name="yen" unicode="&#xa5;" horiz-adv-x="649" 
d="M654 718l-177 -281h92v-132h-151v-92h151v-132h-151v-81h-186v81h-153v132h153v92h-153v132h92l-177 281h204l126 -212l127 212h203z" />
    <glyph glyph-name="brokenbar" unicode="&#xa6;" horiz-adv-x="364" 
d="M93 390v360h178v-360h-178zM93 -150v360h178v-360h-178z" />
    <glyph glyph-name="section" unicode="&#xa7;" horiz-adv-x="620" 
d="M324 -164q-43 0 -85 9t-77.5 29.5t-61 53.5t-34.5 81l143 36q8 -48 35 -68.5t71 -20.5q38 0 64.5 16t26.5 51q0 17 -10.5 28.5t-28.5 20.5t-42 17t-51 16q-36 11 -73.5 25.5t-67.5 36.5t-49.5 55t-19.5 81q0 38 10.5 67.5t30.5 52.5q-19 20 -30 46t-11 61q0 45 17.5 80.5
t48 60t73 37.5t93.5 13q43 0 85 -9t77.5 -29.5t61 -53.5t34.5 -81l-143 -36q-8 48 -35 68.5t-71 20.5q-38 0 -64.5 -16t-26.5 -51q0 -16 10.5 -28t28.5 -21t42 -17t51 -16q36 -11 73.5 -25.5t67.5 -36.5t49.5 -55t19.5 -81q0 -38 -10.5 -67.5t-30.5 -52.5q19 -20 30 -46
t11 -61q0 -45 -17.5 -80.5t-48 -60t-73 -37.5t-93.5 -13zM388 203q15 17 15 43q0 21 -12 35.5t-32 25.5t-46 20t-55 18l-26 9q-15 -16 -15 -43q0 -21 12 -35.5t32 -25.5t46 -20t55 -18z" />
    <glyph glyph-name="dieresis" unicode="&#xa8;" horiz-adv-x="543" 
d="M158 567q-41 0 -69.5 28t-28.5 69q0 40 28.5 68t69.5 28q20 0 37 -7.5t30.5 -20.5t21 -30.5t7.5 -37.5t-7.5 -38t-21 -31t-30.5 -20.5t-37 -7.5zM387 567q-41 0 -69.5 28t-28.5 69q0 40 28.5 68t69.5 28q20 0 37 -7.5t30.5 -20.5t21 -30.5t7.5 -37.5t-7.5 -38t-21 -31
t-30.5 -20.5t-37 -7.5z" />
    <glyph glyph-name="copyright" unicode="&#xa9;" horiz-adv-x="848" 
d="M424 -10q-76 0 -143 29t-117.5 79.5t-79.5 117.5t-29 143t29 143t79.5 117.5t117.5 79.5t143 29t143 -29t117.5 -79.5t79.5 -117.5t29 -143t-29 -143t-79.5 -117.5t-117.5 -79.5t-143 -29zM424 80q59 0 109.5 21.5t88.5 59.5t59.5 89t21.5 109q0 59 -21.5 109.5
t-59.5 88.5t-88.5 59.5t-109.5 21.5q-58 0 -109 -21.5t-89 -59.5t-59.5 -88.5t-21.5 -109.5q0 -58 21.5 -109t59.5 -89t89 -59.5t109 -21.5zM424 179q-38 0 -71 14t-57 38t-38 57t-14 71t14 71t38 57t57 38t71 14q45 0 82.5 -19.5t62.5 -52.5l-73 -53q-12 16 -30.5 25.5
t-41.5 9.5q-38 0 -64 -26t-26 -64t26 -64t64 -26q23 0 41.5 9.5t30.5 25.5l73 -53q-25 -33 -62.5 -52.5t-82.5 -19.5z" />
    <glyph glyph-name="ordfeminine" unicode="&#xaa;" horiz-adv-x="430" 
d="M269 718h98v-300h-98v33q-17 -18 -40 -28.5t-52 -10.5q-31 0 -57.5 12t-46.5 33t-31.5 49.5t-11.5 61.5t11.5 61.5t31.5 49.5t46.5 33t57.5 12q29 0 52 -10.5t40 -28.5v33zM198 497q29 0 50 21t21 50q0 30 -21 50.5t-50 20.5t-50 -20.5t-21 -50.5q0 -29 21 -50t50 -21z
" />
    <glyph glyph-name="guillemotleft" unicode="&#xab;" horiz-adv-x="598" 
d="M178 75l-152 184l152 184h140l-152 -184l152 -184h-140zM432 75l-152 184l152 184h141l-152 -184l152 -184h-141z" />
    <glyph glyph-name="logicalnot" unicode="&#xac;" horiz-adv-x="795" 
d="M598 59v256h-543v143h685v-399h-142z" />
    <glyph glyph-name="uni00AD" unicode="&#xad;" horiz-adv-x="400" 
d="M25 193v132h350v-132h-350z" />
    <glyph glyph-name="registered" unicode="&#xae;" horiz-adv-x="437" 
d="M218 307q-43 0 -81.5 17t-67 45.5t-45 67t-16.5 81.5q0 44 16.5 82t45 66.5t67 45t81.5 16.5t81.5 -16.5t67 -45t45.5 -66.5t17 -82q0 -43 -17 -81.5t-45.5 -67t-67 -45.5t-81.5 -17zM218 359q33 0 62 12.5t50.5 34t34 50.5t12.5 62t-12.5 62.5t-34 51t-50.5 34t-62 12.5
t-62.5 -12.5t-51 -34t-34 -51t-12.5 -62.5t12.5 -62t34 -50.5t51 -34t62.5 -12.5zM134 406v223h109q28 0 47 -19.5t19 -48.5q0 -20 -9 -35t-24 -23l40 -97h-60l-33 89h-34v-89h-55zM189 540h40q13 0 19 6t6 15q0 21 -25 21h-40v-42z" />
    <glyph glyph-name="macron" unicode="&#xaf;" horiz-adv-x="420" 
d="M60 591v111h300v-111h-300z" />
    <glyph glyph-name="degree" unicode="&#xb0;" horiz-adv-x="444" 
d="M222 416q-33 0 -61.5 12t-49.5 33t-33 49.5t-12 61.5t12 61.5t33 49.5t49.5 33t61.5 12t61.5 -12t49.5 -33t33 -49.5t12 -61.5t-12 -61.5t-33 -49.5t-49.5 -33t-61.5 -12zM222 512q26 0 42.5 17t16.5 43t-16.5 42.5t-42.5 16.5t-42.5 -16.5t-16.5 -42.5t16.5 -43
t42.5 -17z" />
    <glyph glyph-name="plusminus" unicode="&#xb1;" horiz-adv-x="606" 
d="M237 200v122h-182v132h182v122h132v-122h182v-132h-182v-122h-132zM55 11v132h496v-132h-496z" />
    <glyph glyph-name="uni00B2" unicode="&#xb2;" horiz-adv-x="360" 
d="M178 501h158v-94h-312v80l170 173q15 14 22.5 27t7.5 28q0 37 -43 37q-52 0 -52 -59v-20l-106 11v19q0 68 41 106t112 38q67 0 110 -34t43 -94q0 -37 -13.5 -63.5t-40.5 -54.5z" />
    <glyph glyph-name="uni00B3" unicode="&#xb3;" horiz-adv-x="363" 
d="M185 398q-81 0 -123.5 41t-42.5 120h110q1 -27 11 -46.5t42 -19.5q27 0 39.5 14t12.5 37q0 18 -7 27.5t-15.5 14t-17 5t-11.5 0.5h-14v81h12q18 0 30.5 12t12.5 32q0 17 -11.5 27t-29.5 10q-23 0 -35.5 -15t-12.5 -44v-4l-108 10q0 72 41.5 109.5t111.5 37.5
q32 0 58 -9.5t45 -26t29.5 -38.5t10.5 -47q0 -36 -18.5 -58t-32.5 -29q12 -3 24 -10t22.5 -19t17 -30t6.5 -43q0 -63 -42.5 -101t-114.5 -38z" />
    <glyph glyph-name="acute" unicode="&#xb4;" horiz-adv-x="394" 
d="M60 577l86 141h188l-118 -141h-156z" />
    <glyph glyph-name="uni00B5" unicode="&#xb5;" horiz-adv-x="647" 
d="M414 517h178v-517h-168l-7 56q-29 -31 -71.5 -48.5t-96.5 -17.5h-11.5t-10.5 1v-234h-178v760h178v-310q0 -43 24 -59.5t56 -16.5q20 0 39 5t34 18t24.5 35.5t9.5 57.5v270z" />
    <glyph glyph-name="paragraph" unicode="&#xb6;" horiz-adv-x="598" 
d="M235 -150v533h-11q-83 0 -130.5 43t-47.5 125t47.5 124.5t130.5 42.5h99v-868h-88zM416 -150v868h89v-868h-89z" />
    <glyph glyph-name="periodcentered" unicode="&#xb7;" horiz-adv-x="360" 
d="M178 260q-20 0 -38 7.5t-31.5 21t-21.5 31.5t-8 39q0 20 8 38t21.5 31.5t31.5 21.5t38 8q19 0 37 -8t31.5 -21.5t22 -31.5t8.5 -38q0 -21 -8.5 -39t-22 -31.5t-31.5 -21t-37 -7.5z" />
    <glyph glyph-name="cedilla" unicode="&#xb8;" horiz-adv-x="381" 
d="M226 -42q44 0 69.5 -26.5t25.5 -68.5q0 -48 -34 -80.5t-89 -32.5q-63 0 -95.5 23.5t-42.5 57.5l96 24q5 -14 15.5 -21t22.5 -7q14 0 26 9.5t12 26.5q0 19 -12 28t-26 9q-23 0 -34 -18l-81 34l81 131l83 -31l-43 -61q14 3 26 3z" />
    <glyph glyph-name="uni00B9" unicode="&#xb9;" horiz-adv-x="267" 
d="M114 838h103v-431h-107v307l-96 -78v121z" />
    <glyph glyph-name="ordmasculine" unicode="&#xba;" horiz-adv-x="392" 
d="M196 416q-36 0 -66.5 12t-53 33t-35.5 49.5t-13 61.5t13 61.5t35.5 49.5t53 33t66.5 12q35 0 66 -12t54 -33t36 -49.5t13 -61.5t-13 -61.5t-36 -49.5t-54 -33t-66 -12zM196 501q29 0 50 21t21 50q0 30 -21 50.5t-50 20.5t-50 -20.5t-21 -50.5q0 -29 21 -50t50 -21z" />
    <glyph glyph-name="guillemotright" unicode="&#xbb;" horiz-adv-x="598" 
d="M166 75h-141l152 184l-152 184h141l152 -184zM420 75h-140l152 184l-152 184h140l152 -184z" />
    <glyph glyph-name="onequarter" unicode="&#xbc;" horiz-adv-x="838" 
d="M217 287h-107v307l-96 -78v121l100 81h103v-431zM532 718h108l-405 -718h-108zM817 173v-94h-43v-79h-107v79h-193v94l136 258h164v-258h43zM569 173h98v187z" />
    <glyph glyph-name="onehalf" unicode="&#xbd;" horiz-adv-x="860" 
d="M217 287h-107v307l-96 -78v121l100 81h103v-431zM532 718h108l-405 -718h-108zM678 94h158v-94h-312v80l170 173q15 14 22.5 27t7.5 28q0 37 -43 37q-52 0 -52 -59v-20l-106 11v19q0 68 41 106t112 38q67 0 110 -34t43 -94q0 -37 -13.5 -63.5t-40.5 -54.5z" />
    <glyph glyph-name="threequarters" unicode="&#xbe;" horiz-adv-x="934" 
d="M342 417q0 -63 -42.5 -101t-114.5 -38q-81 0 -123.5 41t-42.5 120h110q1 -27 11 -46.5t42 -19.5q27 0 39.5 14t12.5 37q0 18 -7 27.5t-15.5 14t-17 5t-11.5 0.5h-14v81h12q18 0 30.5 12t12.5 32q0 17 -11.5 27t-29.5 10q-23 0 -35.5 -15t-12.5 -44v-4l-108 10
q0 72 41.5 109.5t111.5 37.5q32 0 58 -9.5t45 -26t29.5 -38.5t10.5 -47q0 -36 -18.5 -58t-32.5 -29q12 -3 24 -10t22.5 -19t17 -30t6.5 -43zM628 718h108l-405 -718h-108zM913 173v-94h-43v-79h-107v79h-193v94l136 258h164v-258h43zM665 173h98v187z" />
    <glyph glyph-name="questiondown" unicode="&#xbf;" horiz-adv-x="552" 
d="M273 527q41 0 69 -28t28 -68q0 -41 -28.5 -68.5t-68.5 -27.5q-39 0 -67 27.5t-28 68.5q0 40 27.5 68t67.5 28zM345 282v-47q0 -27 -7 -45.5t-18 -31.5t-25 -22.5t-29 -17.5q-14 -8 -27.5 -16.5t-24 -20.5t-16.5 -28t-6 -39q0 -42 24.5 -63t60.5 -21q41 0 63.5 23t22.5 58
q0 13 -3 28l157 -11q0 -6 0.5 -12.5t0.5 -14.5q0 -47 -17.5 -86.5t-49 -68.5t-76 -45.5t-98.5 -16.5q-56 0 -102.5 15t-79.5 43t-51.5 68t-18.5 90q0 53 14.5 88t35.5 58.5t44.5 38t42.5 26.5q18 11 30 23t12 31v17h141z" />
    <glyph glyph-name="Agrave" unicode="&#xc0;" horiz-adv-x="759" 
d="M458 748h-156l-118 141h188zM560 0l-46 133h-269l-46 -133h-198l264 718h229l264 -718h-198zM297 286h165l-82 238z" />
    <glyph glyph-name="Aacute" unicode="&#xc1;" horiz-adv-x="759" 
d="M576 889l-118 -141h-156l86 141h188zM560 0l-46 133h-269l-46 -133h-198l264 718h229l264 -718h-198zM297 286h165l-82 238z" />
    <glyph glyph-name="Acircumflex" unicode="&#xc2;" horiz-adv-x="759" 
d="M380 809l-50 -61h-146l96 141h200l96 -141h-146zM560 0l-46 133h-269l-46 -133h-198l264 718h229l264 -718h-198zM297 286h165l-82 238z" />
    <glyph glyph-name="Atilde" unicode="&#xc3;" horiz-adv-x="759" 
d="M314 812q-13 0 -16.5 -17.5t-3.5 -40.5h-83q0 66 29.5 109t83.5 43q35 0 54.5 -14t32.5 -28q8 -10 16 -16.5t19 -6.5q13 0 15.5 17t2.5 42h84q0 -32 -7 -59.5t-21.5 -48t-35.5 -32.5t-49 -12q-36 0 -55 14t-31 28q-8 9 -16 15.5t-19 6.5zM560 0l-46 133h-269l-46 -133
h-198l264 718h229l264 -718h-198zM297 286h165l-82 238z" />
    <glyph glyph-name="Adieresis" unicode="&#xc4;" horiz-adv-x="759" 
d="M266 750q-41 0 -69.5 28t-28.5 69q0 40 28.5 68t69.5 28q20 0 37 -7.5t30.5 -20.5t21 -30.5t7.5 -37.5t-7.5 -38t-21 -31t-30.5 -20.5t-37 -7.5zM495 750q-41 0 -69.5 28t-28.5 69q0 40 28.5 68t69.5 28q20 0 37 -7.5t30.5 -20.5t21 -30.5t7.5 -37.5t-7.5 -38t-21 -31
t-30.5 -20.5t-37 -7.5zM560 0l-46 133h-269l-46 -133h-198l264 718h229l264 -718h-198zM297 286h165l-82 238z" />
    <glyph glyph-name="Aring" unicode="&#xc5;" horiz-adv-x="759" 
d="M380 748q-29 0 -55 9.5t-45 27t-30 42.5t-11 56t11 56t30 42.5t45 27t55 9.5t54.5 -9.5t44 -27t29.5 -42.5t11 -56t-11 -56t-29.5 -42.5t-44 -27t-54.5 -9.5zM380 939q-24 0 -39.5 -15t-15.5 -41t15.5 -41t39.5 -15t40.5 15t16.5 41t-16.5 41t-40.5 15zM560 0l-46 133
h-269l-46 -133h-198l264 718h229l264 -718h-198zM297 286h165l-82 238z" />
    <glyph glyph-name="AE" unicode="&#xc6;" horiz-adv-x="939" 
d="M1 0l264 718h628v-163h-260v-115h223v-162h-223v-115h260v-163h-446v133h-202l-46 -133h-198zM297 286h150v269h-57z" />
    <glyph glyph-name="Ccedilla" unicode="&#xc7;" horiz-adv-x="776" 
d="M402 155q65 0 112 35.5t65 97.5l175 -62q-35 -103 -118.5 -167t-198.5 -73l-22 -31q14 3 26 3q44 0 69.5 -26.5t25.5 -68.5q0 -48 -34 -80.5t-89 -32.5q-63 0 -95.5 23.5t-42.5 57.5l96 24q5 -14 15.5 -21t22.5 -7q14 0 26 9.5t12 26.5q0 19 -12 28t-26 9q-23 0 -34 -18
l-81 34l45 73q-69 10 -126 41t-98 79t-63.5 111.5t-22.5 138.5q0 83 28 152t77.5 118.5t118 76.5t149.5 27q64 0 120 -17t101.5 -48.5t79 -76t51.5 -99.5l-175 -62q-18 62 -65 97.5t-112 35.5q-40 0 -74.5 -14.5t-59.5 -41.5t-39 -64.5t-14 -83.5t14 -83.5t39 -64.5
t59.5 -41.5t74.5 -14.5z" />
    <glyph glyph-name="Egrave" unicode="&#xc8;" horiz-adv-x="542" 
d="M361 748h-156l-118 141h188zM496 556h-250v-117h223v-160h-223v-117h250v-162h-436v718h436v-162z" />
    <glyph glyph-name="Eacute" unicode="&#xc9;" horiz-adv-x="542" 
d="M479 889l-118 -141h-156l86 141h188zM496 556h-250v-117h223v-160h-223v-117h250v-162h-436v718h436v-162z" />
    <glyph glyph-name="Ecircumflex" unicode="&#xca;" horiz-adv-x="542" 
d="M283 809l-50 -61h-146l96 141h200l96 -141h-146zM496 556h-250v-117h223v-160h-223v-117h250v-162h-436v718h436v-162z" />
    <glyph glyph-name="Edieresis" unicode="&#xcb;" horiz-adv-x="542" 
d="M169 750q-41 0 -69.5 28t-28.5 69q0 40 28.5 68t69.5 28q20 0 37 -7.5t30.5 -20.5t21 -30.5t7.5 -37.5t-7.5 -38t-21 -31t-30.5 -20.5t-37 -7.5zM398 750q-41 0 -69.5 28t-28.5 69q0 40 28.5 68t69.5 28q20 0 37 -7.5t30.5 -20.5t21 -30.5t7.5 -37.5t-7.5 -38t-21 -31
t-30.5 -20.5t-37 -7.5zM496 556h-250v-117h223v-160h-223v-117h250v-162h-436v718h436v-162z" />
    <glyph glyph-name="Igrave" unicode="&#xcc;" horiz-adv-x="306" 
d="M74 748l-118 141h188l86 -141h-156zM60 0v718h186v-718h-186z" />
    <glyph glyph-name="Iacute" unicode="&#xcd;" horiz-adv-x="306" 
d="M74 748l86 141h188l-118 -141h-156zM60 0v718h186v-718h-186z" />
    <glyph glyph-name="Icircumflex" unicode="&#xce;" horiz-adv-x="306" 
d="M-44 748l96 141h200l96 -141h-146l-50 61l-50 -61h-146zM60 0v718h186v-718h-186z" />
    <glyph glyph-name="Idieresis" unicode="&#xcf;" horiz-adv-x="306" 
d="M38 750q-41 0 -69.5 28t-28.5 69q0 40 28.5 68t69.5 28q20 0 37 -7.5t30.5 -20.5t21 -30.5t7.5 -37.5t-7.5 -38t-21 -31t-30.5 -20.5t-37 -7.5zM267 750q-41 0 -69.5 28t-28.5 69q0 40 28.5 68t69.5 28q20 0 37 -7.5t30.5 -20.5t21 -30.5t7.5 -37.5t-7.5 -38t-21 -31
t-30.5 -20.5t-37 -7.5zM60 0v718h186v-718h-186z" />
    <glyph glyph-name="Eth" unicode="&#xd0;" horiz-adv-x="719" 
d="M556 654q66 -47 98.5 -122t32.5 -173t-32.5 -173t-98.5 -122q-45 -31 -106 -47.5t-151 -16.5h-239v306h-73v106h73v306h239q90 0 151 -16.5t106 -47.5zM425 195q38 25 57 67t19 97t-19 97t-57 67q-50 33 -127 33h-52v-144h105v-106h-105v-144h52q77 0 127 33z" />
    <glyph glyph-name="Ntilde" unicode="&#xd1;" horiz-adv-x="800" 
d="M335 812q-13 0 -16.5 -17.5t-3.5 -40.5h-83q0 66 29.5 109t83.5 43q35 0 54.5 -14t32.5 -28q8 -10 16 -16.5t19 -6.5q13 0 15.5 17t2.5 42h84q0 -32 -7 -59.5t-21.5 -48t-35.5 -32.5t-49 -12q-36 0 -55 14t-31 28q-8 9 -16 15.5t-19 6.5zM554 718h186v-718h-221l-273 453
v-453h-186v718h219l275 -450v450z" />
    <glyph glyph-name="Ograve" unicode="&#xd2;" horiz-adv-x="804" 
d="M324 748l-118 141h188l86 -141h-156zM402 -15q-81 0 -149.5 27t-118 76.5t-77.5 118.5t-28 152t28 152t77.5 118.5t118 76.5t149.5 27t149.5 -27t118 -76.5t77.5 -118.5t28 -152t-28 -152t-77.5 -118.5t-118 -76.5t-149.5 -27zM402 155q41 0 75 14.5t59 41.5t39 64.5
t14 83.5t-14 83.5t-39 64.5t-59 41.5t-75 14.5q-40 0 -74.5 -14.5t-59.5 -41.5t-39 -64.5t-14 -83.5t14 -83.5t39 -64.5t59.5 -41.5t74.5 -14.5z" />
    <glyph glyph-name="Oacute" unicode="&#xd3;" horiz-adv-x="804" 
d="M324 748l86 141h188l-118 -141h-156zM402 -15q-81 0 -149.5 27t-118 76.5t-77.5 118.5t-28 152t28 152t77.5 118.5t118 76.5t149.5 27t149.5 -27t118 -76.5t77.5 -118.5t28 -152t-28 -152t-77.5 -118.5t-118 -76.5t-149.5 -27zM402 155q41 0 75 14.5t59 41.5t39 64.5
t14 83.5t-14 83.5t-39 64.5t-59 41.5t-75 14.5q-40 0 -74.5 -14.5t-59.5 -41.5t-39 -64.5t-14 -83.5t14 -83.5t39 -64.5t59.5 -41.5t74.5 -14.5z" />
    <glyph glyph-name="Ocircumflex" unicode="&#xd4;" horiz-adv-x="804" 
d="M206 748l96 141h200l96 -141h-146l-50 61l-50 -61h-146zM402 -15q-81 0 -149.5 27t-118 76.5t-77.5 118.5t-28 152t28 152t77.5 118.5t118 76.5t149.5 27t149.5 -27t118 -76.5t77.5 -118.5t28 -152t-28 -152t-77.5 -118.5t-118 -76.5t-149.5 -27zM402 155q41 0 75 14.5
t59 41.5t39 64.5t14 83.5t-14 83.5t-39 64.5t-59 41.5t-75 14.5q-40 0 -74.5 -14.5t-59.5 -41.5t-39 -64.5t-14 -83.5t14 -83.5t39 -64.5t59.5 -41.5t74.5 -14.5z" />
    <glyph glyph-name="Otilde" unicode="&#xd5;" horiz-adv-x="804" 
d="M457 748q-36 0 -55 14t-31 28q-8 9 -16 15.5t-19 6.5q-13 0 -16.5 -17.5t-3.5 -40.5h-83q0 66 29.5 109t83.5 43q35 0 54.5 -14t32.5 -28q8 -10 16 -16.5t19 -6.5q13 0 15.5 17t2.5 42h84q0 -32 -7 -59.5t-21.5 -48t-35.5 -32.5t-49 -12zM402 -15q-81 0 -149.5 27
t-118 76.5t-77.5 118.5t-28 152t28 152t77.5 118.5t118 76.5t149.5 27t149.5 -27t118 -76.5t77.5 -118.5t28 -152t-28 -152t-77.5 -118.5t-118 -76.5t-149.5 -27zM402 155q41 0 75 14.5t59 41.5t39 64.5t14 83.5t-14 83.5t-39 64.5t-59 41.5t-75 14.5q-40 0 -74.5 -14.5
t-59.5 -41.5t-39 -64.5t-14 -83.5t14 -83.5t39 -64.5t59.5 -41.5t74.5 -14.5z" />
    <glyph glyph-name="Odieresis" unicode="&#xd6;" horiz-adv-x="804" 
d="M288 750q-41 0 -69.5 28t-28.5 69q0 40 28.5 68t69.5 28q20 0 37 -7.5t30.5 -20.5t21 -30.5t7.5 -37.5t-7.5 -38t-21 -31t-30.5 -20.5t-37 -7.5zM517 750q-41 0 -69.5 28t-28.5 69q0 40 28.5 68t69.5 28q20 0 37 -7.5t30.5 -20.5t21 -30.5t7.5 -37.5t-7.5 -38t-21 -31
t-30.5 -20.5t-37 -7.5zM402 -15q-81 0 -149.5 27t-118 76.5t-77.5 118.5t-28 152t28 152t77.5 118.5t118 76.5t149.5 27t149.5 -27t118 -76.5t77.5 -118.5t28 -152t-28 -152t-77.5 -118.5t-118 -76.5t-149.5 -27zM402 155q41 0 75 14.5t59 41.5t39 64.5t14 83.5t-14 83.5
t-39 64.5t-59 41.5t-75 14.5q-40 0 -74.5 -14.5t-59.5 -41.5t-39 -64.5t-14 -83.5t14 -83.5t39 -64.5t59.5 -41.5t74.5 -14.5z" />
    <glyph glyph-name="multiply" unicode="&#xd7;" horiz-adv-x="554" 
d="M148 37l-93 94l129 128l-129 129l93 93l129 -128l129 128l93 -93l-129 -129l129 -128l-93 -94l-129 129z" />
    <glyph glyph-name="Oslash" unicode="&#xd8;" horiz-adv-x="804" 
d="M650 648q59 -50 92 -123.5t33 -165.5q0 -83 -28 -152t-77.5 -118.5t-118 -76.5t-149.5 -27q-103 0 -184 43l-55 -79l-66 39l57 82q-59 50 -92 123.5t-33 165.5q0 83 28 152t77.5 118.5t118 76.5t149.5 27q103 0 184 -43l55 79l66 -39zM215 359q0 -42 11.5 -77t32.5 -61
l226 324q-37 18 -83 18q-40 0 -74.5 -14.5t-59.5 -41.5t-39 -64.5t-14 -83.5zM402 155q41 0 75 14.5t59 41.5t39 64.5t14 83.5q0 42 -11.5 77t-32.5 61l-226 -324q38 -18 83 -18z" />
    <glyph glyph-name="Ugrave" unicode="&#xd9;" horiz-adv-x="694" 
d="M268 748l-118 141h188l86 -141h-156zM347 -15q-62 0 -116 15.5t-93.5 49t-62.5 85.5t-23 125v458h186v-433q0 -38 8.5 -63.5t23 -40.5t34.5 -21.5t43 -6.5t43 6.5t34.5 21.5t23 40.5t8.5 63.5v433h186v-458q0 -73 -23 -125t-62.5 -85.5t-93.5 -49t-116 -15.5z" />
    <glyph glyph-name="Uacute" unicode="&#xda;" horiz-adv-x="694" 
d="M268 748l86 141h188l-118 -141h-156zM347 -15q-62 0 -116 15.5t-93.5 49t-62.5 85.5t-23 125v458h186v-433q0 -38 8.5 -63.5t23 -40.5t34.5 -21.5t43 -6.5t43 6.5t34.5 21.5t23 40.5t8.5 63.5v433h186v-458q0 -73 -23 -125t-62.5 -85.5t-93.5 -49t-116 -15.5z" />
    <glyph glyph-name="Ucircumflex" unicode="&#xdb;" horiz-adv-x="694" 
d="M150 748l96 141h200l96 -141h-146l-50 61l-50 -61h-146zM347 -15q-62 0 -116 15.5t-93.5 49t-62.5 85.5t-23 125v458h186v-433q0 -38 8.5 -63.5t23 -40.5t34.5 -21.5t43 -6.5t43 6.5t34.5 21.5t23 40.5t8.5 63.5v433h186v-458q0 -73 -23 -125t-62.5 -85.5t-93.5 -49
t-116 -15.5z" />
    <glyph glyph-name="Udieresis" unicode="&#xdc;" horiz-adv-x="694" 
d="M232 750q-41 0 -69.5 28t-28.5 69q0 40 28.5 68t69.5 28q20 0 37 -7.5t30.5 -20.5t21 -30.5t7.5 -37.5t-7.5 -38t-21 -31t-30.5 -20.5t-37 -7.5zM461 750q-41 0 -69.5 28t-28.5 69q0 40 28.5 68t69.5 28q20 0 37 -7.5t30.5 -20.5t21 -30.5t7.5 -37.5t-7.5 -38t-21 -31
t-30.5 -20.5t-37 -7.5zM347 -15q-62 0 -116 15.5t-93.5 49t-62.5 85.5t-23 125v458h186v-433q0 -38 8.5 -63.5t23 -40.5t34.5 -21.5t43 -6.5t43 6.5t34.5 21.5t23 40.5t8.5 63.5v433h186v-458q0 -73 -23 -125t-62.5 -85.5t-93.5 -49t-116 -15.5z" />
    <glyph glyph-name="Yacute" unicode="&#xdd;" horiz-adv-x="649" 
d="M521 889l-118 -141h-156l86 141h188zM654 718l-236 -375v-343h-186v340l-238 378h204l126 -212l127 212h203z" />
    <glyph glyph-name="Thorn" unicode="&#xde;" horiz-adv-x="613" 
d="M527 558q30 -26 47.5 -67t17.5 -100q0 -69 -26 -126.5t-83 -88.5q-22 -12 -47 -19t-49 -10t-45 -3.5t-36 -0.5h-60v-143h-186v718h186v-100h60q74 0 130 -15t91 -45zM383 318q23 18 23 62q0 25 -7 40.5t-20 24.5q-20 14 -49 16.5t-51 2.5h-33v-167h33q10 0 24 0.5
t28.5 2.5t28 6t23.5 12z" />
    <glyph glyph-name="germandbls" unicode="&#xdf;" horiz-adv-x="750" 
d="M506 -10q-47 0 -89.5 8.5t-76 26t-55.5 44.5t-30 65l147 41q14 -38 37 -51t55 -13q22 0 42 6.5t20 27.5q0 13 -8.5 22t-22 15t-30.5 10t-35 7q-46 9 -81 21t-58 30t-34.5 43.5t-11.5 62.5q0 41 13.5 68t35 44.5t47 28t49.5 18.5q31 11 53 22.5t22 33.5q0 20 -26.5 34.5
t-77.5 14.5q-60 0 -92 -20.5t-47 -52.5t-17.5 -69.5t-2.5 -72.5v-405h-178v435q0 92 25.5 154t71 100t107 54.5t133.5 16.5q63 0 113.5 -15.5t85.5 -43t53.5 -65.5t18.5 -82q0 -39 -13.5 -63.5t-34 -39.5t-45 -22.5t-47.5 -13.5q-28 -7 -47.5 -15t-19.5 -26q0 -19 21.5 -27
t58.5 -16q47 -10 83 -22.5t60 -31.5t36.5 -46t12.5 -66q0 -48 -19 -81.5t-49.5 -54t-70.5 -30t-82 -9.5z" />
    <glyph glyph-name="agrave" unicode="&#xe0;" horiz-adv-x="596" 
d="M378 577h-156l-118 141h188zM541 91q0 -22 2 -40.5t10 -35.5v-15h-176l-7 53q-13 -17 -32.5 -29t-41.5 -19.5t-45.5 -11t-45.5 -3.5q-30 0 -60.5 7t-55.5 23.5t-41 43.5t-16 68q0 46 19 75.5t48.5 48.5t64 30t64.5 18l83 21q21 5 36.5 12.5t15.5 27.5q0 11 -6.5 18.5
t-16.5 11.5t-22.5 5.5t-23.5 1.5q-35 0 -59 -16t-32 -48l-170 26q18 85 89.5 124t174.5 39q120 0 182 -48.5t62 -142.5v-245zM259 111q18 0 38 7.5t37 23t28 39t11 54.5l-117 -35q-6 -2 -14 -5t-15 -8t-12 -13.5t-5 -21.5q0 -21 14.5 -31t34.5 -10z" />
    <glyph glyph-name="aacute" unicode="&#xe1;" horiz-adv-x="596" 
d="M496 718l-118 -141h-156l86 141h188zM541 91q0 -22 2 -40.5t10 -35.5v-15h-176l-7 53q-13 -17 -32.5 -29t-41.5 -19.5t-45.5 -11t-45.5 -3.5q-30 0 -60.5 7t-55.5 23.5t-41 43.5t-16 68q0 46 19 75.5t48.5 48.5t64 30t64.5 18l83 21q21 5 36.5 12.5t15.5 27.5
q0 11 -6.5 18.5t-16.5 11.5t-22.5 5.5t-23.5 1.5q-35 0 -59 -16t-32 -48l-170 26q18 85 89.5 124t174.5 39q120 0 182 -48.5t62 -142.5v-245zM259 111q18 0 38 7.5t37 23t28 39t11 54.5l-117 -35q-6 -2 -14 -5t-15 -8t-12 -13.5t-5 -21.5q0 -21 14.5 -31t34.5 -10z" />
    <glyph glyph-name="acircumflex" unicode="&#xe2;" horiz-adv-x="596" 
d="M300 638l-50 -61h-146l96 141h200l96 -141h-146zM541 91q0 -22 2 -40.5t10 -35.5v-15h-176l-7 53q-13 -17 -32.5 -29t-41.5 -19.5t-45.5 -11t-45.5 -3.5q-30 0 -60.5 7t-55.5 23.5t-41 43.5t-16 68q0 46 19 75.5t48.5 48.5t64 30t64.5 18l83 21q21 5 36.5 12.5t15.5 27.5
q0 11 -6.5 18.5t-16.5 11.5t-22.5 5.5t-23.5 1.5q-35 0 -59 -16t-32 -48l-170 26q18 85 89.5 124t174.5 39q120 0 182 -48.5t62 -142.5v-245zM259 111q18 0 38 7.5t37 23t28 39t11 54.5l-117 -35q-6 -2 -14 -5t-15 -8t-12 -13.5t-5 -21.5q0 -21 14.5 -31t34.5 -10z" />
    <glyph glyph-name="atilde" unicode="&#xe3;" horiz-adv-x="596" 
d="M234 632q-13 0 -16.5 -17.5t-3.5 -40.5h-83q0 66 29.5 109t83.5 43q35 0 54.5 -14t32.5 -28q8 -10 16 -16.5t19 -6.5q13 0 15.5 17t2.5 42h84q0 -32 -7 -59.5t-21.5 -48t-35.5 -32.5t-49 -12q-36 0 -55 14t-31 28q-8 9 -16 15.5t-19 6.5zM541 91q0 -22 2 -40.5t10 -35.5
v-15h-176l-7 53q-13 -17 -32.5 -29t-41.5 -19.5t-45.5 -11t-45.5 -3.5q-30 0 -60.5 7t-55.5 23.5t-41 43.5t-16 68q0 46 19 75.5t48.5 48.5t64 30t64.5 18l83 21q21 5 36.5 12.5t15.5 27.5q0 11 -6.5 18.5t-16.5 11.5t-22.5 5.5t-23.5 1.5q-35 0 -59 -16t-32 -48l-170 26
q18 85 89.5 124t174.5 39q120 0 182 -48.5t62 -142.5v-245zM259 111q18 0 38 7.5t37 23t28 39t11 54.5l-117 -35q-6 -2 -14 -5t-15 -8t-12 -13.5t-5 -21.5q0 -21 14.5 -31t34.5 -10z" />
    <glyph glyph-name="adieresis" unicode="&#xe4;" horiz-adv-x="596" 
d="M186 567q-41 0 -69.5 28t-28.5 69q0 40 28.5 68t69.5 28q20 0 37 -7.5t30.5 -20.5t21 -30.5t7.5 -37.5t-7.5 -38t-21 -31t-30.5 -20.5t-37 -7.5zM415 567q-41 0 -69.5 28t-28.5 69q0 40 28.5 68t69.5 28q20 0 37 -7.5t30.5 -20.5t21 -30.5t7.5 -37.5t-7.5 -38t-21 -31
t-30.5 -20.5t-37 -7.5zM541 91q0 -22 2 -40.5t10 -35.5v-15h-176l-7 53q-13 -17 -32.5 -29t-41.5 -19.5t-45.5 -11t-45.5 -3.5q-30 0 -60.5 7t-55.5 23.5t-41 43.5t-16 68q0 46 19 75.5t48.5 48.5t64 30t64.5 18l83 21q21 5 36.5 12.5t15.5 27.5q0 11 -6.5 18.5t-16.5 11.5
t-22.5 5.5t-23.5 1.5q-35 0 -59 -16t-32 -48l-170 26q18 85 89.5 124t174.5 39q120 0 182 -48.5t62 -142.5v-245zM259 111q18 0 38 7.5t37 23t28 39t11 54.5l-117 -35q-6 -2 -14 -5t-15 -8t-12 -13.5t-5 -21.5q0 -21 14.5 -31t34.5 -10z" />
    <glyph glyph-name="aring" unicode="&#xe5;" horiz-adv-x="596" 
d="M300 565q-31 0 -55 10t-41 27.5t-26 40.5t-9 49t9 48.5t26 39.5t41 27t55 10q30 0 54 -10t40.5 -27t25.5 -39.5t9 -48.5t-9 -49t-25.5 -40.5t-40.5 -27.5t-54 -10zM300 736q-19 0 -31.5 -11.5t-12.5 -32.5q0 -20 12.5 -32t31.5 -12t32 12t13 32q0 21 -13 32.5t-32 11.5z
M541 91q0 -22 2 -40.5t10 -35.5v-15h-176l-7 53q-13 -17 -32.5 -29t-41.5 -19.5t-45.5 -11t-45.5 -3.5q-30 0 -60.5 7t-55.5 23.5t-41 43.5t-16 68q0 46 19 75.5t48.5 48.5t64 30t64.5 18l83 21q21 5 36.5 12.5t15.5 27.5q0 11 -6.5 18.5t-16.5 11.5t-22.5 5.5t-23.5 1.5
q-35 0 -59 -16t-32 -48l-170 26q18 85 89.5 124t174.5 39q120 0 182 -48.5t62 -142.5v-245zM259 111q18 0 38 7.5t37 23t28 39t11 54.5l-117 -35q-6 -2 -14 -5t-15 -8t-12 -13.5t-5 -21.5q0 -21 14.5 -31t34.5 -10z" />
    <glyph glyph-name="ae" unicode="&#xe6;" horiz-adv-x="924" 
d="M888 223h-370q6 -48 37 -71.5t74 -23.5q33 0 56.5 13t34.5 42l164 -21q-24 -84 -92 -128t-162 -44q-69 0 -123 19t-92 55q-43 -35 -96 -54.5t-114 -19.5q-34 0 -65.5 7.5t-55 24t-37.5 43t-14 65.5q0 45 18 74t47 47.5t65.5 29.5t72.5 19l66 15q30 7 41 17.5t11 27.5
q0 15 -7 24t-17.5 14.5t-23.5 7.5t-25 2q-35 0 -59 -17t-29 -63l-158 24q17 92 79 133t180 41q44 0 87 -8t75 -34q71 43 168 43q57 0 105.5 -15t84 -47t56 -81.5t20.5 -119.5zM625 397q-41 0 -66 -16t-36 -51h192q-8 32 -32 49.5t-58 17.5zM256 126q26 0 54 12t43 35
q-6 21 -9 45l-82 -22q-26 -7 -40.5 -16t-14.5 -23q0 -15 14 -23t35 -8z" />
    <glyph glyph-name="ccedilla" unicode="&#xe7;" horiz-adv-x="613" 
d="M317 128q42 0 68 19t34 61l164 -15q-7 -45 -27.5 -81t-51 -61.5t-70.5 -40.5t-86 -19l-25 -36q14 3 26 3q44 0 69.5 -26.5t25.5 -68.5q0 -48 -34 -80.5t-89 -32.5q-63 0 -95.5 23.5t-42.5 57.5l96 24q5 -14 15.5 -21t22.5 -7q14 0 26 9.5t12 26.5q0 19 -12 28t-26 9
q-23 0 -34 -18l-81 34l49 80q-50 9 -91 32t-70 57t-44.5 78t-15.5 96q0 60 21 109.5t59 84.5t91.5 54.5t117.5 19.5q106 0 177 -51.5t87 -150.5l-164 -15q-8 42 -34 60.5t-68 18.5q-51 0 -80 -36t-29 -94t29 -94.5t80 -36.5z" />
    <glyph glyph-name="egrave" unicode="&#xe8;" horiz-adv-x="613" 
d="M396 578h-156l-118 141h188zM577 223h-370q6 -48 37 -71.5t74 -23.5q33 0 56.5 13t34.5 42l164 -21q-24 -84 -92 -128t-162 -44q-67 0 -120 18t-90.5 52.5t-57.5 84t-20 113.5t20.5 114t57.5 84.5t89 52.5t115 18q57 0 105.5 -15t84 -47t56 -81.5t20.5 -119.5zM314 397
q-41 0 -66 -16t-36 -51h192q-8 32 -32 49.5t-58 17.5z" />
    <glyph glyph-name="eacute" unicode="&#xe9;" horiz-adv-x="613" 
d="M514 719l-118 -141h-156l86 141h188zM577 223h-370q6 -48 37 -71.5t74 -23.5q33 0 56.5 13t34.5 42l164 -21q-24 -84 -92 -128t-162 -44q-67 0 -120 18t-90.5 52.5t-57.5 84t-20 113.5t20.5 114t57.5 84.5t89 52.5t115 18q57 0 105.5 -15t84 -47t56 -81.5t20.5 -119.5z
M314 397q-41 0 -66 -16t-36 -51h192q-8 32 -32 49.5t-58 17.5z" />
    <glyph glyph-name="ecircumflex" unicode="&#xea;" horiz-adv-x="613" 
d="M318 639l-50 -61h-146l96 141h200l96 -141h-146zM577 223h-370q6 -48 37 -71.5t74 -23.5q33 0 56.5 13t34.5 42l164 -21q-24 -84 -92 -128t-162 -44q-67 0 -120 18t-90.5 52.5t-57.5 84t-20 113.5t20.5 114t57.5 84.5t89 52.5t115 18q57 0 105.5 -15t84 -47t56 -81.5
t20.5 -119.5zM314 397q-41 0 -66 -16t-36 -51h192q-8 32 -32 49.5t-58 17.5z" />
    <glyph glyph-name="edieresis" unicode="&#xeb;" horiz-adv-x="613" 
d="M204 568q-41 0 -69.5 28t-28.5 69q0 40 28.5 68t69.5 28q20 0 37 -7.5t30.5 -20.5t21 -30.5t7.5 -37.5t-7.5 -38t-21 -31t-30.5 -20.5t-37 -7.5zM433 568q-41 0 -69.5 28t-28.5 69q0 40 28.5 68t69.5 28q20 0 37 -7.5t30.5 -20.5t21 -30.5t7.5 -37.5t-7.5 -38t-21 -31
t-30.5 -20.5t-37 -7.5zM577 223h-370q6 -48 37 -71.5t74 -23.5q33 0 56.5 13t34.5 42l164 -21q-24 -84 -92 -128t-162 -44q-67 0 -120 18t-90.5 52.5t-57.5 84t-20 113.5t20.5 114t57.5 84.5t89 52.5t115 18q57 0 105.5 -15t84 -47t56 -81.5t20.5 -119.5zM314 397
q-41 0 -66 -16t-36 -51h192q-8 32 -32 49.5t-58 17.5z" />
    <glyph glyph-name="igrave" unicode="&#xec;" horiz-adv-x="284" 
d="M64 577l-118 141h188l86 -141h-156zM53 0v517h178v-517h-178z" />
    <glyph glyph-name="iacute" unicode="&#xed;" horiz-adv-x="284" 
d="M64 577l86 141h188l-118 -141h-156zM53 0v517h178v-517h-178z" />
    <glyph glyph-name="icircumflex" unicode="&#xee;" horiz-adv-x="284" 
d="M-54 577l96 141h200l96 -141h-146l-50 61l-50 -61h-146zM53 0v517h178v-517h-178z" />
    <glyph glyph-name="idieresis" unicode="&#xef;" horiz-adv-x="284" 
d="M28 567q-41 0 -69.5 28t-28.5 69q0 40 28.5 68t69.5 28q20 0 37 -7.5t30.5 -20.5t21 -30.5t7.5 -37.5t-7.5 -38t-21 -31t-30.5 -20.5t-37 -7.5zM257 567q-41 0 -69.5 28t-28.5 69q0 40 28.5 68t69.5 28q20 0 37 -7.5t30.5 -20.5t21 -30.5t7.5 -37.5t-7.5 -38t-21 -31
t-30.5 -20.5t-37 -7.5zM53 0v517h178v-517h-178z" />
    <glyph glyph-name="eth" unicode="&#xf0;" horiz-adv-x="590" 
d="M533 431q26 -34 41.5 -76.5t15.5 -95.5q0 -64 -21.5 -113.5t-60.5 -84t-93.5 -53t-119.5 -18.5t-119.5 18.5t-93.5 53t-60.5 84t-21.5 113.5q0 60 19 107.5t53.5 81.5t83.5 54t108 24l-58 73l-118 -30l-13 47l98 25l-87 109h199l53 -68l82 21l12 -47l-62 -16zM295 129
q54 0 86 36t32 94q0 57 -32 93t-86 36t-86 -36t-32 -93q0 -58 32 -94t86 -36z" />
    <glyph glyph-name="ntilde" unicode="&#xf1;" horiz-adv-x="647" 
d="M252 632q-13 0 -16.5 -17.5t-3.5 -40.5h-83q0 66 29.5 109t83.5 43q35 0 54.5 -14t32.5 -28q8 -10 16 -16.5t19 -6.5q13 0 15.5 17t2.5 42h84q0 -32 -7 -59.5t-21.5 -48t-35.5 -32.5t-49 -12q-36 0 -55 14t-31 28q-8 9 -16 15.5t-19 6.5zM396 527q102 0 151.5 -47
t49.5 -132v-348h-178v310q0 43 -24.5 60t-56.5 17q-18 0 -36 -4.5t-32.5 -15.5t-24.5 -30t-13 -48v-289h-178v517h168l7 -55q29 31 71 48t96 17z" />
    <glyph glyph-name="ograve" unicode="&#xf2;" horiz-adv-x="650" 
d="M249 577l-118 141h188l86 -141h-156zM325 -10q-65 0 -119.5 18.5t-93.5 53t-60.5 84t-21.5 113.5q0 63 21.5 113t60.5 84t93.5 52.5t119.5 18.5t119.5 -18.5t93.5 -52.5t60.5 -84t21.5 -113q0 -64 -21.5 -113.5t-60.5 -84t-93.5 -53t-119.5 -18.5zM325 130
q54 0 85.5 35.5t31.5 93.5q0 57 -31.5 92.5t-85.5 35.5t-85.5 -35.5t-31.5 -92.5q0 -58 31.5 -93.5t85.5 -35.5z" />
    <glyph glyph-name="oacute" unicode="&#xf3;" horiz-adv-x="650" 
d="M249 577l86 141h188l-118 -141h-156zM325 -10q-65 0 -119.5 18.5t-93.5 53t-60.5 84t-21.5 113.5q0 63 21.5 113t60.5 84t93.5 52.5t119.5 18.5t119.5 -18.5t93.5 -52.5t60.5 -84t21.5 -113q0 -64 -21.5 -113.5t-60.5 -84t-93.5 -53t-119.5 -18.5zM325 130
q54 0 85.5 35.5t31.5 93.5q0 57 -31.5 92.5t-85.5 35.5t-85.5 -35.5t-31.5 -92.5q0 -58 31.5 -93.5t85.5 -35.5z" />
    <glyph glyph-name="ocircumflex" unicode="&#xf4;" horiz-adv-x="650" 
d="M131 577l96 141h200l96 -141h-146l-50 61l-50 -61h-146zM325 -10q-65 0 -119.5 18.5t-93.5 53t-60.5 84t-21.5 113.5q0 63 21.5 113t60.5 84t93.5 52.5t119.5 18.5t119.5 -18.5t93.5 -52.5t60.5 -84t21.5 -113q0 -64 -21.5 -113.5t-60.5 -84t-93.5 -53t-119.5 -18.5z
M325 130q54 0 85.5 35.5t31.5 93.5q0 57 -31.5 92.5t-85.5 35.5t-85.5 -35.5t-31.5 -92.5q0 -58 31.5 -93.5t85.5 -35.5z" />
    <glyph glyph-name="otilde" unicode="&#xf5;" horiz-adv-x="650" 
d="M382 568q-36 0 -55 14t-31 28q-8 9 -16 15.5t-19 6.5q-13 0 -16.5 -17.5t-3.5 -40.5h-83q0 66 29.5 109t83.5 43q35 0 54.5 -14t32.5 -28q8 -10 16 -16.5t19 -6.5q13 0 15.5 17t2.5 42h84q0 -32 -7 -59.5t-21.5 -48t-35.5 -32.5t-49 -12zM325 -10q-65 0 -119.5 18.5
t-93.5 53t-60.5 84t-21.5 113.5q0 63 21.5 113t60.5 84t93.5 52.5t119.5 18.5t119.5 -18.5t93.5 -52.5t60.5 -84t21.5 -113q0 -64 -21.5 -113.5t-60.5 -84t-93.5 -53t-119.5 -18.5zM325 130q54 0 85.5 35.5t31.5 93.5q0 57 -31.5 92.5t-85.5 35.5t-85.5 -35.5t-31.5 -92.5
q0 -58 31.5 -93.5t85.5 -35.5z" />
    <glyph glyph-name="odieresis" unicode="&#xf6;" horiz-adv-x="650" 
d="M213 567q-41 0 -69.5 28t-28.5 69q0 40 28.5 68t69.5 28q20 0 37 -7.5t30.5 -20.5t21 -30.5t7.5 -37.5t-7.5 -38t-21 -31t-30.5 -20.5t-37 -7.5zM442 567q-41 0 -69.5 28t-28.5 69q0 40 28.5 68t69.5 28q20 0 37 -7.5t30.5 -20.5t21 -30.5t7.5 -37.5t-7.5 -38t-21 -31
t-30.5 -20.5t-37 -7.5zM325 -10q-65 0 -119.5 18.5t-93.5 53t-60.5 84t-21.5 113.5q0 63 21.5 113t60.5 84t93.5 52.5t119.5 18.5t119.5 -18.5t93.5 -52.5t60.5 -84t21.5 -113q0 -64 -21.5 -113.5t-60.5 -84t-93.5 -53t-119.5 -18.5zM325 130q54 0 85.5 35.5t31.5 93.5
q0 57 -31.5 92.5t-85.5 35.5t-85.5 -35.5t-31.5 -92.5q0 -58 31.5 -93.5t85.5 -35.5z" />
    <glyph glyph-name="divide" unicode="&#xf7;" horiz-adv-x="610" 
d="M300 364q-34 0 -59.5 24.5t-25.5 60.5q0 17 7 32.5t18.5 27t27 18.5t32.5 7t32.5 -7t27 -18.5t18.5 -27t7 -32.5q0 -36 -25.5 -60.5t-59.5 -24.5zM55 193v132h500v-132h-500zM300 -16q-34 0 -59.5 24.5t-25.5 60.5q0 17 7 32.5t18.5 27t27 18.5t32.5 7t32.5 -7t27 -18.5
t18.5 -27t7 -32.5q0 -36 -25.5 -60.5t-59.5 -24.5z" />
    <glyph glyph-name="oslash" unicode="&#xf8;" horiz-adv-x="650" 
d="M520 470q48 -35 74 -87.5t26 -123.5q0 -64 -21.5 -113.5t-60.5 -84t-93.5 -53t-119.5 -18.5q-68 0 -125 20l-37 -53l-66 39l35 50q-48 34 -75 87.5t-27 125.5q0 63 21.5 113t60.5 84t93.5 52.5t119.5 18.5q70 0 127 -21l37 53l66 -39zM208 259q0 -44 19 -76l138 198
q-18 6 -40 6q-54 0 -85.5 -35.5t-31.5 -92.5zM325 130q54 0 85.5 35.5t31.5 93.5q0 43 -18 73l-137 -197q9 -2 18 -3.5t20 -1.5z" />
    <glyph glyph-name="ugrave" unicode="&#xf9;" horiz-adv-x="648" 
d="M399 577h-156l-118 141h188zM415 517h178v-517h-168l-7 56q-29 -31 -71.5 -48.5t-96.5 -17.5q-102 0 -151.5 47t-49.5 132v348h178v-310q0 -43 24.5 -59.5t56.5 -16.5q20 0 39 5t34 18t24.5 35.5t9.5 57.5v270z" />
    <glyph glyph-name="uacute" unicode="&#xfa;" horiz-adv-x="648" 
d="M517 718l-118 -141h-156l86 141h188zM415 517h178v-517h-168l-7 56q-29 -31 -71.5 -48.5t-96.5 -17.5q-102 0 -151.5 47t-49.5 132v348h178v-310q0 -43 24.5 -59.5t56.5 -16.5q20 0 39 5t34 18t24.5 35.5t9.5 57.5v270z" />
    <glyph glyph-name="ucircumflex" unicode="&#xfb;" horiz-adv-x="648" 
d="M321 638l-50 -61h-146l96 141h200l96 -141h-146zM415 517h178v-517h-168l-7 56q-29 -31 -71.5 -48.5t-96.5 -17.5q-102 0 -151.5 47t-49.5 132v348h178v-310q0 -43 24.5 -59.5t56.5 -16.5q20 0 39 5t34 18t24.5 35.5t9.5 57.5v270z" />
    <glyph glyph-name="udieresis" unicode="&#xfc;" horiz-adv-x="648" 
d="M207 567q-41 0 -69.5 28t-28.5 69q0 40 28.5 68t69.5 28q20 0 37 -7.5t30.5 -20.5t21 -30.5t7.5 -37.5t-7.5 -38t-21 -31t-30.5 -20.5t-37 -7.5zM436 567q-41 0 -69.5 28t-28.5 69q0 40 28.5 68t69.5 28q20 0 37 -7.5t30.5 -20.5t21 -30.5t7.5 -37.5t-7.5 -38t-21 -31
t-30.5 -20.5t-37 -7.5zM415 517h178v-517h-168l-7 56q-29 -31 -71.5 -48.5t-96.5 -17.5q-102 0 -151.5 47t-49.5 132v348h178v-310q0 -43 24.5 -59.5t56.5 -16.5q20 0 39 5t34 18t24.5 35.5t9.5 57.5v270z" />
    <glyph glyph-name="yacute" unicode="&#xfd;" horiz-adv-x="617" 
d="M510 718l-118 -141h-156l86 141h188zM416 517h194l-325 -760h-194l124 275l-209 485h194l108 -300z" />
    <glyph glyph-name="thorn" unicode="&#xfe;" horiz-adv-x="661" 
d="M376 527q52 0 98 -18t80.5 -52.5t54.5 -84.5t20 -115q0 -64 -20 -114.5t-54.5 -85t-80.5 -52.5t-98 -18q-45 0 -83 13.5t-61 40.5v-284h-178v993h178v-277q23 27 61 40.5t83 13.5zM338 133q48 0 80.5 32t32.5 92t-32.5 92t-80.5 32t-81 -32t-33 -92t33 -92t81 -32z" />
    <glyph glyph-name="ydieresis" unicode="&#xff;" horiz-adv-x="617" 
d="M200 567q-41 0 -69.5 28t-28.5 69q0 40 28.5 68t69.5 28q20 0 37 -7.5t30.5 -20.5t21 -30.5t7.5 -37.5t-7.5 -38t-21 -31t-30.5 -20.5t-37 -7.5zM429 567q-41 0 -69.5 28t-28.5 69q0 40 28.5 68t69.5 28q20 0 37 -7.5t30.5 -20.5t21 -30.5t7.5 -37.5t-7.5 -38t-21 -31
t-30.5 -20.5t-37 -7.5zM416 517h194l-325 -760h-194l124 275l-209 485h194l108 -300z" />
    <glyph glyph-name="Amacron" unicode="&#x100;" horiz-adv-x="759" 
d="M545 891v-111h-330v111h330zM560 0l-46 133h-269l-46 -133h-198l264 718h229l264 -718h-198zM297 286h165l-82 238z" />
    <glyph glyph-name="amacron" unicode="&#x101;" horiz-adv-x="596" 
d="M450 702v-111h-300v111h300zM541 91q0 -22 2 -40.5t10 -35.5v-15h-176l-7 53q-13 -17 -32.5 -29t-41.5 -19.5t-45.5 -11t-45.5 -3.5q-30 0 -60.5 7t-55.5 23.5t-41 43.5t-16 68q0 46 19 75.5t48.5 48.5t64 30t64.5 18l83 21q21 5 36.5 12.5t15.5 27.5q0 11 -6.5 18.5
t-16.5 11.5t-22.5 5.5t-23.5 1.5q-35 0 -59 -16t-32 -48l-170 26q18 85 89.5 124t174.5 39q120 0 182 -48.5t62 -142.5v-245zM259 111q18 0 38 7.5t37 23t28 39t11 54.5l-117 -35q-6 -2 -14 -5t-15 -8t-12 -13.5t-5 -21.5q0 -21 14.5 -31t34.5 -10z" />
    <glyph glyph-name="Abreve" unicode="&#x102;" horiz-adv-x="759" 
d="M379 748q-42 0 -76 6t-58.5 21.5t-38 43t-13.5 70.5h110q0 -30 17.5 -42.5t58.5 -12.5q42 0 59.5 12.5t17.5 42.5h110q0 -43 -13.5 -70.5t-38 -43t-59 -21.5t-76.5 -6zM560 0l-46 133h-269l-46 -133h-198l264 718h229l264 -718h-198zM297 286h165l-82 238z" />
    <glyph glyph-name="abreve" unicode="&#x103;" horiz-adv-x="596" 
d="M300 567q-42 0 -76 7.5t-58.5 25t-38 46.5t-13.5 72h125q0 -29 14.5 -45t46.5 -16q33 0 47.5 16t14.5 45h125q0 -43 -13.5 -72t-38 -46.5t-59 -25t-76.5 -7.5zM541 91q0 -22 2 -40.5t10 -35.5v-15h-176l-7 53q-13 -17 -32.5 -29t-41.5 -19.5t-45.5 -11t-45.5 -3.5
q-30 0 -60.5 7t-55.5 23.5t-41 43.5t-16 68q0 46 19 75.5t48.5 48.5t64 30t64.5 18l83 21q21 5 36.5 12.5t15.5 27.5q0 11 -6.5 18.5t-16.5 11.5t-22.5 5.5t-23.5 1.5q-35 0 -59 -16t-32 -48l-170 26q18 85 89.5 124t174.5 39q120 0 182 -48.5t62 -142.5v-245zM259 111
q18 0 38 7.5t37 23t28 39t11 54.5l-117 -35q-6 -2 -14 -5t-15 -8t-12 -13.5t-5 -21.5q0 -21 14.5 -31t34.5 -10z" />
    <glyph glyph-name="Aogonek" unicode="&#x104;" horiz-adv-x="759" 
d="M690 -94q0 -10 8 -15t19 -5t22 4.5t19 12.5v-107q-37 -16 -82 -16q-19 0 -37.5 3.5t-32 11.5t-22 21t-8.5 32q0 37 33.5 75t79.5 77h-129l-46 133h-269l-46 -133h-198l264 718h229l264 -718q-31 -26 -49.5 -51t-18.5 -43zM297 286h165l-82 238z" />
    <glyph glyph-name="aogonek" unicode="&#x105;" horiz-adv-x="596" 
d="M553 0q-31 -26 -49.5 -51t-18.5 -43q0 -10 8 -15t19 -5t22 4.5t19 12.5v-107q-37 -16 -82 -16q-19 0 -37.5 3.5t-32 11.5t-22 21t-8.5 32q0 37 33.5 75t79.5 77h-107l-7 53q-13 -17 -32.5 -29t-41.5 -19.5t-45.5 -11t-45.5 -3.5q-30 0 -60.5 7t-55.5 23.5t-41 43.5
t-16 68q0 46 19 75.5t48.5 48.5t64 30t64.5 18l83 21q21 5 36.5 12.5t15.5 27.5q0 11 -6.5 18.5t-16.5 11.5t-22.5 5.5t-23.5 1.5q-35 0 -59 -16t-32 -48l-170 26q18 85 89.5 124t174.5 39q120 0 182 -48.5t62 -142.5v-245q0 -22 2 -40.5t10 -35.5v-15zM259 111q18 0 38 7.5
t37 23t28 39t11 54.5l-117 -35q-6 -2 -14 -5t-15 -8t-12 -13.5t-5 -21.5q0 -21 14.5 -31t34.5 -10z" />
    <glyph glyph-name="Cacute" unicode="&#x106;" horiz-adv-x="776" 
d="M324 748l86 141h188l-118 -141h-156zM402 -15q-81 0 -149.5 27t-118 76.5t-77.5 118.5t-28 152t28 152t77.5 118.5t118 76.5t149.5 27q64 0 120 -17t101.5 -48.5t79 -76t51.5 -99.5l-175 -62q-18 62 -65 97.5t-112 35.5q-40 0 -74.5 -14.5t-59.5 -41.5t-39 -64.5
t-14 -83.5t14 -83.5t39 -64.5t59.5 -41.5t74.5 -14.5q65 0 112 35.5t65 97.5l175 -62q-18 -55 -51.5 -99.5t-79 -76t-101.5 -48.5t-120 -17z" />
    <glyph glyph-name="cacute" unicode="&#x107;" horiz-adv-x="613" 
d="M232 577l86 141h188l-118 -141h-156zM319 -10q-64 0 -117.5 19.5t-91.5 55t-59 85t-21 109.5t21 109.5t59 84.5t91.5 54.5t117.5 19.5q106 0 177 -51.5t87 -150.5l-164 -15q-8 42 -34 60.5t-68 18.5q-51 0 -80 -36t-29 -94t29 -94.5t80 -36.5q42 0 68 19t34 61l164 -15
q-8 -49 -31 -87t-57.5 -63.5t-79.5 -39t-96 -13.5z" />
    <glyph glyph-name="Cdotaccent" unicode="&#x10a;" horiz-adv-x="776" 
d="M403 750q-41 0 -69.5 28t-28.5 69q0 40 28.5 68t69.5 28q20 0 37 -7.5t30.5 -20.5t21 -30.5t7.5 -37.5t-7.5 -38t-21 -31t-30.5 -20.5t-37 -7.5zM402 -15q-81 0 -149.5 27t-118 76.5t-77.5 118.5t-28 152t28 152t77.5 118.5t118 76.5t149.5 27q64 0 120 -17t101.5 -48.5
t79 -76t51.5 -99.5l-175 -62q-18 62 -65 97.5t-112 35.5q-40 0 -74.5 -14.5t-59.5 -41.5t-39 -64.5t-14 -83.5t14 -83.5t39 -64.5t59.5 -41.5t74.5 -14.5q65 0 112 35.5t65 97.5l175 -62q-18 -55 -51.5 -99.5t-79 -76t-101.5 -48.5t-120 -17z" />
    <glyph glyph-name="cdotaccent" unicode="&#x10b;" horiz-adv-x="613" 
d="M311 567q-41 0 -69.5 28t-28.5 69q0 40 28.5 68t69.5 28q20 0 37 -7.5t30.5 -20.5t21 -30.5t7.5 -37.5t-7.5 -38t-21 -31t-30.5 -20.5t-37 -7.5zM319 -10q-64 0 -117.5 19.5t-91.5 55t-59 85t-21 109.5t21 109.5t59 84.5t91.5 54.5t117.5 19.5q106 0 177 -51.5t87 -150.5
l-164 -15q-8 42 -34 60.5t-68 18.5q-51 0 -80 -36t-29 -94t29 -94.5t80 -36.5q42 0 68 19t34 61l164 -15q-8 -49 -31 -87t-57.5 -63.5t-79.5 -39t-96 -13.5z" />
    <glyph glyph-name="Ccaron" unicode="&#x10c;" horiz-adv-x="776" 
d="M302 748l-96 141h146l50 -61l50 61h146l-96 -141h-200zM402 -15q-81 0 -149.5 27t-118 76.5t-77.5 118.5t-28 152t28 152t77.5 118.5t118 76.5t149.5 27q64 0 120 -17t101.5 -48.5t79 -76t51.5 -99.5l-175 -62q-18 62 -65 97.5t-112 35.5q-40 0 -74.5 -14.5t-59.5 -41.5
t-39 -64.5t-14 -83.5t14 -83.5t39 -64.5t59.5 -41.5t74.5 -14.5q65 0 112 35.5t65 97.5l175 -62q-18 -55 -51.5 -99.5t-79 -76t-101.5 -48.5t-120 -17z" />
    <glyph glyph-name="ccaron" unicode="&#x10d;" horiz-adv-x="613" 
d="M210 577l-96 141h146l50 -61l50 61h146l-96 -141h-200zM319 -10q-64 0 -117.5 19.5t-91.5 55t-59 85t-21 109.5t21 109.5t59 84.5t91.5 54.5t117.5 19.5q106 0 177 -51.5t87 -150.5l-164 -15q-8 42 -34 60.5t-68 18.5q-51 0 -80 -36t-29 -94t29 -94.5t80 -36.5
q42 0 68 19t34 61l164 -15q-8 -49 -31 -87t-57.5 -63.5t-79.5 -39t-96 -13.5z" />
    <glyph glyph-name="Dcaron" unicode="&#x10e;" horiz-adv-x="719" 
d="M200 748l-96 141h146l50 -61l50 61h146l-96 -141h-200zM60 0v718h239q90 0 151 -16.5t106 -47.5q66 -47 98.5 -122t32.5 -173t-32.5 -173t-98.5 -122q-45 -31 -106 -47.5t-151 -16.5h-239zM246 162h52q77 0 127 33q38 25 57 67t19 97t-19 97t-57 67q-50 33 -127 33h-52
v-394z" />
    <glyph glyph-name="dcaron" unicode="&#x10f;" horiz-adv-x="827" 
d="M428 750h178v-750h-168l-4 50q-21 -31 -61.5 -45.5t-88.5 -14.5q-52 0 -98 17.5t-80.5 51.5t-54.5 84t-20 114q0 65 20 115t54.5 84.5t80.5 52.5t98 18q45 0 83 -13.5t61 -40.5v277zM723 718h182l-118 -330h-126zM323 136q48 0 80.5 30.5t32.5 90.5t-32.5 92t-80.5 32
t-81 -32t-33 -92t33 -90.5t81 -30.5z" />
    <glyph glyph-name="Dcroat" unicode="&#x110;" horiz-adv-x="719" 
d="M556 654q66 -47 98.5 -122t32.5 -173t-32.5 -173t-98.5 -122q-45 -31 -106 -47.5t-151 -16.5h-239v306h-73v106h73v306h239q90 0 151 -16.5t106 -47.5zM425 195q38 25 57 67t19 97t-19 97t-57 67q-50 33 -127 33h-52v-144h105v-106h-105v-144h52q77 0 127 33z" />
    <glyph glyph-name="dcroat" unicode="&#x111;" horiz-adv-x="661" 
d="M666 686v-106h-60v-580h-168l-6 47q-22 -29 -61 -43t-87 -14q-52 0 -98 17.5t-80.5 51.5t-54.5 84t-20 114q0 65 20 115t54.5 84.5t80.5 52.5t98 18q45 0 83 -13.5t61 -40.5v107h-126v106h126v64h178v-64h60zM323 136q48 0 80.5 30.5t32.5 90.5t-32.5 92t-80.5 32
t-81 -32t-33 -92t33 -90.5t81 -30.5z" />
    <glyph glyph-name="Emacron" unicode="&#x112;" horiz-adv-x="542" 
d="M448 891v-111h-330v111h330zM496 556h-250v-117h223v-160h-223v-117h250v-162h-436v718h436v-162z" />
    <glyph glyph-name="emacron" unicode="&#x113;" horiz-adv-x="613" 
d="M468 703v-111h-300v111h300zM577 223h-370q6 -48 37 -71.5t74 -23.5q33 0 56.5 13t34.5 42l164 -21q-24 -84 -92 -128t-162 -44q-67 0 -120 18t-90.5 52.5t-57.5 84t-20 113.5t20.5 114t57.5 84.5t89 52.5t115 18q57 0 105.5 -15t84 -47t56 -81.5t20.5 -119.5zM314 397
q-41 0 -66 -16t-36 -51h192q-8 32 -32 49.5t-58 17.5z" />
    <glyph glyph-name="Ebreve" unicode="&#x114;" horiz-adv-x="542" 
d="M282 748q-42 0 -76 6t-58.5 21.5t-38 43t-13.5 70.5h110q0 -30 17.5 -42.5t58.5 -12.5q42 0 59.5 12.5t17.5 42.5h110q0 -43 -13.5 -70.5t-38 -43t-59 -21.5t-76.5 -6zM496 556h-250v-117h223v-160h-223v-117h250v-162h-436v718h436v-162z" />
    <glyph glyph-name="ebreve" unicode="&#x115;" horiz-adv-x="613" 
d="M318 568q-42 0 -76 7.5t-58.5 25t-38 46.5t-13.5 72h125q0 -29 14.5 -45t46.5 -16q33 0 47.5 16t14.5 45h125q0 -43 -13.5 -72t-38 -46.5t-59 -25t-76.5 -7.5zM577 223h-370q6 -48 37 -71.5t74 -23.5q33 0 56.5 13t34.5 42l164 -21q-24 -84 -92 -128t-162 -44
q-67 0 -120 18t-90.5 52.5t-57.5 84t-20 113.5t20.5 114t57.5 84.5t89 52.5t115 18q57 0 105.5 -15t84 -47t56 -81.5t20.5 -119.5zM314 397q-41 0 -66 -16t-36 -51h192q-8 32 -32 49.5t-58 17.5z" />
    <glyph glyph-name="Edotaccent" unicode="&#x116;" horiz-adv-x="542" 
d="M284 750q-41 0 -69.5 28t-28.5 69q0 40 28.5 68t69.5 28q20 0 37 -7.5t30.5 -20.5t21 -30.5t7.5 -37.5t-7.5 -38t-21 -31t-30.5 -20.5t-37 -7.5zM496 556h-250v-117h223v-160h-223v-117h250v-162h-436v718h436v-162z" />
    <glyph glyph-name="edotaccent" unicode="&#x117;" horiz-adv-x="613" 
d="M319 568q-41 0 -69.5 28t-28.5 69q0 40 28.5 68t69.5 28q20 0 37 -7.5t30.5 -20.5t21 -30.5t7.5 -37.5t-7.5 -38t-21 -31t-30.5 -20.5t-37 -7.5zM577 223h-370q6 -48 37 -71.5t74 -23.5q33 0 56.5 13t34.5 42l164 -21q-24 -84 -92 -128t-162 -44q-67 0 -120 18
t-90.5 52.5t-57.5 84t-20 113.5t20.5 114t57.5 84.5t89 52.5t115 18q57 0 105.5 -15t84 -47t56 -81.5t20.5 -119.5zM314 397q-41 0 -66 -16t-36 -51h192q-8 32 -32 49.5t-58 17.5z" />
    <glyph glyph-name="Eogonek" unicode="&#x118;" horiz-adv-x="542" 
d="M496 556h-250v-117h223v-160h-223v-117h250v-162q-31 -26 -49.5 -51t-18.5 -43q0 -10 8 -15t19 -5t22 4.5t19 12.5v-107q-37 -16 -82 -16q-19 0 -37.5 3.5t-32 11.5t-22 21t-8.5 32q0 37 33.5 75t79.5 77h-367v718h436v-162z" />
    <glyph glyph-name="eogonek" unicode="&#x119;" horiz-adv-x="613" 
d="M577 223h-370q6 -48 37 -71.5t74 -23.5q33 0 56.5 13t34.5 42l164 -21q-19 -64 -64 -105t-108 -57q-31 -26 -49.5 -51t-18.5 -43q0 -10 8 -15t19 -5t22 4.5t19 12.5v-107q-37 -16 -82 -16q-19 0 -37.5 3.5t-32 11.5t-22 21t-8.5 32q0 35 29.5 70t71.5 72h-1
q-67 0 -120 18t-90.5 52.5t-57.5 84t-20 113.5t20.5 114t57.5 84.5t89 52.5t115 18q57 0 105.5 -15t84 -47t56 -81.5t20.5 -119.5zM314 397q-41 0 -66 -16t-36 -51h192q-8 32 -32 49.5t-58 17.5z" />
    <glyph glyph-name="Ecaron" unicode="&#x11a;" horiz-adv-x="542" 
d="M383 748h-200l-96 141h146l50 -61l50 61h146zM496 556h-250v-117h223v-160h-223v-117h250v-162h-436v718h436v-162z" />
    <glyph glyph-name="ecaron" unicode="&#x11b;" horiz-adv-x="613" 
d="M418 578h-200l-96 141h146l50 -61l50 61h146zM577 223h-370q6 -48 37 -71.5t74 -23.5q33 0 56.5 13t34.5 42l164 -21q-24 -84 -92 -128t-162 -44q-67 0 -120 18t-90.5 52.5t-57.5 84t-20 113.5t20.5 114t57.5 84.5t89 52.5t115 18q57 0 105.5 -15t84 -47t56 -81.5
t20.5 -119.5zM314 397q-41 0 -66 -16t-36 -51h192q-8 32 -32 49.5t-58 17.5z" />
    <glyph glyph-name="Gcircumflex" unicode="&#x11c;" horiz-adv-x="794" 
d="M206 748l96 141h200l96 -141h-146l-50 61l-50 -61h-146zM391 -15q-79 0 -145.5 27t-114.5 76.5t-75 118.5t-27 152t28 152t77.5 118.5t118 76.5t149.5 27q108 0 191.5 -46.5t130.5 -128.5l-162 -87q-24 44 -65.5 68t-94.5 24q-40 0 -74.5 -14.5t-59.5 -41.5t-39 -64.5
t-14 -83.5q0 -45 13 -82.5t37 -64.5t58.5 -42t78.5 -15q25 0 50 5.5t47.5 18t40.5 32t29 47.5h-159v147h341v-405h-144v77q-34 -40 -86.5 -66t-129.5 -26z" />
    <glyph glyph-name="gcircumflex" unicode="&#x11d;" horiz-adv-x="640" 
d="M330 638l-50 -61h-146l96 141h200l96 -141h-146zM418 517h168v-498q0 -74 -19.5 -125t-55.5 -83t-87.5 -46.5t-115.5 -14.5q-60 0 -105.5 11.5t-79 33t-55.5 51.5t-36 66l148 60q22 -45 49 -65.5t72 -20.5q61 0 84 33t23 86v69q-22 -24 -59.5 -39t-83.5 -15
q-48 0 -90.5 18t-74.5 51t-51 80t-19 106t19 105.5t51 79t75.5 50t91.5 17.5q50 0 87.5 -17t57.5 -44zM310 162q48 0 78.5 32t30.5 81t-30.5 81t-78.5 32t-78.5 -32t-30.5 -81t31 -81t78 -32z" />
    <glyph glyph-name="Gbreve" unicode="&#x11e;" horiz-adv-x="794" 
d="M401 748q-42 0 -76 6t-58.5 21.5t-38 43t-13.5 70.5h110q0 -30 17.5 -42.5t58.5 -12.5q42 0 59.5 12.5t17.5 42.5h110q0 -43 -13.5 -70.5t-38 -43t-59 -21.5t-76.5 -6zM391 -15q-79 0 -145.5 27t-114.5 76.5t-75 118.5t-27 152t28 152t77.5 118.5t118 76.5t149.5 27
q108 0 191.5 -46.5t130.5 -128.5l-162 -87q-24 44 -65.5 68t-94.5 24q-40 0 -74.5 -14.5t-59.5 -41.5t-39 -64.5t-14 -83.5q0 -45 13 -82.5t37 -64.5t58.5 -42t78.5 -15q25 0 50 5.5t47.5 18t40.5 32t29 47.5h-159v147h341v-405h-144v77q-34 -40 -86.5 -66t-129.5 -26z" />
    <glyph glyph-name="gbreve" unicode="&#x11f;" horiz-adv-x="640" 
d="M330 567q-42 0 -76 7.5t-58.5 25t-38 46.5t-13.5 72h125q0 -29 14.5 -45t46.5 -16q33 0 47.5 16t14.5 45h125q0 -43 -13.5 -72t-38 -46.5t-59 -25t-76.5 -7.5zM418 517h168v-498q0 -74 -19.5 -125t-55.5 -83t-87.5 -46.5t-115.5 -14.5q-60 0 -105.5 11.5t-79 33
t-55.5 51.5t-36 66l148 60q22 -45 49 -65.5t72 -20.5q61 0 84 33t23 86v69q-22 -24 -59.5 -39t-83.5 -15q-48 0 -90.5 18t-74.5 51t-51 80t-19 106t19 105.5t51 79t75.5 50t91.5 17.5q50 0 87.5 -17t57.5 -44zM310 162q48 0 78.5 32t30.5 81t-30.5 81t-78.5 32t-78.5 -32
t-30.5 -81t31 -81t78 -32z" />
    <glyph glyph-name="Gdotaccent" unicode="&#x120;" horiz-adv-x="794" 
d="M403 750q-41 0 -69.5 28t-28.5 69q0 40 28.5 68t69.5 28q20 0 37 -7.5t30.5 -20.5t21 -30.5t7.5 -37.5t-7.5 -38t-21 -31t-30.5 -20.5t-37 -7.5zM391 -15q-79 0 -145.5 27t-114.5 76.5t-75 118.5t-27 152t28 152t77.5 118.5t118 76.5t149.5 27q108 0 191.5 -46.5
t130.5 -128.5l-162 -87q-24 44 -65.5 68t-94.5 24q-40 0 -74.5 -14.5t-59.5 -41.5t-39 -64.5t-14 -83.5q0 -45 13 -82.5t37 -64.5t58.5 -42t78.5 -15q25 0 50 5.5t47.5 18t40.5 32t29 47.5h-159v147h341v-405h-144v77q-34 -40 -86.5 -66t-129.5 -26z" />
    <glyph glyph-name="gdotaccent" unicode="&#x121;" horiz-adv-x="640" 
d="M331 567q-41 0 -69.5 28t-28.5 69q0 40 28.5 68t69.5 28q20 0 37 -7.5t30.5 -20.5t21 -30.5t7.5 -37.5t-7.5 -38t-21 -31t-30.5 -20.5t-37 -7.5zM418 517h168v-498q0 -74 -19.5 -125t-55.5 -83t-87.5 -46.5t-115.5 -14.5q-60 0 -105.5 11.5t-79 33t-55.5 51.5t-36 66
l148 60q22 -45 49 -65.5t72 -20.5q61 0 84 33t23 86v69q-22 -24 -59.5 -39t-83.5 -15q-48 0 -90.5 18t-74.5 51t-51 80t-19 106t19 105.5t51 79t75.5 50t91.5 17.5q50 0 87.5 -17t57.5 -44zM310 162q48 0 78.5 32t30.5 81t-30.5 81t-78.5 32t-78.5 -32t-30.5 -81t31 -81
t78 -32z" />
    <glyph glyph-name="uni0122" unicode="&#x122;" horiz-adv-x="794" 
d="M391 -15q-79 0 -145.5 27t-114.5 76.5t-75 118.5t-27 152t28 152t77.5 118.5t118 76.5t149.5 27q108 0 191.5 -46.5t130.5 -128.5l-162 -87q-24 44 -65.5 68t-94.5 24q-40 0 -74.5 -14.5t-59.5 -41.5t-39 -64.5t-14 -83.5q0 -45 13 -82.5t37 -64.5t58.5 -42t78.5 -15
q25 0 50 5.5t47.5 18t40.5 32t29 47.5h-159v147h341v-405h-144v77q-34 -40 -86.5 -66t-129.5 -26zM230 -171l96 141h148l-118 -141h-126z" />
    <glyph glyph-name="uni0123" unicode="&#x123;" horiz-adv-x="640" 
d="M500 718l-96 -141h-148l118 141h126zM418 517h168v-498q0 -74 -19.5 -125t-55.5 -83t-87.5 -46.5t-115.5 -14.5q-60 0 -105.5 11.5t-79 33t-55.5 51.5t-36 66l148 60q22 -45 49 -65.5t72 -20.5q61 0 84 33t23 86v69q-22 -24 -59.5 -39t-83.5 -15q-48 0 -90.5 18t-74.5 51
t-51 80t-19 106t19 105.5t51 79t75.5 50t91.5 17.5q50 0 87.5 -17t57.5 -44zM310 162q48 0 78.5 32t30.5 81t-30.5 81t-78.5 32t-78.5 -32t-30.5 -81t31 -81t78 -32z" />
    <glyph glyph-name="Hcircumflex" unicode="&#x124;" horiz-adv-x="757" 
d="M183 748l96 141h200l96 -141h-146l-50 61l-50 -61h-146zM60 0v718h186v-278h265v278h186v-718h-186v280h-265v-280h-186z" />
    <glyph glyph-name="hcircumflex" unicode="&#x125;" horiz-adv-x="647" 
d="M324 841l-50 -61h-146l96 141h200l96 -141h-146zM407 527q94 0 142.5 -49.5t48.5 -149.5v-328h-178v300q0 50 -24 68.5t-59 18.5q-17 0 -35.5 -4.5t-33.5 -17t-25.5 -35.5t-10.5 -60v-270h-178v750h178v-293q29 32 73.5 51t101.5 19z" />
    <glyph glyph-name="Hbar" unicode="&#x126;" horiz-adv-x="757" 
d="M758 602v-66h-61v-536h-186v280h-265v-280h-186v536h-59v66h59v116h186v-116h265v116h186v-116h61zM511 440v96h-265v-96h265z" />
    <glyph glyph-name="hbar" unicode="&#x127;" horiz-adv-x="647" 
d="M407 527q94 0 142.5 -49.5t48.5 -149.5v-328h-178v300q0 50 -24 68.5t-59 18.5q-17 0 -35.5 -4.5t-33.5 -17t-25.5 -35.5t-10.5 -60v-270h-178v580h-56v106h56v64h178v-64h130v-106h-130v-123q29 32 73.5 51t101.5 19z" />
    <glyph glyph-name="Itilde" unicode="&#x128;" horiz-adv-x="306" 
d="M207 748q-36 0 -55 14t-31 28q-8 9 -16 15.5t-19 6.5q-13 0 -16.5 -17.5t-3.5 -40.5h-83q0 66 29.5 109t83.5 43q35 0 54.5 -14t32.5 -28q8 -10 16 -16.5t19 -6.5q13 0 15.5 17t2.5 42h84q0 -32 -7 -59.5t-21.5 -48t-35.5 -32.5t-49 -12zM60 0v718h186v-718h-186z" />
    <glyph glyph-name="itilde" unicode="&#x129;" horiz-adv-x="284" 
d="M197 568q-36 0 -55 14t-31 28q-8 9 -16 15.5t-19 6.5q-13 0 -16.5 -17.5t-3.5 -40.5h-83q0 66 29.5 109t83.5 43q35 0 54.5 -14t32.5 -28q8 -10 16 -16.5t19 -6.5q13 0 15.5 17t2.5 42h84q0 -32 -7 -59.5t-21.5 -48t-35.5 -32.5t-49 -12zM53 0v517h178v-517h-178z" />
    <glyph glyph-name="Imacron" unicode="&#x12a;" horiz-adv-x="306" 
d="M-13 780v111h330v-111h-330zM60 0v718h186v-718h-186z" />
    <glyph glyph-name="imacron" unicode="&#x12b;" horiz-adv-x="284" 
d="M-8 591v111h300v-111h-300zM53 0v517h178v-517h-178z" />
    <glyph glyph-name="Ibreve" unicode="&#x12c;" horiz-adv-x="306" 
d="M151 748q-42 0 -76 6t-58.5 21.5t-38 43t-13.5 70.5h110q0 -30 17.5 -42.5t58.5 -12.5q42 0 59.5 12.5t17.5 42.5h110q0 -43 -13.5 -70.5t-38 -43t-59 -21.5t-76.5 -6zM60 0v718h186v-718h-186z" />
    <glyph glyph-name="ibreve" unicode="&#x12d;" horiz-adv-x="284" 
d="M142 567q-42 0 -76 7.5t-58.5 25t-38 46.5t-13.5 72h125q0 -29 14.5 -45t46.5 -16q33 0 47.5 16t14.5 45h125q0 -43 -13.5 -72t-38 -46.5t-59 -25t-76.5 -7.5zM53 0v517h178v-517h-178z" />
    <glyph glyph-name="Iogonek" unicode="&#x12e;" horiz-adv-x="306" 
d="M246 0q-31 -26 -49.5 -51t-18.5 -43q0 -10 8 -15t19 -5t22 4.5t19 12.5v-107q-37 -16 -82 -16q-19 0 -37.5 3.5t-32 11.5t-22 21t-8.5 32q0 37 33.5 75t79.5 77h-117v718h186v-718z" />
    <glyph glyph-name="iogonek" unicode="&#x12f;" horiz-adv-x="284" 
d="M143 567q-41 0 -69.5 28t-28.5 69q0 40 28.5 68t69.5 28q20 0 37 -7.5t30.5 -20.5t21 -30.5t7.5 -37.5t-7.5 -38t-21 -31t-30.5 -20.5t-37 -7.5zM53 0v517h178v-517q-31 -26 -49.5 -51t-18.5 -43q0 -10 8 -15t19 -5t22 4.5t19 12.5v-107q-37 -16 -82 -16q-19 0 -37.5 3.5
t-32 11.5t-22 21t-8.5 32q0 37 33.5 75t79.5 77h-109z" />
    <glyph glyph-name="Idotaccent" unicode="&#x130;" horiz-adv-x="306" 
d="M153 750q-41 0 -69.5 28t-28.5 69q0 40 28.5 68t69.5 28q20 0 37 -7.5t30.5 -20.5t21 -30.5t7.5 -37.5t-7.5 -38t-21 -31t-30.5 -20.5t-37 -7.5zM60 0v718h186v-718h-186z" />
    <glyph glyph-name="dotlessi" unicode="&#x131;" horiz-adv-x="284" 
d="M53 0v517h178v-517h-178z" />
    <glyph glyph-name="IJ" unicode="&#x132;" horiz-adv-x="799" 
d="M60 0v718h186v-718h-186zM518 -15q-52 0 -102.5 13t-108.5 46l78 152q28 -20 53 -30t55 -10q35 0 50 20.5t15 79.5v462h186v-498q0 -58 -16.5 -102t-46.5 -73.5t-71.5 -44.5t-91.5 -15z" />
    <glyph glyph-name="ij" unicode="&#x133;" horiz-adv-x="567" 
d="M143 567q-41 0 -69.5 28t-28.5 69q0 40 28.5 68t69.5 28q20 0 37 -7.5t30.5 -20.5t21 -30.5t7.5 -37.5t-7.5 -38t-21 -31t-30.5 -20.5t-37 -7.5zM424 567q-41 0 -69.5 28t-28.5 69q0 40 28.5 68t69.5 28q20 0 37 -7.5t30.5 -20.5t21 -30.5t7.5 -37.5t-7.5 -38t-21 -31
t-30.5 -20.5t-37 -7.5zM53 0v517h178v-517h-178zM234 -107q32 0 51.5 8t30.5 24t14.5 40.5t3.5 58.5v493h178v-493q0 -131 -64.5 -199t-213.5 -68v136z" />
    <glyph glyph-name="Jcircumflex" unicode="&#x134;" horiz-adv-x="493" 
d="M149 748l96 141h200l96 -141h-146l-50 61l-50 -61h-146zM212 -15q-52 0 -102.5 13t-108.5 46l78 152q28 -20 53 -30t55 -10q35 0 50 20.5t15 79.5v462h186v-498q0 -58 -16.5 -102t-46.5 -73.5t-71.5 -44.5t-91.5 -15z" />
    <glyph glyph-name="jcircumflex" unicode="&#x135;" horiz-adv-x="283" 
d="M-57 577l96 141h200l96 -141h-146l-50 61l-50 -61h-146zM-50 -107q32 0 51.5 8t30.5 24t14.5 40.5t3.5 58.5v493h178v-493q0 -131 -64.5 -199t-213.5 -68v136z" />
    <glyph glyph-name="uni0136" unicode="&#x136;" horiz-adv-x="732" 
d="M450 374l280 -374h-233l-206 289h-45v-289h-186v718h186v-269h43l210 269h226zM181 -171l96 141h148l-118 -141h-126z" />
    <glyph glyph-name="uni0137" unicode="&#x137;" horiz-adv-x="622" 
d="M401 275l215 -275h-213l-149 203h-22v-203h-178v750h178v-427h19l153 194h198zM128 -171l96 141h148l-118 -141h-126z" />
    <glyph glyph-name="kgreenlandic" unicode="&#x138;" horiz-adv-x="622" 
d="M401 275l215 -275h-213l-149 203h-22v-203h-178v517h178v-194h19l153 194h198z" />
    <glyph glyph-name="Lacute" unicode="&#x139;" horiz-adv-x="464" 
d="M75 748l86 141h188l-118 -141h-156zM60 0v718h186v-556h210v-162h-396z" />
    <glyph glyph-name="lacute" unicode="&#x13a;" horiz-adv-x="286" 
d="M65 810l86 141h188l-118 -141h-156zM54 0v750h178v-750h-178z" />
    <glyph glyph-name="uni013B" unicode="&#x13b;" horiz-adv-x="464" 
d="M60 0v718h186v-556h210v-162h-396zM89 -171l96 141h148l-118 -141h-126z" />
    <glyph glyph-name="uni013C" unicode="&#x13c;" horiz-adv-x="286" 
d="M54 0v750h178v-750h-178zM-27 -171l96 141h148l-118 -141h-126z" />
    <glyph glyph-name="Lcaron" unicode="&#x13d;" horiz-adv-x="440" 
d="M60 0v718h186v-556h210v-162h-396zM301 388l62 330h182l-118 -330h-126z" />
    <glyph glyph-name="lcaron" unicode="&#x13e;" horiz-adv-x="452" 
d="M54 0v750h178v-750h-178zM286 388l62 330h182l-118 -330h-126z" />
    <glyph glyph-name="Ldot" unicode="&#x13f;" horiz-adv-x="542" 
d="M60 0v718h186v-556h210v-162h-396zM437 260q-20 0 -38 7.5t-31.5 21t-21.5 31.5t-8 39q0 20 8 38t21.5 31.5t31.5 21.5t38 8q19 0 37 -8t31.5 -21.5t22 -31.5t8.5 -38q0 -21 -8.5 -39t-22 -31.5t-31.5 -21t-37 -7.5z" />
    <glyph glyph-name="ldot" unicode="&#x140;" horiz-adv-x="478" 
d="M54 0v750h178v-750h-178zM394 276q-20 0 -38 7.5t-31.5 21t-21.5 31.5t-8 39q0 20 8 38t21.5 31.5t31.5 21.5t38 8q19 0 37 -8t31.5 -21.5t22 -31.5t8.5 -38q0 -21 -8.5 -39t-22 -31.5t-31.5 -21t-37 -7.5z" />
    <glyph glyph-name="Lslash" unicode="&#x141;" horiz-adv-x="464" 
d="M246 162h210v-162h-396v180l-59 -43v146l59 44v391h186v-254l96 71v-147l-96 -71v-155z" />
    <glyph glyph-name="lslash" unicode="&#x142;" horiz-adv-x="286" 
d="M313 534v-147l-81 -60v-327h-178v196l-82 -60v146l82 61v407h178v-276z" />
    <glyph glyph-name="Nacute" unicode="&#x143;" horiz-adv-x="800" 
d="M597 889l-118 -141h-156l86 141h188zM554 718h186v-718h-221l-273 453v-453h-186v718h219l275 -450v450z" />
    <glyph glyph-name="nacute" unicode="&#x144;" horiz-adv-x="647" 
d="M514 718l-118 -141h-156l86 141h188zM396 527q102 0 151.5 -47t49.5 -132v-348h-178v310q0 43 -24.5 60t-56.5 17q-18 0 -36 -4.5t-32.5 -15.5t-24.5 -30t-13 -48v-289h-178v517h168l7 -55q29 31 71 48t96 17z" />
    <glyph glyph-name="uni0145" unicode="&#x145;" horiz-adv-x="800" 
d="M554 718h186v-718h-221l-273 453v-453h-186v718h219l275 -450v450zM231 -171l96 141h148l-118 -141h-126z" />
    <glyph glyph-name="uni0146" unicode="&#x146;" horiz-adv-x="647" 
d="M396 527q102 0 151.5 -47t49.5 -132v-348h-178v310q0 43 -24.5 60t-56.5 17q-18 0 -36 -4.5t-32.5 -15.5t-24.5 -30t-13 -48v-289h-178v517h168l7 -55q29 31 71 48t96 17zM148 -171l96 141h148l-118 -141h-126z" />
    <glyph glyph-name="Ncaron" unicode="&#x147;" horiz-adv-x="800" 
d="M501 748h-200l-96 141h146l50 -61l50 61h146zM554 718h186v-718h-221l-273 453v-453h-186v718h219l275 -450v450z" />
    <glyph glyph-name="ncaron" unicode="&#x148;" horiz-adv-x="647" 
d="M418 577h-200l-96 141h146l50 -61l50 61h146zM396 527q102 0 151.5 -47t49.5 -132v-348h-178v310q0 43 -24.5 60t-56.5 17q-18 0 -36 -4.5t-32.5 -15.5t-24.5 -30t-13 -48v-289h-178v517h168l7 -55q29 31 71 48t96 17z" />
    <glyph glyph-name="napostrophe" unicode="&#x149;" horiz-adv-x="850" 
d="M106 718h182l-118 -330h-126zM599 527q102 0 151.5 -47t49.5 -132v-348h-178v310q0 43 -24.5 60t-56.5 17q-18 0 -36 -4.5t-32.5 -15.5t-24.5 -30t-13 -48v-289h-178v517h168l7 -55q29 31 71 48t96 17z" />
    <glyph glyph-name="Eng" unicode="&#x14a;" horiz-adv-x="800" 
d="M554 718h186v-718q0 -54 -18.5 -97t-52.5 -73t-81.5 -46t-106.5 -16v136q22 0 38 12.5t16 35.5q0 20 -16 48l-273 454v-454h-186v718h219l275 -449v449z" />
    <glyph glyph-name="eng" unicode="&#x14b;" horiz-adv-x="647" 
d="M396 527q102 0 151.5 -47t49.5 -132v-324q0 -131 -64.5 -199t-213.5 -68v136q32 0 51.5 8t30.5 24t14.5 40.5t3.5 58.5v286q0 43 -24.5 60t-56.5 17q-18 0 -36 -4.5t-32.5 -15.5t-24.5 -30t-13 -48v-289h-178v517h168l7 -55q29 31 71 48t96 17z" />
    <glyph glyph-name="Omacron" unicode="&#x14c;" horiz-adv-x="804" 
d="M237 780v111h330v-111h-330zM402 -15q-81 0 -149.5 27t-118 76.5t-77.5 118.5t-28 152t28 152t77.5 118.5t118 76.5t149.5 27t149.5 -27t118 -76.5t77.5 -118.5t28 -152t-28 -152t-77.5 -118.5t-118 -76.5t-149.5 -27zM402 155q41 0 75 14.5t59 41.5t39 64.5t14 83.5
t-14 83.5t-39 64.5t-59 41.5t-75 14.5q-40 0 -74.5 -14.5t-59.5 -41.5t-39 -64.5t-14 -83.5t14 -83.5t39 -64.5t59.5 -41.5t74.5 -14.5z" />
    <glyph glyph-name="omacron" unicode="&#x14d;" horiz-adv-x="650" 
d="M177 591v111h300v-111h-300zM325 -10q-65 0 -119.5 18.5t-93.5 53t-60.5 84t-21.5 113.5q0 63 21.5 113t60.5 84t93.5 52.5t119.5 18.5t119.5 -18.5t93.5 -52.5t60.5 -84t21.5 -113q0 -64 -21.5 -113.5t-60.5 -84t-93.5 -53t-119.5 -18.5zM325 130q54 0 85.5 35.5
t31.5 93.5q0 57 -31.5 92.5t-85.5 35.5t-85.5 -35.5t-31.5 -92.5q0 -58 31.5 -93.5t85.5 -35.5z" />
    <glyph glyph-name="Obreve" unicode="&#x14e;" horiz-adv-x="804" 
d="M401 748q-42 0 -76 6t-58.5 21.5t-38 43t-13.5 70.5h110q0 -30 17.5 -42.5t58.5 -12.5q42 0 59.5 12.5t17.5 42.5h110q0 -43 -13.5 -70.5t-38 -43t-59 -21.5t-76.5 -6zM402 -15q-81 0 -149.5 27t-118 76.5t-77.5 118.5t-28 152t28 152t77.5 118.5t118 76.5t149.5 27
t149.5 -27t118 -76.5t77.5 -118.5t28 -152t-28 -152t-77.5 -118.5t-118 -76.5t-149.5 -27zM402 155q41 0 75 14.5t59 41.5t39 64.5t14 83.5t-14 83.5t-39 64.5t-59 41.5t-75 14.5q-40 0 -74.5 -14.5t-59.5 -41.5t-39 -64.5t-14 -83.5t14 -83.5t39 -64.5t59.5 -41.5
t74.5 -14.5z" />
    <glyph glyph-name="obreve" unicode="&#x14f;" horiz-adv-x="650" 
d="M327 567q-42 0 -76 7.5t-58.5 25t-38 46.5t-13.5 72h125q0 -29 14.5 -45t46.5 -16q33 0 47.5 16t14.5 45h125q0 -43 -13.5 -72t-38 -46.5t-59 -25t-76.5 -7.5zM325 -10q-65 0 -119.5 18.5t-93.5 53t-60.5 84t-21.5 113.5q0 63 21.5 113t60.5 84t93.5 52.5t119.5 18.5
t119.5 -18.5t93.5 -52.5t60.5 -84t21.5 -113q0 -64 -21.5 -113.5t-60.5 -84t-93.5 -53t-119.5 -18.5zM325 130q54 0 85.5 35.5t31.5 93.5q0 57 -31.5 92.5t-85.5 35.5t-85.5 -35.5t-31.5 -92.5q0 -58 31.5 -93.5t85.5 -35.5z" />
    <glyph glyph-name="Ohungarumlaut" unicode="&#x150;" horiz-adv-x="804" 
d="M214 748l96 141h178l-118 -141h-156zM434 748l96 141h178l-118 -141h-156zM402 -15q-81 0 -149.5 27t-118 76.5t-77.5 118.5t-28 152t28 152t77.5 118.5t118 76.5t149.5 27t149.5 -27t118 -76.5t77.5 -118.5t28 -152t-28 -152t-77.5 -118.5t-118 -76.5t-149.5 -27z
M402 155q41 0 75 14.5t59 41.5t39 64.5t14 83.5t-14 83.5t-39 64.5t-59 41.5t-75 14.5q-40 0 -74.5 -14.5t-59.5 -41.5t-39 -64.5t-14 -83.5t14 -83.5t39 -64.5t59.5 -41.5t74.5 -14.5z" />
    <glyph glyph-name="ohungarumlaut" unicode="&#x151;" horiz-adv-x="650" 
d="M139 577l96 141h178l-118 -141h-156zM359 577l96 141h178l-118 -141h-156zM325 -10q-65 0 -119.5 18.5t-93.5 53t-60.5 84t-21.5 113.5q0 63 21.5 113t60.5 84t93.5 52.5t119.5 18.5t119.5 -18.5t93.5 -52.5t60.5 -84t21.5 -113q0 -64 -21.5 -113.5t-60.5 -84t-93.5 -53
t-119.5 -18.5zM325 130q54 0 85.5 35.5t31.5 93.5q0 57 -31.5 92.5t-85.5 35.5t-85.5 -35.5t-31.5 -92.5q0 -58 31.5 -93.5t85.5 -35.5z" />
    <glyph glyph-name="OE" unicode="&#x152;" horiz-adv-x="951" 
d="M417 0q-90 0 -151 16.5t-106 47.5q-66 47 -98.5 122t-32.5 173t32.5 173t98.5 122q45 31 106 47.5t151 16.5h488v-162h-249v-117h222v-160h-222v-117h249v-162h-488zM470 162v394h-52q-77 0 -127 -33q-38 -25 -57 -67t-19 -97t19 -97t57 -67q50 -33 127 -33h52z" />
    <glyph glyph-name="oe" unicode="&#x153;" horiz-adv-x="1027" 
d="M991 223h-370q6 -48 37 -71.5t74 -23.5q33 0 56.5 13t34.5 42l164 -21q-24 -84 -92 -128t-162 -44q-128 0 -204 64q-38 -31 -90 -47.5t-114 -16.5q-65 0 -119.5 18.5t-93.5 53t-60.5 84t-21.5 113.5q0 63 21.5 113t60.5 84t93.5 52.5t119.5 18.5q63 0 114.5 -16.5
t90.5 -47.5q75 64 197 64q57 0 105.5 -15t84 -47t56 -81.5t20.5 -119.5zM728 397q-41 0 -66 -16t-36 -51h192q-8 32 -32 49.5t-58 17.5zM325 130q54 0 85.5 35.5t31.5 93.5q0 57 -31.5 92.5t-85.5 35.5t-85.5 -35.5t-31.5 -92.5q0 -58 31.5 -93.5t85.5 -35.5z" />
    <glyph glyph-name="Racute" unicode="&#x154;" horiz-adv-x="661" 
d="M506 889l-118 -141h-156l86 141h188zM654 0h-227l-181 278v-278h-186v718h246q81 0 133.5 -15t87.5 -45q30 -26 47.5 -67t17.5 -100q0 -60 -26 -114t-83 -82q-7 -3 -13.5 -6t-13.5 -5zM379 545q-20 14 -49 16.5t-51 2.5h-33v-167h33q10 0 24 0.5t28.5 2.5t28 6t23.5 12
q23 18 23 62q0 25 -7 40.5t-20 24.5z" />
    <glyph glyph-name="racute" unicode="&#x155;" horiz-adv-x="411" 
d="M392 718l-118 -141h-156l86 141h188zM232 455q23 32 65.5 52t96.5 20v-165q-43 0 -74 -5.5t-50.5 -20t-28.5 -40t-9 -64.5v-232h-178v517h178v-62z" />
    <glyph glyph-name="uni0156" unicode="&#x156;" horiz-adv-x="661" 
d="M654 0h-227l-181 278v-278h-186v718h246q81 0 133.5 -15t87.5 -45q30 -26 47.5 -67t17.5 -100q0 -60 -26 -114t-83 -82q-7 -3 -13.5 -6t-13.5 -5zM379 545q-20 14 -49 16.5t-51 2.5h-33v-167h33q10 0 24 0.5t28.5 2.5t28 6t23.5 12q23 18 23 62q0 25 -7 40.5t-20 24.5z
M140 -171l96 141h148l-118 -141h-126z" />
    <glyph glyph-name="uni0157" unicode="&#x157;" horiz-adv-x="411" 
d="M232 455q23 32 65.5 52t96.5 20v-165q-43 0 -74 -5.5t-50.5 -20t-28.5 -40t-9 -64.5v-232h-178v517h178v-62zM-27 -171l96 141h148l-118 -141h-126z" />
    <glyph glyph-name="Rcaron" unicode="&#x158;" horiz-adv-x="661" 
d="M410 748h-200l-96 141h146l50 -61l50 61h146zM654 0h-227l-181 278v-278h-186v718h246q81 0 133.5 -15t87.5 -45q30 -26 47.5 -67t17.5 -100q0 -60 -26 -114t-83 -82q-7 -3 -13.5 -6t-13.5 -5zM379 545q-20 14 -49 16.5t-51 2.5h-33v-167h33q10 0 24 0.5t28.5 2.5t28 6
t23.5 12q23 18 23 62q0 25 -7 40.5t-20 24.5z" />
    <glyph glyph-name="rcaron" unicode="&#x159;" horiz-adv-x="411" 
d="M296 577h-200l-96 141h146l50 -61l50 61h146zM232 455q23 32 65.5 52t96.5 20v-165q-43 0 -74 -5.5t-50.5 -20t-28.5 -40t-9 -64.5v-232h-178v517h178v-62z" />
    <glyph glyph-name="Sacute" unicode="&#x15a;" horiz-adv-x="617" 
d="M222 748l86 141h188l-118 -141h-156zM306 -15q-59 0 -111.5 15t-93 43.5t-67 70.5t-34.5 96l184 39q15 -61 47 -87t78 -26q39 0 60 16t21 45q0 18 -10.5 31t-28.5 23.5t-41.5 19t-50.5 17.5q-39 13 -80 29t-75 41t-55.5 62.5t-21.5 93.5q0 50 19.5 90t54 69t83 44.5
t106.5 15.5q47 0 94.5 -11t88 -35t70 -62.5t40.5 -94.5l-167 -38q-17 47 -43.5 68.5t-70.5 21.5q-38 0 -62.5 -15t-24.5 -42q0 -15 9.5 -25.5t26 -19t38 -15.5t46.5 -15q41 -12 84.5 -28t80 -42t60 -66.5t23.5 -102.5q0 -51 -20 -92.5t-56 -71.5t-87 -46t-114 -16z" />
    <glyph glyph-name="sacute" unicode="&#x15b;" horiz-adv-x="536" 
d="M186 577l86 141h188l-118 -141h-156zM281 -10q-47 0 -89.5 8.5t-76 26t-55.5 44.5t-30 65l147 41q14 -38 37 -51t55 -13q22 0 42 6.5t20 27.5q0 13 -8.5 21.5t-22.5 15t-32 10.5t-38 8q-45 9 -80 20.5t-59 30t-36.5 44.5t-12.5 63q0 81 60 125t161 44q38 0 74 -7
t67 -22.5t53.5 -41t33.5 -62.5l-155 -34q-14 30 -33 41t-46 11q-24 0 -39 -8t-15 -23q0 -20 29 -29.5t71 -18.5q49 -11 86.5 -24t62.5 -31.5t37.5 -46t12.5 -66.5q0 -48 -19 -81.5t-49.5 -54t-70.5 -30t-82 -9.5z" />
    <glyph glyph-name="Scedilla" unicode="&#x15e;" horiz-adv-x="617" 
d="M335 450q41 -12 84.5 -28t80 -42t60 -66.5t23.5 -102.5q0 -48 -17.5 -87.5t-50 -69t-78.5 -47t-102 -21.5l-22 -31q14 3 26 3q44 0 69.5 -26.5t25.5 -68.5q0 -48 -34 -80.5t-89 -32.5q-63 0 -95.5 23.5t-42.5 57.5l96 24q5 -14 15.5 -21t22.5 -7q14 0 26 9.5t12 26.5
q0 19 -12 28t-26 9q-23 0 -34 -18l-81 34l46 74q-47 7 -88 25.5t-72 46t-51.5 65t-26.5 83.5l184 39q15 -61 47 -87t78 -26q39 0 60 16t21 45q0 18 -10.5 31t-28.5 23.5t-41.5 19t-50.5 17.5q-39 13 -80 29t-75 41t-55.5 62.5t-21.5 93.5q0 50 19.5 90t54 69t83 44.5
t106.5 15.5q47 0 94.5 -11t88 -35t70 -62.5t40.5 -94.5l-167 -38q-17 47 -43.5 68.5t-70.5 21.5q-38 0 -62.5 -15t-24.5 -42q0 -15 9.5 -25.5t26 -19t38 -15.5t46.5 -15z" />
    <glyph glyph-name="scedilla" unicode="&#x15f;" horiz-adv-x="536" 
d="M502 165q0 -43 -15 -74t-40.5 -52t-59 -32.5t-70.5 -14.5l-26 -37q14 3 26 3q44 0 69.5 -26.5t25.5 -68.5q0 -48 -34 -80.5t-89 -32.5q-63 0 -95.5 23.5t-42.5 57.5l96 24q5 -14 15.5 -21t22.5 -7q14 0 26 9.5t12 26.5q0 19 -12 28t-26 9q-23 0 -34 -18l-81 34l48 78
q-73 10 -124 43.5t-64 96.5l147 41q14 -38 37 -51t55 -13q22 0 42 6.5t20 27.5q0 13 -8.5 21.5t-22.5 15t-32 10.5t-38 8q-45 9 -80 20.5t-59 30t-36.5 44.5t-12.5 63q0 81 60 125t161 44q38 0 74 -7t67 -22.5t53.5 -41t33.5 -62.5l-155 -34q-14 30 -33 41t-46 11
q-24 0 -39 -8t-15 -23q0 -20 29 -29.5t71 -18.5q49 -11 86.5 -24t62.5 -31.5t37.5 -46t12.5 -66.5z" />
    <glyph glyph-name="Scaron" unicode="&#x160;" horiz-adv-x="617" 
d="M200 748l-96 141h146l50 -61l50 61h146l-96 -141h-200zM306 -15q-59 0 -111.5 15t-93 43.5t-67 70.5t-34.5 96l184 39q15 -61 47 -87t78 -26q39 0 60 16t21 45q0 18 -10.5 31t-28.5 23.5t-41.5 19t-50.5 17.5q-39 13 -80 29t-75 41t-55.5 62.5t-21.5 93.5q0 50 19.5 90
t54 69t83 44.5t106.5 15.5q47 0 94.5 -11t88 -35t70 -62.5t40.5 -94.5l-167 -38q-17 47 -43.5 68.5t-70.5 21.5q-38 0 -62.5 -15t-24.5 -42q0 -15 9.5 -25.5t26 -19t38 -15.5t46.5 -15q41 -12 84.5 -28t80 -42t60 -66.5t23.5 -102.5q0 -51 -20 -92.5t-56 -71.5t-87 -46
t-114 -16z" />
    <glyph glyph-name="scaron" unicode="&#x161;" horiz-adv-x="536" 
d="M164 577l-96 141h146l50 -61l50 61h146l-96 -141h-200zM281 -10q-47 0 -89.5 8.5t-76 26t-55.5 44.5t-30 65l147 41q14 -38 37 -51t55 -13q22 0 42 6.5t20 27.5q0 13 -8.5 21.5t-22.5 15t-32 10.5t-38 8q-45 9 -80 20.5t-59 30t-36.5 44.5t-12.5 63q0 81 60 125t161 44
q38 0 74 -7t67 -22.5t53.5 -41t33.5 -62.5l-155 -34q-14 30 -33 41t-46 11q-24 0 -39 -8t-15 -23q0 -20 29 -29.5t71 -18.5q49 -11 86.5 -24t62.5 -31.5t37.5 -46t12.5 -66.5q0 -48 -19 -81.5t-49.5 -54t-70.5 -30t-82 -9.5z" />
    <glyph glyph-name="uni0162" unicode="&#x162;" horiz-adv-x="525" 
d="M356 0h-48l-32 -45q14 3 26 3q44 0 69.5 -26.5t25.5 -68.5q0 -48 -34 -80.5t-89 -32.5q-63 0 -95.5 23.5t-42.5 57.5l96 24q5 -14 15.5 -21t22.5 -7q14 0 26 9.5t12 26.5q0 19 -12 28t-26 9q-23 0 -34 -18l-81 34l52 84h-37v556h-162v162h509v-162h-161v-556z" />
    <glyph glyph-name="uni0163" unicode="&#x163;" horiz-adv-x="431" 
d="M394 382h-102v-181q0 -33 15 -47t41 -14h46v-140h-100l-32 -45q14 3 26 3q44 0 69.5 -26.5t25.5 -68.5q0 -48 -34 -80.5t-89 -32.5q-63 0 -95.5 23.5t-42.5 57.5l96 24q5 -14 15.5 -21t22.5 -7q14 0 26 9.5t12 26.5q0 19 -12 28t-26 9q-23 0 -34 -18l-81 34l61 99
q-88 39 -88 159v208h-99v135h29q21 0 38 4.5t29 16.5t18.5 33.5t6.5 55.5v53h156v-163h102v-135z" />
    <glyph glyph-name="Tcaron" unicode="&#x164;" horiz-adv-x="525" 
d="M363 748h-200l-96 141h146l50 -61l50 61h146zM517 718v-162h-161v-556h-186v556h-162v162h509z" />
    <glyph glyph-name="tcaron" unicode="&#x165;" horiz-adv-x="428" 
d="M329 570l62 330h182l-118 -330h-126zM284 0q-83 0 -126.5 45t-43.5 129v208h-99v135h29q21 0 38 4.5t29 16.5t18.5 33.5t6.5 55.5v53h156v-163h102v-135h-102v-181q0 -33 15 -47t41 -14h46v-140h-110z" />
    <glyph glyph-name="Tbar" unicode="&#x166;" horiz-adv-x="525" 
d="M517 556h-161v-144h89v-106h-89v-306h-186v306h-89v106h89v144h-162v162h509v-162z" />
    <glyph glyph-name="tbar" unicode="&#x167;" horiz-adv-x="431" 
d="M395 206h-103v-5q0 -33 15 -47t41 -14h46v-140h-110q-83 0 -126.5 45t-43.5 129v32h-99v106h99v70h-99v135h29q21 0 38 4.5t29 16.5t18.5 33.5t6.5 55.5v53h156v-163h102v-135h-102v-70h103v-106z" />
    <glyph glyph-name="Utilde" unicode="&#x168;" horiz-adv-x="694" 
d="M401 748q-36 0 -55 14t-31 28q-8 9 -16 15.5t-19 6.5q-13 0 -16.5 -17.5t-3.5 -40.5h-83q0 66 29.5 109t83.5 43q35 0 54.5 -14t32.5 -28q8 -10 16 -16.5t19 -6.5q13 0 15.5 17t2.5 42h84q0 -32 -7 -59.5t-21.5 -48t-35.5 -32.5t-49 -12zM347 -15q-62 0 -116 15.5
t-93.5 49t-62.5 85.5t-23 125v458h186v-433q0 -38 8.5 -63.5t23 -40.5t34.5 -21.5t43 -6.5t43 6.5t34.5 21.5t23 40.5t8.5 63.5v433h186v-458q0 -73 -23 -125t-62.5 -85.5t-93.5 -49t-116 -15.5z" />
    <glyph glyph-name="utilde" unicode="&#x169;" horiz-adv-x="648" 
d="M255 632q-13 0 -16.5 -17.5t-3.5 -40.5h-83q0 66 29.5 109t83.5 43q35 0 54.5 -14t32.5 -28q8 -10 16 -16.5t19 -6.5q13 0 15.5 17t2.5 42h84q0 -32 -7 -59.5t-21.5 -48t-35.5 -32.5t-49 -12q-36 0 -55 14t-31 28q-8 9 -16 15.5t-19 6.5zM415 517h178v-517h-168l-7 56
q-29 -31 -71.5 -48.5t-96.5 -17.5q-102 0 -151.5 47t-49.5 132v348h178v-310q0 -43 24.5 -59.5t56.5 -16.5q20 0 39 5t34 18t24.5 35.5t9.5 57.5v270z" />
    <glyph glyph-name="Umacron" unicode="&#x16a;" horiz-adv-x="694" 
d="M181 780v111h330v-111h-330zM347 -15q-62 0 -116 15.5t-93.5 49t-62.5 85.5t-23 125v458h186v-433q0 -38 8.5 -63.5t23 -40.5t34.5 -21.5t43 -6.5t43 6.5t34.5 21.5t23 40.5t8.5 63.5v433h186v-458q0 -73 -23 -125t-62.5 -85.5t-93.5 -49t-116 -15.5z" />
    <glyph glyph-name="umacron" unicode="&#x16b;" horiz-adv-x="648" 
d="M471 702v-111h-300v111h300zM415 517h178v-517h-168l-7 56q-29 -31 -71.5 -48.5t-96.5 -17.5q-102 0 -151.5 47t-49.5 132v348h178v-310q0 -43 24.5 -59.5t56.5 -16.5q20 0 39 5t34 18t24.5 35.5t9.5 57.5v270z" />
    <glyph glyph-name="Uring" unicode="&#x16e;" horiz-adv-x="694" 
d="M346 748q-29 0 -55 9.5t-45 27t-30 42.5t-11 56t11 56t30 42.5t45 27t55 9.5t54.5 -9.5t44 -27t29.5 -42.5t11 -56t-11 -56t-29.5 -42.5t-44 -27t-54.5 -9.5zM346 827q24 0 40.5 15t16.5 41t-16.5 41t-40.5 15t-39.5 -15t-15.5 -41t15.5 -41t39.5 -15zM347 -15
q-62 0 -116 15.5t-93.5 49t-62.5 85.5t-23 125v458h186v-433q0 -38 8.5 -63.5t23 -40.5t34.5 -21.5t43 -6.5t43 6.5t34.5 21.5t23 40.5t8.5 63.5v433h186v-458q0 -73 -23 -125t-62.5 -85.5t-93.5 -49t-116 -15.5z" />
    <glyph glyph-name="uring" unicode="&#x16f;" horiz-adv-x="648" 
d="M321 565q-31 0 -55 10t-41 27.5t-26 40.5t-9 49t9 48.5t26 39.5t41 27t55 10q30 0 54 -10t40.5 -27t25.5 -39.5t9 -48.5t-9 -49t-25.5 -40.5t-40.5 -27.5t-54 -10zM321 736q-19 0 -31.5 -11.5t-12.5 -32.5q0 -20 12.5 -32t31.5 -12t32 12t13 32q0 21 -13 32.5t-32 11.5z
M415 517h178v-517h-168l-7 56q-29 -31 -71.5 -48.5t-96.5 -17.5q-102 0 -151.5 47t-49.5 132v348h178v-310q0 -43 24.5 -59.5t56.5 -16.5q20 0 39 5t34 18t24.5 35.5t9.5 57.5v270z" />
    <glyph glyph-name="Uhungarumlaut" unicode="&#x170;" horiz-adv-x="694" 
d="M158 748l96 141h178l-118 -141h-156zM378 748l96 141h178l-118 -141h-156zM347 -15q-62 0 -116 15.5t-93.5 49t-62.5 85.5t-23 125v458h186v-433q0 -38 8.5 -63.5t23 -40.5t34.5 -21.5t43 -6.5t43 6.5t34.5 21.5t23 40.5t8.5 63.5v433h186v-458q0 -73 -23 -125
t-62.5 -85.5t-93.5 -49t-116 -15.5z" />
    <glyph glyph-name="uhungarumlaut" unicode="&#x171;" horiz-adv-x="648" 
d="M407 718l-118 -141h-156l96 141h178zM509 577h-156l96 141h178zM415 517h178v-517h-168l-7 56q-29 -31 -71.5 -48.5t-96.5 -17.5q-102 0 -151.5 47t-49.5 132v348h178v-310q0 -43 24.5 -59.5t56.5 -16.5q20 0 39 5t34 18t24.5 35.5t9.5 57.5v270z" />
    <glyph glyph-name="Uogonek" unicode="&#x172;" horiz-adv-x="694" 
d="M456 718h186v-458q0 -57 -14 -101.5t-39.5 -76.5t-61 -53t-78.5 -32q-29 -25 -46.5 -49.5t-17.5 -41.5q0 -10 8 -15t19 -5t22 4.5t19 12.5v-107q-37 -16 -82 -16q-19 0 -37.5 3.5t-32 11.5t-22 21t-8.5 32q0 34 27.5 68t68.5 69h-20q-62 0 -116 15.5t-93.5 49t-62.5 85.5
t-23 125v458h186v-433q0 -38 8.5 -63.5t23 -40.5t34.5 -21.5t43 -6.5t43 6.5t34.5 21.5t23 40.5t8.5 63.5v433z" />
    <glyph glyph-name="uogonek" unicode="&#x173;" horiz-adv-x="648" 
d="M593 0q-31 -26 -49.5 -51t-18.5 -43q0 -10 8 -15t19 -5t22 4.5t19 12.5v-107q-37 -16 -82 -16q-19 0 -37.5 3.5t-32 11.5t-22 21t-8.5 32q0 37 33.5 75t79.5 77h-99l-7 56q-29 -31 -71.5 -48.5t-96.5 -17.5q-102 0 -151.5 47t-49.5 132v348h178v-310q0 -43 24.5 -59.5
t56.5 -16.5q20 0 39 5t34 18t24.5 35.5t9.5 57.5v270h178v-517z" />
    <glyph glyph-name="Wcircumflex" unicode="&#x174;" horiz-adv-x="1097" 
d="M548 809l-50 -61h-146l96 141h200l96 -141h-146zM896 718h192l-176 -718h-246l-118 374l-117 -374h-246l-176 718h192l122 -514l148 514h155l147 -514z" />
    <glyph glyph-name="wcircumflex" unicode="&#x175;" horiz-adv-x="930" 
d="M465 638l-50 -61h-146l96 141h200l96 -141h-146zM732 517h189l-179 -517h-179l-98 292l-98 -292h-179l-179 517h189l89 -298l109 298h138l109 -298z" />
    <glyph glyph-name="Ycircumflex" unicode="&#x176;" horiz-adv-x="649" 
d="M325 809l-50 -61h-146l96 141h200l96 -141h-146zM654 718l-236 -375v-343h-186v340l-238 378h204l126 -212l127 212h203z" />
    <glyph glyph-name="ycircumflex" unicode="&#x177;" horiz-adv-x="617" 
d="M314 638l-50 -61h-146l96 141h200l96 -141h-146zM416 517h194l-325 -760h-194l124 275l-209 485h194l108 -300z" />
    <glyph glyph-name="Ydieresis" unicode="&#x178;" horiz-adv-x="649" 
d="M211 750q-41 0 -69.5 28t-28.5 69q0 40 28.5 68t69.5 28q20 0 37 -7.5t30.5 -20.5t21 -30.5t7.5 -37.5t-7.5 -38t-21 -31t-30.5 -20.5t-37 -7.5zM440 750q-41 0 -69.5 28t-28.5 69q0 40 28.5 68t69.5 28q20 0 37 -7.5t30.5 -20.5t21 -30.5t7.5 -37.5t-7.5 -38t-21 -31
t-30.5 -20.5t-37 -7.5zM654 718l-236 -375v-343h-186v340l-238 378h204l126 -212l127 212h203z" />
    <glyph glyph-name="Zacute" unicode="&#x179;" horiz-adv-x="584" 
d="M504 889l-118 -141h-156l86 141h188zM252 162h299v-162h-518v145l297 411h-297v162h516v-145z" />
    <glyph glyph-name="zacute" unicode="&#x17a;" horiz-adv-x="502" 
d="M449 718l-118 -141h-156l86 141h188zM480 517l-199 -382h187v-135h-449l199 382h-180v135h442z" />
    <glyph glyph-name="Zdotaccent" unicode="&#x17b;" horiz-adv-x="584" 
d="M309 750q-41 0 -69.5 28t-28.5 69q0 40 28.5 68t69.5 28q20 0 37 -7.5t30.5 -20.5t21 -30.5t7.5 -37.5t-7.5 -38t-21 -31t-30.5 -20.5t-37 -7.5zM252 162h299v-162h-518v145l297 411h-297v162h516v-145z" />
    <glyph glyph-name="zdotaccent" unicode="&#x17c;" horiz-adv-x="502" 
d="M254 567q-41 0 -69.5 28t-28.5 69q0 40 28.5 68t69.5 28q20 0 37 -7.5t30.5 -20.5t21 -30.5t7.5 -37.5t-7.5 -38t-21 -31t-30.5 -20.5t-37 -7.5zM480 517l-199 -382h187v-135h-449l199 382h-180v135h442z" />
    <glyph glyph-name="Zcaron" unicode="&#x17d;" horiz-adv-x="584" 
d="M408 748h-200l-96 141h146l50 -61l50 61h146zM252 162h299v-162h-518v145l297 411h-297v162h516v-145z" />
    <glyph glyph-name="zcaron" unicode="&#x17e;" horiz-adv-x="502" 
d="M353 577h-200l-96 141h146l50 -61l50 61h146zM480 517l-199 -382h187v-135h-449l199 382h-180v135h442z" />
    <glyph glyph-name="florin" unicode="&#x192;" horiz-adv-x="464" 
d="M418 610q-8 0 -20.5 -0.5t-24.5 -7t-21 -21t-9 -41.5v-23h105v-135h-105v-382q0 -69 -19 -110.5t-52.5 -63.5t-80 -29t-101.5 -7h-30v140h30q8 0 20.5 0.5t24.5 7t21 21t9 41.5v382h-102v135h102v23q0 69 19 110.5t52.5 63.5t80 29t101.5 7h30v-140h-30z" />
    <glyph glyph-name="Ohorn" unicode="&#x1a0;" horiz-adv-x="804" 
d="M687 785h119v-90q0 -31 -8 -52t-21.5 -34.5t-30 -21t-33.5 -10.5q30 -45 46 -100t16 -118q0 -83 -28 -152t-77.5 -118.5t-118 -76.5t-149.5 -27t-149.5 27t-118 76.5t-77.5 118.5t-28 152t28 152t77.5 118.5t118 76.5t149.5 27q72 0 134.5 -21.5t110.5 -61.5
q23 2 31.5 14.5t8.5 50.5v70zM402 155q41 0 75 14.5t59 41.5t39 64.5t14 83.5t-14 83.5t-39 64.5t-59 41.5t-75 14.5q-40 0 -74.5 -14.5t-59.5 -41.5t-39 -64.5t-14 -83.5t14 -83.5t39 -64.5t59.5 -41.5t74.5 -14.5z" />
    <glyph glyph-name="ohorn" unicode="&#x1a1;" horiz-adv-x="650" 
d="M550 616h119v-90q0 -30 -8 -51t-20.5 -34.5t-28.5 -21t-33 -11.5q20 -30 30.5 -67t10.5 -82q0 -64 -21.5 -113.5t-60.5 -84t-93.5 -53t-119.5 -18.5t-119.5 18.5t-93.5 53t-60.5 84t-21.5 113.5q0 63 21.5 113t60.5 84t93.5 52.5t119.5 18.5q105 0 179 -46q26 0 36 12.5
t10 52.5v70zM325 130q54 0 85.5 35.5t31.5 93.5q0 57 -31.5 92.5t-85.5 35.5t-85.5 -35.5t-31.5 -92.5q0 -58 31.5 -93.5t85.5 -35.5z" />
    <glyph glyph-name="Uhorn" unicode="&#x1af;" horiz-adv-x="694" 
d="M712 817h119v-90q0 -41 -14.5 -65.5t-35.5 -37t-44.5 -16t-41.5 -3.5q-24 0 -53 9v-354q0 -73 -23 -125t-62.5 -85.5t-93.5 -49t-116 -15.5t-116 15.5t-93.5 49t-62.5 85.5t-23 125v458h186v-433q0 -38 8.5 -63.5t23 -40.5t34.5 -21.5t43 -6.5t43 6.5t34.5 21.5t23 40.5
t8.5 63.5v433h186v-33q14 -3 22 -3q28 0 38 12t10 53v70z" />
    <glyph glyph-name="uhorn" unicode="&#x1b0;" horiz-adv-x="648" 
d="M648 616h119v-90q0 -41 -14.5 -65.5t-35.5 -37t-44.5 -16t-41.5 -3.5q-15 0 -38 5v-409h-168l-7 56q-29 -31 -71.5 -48.5t-96.5 -17.5q-102 0 -151.5 47t-49.5 132v348h178v-310q0 -43 24.5 -59.5t56.5 -16.5q20 0 39 5t34 18t24.5 35.5t9.5 57.5v270h178v-36h7
q28 0 38 12t10 53v70z" />
    <glyph glyph-name="uni01CD" unicode="&#x1cd;" horiz-adv-x="759" 
d="M480 748h-200l-96 141h146l50 -61l50 61h146zM560 0l-46 133h-269l-46 -133h-198l264 718h229l264 -718h-198zM297 286h165l-82 238z" />
    <glyph glyph-name="uni01CE" unicode="&#x1ce;" horiz-adv-x="596" 
d="M400 577h-200l-96 141h146l50 -61l50 61h146zM541 91q0 -22 2 -40.5t10 -35.5v-15h-176l-7 53q-13 -17 -32.5 -29t-41.5 -19.5t-45.5 -11t-45.5 -3.5q-30 0 -60.5 7t-55.5 23.5t-41 43.5t-16 68q0 46 19 75.5t48.5 48.5t64 30t64.5 18l83 21q21 5 36.5 12.5t15.5 27.5
q0 11 -6.5 18.5t-16.5 11.5t-22.5 5.5t-23.5 1.5q-35 0 -59 -16t-32 -48l-170 26q18 85 89.5 124t174.5 39q120 0 182 -48.5t62 -142.5v-245zM259 111q18 0 38 7.5t37 23t28 39t11 54.5l-117 -35q-6 -2 -14 -5t-15 -8t-12 -13.5t-5 -21.5q0 -21 14.5 -31t34.5 -10z" />
    <glyph glyph-name="uni01CF" unicode="&#x1cf;" horiz-adv-x="306" 
d="M52 748l-96 141h146l50 -61l50 61h146l-96 -141h-200zM60 0v718h186v-718h-186z" />
    <glyph glyph-name="uni01D0" unicode="&#x1d0;" horiz-adv-x="284" 
d="M42 577l-96 141h146l50 -61l50 61h146l-96 -141h-200zM53 0v517h178v-517h-178z" />
    <glyph glyph-name="uni01D1" unicode="&#x1d1;" horiz-adv-x="804" 
d="M302 748l-96 141h146l50 -61l50 61h146l-96 -141h-200zM402 -15q-81 0 -149.5 27t-118 76.5t-77.5 118.5t-28 152t28 152t77.5 118.5t118 76.5t149.5 27t149.5 -27t118 -76.5t77.5 -118.5t28 -152t-28 -152t-77.5 -118.5t-118 -76.5t-149.5 -27zM402 155q41 0 75 14.5
t59 41.5t39 64.5t14 83.5t-14 83.5t-39 64.5t-59 41.5t-75 14.5q-40 0 -74.5 -14.5t-59.5 -41.5t-39 -64.5t-14 -83.5t14 -83.5t39 -64.5t59.5 -41.5t74.5 -14.5z" />
    <glyph glyph-name="uni01D2" unicode="&#x1d2;" horiz-adv-x="650" 
d="M227 577l-96 141h146l50 -61l50 61h146l-96 -141h-200zM325 -10q-65 0 -119.5 18.5t-93.5 53t-60.5 84t-21.5 113.5q0 63 21.5 113t60.5 84t93.5 52.5t119.5 18.5t119.5 -18.5t93.5 -52.5t60.5 -84t21.5 -113q0 -64 -21.5 -113.5t-60.5 -84t-93.5 -53t-119.5 -18.5z
M325 130q54 0 85.5 35.5t31.5 93.5q0 57 -31.5 92.5t-85.5 35.5t-85.5 -35.5t-31.5 -92.5q0 -58 31.5 -93.5t85.5 -35.5z" />
    <glyph glyph-name="uni01D3" unicode="&#x1d3;" horiz-adv-x="694" 
d="M246 748l-96 141h146l50 -61l50 61h146l-96 -141h-200zM347 -15q-62 0 -116 15.5t-93.5 49t-62.5 85.5t-23 125v458h186v-433q0 -38 8.5 -63.5t23 -40.5t34.5 -21.5t43 -6.5t43 6.5t34.5 21.5t23 40.5t8.5 63.5v433h186v-458q0 -73 -23 -125t-62.5 -85.5t-93.5 -49
t-116 -15.5z" />
    <glyph glyph-name="uni01D4" unicode="&#x1d4;" horiz-adv-x="648" 
d="M421 577h-200l-96 141h146l50 -61l50 61h146zM415 517h178v-517h-168l-7 56q-29 -31 -71.5 -48.5t-96.5 -17.5q-102 0 -151.5 47t-49.5 132v348h178v-310q0 -43 24.5 -59.5t56.5 -16.5q20 0 39 5t34 18t24.5 35.5t9.5 57.5v270z" />
    <glyph glyph-name="uni01D5" unicode="&#x1d5;" horiz-adv-x="694" 
d="M181 1005v111h330v-111h-330zM232 750q-41 0 -69.5 28t-28.5 69q0 40 28.5 68t69.5 28q20 0 37 -7.5t30.5 -20.5t21 -30.5t7.5 -37.5t-7.5 -38t-21 -31t-30.5 -20.5t-37 -7.5zM461 750q-41 0 -69.5 28t-28.5 69q0 40 28.5 68t69.5 28q20 0 37 -7.5t30.5 -20.5t21 -30.5
t7.5 -37.5t-7.5 -38t-21 -31t-30.5 -20.5t-37 -7.5zM347 -15q-62 0 -116 15.5t-93.5 49t-62.5 85.5t-23 125v458h186v-433q0 -38 8.5 -63.5t23 -40.5t34.5 -21.5t43 -6.5t43 6.5t34.5 21.5t23 40.5t8.5 63.5v433h186v-458q0 -73 -23 -125t-62.5 -85.5t-93.5 -49t-116 -15.5z
" />
    <glyph glyph-name="uni01D6" unicode="&#x1d6;" horiz-adv-x="648" 
d="M471 935v-111h-300v111h300zM207 567q-41 0 -69.5 28t-28.5 69q0 40 28.5 68t69.5 28q20 0 37 -7.5t30.5 -20.5t21 -30.5t7.5 -37.5t-7.5 -38t-21 -31t-30.5 -20.5t-37 -7.5zM338 664q0 40 28.5 68t69.5 28q20 0 37 -7.5t30.5 -20.5t21 -30.5t7.5 -37.5t-7.5 -38t-21 -31
t-30.5 -20.5t-37 -7.5q-41 0 -69.5 28t-28.5 69zM415 517h178v-517h-168l-7 56q-29 -31 -71.5 -48.5t-96.5 -17.5q-102 0 -151.5 47t-49.5 132v348h178v-310q0 -43 24.5 -59.5t56.5 -16.5q20 0 39 5t34 18t24.5 35.5t9.5 57.5v270z" />
    <glyph glyph-name="uni01D7" unicode="&#x1d7;" horiz-adv-x="694" 
d="M268 973l86 141h188l-118 -141h-156zM232 750q-41 0 -69.5 28t-28.5 69q0 40 28.5 68t69.5 28q20 0 37 -7.5t30.5 -20.5t21 -30.5t7.5 -37.5t-7.5 -38t-21 -31t-30.5 -20.5t-37 -7.5zM461 750q-41 0 -69.5 28t-28.5 69q0 40 28.5 68t69.5 28q20 0 37 -7.5t30.5 -20.5
t21 -30.5t7.5 -37.5t-7.5 -38t-21 -31t-30.5 -20.5t-37 -7.5zM347 -15q-62 0 -116 15.5t-93.5 49t-62.5 85.5t-23 125v458h186v-433q0 -38 8.5 -63.5t23 -40.5t34.5 -21.5t43 -6.5t43 6.5t34.5 21.5t23 40.5t8.5 63.5v433h186v-458q0 -73 -23 -125t-62.5 -85.5t-93.5 -49
t-116 -15.5z" />
    <glyph glyph-name="uni01D8" unicode="&#x1d8;" horiz-adv-x="648" 
d="M517 951l-118 -141h-156l86 141h188zM207 567q-41 0 -69.5 28t-28.5 69q0 40 28.5 68t69.5 28q20 0 37 -7.5t30.5 -20.5t21 -30.5t7.5 -37.5t-7.5 -38t-21 -31t-30.5 -20.5t-37 -7.5zM436 760q20 0 37 -7.5t30.5 -20.5t21 -30.5t7.5 -37.5t-7.5 -38t-21 -31t-30.5 -20.5
t-37 -7.5q-41 0 -69.5 28t-28.5 69q0 40 28.5 68t69.5 28zM415 517h178v-517h-168l-7 56q-29 -31 -71.5 -48.5t-96.5 -17.5q-102 0 -151.5 47t-49.5 132v348h178v-310q0 -43 24.5 -59.5t56.5 -16.5q20 0 39 5t34 18t24.5 35.5t9.5 57.5v270z" />
    <glyph glyph-name="uni01D9" unicode="&#x1d9;" horiz-adv-x="694" 
d="M246 973l-96 141h146l50 -61l50 61h146l-96 -141h-200zM232 750q-41 0 -69.5 28t-28.5 69q0 40 28.5 68t69.5 28q20 0 37 -7.5t30.5 -20.5t21 -30.5t7.5 -37.5t-7.5 -38t-21 -31t-30.5 -20.5t-37 -7.5zM461 750q-41 0 -69.5 28t-28.5 69q0 40 28.5 68t69.5 28
q20 0 37 -7.5t30.5 -20.5t21 -30.5t7.5 -37.5t-7.5 -38t-21 -31t-30.5 -20.5t-37 -7.5zM347 -15q-62 0 -116 15.5t-93.5 49t-62.5 85.5t-23 125v458h186v-433q0 -38 8.5 -63.5t23 -40.5t34.5 -21.5t43 -6.5t43 6.5t34.5 21.5t23 40.5t8.5 63.5v433h186v-458q0 -73 -23 -125
t-62.5 -85.5t-93.5 -49t-116 -15.5z" />
    <glyph glyph-name="uni01DA" unicode="&#x1da;" horiz-adv-x="648" 
d="M421 810h-200l-96 141h146l50 -61l50 61h146zM207 567q-41 0 -69.5 28t-28.5 69q0 40 28.5 68t69.5 28q20 0 37 -7.5t30.5 -20.5t21 -30.5t7.5 -37.5t-7.5 -38t-21 -31t-30.5 -20.5t-37 -7.5zM436 760q20 0 37 -7.5t30.5 -20.5t21 -30.5t7.5 -37.5t-7.5 -38t-21 -31
t-30.5 -20.5t-37 -7.5q-41 0 -69.5 28t-28.5 69q0 40 28.5 68t69.5 28zM415 517h178v-517h-168l-7 56q-29 -31 -71.5 -48.5t-96.5 -17.5q-102 0 -151.5 47t-49.5 132v348h178v-310q0 -43 24.5 -59.5t56.5 -16.5q20 0 39 5t34 18t24.5 35.5t9.5 57.5v270z" />
    <glyph glyph-name="uni01DB" unicode="&#x1db;" horiz-adv-x="694" 
d="M268 973l-118 141h188l86 -141h-156zM232 750q-41 0 -69.5 28t-28.5 69q0 40 28.5 68t69.5 28q20 0 37 -7.5t30.5 -20.5t21 -30.5t7.5 -37.5t-7.5 -38t-21 -31t-30.5 -20.5t-37 -7.5zM461 750q-41 0 -69.5 28t-28.5 69q0 40 28.5 68t69.5 28q20 0 37 -7.5t30.5 -20.5
t21 -30.5t7.5 -37.5t-7.5 -38t-21 -31t-30.5 -20.5t-37 -7.5zM347 -15q-62 0 -116 15.5t-93.5 49t-62.5 85.5t-23 125v458h186v-433q0 -38 8.5 -63.5t23 -40.5t34.5 -21.5t43 -6.5t43 6.5t34.5 21.5t23 40.5t8.5 63.5v433h186v-458q0 -73 -23 -125t-62.5 -85.5t-93.5 -49
t-116 -15.5z" />
    <glyph glyph-name="uni01DC" unicode="&#x1dc;" horiz-adv-x="648" 
d="M399 810h-156l-118 141h188zM207 567q-41 0 -69.5 28t-28.5 69q0 40 28.5 68t69.5 28q20 0 37 -7.5t30.5 -20.5t21 -30.5t7.5 -37.5t-7.5 -38t-21 -31t-30.5 -20.5t-37 -7.5zM338 664q0 40 28.5 68t69.5 28q20 0 37 -7.5t30.5 -20.5t21 -30.5t7.5 -37.5t-7.5 -38t-21 -31
t-30.5 -20.5t-37 -7.5q-41 0 -69.5 28t-28.5 69zM415 517h178v-517h-168l-7 56q-29 -31 -71.5 -48.5t-96.5 -17.5q-102 0 -151.5 47t-49.5 132v348h178v-310q0 -43 24.5 -59.5t56.5 -16.5q20 0 39 5t34 18t24.5 35.5t9.5 57.5v270z" />
    <glyph glyph-name="Gcaron" unicode="&#x1e6;" horiz-adv-x="794" 
d="M302 748l-96 141h146l50 -61l50 61h146l-96 -141h-200zM391 -15q-79 0 -145.5 27t-114.5 76.5t-75 118.5t-27 152t28 152t77.5 118.5t118 76.5t149.5 27q108 0 191.5 -46.5t130.5 -128.5l-162 -87q-24 44 -65.5 68t-94.5 24q-40 0 -74.5 -14.5t-59.5 -41.5t-39 -64.5
t-14 -83.5q0 -45 13 -82.5t37 -64.5t58.5 -42t78.5 -15q25 0 50 5.5t47.5 18t40.5 32t29 47.5h-159v147h341v-405h-144v77q-34 -40 -86.5 -66t-129.5 -26z" />
    <glyph glyph-name="gcaron" unicode="&#x1e7;" horiz-adv-x="640" 
d="M430 577h-200l-96 141h146l50 -61l50 61h146zM418 517h168v-498q0 -74 -19.5 -125t-55.5 -83t-87.5 -46.5t-115.5 -14.5q-60 0 -105.5 11.5t-79 33t-55.5 51.5t-36 66l148 60q22 -45 49 -65.5t72 -20.5q61 0 84 33t23 86v69q-22 -24 -59.5 -39t-83.5 -15q-48 0 -90.5 18
t-74.5 51t-51 80t-19 106t19 105.5t51 79t75.5 50t91.5 17.5q50 0 87.5 -17t57.5 -44zM310 162q48 0 78.5 32t30.5 81t-30.5 81t-78.5 32t-78.5 -32t-30.5 -81t31 -81t78 -32z" />
    <glyph glyph-name="uni01EA" unicode="&#x1ea;" horiz-adv-x="804" 
d="M509 -2q-30 -25 -48 -49.5t-18 -42.5q0 -10 8 -15t19 -5t22 4.5t19 12.5v-107q-37 -16 -82 -16q-19 0 -37.5 3.5t-32 11.5t-22 21t-8.5 32q0 34 28 68t68 70q-5 -1 -11 -1h-12q-81 0 -149.5 27t-118 76.5t-77.5 118.5t-28 152t28 152t77.5 118.5t118 76.5t149.5 27
t149.5 -27t118 -76.5t77.5 -118.5t28 -152q0 -69 -19 -128t-54 -105.5t-84 -79t-109 -48.5zM215 359q0 -46 14 -83.5t39 -64.5t59.5 -41.5t74.5 -14.5q41 0 75 14.5t59 41.5t39 64.5t14 83.5t-14 83.5t-39 64.5t-59 41.5t-75 14.5q-40 0 -74.5 -14.5t-59.5 -41.5t-39 -64.5
t-14 -83.5z" />
    <glyph glyph-name="uni01EB" unicode="&#x1eb;" horiz-adv-x="650" 
d="M414 0q-31 -26 -49.5 -51t-18.5 -43q0 -10 8 -15t19 -5t22 4.5t19 12.5v-107q-37 -16 -82 -16q-19 0 -37.5 3.5t-32 11.5t-22 21t-8.5 32q0 35 29.5 70t71.5 72h-8q-65 0 -119.5 18.5t-93.5 53t-60.5 84t-21.5 113.5q0 63 21.5 113t60.5 84t93.5 52.5t119.5 18.5
t119.5 -18.5t93.5 -52.5t60.5 -84t21.5 -113q0 -105 -56 -171t-150 -88zM208 259q0 -58 31.5 -93.5t85.5 -35.5t85.5 35.5t31.5 93.5q0 57 -31.5 92.5t-85.5 35.5t-85.5 -35.5t-31.5 -92.5z" />
    <glyph glyph-name="Aringacute" unicode="&#x1fa;" horiz-adv-x="759" 
d="M380 748q-29 0 -55 9.5t-45 27t-30 42.5t-11 56q0 30 10.5 54.5t29 42t43 27.5t52.5 11l44 72h188l-109 -130q22 -33 22 -77q0 -31 -11 -56t-29.5 -42.5t-44 -27t-54.5 -9.5zM380 939q-24 0 -39.5 -15t-15.5 -41t15.5 -41t39.5 -15t40.5 15t16.5 41t-16.5 41t-40.5 15z
M560 0l-46 133h-269l-46 -133h-198l264 718h229l264 -718h-198zM297 286h165l-82 238z" />
    <glyph glyph-name="aringacute" unicode="&#x1fb;" horiz-adv-x="596" 
d="M300 565q-31 0 -55 10t-41 27.5t-26 40.5t-9 49t9 48.5t26 39.5t41 27t55 10h3l42 69h188l-116 -138q12 -25 12 -56q0 -26 -9 -49t-25.5 -40.5t-40.5 -27.5t-54 -10zM300 736q-19 0 -31.5 -11.5t-12.5 -32.5q0 -20 12.5 -32t31.5 -12t32 12t13 32q0 21 -13 32.5t-32 11.5
zM541 91q0 -22 2 -40.5t10 -35.5v-15h-176l-7 53q-13 -17 -32.5 -29t-41.5 -19.5t-45.5 -11t-45.5 -3.5q-30 0 -60.5 7t-55.5 23.5t-41 43.5t-16 68q0 46 19 75.5t48.5 48.5t64 30t64.5 18l83 21q21 5 36.5 12.5t15.5 27.5q0 11 -6.5 18.5t-16.5 11.5t-22.5 5.5t-23.5 1.5
q-35 0 -59 -16t-32 -48l-170 26q18 85 89.5 124t174.5 39q120 0 182 -48.5t62 -142.5v-245zM259 111q18 0 38 7.5t37 23t28 39t11 54.5l-117 -35q-6 -2 -14 -5t-15 -8t-12 -13.5t-5 -21.5q0 -21 14.5 -31t34.5 -10z" />
    <glyph glyph-name="AEacute" unicode="&#x1fc;" horiz-adv-x="939" 
d="M392 748l86 141h188l-118 -141h-156zM1 0l264 718h628v-163h-260v-115h223v-162h-223v-115h260v-163h-446v133h-202l-46 -133h-198zM297 286h150v269h-57z" />
    <glyph glyph-name="aeacute" unicode="&#x1fd;" horiz-adv-x="924" 
d="M658 718l-118 -141h-156l86 141h188zM888 223h-370q6 -48 37 -71.5t74 -23.5q33 0 56.5 13t34.5 42l164 -21q-24 -84 -92 -128t-162 -44q-69 0 -123 19t-92 55q-43 -35 -96 -54.5t-114 -19.5q-34 0 -65.5 7.5t-55 24t-37.5 43t-14 65.5q0 45 18 74t47 47.5t65.5 29.5
t72.5 19l66 15q30 7 41 17.5t11 27.5q0 15 -7 24t-17.5 14.5t-23.5 7.5t-25 2q-35 0 -59 -17t-29 -63l-158 24q17 92 79 133t180 41q44 0 87 -8t75 -34q71 43 168 43q57 0 105.5 -15t84 -47t56 -81.5t20.5 -119.5zM625 397q-41 0 -66 -16t-36 -51h192q-8 32 -32 49.5
t-58 17.5zM256 126q26 0 54 12t43 35q-6 21 -9 45l-82 -22q-26 -7 -40.5 -16t-14.5 -23q0 -15 14 -23t35 -8z" />
    <glyph glyph-name="Oslashacute" unicode="&#x1fe;" horiz-adv-x="804" 
d="M598 889l-118 -141h-156l86 141h188zM650 648q59 -50 92 -123.5t33 -165.5q0 -83 -28 -152t-77.5 -118.5t-118 -76.5t-149.5 -27q-103 0 -184 43l-55 -79l-66 39l57 82q-59 50 -92 123.5t-33 165.5q0 83 28 152t77.5 118.5t118 76.5t149.5 27q103 0 184 -43l55 79l66 -39
zM215 359q0 -42 11.5 -77t32.5 -61l226 324q-37 18 -83 18q-40 0 -74.5 -14.5t-59.5 -41.5t-39 -64.5t-14 -83.5zM402 155q41 0 75 14.5t59 41.5t39 64.5t14 83.5q0 42 -11.5 77t-32.5 61l-226 -324q38 -18 83 -18z" />
    <glyph glyph-name="oslashacute" unicode="&#x1ff;" horiz-adv-x="650" 
d="M523 718l-118 -141h-156l86 141h188zM520 470q48 -35 74 -87.5t26 -123.5q0 -64 -21.5 -113.5t-60.5 -84t-93.5 -53t-119.5 -18.5q-68 0 -125 20l-37 -53l-66 39l35 50q-48 34 -75 87.5t-27 125.5q0 63 21.5 113t60.5 84t93.5 52.5t119.5 18.5q70 0 127 -21l37 53l66 -39
zM208 259q0 -44 19 -76l138 198q-18 6 -40 6q-54 0 -85.5 -35.5t-31.5 -92.5zM325 130q54 0 85.5 35.5t31.5 93.5q0 43 -18 73l-137 -197q9 -2 18 -3.5t20 -1.5z" />
    <glyph glyph-name="uni0218" unicode="&#x218;" horiz-adv-x="617" 
d="M306 -15q-59 0 -111.5 15t-93 43.5t-67 70.5t-34.5 96l184 39q15 -61 47 -87t78 -26q39 0 60 16t21 45q0 18 -10.5 31t-28.5 23.5t-41.5 19t-50.5 17.5q-39 13 -80 29t-75 41t-55.5 62.5t-21.5 93.5q0 50 19.5 90t54 69t83 44.5t106.5 15.5q47 0 94.5 -11t88 -35
t70 -62.5t40.5 -94.5l-167 -38q-17 47 -43.5 68.5t-70.5 21.5q-38 0 -62.5 -15t-24.5 -42q0 -15 9.5 -25.5t26 -19t38 -15.5t46.5 -15q41 -12 84.5 -28t80 -42t60 -66.5t23.5 -102.5q0 -51 -20 -92.5t-56 -71.5t-87 -46t-114 -16zM130 -171l96 141h148l-118 -141h-126z" />
    <glyph glyph-name="uni0219" unicode="&#x219;" horiz-adv-x="536" 
d="M281 -10q-47 0 -89.5 8.5t-76 26t-55.5 44.5t-30 65l147 41q14 -38 37 -51t55 -13q22 0 42 6.5t20 27.5q0 13 -8.5 21.5t-22.5 15t-32 10.5t-38 8q-45 9 -80 20.5t-59 30t-36.5 44.5t-12.5 63q0 81 60 125t161 44q38 0 74 -7t67 -22.5t53.5 -41t33.5 -62.5l-155 -34
q-14 30 -33 41t-46 11q-24 0 -39 -8t-15 -23q0 -20 29 -29.5t71 -18.5q49 -11 86.5 -24t62.5 -31.5t37.5 -46t12.5 -66.5q0 -48 -19 -81.5t-49.5 -54t-70.5 -30t-82 -9.5zM108 -171l96 141h148l-118 -141h-126z" />
    <glyph glyph-name="uni021A" unicode="&#x21a;" horiz-adv-x="525" 
d="M517 718v-162h-161v-556h-186v556h-162v162h509zM93 -171l96 141h148l-118 -141h-126z" />
    <glyph glyph-name="uni021B" unicode="&#x21b;" horiz-adv-x="431" 
d="M284 0q-83 0 -126.5 45t-43.5 129v208h-99v135h29q21 0 38 4.5t29 16.5t18.5 33.5t6.5 55.5v53h156v-163h102v-135h-102v-181q0 -33 15 -47t41 -14h46v-140h-110zM79 -171l96 141h148l-118 -141h-126z" />
    <glyph glyph-name="uni0232" unicode="&#x232;" horiz-adv-x="649" 
d="M490 891v-111h-330v111h330zM654 718l-236 -375v-343h-186v340l-238 378h204l126 -212l127 212h203z" />
    <glyph glyph-name="uni0233" unicode="&#x233;" horiz-adv-x="617" 
d="M464 702v-111h-300v111h300zM416 517h194l-325 -760h-194l124 275l-209 485h194l108 -300z" />
    <glyph glyph-name="uni0237" unicode="&#x237;" horiz-adv-x="283" 
d="M-50 -107q32 0 51.5 8t30.5 24t14.5 40.5t3.5 58.5v493h178v-493q0 -131 -64.5 -199t-213.5 -68v136z" />
    <glyph glyph-name="uni0272" unicode="&#x272;" horiz-adv-x="643" 
d="M392 527q102 0 151.5 -47t49.5 -132v-348h-178v310q0 43 -24.5 60t-56.5 17q-18 0 -36 -4.5t-32.5 -15.5t-24.5 -30t-13 -48v-265q0 -131 -64.5 -199t-213.5 -68v136q32 0 51.5 8t30.5 24t14.5 40.5t3.5 58.5v493h168l7 -55q29 31 71 48t96 17z" />
    <glyph glyph-name="circumflex" unicode="&#x2c6;" horiz-adv-x="512" 
d="M60 577l96 141h200l96 -141h-146l-50 61l-50 -61h-146z" />
    <glyph glyph-name="caron" unicode="&#x2c7;" horiz-adv-x="512" 
d="M156 577l-96 141h146l50 -61l50 61h146l-96 -141h-200z" />
    <glyph glyph-name="breve" unicode="&#x2d8;" horiz-adv-x="493" 
d="M246 567q-42 0 -76 7.5t-58.5 25t-38 46.5t-13.5 72h125q0 -29 14.5 -45t46.5 -16q33 0 47.5 16t14.5 45h125q0 -43 -13.5 -72t-38 -46.5t-59 -25t-76.5 -7.5z" />
    <glyph glyph-name="dotaccent" unicode="&#x2d9;" horiz-adv-x="314" 
d="M158 567q-41 0 -69.5 28t-28.5 69q0 40 28.5 68t69.5 28q20 0 37 -7.5t30.5 -20.5t21 -30.5t7.5 -37.5t-7.5 -38t-21 -31t-30.5 -20.5t-37 -7.5z" />
    <glyph glyph-name="ring" unicode="&#x2da;" horiz-adv-x="380" 
d="M191 565q-31 0 -55 10t-41 27.5t-26 40.5t-9 49t9 48.5t26 39.5t41 27t55 10q30 0 54 -10t40.5 -27t25.5 -39.5t9 -48.5t-9 -49t-25.5 -40.5t-40.5 -27.5t-54 -10zM191 648q19 0 32 12t13 32q0 21 -13 32.5t-32 11.5t-31.5 -11.5t-12.5 -32.5q0 -20 12.5 -32t31.5 -12z
" />
    <glyph glyph-name="ogonek" unicode="&#x2db;" horiz-adv-x="302" 
d="M160 -220q-19 0 -37.5 3.5t-32 11.5t-22 21t-8.5 32q0 21 11 41.5t29.5 42t43 43t50.5 43.5l48 -18q-31 -26 -49.5 -51t-18.5 -43q0 -10 8 -15t19 -5t22 4.5t19 12.5v-107q-37 -16 -82 -16z" />
    <glyph glyph-name="tilde" unicode="&#x2dc;" horiz-adv-x="457" 
d="M284 568q-36 0 -55 14t-31 28q-8 9 -16 15.5t-19 6.5q-13 0 -16.5 -17.5t-3.5 -40.5h-83q0 66 29.5 109t83.5 43q35 0 54.5 -14t32.5 -28q8 -10 16 -16.5t19 -6.5q13 0 15.5 17t2.5 42h84q0 -32 -7 -59.5t-21.5 -48t-35.5 -32.5t-49 -12z" />
    <glyph glyph-name="hungarumlaut" unicode="&#x2dd;" horiz-adv-x="614" 
d="M60 577l96 141h178l-118 -141h-156zM280 577l96 141h178l-118 -141h-156z" />
    <glyph glyph-name="gravecomb" unicode="&#x300;" 
d="M-216 577l-118 141h188l86 -141h-156z" />
    <glyph glyph-name="acutecomb" unicode="&#x301;" 
d="M-334 577l86 141h188l-118 -141h-156z" />
    <glyph glyph-name="uni0302" unicode="&#x302;" 
d="M-452 577l96 141h200l96 -141h-146l-50 61l-50 -61h-146z" />
    <glyph glyph-name="tildecomb" unicode="&#x303;" 
d="M-173 568q-36 0 -55 14t-31 28q-8 9 -16 15.5t-19 6.5q-13 0 -16.5 -17.5t-3.5 -40.5h-83q0 66 29.5 109t83.5 43q35 0 54.5 -14t32.5 -28q8 -10 16 -16.5t19 -6.5q13 0 15.5 17t2.5 42h84q0 -32 -7 -59.5t-21.5 -48t-35.5 -32.5t-49 -12z" />
    <glyph glyph-name="uni0304" unicode="&#x304;" 
d="M-360 591v111h300v-111h-300z" />
    <glyph glyph-name="uni0306" unicode="&#x306;" 
d="M-247 567q-42 0 -76 7.5t-58.5 25t-38 46.5t-13.5 72h125q0 -29 14.5 -45t46.5 -16q33 0 47.5 16t14.5 45h125q0 -43 -13.5 -72t-38 -46.5t-59 -25t-76.5 -7.5z" />
    <glyph glyph-name="uni0307" unicode="&#x307;" 
d="M-156 567q-41 0 -69.5 28t-28.5 69q0 40 28.5 68t69.5 28q19 0 36.5 -7.5t31 -20.5t21 -30.5t7.5 -37.5t-7.5 -38t-21 -31t-31 -20.5t-36.5 -7.5z" />
    <glyph glyph-name="uni0308" unicode="&#x308;" 
d="M-385 567q-41 0 -69.5 28t-28.5 69q0 40 28.5 68t69.5 28q19 0 36.5 -7.5t31 -20.5t21 -30.5t7.5 -37.5t-7.5 -38t-21 -31t-31 -20.5t-36.5 -7.5zM-156 567q-41 0 -69.5 28t-28.5 69q0 40 28.5 68t69.5 28q19 0 36.5 -7.5t31 -20.5t21 -30.5t7.5 -37.5t-7.5 -38t-21 -31
t-31 -20.5t-36.5 -7.5z" />
    <glyph glyph-name="hookabovecomb" unicode="&#x309;" 
d="M-266 552v61q44 5 61 15t17 25q0 26 -37 26q-12 0 -27.5 -4t-35.5 -14l-44 68q31 14 62.5 22.5t69.5 8.5q72 0 106 -24t34 -64q0 -19 -7 -32.5t-18.5 -22t-26 -14t-29.5 -8.5v-43h-125z" />
    <glyph glyph-name="uni030A" unicode="&#x30a;" 
d="M-189 565q-31 0 -55 10t-41 27.5t-26 40.5t-9 49t9 48.5t26 39.5t41 27t55 10q30 0 54 -10t40.5 -27t25.5 -39.5t9 -48.5t-9 -49t-25.5 -40.5t-40.5 -27.5t-54 -10zM-189 648q19 0 32 12t13 32q0 21 -13 32.5t-32 11.5t-31.5 -11.5t-12.5 -32.5q0 -20 12.5 -32t31.5 -12z
" />
    <glyph glyph-name="uni030B" unicode="&#x30b;" 
d="M-554 577l96 141h178l-118 -141h-156zM-334 577l96 141h178l-118 -141h-156z" />
    <glyph glyph-name="uni030C" unicode="&#x30c;" 
d="M-356 577l-96 141h146l50 -61l50 61h146l-96 -141h-200z" />
    <glyph glyph-name="uni0312" unicode="&#x312;" 
d="M-304 577l118 141h126l-96 -141h-148z" />
    <glyph glyph-name="uni031B" unicode="&#x31b;" 
d="M-196 357q-22 0 -50 8t-54 25l26 58q15 -8 27 -11t20 -3q28 0 38 12t10 53v70h119v-90q0 -41 -14.5 -65.5t-35.5 -37t-44.5 -16t-41.5 -3.5z" />
    <glyph glyph-name="dotbelowcomb" unicode="&#x323;" 
d="M-156 -250q-41 0 -69.5 28t-28.5 69q0 40 28.5 68t69.5 28q19 0 36.5 -7.5t31 -20.5t21 -30.5t7.5 -37.5t-7.5 -38t-21 -31t-31 -20.5t-36.5 -7.5z" />
    <glyph glyph-name="uni0326" unicode="&#x326;" 
d="M-304 -171l96 141h148l-118 -141h-126z" />
    <glyph glyph-name="uni0327" unicode="&#x327;" 
d="M-155 -42q44 0 69.5 -26.5t25.5 -68.5q0 -48 -34 -80.5t-89 -32.5q-63 0 -95.5 23.5t-42.5 57.5l96 24q5 -14 15.5 -21t22.5 -7q14 0 26 9.5t12 26.5q0 19 -12 28t-26 9q-24 0 -34 -18l-81 34l81 131l83 -31l-43 -61q13 3 26 3z" />
    <glyph glyph-name="uni0328" unicode="&#x328;" 
d="M-142 -220q-20 0 -38 3.5t-31.5 11.5t-22 21t-8.5 32q0 21 11 41.5t29.5 42t43 43t50.5 43.5l48 -18q-31 -26 -49.5 -51t-18.5 -43q0 -10 8 -15t19 -5t22 4.5t19 12.5v-107q-37 -16 -82 -16z" />
    <glyph glyph-name="uni0335" unicode="&#x335;" 
d="M-424 194v106h364v-106h-364z" />
    <glyph glyph-name="uni0336" unicode="&#x336;" 
d="M-817 227v66h757v-66h-757z" />
    <glyph glyph-name="uni0337" unicode="&#x337;" 
d="M-401 112v146l341 252v-147z" />
    <glyph glyph-name="uni0338" unicode="&#x338;" 
d="M-452 61l-66 39l392 563l66 -39z" />
    <glyph glyph-name="uni0394" unicode="&#x394;" horiz-adv-x="839" 
d="M515 750l301 -750h-793l301 750h191zM420 558l-149 -391h298z" />
    <glyph glyph-name="uni03A9" unicode="&#x3a9;" horiz-adv-x="856" 
d="M46 0v153h98v2q-13 18 -27.5 43t-26.5 56t-20 66.5t-8 72.5q0 62 25.5 122t73 107.5t115.5 76.5t152 29q83 0 150.5 -28.5t115.5 -76t74 -108t26 -124.5q0 -37 -8 -71.5t-20 -65.5t-26.5 -56t-27.5 -43v-2h98v-153h-345v115q26 24 49.5 48.5t40.5 52.5t27 61t10 75
q0 46 -12.5 83t-34.5 63t-52 40t-65 14t-65 -14t-52 -40t-34.5 -63t-12.5 -83q0 -42 10 -75t27.5 -61t40.5 -52.5t49 -48.5v-115h-345z" />
    <glyph glyph-name="uni03BC" unicode="&#x3bc;" horiz-adv-x="647" 
d="M414 517h178v-517h-168l-7 56q-29 -31 -71.5 -48.5t-96.5 -17.5h-11.5t-10.5 1v-234h-178v760h178v-310q0 -43 24 -59.5t56 -16.5q20 0 39 5t34 18t24.5 35.5t9.5 57.5v270z" />
    <glyph glyph-name="pi" unicode="&#x3c0;" horiz-adv-x="669" 
d="M71 0q11 38 21.5 92.5t18 111t12 107t4.5 80.5l-94 -5l-17 131h634v-126h-79v-248q0 -48 3.5 -84.5t8.5 -58.5h-161q-11 14 -14.5 51.5t-3.5 84.5v255h-113q-1 -35 -5.5 -88.5t-12 -110.5t-18 -109t-22.5 -83h-162z" />
    <glyph glyph-name="Wgrave" unicode="&#x1e80;" horiz-adv-x="1097" 
d="M626 748h-156l-118 141h188zM896 718h192l-176 -718h-246l-118 374l-117 -374h-246l-176 718h192l122 -514l148 514h155l147 -514z" />
    <glyph glyph-name="wgrave" unicode="&#x1e81;" horiz-adv-x="930" 
d="M543 577h-156l-118 141h188zM732 517h189l-179 -517h-179l-98 292l-98 -292h-179l-179 517h189l89 -298l109 298h138l109 -298z" />
    <glyph glyph-name="Wacute" unicode="&#x1e82;" horiz-adv-x="1097" 
d="M744 889l-118 -141h-156l86 141h188zM896 718h192l-176 -718h-246l-118 374l-117 -374h-246l-176 718h192l122 -514l148 514h155l147 -514z" />
    <glyph glyph-name="wacute" unicode="&#x1e83;" horiz-adv-x="930" 
d="M661 718l-118 -141h-156l86 141h188zM732 517h189l-179 -517h-179l-98 292l-98 -292h-179l-179 517h189l89 -298l109 298h138l109 -298z" />
    <glyph glyph-name="Wdieresis" unicode="&#x1e84;" horiz-adv-x="1097" 
d="M434 750q-41 0 -69.5 28t-28.5 69q0 40 28.5 68t69.5 28q20 0 37 -7.5t30.5 -20.5t21 -30.5t7.5 -37.5t-7.5 -38t-21 -31t-30.5 -20.5t-37 -7.5zM663 750q-41 0 -69.5 28t-28.5 69q0 40 28.5 68t69.5 28q20 0 37 -7.5t30.5 -20.5t21 -30.5t7.5 -37.5t-7.5 -38t-21 -31
t-30.5 -20.5t-37 -7.5zM896 718h192l-176 -718h-246l-118 374l-117 -374h-246l-176 718h192l122 -514l148 514h155l147 -514z" />
    <glyph glyph-name="wdieresis" unicode="&#x1e85;" horiz-adv-x="930" 
d="M351 567q-41 0 -69.5 28t-28.5 69q0 40 28.5 68t69.5 28q20 0 37 -7.5t30.5 -20.5t21 -30.5t7.5 -37.5t-7.5 -38t-21 -31t-30.5 -20.5t-37 -7.5zM580 567q-41 0 -69.5 28t-28.5 69q0 40 28.5 68t69.5 28q20 0 37 -7.5t30.5 -20.5t21 -30.5t7.5 -37.5t-7.5 -38t-21 -31
t-30.5 -20.5t-37 -7.5zM732 517h189l-179 -517h-179l-98 292l-98 -292h-179l-179 517h189l89 -298l109 298h138l109 -298z" />
    <glyph glyph-name="uni1E9E" unicode="&#x1e9e;" horiz-adv-x="778" 
d="M571 414q35 -12 66.5 -30t55 -42.5t37.5 -57t14 -73.5q0 -51 -18.5 -92.5t-51.5 -71.5t-79 -46t-101 -16q-64 0 -110.5 10t-84.5 30l96 141q18 -13 40.5 -21.5t54.5 -8.5t50 16t18 45q0 22 -11.5 37t-32 26t-47.5 20.5t-58 20.5l-78 28l124 227h-209v-556h-186v718h613
v-135z" />
    <glyph glyph-name="uni1EA0" unicode="&#x1ea0;" horiz-adv-x="759" 
d="M758 0h-198l-46 133h-269l-46 -133h-198l264 718h229zM297 286h165l-82 238zM381 -57q20 0 37 -7.5t30.5 -20.5t21 -30.5t7.5 -37.5t-7.5 -38t-21 -31t-30.5 -20.5t-37 -7.5q-41 0 -69.5 28t-28.5 69q0 40 28.5 68t69.5 28z" />
    <glyph glyph-name="uni1EA1" unicode="&#x1ea1;" horiz-adv-x="596" 
d="M541 91q0 -22 2 -40.5t10 -35.5v-15h-176l-7 53q-13 -17 -32.5 -29t-41.5 -19.5t-45.5 -11t-45.5 -3.5q-30 0 -60.5 7t-55.5 23.5t-41 43.5t-16 68q0 46 19 75.5t48.5 48.5t64 30t64.5 18l83 21q21 5 36.5 12.5t15.5 27.5q0 11 -6.5 18.5t-16.5 11.5t-22.5 5.5t-23.5 1.5
q-35 0 -59 -16t-32 -48l-170 26q18 85 89.5 124t174.5 39q120 0 182 -48.5t62 -142.5v-245zM259 111q18 0 38 7.5t37 23t28 39t11 54.5l-117 -35q-6 -2 -14 -5t-15 -8t-12 -13.5t-5 -21.5q0 -21 14.5 -31t34.5 -10zM336 -57q20 0 37 -7.5t30.5 -20.5t21 -30.5t7.5 -37.5
t-7.5 -38t-21 -31t-30.5 -20.5t-37 -7.5q-41 0 -69.5 28t-28.5 69q0 40 28.5 68t69.5 28z" />
    <glyph glyph-name="uni1EA2" unicode="&#x1ea2;" horiz-adv-x="759" 
d="M368 885q-12 0 -26.5 -4t-26.5 -14l-44 58q23 14 48.5 22.5t63.5 8.5q65 0 97.5 -24t32.5 -64q0 -19 -7 -32.5t-18.5 -22t-26 -14t-29.5 -8.5v-43h-105v71q44 5 61 15t17 25q0 26 -37 26zM560 0l-46 133h-269l-46 -133h-198l264 718h229l264 -718h-198zM297 286h165
l-82 238z" />
    <glyph glyph-name="uni1EA3" unicode="&#x1ea3;" horiz-adv-x="596" 
d="M278 679q-12 0 -27.5 -4t-35.5 -14l-44 68q31 14 62.5 22.5t69.5 8.5q72 0 106 -24t34 -64q0 -19 -7 -32.5t-18.5 -22t-26 -14t-29.5 -8.5v-43h-125v61q44 5 61 15t17 25q0 26 -37 26zM541 91q0 -22 2 -40.5t10 -35.5v-15h-176l-7 53q-13 -17 -32.5 -29t-41.5 -19.5
t-45.5 -11t-45.5 -3.5q-30 0 -60.5 7t-55.5 23.5t-41 43.5t-16 68q0 46 19 75.5t48.5 48.5t64 30t64.5 18l83 21q21 5 36.5 12.5t15.5 27.5q0 11 -6.5 18.5t-16.5 11.5t-22.5 5.5t-23.5 1.5q-35 0 -59 -16t-32 -48l-170 26q18 85 89.5 124t174.5 39q120 0 182 -48.5
t62 -142.5v-245zM259 111q18 0 38 7.5t37 23t28 39t11 54.5l-117 -35q-6 -2 -14 -5t-15 -8t-12 -13.5t-5 -21.5q0 -21 14.5 -31t34.5 -10z" />
    <glyph glyph-name="uni1EA4" unicode="&#x1ea4;" horiz-adv-x="759" 
d="M380 809l-50 -61h-146l96 141h200l41 68h188l-118 -141h-61l46 -68h-146zM560 0l-46 133h-269l-46 -133h-198l264 718h229l264 -718h-198zM297 286h165l-82 238z" />
    <glyph glyph-name="uni1EA5" unicode="&#x1ea5;" horiz-adv-x="596" 
d="M300 638l-50 -61h-146l96 141h199l43 70h188l-118 -141h-64l48 -70h-146zM541 91q0 -22 2 -40.5t10 -35.5v-15h-176l-7 53q-13 -17 -32.5 -29t-41.5 -19.5t-45.5 -11t-45.5 -3.5q-30 0 -60.5 7t-55.5 23.5t-41 43.5t-16 68q0 46 19 75.5t48.5 48.5t64 30t64.5 18l83 21
q21 5 36.5 12.5t15.5 27.5q0 11 -6.5 18.5t-16.5 11.5t-22.5 5.5t-23.5 1.5q-35 0 -59 -16t-32 -48l-170 26q18 85 89.5 124t174.5 39q120 0 182 -48.5t62 -142.5v-245zM259 111q18 0 38 7.5t37 23t28 39t11 54.5l-117 -35q-6 -2 -14 -5t-15 -8t-12 -13.5t-5 -21.5
q0 -21 14.5 -31t34.5 -10z" />
    <glyph glyph-name="uni1EA6" unicode="&#x1ea6;" horiz-adv-x="759" 
d="M724 816h-156l-118 141h188zM380 809l-50 -61h-146l96 141h200l96 -141h-146zM560 0l-46 133h-269l-46 -133h-198l264 718h229l264 -718h-198zM297 286h165l-82 238z" />
    <glyph glyph-name="uni1EA7" unicode="&#x1ea7;" horiz-adv-x="596" 
d="M651 647h-156l-118 141h188zM300 638l-50 -61h-146l96 141h200l96 -141h-146zM541 91q0 -22 2 -40.5t10 -35.5v-15h-176l-7 53q-13 -17 -32.5 -29t-41.5 -19.5t-45.5 -11t-45.5 -3.5q-30 0 -60.5 7t-55.5 23.5t-41 43.5t-16 68q0 46 19 75.5t48.5 48.5t64 30t64.5 18
l83 21q21 5 36.5 12.5t15.5 27.5q0 11 -6.5 18.5t-16.5 11.5t-22.5 5.5t-23.5 1.5q-35 0 -59 -16t-32 -48l-170 26q18 85 89.5 124t174.5 39q120 0 182 -48.5t62 -142.5v-245zM259 111q18 0 38 7.5t37 23t28 39t11 54.5l-117 -35q-6 -2 -14 -5t-15 -8t-12 -13.5t-5 -21.5
q0 -21 14.5 -31t34.5 -10z" />
    <glyph glyph-name="uni1EA8" unicode="&#x1ea8;" horiz-adv-x="759" 
d="M583 956q-12 0 -26.5 -4t-26.5 -14l-44 58q23 14 48.5 22.5t63.5 8.5q65 0 97.5 -24t32.5 -64q0 -19 -7 -32.5t-18.5 -22t-26 -14t-29.5 -8.5v-43h-105v71q44 5 61 15t17 25q0 26 -37 26zM380 809l-50 -61h-146l96 141h200l96 -141h-146zM560 0l-46 133h-269l-46 -133
h-198l264 718h229l264 -718h-198zM297 286h165l-82 238z" />
    <glyph glyph-name="uni1EA9" unicode="&#x1ea9;" horiz-adv-x="596" 
d="M517 855q72 0 106 -24t34 -64q0 -19 -7 -32.5t-18.5 -22t-26 -14t-29.5 -8.5v-43h-125v61q44 5 61 15t17 25q0 26 -37 26q-12 0 -27.5 -4t-35.5 -14l-44 68q31 14 62.5 22.5t69.5 8.5zM300 638l-50 -61h-146l96 141h200l96 -141h-146zM541 91q0 -22 2 -40.5t10 -35.5v-15
h-176l-7 53q-13 -17 -32.5 -29t-41.5 -19.5t-45.5 -11t-45.5 -3.5q-30 0 -60.5 7t-55.5 23.5t-41 43.5t-16 68q0 46 19 75.5t48.5 48.5t64 30t64.5 18l83 21q21 5 36.5 12.5t15.5 27.5q0 11 -6.5 18.5t-16.5 11.5t-22.5 5.5t-23.5 1.5q-35 0 -59 -16t-32 -48l-170 26
q18 85 89.5 124t174.5 39q120 0 182 -48.5t62 -142.5v-245zM259 111q18 0 38 7.5t37 23t28 39t11 54.5l-117 -35q-6 -2 -14 -5t-15 -8t-12 -13.5t-5 -21.5q0 -21 14.5 -31t34.5 -10z" />
    <glyph glyph-name="uni1EAA" unicode="&#x1eaa;" horiz-adv-x="759" 
d="M314 973q-13 0 -16.5 -17.5t-3.5 -40.5h-83q0 66 29.5 109t83.5 43q35 0 54.5 -14t32.5 -28q8 -10 16 -16.5t19 -6.5q13 0 15.5 17t2.5 42h84q0 -32 -7 -59.5t-21.5 -48t-35.5 -32.5t-49 -12q-36 0 -55 14t-31 28q-8 9 -16 15.5t-19 6.5zM380 809l-50 -61h-146l96 141
h200l96 -141h-146zM560 0l-46 133h-269l-46 -133h-198l264 718h229l264 -718h-198zM297 286h165l-82 238z" />
    <glyph glyph-name="uni1EAB" unicode="&#x1eab;" horiz-adv-x="596" 
d="M234 813q-13 0 -16.5 -17.5t-3.5 -40.5h-83q0 66 29.5 109t83.5 43q35 0 54.5 -14t32.5 -28q8 -10 16 -16.5t19 -6.5q13 0 15.5 17t2.5 42h84q0 -32 -7 -59.5t-21.5 -48t-35.5 -32.5t-49 -12q-36 0 -55 14t-31 28q-8 9 -16 15.5t-19 6.5zM300 638l-50 -61h-146l96 141
h200l96 -141h-146zM541 91q0 -22 2 -40.5t10 -35.5v-15h-176l-7 53q-13 -17 -32.5 -29t-41.5 -19.5t-45.5 -11t-45.5 -3.5q-30 0 -60.5 7t-55.5 23.5t-41 43.5t-16 68q0 46 19 75.5t48.5 48.5t64 30t64.5 18l83 21q21 5 36.5 12.5t15.5 27.5q0 11 -6.5 18.5t-16.5 11.5
t-22.5 5.5t-23.5 1.5q-35 0 -59 -16t-32 -48l-170 26q18 85 89.5 124t174.5 39q120 0 182 -48.5t62 -142.5v-245zM259 111q18 0 38 7.5t37 23t28 39t11 54.5l-117 -35q-6 -2 -14 -5t-15 -8t-12 -13.5t-5 -21.5q0 -21 14.5 -31t34.5 -10z" />
    <glyph glyph-name="uni1EAC" unicode="&#x1eac;" horiz-adv-x="759" 
d="M380 809l-50 -61h-146l96 141h200l96 -141h-146zM758 0h-198l-46 133h-269l-46 -133h-198l264 718h229zM297 286h165l-82 238zM381 -57q20 0 37 -7.5t30.5 -20.5t21 -30.5t7.5 -37.5t-7.5 -38t-21 -31t-30.5 -20.5t-37 -7.5q-41 0 -69.5 28t-28.5 69q0 40 28.5 68
t69.5 28z" />
    <glyph glyph-name="uni1EAD" unicode="&#x1ead;" horiz-adv-x="596" 
d="M300 638l-50 -61h-146l96 141h200l96 -141h-146zM541 91q0 -22 2 -40.5t10 -35.5v-15h-176l-7 53q-13 -17 -32.5 -29t-41.5 -19.5t-45.5 -11t-45.5 -3.5q-30 0 -60.5 7t-55.5 23.5t-41 43.5t-16 68q0 46 19 75.5t48.5 48.5t64 30t64.5 18l83 21q21 5 36.5 12.5t15.5 27.5
q0 11 -6.5 18.5t-16.5 11.5t-22.5 5.5t-23.5 1.5q-35 0 -59 -16t-32 -48l-170 26q18 85 89.5 124t174.5 39q120 0 182 -48.5t62 -142.5v-245zM259 111q18 0 38 7.5t37 23t28 39t11 54.5l-117 -35q-6 -2 -14 -5t-15 -8t-12 -13.5t-5 -21.5q0 -21 14.5 -31t34.5 -10zM336 -57
q20 0 37 -7.5t30.5 -20.5t21 -30.5t7.5 -37.5t-7.5 -38t-21 -31t-30.5 -20.5t-37 -7.5q-41 0 -69.5 28t-28.5 69q0 40 28.5 68t69.5 28z" />
    <glyph glyph-name="uni1EAE" unicode="&#x1eae;" horiz-adv-x="759" 
d="M576 1060l-118 -141h-156l86 141h188zM379 748q-42 0 -76 6t-58.5 21.5t-38 43t-13.5 70.5h110q0 -30 17.5 -42.5t58.5 -12.5q42 0 59.5 12.5t17.5 42.5h110q0 -43 -13.5 -70.5t-38 -43t-59 -21.5t-76.5 -6zM560 0l-46 133h-269l-46 -133h-198l264 718h229l264 -718h-198
zM297 286h165l-82 238z" />
    <glyph glyph-name="uni1EAF" unicode="&#x1eaf;" horiz-adv-x="596" 
d="M497 889l-118 -141h-156l86 141h188zM300 567q-42 0 -76 7.5t-58.5 25t-38 46.5t-13.5 72h125q0 -29 14.5 -45t46.5 -16q33 0 47.5 16t14.5 45h125q0 -43 -13.5 -72t-38 -46.5t-59 -25t-76.5 -7.5zM541 91q0 -22 2 -40.5t10 -35.5v-15h-176l-7 53q-13 -17 -32.5 -29
t-41.5 -19.5t-45.5 -11t-45.5 -3.5q-30 0 -60.5 7t-55.5 23.5t-41 43.5t-16 68q0 46 19 75.5t48.5 48.5t64 30t64.5 18l83 21q21 5 36.5 12.5t15.5 27.5q0 11 -6.5 18.5t-16.5 11.5t-22.5 5.5t-23.5 1.5q-35 0 -59 -16t-32 -48l-170 26q18 85 89.5 124t174.5 39
q120 0 182 -48.5t62 -142.5v-245zM259 111q18 0 38 7.5t37 23t28 39t11 54.5l-117 -35q-6 -2 -14 -5t-15 -8t-12 -13.5t-5 -21.5q0 -21 14.5 -31t34.5 -10z" />
    <glyph glyph-name="uni1EB0" unicode="&#x1eb0;" horiz-adv-x="759" 
d="M458 919h-156l-118 141h188zM379 834q42 0 59.5 12.5t17.5 42.5h110q0 -43 -13.5 -70.5t-38 -43t-59 -21.5t-76.5 -6t-76 6t-58.5 21.5t-38 43t-13.5 70.5h110q0 -30 17.5 -42.5t58.5 -12.5zM560 0l-46 133h-269l-46 -133h-198l264 718h229l264 -718h-198zM297 286h165
l-82 238z" />
    <glyph glyph-name="uni1EB1" unicode="&#x1eb1;" horiz-adv-x="596" 
d="M379 748h-156l-118 141h188zM300 657q33 0 47.5 16t14.5 45h125q0 -43 -13.5 -72t-38 -46.5t-59 -25t-76.5 -7.5t-76 7.5t-58.5 25t-38 46.5t-13.5 72h125q0 -29 14.5 -45t46.5 -16zM541 91q0 -22 2 -40.5t10 -35.5v-15h-176l-7 53q-13 -17 -32.5 -29t-41.5 -19.5
t-45.5 -11t-45.5 -3.5q-30 0 -60.5 7t-55.5 23.5t-41 43.5t-16 68q0 46 19 75.5t48.5 48.5t64 30t64.5 18l83 21q21 5 36.5 12.5t15.5 27.5q0 11 -6.5 18.5t-16.5 11.5t-22.5 5.5t-23.5 1.5q-35 0 -59 -16t-32 -48l-170 26q18 85 89.5 124t174.5 39q120 0 182 -48.5
t62 -142.5v-245zM259 111q18 0 38 7.5t37 23t28 39t11 54.5l-117 -35q-6 -2 -14 -5t-15 -8t-12 -13.5t-5 -21.5q0 -21 14.5 -31t34.5 -10z" />
    <glyph glyph-name="uni1EB2" unicode="&#x1eb2;" horiz-adv-x="759" 
d="M368 1026q-12 0 -26.5 -4t-26.5 -14l-44 58q23 14 48.5 22.5t63.5 8.5q65 0 97.5 -24t32.5 -64q0 -19 -7 -32.5t-18.5 -22t-26 -14t-29.5 -8.5v-43h-105v71q44 5 61 15t17 25q0 26 -37 26zM379 748q-42 0 -76 6t-58.5 21.5t-38 43t-13.5 70.5h110q0 -30 17.5 -42.5
t58.5 -12.5q42 0 59.5 12.5t17.5 42.5h110q0 -43 -13.5 -70.5t-38 -43t-59 -21.5t-76.5 -6zM560 0l-46 133h-269l-46 -133h-198l264 718h229l264 -718h-198zM297 286h165l-82 238z" />
    <glyph glyph-name="uni1EB3" unicode="&#x1eb3;" horiz-adv-x="596" 
d="M289 835q-12 0 -26.5 -4t-26.5 -14l-44 58q23 14 48.5 22.5t63.5 8.5q65 0 97.5 -24t32.5 -64q0 -19 -7 -32.5t-18.5 -22t-26 -14t-29.5 -8.5v-23h-105v51q44 5 61 15t17 25q0 26 -37 26zM300 567q-42 0 -76 7.5t-58.5 25t-38 46.5t-13.5 72h125q0 -29 14.5 -45t46.5 -16
q33 0 47.5 16t14.5 45h125q0 -43 -13.5 -72t-38 -46.5t-59 -25t-76.5 -7.5zM541 91q0 -22 2 -40.5t10 -35.5v-15h-176l-7 53q-13 -17 -32.5 -29t-41.5 -19.5t-45.5 -11t-45.5 -3.5q-30 0 -60.5 7t-55.5 23.5t-41 43.5t-16 68q0 46 19 75.5t48.5 48.5t64 30t64.5 18l83 21
q21 5 36.5 12.5t15.5 27.5q0 11 -6.5 18.5t-16.5 11.5t-22.5 5.5t-23.5 1.5q-35 0 -59 -16t-32 -48l-170 26q18 85 89.5 124t174.5 39q120 0 182 -48.5t62 -142.5v-245zM259 111q18 0 38 7.5t37 23t28 39t11 54.5l-117 -35q-6 -2 -14 -5t-15 -8t-12 -13.5t-5 -21.5
q0 -21 14.5 -31t34.5 -10z" />
    <glyph glyph-name="uni1EB4" unicode="&#x1eb4;" horiz-adv-x="759" 
d="M314 983q-13 0 -16.5 -17.5t-3.5 -40.5h-83q0 66 29.5 109t83.5 43q35 0 54.5 -14t32.5 -28q8 -10 16 -16.5t19 -6.5q13 0 15.5 17t2.5 42h84q0 -32 -7 -59.5t-21.5 -48t-35.5 -32.5t-49 -12q-36 0 -55 14t-31 28q-8 9 -16 15.5t-19 6.5zM379 748q-42 0 -76 6t-58.5 21.5
t-38 43t-13.5 70.5h110q0 -30 17.5 -42.5t58.5 -12.5q42 0 59.5 12.5t17.5 42.5h110q0 -43 -13.5 -70.5t-38 -43t-59 -21.5t-76.5 -6zM560 0l-46 133h-269l-46 -133h-198l264 718h229l264 -718h-198zM297 286h165l-82 238z" />
    <glyph glyph-name="uni1EB5" unicode="&#x1eb5;" horiz-adv-x="596" 
d="M235 833q-13 0 -16.5 -17.5t-3.5 -40.5h-83q0 66 29.5 109t83.5 43q35 0 54.5 -14t32.5 -28q8 -10 16 -16.5t19 -6.5q13 0 15.5 17t2.5 42h84q0 -32 -7 -59.5t-21.5 -48t-35.5 -32.5t-49 -12q-36 0 -55 14t-31 28q-8 9 -16 15.5t-19 6.5zM300 567q-42 0 -76 7.5t-58.5 25
t-38 46.5t-13.5 72h125q0 -29 14.5 -45t46.5 -16q33 0 47.5 16t14.5 45h125q0 -43 -13.5 -72t-38 -46.5t-59 -25t-76.5 -7.5zM541 91q0 -22 2 -40.5t10 -35.5v-15h-176l-7 53q-13 -17 -32.5 -29t-41.5 -19.5t-45.5 -11t-45.5 -3.5q-30 0 -60.5 7t-55.5 23.5t-41 43.5t-16 68
q0 46 19 75.5t48.5 48.5t64 30t64.5 18l83 21q21 5 36.5 12.5t15.5 27.5q0 11 -6.5 18.5t-16.5 11.5t-22.5 5.5t-23.5 1.5q-35 0 -59 -16t-32 -48l-170 26q18 85 89.5 124t174.5 39q120 0 182 -48.5t62 -142.5v-245zM259 111q18 0 38 7.5t37 23t28 39t11 54.5l-117 -35
q-6 -2 -14 -5t-15 -8t-12 -13.5t-5 -21.5q0 -21 14.5 -31t34.5 -10z" />
    <glyph glyph-name="uni1EB6" unicode="&#x1eb6;" horiz-adv-x="759" 
d="M379 748q-42 0 -76 6t-58.5 21.5t-38 43t-13.5 70.5h110q0 -30 17.5 -42.5t58.5 -12.5q42 0 59.5 12.5t17.5 42.5h110q0 -43 -13.5 -70.5t-38 -43t-59 -21.5t-76.5 -6zM758 0h-198l-46 133h-269l-46 -133h-198l264 718h229zM297 286h165l-82 238zM381 -57q20 0 37 -7.5
t30.5 -20.5t21 -30.5t7.5 -37.5t-7.5 -38t-21 -31t-30.5 -20.5t-37 -7.5q-41 0 -69.5 28t-28.5 69q0 40 28.5 68t69.5 28z" />
    <glyph glyph-name="uni1EB7" unicode="&#x1eb7;" horiz-adv-x="596" 
d="M300 567q-42 0 -76 7.5t-58.5 25t-38 46.5t-13.5 72h125q0 -29 14.5 -45t46.5 -16q33 0 47.5 16t14.5 45h125q0 -43 -13.5 -72t-38 -46.5t-59 -25t-76.5 -7.5zM541 91q0 -22 2 -40.5t10 -35.5v-15h-176l-7 53q-13 -17 -32.5 -29t-41.5 -19.5t-45.5 -11t-45.5 -3.5
q-30 0 -60.5 7t-55.5 23.5t-41 43.5t-16 68q0 46 19 75.5t48.5 48.5t64 30t64.5 18l83 21q21 5 36.5 12.5t15.5 27.5q0 11 -6.5 18.5t-16.5 11.5t-22.5 5.5t-23.5 1.5q-35 0 -59 -16t-32 -48l-170 26q18 85 89.5 124t174.5 39q120 0 182 -48.5t62 -142.5v-245zM259 111
q18 0 38 7.5t37 23t28 39t11 54.5l-117 -35q-6 -2 -14 -5t-15 -8t-12 -13.5t-5 -21.5q0 -21 14.5 -31t34.5 -10zM336 -57q20 0 37 -7.5t30.5 -20.5t21 -30.5t7.5 -37.5t-7.5 -38t-21 -31t-30.5 -20.5t-37 -7.5q-41 0 -69.5 28t-28.5 69q0 40 28.5 68t69.5 28z" />
    <glyph glyph-name="uni1EB8" unicode="&#x1eb8;" horiz-adv-x="542" 
d="M496 556h-250v-117h223v-160h-223v-117h250v-162h-436v718h436v-162zM284 -57q20 0 37 -7.5t30.5 -20.5t21 -30.5t7.5 -37.5t-7.5 -38t-21 -31t-30.5 -20.5t-37 -7.5q-41 0 -69.5 28t-28.5 69q0 40 28.5 68t69.5 28z" />
    <glyph glyph-name="uni1EB9" unicode="&#x1eb9;" horiz-adv-x="613" 
d="M577 223h-370q6 -48 37 -71.5t74 -23.5q33 0 56.5 13t34.5 42l164 -21q-24 -84 -92 -128t-162 -44q-67 0 -120 18t-90.5 52.5t-57.5 84t-20 113.5t20.5 114t57.5 84.5t89 52.5t115 18q57 0 105.5 -15t84 -47t56 -81.5t20.5 -119.5zM314 397q-41 0 -66 -16t-36 -51h192
q-8 32 -32 49.5t-58 17.5zM327 -58q20 0 37 -7.5t30.5 -20.5t21 -30.5t7.5 -37.5t-7.5 -38t-21 -31t-30.5 -20.5t-37 -7.5q-41 0 -69.5 28t-28.5 69q0 40 28.5 68t69.5 28z" />
    <glyph glyph-name="uni1EBA" unicode="&#x1eba;" horiz-adv-x="542" 
d="M271 885q-12 0 -26.5 -4t-26.5 -14l-44 58q23 14 48.5 22.5t63.5 8.5q65 0 97.5 -24t32.5 -64q0 -19 -7 -32.5t-18.5 -22t-26 -14t-29.5 -8.5v-43h-105v71q44 5 61 15t17 25q0 26 -37 26zM496 556h-250v-117h223v-160h-223v-117h250v-162h-436v718h436v-162z" />
    <glyph glyph-name="uni1EBB" unicode="&#x1ebb;" horiz-adv-x="613" 
d="M296 680q-12 0 -27.5 -4t-35.5 -14l-44 68q31 14 62.5 22.5t69.5 8.5q72 0 106 -24t34 -64q0 -19 -7 -32.5t-18.5 -22t-26 -14t-29.5 -8.5v-43h-125v61q44 5 61 15t17 25q0 26 -37 26zM577 223h-370q6 -48 37 -71.5t74 -23.5q33 0 56.5 13t34.5 42l164 -21
q-24 -84 -92 -128t-162 -44q-67 0 -120 18t-90.5 52.5t-57.5 84t-20 113.5t20.5 114t57.5 84.5t89 52.5t115 18q57 0 105.5 -15t84 -47t56 -81.5t20.5 -119.5zM314 397q-41 0 -66 -16t-36 -51h192q-8 32 -32 49.5t-58 17.5z" />
    <glyph glyph-name="uni1EBC" unicode="&#x1ebc;" horiz-adv-x="542" 
d="M217 812q-13 0 -16.5 -17.5t-3.5 -40.5h-83q0 66 29.5 109t83.5 43q35 0 54.5 -14t32.5 -28q8 -10 16 -16.5t19 -6.5q13 0 15.5 17t2.5 42h84q0 -32 -7 -59.5t-21.5 -48t-35.5 -32.5t-49 -12q-36 0 -55 14t-31 28q-8 9 -16 15.5t-19 6.5zM496 556h-250v-117h223v-160
h-223v-117h250v-162h-436v718h436v-162z" />
    <glyph glyph-name="uni1EBD" unicode="&#x1ebd;" horiz-adv-x="613" 
d="M252 633q-13 0 -16.5 -17.5t-3.5 -40.5h-83q0 66 29.5 109t83.5 43q35 0 54.5 -14t32.5 -28q8 -10 16 -16.5t19 -6.5q13 0 15.5 17t2.5 42h84q0 -32 -7 -59.5t-21.5 -48t-35.5 -32.5t-49 -12q-36 0 -55 14t-31 28q-8 9 -16 15.5t-19 6.5zM577 223h-370q6 -48 37 -71.5
t74 -23.5q33 0 56.5 13t34.5 42l164 -21q-24 -84 -92 -128t-162 -44q-67 0 -120 18t-90.5 52.5t-57.5 84t-20 113.5t20.5 114t57.5 84.5t89 52.5t115 18q57 0 105.5 -15t84 -47t56 -81.5t20.5 -119.5zM314 397q-41 0 -66 -16t-36 -51h192q-8 32 -32 49.5t-58 17.5z" />
    <glyph glyph-name="uni1EBE" unicode="&#x1ebe;" horiz-adv-x="542" 
d="M283 809l-50 -61h-146l96 141h200l41 68h188l-118 -141h-61l46 -68h-146zM60 0v718h436v-162h-250v-117h223v-160h-223v-117h250v-162h-436z" />
    <glyph glyph-name="uni1EBF" unicode="&#x1ebf;" horiz-adv-x="613" 
d="M318 639l-50 -61h-146l96 141h199l43 70h188l-118 -141h-64l48 -70h-146zM313 527q57 0 105.5 -15t84 -47t56 -81.5t20.5 -119.5l-2 -41h-370q6 -48 37 -71.5t74 -23.5q33 0 56.5 13t34.5 42l164 -21q-24 -84 -92 -128t-162 -44q-67 0 -120 18t-90.5 52.5t-57.5 84
t-20 113.5t20.5 114t57.5 84.5t89 52.5t115 18zM314 397q-41 0 -66 -16t-36 -51h192q-8 32 -32 49.5t-58 17.5z" />
    <glyph glyph-name="uni1EC0" unicode="&#x1ec0;" horiz-adv-x="542" 
d="M627 816h-156l-118 141h188zM283 809l-50 -61h-146l96 141h200l96 -141h-146zM60 0v718h436v-162h-250v-117h223v-160h-223v-117h250v-162h-436z" />
    <glyph glyph-name="uni1EC1" unicode="&#x1ec1;" horiz-adv-x="613" 
d="M669 648h-156l-118 141h188zM318 639l-50 -61h-146l96 141h200l96 -141h-146zM313 527q57 0 105.5 -15t84 -47t56 -81.5t20.5 -119.5l-2 -41h-370q6 -48 37 -71.5t74 -23.5q33 0 56.5 13t34.5 42l164 -21q-24 -84 -92 -128t-162 -44q-67 0 -120 18t-90.5 52.5t-57.5 84
t-20 113.5t20.5 114t57.5 84.5t89 52.5t115 18zM314 397q-41 0 -66 -16t-36 -51h192q-8 32 -32 49.5t-58 17.5z" />
    <glyph glyph-name="uni1EC2" unicode="&#x1ec2;" horiz-adv-x="542" 
d="M501 1027q65 0 97.5 -24t32.5 -64q0 -19 -7 -32.5t-18.5 -22t-26 -14t-29.5 -8.5v-43h-105v71q44 5 61 15t17 25q0 26 -37 26q-12 0 -26.5 -4t-26.5 -14l-44 58q23 14 48.5 22.5t63.5 8.5zM283 809l-50 -61h-146l96 141h200l96 -141h-146zM60 0v718h436v-162h-250v-117
h223v-160h-223v-117h250v-162h-436z" />
    <glyph glyph-name="uni1EC3" unicode="&#x1ec3;" horiz-adv-x="613" 
d="M535 856q72 0 106 -24t34 -64q0 -19 -7 -32.5t-18.5 -22t-26 -14t-29.5 -8.5v-43h-125v61q44 5 61 15t17 25q0 26 -37 26q-12 0 -27.5 -4t-35.5 -14l-44 68q31 14 62.5 22.5t69.5 8.5zM318 639l-50 -61h-146l96 141h200l96 -141h-146zM313 527q57 0 105.5 -15t84 -47
t56 -81.5t20.5 -119.5l-2 -41h-370q6 -48 37 -71.5t74 -23.5q33 0 56.5 13t34.5 42l164 -21q-24 -84 -92 -128t-162 -44q-67 0 -120 18t-90.5 52.5t-57.5 84t-20 113.5t20.5 114t57.5 84.5t89 52.5t115 18zM314 397q-41 0 -66 -16t-36 -51h192q-8 32 -32 49.5t-58 17.5z" />
    <glyph glyph-name="uni1EC4" unicode="&#x1ec4;" horiz-adv-x="542" 
d="M217 973q-13 0 -16.5 -17.5t-3.5 -40.5h-83q0 66 29.5 109t83.5 43q35 0 54.5 -14t32.5 -28q8 -10 16 -16.5t19 -6.5q13 0 15.5 17t2.5 42h84q0 -32 -7 -59.5t-21.5 -48t-35.5 -32.5t-49 -12q-36 0 -55 14t-31 28q-8 9 -16 15.5t-19 6.5zM283 809l-50 -61h-146l96 141
h200l96 -141h-146zM496 556h-250v-117h223v-160h-223v-117h250v-162h-436v718h436v-162z" />
    <glyph glyph-name="uni1EC5" unicode="&#x1ec5;" horiz-adv-x="613" 
d="M252 814q-13 0 -16.5 -17.5t-3.5 -40.5h-83q0 66 29.5 109t83.5 43q35 0 54.5 -14t32.5 -28q8 -10 16 -16.5t19 -6.5q13 0 15.5 17t2.5 42h84q0 -32 -7 -59.5t-21.5 -48t-35.5 -32.5t-49 -12q-36 0 -55 14t-31 28q-8 9 -16 15.5t-19 6.5zM318 639l-50 -61h-146l96 141
h200l96 -141h-146zM577 223h-370q6 -48 37 -71.5t74 -23.5q33 0 56.5 13t34.5 42l164 -21q-24 -84 -92 -128t-162 -44q-67 0 -120 18t-90.5 52.5t-57.5 84t-20 113.5t20.5 114t57.5 84.5t89 52.5t115 18q57 0 105.5 -15t84 -47t56 -81.5t20.5 -119.5zM314 397q-41 0 -66 -16
t-36 -51h192q-8 32 -32 49.5t-58 17.5z" />
    <glyph glyph-name="uni1EC6" unicode="&#x1ec6;" horiz-adv-x="542" 
d="M283 809l-50 -61h-146l96 141h200l96 -141h-146zM496 556h-250v-117h223v-160h-223v-117h250v-162h-436v718h436v-162zM284 -57q20 0 37 -7.5t30.5 -20.5t21 -30.5t7.5 -37.5t-7.5 -38t-21 -31t-30.5 -20.5t-37 -7.5q-41 0 -69.5 28t-28.5 69q0 40 28.5 68t69.5 28z" />
    <glyph glyph-name="uni1EC7" unicode="&#x1ec7;" horiz-adv-x="613" 
d="M318 639l-50 -61h-146l96 141h200l96 -141h-146zM577 223h-370q6 -48 37 -71.5t74 -23.5q33 0 56.5 13t34.5 42l164 -21q-24 -84 -92 -128t-162 -44q-67 0 -120 18t-90.5 52.5t-57.5 84t-20 113.5t20.5 114t57.5 84.5t89 52.5t115 18q57 0 105.5 -15t84 -47t56 -81.5
t20.5 -119.5zM314 397q-41 0 -66 -16t-36 -51h192q-8 32 -32 49.5t-58 17.5zM327 -58q20 0 37 -7.5t30.5 -20.5t21 -30.5t7.5 -37.5t-7.5 -38t-21 -31t-30.5 -20.5t-37 -7.5q-41 0 -69.5 28t-28.5 69q0 40 28.5 68t69.5 28z" />
    <glyph glyph-name="uni1EC8" unicode="&#x1ec8;" horiz-adv-x="306" 
d="M99 748v71q44 5 61 15t17 25q0 26 -37 26q-12 0 -26.5 -4t-26.5 -14l-44 58q23 14 48.5 22.5t63.5 8.5q65 0 97.5 -24t32.5 -64q0 -19 -7 -32.5t-18.5 -22t-26 -14t-29.5 -8.5v-43h-105zM60 0v718h186v-718h-186z" />
    <glyph glyph-name="uni1EC9" unicode="&#x1ec9;" horiz-adv-x="284" 
d="M79 552v61q44 5 61 15t17 25q0 26 -37 26q-12 0 -27.5 -4t-35.5 -14l-44 68q31 14 62.5 22.5t69.5 8.5q72 0 106 -24t34 -64q0 -19 -7 -32.5t-18.5 -22t-26 -14t-29.5 -8.5v-43h-125zM53 0v517h178v-517h-178z" />
    <glyph glyph-name="uni1ECA" unicode="&#x1eca;" horiz-adv-x="306" 
d="M60 0v718h186v-718h-186zM153 -250q-41 0 -69.5 28t-28.5 69q0 40 28.5 68t69.5 28q20 0 37 -7.5t30.5 -20.5t21 -30.5t7.5 -37.5t-7.5 -38t-21 -31t-30.5 -20.5t-37 -7.5z" />
    <glyph glyph-name="uni1ECB" unicode="&#x1ecb;" horiz-adv-x="284" 
d="M143 567q-41 0 -69.5 28t-28.5 69q0 40 28.5 68t69.5 28q20 0 37 -7.5t30.5 -20.5t21 -30.5t7.5 -37.5t-7.5 -38t-21 -31t-30.5 -20.5t-37 -7.5zM53 0v517h178v-517h-178zM143 -250q-41 0 -69.5 28t-28.5 69q0 40 28.5 68t69.5 28q20 0 37 -7.5t30.5 -20.5t21 -30.5
t7.5 -37.5t-7.5 -38t-21 -31t-30.5 -20.5t-37 -7.5z" />
    <glyph glyph-name="uni1ECC" unicode="&#x1ecc;" horiz-adv-x="804" 
d="M402 -15q-81 0 -149.5 27t-118 76.5t-77.5 118.5t-28 152t28 152t77.5 118.5t118 76.5t149.5 27t149.5 -27t118 -76.5t77.5 -118.5t28 -152t-28 -152t-77.5 -118.5t-118 -76.5t-149.5 -27zM402 155q41 0 75 14.5t59 41.5t39 64.5t14 83.5t-14 83.5t-39 64.5t-59 41.5
t-75 14.5q-40 0 -74.5 -14.5t-59.5 -41.5t-39 -64.5t-14 -83.5t14 -83.5t39 -64.5t59.5 -41.5t74.5 -14.5zM403 -250q-41 0 -69.5 28t-28.5 69q0 40 28.5 68t69.5 28q20 0 37 -7.5t30.5 -20.5t21 -30.5t7.5 -37.5t-7.5 -38t-21 -31t-30.5 -20.5t-37 -7.5z" />
    <glyph glyph-name="uni1ECD" unicode="&#x1ecd;" horiz-adv-x="650" 
d="M325 -10q-65 0 -119.5 18.5t-93.5 53t-60.5 84t-21.5 113.5q0 63 21.5 113t60.5 84t93.5 52.5t119.5 18.5t119.5 -18.5t93.5 -52.5t60.5 -84t21.5 -113q0 -64 -21.5 -113.5t-60.5 -84t-93.5 -53t-119.5 -18.5zM325 130q54 0 85.5 35.5t31.5 93.5q0 57 -31.5 92.5
t-85.5 35.5t-85.5 -35.5t-31.5 -92.5q0 -58 31.5 -93.5t85.5 -35.5zM328 -250q-41 0 -69.5 28t-28.5 69q0 40 28.5 68t69.5 28q20 0 37 -7.5t30.5 -20.5t21 -30.5t7.5 -37.5t-7.5 -38t-21 -31t-30.5 -20.5t-37 -7.5z" />
    <glyph glyph-name="uni1ECE" unicode="&#x1ece;" horiz-adv-x="804" 
d="M349 748v71q44 5 61 15t17 25q0 26 -37 26q-12 0 -26.5 -4t-26.5 -14l-44 58q23 14 48.5 22.5t63.5 8.5q65 0 97.5 -24t32.5 -64q0 -19 -7 -32.5t-18.5 -22t-26 -14t-29.5 -8.5v-43h-105zM402 -15q-81 0 -149.5 27t-118 76.5t-77.5 118.5t-28 152t28 152t77.5 118.5
t118 76.5t149.5 27t149.5 -27t118 -76.5t77.5 -118.5t28 -152t-28 -152t-77.5 -118.5t-118 -76.5t-149.5 -27zM402 155q41 0 75 14.5t59 41.5t39 64.5t14 83.5t-14 83.5t-39 64.5t-59 41.5t-75 14.5q-40 0 -74.5 -14.5t-59.5 -41.5t-39 -64.5t-14 -83.5t14 -83.5t39 -64.5
t59.5 -41.5t74.5 -14.5z" />
    <glyph glyph-name="uni1ECF" unicode="&#x1ecf;" horiz-adv-x="650" 
d="M264 552v61q44 5 61 15t17 25q0 26 -37 26q-12 0 -27.5 -4t-35.5 -14l-44 68q31 14 62.5 22.5t69.5 8.5q72 0 106 -24t34 -64q0 -19 -7 -32.5t-18.5 -22t-26 -14t-29.5 -8.5v-43h-125zM325 -10q-65 0 -119.5 18.5t-93.5 53t-60.5 84t-21.5 113.5q0 63 21.5 113t60.5 84
t93.5 52.5t119.5 18.5t119.5 -18.5t93.5 -52.5t60.5 -84t21.5 -113q0 -64 -21.5 -113.5t-60.5 -84t-93.5 -53t-119.5 -18.5zM325 130q54 0 85.5 35.5t31.5 93.5q0 57 -31.5 92.5t-85.5 35.5t-85.5 -35.5t-31.5 -92.5q0 -58 31.5 -93.5t85.5 -35.5z" />
    <glyph glyph-name="uni1ED0" unicode="&#x1ed0;" horiz-adv-x="804" 
d="M402 809l-50 -61h-146l96 141h200l41 68h188l-118 -141h-61l46 -68h-146zM402 733q81 0 149.5 -27t118 -76.5t77.5 -118.5t28 -152t-28 -152t-77.5 -118.5t-118 -76.5t-149.5 -27t-149.5 27t-118 76.5t-77.5 118.5t-28 152t28 152t77.5 118.5t118 76.5t149.5 27zM402 155
q41 0 75 14.5t59 41.5t39 64.5t14 83.5t-14 83.5t-39 64.5t-59 41.5t-75 14.5q-40 0 -74.5 -14.5t-59.5 -41.5t-39 -64.5t-14 -83.5t14 -83.5t39 -64.5t59.5 -41.5t74.5 -14.5z" />
    <glyph glyph-name="uni1ED1" unicode="&#x1ed1;" horiz-adv-x="650" 
d="M327 638l-50 -61h-146l96 141h199l43 70h188l-118 -141h-64l48 -70h-146zM325 527q65 0 119.5 -18.5t93.5 -52.5t60.5 -84t21.5 -113q0 -64 -21.5 -113.5t-60.5 -84t-93.5 -53t-119.5 -18.5t-119.5 18.5t-93.5 53t-60.5 84t-21.5 113.5q0 63 21.5 113t60.5 84t93.5 52.5
t119.5 18.5zM325 130q54 0 85.5 35.5t31.5 93.5q0 57 -31.5 92.5t-85.5 35.5t-85.5 -35.5t-31.5 -92.5q0 -58 31.5 -93.5t85.5 -35.5z" />
    <glyph glyph-name="uni1ED2" unicode="&#x1ed2;" horiz-adv-x="804" 
d="M590 816l-118 141h188l86 -141h-156zM206 748l96 141h200l96 -141h-146l-50 61l-50 -61h-146zM402 -15q-81 0 -149.5 27t-118 76.5t-77.5 118.5t-28 152t28 152t77.5 118.5t118 76.5t149.5 27t149.5 -27t118 -76.5t77.5 -118.5t28 -152t-28 -152t-77.5 -118.5t-118 -76.5
t-149.5 -27zM402 155q41 0 75 14.5t59 41.5t39 64.5t14 83.5t-14 83.5t-39 64.5t-59 41.5t-75 14.5q-40 0 -74.5 -14.5t-59.5 -41.5t-39 -64.5t-14 -83.5t14 -83.5t39 -64.5t59.5 -41.5t74.5 -14.5z" />
    <glyph glyph-name="uni1ED3" unicode="&#x1ed3;" horiz-adv-x="650" 
d="M522 647l-118 141h188l86 -141h-156zM131 577l96 141h200l96 -141h-146l-50 61l-50 -61h-146zM325 -10q-65 0 -119.5 18.5t-93.5 53t-60.5 84t-21.5 113.5q0 63 21.5 113t60.5 84t93.5 52.5t119.5 18.5t119.5 -18.5t93.5 -52.5t60.5 -84t21.5 -113q0 -64 -21.5 -113.5
t-60.5 -84t-93.5 -53t-119.5 -18.5zM325 130q54 0 85.5 35.5t31.5 93.5q0 57 -31.5 92.5t-85.5 35.5t-85.5 -35.5t-31.5 -92.5q0 -58 31.5 -93.5t85.5 -35.5z" />
    <glyph glyph-name="uni1ED4" unicode="&#x1ed4;" horiz-adv-x="804" 
d="M669 819h-105v71q44 5 61 15t17 25q0 26 -37 26q-12 0 -26.5 -4t-26.5 -14l-44 58q23 14 48.5 22.5t63.5 8.5q65 0 97.5 -24t32.5 -64q0 -19 -7 -32.5t-18.5 -22t-26 -14t-29.5 -8.5v-43zM352 748h-146l96 141h200l96 -141h-146l-50 61zM402 -15q-81 0 -149.5 27
t-118 76.5t-77.5 118.5t-28 152t28 152t77.5 118.5t118 76.5t149.5 27t149.5 -27t118 -76.5t77.5 -118.5t28 -152t-28 -152t-77.5 -118.5t-118 -76.5t-149.5 -27zM402 155q41 0 75 14.5t59 41.5t39 64.5t14 83.5t-14 83.5t-39 64.5t-59 41.5t-75 14.5q-40 0 -74.5 -14.5
t-59.5 -41.5t-39 -64.5t-14 -83.5t14 -83.5t39 -64.5t59.5 -41.5t74.5 -14.5z" />
    <glyph glyph-name="uni1ED5" unicode="&#x1ed5;" horiz-adv-x="650" 
d="M603 647h-125v61q44 5 61 15t17 25q0 26 -37 26q-12 0 -27.5 -4t-35.5 -14l-44 68q31 14 62.5 22.5t69.5 8.5q72 0 106 -24t34 -64q0 -19 -7 -32.5t-18.5 -22t-26 -14t-29.5 -8.5v-43zM131 577l96 141h200l96 -141h-146l-50 61l-50 -61h-146zM325 -10q-65 0 -119.5 18.5
t-93.5 53t-60.5 84t-21.5 113.5q0 63 21.5 113t60.5 84t93.5 52.5t119.5 18.5t119.5 -18.5t93.5 -52.5t60.5 -84t21.5 -113q0 -64 -21.5 -113.5t-60.5 -84t-93.5 -53t-119.5 -18.5zM325 130q54 0 85.5 35.5t31.5 93.5q0 57 -31.5 92.5t-85.5 35.5t-85.5 -35.5t-31.5 -92.5
q0 -58 31.5 -93.5t85.5 -35.5z" />
    <glyph glyph-name="uni1ED6" unicode="&#x1ed6;" horiz-adv-x="804" 
d="M457 909q-36 0 -55 14t-31 28q-8 9 -16 15.5t-19 6.5q-13 0 -16.5 -17.5t-3.5 -40.5h-83q0 66 29.5 109t83.5 43q35 0 54.5 -14t32.5 -28q8 -10 16 -16.5t19 -6.5q13 0 15.5 17t2.5 42h84q0 -32 -7 -59.5t-21.5 -48t-35.5 -32.5t-49 -12zM352 748h-146l96 141h200
l96 -141h-146l-50 61zM402 -15q-81 0 -149.5 27t-118 76.5t-77.5 118.5t-28 152t28 152t77.5 118.5t118 76.5t149.5 27t149.5 -27t118 -76.5t77.5 -118.5t28 -152t-28 -152t-77.5 -118.5t-118 -76.5t-149.5 -27zM402 155q41 0 75 14.5t59 41.5t39 64.5t14 83.5t-14 83.5
t-39 64.5t-59 41.5t-75 14.5q-40 0 -74.5 -14.5t-59.5 -41.5t-39 -64.5t-14 -83.5t14 -83.5t39 -64.5t59.5 -41.5t74.5 -14.5z" />
    <glyph glyph-name="uni1ED7" unicode="&#x1ed7;" horiz-adv-x="650" 
d="M382 749q-36 0 -55 14t-31 28q-8 9 -16 15.5t-19 6.5q-13 0 -16.5 -17.5t-3.5 -40.5h-83q0 66 29.5 109t83.5 43q35 0 54.5 -14t32.5 -28q8 -10 16 -16.5t19 -6.5q13 0 15.5 17t2.5 42h84q0 -32 -7 -59.5t-21.5 -48t-35.5 -32.5t-49 -12zM277 577h-146l96 141h200
l96 -141h-146l-50 61zM325 -10q-65 0 -119.5 18.5t-93.5 53t-60.5 84t-21.5 113.5q0 63 21.5 113t60.5 84t93.5 52.5t119.5 18.5t119.5 -18.5t93.5 -52.5t60.5 -84t21.5 -113q0 -64 -21.5 -113.5t-60.5 -84t-93.5 -53t-119.5 -18.5zM325 130q54 0 85.5 35.5t31.5 93.5
q0 57 -31.5 92.5t-85.5 35.5t-85.5 -35.5t-31.5 -92.5q0 -58 31.5 -93.5t85.5 -35.5z" />
    <glyph glyph-name="uni1ED8" unicode="&#x1ed8;" horiz-adv-x="804" 
d="M206 748l96 141h200l96 -141h-146l-50 61l-50 -61h-146zM402 -15q-81 0 -149.5 27t-118 76.5t-77.5 118.5t-28 152t28 152t77.5 118.5t118 76.5t149.5 27t149.5 -27t118 -76.5t77.5 -118.5t28 -152t-28 -152t-77.5 -118.5t-118 -76.5t-149.5 -27zM402 155q41 0 75 14.5
t59 41.5t39 64.5t14 83.5t-14 83.5t-39 64.5t-59 41.5t-75 14.5q-40 0 -74.5 -14.5t-59.5 -41.5t-39 -64.5t-14 -83.5t14 -83.5t39 -64.5t59.5 -41.5t74.5 -14.5zM403 -250q-41 0 -69.5 28t-28.5 69q0 40 28.5 68t69.5 28q20 0 37 -7.5t30.5 -20.5t21 -30.5t7.5 -37.5
t-7.5 -38t-21 -31t-30.5 -20.5t-37 -7.5z" />
    <glyph glyph-name="uni1ED9" unicode="&#x1ed9;" horiz-adv-x="650" 
d="M131 577l96 141h200l96 -141h-146l-50 61l-50 -61h-146zM325 -10q-65 0 -119.5 18.5t-93.5 53t-60.5 84t-21.5 113.5q0 63 21.5 113t60.5 84t93.5 52.5t119.5 18.5t119.5 -18.5t93.5 -52.5t60.5 -84t21.5 -113q0 -64 -21.5 -113.5t-60.5 -84t-93.5 -53t-119.5 -18.5z
M325 130q54 0 85.5 35.5t31.5 93.5q0 57 -31.5 92.5t-85.5 35.5t-85.5 -35.5t-31.5 -92.5q0 -58 31.5 -93.5t85.5 -35.5zM328 -250q-41 0 -69.5 28t-28.5 69q0 40 28.5 68t69.5 28q20 0 37 -7.5t30.5 -20.5t21 -30.5t7.5 -37.5t-7.5 -38t-21 -31t-30.5 -20.5t-37 -7.5z" />
    <glyph glyph-name="uni1EDA" unicode="&#x1eda;" horiz-adv-x="804" 
d="M598 889l-118 -141h-156l86 141h188zM687 785h119v-90q0 -31 -8 -52t-21.5 -34.5t-30 -21t-33.5 -10.5q30 -45 46 -100t16 -118q0 -83 -28 -152t-77.5 -118.5t-118 -76.5t-149.5 -27t-149.5 27t-118 76.5t-77.5 118.5t-28 152t28 152t77.5 118.5t118 76.5t149.5 27
q72 0 134.5 -21.5t110.5 -61.5q23 2 31.5 14.5t8.5 50.5v70zM402 155q41 0 75 14.5t59 41.5t39 64.5t14 83.5t-14 83.5t-39 64.5t-59 41.5t-75 14.5q-40 0 -74.5 -14.5t-59.5 -41.5t-39 -64.5t-14 -83.5t14 -83.5t39 -64.5t59.5 -41.5t74.5 -14.5z" />
    <glyph glyph-name="uni1EDB" unicode="&#x1edb;" horiz-adv-x="650" 
d="M523 718l-118 -141h-156l86 141h188zM550 616h119v-90q0 -30 -8 -51t-20.5 -34.5t-28.5 -21t-33 -11.5q20 -30 30.5 -67t10.5 -82q0 -64 -21.5 -113.5t-60.5 -84t-93.5 -53t-119.5 -18.5t-119.5 18.5t-93.5 53t-60.5 84t-21.5 113.5q0 63 21.5 113t60.5 84t93.5 52.5
t119.5 18.5q105 0 179 -46q26 0 36 12.5t10 52.5v70zM325 130q54 0 85.5 35.5t31.5 93.5q0 57 -31.5 92.5t-85.5 35.5t-85.5 -35.5t-31.5 -92.5q0 -58 31.5 -93.5t85.5 -35.5z" />
    <glyph glyph-name="uni1EDC" unicode="&#x1edc;" horiz-adv-x="804" 
d="M480 748h-156l-118 141h188zM687 785h119v-90q0 -31 -8 -52t-21.5 -34.5t-30 -21t-33.5 -10.5q30 -45 46 -100t16 -118q0 -83 -28 -152t-77.5 -118.5t-118 -76.5t-149.5 -27t-149.5 27t-118 76.5t-77.5 118.5t-28 152t28 152t77.5 118.5t118 76.5t149.5 27
q72 0 134.5 -21.5t110.5 -61.5q23 2 31.5 14.5t8.5 50.5v70zM402 155q41 0 75 14.5t59 41.5t39 64.5t14 83.5t-14 83.5t-39 64.5t-59 41.5t-75 14.5q-40 0 -74.5 -14.5t-59.5 -41.5t-39 -64.5t-14 -83.5t14 -83.5t39 -64.5t59.5 -41.5t74.5 -14.5z" />
    <glyph glyph-name="uni1EDD" unicode="&#x1edd;" horiz-adv-x="650" 
d="M405 577h-156l-118 141h188zM550 616h119v-90q0 -30 -8 -51t-20.5 -34.5t-28.5 -21t-33 -11.5q20 -30 30.5 -67t10.5 -82q0 -64 -21.5 -113.5t-60.5 -84t-93.5 -53t-119.5 -18.5t-119.5 18.5t-93.5 53t-60.5 84t-21.5 113.5q0 63 21.5 113t60.5 84t93.5 52.5t119.5 18.5
q105 0 179 -46q26 0 36 12.5t10 52.5v70zM325 130q54 0 85.5 35.5t31.5 93.5q0 57 -31.5 92.5t-85.5 35.5t-85.5 -35.5t-31.5 -92.5q0 -58 31.5 -93.5t85.5 -35.5z" />
    <glyph glyph-name="uni1EDE" unicode="&#x1ede;" horiz-adv-x="804" 
d="M390 885q-12 0 -26.5 -4t-26.5 -14l-44 58q23 14 48.5 22.5t63.5 8.5q65 0 97.5 -24t32.5 -64q0 -19 -7 -32.5t-18.5 -22t-26 -14t-29.5 -8.5v-43h-105v71q44 5 61 15t17 25q0 26 -37 26zM687 785h119v-90q0 -31 -8 -52t-21.5 -34.5t-30 -21t-33.5 -10.5q30 -45 46 -100
t16 -118q0 -83 -28 -152t-77.5 -118.5t-118 -76.5t-149.5 -27t-149.5 27t-118 76.5t-77.5 118.5t-28 152t28 152t77.5 118.5t118 76.5t149.5 27q72 0 134.5 -21.5t110.5 -61.5q23 2 31.5 14.5t8.5 50.5v70zM402 155q41 0 75 14.5t59 41.5t39 64.5t14 83.5t-14 83.5t-39 64.5
t-59 41.5t-75 14.5q-40 0 -74.5 -14.5t-59.5 -41.5t-39 -64.5t-14 -83.5t14 -83.5t39 -64.5t59.5 -41.5t74.5 -14.5z" />
    <glyph glyph-name="uni1EDF" unicode="&#x1edf;" horiz-adv-x="650" 
d="M305 679q-12 0 -27.5 -4t-35.5 -14l-44 68q31 14 62.5 22.5t69.5 8.5q72 0 106 -24t34 -64q0 -19 -7 -32.5t-18.5 -22t-26 -14t-29.5 -8.5v-43h-125v61q44 5 61 15t17 25q0 26 -37 26zM550 616h119v-90q0 -30 -8 -51t-20.5 -34.5t-28.5 -21t-33 -11.5q20 -30 30.5 -67
t10.5 -82q0 -64 -21.5 -113.5t-60.5 -84t-93.5 -53t-119.5 -18.5t-119.5 18.5t-93.5 53t-60.5 84t-21.5 113.5q0 63 21.5 113t60.5 84t93.5 52.5t119.5 18.5q105 0 179 -46q26 0 36 12.5t10 52.5v70zM325 130q54 0 85.5 35.5t31.5 93.5q0 57 -31.5 92.5t-85.5 35.5
t-85.5 -35.5t-31.5 -92.5q0 -58 31.5 -93.5t85.5 -35.5z" />
    <glyph glyph-name="uni1EE0" unicode="&#x1ee0;" horiz-adv-x="804" 
d="M336 812q-13 0 -16.5 -17.5t-3.5 -40.5h-83q0 66 29.5 109t83.5 43q35 0 54.5 -14t32.5 -28q8 -10 16 -16.5t19 -6.5q13 0 15.5 17t2.5 42h84q0 -32 -7 -59.5t-21.5 -48t-35.5 -32.5t-49 -12q-36 0 -55 14t-31 28q-8 9 -16 15.5t-19 6.5zM687 785h119v-90q0 -31 -8 -52
t-21.5 -34.5t-30 -21t-33.5 -10.5q30 -45 46 -100t16 -118q0 -83 -28 -152t-77.5 -118.5t-118 -76.5t-149.5 -27t-149.5 27t-118 76.5t-77.5 118.5t-28 152t28 152t77.5 118.5t118 76.5t149.5 27q72 0 134.5 -21.5t110.5 -61.5q23 2 31.5 14.5t8.5 50.5v70zM402 155
q41 0 75 14.5t59 41.5t39 64.5t14 83.5t-14 83.5t-39 64.5t-59 41.5t-75 14.5q-40 0 -74.5 -14.5t-59.5 -41.5t-39 -64.5t-14 -83.5t14 -83.5t39 -64.5t59.5 -41.5t74.5 -14.5z" />
    <glyph glyph-name="uni1EE1" unicode="&#x1ee1;" horiz-adv-x="650" 
d="M261 632q-13 0 -16.5 -17.5t-3.5 -40.5h-83q0 66 29.5 109t83.5 43q35 0 54.5 -14t32.5 -28q8 -10 16 -16.5t19 -6.5q13 0 15.5 17t2.5 42h84q0 -32 -7 -59.5t-21.5 -48t-35.5 -32.5t-49 -12q-36 0 -55 14t-31 28q-8 9 -16 15.5t-19 6.5zM550 616h119v-90q0 -30 -8 -51
t-20.5 -34.5t-28.5 -21t-33 -11.5q20 -30 30.5 -67t10.5 -82q0 -64 -21.5 -113.5t-60.5 -84t-93.5 -53t-119.5 -18.5t-119.5 18.5t-93.5 53t-60.5 84t-21.5 113.5q0 63 21.5 113t60.5 84t93.5 52.5t119.5 18.5q105 0 179 -46q26 0 36 12.5t10 52.5v70zM325 130
q54 0 85.5 35.5t31.5 93.5q0 57 -31.5 92.5t-85.5 35.5t-85.5 -35.5t-31.5 -92.5q0 -58 31.5 -93.5t85.5 -35.5z" />
    <glyph glyph-name="uni1EE2" unicode="&#x1ee2;" horiz-adv-x="804" 
d="M687 785h119v-90q0 -31 -8 -52t-21.5 -34.5t-30 -21t-33.5 -10.5q30 -45 46 -100t16 -118q0 -83 -28 -152t-77.5 -118.5t-118 -76.5t-149.5 -27t-149.5 27t-118 76.5t-77.5 118.5t-28 152t28 152t77.5 118.5t118 76.5t149.5 27q72 0 134.5 -21.5t110.5 -61.5
q23 2 31.5 14.5t8.5 50.5v70zM402 155q41 0 75 14.5t59 41.5t39 64.5t14 83.5t-14 83.5t-39 64.5t-59 41.5t-75 14.5q-40 0 -74.5 -14.5t-59.5 -41.5t-39 -64.5t-14 -83.5t14 -83.5t39 -64.5t59.5 -41.5t74.5 -14.5zM403 -57q20 0 37 -7.5t30.5 -20.5t21 -30.5t7.5 -37.5
t-7.5 -38t-21 -31t-30.5 -20.5t-37 -7.5q-41 0 -69.5 28t-28.5 69q0 40 28.5 68t69.5 28z" />
    <glyph glyph-name="uni1EE3" unicode="&#x1ee3;" horiz-adv-x="650" 
d="M550 616h119v-90q0 -30 -8 -51t-20.5 -34.5t-28.5 -21t-33 -11.5q20 -30 30.5 -67t10.5 -82q0 -64 -21.5 -113.5t-60.5 -84t-93.5 -53t-119.5 -18.5t-119.5 18.5t-93.5 53t-60.5 84t-21.5 113.5q0 63 21.5 113t60.5 84t93.5 52.5t119.5 18.5q105 0 179 -46q26 0 36 12.5
t10 52.5v70zM325 130q54 0 85.5 35.5t31.5 93.5q0 57 -31.5 92.5t-85.5 35.5t-85.5 -35.5t-31.5 -92.5q0 -58 31.5 -93.5t85.5 -35.5zM328 -57q20 0 37 -7.5t30.5 -20.5t21 -30.5t7.5 -37.5t-7.5 -38t-21 -31t-30.5 -20.5t-37 -7.5q-41 0 -69.5 28t-28.5 69q0 40 28.5 68
t69.5 28z" />
    <glyph glyph-name="uni1EE4" unicode="&#x1ee4;" horiz-adv-x="694" 
d="M347 -15q-62 0 -116 15.5t-93.5 49t-62.5 85.5t-23 125v458h186v-433q0 -38 8.5 -63.5t23 -40.5t34.5 -21.5t43 -6.5t43 6.5t34.5 21.5t23 40.5t8.5 63.5v433h186v-458q0 -73 -23 -125t-62.5 -85.5t-93.5 -49t-116 -15.5zM347 -250q-41 0 -69.5 28t-28.5 69q0 40 28.5 68
t69.5 28q20 0 37 -7.5t30.5 -20.5t21 -30.5t7.5 -37.5t-7.5 -38t-21 -31t-30.5 -20.5t-37 -7.5z" />
    <glyph glyph-name="uni1EE5" unicode="&#x1ee5;" horiz-adv-x="648" 
d="M415 517h178v-517h-168l-7 56q-29 -31 -71.5 -48.5t-96.5 -17.5q-102 0 -151.5 47t-49.5 132v348h178v-310q0 -43 24.5 -59.5t56.5 -16.5q20 0 39 5t34 18t24.5 35.5t9.5 57.5v270zM328 -57q20 0 37 -7.5t30.5 -20.5t21 -30.5t7.5 -37.5t-7.5 -38t-21 -31t-30.5 -20.5
t-37 -7.5q-41 0 -69.5 28t-28.5 69q0 40 28.5 68t69.5 28z" />
    <glyph glyph-name="uni1EE6" unicode="&#x1ee6;" horiz-adv-x="694" 
d="M293 748v71q44 5 61 15t17 25q0 26 -37 26q-12 0 -26.5 -4t-26.5 -14l-44 58q23 14 48.5 22.5t63.5 8.5q65 0 97.5 -24t32.5 -64q0 -19 -7 -32.5t-18.5 -22t-26 -14t-29.5 -8.5v-43h-105zM347 -15q-62 0 -116 15.5t-93.5 49t-62.5 85.5t-23 125v458h186v-433
q0 -38 8.5 -63.5t23 -40.5t34.5 -21.5t43 -6.5t43 6.5t34.5 21.5t23 40.5t8.5 63.5v433h186v-458q0 -73 -23 -125t-62.5 -85.5t-93.5 -49t-116 -15.5z" />
    <glyph glyph-name="uni1EE7" unicode="&#x1ee7;" horiz-adv-x="648" 
d="M299 679q-12 0 -27.5 -4t-35.5 -14l-44 68q31 14 62.5 22.5t69.5 8.5q72 0 106 -24t34 -64q0 -19 -7 -32.5t-18.5 -22t-26 -14t-29.5 -8.5v-43h-125v61q44 5 61 15t17 25q0 26 -37 26zM415 517h178v-517h-168l-7 56q-29 -31 -71.5 -48.5t-96.5 -17.5q-102 0 -151.5 47
t-49.5 132v348h178v-310q0 -43 24.5 -59.5t56.5 -16.5q20 0 39 5t34 18t24.5 35.5t9.5 57.5v270z" />
    <glyph glyph-name="uni1EE8" unicode="&#x1ee8;" horiz-adv-x="694" 
d="M542 889l-118 -141h-156l86 141h188zM712 817h119v-90q0 -41 -14.5 -65.5t-35.5 -37t-44.5 -16t-41.5 -3.5q-24 0 -53 9v-354q0 -73 -23 -125t-62.5 -85.5t-93.5 -49t-116 -15.5t-116 15.5t-93.5 49t-62.5 85.5t-23 125v458h186v-433q0 -38 8.5 -63.5t23 -40.5
t34.5 -21.5t43 -6.5t43 6.5t34.5 21.5t23 40.5t8.5 63.5v433h186v-33q14 -3 22 -3q28 0 38 12t10 53v70z" />
    <glyph glyph-name="uni1EE9" unicode="&#x1ee9;" horiz-adv-x="648" 
d="M517 718l-118 -141h-156l86 141h188zM648 616h119v-90q0 -41 -14.5 -65.5t-35.5 -37t-44.5 -16t-41.5 -3.5q-15 0 -38 5v-409h-168l-7 56q-29 -31 -71.5 -48.5t-96.5 -17.5q-102 0 -151.5 47t-49.5 132v348h178v-310q0 -43 24.5 -59.5t56.5 -16.5q20 0 39 5t34 18
t24.5 35.5t9.5 57.5v270h178v-36h7q28 0 38 12t10 53v70z" />
    <glyph glyph-name="uni1EEA" unicode="&#x1eea;" horiz-adv-x="694" 
d="M424 748h-156l-118 141h188zM712 817h119v-90q0 -41 -14.5 -65.5t-35.5 -37t-44.5 -16t-41.5 -3.5q-24 0 -53 9v-354q0 -73 -23 -125t-62.5 -85.5t-93.5 -49t-116 -15.5t-116 15.5t-93.5 49t-62.5 85.5t-23 125v458h186v-433q0 -38 8.5 -63.5t23 -40.5t34.5 -21.5
t43 -6.5t43 6.5t34.5 21.5t23 40.5t8.5 63.5v433h186v-33q14 -3 22 -3q28 0 38 12t10 53v70z" />
    <glyph glyph-name="uni1EEB" unicode="&#x1eeb;" horiz-adv-x="648" 
d="M399 577h-156l-118 141h188zM648 616h119v-90q0 -41 -14.5 -65.5t-35.5 -37t-44.5 -16t-41.5 -3.5q-15 0 -38 5v-409h-168l-7 56q-29 -31 -71.5 -48.5t-96.5 -17.5q-102 0 -151.5 47t-49.5 132v348h178v-310q0 -43 24.5 -59.5t56.5 -16.5q20 0 39 5t34 18t24.5 35.5
t9.5 57.5v270h178v-36h7q28 0 38 12t10 53v70z" />
    <glyph glyph-name="uni1EEC" unicode="&#x1eec;" horiz-adv-x="694" 
d="M334 885q-12 0 -26.5 -4t-26.5 -14l-44 58q23 14 48.5 22.5t63.5 8.5q65 0 97.5 -24t32.5 -64q0 -19 -7 -32.5t-18.5 -22t-26 -14t-29.5 -8.5v-43h-105v71q44 5 61 15t17 25q0 26 -37 26zM712 817h119v-90q0 -41 -14.5 -65.5t-35.5 -37t-44.5 -16t-41.5 -3.5q-24 0 -53 9
v-354q0 -73 -23 -125t-62.5 -85.5t-93.5 -49t-116 -15.5t-116 15.5t-93.5 49t-62.5 85.5t-23 125v458h186v-433q0 -38 8.5 -63.5t23 -40.5t34.5 -21.5t43 -6.5t43 6.5t34.5 21.5t23 40.5t8.5 63.5v433h186v-33q14 -3 22 -3q28 0 38 12t10 53v70z" />
    <glyph glyph-name="uni1EED" unicode="&#x1eed;" horiz-adv-x="648" 
d="M299 679q-12 0 -27.5 -4t-35.5 -14l-44 68q31 14 62.5 22.5t69.5 8.5q72 0 106 -24t34 -64q0 -19 -7 -32.5t-18.5 -22t-26 -14t-29.5 -8.5v-43h-125v61q44 5 61 15t17 25q0 26 -37 26zM648 616h119v-90q0 -41 -14.5 -65.5t-35.5 -37t-44.5 -16t-41.5 -3.5q-15 0 -38 5
v-409h-168l-7 56q-29 -31 -71.5 -48.5t-96.5 -17.5q-102 0 -151.5 47t-49.5 132v348h178v-310q0 -43 24.5 -59.5t56.5 -16.5q20 0 39 5t34 18t24.5 35.5t9.5 57.5v270h178v-36h7q28 0 38 12t10 53v70z" />
    <glyph glyph-name="uni1EEE" unicode="&#x1eee;" horiz-adv-x="694" 
d="M280 812q-13 0 -16.5 -17.5t-3.5 -40.5h-83q0 66 29.5 109t83.5 43q35 0 54.5 -14t32.5 -28q8 -10 16 -16.5t19 -6.5q13 0 15.5 17t2.5 42h84q0 -32 -7 -59.5t-21.5 -48t-35.5 -32.5t-49 -12q-36 0 -55 14t-31 28q-8 9 -16 15.5t-19 6.5zM712 817h119v-90
q0 -41 -14.5 -65.5t-35.5 -37t-44.5 -16t-41.5 -3.5q-24 0 -53 9v-354q0 -73 -23 -125t-62.5 -85.5t-93.5 -49t-116 -15.5t-116 15.5t-93.5 49t-62.5 85.5t-23 125v458h186v-433q0 -38 8.5 -63.5t23 -40.5t34.5 -21.5t43 -6.5t43 6.5t34.5 21.5t23 40.5t8.5 63.5v433h186
v-33q14 -3 22 -3q28 0 38 12t10 53v70z" />
    <glyph glyph-name="uni1EEF" unicode="&#x1eef;" horiz-adv-x="648" 
d="M255 632q-13 0 -16.5 -17.5t-3.5 -40.5h-83q0 66 29.5 109t83.5 43q35 0 54.5 -14t32.5 -28q8 -10 16 -16.5t19 -6.5q13 0 15.5 17t2.5 42h84q0 -32 -7 -59.5t-21.5 -48t-35.5 -32.5t-49 -12q-36 0 -55 14t-31 28q-8 9 -16 15.5t-19 6.5zM648 616h119v-90
q0 -41 -14.5 -65.5t-35.5 -37t-44.5 -16t-41.5 -3.5q-15 0 -38 5v-409h-168l-7 56q-29 -31 -71.5 -48.5t-96.5 -17.5q-102 0 -151.5 47t-49.5 132v348h178v-310q0 -43 24.5 -59.5t56.5 -16.5q20 0 39 5t34 18t24.5 35.5t9.5 57.5v270h178v-36h7q28 0 38 12t10 53v70z" />
    <glyph glyph-name="uni1EF0" unicode="&#x1ef0;" horiz-adv-x="694" 
d="M712 817h119v-90q0 -41 -14.5 -65.5t-35.5 -37t-44.5 -16t-41.5 -3.5q-24 0 -53 9v-354q0 -73 -23 -125t-62.5 -85.5t-93.5 -49t-116 -15.5t-116 15.5t-93.5 49t-62.5 85.5t-23 125v458h186v-433q0 -38 8.5 -63.5t23 -40.5t34.5 -21.5t43 -6.5t43 6.5t34.5 21.5t23 40.5
t8.5 63.5v433h186v-33q14 -3 22 -3q28 0 38 12t10 53v70zM347 -57q20 0 37 -7.5t30.5 -20.5t21 -30.5t7.5 -37.5t-7.5 -38t-21 -31t-30.5 -20.5t-37 -7.5q-41 0 -69.5 28t-28.5 69q0 40 28.5 68t69.5 28z" />
    <glyph glyph-name="uni1EF1" unicode="&#x1ef1;" horiz-adv-x="648" 
d="M648 616h119v-90q0 -41 -14.5 -65.5t-35.5 -37t-44.5 -16t-41.5 -3.5q-15 0 -38 5v-409h-168l-7 56q-29 -31 -71.5 -48.5t-96.5 -17.5q-102 0 -151.5 47t-49.5 132v348h178v-310q0 -43 24.5 -59.5t56.5 -16.5q20 0 39 5t34 18t24.5 35.5t9.5 57.5v270h178v-36h7
q28 0 38 12t10 53v70zM328 -57q20 0 37 -7.5t30.5 -20.5t21 -30.5t7.5 -37.5t-7.5 -38t-21 -31t-30.5 -20.5t-37 -7.5q-41 0 -69.5 28t-28.5 69q0 40 28.5 68t69.5 28z" />
    <glyph glyph-name="Ygrave" unicode="&#x1ef2;" horiz-adv-x="649" 
d="M403 748h-156l-118 141h188zM654 718l-236 -375v-343h-186v340l-238 378h204l126 -212l127 212h203z" />
    <glyph glyph-name="ygrave" unicode="&#x1ef3;" horiz-adv-x="617" 
d="M392 577h-156l-118 141h188zM416 517h194l-325 -760h-194l124 275l-209 485h194l108 -300z" />
    <glyph glyph-name="uni1EF4" unicode="&#x1ef4;" horiz-adv-x="649" 
d="M232 0v340l-238 378h204l126 -212l127 212h203l-236 -375v-343h-186zM326 -57q20 0 37 -7.5t30.5 -20.5t21 -30.5t7.5 -37.5t-7.5 -38t-21 -31t-30.5 -20.5t-37 -7.5q-41 0 -69.5 28t-28.5 69q0 40 28.5 68t69.5 28z" />
    <glyph glyph-name="uni1EF5" unicode="&#x1ef5;" horiz-adv-x="617" 
d="M416 517h194l-325 -760h-194l124 275l-209 485h194l108 -300zM528 -57q20 0 37 -7.5t30.5 -20.5t21 -30.5t7.5 -37.5t-7.5 -38t-21 -31t-30.5 -20.5t-37 -7.5q-41 0 -69.5 28t-28.5 69q0 40 28.5 68t69.5 28z" />
    <glyph glyph-name="uni1EF6" unicode="&#x1ef6;" horiz-adv-x="649" 
d="M313 885q-12 0 -26.5 -4t-26.5 -14l-44 58q23 14 48.5 22.5t63.5 8.5q65 0 97.5 -24t32.5 -64q0 -19 -7 -32.5t-18.5 -22t-26 -14t-29.5 -8.5v-43h-105v71q44 5 61 15t17 25q0 26 -37 26zM654 718l-236 -375v-343h-186v340l-238 378h204l126 -212l127 212h203z" />
    <glyph glyph-name="uni1EF7" unicode="&#x1ef7;" horiz-adv-x="617" 
d="M292 679q-12 0 -27.5 -4t-35.5 -14l-44 68q31 14 62.5 22.5t69.5 8.5q72 0 106 -24t34 -64q0 -19 -7 -32.5t-18.5 -22t-26 -14t-29.5 -8.5v-43h-125v61q44 5 61 15t17 25q0 26 -37 26zM416 517h194l-325 -760h-194l124 275l-209 485h194l108 -300z" />
    <glyph glyph-name="uni1EF8" unicode="&#x1ef8;" horiz-adv-x="649" 
d="M259 812q-13 0 -16.5 -17.5t-3.5 -40.5h-83q0 66 29.5 109t83.5 43q35 0 54.5 -14t32.5 -28q8 -10 16 -16.5t19 -6.5q13 0 15.5 17t2.5 42h84q0 -32 -7 -59.5t-21.5 -48t-35.5 -32.5t-49 -12q-36 0 -55 14t-31 28q-8 9 -16 15.5t-19 6.5zM654 718l-236 -375v-343h-186
v340l-238 378h204l126 -212l127 212h203z" />
    <glyph glyph-name="uni1EF9" unicode="&#x1ef9;" horiz-adv-x="617" 
d="M248 632q-13 0 -16.5 -17.5t-3.5 -40.5h-83q0 66 29.5 109t83.5 43q35 0 54.5 -14t32.5 -28q8 -10 16 -16.5t19 -6.5q13 0 15.5 17t2.5 42h84q0 -32 -7 -59.5t-21.5 -48t-35.5 -32.5t-49 -12q-36 0 -55 14t-31 28q-8 9 -16 15.5t-19 6.5zM416 517h194l-325 -760h-194
l124 275l-209 485h194l108 -300z" />
    <glyph glyph-name="endash" unicode="&#x2013;" horiz-adv-x="500" 
d="M0 193v132h500v-132h-500z" />
    <glyph glyph-name="emdash" unicode="&#x2014;" horiz-adv-x="1000" 
d="M0 193v132h1000v-132h-1000z" />
    <glyph glyph-name="quoteleft" unicode="&#x2018;" horiz-adv-x="317" 
d="M29 388l118 330h126l-62 -330h-182z" />
    <glyph glyph-name="quoteright" unicode="&#x2019;" horiz-adv-x="317" 
d="M44 388l62 330h182l-118 -330h-126z" />
    <glyph glyph-name="quotesinglbase" unicode="&#x201a;" horiz-adv-x="341" 
d="M56 -182l62 330h182l-118 -330h-126z" />
    <glyph glyph-name="quotedblleft" unicode="&#x201c;" horiz-adv-x="570" 
d="M29 388l118 330h126l-62 -330h-182zM282 388l118 330h126l-62 -330h-182z" />
    <glyph glyph-name="quotedblright" unicode="&#x201d;" horiz-adv-x="570" 
d="M44 388l62 330h182l-118 -330h-126zM297 388l62 330h182l-118 -330h-126z" />
    <glyph glyph-name="quotedblbase" unicode="&#x201e;" horiz-adv-x="588" 
d="M56 -182l62 330h182l-118 -330h-126zM303 -182l62 330h182l-118 -330h-126z" />
    <glyph glyph-name="dagger" unicode="&#x2020;" horiz-adv-x="518" 
d="M474 555v-111h-126v-566h-178v566h-126v111h126v163h178v-163h126z" />
    <glyph glyph-name="daggerdbl" unicode="&#x2021;" horiz-adv-x="542" 
d="M486 444h-126v-282h126v-111h-126v-173h-178v173h-126v111h126v282h-126v111h126v163h178v-163h126v-111z" />
    <glyph glyph-name="bullet" unicode="&#x2022;" horiz-adv-x="505" 
d="M253 62q-40 0 -75.5 15t-62.5 41.5t-43 62.5t-16 77q0 40 16 75.5t43 62.5t62.5 43t75.5 16q39 0 74.5 -16t62.5 -43t43 -62.5t16 -75.5q0 -41 -16 -77t-43 -62.5t-62.5 -41.5t-74.5 -15z" />
    <glyph glyph-name="ellipsis" unicode="&#x2026;" horiz-adv-x="935" 
d="M164 -10q-19 0 -36.5 7.5t-31 21t-21 31t-7.5 36.5q0 20 7.5 37.5t21 31t31 21t36.5 7.5q20 0 37.5 -7.5t31 -21t21 -31t7.5 -37.5q0 -19 -7.5 -36.5t-21 -31t-31 -21t-37.5 -7.5zM467 -10q-19 0 -36.5 7.5t-31 21t-21 31t-7.5 36.5q0 20 7.5 37.5t21 31t31 21t36.5 7.5
q20 0 37.5 -7.5t31 -21t21 -31t7.5 -37.5q0 -19 -7.5 -36.5t-21 -31t-31 -21t-37.5 -7.5zM769 -10q-19 0 -36.5 7.5t-31 21t-21 31t-7.5 36.5q0 20 7.5 37.5t21 31t31 21t36.5 7.5q20 0 37.5 -7.5t31 -21t21 -31t7.5 -37.5q0 -19 -7.5 -36.5t-21 -31t-31 -21t-37.5 -7.5z
" />
    <glyph glyph-name="perthousand" unicode="&#x2030;" horiz-adv-x="1330" 
d="M227 368q-37 0 -70 14t-57.5 38.5t-38.5 57.5t-14 70t14 70t38.5 57.5t57.5 38.5t70 14q38 0 70.5 -14t57 -38.5t38.5 -57.5t14 -70t-14 -70t-38.5 -57.5t-57 -38.5t-70.5 -14zM201 0l371 718h145l-372 -718h-144zM227 483q29 0 47 18.5t18 46.5q0 27 -19.5 46t-45.5 19
q-27 0 -46 -18.5t-19 -46.5t19 -46.5t46 -18.5zM695 -8q-38 0 -71 14t-57.5 38.5t-38.5 57.5t-14 70q0 38 14 70.5t39 57t58 38.5t70 14t69.5 -14t57 -38.5t38.5 -57t14 -70.5q0 -37 -14 -70t-38.5 -57.5t-57 -38.5t-69.5 -14zM1104 -8q-38 0 -71 14t-57.5 38.5t-38.5 57.5
t-14 70q0 38 14 70.5t39 57t58 38.5t70 14t69.5 -14t57 -38.5t38.5 -57t14 -70.5q0 -37 -14 -70t-38.5 -57.5t-57 -38.5t-69.5 -14zM695 108q27 0 46 18.5t19 45.5q0 26 -19.5 45.5t-45.5 19.5q-28 0 -47 -18.5t-19 -46.5q0 -27 19 -45.5t47 -18.5zM1104 108q27 0 46 18.5
t19 45.5q0 26 -19.5 45.5t-45.5 19.5q-28 0 -47 -18.5t-19 -46.5q0 -27 19 -45.5t47 -18.5z" />
    <glyph glyph-name="guilsinglleft" unicode="&#x2039;" horiz-adv-x="343" 
d="M178 75l-152 184l152 184h140l-152 -184l152 -184h-140z" />
    <glyph glyph-name="guilsinglright" unicode="&#x203a;" horiz-adv-x="343" 
d="M165 75h-140l152 184l-152 184h140l152 -184z" />
    <glyph glyph-name="fraction" unicode="&#x2044;" horiz-adv-x="233" 
d="M-140 0l405 718h108l-405 -718h-108z" />
    <glyph glyph-name="uni2070" unicode="&#x2070;" horiz-adv-x="382" 
d="M191 398q-79 0 -121.5 54.5t-42.5 169.5q0 116 43 170.5t121 54.5t121 -54.5t43 -170.5q0 -115 -43 -169.5t-121 -54.5zM191 493q26 0 41.5 29.5t15.5 99.5t-15.5 99.5t-41.5 29.5t-42 -29.5t-16 -99.5t16 -99.5t42 -29.5z" />
    <glyph glyph-name="uni2074" unicode="&#x2074;" horiz-adv-x="378" 
d="M357 580v-94h-43v-79h-107v79h-193v94l136 258h164v-258h43zM109 580h98v187z" />
    <glyph glyph-name="uni2075" unicode="&#x2075;" horiz-adv-x="372" 
d="M196 688q73 0 113 -33t40 -102q0 -72 -42.5 -113.5t-117.5 -41.5q-71 0 -114.5 38.5t-43.5 104.5v9t1 8h105q-1 -2 -1 -7q0 -26 14.5 -42t40.5 -16q27 0 39.5 15t12.5 38q0 21 -9 32t-22 16t-27.5 6t-25.5 1h-116l12 237h273v-94h-174l-2 -56h44z" />
    <glyph glyph-name="uni2076" unicode="&#x2076;" horiz-adv-x="355" 
d="M201 694q29 0 54.5 -10t45 -29t31 -45.5t11.5 -58.5t-13.5 -60t-37 -48.5t-53.5 -32.5t-63 -12q-34 0 -64 12.5t-52 33.5t-34.5 49.5t-12.5 59.5q0 25 8.5 50.5t30.5 56.5l128 178h127l-107 -144h1zM239 553q1 27 -16 46t-48 19q-29 0 -45 -17.5t-17 -44.5
q-2 -24 13.5 -43.5t46.5 -19.5q29 0 46.5 18.5t19.5 41.5z" />
    <glyph glyph-name="uni2077" unicode="&#x2077;" horiz-adv-x="332" 
d="M13 838h309v-94l-182 -337h-123l190 337h-194v94z" />
    <glyph glyph-name="uni2078" unicode="&#x2078;" horiz-adv-x="370" 
d="M185 398q-35 0 -65 9.5t-51.5 27.5t-34 43.5t-12.5 57.5q0 37 16 64.5t44 44.5q-20 15 -31.5 35.5t-11.5 46.5q0 54 40.5 87t105.5 33q64 0 104.5 -33t40.5 -87q0 -26 -11.5 -46.5t-29.5 -35.5q27 -17 43 -44.5t16 -64.5q0 -32 -12 -57.5t-34 -43.5t-52 -27.5t-65 -9.5z
M185 675q20 0 34 13t14 35q0 21 -14 33.5t-34 12.5t-34 -12.5t-14 -33.5q0 -22 14 -35t34 -13zM185 493q24 0 40 15.5t16 40.5q0 26 -16 40.5t-40 14.5t-40 -14.5t-16 -40.5q0 -25 16 -40.5t40 -15.5z" />
    <glyph glyph-name="uni2079" unicode="&#x2079;" horiz-adv-x="355" 
d="M179 847q35 0 64.5 -12.5t51.5 -34t34.5 -49.5t12.5 -59q0 -26 -8.5 -51.5t-30.5 -55.5l-128 -178h-127l107 144h-1q-28 0 -54 10t-45.5 29t-31 45t-11.5 59q0 32 13.5 60t37 48.5t53.5 32.5t63 12zM116 691q-1 -26 16 -45t48 -19q29 0 45 17t17 44q2 25 -13.5 44.5
t-46.5 19.5q-29 0 -46.5 -18.5t-19.5 -42.5z" />
    <glyph glyph-name="uni2080" unicode="&#x2080;" horiz-adv-x="382" 
d="M191 -169q-79 0 -121.5 54.5t-42.5 169.5q0 116 43 170.5t121 54.5t121 -54.5t43 -170.5q0 -115 -43 -169.5t-121 -54.5zM191 -74q26 0 41.5 29.5t15.5 99.5t-15.5 99.5t-41.5 29.5t-42 -29.5t-16 -99.5t16 -99.5t42 -29.5z" />
    <glyph glyph-name="uni2081" unicode="&#x2081;" horiz-adv-x="267" 
d="M114 271h103v-431h-107v307l-96 -78v121z" />
    <glyph glyph-name="uni2082" unicode="&#x2082;" horiz-adv-x="360" 
d="M178 -66h158v-94h-312v80l170 173q15 14 22.5 27t7.5 28q0 37 -43 37q-52 0 -52 -59v-20l-106 11v19q0 68 41 106t112 38q67 0 110 -34t43 -94q0 -37 -13.5 -63.5t-40.5 -54.5z" />
    <glyph glyph-name="uni2083" unicode="&#x2083;" horiz-adv-x="363" 
d="M185 -169q-81 0 -123.5 41t-42.5 120h110q1 -27 11 -46.5t42 -19.5q27 0 39.5 14t12.5 37q0 18 -7 27.5t-15.5 14t-17 5t-11.5 0.5h-14v81h12q18 0 30.5 12t12.5 32q0 17 -11.5 27t-29.5 10q-23 0 -35.5 -15t-12.5 -44v-4l-108 10q0 72 41.5 109.5t111.5 37.5
q32 0 58 -9.5t45 -26t29.5 -38.5t10.5 -47q0 -36 -18.5 -58t-32.5 -29q12 -3 24 -10t22.5 -19t17 -30t6.5 -43q0 -63 -42.5 -101t-114.5 -38z" />
    <glyph glyph-name="uni2084" unicode="&#x2084;" horiz-adv-x="378" 
d="M357 13v-94h-43v-79h-107v79h-193v94l136 258h164v-258h43zM109 13h98v187z" />
    <glyph glyph-name="uni2085" unicode="&#x2085;" horiz-adv-x="372" 
d="M196 121q73 0 113 -33t40 -102q0 -72 -42.5 -113.5t-117.5 -41.5q-71 0 -114.5 38.5t-43.5 104.5v9t1 8h105q-1 -2 -1 -7q0 -26 14.5 -42t40.5 -16q27 0 39.5 15t12.5 38q0 21 -9 32t-22 16t-27.5 6t-25.5 1h-116l12 237h273v-94h-174l-2 -56h44z" />
    <glyph glyph-name="uni2086" unicode="&#x2086;" horiz-adv-x="355" 
d="M201 127q29 0 54.5 -10t45 -29t31 -45.5t11.5 -58.5t-13.5 -60t-37 -48.5t-53.5 -32.5t-63 -12q-34 0 -64 12.5t-52 33.5t-34.5 49t-12.5 60q0 25 8.5 50.5t30.5 56.5l128 178h127l-107 -144h1zM239 -14q1 27 -16 46t-48 19q-29 0 -45 -17.5t-17 -44.5q-2 -24 13.5 -43.5
t46.5 -19.5q29 0 46.5 18.5t19.5 41.5z" />
    <glyph glyph-name="uni2087" unicode="&#x2087;" horiz-adv-x="332" 
d="M13 271h309v-94l-182 -337h-123l190 337h-194v94z" />
    <glyph glyph-name="uni2088" unicode="&#x2088;" horiz-adv-x="371" 
d="M186 -169q-35 0 -65 9.5t-51.5 27.5t-34 43.5t-12.5 57.5q0 37 16 64.5t44 44.5q-20 15 -31.5 35.5t-11.5 46.5q0 54 40.5 87t105.5 33q64 0 104.5 -33t40.5 -87q0 -26 -11.5 -46.5t-29.5 -35.5q27 -17 43 -44.5t16 -64.5q0 -32 -12 -57.5t-34 -43.5t-52 -27.5t-65 -9.5z
M186 108q20 0 34 13t14 35q0 21 -14 33.5t-34 12.5t-34 -12.5t-14 -33.5q0 -22 14 -35t34 -13zM186 -74q24 0 40 15.5t16 40.5q0 26 -16 40.5t-40 14.5t-40 -14.5t-16 -40.5q0 -25 16 -40.5t40 -15.5z" />
    <glyph glyph-name="uni2089" unicode="&#x2089;" horiz-adv-x="355" 
d="M179 280q35 0 64.5 -12.5t51.5 -34t34.5 -49.5t12.5 -59q0 -26 -8.5 -51.5t-30.5 -55.5l-128 -178h-127l107 144h-1q-28 0 -54 10t-45.5 29t-31 45t-11.5 59q0 32 13.5 60t37 48.5t53.5 32.5t63 12zM116 124q-1 -26 16 -45t48 -19q29 0 45 17t17 44q2 25 -13.5 44.5
t-46.5 19.5q-29 0 -46.5 -18.5t-19.5 -42.5z" />
    <glyph glyph-name="Euro" unicode="&#x20ac;" horiz-adv-x="781" 
d="M436 157q54 0 86.5 28t48.5 75l160 -95q-43 -78 -118 -126.5t-176 -48.5q-56 0 -106 16t-90.5 48t-69.5 79.5t-43 109.5h-67v91h56q-1 7 -1 13v13v13t1 13h-56v91h67q15 62 44 109t69.5 78.5t90 47.5t105.5 16q101 0 176 -47.5t118 -125.5l-160 -95q-17 50 -50.5 76.5
t-84.5 26.5q-40 0 -71.5 -19t-48.5 -67h165v-91h-180q-1 -6 -1 -12.5v-13.5v-13.5t1 -12.5h180v-91h-165q17 -48 48.5 -67t71.5 -19z" />
    <glyph glyph-name="uni2113" unicode="&#x2113;" horiz-adv-x="609" 
d="M329 -10q-90 0 -140 36t-59 117l-47 -32l-44 85l87 63v214q0 68 15 116t42.5 79t65.5 45.5t84 14.5q43 0 74.5 -13t51.5 -35.5t30 -53.5t10 -68q0 -86 -54 -163t-152 -161v-35q0 -32 22 -51.5t57 -19.5q38 0 71.5 25.5t58.5 59.5l69 -73q-24 -42 -52.5 -71t-60 -46.5
t-64.5 -25t-65 -7.5zM294 379q43 47 67.5 96.5t24.5 87.5q0 23 -9.5 37.5t-28.5 14.5q-23 0 -38.5 -25.5t-15.5 -96.5v-114z" />
    <glyph glyph-name="uni2116" unicode="&#x2116;" horiz-adv-x="1440" 
d="M1110 191q-61 0 -112 19.5t-87.5 54.5t-56.5 85t-20 110t20 109.5t56 84.5t87 54.5t113 19.5t112.5 -19.5t86.5 -54.5t56 -84.5t20 -109.5t-20 -110t-56.5 -85t-87 -54.5t-111.5 -19.5zM588 268v450h186v-718h-221l-274 453v-453h-186v718h219zM1108 580q-45 0 -69.5 -31
t-24.5 -89t24.5 -89t69.5 -31q47 0 72 31t25 89t-25 89t-72 31zM884 0v112h451v-112h-451z" />
    <glyph glyph-name="trademark" unicode="&#x2122;" horiz-adv-x="737" 
d="M90 359v278h-82v81h255v-81h-81v-278h-92zM282 359l32 359h136l56 -183l57 183h135l31 -359h-93l-23 253l-76 -253h-62l-76 255l-23 -255h-94z" />
    <glyph glyph-name="estimated" unicode="&#x212e;" horiz-adv-x="952" 
d="M480 -9q-88 0 -166 30t-136 82t-91.5 122t-33.5 149q0 80 33.5 150.5t91.5 123t136 82.5t166 30q89 0 167 -30t136 -82.5t91.5 -123t33.5 -150.5v-10h-692q-6 0 -6 -4v-210q0 -11 9 -24q51 -52 118 -83t144 -31q84 0 154.5 34.5t121.5 93.5h61q-57 -68 -145.5 -108.5
t-192.5 -40.5zM747 385q4 0 4 7v210q0 7 -2.5 13.5t-7.5 11.5q-51 50 -117 80t-143 30q-76 0 -143 -31t-118 -82q-10 -12 -10 -26v-206q0 -7 6 -7h531z" />
    <glyph glyph-name="oneeighth" unicode="&#x215b;" horiz-adv-x="870" 
d="M217 287h-107v307l-96 -78v121l100 81h103v-431zM532 718h108l-405 -718h-108zM789 238q27 -17 43 -44.5t16 -64.5q0 -32 -12 -57.5t-34 -43.5t-52 -27.5t-65 -9.5t-65 9.5t-51.5 27.5t-34 43.5t-12.5 57.5q0 37 16 64.5t44 44.5q-20 15 -31.5 35.5t-11.5 46.5
q0 54 40.5 87t105.5 33q64 0 104.5 -33t40.5 -87q0 -26 -11.5 -46.5t-29.5 -35.5zM685 362q-20 0 -34 -12.5t-14 -33.5q0 -22 14 -35t34 -13t34 13t14 35q0 21 -14 33.5t-34 12.5zM685 86q24 0 40 15.5t16 40.5q0 26 -16 40.5t-40 14.5t-40 -14.5t-16 -40.5q0 -25 16 -40.5
t40 -15.5z" />
    <glyph glyph-name="threeeighths" unicode="&#x215c;" horiz-adv-x="966" 
d="M185 278q-81 0 -123.5 41t-42.5 120h110q1 -27 11 -46.5t42 -19.5q27 0 39.5 14t12.5 37q0 18 -7 27.5t-15.5 14t-17 5t-11.5 0.5h-14v81h12q18 0 30.5 12t12.5 32q0 17 -11.5 27t-29.5 10q-23 0 -35.5 -15t-12.5 -44v-4l-108 10q0 72 41.5 109.5t111.5 37.5
q32 0 58 -9.5t45 -26t29.5 -38.5t10.5 -47q0 -36 -18.5 -58t-32.5 -29q12 -3 24 -10t22.5 -19t17 -30t6.5 -43q0 -63 -42.5 -101t-114.5 -38zM223 0l405 718h108l-405 -718h-108zM781 -9q-35 0 -65 9.5t-51.5 27.5t-34 43.5t-12.5 57.5q0 37 16 64.5t44 44.5
q-20 15 -31.5 35.5t-11.5 46.5q0 54 40.5 87t105.5 33q64 0 104.5 -33t40.5 -87q0 -26 -11.5 -46.5t-29.5 -35.5q27 -17 43 -44.5t16 -64.5q0 -32 -12 -57.5t-34 -43.5t-52 -27.5t-65 -9.5zM781 268q20 0 34 13t14 35q0 21 -14 33.5t-34 12.5t-34 -12.5t-14 -33.5
q0 -22 14 -35t34 -13zM781 86q24 0 40 15.5t16 40.5q0 26 -16 40.5t-40 14.5t-40 -14.5t-16 -40.5q0 -25 16 -40.5t40 -15.5z" />
    <glyph glyph-name="fiveeighths" unicode="&#x215d;" horiz-adv-x="975" 
d="M349 433q0 -72 -42.5 -113.5t-117.5 -41.5q-71 0 -114.5 38.5t-43.5 104.5v9t1 8h105q-1 -2 -1 -7q0 -26 14.5 -42t40.5 -16q27 0 39.5 15t12.5 38q0 21 -9 32t-22 16t-27.5 6t-25.5 1h-116l12 237h273v-94h-174l-2 -56h44q73 0 113 -33t40 -102zM637 718h108l-405 -718
h-108zM894 238q27 -17 43 -44.5t16 -64.5q0 -32 -12 -57.5t-34 -43.5t-52 -27.5t-65 -9.5t-65 9.5t-51.5 27.5t-34 43.5t-12.5 57.5q0 37 16 64.5t44 44.5q-20 15 -31.5 35.5t-11.5 46.5q0 54 40.5 87t105.5 33q64 0 104.5 -33t40.5 -87q0 -26 -11.5 -46.5t-29.5 -35.5z
M790 362q-20 0 -34 -12.5t-14 -33.5q0 -22 14 -35t34 -13t34 13t14 35q0 21 -14 33.5t-34 12.5zM790 86q24 0 40 15.5t16 40.5q0 26 -16 40.5t-40 14.5t-40 -14.5t-16 -40.5q0 -25 16 -40.5t40 -15.5z" />
    <glyph glyph-name="seveneighths" unicode="&#x215e;" horiz-adv-x="865" 
d="M140 287h-123l190 337h-194v94h309v-94zM527 718h108l-405 -718h-108zM784 238q27 -17 43 -44.5t16 -64.5q0 -32 -12 -57.5t-34 -43.5t-52 -27.5t-65 -9.5t-65 9.5t-51.5 27.5t-34 43.5t-12.5 57.5q0 37 16 64.5t44 44.5q-20 15 -31.5 35.5t-11.5 46.5q0 54 40.5 87
t105.5 33q64 0 104.5 -33t40.5 -87q0 -26 -11.5 -46.5t-29.5 -35.5zM680 362q-20 0 -34 -12.5t-14 -33.5q0 -22 14 -35t34 -13t34 13t14 35q0 21 -14 33.5t-34 12.5zM680 86q24 0 40 15.5t16 40.5q0 26 -16 40.5t-40 14.5t-40 -14.5t-16 -40.5q0 -25 16 -40.5t40 -15.5z" />
    <glyph glyph-name="arrowleft" unicode="&#x2190;" horiz-adv-x="766" 
d="M178 75l-152 184l152 184h140l-97 -118h545v-132h-545l97 -118h-140z" />
    <glyph glyph-name="arrowup" unicode="&#x2191;" horiz-adv-x="439" 
d="M219 718l184 -152v-140l-118 97v-523h-132v523l-118 -97v140z" />
    <glyph glyph-name="arrowright" unicode="&#x2192;" horiz-adv-x="766" 
d="M588 75h-140l97 118h-545v132h545l-97 118h140l152 -184z" />
    <glyph glyph-name="arrowdown" unicode="&#x2193;" horiz-adv-x="439" 
d="M219 0l-184 152v140l118 -97v523h132v-523l118 97v-140z" />
    <glyph glyph-name="arrowboth" unicode="&#x2194;" horiz-adv-x="995" 
d="M813 443l152 -184l-152 -184h-140l97 118h-545l97 -118h-140l-152 184l152 184h140l-97 -118h545l-97 118h140z" />
    <glyph glyph-name="arrowupdn" unicode="&#x2195;" horiz-adv-x="439" 
d="M219 0l-184 152v140l118 -97v328l-118 -97v140l184 152l184 -152v-140l-118 97v-328l118 97v-140z" />
    <glyph glyph-name="uni2196" unicode="&#x2196;" horiz-adv-x="714" 
d="M678 600v-600h-132v468h-313l97 -118h-140l-152 184l152 184h140l-97 -118h445z" />
    <glyph glyph-name="uni2197" unicode="&#x2197;" horiz-adv-x="714" 
d="M524 718l152 -184l-152 -184h-140l97 118h-313v-468h-132v600h445l-97 118h140z" />
    <glyph glyph-name="uni2198" unicode="&#x2198;" horiz-adv-x="714" 
d="M524 368l152 -184l-152 -184h-140l97 118h-445v600h132v-468h313l-97 118h140z" />
    <glyph glyph-name="uni2199" unicode="&#x2199;" horiz-adv-x="714" 
d="M546 718h132v-600h-445l97 -118h-140l-152 184l152 184h140l-97 -118h313v468z" />
    <glyph glyph-name="partialdiff" unicode="&#x2202;" horiz-adv-x="693" 
d="M585 431q26 -34 41.5 -76.5t15.5 -95.5q0 -64 -21.5 -113.5t-60.5 -84t-93.5 -53t-119.5 -18.5t-119.5 18.5t-93.5 53t-60.5 84t-21.5 113.5q0 60 19 107.5t53.5 81.5t83.5 54t108 24l-178 224h199zM347 129q54 0 86 36t32 94q0 57 -32 93t-86 36t-86 -36t-32 -93
q0 -58 32 -94t86 -36z" />
    <glyph glyph-name="emptyset" unicode="&#x2205;" horiz-adv-x="876" 
d="M826 677l-95 -95q36 -47 56 -103t20 -119q0 -76 -29 -144t-79.5 -118t-117.5 -79.5t-143 -29.5q-63 0 -119.5 20t-104.5 56l-95 -95l-70 70l95 95q-35 48 -55.5 105t-20.5 120q0 76 29.5 143t79.5 117t117.5 79t143.5 29q63 0 119.5 -20t103.5 -56l95 95zM217 360
q0 -65 34 -118l304 304q-26 16 -55.5 24.5t-61.5 8.5q-45 0 -85.5 -17t-70.5 -47t-47.5 -70t-17.5 -85zM658 360q0 32 -8.5 61t-24.5 55l-304 -304q26 -16 55.5 -24.5t61.5 -8.5q45 0 85 17.5t70 47.5t47.5 70t17.5 86z" />
    <glyph glyph-name="product" unicode="&#x220f;" horiz-adv-x="837" 
d="M118 0v545h-69v173h739v-173h-68v-545h-173v545h-255v-545h-174z" />
    <glyph glyph-name="summation" unicode="&#x2211;" horiz-adv-x="701" 
d="M638 718v-157h-349l274 -202l-274 -202h349v-157h-566v208l211 148l-211 154v208h566z" />
    <glyph glyph-name="minus" unicode="&#x2212;" horiz-adv-x="560" 
d="M55 193v132h450v-132h-450z" />
    <glyph glyph-name="radical" unicode="&#x221a;" horiz-adv-x="809" 
d="M606 750h166l-356 -750h-149l-120 369h-99v148h214l89 -301z" />
    <glyph glyph-name="infinity" unicode="&#x221e;" horiz-adv-x="848" 
d="M246 75q-39 0 -72.5 14t-57.5 38.5t-37.5 58t-13.5 73.5t13.5 73.5t37.5 58t57.5 38t72.5 13.5q46 0 89.5 -20.5t88.5 -65.5q45 45 88.5 65.5t89.5 20.5q39 0 72.5 -13.5t57.5 -38t37.5 -58t13.5 -73.5t-13.5 -73.5t-37.5 -58t-57.5 -38.5t-72.5 -14q-46 0 -89 20.5
t-89 64.5q-46 -44 -89 -64.5t-89 -20.5zM245 208q38 0 89 51q-51 50 -89 50q-46 0 -46 -50q0 -51 46 -51zM603 208q46 0 46 51q0 50 -46 50q-38 0 -89 -50q51 -51 89 -51z" />
    <glyph glyph-name="integral" unicode="&#x222b;" horiz-adv-x="472" 
d="M42 -210v140h30q8 0 20.5 0.5t24.5 7t21 21t9 41.5v540q0 69 19 110.5t52.5 63.5t80 29t101.5 7h30v-140h-30q-8 0 -20.5 -0.5t-24.5 -7t-21 -21t-9 -41.5v-540q0 -69 -19 -110.5t-52.5 -63.5t-80 -29t-101.5 -7h-30z" />
    <glyph glyph-name="approxequal" unicode="&#x2248;" horiz-adv-x="635" 
d="M418 281q-32 0 -57 9.5t-43.5 22t-31 26t-20.5 20.5q-13 13 -21 14t-13 1q-27 0 -40.5 -24.5t-13.5 -62.5h-123q0 47 12 86t34.5 67t56 43t76.5 15q40 0 71 -15.5t63 -56.5q5 -7 14 -16t26 -9q21 0 36 21.5t15 63.5h121q0 -43 -10.5 -80.5t-31 -65.5t-51 -43.5
t-69.5 -15.5zM418 20q-32 0 -57 9.5t-43.5 22.5t-31.5 26.5t-20 20.5q-8 8 -15 11.5t-19 2.5q-29 -2 -41.5 -25.5t-12.5 -61.5h-123q0 97 47 154.5t132 57.5q38 0 68.5 -16t65.5 -56q5 -5 14 -15.5t26 -10.5q21 0 36 21t15 65h121q0 -43 -10.5 -80.5t-31 -65.5t-51 -44
t-69.5 -16z" />
    <glyph glyph-name="notequal" unicode="&#x2260;" horiz-adv-x="640" 
d="M66 -89l86 170h-97v132h164l47 92h-211v132h278l69 136h131l-69 -136h121v-132h-188l-47 -92h235v-132h-302l-86 -170h-131z" />
    <glyph glyph-name="lessequal" unicode="&#x2264;" horiz-adv-x="496" 
d="M441 607v-142l-205 -77l205 -77v-143l-386 165v111zM55 11v132h386v-132h-386z" />
    <glyph glyph-name="greaterequal" unicode="&#x2265;" horiz-adv-x="496" 
d="M55 607l386 -163v-111l-386 -165v143l205 77l-205 77v142zM55 11v132h386v-132h-386z" />
    <glyph glyph-name="lozenge" unicode="&#x25ca;" horiz-adv-x="679" 
d="M340 52l-302 301l302 302l301 -301zM340 247l106 107l-106 106l-107 -107z" />
    <glyph glyph-name="heart" unicode="&#x2665;" horiz-adv-x="726" 
d="M363 -10q-92 71 -156 128.5t-103.5 107t-57 94t-17.5 88.5q0 75 46 121t121 46q60 0 102.5 -33t58.5 -90h12q16 57 58.5 90t102.5 33q75 0 121 -46t46 -121q0 -44 -17.5 -88.5t-57 -94t-103.5 -107t-156 -128.5z" />
    <glyph glyph-name="uniF8FF" unicode="&#xf8ff;" horiz-adv-x="868" 
d="M434 0q-78 0 -147.5 30t-121 81.5t-81.5 121t-30 147.5q0 79 30 148t81.5 120.5t121 81.5t147.5 30q79 0 148 -30t120.5 -81.5t81.5 -120.5t30 -148q0 -78 -30 -147.5t-81.5 -121t-120.5 -81.5t-148 -30zM434 36q71 0 134 27t109.5 74t73.5 109.5t27 133.5t-27 134
t-73.5 109.5t-109.5 73.5t-134 27t-133.5 -27t-109.5 -73.5t-74 -109.5t-27 -134t27 -133.5t74 -109.5t109.5 -74t133.5 -27zM633 217q-7 0 -12 6l-145 144q-12 14 0 26l145 145q13 13 25 0q5 -5 5 -13t-5 -13l-132 -132l132 -132q5 -5 5 -12t-5 -13q-4 -6 -13 -6zM235 217
q-8 0 -13 5t-5 13v290q0 8 5 13t13 5t13 -5t5 -13v-290q0 -8 -5 -13t-13 -5zM434 217q-8 0 -13 5t-5 13v290q0 8 5 13t13 5t13 -5t5 -13v-290q0 -8 -5 -13t-13 -5zM289 362q-8 0 -13 5t-5 13t5 13t13 5h91q8 0 13 -5t5 -13t-5 -13t-13 -5h-91z" />
    <glyph glyph-name="G.ss05" horiz-adv-x="786" 
d="M405 -15q-85 0 -154 27t-118.5 76.5t-76.5 118t-27 150.5q0 84 28 153.5t77.5 119t118 76.5t149.5 27q109 0 192 -47.5t131 -127.5l-163 -87q-24 50 -65 74t-95 24q-40 0 -74.5 -14t-59.5 -40t-39 -64.5t-14 -88.5q0 -46 13 -85.5t38.5 -68t64 -44.5t89.5 -16q25 0 51 6
t48 19t37.5 34t20.5 51h-167v147h347v-84q0 -92 -31 -156t-80.5 -104t-112.5 -58t-128 -18z" />
    <glyph glyph-name="Gbreve.ss05" horiz-adv-x="786" 
d="M399 748q-42 0 -76 6t-58.5 21.5t-38 43t-13.5 70.5h110q0 -30 17.5 -42.5t58.5 -12.5q42 0 59.5 12.5t17.5 42.5h110q0 -43 -13.5 -70.5t-38 -43t-59 -21.5t-76.5 -6zM405 -15q-85 0 -154 27t-118.5 76.5t-76.5 118t-27 150.5q0 84 28 153.5t77.5 119t118 76.5t149.5 27
q109 0 192 -47.5t131 -127.5l-163 -87q-24 50 -65 74t-95 24q-40 0 -74.5 -14t-59.5 -40t-39 -64.5t-14 -88.5q0 -46 13 -85.5t38.5 -68t64 -44.5t89.5 -16q25 0 51 6t48 19t37.5 34t20.5 51h-167v147h347v-84q0 -92 -31 -156t-80.5 -104t-112.5 -58t-128 -18z" />
    <glyph glyph-name="Gdotaccent.ss05" horiz-adv-x="786" 
d="M401 750q-41 0 -69.5 28t-28.5 69q0 40 28.5 68t69.5 28q20 0 37 -7.5t30.5 -20.5t21 -30.5t7.5 -37.5t-7.5 -38t-21 -31t-30.5 -20.5t-37 -7.5zM405 -15q-85 0 -154 27t-118.5 76.5t-76.5 118t-27 150.5q0 84 28 153.5t77.5 119t118 76.5t149.5 27q109 0 192 -47.5
t131 -127.5l-163 -87q-24 50 -65 74t-95 24q-40 0 -74.5 -14t-59.5 -40t-39 -64.5t-14 -88.5q0 -46 13 -85.5t38.5 -68t64 -44.5t89.5 -16q25 0 51 6t48 19t37.5 34t20.5 51h-167v147h347v-84q0 -92 -31 -156t-80.5 -104t-112.5 -58t-128 -18z" />
    <glyph glyph-name="IJacute" horiz-adv-x="799" 
d="M74 748l86 141h188l-118 -141h-156zM573 748l86 141h188l-118 -141h-156zM60 0v718h186v-718h-186zM518 -15q-52 0 -102.5 13t-108.5 46l78 152q28 -20 53 -30t55 -10q35 0 50 20.5t15 79.5v462h186v-498q0 -58 -16.5 -102t-46.5 -73.5t-71.5 -44.5t-91.5 -15z" />
    <glyph glyph-name="M.ss03" horiz-adv-x="936" 
d="M581 718h295v-718h-186v535l-161 -535h-123l-160 535v-535h-186v718h295l112 -367z" />
    <glyph glyph-name="Q.ss04" horiz-adv-x="804" 
d="M775 359q0 -77 -23.5 -141.5t-66.5 -112.5l85 -105l-160 -62l-64 72q-32 -12 -68.5 -18.5t-75.5 -6.5q-81 0 -149.5 27t-118 76.5t-77.5 118.5t-28 152q0 84 28 152.5t77.5 118t118 76.5t149.5 27t149.5 -27t118 -76.5t77.5 -118t28 -152.5zM214 359q0 -46 14 -84
t39.5 -65t60 -41.5t74.5 -14.5q22 0 39 4l-107 122l163 56l69 -85q25 48 25 108q0 46 -14.5 84t-39.5 65t-59.5 41.5t-75.5 14.5q-40 0 -74.5 -14.5t-60 -41.5t-39.5 -65t-14 -84z" />
    <glyph glyph-name="a.ss02" horiz-adv-x="661" 
d="M438 517h168v-517h-168l-6 47q-22 -29 -61 -43t-87 -14q-52 0 -98 17.5t-80.5 51.5t-54.5 84t-20 114q0 65 20 115t54.5 84.5t80.5 52.5t98 18q48 0 87 -15t61 -44zM323 136q48 0 80.5 30.5t32.5 90.5t-32.5 92t-80.5 32t-81 -32t-33 -92t33 -90.5t81 -30.5z" />
    <glyph glyph-name="aacute.ss02" horiz-adv-x="661" 
d="M527 718l-118 -141h-156l86 141h188zM438 517h168v-517h-168l-6 47q-22 -29 -61 -43t-87 -14q-52 0 -98 17.5t-80.5 51.5t-54.5 84t-20 114q0 65 20 115t54.5 84.5t80.5 52.5t98 18q48 0 87 -15t61 -44zM323 136q48 0 80.5 30.5t32.5 90.5t-32.5 92t-80.5 32t-81 -32
t-33 -92t33 -90.5t81 -30.5z" />
    <glyph glyph-name="abreve.ss02" horiz-adv-x="661" 
d="M331 567q-42 0 -76 7.5t-58.5 25t-38 46.5t-13.5 72h125q0 -29 14.5 -45t46.5 -16q33 0 47.5 16t14.5 45h125q0 -43 -13.5 -72t-38 -46.5t-59 -25t-76.5 -7.5zM438 517h168v-517h-168l-6 47q-22 -29 -61 -43t-87 -14q-52 0 -98 17.5t-80.5 51.5t-54.5 84t-20 114
q0 65 20 115t54.5 84.5t80.5 52.5t98 18q48 0 87 -15t61 -44zM323 136q48 0 80.5 30.5t32.5 90.5t-32.5 92t-80.5 32t-81 -32t-33 -92t33 -90.5t81 -30.5z" />
    <glyph glyph-name="acircumflex.ss02" horiz-adv-x="661" 
d="M331 638l-50 -61h-146l96 141h200l96 -141h-146zM438 517h168v-517h-168l-6 47q-22 -29 -61 -43t-87 -14q-52 0 -98 17.5t-80.5 51.5t-54.5 84t-20 114q0 65 20 115t54.5 84.5t80.5 52.5t98 18q48 0 87 -15t61 -44zM323 136q48 0 80.5 30.5t32.5 90.5t-32.5 92t-80.5 32
t-81 -32t-33 -92t33 -90.5t81 -30.5z" />
    <glyph glyph-name="acutecomb.case" 
d="M-334 748l86 141h188l-118 -141h-156z" />
    <glyph glyph-name="adieresis.ss02" horiz-adv-x="661" 
d="M217 567q-41 0 -69.5 28t-28.5 69q0 40 28.5 68t69.5 28q20 0 37 -7.5t30.5 -20.5t21 -30.5t7.5 -37.5t-7.5 -38t-21 -31t-30.5 -20.5t-37 -7.5zM446 567q-41 0 -69.5 28t-28.5 69q0 40 28.5 68t69.5 28q20 0 37 -7.5t30.5 -20.5t21 -30.5t7.5 -37.5t-7.5 -38t-21 -31
t-30.5 -20.5t-37 -7.5zM438 517h168v-517h-168l-6 47q-22 -29 -61 -43t-87 -14q-52 0 -98 17.5t-80.5 51.5t-54.5 84t-20 114q0 65 20 115t54.5 84.5t80.5 52.5t98 18q48 0 87 -15t61 -44zM323 136q48 0 80.5 30.5t32.5 90.5t-32.5 92t-80.5 32t-81 -32t-33 -92t33 -90.5
t81 -30.5z" />
    <glyph glyph-name="agrave.ss02" horiz-adv-x="661" 
d="M409 577h-156l-118 141h188zM438 517h168v-517h-168l-6 47q-22 -29 -61 -43t-87 -14q-52 0 -98 17.5t-80.5 51.5t-54.5 84t-20 114q0 65 20 115t54.5 84.5t80.5 52.5t98 18q48 0 87 -15t61 -44zM323 136q48 0 80.5 30.5t32.5 90.5t-32.5 92t-80.5 32t-81 -32t-33 -92
t33 -90.5t81 -30.5z" />
    <glyph glyph-name="amacron.ss02" horiz-adv-x="661" 
d="M481 702v-111h-300v111h300zM438 517h168v-517h-168l-6 47q-22 -29 -61 -43t-87 -14q-52 0 -98 17.5t-80.5 51.5t-54.5 84t-20 114q0 65 20 115t54.5 84.5t80.5 52.5t98 18q48 0 87 -15t61 -44zM323 136q48 0 80.5 30.5t32.5 90.5t-32.5 92t-80.5 32t-81 -32t-33 -92
t33 -90.5t81 -30.5z" />
    <glyph glyph-name="aogonek.ss02" horiz-adv-x="661" 
d="M606 0q-31 -26 -49.5 -51t-18.5 -43q0 -10 8 -15t19 -5t22 4.5t19 12.5v-107q-37 -16 -82 -16q-19 0 -37.5 3.5t-32 11.5t-22 21t-8.5 32q0 37 33.5 75t79.5 77h-99l-6 47q-22 -29 -61 -43t-87 -14q-52 0 -98 17.5t-80.5 51.5t-54.5 84t-20 114q0 65 20 115t54.5 84.5
t80.5 52.5t98 18q48 0 87 -15t61 -44l6 49h168v-517zM323 136q48 0 80.5 30.5t32.5 90.5t-32.5 92t-80.5 32t-81 -32t-33 -92t33 -90.5t81 -30.5z" />
    <glyph glyph-name="aring.ss02" horiz-adv-x="661" 
d="M331 565q-31 0 -55 10t-41 27.5t-26 40.5t-9 49t9 48.5t26 39.5t41 27t55 10q30 0 54 -10t40.5 -27t25.5 -39.5t9 -48.5t-9 -49t-25.5 -40.5t-40.5 -27.5t-54 -10zM331 736q-19 0 -31.5 -11.5t-12.5 -32.5q0 -20 12.5 -32t31.5 -12t32 12t13 32q0 21 -13 32.5t-32 11.5z
M438 517h168v-517h-168l-6 47q-22 -29 -61 -43t-87 -14q-52 0 -98 17.5t-80.5 51.5t-54.5 84t-20 114q0 65 20 115t54.5 84.5t80.5 52.5t98 18q48 0 87 -15t61 -44zM323 136q48 0 80.5 30.5t32.5 90.5t-32.5 92t-80.5 32t-81 -32t-33 -92t33 -90.5t81 -30.5z" />
    <glyph glyph-name="aringacute.ss02" horiz-adv-x="661" 
d="M331 565q-31 0 -55 10t-41 27.5t-26 40.5t-9 49t9 48.5t26 39.5t41 27t55 10h3l42 69h188l-116 -138q12 -25 12 -56q0 -26 -9 -49t-25.5 -40.5t-40.5 -27.5t-54 -10zM331 736q-19 0 -31.5 -11.5t-12.5 -32.5q0 -20 12.5 -32t31.5 -12t32 12t13 32q0 21 -13 32.5t-32 11.5
zM438 517h168v-517h-168l-6 47q-22 -29 -61 -43t-87 -14q-52 0 -98 17.5t-80.5 51.5t-54.5 84t-20 114q0 65 20 115t54.5 84.5t80.5 52.5t98 18q48 0 87 -15t61 -44zM323 136q48 0 80.5 30.5t32.5 90.5t-32.5 92t-80.5 32t-81 -32t-33 -92t33 -90.5t81 -30.5z" />
    <glyph glyph-name="atilde.ss02" horiz-adv-x="661" 
d="M265 632q-13 0 -16.5 -17.5t-3.5 -40.5h-83q0 66 29.5 109t83.5 43q35 0 54.5 -14t32.5 -28q8 -10 16 -16.5t19 -6.5q13 0 15.5 17t2.5 42h84q0 -32 -7 -59.5t-21.5 -48t-35.5 -32.5t-49 -12q-36 0 -55 14t-31 28q-8 9 -16 15.5t-19 6.5zM438 517h168v-517h-168l-6 47
q-22 -29 -61 -43t-87 -14q-52 0 -98 17.5t-80.5 51.5t-54.5 84t-20 114q0 65 20 115t54.5 84.5t80.5 52.5t98 18q48 0 87 -15t61 -44zM323 136q48 0 80.5 30.5t32.5 90.5t-32.5 92t-80.5 32t-81 -32t-33 -92t33 -90.5t81 -30.5z" />
    <glyph glyph-name="braceleft.case" horiz-adv-x="376" 
d="M274 -201q-43 0 -76 11.5t-55.5 31.5t-34 47t-11.5 57v249q0 37 -3.5 56.5t-12 29.5t-23 14t-36.5 10v108q22 6 36.5 10.5t23 14t12 29t3.5 56.5v249q0 30 11.5 57t34 47t55.5 31.5t76 11.5h72v-126h-37q-18 0 -31.5 -9.5t-13.5 -33.5v-222q0 -67 -18.5 -107.5
t-75.5 -61.5q57 -21 75.5 -61.5t18.5 -107.5v-222q0 -24 13.5 -33.5t31.5 -9.5h37v-126h-72z" />
    <glyph glyph-name="braceright.case" horiz-adv-x="376" 
d="M30 -201v126h37q18 0 31.5 9.5t13.5 33.5v222q0 67 18.5 107.5t75.5 61.5q-57 21 -75.5 61.5t-18.5 107.5v222q0 24 -13.5 33.5t-31.5 9.5h-37v126h72q43 0 76 -11.5t55.5 -31.5t34 -47t11.5 -57v-249q0 -37 3.5 -56.5t12 -29t23 -14t36.5 -10.5v-108q-22 -6 -36.5 -10
t-23 -14t-12 -29.5t-3.5 -56.5v-249q0 -30 -11.5 -57t-34 -47t-55.5 -31.5t-76 -11.5h-72z" />
    </font>
</defs>
</svg>
