<?xml version="1.0" standalone="no"?>
<!DOCTYPE svg PUBLIC "-//W3C//DTD SVG 1.1//EN" "http://www.w3.org/Graphics/SVG/1.1/DTD/svg11.dtd" >
<svg xmlns="http://www.w3.org/2000/svg" xmlns:xlink="http://www.w3.org/1999/xlink" version="1.1">
<metadata>
Created by FontForge 20201107 at Sun May 24 06:38:59 2020
 By 
Copyright (c) 2020 Cerebri Sans ProTM Version - 2020 Edition by Alfredo Marco Pradil. All rights reserved.
</metadata>
<defs>
<font id="CerebriSansPro-Light" horiz-adv-x="0" >
  <font-face 
    font-family="Cerebri Sans Pro Light"
    font-weight="300"
    font-stretch="normal"
    units-per-em="1000"
    panose-1="0 0 4 0 0 0 0 0 0 0"
    ascent="750"
    descent="-250"
    x-height="478"
    cap-height="686"
    bbox="-796 -250 1206 1010"
    underline-thickness="50"
    underline-position="-190"
    unicode-range="U+000D-FB02"
  />
<missing-glyph horiz-adv-x="532" 
d="M61 0v686h409v-686h-409zM110 49h312v588h-312v-588z" />
    <glyph glyph-name="fi" unicode="fi" horiz-adv-x="556" 
d="M305 710q-58 0 -88.5 -31.5t-30.5 -95.5v-105h124v-49h-124v-429h-59v429h-100v49h100v105q0 87 46.5 132t133.5 45q77 0 119 -37.5t54 -101.5l-58 -15q-7 51 -34.5 77.5t-82.5 26.5zM422 478h59v-478h-59v478z" />
    <glyph glyph-name="fl" unicode="fl" horiz-adv-x="558" 
d="M305 760q85 0 131.5 -45t46.5 -132v-583h-60v580q0 130 -118 130q-58 0 -88.5 -31.5t-30.5 -95.5v-105h124v-49h-124v-429h-59v429h-100v49h100v105q0 87 46.5 132t131.5 45z" />
    <glyph glyph-name="f_f" unicode="ff" horiz-adv-x="636" 
d="M585 700q-45 0 -73 -26.5t-28 -90.5v-105h124v-49h-124v-429h-59v429h-239v-429h-59v429h-100v49h100v105q0 87 46.5 132t133.5 45q53 0 88 -18.5t55 -51.5q20 32 54 46t81 14h23v-50h-23zM186 478h239v105q0 9 0.5 17t1.5 16q-10 45 -39 69.5t-83 24.5q-63 0 -91 -33.5
t-28 -93.5v-105z" />
    <glyph glyph-name="f_f_i" unicode="ffi" horiz-adv-x="852" 
d="M603 760q77 0 119 -37.5t54 -101.5l-59 -15q-6 51 -33.5 77.5t-83.5 26.5q-118 0 -118 -127v-105h124v-49h-124v-429h-59v429h-237v-429h-59v429h-100v49h100v105q0 87 46.5 132t133.5 45q53 0 88 -18.5t55 -51.5q44 70 153 70zM423 478v105q0 21 3 37q-11 43 -40 66.5
t-81 23.5q-63 0 -91 -33.5t-28 -93.5v-105h237zM718 478h59v-478h-59v478z" />
    <glyph glyph-name="f_f_l" unicode="ffl" horiz-adv-x="854" 
d="M601 760q85 0 131.5 -45t46.5 -132v-583h-60v580q0 130 -119 130q-58 0 -88 -32.5t-30 -94.5v-105h124v-49h-124v-429h-59v429h-237v-429h-59v429h-100v49h100v105q0 87 46.5 132t133.5 45q53 0 88 -18.5t55 -51.5q44 70 151 70zM423 478v105q0 21 3 37q-11 43 -40 66.5
t-81 23.5q-63 0 -91 -33.5t-28 -93.5v-105h237z" />
    <glyph glyph-name="h_d_c_o.liga" unicode="hdco" horiz-adv-x="860" 
d="M430 0q-78 0 -147.5 30t-121 81.5t-81.5 121t-30 147.5q0 79 30 148t81.5 120.5t121 81.5t147.5 30q79 0 148 -30t120.5 -81.5t81.5 -120.5t30 -148q0 -78 -30 -147.5t-81.5 -121t-120.5 -81.5t-148 -30zM430 36q71 0 134 27t109.5 74t73.5 109.5t27 133.5t-27 134
t-73.5 109.5t-109.5 73.5t-134 27t-133.5 -27t-109.5 -73.5t-74 -109.5t-27 -134t27 -133.5t74 -109.5t109.5 -74t133.5 -27zM629 217q-7 0 -12 6l-145 144q-12 14 0 26l145 145q13 13 25 0q5 -5 5 -13t-5 -13l-132 -132l132 -132q13 -12 0 -25q-4 -6 -13 -6zM231 217
q-8 0 -13 5t-5 13v290q0 8 5 13t13 5t13 -5t5 -13v-290q0 -8 -5 -13t-13 -5zM430 217q-8 0 -13 5t-5 13v290q0 8 5 13t13 5t13 -5t5 -13v-290q0 -8 -5 -13t-13 -5zM285 362q-8 0 -13 5t-5 13t5 13t13 5h91q8 0 13 -5t5 -13t-5 -13t-13 -5h-91z" />
    <glyph glyph-name="hyphen_greater.liga" unicode="&#x2d;&#x3e;" horiz-adv-x="687" 
d="M503 56h-55l132 160h-580v48h580l-132 160h55l152 -184z" />
    <glyph glyph-name="less_hyphen.liga" unicode="&#x3c;&#x2d;" horiz-adv-x="687" 
d="M185 56l-152 184l152 184h54l-132 -160h580v-48h-580l132 -160h-54z" />
    <glyph glyph-name="parenleft_greater_parenright.liga" unicode="&#x28;&#x3e;&#x29;" horiz-adv-x="811" 
d="M406 -10q-73 0 -137.5 28t-112.5 76t-76 112t-28 137t28 137t76 112t112.5 76t137.5 28q72 0 136 -28t112 -76t76 -112t28 -137t-27.5 -137t-75.5 -112t-112 -76t-137 -28zM406 28q65 0 122.5 25t100.5 67.5t67.5 100t24.5 122.5t-24.5 122.5t-67.5 100.5t-100.5 67.5
t-122.5 24.5t-122.5 -24.5t-100.5 -67.5t-68 -100.5t-25 -122.5t25 -122.5t67.5 -100t100 -67.5t123.5 -25zM312 144v398l291 -199z" />
    <glyph glyph-name=".notdef" horiz-adv-x="532" 
d="M61 0v686h409v-686h-409zM110 49h312v588h-312v-588z" />
    <glyph glyph-name=".null" 
 />
    <glyph glyph-name=".null" 
 />
    <glyph glyph-name="nonmarkingreturn" unicode="&#xd;" horiz-adv-x="250" 
 />
    <glyph glyph-name="space" unicode=" " horiz-adv-x="260" 
 />
    <glyph glyph-name="exclam" unicode="!" horiz-adv-x="229" 
d="M89 193l-5 493h60l-5 -493h-50zM114 -10q-19 0 -33 13.5t-14 33.5q0 19 14 32.5t33 13.5t33 -13.5t14 -32.5q0 -20 -14 -33.5t-33 -13.5z" />
    <glyph glyph-name="quotedbl" unicode="&#x22;" horiz-adv-x="350" 
d="M61 372l-6 314h57l-5 -314h-46zM243 372l-5 314h57l-6 -314h-46z" />
    <glyph glyph-name="numbersign" unicode="#" horiz-adv-x="695" 
d="M150 0l26 177h-140l6 45h140l36 243h-141l8 45h139l25 176h46l-25 -176h199l25 176h46l-25 -176h145l-7 -45h-145l-35 -243h145l-6 -45h-145l-26 -177h-45l25 177h-200l-25 -177h-46zM228 222h200l35 243h-200z" />
    <glyph glyph-name="dollar" unicode="$" horiz-adv-x="602" 
d="M550 185q0 -88 -60.5 -140t-166.5 -56v-61h-30v61q-100 4 -167 50.5t-85 130.5l61 12q17 -65 66 -100.5t125 -39.5v281q-2 0 -3 0.5t-3 0.5q-41 9 -81 21t-72 31.5t-52 51t-20 79.5q0 43 16 78t46 60t71.5 38.5t92.5 13.5h5v63h30v-64q81 -7 136.5 -46.5t78.5 -117.5
l-55 -14q-20 59 -58.5 89t-101.5 36v-270q41 -9 81.5 -21t73 -32.5t52.5 -52.5t20 -82zM124 509q0 -32 13.5 -53.5t36.5 -35.5t54 -23t65 -17v264h-2q-76 0 -121.5 -36t-45.5 -99zM323 42q77 3 120.5 39.5t43.5 99.5q0 33 -13 55.5t-35.5 37.5t-52.5 24.5t-63 17.5v-274z
" />
    <glyph glyph-name="percent" unicode="%" horiz-adv-x="710" 
d="M194 416q-29 0 -54.5 11t-44 30t-29.5 44.5t-11 54.5t11 54.5t30 44.5t44.5 30t53.5 11q29 0 54.5 -11t44 -30t29.5 -44.5t11 -54.5t-11 -54.5t-29.5 -44.5t-44 -30t-54.5 -11zM143 0l365 686h53l-364 -686h-54zM194 460q40 0 67.5 27.5t27.5 68.5q0 40 -28 68t-67 28
t-67 -27.5t-28 -68.5t28 -68.5t67 -27.5zM517 -10q-29 0 -55 11t-45 30t-30 45t-11 55t11 54.5t30 44.5t45 30t55 11q28 0 53 -11t44 -30t30 -44.5t11 -54.5t-11 -54.5t-29.5 -45t-43.5 -30.5t-54 -11zM517 35q39 0 67 28t28 68q0 20 -7.5 37.5t-20.5 30.5t-30.5 20.5
t-36.5 7.5q-41 0 -69 -28t-28 -68t28 -68t69 -28z" />
    <glyph glyph-name="ampersand" unicode="&#x26;" horiz-adv-x="691" 
d="M634 387q0 -82 -26 -149.5t-69 -118.5l91 -119h-69l-61 79q-50 -44 -109.5 -67t-120.5 -23q-102 0 -160 47.5t-58 134.5q0 44 16.5 77.5t43.5 61t62.5 50.5t72.5 47l-13 17q-22 29 -41.5 63.5t-19.5 74.5q0 30 11 54.5t30.5 42.5t46.5 28t59 10q68 0 108 -37t40 -94
q0 -28 -9.5 -50.5t-27.5 -42t-44.5 -38t-61.5 -38.5l180 -235q34 43 54 99.5t20 125.5h55zM230 564q0 -31 17.5 -60.5t35.5 -52.5l14 -18q30 19 51.5 35t35.5 31.5t20.5 32t6.5 37.5q0 36 -24.5 60t-63.5 24q-42 0 -67.5 -25.5t-25.5 -63.5zM274 41q50 0 100.5 20.5
t93.5 59.5l-191 247q-32 -21 -62 -40t-53 -41t-36.5 -49t-13.5 -63q0 -66 42 -100t120 -34z" />
    <glyph glyph-name="quotesingle" unicode="'" horiz-adv-x="167" 
d="M60 372l-5 314h57l-6 -314h-46z" />
    <glyph glyph-name="parenleft" unicode="(" horiz-adv-x="296" 
d="M214 -250q-75 78 -116 212t-41 303t41 303t116 212h65q-40 -36 -71 -88t-52.5 -118t-33 -144t-11.5 -165t11.5 -164.5t33 -144t52.5 -118.5t71 -88h-65z" />
    <glyph glyph-name="parenright" unicode=")" horiz-adv-x="296" 
d="M17 -250q40 36 71 88t52.5 118.5t33 144t11.5 164.5t-11.5 165t-33 144t-52.5 118t-71 88h65q75 -78 116 -212t41 -303t-41 -303t-116 -212h-65z" />
    <glyph glyph-name="asterisk" unicode="*" horiz-adv-x="361" 
d="M115 461l-34 21l70 98q7 9 4 15t-14 5l-123 -8v39l123 -9q11 -1 14.5 5t-3.5 15l-71 100l34 19l55 -108q4 -10 10 -10t11 10l54 108l33 -19l-70 -100q-6 -9 -3 -15.5t14 -5.5l123 10v-39l-123 8q-11 1 -14 -5t3 -15l70 -98l-33 -21l-54 109q-4 9 -10 9.5t-11 -10.5z" />
    <glyph glyph-name="plus" unicode="+" horiz-adv-x="569" 
d="M261 8v208h-207v48h207v206h48v-206h207v-48h-207v-208h-48z" />
    <glyph glyph-name="comma" unicode="," horiz-adv-x="282" 
d="M82 -176l60 302h61l-74 -302h-47z" />
    <glyph glyph-name="hyphen" unicode="-" horiz-adv-x="384" 
d="M17 216v48h350v-48h-350z" />
    <glyph glyph-name="period" unicode="." horiz-adv-x="294" 
d="M147 -10q-19 0 -33 13.5t-14 33.5q0 19 14 32.5t33 13.5t33 -13.5t14 -32.5q0 -20 -14 -33.5t-33 -13.5z" />
    <glyph glyph-name="slash" unicode="/" horiz-adv-x="539" 
d="M-2 -180l484 930h59l-484 -930h-59z" />
    <glyph glyph-name="zero" unicode="0" horiz-adv-x="560" 
d="M280 -11q-109 0 -165.5 88.5t-56.5 265.5q0 178 56.5 266t165.5 88t165.5 -88.5t56.5 -265.5q0 -176 -56.5 -265t-165.5 -89zM280 44q79 0 121 74t42 225q0 153 -41 226t-122 73t-122 -73t-41 -226q0 -152 42 -225.5t121 -73.5z" />
    <glyph glyph-name="one" unicode="1" horiz-adv-x="560" 
d="M306 686h59v-686h-59v616l-170 -139v69z" />
    <glyph glyph-name="two" unicode="2" horiz-adv-x="560" 
d="M132 54h374v-54h-445v64l282 286q46 48 66 84.5t20 77.5q0 61 -39.5 96t-108.5 35q-78 0 -119.5 -40.5t-41.5 -117.5v-35l-59 7v32q0 99 57.5 153.5t160.5 54.5q47 0 85.5 -13t66 -37t42.5 -58t15 -76q0 -22 -4.5 -44.5t-16 -46.5t-31 -50t-49.5 -57z" />
    <glyph glyph-name="three" unicode="3" horiz-adv-x="560" 
d="M285 -11q-111 0 -172.5 59.5t-61.5 167.5h60q1 -80 44.5 -126.5t128.5 -46.5q36 0 66 11.5t51 31.5t33 48t12 61q0 38 -13.5 66.5t-37 48t-56.5 29t-72 9.5h-23v48h23q66 0 104.5 36t38.5 93q0 53 -36.5 85.5t-94.5 32.5q-65 0 -104.5 -41t-39.5 -107v-4l-60 6
q0 45 14.5 82t41.5 63.5t64 40.5t82 14q42 0 76.5 -12.5t60 -35t39.5 -53.5t14 -67q0 -58 -31.5 -97t-79.5 -55q68 -16 109 -62t41 -123q0 -44 -16 -81.5t-45.5 -64.5t-70 -42t-89.5 -15z" />
    <glyph glyph-name="four" unicode="4" horiz-adv-x="560" 
d="M528 212v-54h-84v-158h-59v158h-350v55l325 473h84v-474h84zM98 212h287v426z" />
    <glyph glyph-name="five" unicode="5" horiz-adv-x="560" 
d="M244 431q134 0 199.5 -52t65.5 -164q0 -51 -16.5 -92.5t-45.5 -71t-70 -46t-91 -16.5q-109 0 -171 57.5t-62 160.5q0 7 0.5 13t1.5 13h58q-1 -6 -1 -11.5v-10.5q0 -80 45 -124t130 -44q37 0 67 12.5t51 35t32.5 53.5t11.5 68q0 93 -57 130t-163 37h-151l43 307h358v-54
h-307l-29 -201h101z" />
    <glyph glyph-name="six" unicode="6" horiz-adv-x="560" 
d="M290 461q48 0 89 -17.5t71 -49t47.5 -74.5t17.5 -93t-18 -93.5t-50 -75.5t-75 -50.5t-93 -18.5t-93 18.5t-74 51t-48.5 76t-17.5 93.5q0 94 62 168l246 290h73l-199 -233q32 8 62 8zM278 43q39 0 71.5 14.5t56.5 39.5t37 58.5t13 72.5t-12.5 73t-36 59t-56.5 39.5
t-72 14.5t-71.5 -14t-55.5 -39t-36.5 -58.5t-13.5 -72.5t12.5 -73t36 -59.5t56 -40t71.5 -14.5z" />
    <glyph glyph-name="seven" unicode="7" horiz-adv-x="560" 
d="M47 686h467v-54l-360 -632h-68l363 632h-402v54z" />
    <glyph glyph-name="eight" unicode="8" horiz-adv-x="560" 
d="M281 -11q-48 0 -89 14.5t-71 41t-46.5 63.5t-16.5 81q0 64 35 111.5t95 67.5q-47 20 -75.5 60t-28.5 94q0 38 15 70t41.5 55.5t62.5 36.5t78 13t77.5 -13.5t61.5 -36.5t41 -55t15 -70q0 -53 -28.5 -93.5t-73.5 -60.5q58 -20 93.5 -67t35.5 -112q0 -44 -17 -81
t-46.5 -63.5t-70 -41t-88.5 -14.5zM281 387q30 0 55.5 10t44 28t29.5 42.5t11 52.5t-11 51.5t-30 41t-44.5 27.5t-54.5 10q-30 0 -56 -10t-44.5 -27.5t-29.5 -41t-11 -51.5t11 -52.5t29.5 -42.5t44.5 -28t56 -10zM281 43q35 0 65 11t51.5 31.5t33.5 48t12 60.5t-12 60.5
t-33.5 47t-51 30.5t-65.5 11t-66 -11t-52 -30.5t-34 -47t-12 -60.5t12.5 -60.5t34 -48t51.5 -31.5t66 -11z" />
    <glyph glyph-name="nine" unicode="9" horiz-adv-x="560" 
d="M281 697q50 0 93 -18.5t74.5 -51t49 -76t17.5 -93.5q0 -47 -16 -89t-46 -79l-246 -290h-74l200 233q-32 -8 -63 -8q-48 0 -89 17.5t-71 49t-47 74.5t-17 93t18 93.5t49.5 75.5t74.5 50.5t93 18.5zM281 272q39 0 71.5 14t55.5 39t36.5 58.5t13.5 72.5t-12.5 73t-35.5 59.5
t-56 40t-72 14.5t-71.5 -14.5t-56 -39.5t-37 -58.5t-13.5 -72.5t13 -73t36 -59t56 -39.5t72 -14.5z" />
    <glyph glyph-name="colon" unicode=":" horiz-adv-x="282" 
d="M141 376q-19 0 -33 13t-14 33q0 19 14 33t33 14t33 -14t14 -33q0 -20 -14 -33t-33 -13zM141 -10q-19 0 -33 13.5t-14 33.5q0 19 14 32.5t33 13.5t33 -13.5t14 -32.5q0 -20 -14 -33.5t-33 -13.5z" />
    <glyph glyph-name="semicolon" unicode=";" horiz-adv-x="284" 
d="M155 376q-19 0 -32.5 13t-13.5 33q0 19 13.5 33t32.5 14q20 0 33.5 -14t13.5 -33q0 -20 -13.5 -33t-33.5 -13zM70 -176l60 302h60l-74 -302h-46z" />
    <glyph glyph-name="less" unicode="&#x3c;" horiz-adv-x="481" 
d="M428 454v-52l-325 -162l325 -164v-52l-374 189v54z" />
    <glyph glyph-name="equal" unicode="=" horiz-adv-x="557" 
d="M54 315v48h450v-48h-450zM54 116v48h450v-48h-450z" />
    <glyph glyph-name="greater" unicode="&#x3e;" horiz-adv-x="481" 
d="M54 454l374 -187v-54l-374 -189v52l324 164l-324 162v52z" />
    <glyph glyph-name="question" unicode="?" horiz-adv-x="490" 
d="M218 190v31q0 45 20 73t60 56q16 11 33 24t30.5 30.5t22 41t8.5 56.5q0 67 -40.5 105.5t-109.5 38.5q-70 0 -111.5 -41t-41.5 -109q0 -23 4 -40h-54q-3 20 -3 42q0 44 15 81t42 63t65 40.5t84 14.5q47 0 85 -13.5t65 -38.5t41.5 -60t14.5 -79q0 -43 -11.5 -74t-28.5 -53
t-37.5 -37t-37.5 -27q-35 -26 -49.5 -48t-14.5 -53v-24h-51zM244 -10q-20 0 -33.5 13.5t-13.5 33.5q0 19 14 32.5t33 13.5t32.5 -13.5t13.5 -32.5q0 -20 -13.5 -33.5t-32.5 -13.5z" />
    <glyph glyph-name="at" unicode="@" horiz-adv-x="873" 
d="M438 -103q-76 0 -143 28.5t-117 78t-79 116.5t-29 143q0 77 28.5 144.5t78.5 117.5t117 79t144 29q78 0 145 -29t116.5 -78.5t77.5 -116t28 -140.5q0 -97 -39.5 -150t-112.5 -53q-92 0 -113 80h-3q-40 -82 -133 -82q-54 0 -89.5 27.5t-35.5 75.5q0 51 35 78.5t92 38.5
l124 24v31q0 41 -25.5 63.5t-69.5 22.5q-73 0 -98 -70l-41 13q15 43 50 67.5t89 24.5q59 0 99 -32t40 -95v-147q0 -83 82 -83q54 0 82 41.5t28 121.5q0 68 -25 127.5t-69 104t-104 70t-130 25.5q-69 0 -129 -25.5t-104 -70t-69.5 -104.5t-25.5 -130q0 -68 25.5 -127.5
t70 -103.5t104.5 -69.5t128 -25.5q89 0 164 43l18 -34q-40 -23 -86 -36t-96 -13zM411 100q57 0 88 39t31 111v27l-110 -23q-51 -11 -73.5 -31.5t-22.5 -52.5t23.5 -51t63.5 -19z" />
    <glyph glyph-name="A" unicode="A" horiz-adv-x="655" 
d="M568 0l-68 177h-345l-68 -177h-65l266 686h79l266 -686h-65zM175 230h305l-152 395z" />
    <glyph glyph-name="B" unicode="B" horiz-adv-x="602" 
d="M412 359q66 -14 101 -57t35 -118q0 -51 -17.5 -86.5t-46.5 -57t-66.5 -31t-76.5 -9.5h-258v686h215q209 0 209 -174q0 -118 -95 -153zM445 504q0 129 -148 129h-153v-258h153q148 0 148 129zM342 54q145 0 145 136q0 135 -145 135h-198v-271h198z" />
    <glyph glyph-name="C" unicode="C" horiz-adv-x="736" 
d="M393 -11q-75 0 -138 26t-108 72.5t-70 111.5t-25 144t25 144t70 111.5t108 72.5t138 26q105 0 183.5 -48.5t119.5 -133.5l-58 -22q-33 69 -96.5 108t-148.5 39q-62 0 -113.5 -21.5t-88 -60.5t-57 -94t-20.5 -121t20.5 -121t57 -94t88 -60.5t113.5 -21.5q85 0 148.5 39
t96.5 108l58 -22q-41 -85 -119.5 -133.5t-183.5 -48.5z" />
    <glyph glyph-name="D" unicode="D" horiz-adv-x="671" 
d="M82 0v686h164q91 0 154.5 -17.5t107.5 -52.5q109 -85 109 -273t-109 -273q-44 -35 -107.5 -52.5t-154.5 -17.5h-164zM143 56h103q148 0 220 59q89 68 89 228t-89 228q-72 59 -220 59h-103v-574z" />
    <glyph glyph-name="E" unicode="E" horiz-adv-x="490" 
d="M448 630h-304v-260h270v-55h-270v-259h304v-56h-365v686h365v-56z" />
    <glyph glyph-name="F" unicode="F" horiz-adv-x="481" 
d="M451 630h-307v-260h270v-55h-270v-315h-61v686h368v-56z" />
    <glyph glyph-name="G" unicode="G" horiz-adv-x="775" 
d="M390 -11q-75 0 -137 26t-106.5 72.5t-69.5 111.5t-25 144t25 144t70 111.5t108 72.5t138 26q100 0 176 -43.5t119 -121.5l-54 -29q-35 64 -97.5 100.5t-143.5 36.5q-62 0 -113.5 -21.5t-88 -60.5t-57 -94t-20.5 -121t20 -121t56.5 -94t88 -60.5t114.5 -21.5
q56 0 101 17.5t78 50t53 79t26 103.5h-256v52h316v-348h-51v168q-32 -82 -99.5 -130.5t-170.5 -48.5z" />
    <glyph glyph-name="H" unicode="H" horiz-adv-x="682" 
d="M83 0v686h61v-315h395v315h61v-686h-61v316h-395v-316h-61z" />
    <glyph glyph-name="I" unicode="I" horiz-adv-x="227" 
d="M83 0v686h61v-686h-61z" />
    <glyph glyph-name="J" unicode="J" horiz-adv-x="411" 
d="M157 -11q-35 0 -71 10t-69 31l27 50q50 -33 106 -33q57 0 89 37.5t32 106.5v495h61v-504q0 -90 -48.5 -141.5t-126.5 -51.5z" />
    <glyph glyph-name="K" unicode="K" horiz-adv-x="603" 
d="M503 0l-286 330h-73v-330h-61v686h61v-301h73l273 301h77l-298 -327l313 -359h-79z" />
    <glyph glyph-name="L" unicode="L" horiz-adv-x="424" 
d="M83 0v686h61v-630h261v-56h-322z" />
    <glyph glyph-name="M" unicode="M" horiz-adv-x="868" 
d="M806 0h-62l-46 636l-241 -636h-47l-240 633l-47 -633h-62l51 686h97l225 -580l224 580h97z" />
    <glyph glyph-name="N" unicode="N" horiz-adv-x="707" 
d="M563 686h62v-686h-80l-401 610v-610h-61v686h78l402 -609v609z" />
    <glyph glyph-name="O" unicode="O" horiz-adv-x="787" 
d="M393 -11q-75 0 -138 26t-108 72.5t-70 111.5t-25 144t25 144t70 111.5t108 72.5t138 26t138 -26t108 -72.5t70 -111.5t25 -144t-25 -144t-70 -111.5t-108 -72.5t-138 -26zM393 46q62 0 113.5 21.5t88.5 60.5t57 94t20 121t-20 121t-57 94t-88.5 60.5t-113.5 21.5
t-113.5 -21.5t-88 -60.5t-57 -94t-20.5 -121t20.5 -121t57 -94t88 -60.5t113.5 -21.5z" />
    <glyph glyph-name="P" unicode="P" horiz-adv-x="579" 
d="M467 642q34 -26 52 -68t18 -97q0 -64 -24.5 -113t-72.5 -75q-31 -16 -68 -21t-82 -5h-147v-263h-61v686h208q63 0 105 -10.5t72 -33.5zM408 338q68 39 68 136q0 88 -55 128q-23 17 -57 23.5t-81 6.5h-140v-316h140q42 0 72.5 4.5t52.5 17.5z" />
    <glyph glyph-name="Q" unicode="Q" horiz-adv-x="790" 
d="M745 -39l-57 -20l-98 105q-83 -57 -197 -57q-75 0 -138 26t-108 72.5t-70 111.5t-25 144t25 144t70 111.5t108 72.5t138 26t138 -26t108 -72.5t70 -111.5t25 -144q0 -81 -26 -146.5t-73 -113.5zM114 343q0 -66 20.5 -121t57 -94t88 -60.5t113.5 -21.5t113.5 21.5
t88.5 60.5t57 94t20 121t-20 121t-57 94t-88.5 60.5t-113.5 21.5t-113.5 -21.5t-88 -60.5t-57 -94t-20.5 -121z" />
    <glyph glyph-name="R" unicode="R" horiz-adv-x="608" 
d="M563 0h-76l-179 263h-18h-146v-263h-61v686h207q64 0 106 -10.5t72 -33.5q34 -26 52 -68t18 -97q0 -64 -24.5 -113t-72.5 -75q-14 -8 -30 -12.5t-33 -7.5zM284 316q41 0 72 4.5t53 17.5q68 39 68 136q0 88 -55 128q-24 17 -57.5 23.5t-80.5 6.5h-140v-316h140z" />
    <glyph glyph-name="S" unicode="S" horiz-adv-x="602" 
d="M309 -11q-106 0 -177.5 47t-90.5 134l61 12q17 -69 71 -104.5t137 -35.5t130 37t47 102q0 36 -16.5 59.5t-43.5 38.5t-62.5 24.5t-73.5 17.5q-41 9 -82 21t-73.5 32t-53 52t-20.5 81q0 43 16 78t46 60t71.5 38.5t92.5 13.5q95 0 160 -39t90 -126l-55 -14q-23 66 -68.5 96
t-123.5 30q-76 0 -121.5 -36t-45.5 -99q0 -34 15.5 -56t42 -36.5t60.5 -23t71 -16.5q42 -9 84 -21t76 -32.5t55.5 -53.5t21.5 -85q0 -45 -17 -81t-48 -61.5t-75.5 -39.5t-100.5 -14z" />
    <glyph glyph-name="T" unicode="T" horiz-adv-x="473" 
d="M454 686v-56h-187v-630h-62v630h-187v56h436z" />
    <glyph glyph-name="U" unicode="U" horiz-adv-x="655" 
d="M328 -11q-55 0 -101.5 16.5t-80.5 48t-52.5 77t-18.5 102.5v453h61v-447q0 -45 14 -81t39.5 -61t60.5 -38t78 -13q42 0 77.5 13t60.5 38t39 61t14 81v447h62v-453q0 -57 -19 -102.5t-52.5 -77t-80 -48t-101.5 -16.5z" />
    <glyph glyph-name="V" unicode="V" horiz-adv-x="655" 
d="M568 686h65l-266 -686h-79l-266 686h65l241 -625z" />
    <glyph glyph-name="W" unicode="W" horiz-adv-x="977" 
d="M884 686h65l-200 -686h-86l-175 588l-175 -588h-85l-200 686h64l182 -626l183 626h63l182 -628z" />
    <glyph glyph-name="X" unicode="X" horiz-adv-x="666" 
d="M22 0l274 353l-263 333h76l224 -287l224 287h75l-262 -333l273 -353h-77l-233 303l-234 -303h-77z" />
    <glyph glyph-name="Y" unicode="Y" horiz-adv-x="568" 
d="M552 686l-237 -366v-320h-62v319l-238 367h68l201 -312l200 312h68z" />
    <glyph glyph-name="Z" unicode="Z" horiz-adv-x="570" 
d="M106 56h429v-56h-500v55l423 575h-422v56h494v-55z" />
    <glyph glyph-name="bracketleft" unicode="[" horiz-adv-x="295" 
d="M75 -250v1030h199v-46h-145v-938h145v-46h-199z" />
    <glyph glyph-name="backslash" unicode="\" horiz-adv-x="539" 
d="M482 -180l-484 930h59l484 -930h-59z" />
    <glyph glyph-name="bracketright" unicode="]" horiz-adv-x="295" 
d="M220 -250h-199v46h145v938h-145v46h199v-1030z" />
    <glyph glyph-name="asciicircum" unicode="^" horiz-adv-x="654" 
d="M608 137h-54l-227 494l-227 -494h-53l252 549h57z" />
    <glyph glyph-name="underscore" unicode="_" horiz-adv-x="500" 
d="M0 -78v48h500v-48h-500z" />
    <glyph glyph-name="grave" unicode="`" horiz-adv-x="324" 
d="M191 540l-108 146h65l94 -146h-51z" />
    <glyph glyph-name="a" unicode="a" horiz-adv-x="506" 
d="M491 50v-50h-32q-35 0 -54.5 17t-19.5 55v28h-4q-23 -53 -69.5 -81.5t-112.5 -28.5q-64 0 -104.5 32t-40.5 95q0 69 48 104.5t132 49.5l106 18q14 2 24 9.5t10 21.5q0 60 -32.5 91t-91.5 31q-115 0 -128 -105l-59 8q11 72 58.5 107.5t129.5 35.5q88 0 135.5 -44.5
t47.5 -129.5v-214q0 -28 8.5 -39t31.5 -11h17zM212 39q78 0 121.5 55t43.5 158l-139 -26q-124 -19 -124 -104q0 -40 25.5 -61.5t72.5 -21.5z" />
    <glyph glyph-name="b" unicode="b" horiz-adv-x="604" 
d="M322 488q49 0 91 -18t72.5 -51t48 -78.5t17.5 -101.5t-17.5 -102t-48 -78.5t-72.5 -50.5t-91 -18q-63 0 -112.5 30t-73.5 83v-103h-60v750h60v-375q24 53 73.5 83t112.5 30zM313 42q39 0 71.5 14.5t56.5 40.5t37.5 62t13.5 80t-13.5 80.5t-37.5 62.5t-56.5 40.5
t-71.5 14.5t-72 -14.5t-56.5 -40.5t-37 -62.5t-13.5 -80.5t13.5 -80t37 -62t56.5 -40.5t72 -14.5z" />
    <glyph glyph-name="c" unicode="c" horiz-adv-x="555" 
d="M291 -10q-52 0 -96 18.5t-75.5 51.5t-49 79t-17.5 101q0 54 17.5 99.5t49 78.5t75.5 51.5t96 18.5q80 0 137.5 -42t78.5 -115l-55 -7q-18 54 -60.5 84.5t-101.5 30.5q-39 0 -72 -15t-56.5 -41t-36.5 -62.5t-13 -80.5t13 -80.5t36.5 -63t56.5 -41.5t72 -15
q59 0 101.5 30.5t60.5 84.5l55 -8q-21 -73 -79 -115t-137 -42z" />
    <glyph glyph-name="d" unicode="d" horiz-adv-x="604" 
d="M469 750h59v-750h-59v105q-24 -54 -73 -84.5t-114 -30.5q-49 0 -91 18t-72.5 50.5t-48 78.5t-17.5 102t17.5 101.5t48 78.5t72.5 51t91 18q65 0 114 -30.5t73 -84.5v377zM292 42q39 0 71.5 14.5t56.5 40.5t37.5 62t13.5 80t-13.5 80.5t-37.5 62.5t-56.5 40.5t-71.5 14.5
t-72 -14.5t-57 -40.5t-37.5 -62.5t-13.5 -80.5t13.5 -80t37.5 -62t57 -40.5t72 -14.5z" />
    <glyph glyph-name="e" unicode="e" horiz-adv-x="572" 
d="M521 227h-409q2 -42 15.5 -76.5t37.5 -59t56 -38t69 -13.5q54 0 94.5 26t62.5 73l55 -11q-26 -65 -82 -101.5t-129 -36.5q-53 0 -96.5 18t-75 51t-49 79t-17.5 101q0 56 17.5 101.5t49 78.5t74.5 51t95 18q50 0 92.5 -17.5t73.5 -49.5t48.5 -77.5t17.5 -102.5v-14z
M289 439q-72 0 -120 -43.5t-56 -121.5h348q-6 76 -53.5 120.5t-118.5 44.5z" />
    <glyph glyph-name="f" unicode="f" horiz-adv-x="338" 
d="M288 700q-45 0 -73.5 -26.5t-28.5 -90.5v-105h124v-49h-124v-429h-59v429h-100v49h100v105q0 90 42.5 128.5t118.5 38.5h22v-50h-22z" />
    <glyph glyph-name="g" unicode="g" horiz-adv-x="599" 
d="M464 478h59v-479q0 -122 -62 -185.5t-169 -63.5q-87 0 -143.5 40.5t-82.5 107.5l50 23q22 -57 66 -89.5t108 -32.5q85 0 129.5 52t44.5 145v118q-23 -53 -72 -85t-115 -32q-48 0 -89 18t-71 51t-47 78.5t-17 99.5t17 99t47 77t71.5 50t89.5 18q66 0 114.5 -32t71.5 -84
v106zM288 48q39 0 71.5 14.5t56.5 40.5t37 62t13 79q0 42 -13 78t-37 61.5t-56.5 40t-71.5 14.5t-71.5 -14.5t-56 -40t-37 -61.5t-13.5 -78q0 -43 13.5 -79t37 -62t56 -40.5t71.5 -14.5z" />
    <glyph glyph-name="h" unicode="h" horiz-adv-x="530" 
d="M289 488q81 0 125.5 -46t44.5 -133v-309h-59v302q0 68 -34 102t-95 34q-59 0 -97.5 -40t-38.5 -117v-281h-60v750h60v-345q23 39 62 61t92 22z" />
    <glyph glyph-name="i" unicode="i" horiz-adv-x="209" 
d="M105 611q-20 0 -33.5 13.5t-13.5 32.5q0 20 13.5 33.5t33.5 13.5q19 0 32.5 -13.5t13.5 -33.5q0 -19 -13.5 -32.5t-32.5 -13.5zM75 0v478h59v-478h-59z" />
    <glyph glyph-name="j" unicode="j" horiz-adv-x="206" 
d="M101 611q-20 0 -33.5 13.5t-13.5 32.5q0 20 13.5 33.5t33.5 13.5q19 0 32.5 -13.5t13.5 -33.5q0 -19 -13.5 -32.5t-32.5 -13.5zM-62 -194q39 0 64.5 8.5t40.5 28.5t21 53t6 83v499h60v-499q0 -60 -10 -102.5t-32.5 -69t-59 -38.5t-90.5 -12v49z" />
    <glyph glyph-name="k" unicode="k" horiz-adv-x="501" 
d="M226 253l246 -253h-74l-223 229h-40v-229h-60v750h60v-476h40l207 204h72z" />
    <glyph glyph-name="l" unicode="l" horiz-adv-x="210" 
d="M75 0v750h60v-750h-60z" />
    <glyph glyph-name="m" unicode="m" horiz-adv-x="779" 
d="M556 488q70 0 111 -39.5t41 -108.5v-340h-60v324q0 55 -29.5 84.5t-79.5 29.5q-52 0 -84.5 -34t-32.5 -102v-302h-60v324q0 54 -30 84t-80 30q-52 0 -84.5 -34.5t-32.5 -101.5v-302h-59v478h59v-62q20 34 54 53t80 19q54 0 90.5 -23.5t52.5 -65.5q19 42 56 65.5t88 23.5z
" />
    <glyph glyph-name="n" unicode="n" horiz-adv-x="531" 
d="M287 488q84 0 128.5 -45.5t44.5 -128.5v-314h-60v305q0 66 -34 99.5t-94 33.5t-98.5 -40.5t-38.5 -116.5v-281h-59v478h59v-71q23 38 62 59.5t90 21.5z" />
    <glyph glyph-name="o" unicode="o" horiz-adv-x="585" 
d="M292 -10q-52 0 -96 18t-75.5 51t-49.5 79t-18 102q0 55 18 100.5t49.5 78.5t75.5 51t96 18q53 0 97 -18t75.5 -51t49.5 -78.5t18 -100.5q0 -56 -18 -102t-49.5 -79t-75.5 -51t-97 -18zM292 40q40 0 73 15t57 41.5t37 63t13 80.5q0 43 -13 79.5t-37 62.5t-57 41t-73 15
t-73 -15t-57 -41t-37 -62.5t-13 -79.5q0 -44 13 -80.5t37 -63t57 -41.5t73 -15z" />
    <glyph glyph-name="p" unicode="p" horiz-adv-x="604" 
d="M321 488q49 0 91 -18t72.5 -50.5t48 -78.5t17.5 -102q0 -55 -17.5 -101t-48 -79t-72.5 -51t-91 -18q-63 0 -112.5 30t-73.5 83v-346h-60v721h60v-103q24 54 73.5 83.5t112.5 29.5zM312 42q39 0 71.5 14.5t56.5 40.5t37.5 62.5t13.5 79.5q0 44 -13.5 80.5t-37.5 62.5
t-56.5 40.5t-71.5 14.5t-72 -14.5t-56.5 -40.5t-37 -62.5t-13.5 -80.5q0 -43 13.5 -79.5t37 -62.5t56.5 -40.5t72 -14.5z" />
    <glyph glyph-name="q" unicode="q" horiz-adv-x="604" 
d="M470 478h59v-721h-59v348q-24 -54 -73 -84.5t-114 -30.5q-49 0 -91 18t-72.5 51t-48 79t-17.5 101q0 56 17.5 102t48 78.5t72.5 50.5t91 18q65 0 114 -30.5t73 -84.5v105zM293 42q39 0 71.5 14.5t56.5 40.5t37.5 62.5t13.5 79.5q0 44 -13.5 80.5t-37.5 62.5t-56.5 40.5
t-71.5 14.5t-72 -14.5t-57 -40.5t-37.5 -62.5t-13.5 -80.5q0 -43 13.5 -79.5t37.5 -62.5t57 -40.5t72 -14.5z" />
    <glyph glyph-name="r" unicode="r" horiz-adv-x="353" 
d="M135 379q23 53 72 81t119 28v-56q-97 0 -144 -49.5t-47 -154.5v-228h-60v478h60v-99z" />
    <glyph glyph-name="s" unicode="s" horiz-adv-x="466" 
d="M241 -10q-76 0 -128 38t-63 101l52 13q10 -48 46.5 -76.5t90.5 -28.5q52 0 83.5 24.5t31.5 66.5q0 25 -10.5 41t-28.5 26.5t-41 16.5t-49 11q-32 6 -61 14.5t-51.5 23t-36 37t-13.5 56.5q0 63 46 98.5t120 35.5q67 0 115.5 -32t59.5 -92l-54 -10q-8 42 -40.5 65t-81.5 23
t-79.5 -22.5t-30.5 -61.5q0 -22 10.5 -36.5t28 -24t40.5 -15.5t48 -11q33 -7 63.5 -16t53 -24t36 -38.5t13.5 -60.5q0 -34 -13 -60.5t-35.5 -44.5t-54 -27.5t-67.5 -9.5z" />
    <glyph glyph-name="t" unicode="t" horiz-adv-x="348" 
d="M251 0q-57 0 -91 34t-34 94v301h-99v49h59q21 0 33.5 11t12.5 39v110h54v-160h123v-49h-123v-294q0 -42 22.5 -63.5t58.5 -21.5h42v-50h-58z" />
    <glyph glyph-name="u" unicode="u" horiz-adv-x="530" 
d="M394 478h60v-478h-60v72q-23 -38 -61.5 -60t-89.5 -22q-84 0 -129 46t-45 128v314h60v-305q0 -66 34 -99.5t94 -33.5t98.5 40.5t38.5 116.5v281z" />
    <glyph glyph-name="v" unicode="v" horiz-adv-x="513" 
d="M420 478h64l-200 -478h-56l-199 478h64l164 -406z" />
    <glyph glyph-name="w" unicode="w" horiz-adv-x="810" 
d="M716 478h63l-171 -478h-70l-133 412l-132 -412h-71l-172 478h63l146 -415l136 415h60l136 -416z" />
    <glyph glyph-name="x" unicode="x" horiz-adv-x="533" 
d="M32 0l198 240l-198 238h75l160 -198l159 198h75l-198 -239l198 -239h-75l-159 198l-160 -198h-75z" />
    <glyph glyph-name="y" unicode="y" horiz-adv-x="513" 
d="M420 478h64l-300 -721h-65l107 252l-197 469h64l163 -408z" />
    <glyph glyph-name="z" unicode="z" horiz-adv-x="465" 
d="M431 478l-301 -429h295v-49h-392l301 429h-279v49h376z" />
    <glyph glyph-name="braceleft" unicode="{" horiz-adv-x="286" 
d="M223 -250q-54 0 -86.5 34.5t-32.5 87.5v219q0 32 -2 57.5t-9.5 44.5t-21 31.5t-36.5 16.5v48q23 5 36.5 17t21 31.5t9.5 45t2 57.5v218q0 53 32.5 87.5t86.5 34.5h42v-46h-33q-31 0 -51 -22t-20 -60v-211q0 -29 -2.5 -56.5t-10 -50.5t-21.5 -41t-38 -28q24 -10 38 -28
t21.5 -41t10 -50.5t2.5 -56.5v-211q0 -38 20 -60t51 -22h33v-46h-42z" />
    <glyph glyph-name="bar" unicode="|" horiz-adv-x="300" 
d="M120 -150v900h60v-900h-60z" />
    <glyph glyph-name="braceright" unicode="}" horiz-adv-x="286" 
d="M21 -250v46h33q32 0 52 22t20 60v211q0 29 2 56.5t9.5 50.5t21.5 41t38 28q-23 10 -37 28t-21.5 41t-10 50.5t-2.5 56.5v211q0 38 -20 60t-52 22h-33v46h42q54 0 86.5 -34.5t32.5 -87.5v-218q0 -32 2 -57.5t9.5 -45t21 -31.5t36.5 -17v-48q-23 -4 -36.5 -16.5t-21 -31.5
t-9.5 -44.5t-2 -57.5v-219q0 -53 -32.5 -87.5t-86.5 -34.5h-42z" />
    <glyph glyph-name="asciitilde" unicode="~" horiz-adv-x="598" 
d="M407 150q-24 0 -42.5 7.5t-34 19t-27.5 25t-22 25.5q-20 23 -39 39t-46 16q-45 0 -70.5 -34.5t-26.5 -88.5h-45q0 75 38 122t105 47q44 0 71 -22.5t51 -52.5q17 -23 36.5 -40.5t48.5 -17.5q42 0 69.5 33.5t26.5 89.5h45q0 -36 -10 -67t-28 -53.5t-43.5 -35t-56.5 -12.5z
" />
    <glyph glyph-name="exclamdown" unicode="&#xa1;" horiz-adv-x="229" 
d="M114 488q19 0 33 -13t14 -33t-14 -33.5t-33 -13.5t-33 13.5t-14 33.5t14 33t33 13zM89 286h50l5 -494h-60z" />
    <glyph glyph-name="cent" unicode="&#xa2;" horiz-adv-x="555" 
d="M290 142q59 0 101.5 30.5t60.5 84.5l55 -8q-20 -69 -72.5 -110t-124.5 -46v-93h-40v93q-48 4 -88 23.5t-68.5 52.5t-44.5 77t-16 96t16 95.5t44.5 76t68.5 52t88 23.5v97h40v-97q73 -5 125 -46t72 -110l-55 -7q-18 54 -60.5 84.5t-101.5 30.5q-39 0 -72 -15t-56.5 -41
t-36.5 -62.5t-13 -80.5t13 -80.5t36.5 -63t56.5 -41.5t72 -15z" />
    <glyph glyph-name="sterling" unicode="&#xa3;" horiz-adv-x="633" 
d="M203 53h356v-53h-487v41l42 2q33 3 33 39v230h-75v46h75v103q0 111 57.5 173t158.5 62q41 0 76 -11.5t60.5 -34t39.5 -55.5t14 -76q0 -8 -0.5 -17t-1.5 -17l-52 -1q2 8 2 15.5v14.5q0 63 -36.5 97t-102.5 34q-77 0 -118 -46.5t-41 -137.5v-103h184v-46h-184v-259z" />
    <glyph glyph-name="currency" unicode="&#xa4;" horiz-adv-x="662" 
d="M112 91l-35 35l93 92q-23 27 -34 59.5t-11 66.5q0 35 11 67.5t34 59.5l-92 91l34 36l92 -92q28 22 60.5 33t67.5 11q33 0 65.5 -11t60.5 -33l92 92l34 -35l-92 -92q23 -27 33.5 -59.5t10.5 -67.5q0 -34 -10.5 -66.5t-33.5 -59.5l92 -92l-34 -35l-92 92q-28 -22 -60.5 -33
t-66.5 -11t-66.5 11t-60.5 33zM331 187q33 0 62 12.5t50 34t33.5 50t12.5 61.5t-12.5 61.5t-34 49.5t-50 33.5t-61.5 12.5t-61.5 -12.5t-49.5 -34t-33.5 -50t-12.5 -61.5t12.5 -62t34 -50t50 -33t60.5 -12z" />
    <glyph glyph-name="yen" unicode="&#xa5;" horiz-adv-x="568" 
d="M552 686l-213 -323h175v-48h-199v-151h199v-48h-199v-116h-62v116h-199v48h199v151h-199v48h175l-214 323h68l201 -305l200 305h68z" />
    <glyph glyph-name="brokenbar" unicode="&#xa6;" horiz-adv-x="300" 
d="M120 390v360h60v-360h-60zM120 -150v360h60v-360h-60z" />
    <glyph glyph-name="section" unicode="&#xa7;" horiz-adv-x="631" 
d="M333 -211q-93 0 -155.5 37.5t-85.5 120.5l49 13q20 -66 66 -96t124 -30q76 0 122 37t46 101q0 35 -16 57.5t-42.5 37t-61.5 23.5t-73 17q-40 9 -81 20t-73 30.5t-52.5 50.5t-20.5 80q0 73 43 119q-20 17 -31.5 43t-11.5 61q0 42 16 76t44.5 57.5t69 36.5t89.5 13
q93 0 155 -37t86 -120l-49 -14q-20 66 -66 96t-124 30q-76 0 -122 -36.5t-46 -100.5q0 -35 16 -57.5t42.5 -37t61 -23.5t72.5 -17q41 -9 81.5 -20.5t73 -31t53 -50.5t20.5 -79q0 -73 -43 -119q20 -18 31.5 -43.5t11.5 -60.5q0 -42 -16 -76t-44.5 -58t-69 -37t-89.5 -13z
M466 103q32 37 32 91q0 37 -16.5 60.5t-44 38.5t-63.5 24.5t-75 17.5q-36 8 -72 17.5t-62 27.5q-33 -34 -33 -90q0 -37 16.5 -60.5t44.5 -38.5t63.5 -24.5t74.5 -18.5q37 -7 73 -16.5t62 -28.5z" />
    <glyph glyph-name="dieresis" unicode="&#xa8;" horiz-adv-x="421" 
d="M130 611q-20 0 -33.5 13.5t-13.5 32.5q0 20 13.5 33.5t33.5 13.5q19 0 32.5 -13.5t13.5 -33.5q0 -19 -13.5 -32.5t-32.5 -13.5zM292 611q-20 0 -33.5 13.5t-13.5 32.5q0 20 13.5 33.5t33.5 13.5q19 0 32.5 -13.5t13.5 -33.5q0 -19 -13.5 -32.5t-32.5 -13.5z" />
    <glyph glyph-name="copyright" unicode="&#xa9;" horiz-adv-x="847" 
d="M424 -10q-73 0 -137 28t-112 76t-76 112t-28 137t28 137t76 112t112 76t137 28q72 0 136.5 -28t112.5 -76t76 -112t28 -137t-28 -137t-76 -112t-112 -76t-137 -28zM424 28q65 0 122.5 25t100.5 67.5t67.5 100t24.5 122.5t-24.5 122.5t-67.5 100.5t-100.5 67.5
t-122.5 24.5t-122.5 -24.5t-100.5 -67.5t-68 -100.5t-25 -122.5t25 -122.5t67.5 -100t100 -67.5t123.5 -25zM423 140q-42 0 -78.5 16t-64 43.5t-43.5 64.5t-16 79t16 78.5t43.5 64t64 43.5t78.5 16q51 0 93 -22t70 -60l-30 -22q-22 31 -56.5 49t-76.5 18q-34 0 -64 -13
t-52.5 -35.5t-35.5 -52.5t-13 -64t13 -64.5t35.5 -52.5t52.5 -35t64 -13q42 0 76.5 18t56.5 48l30 -21q-28 -38 -70 -60.5t-93 -22.5z" />
    <glyph glyph-name="ordfeminine" unicode="&#xaa;" horiz-adv-x="462" 
d="M337 686h39v-300h-39v60q-20 -30 -51 -48t-70 -18q-31 0 -58.5 12t-48 33t-32.5 49.5t-12 61.5q0 32 12 60.5t32.5 49.5t48 33.5t58.5 12.5q39 0 70 -18t51 -49v61zM220 415q24 0 45.5 9.5t37 26t25 38.5t9.5 47q0 24 -9.5 46t-25 38t-37 25.5t-45.5 9.5t-45 -9.5
t-37 -25.5t-25 -38t-9 -46q0 -25 9 -47t25 -38.5t37 -26t45 -9.5z" />
    <glyph glyph-name="guillemotleft" unicode="&#xab;" horiz-adv-x="473" 
d="M185 56l-152 184l152 184h54l-152 -184l152 -184h-54zM382 56l-152 184l152 184h55l-152 -184l152 -184h-55z" />
    <glyph glyph-name="logicalnot" unicode="&#xac;" horiz-adv-x="691" 
d="M587 111v206h-533v51h583v-257h-50z" />
    <glyph glyph-name="uni00AD" unicode="&#xad;" horiz-adv-x="384" 
d="M17 216v48h350v-48h-350z" />
    <glyph glyph-name="registered" unicode="&#xae;" horiz-adv-x="423" 
d="M211 309q-40 0 -75 15.5t-61 41.5t-41.5 61.5t-15.5 74.5q0 40 15 75.5t41.5 61.5t61.5 41.5t75 15.5t75 -15.5t61.5 -41.5t41.5 -61.5t15 -75.5q0 -39 -15 -74.5t-41.5 -61.5t-61.5 -41.5t-75 -15.5zM211 337q34 0 64 13t52.5 35.5t35.5 52.5t13 64q0 35 -13 65
t-35 52.5t-52 35.5t-65 13q-34 0 -64.5 -13t-53 -35.5t-35.5 -52.5t-13 -65q0 -34 13 -64t35.5 -52.5t53 -35.5t64.5 -13zM140 393v218h91q28 0 46 -18t18 -46q0 -20 -10 -34t-27 -22l42 -98h-31l-39 93h-61v-93h-29zM169 512h59q17 0 27.5 10t10.5 25q0 17 -10.5 27
t-27.5 10h-59v-72z" />
    <glyph glyph-name="macron" unicode="&#xaf;" horiz-adv-x="390" 
d="M83 583v43h225v-43h-225z" />
    <glyph glyph-name="degree" unicode="&#xb0;" horiz-adv-x="457" 
d="M228 420q-28 0 -53.5 11t-44 29.5t-29.5 44t-11 53.5q0 29 11 54t29.5 43.5t44 29.5t53.5 11q29 0 54 -11t43.5 -29.5t29.5 -43.5t11 -54q0 -28 -11 -53.5t-29.5 -44t-43.5 -29.5t-54 -11zM228 459q42 0 70.5 28.5t28.5 70.5t-28.5 70.5t-70.5 28.5t-70.5 -28.5
t-28.5 -70.5t28.5 -70.5t70.5 -28.5z" />
    <glyph glyph-name="plusminus" unicode="&#xb1;" horiz-adv-x="569" 
d="M261 125v193h-207v48h207v191h48v-191h207v-48h-207v-193h-48zM54 17v48h462v-48h-462z" />
    <glyph glyph-name="uni00B2" unicode="&#xb2;" horiz-adv-x="317" 
d="M72 427h223v-33h-266v38l169 172q27 29 39 51t12 46q0 37 -23.5 58t-64.5 21q-48 0 -72.5 -24.5t-24.5 -70.5v-21l-36 4v20q0 59 34.5 91.5t96.5 32.5q57 0 91 -29.5t34 -80.5q0 -27 -12 -54.5t-48 -64.5z" />
    <glyph glyph-name="uni00B3" unicode="&#xb3;" horiz-adv-x="331" 
d="M166 388q-66 0 -103.5 35.5t-37.5 100.5h37q0 -48 26.5 -76t77.5 -28q43 0 70 25.5t27 65.5q0 46 -30 69t-78 23h-13v29h13q40 0 63 21.5t23 55.5q0 32 -22 51.5t-57 19.5q-38 0 -62 -24.5t-24 -64.5v-2l-36 4q0 54 33.5 86.5t87.5 32.5q51 0 82.5 -28.5t31.5 -71.5
q0 -35 -18.5 -58.5t-47.5 -33.5q40 -9 65 -36.5t25 -73.5q0 -54 -37 -88t-96 -34z" />
    <glyph glyph-name="acute" unicode="&#xb4;" horiz-adv-x="324" 
d="M83 540l93 146h66l-108 -146h-51z" />
    <glyph glyph-name="uni00B5" unicode="&#xb5;" horiz-adv-x="529" 
d="M394 478h59v-478h-57l-1 73q-23 -39 -62 -61t-91 -22q-71 0 -113 33v-266h-60v721h60v-305q0 -66 34 -99.5t94 -33.5t98.5 40.5t38.5 116.5v281z" />
    <glyph glyph-name="paragraph" unicode="&#xb6;" horiz-adv-x="565" 
d="M269 -150v501h-37q-83 0 -130.5 43t-47.5 125t47.5 124.5t130.5 42.5h74v-836h-37zM408 -150v836h37v-836h-37z" />
    <glyph glyph-name="periodcentered" unicode="&#xb7;" horiz-adv-x="307" 
d="M156 296q-19 0 -33 13.5t-14 33.5t14 34t33 14t33.5 -14t14.5 -34t-14.5 -33.5t-33.5 -13.5z" />
    <glyph glyph-name="cedilla" unicode="&#xb8;" horiz-adv-x="339" 
d="M178 -79q36 0 57.5 -20t21.5 -54q0 -36 -24.5 -59t-63.5 -23q-32 0 -53.5 12t-32.5 32l36 15q7 -13 20 -19t29 -6q23 0 37 12.5t14 35.5q0 22 -13 33.5t-36 11.5q-22 0 -39 -12l-33 16l64 123l35 -13l-48 -89q8 2 15 3t14 1z" />
    <glyph glyph-name="uni00B9" unicode="&#xb9;" horiz-adv-x="203" 
d="M103 806h35v-412h-35v370l-102 -84v42z" />
    <glyph glyph-name="ordmasculine" unicode="&#xba;" horiz-adv-x="427" 
d="M213 384q-33 0 -62.5 12t-51.5 33t-35 49.5t-13 61.5q0 32 13 60.5t35 49.5t51.5 33.5t62.5 12.5q34 0 63.5 -12.5t51.5 -33.5t34.5 -49.5t12.5 -60.5q0 -33 -12.5 -61.5t-34.5 -49.5t-51.5 -33t-63.5 -12zM213 417q25 0 47.5 9.5t39 26.5t26 39.5t9.5 47.5t-9.5 47
t-26 38.5t-39 26t-47.5 9.5q-26 0 -48 -9.5t-38.5 -26t-26 -38.5t-9.5 -47t9.5 -47.5t26 -39.5t38.5 -26.5t48 -9.5z" />
    <glyph glyph-name="guillemotright" unicode="&#xbb;" horiz-adv-x="473" 
d="M91 56h-54l152 184l-152 184h54l152 -184zM288 56h-54l152 184l-152 184h54l152 -184z" />
    <glyph glyph-name="onequarter" unicode="&#xbc;" horiz-adv-x="670" 
d="M103 274v370l-102 -84v42l102 84h35v-412h-35zM456 686h38l-387 -686h-38zM647 127v-32h-51v-95h-35v95h-210v33l195 283h50v-284h51zM388 127h173v256z" />
    <glyph glyph-name="onehalf" unicode="&#xbd;" horiz-adv-x="676" 
d="M103 274v370l-102 -84v42l102 84h35v-412h-35zM456 686h38l-387 -686h-38zM431 33h223v-33h-266v38l169 172q27 29 39 51t12 46q0 37 -23.5 58t-64.5 21q-48 0 -72.5 -24.5t-24.5 -70.5v-21l-36 4v20q0 59 34.5 91.5t96.5 32.5q57 0 91 -29.5t34 -80.5q0 -27 -12 -54.5
t-48 -64.5z" />
    <glyph glyph-name="threequarters" unicode="&#xbe;" horiz-adv-x="798" 
d="M299 390q0 -54 -37 -88t-96 -34q-66 0 -103.5 35.5t-37.5 100.5h37q0 -48 26.5 -76t77.5 -28q43 0 70 25.5t27 65.5q0 46 -30 69t-78 23h-13v29h13q40 0 63 21.5t23 55.5q0 32 -22 51.5t-57 19.5q-38 0 -62 -24.5t-24 -64.5v-2l-36 4q0 54 33.5 86.5t87.5 32.5
q51 0 82.5 -28.5t31.5 -71.5q0 -35 -18.5 -58.5t-47.5 -33.5q40 -9 65 -36.5t25 -73.5zM584 686h38l-387 -686h-38zM775 127v-32h-51v-95h-35v95h-210v33l195 283h50v-284h51zM516 127h173v256z" />
    <glyph glyph-name="questiondown" unicode="&#xbf;" horiz-adv-x="490" 
d="M240 488q20 0 33.5 -13t13.5 -33t-14 -33.5t-33 -13.5t-32.5 13.5t-13.5 33.5t13.5 33t32.5 13zM266 288v-31q0 -45 -20 -73t-60 -56q-16 -11 -33 -24t-30.5 -30.5t-22 -41t-8.5 -56.5q0 -67 40.5 -105.5t109.5 -38.5q70 0 111.5 41t41.5 109q0 24 -4 40h54q3 -18 3 -42
q0 -44 -14.5 -81t-41.5 -63t-65 -40.5t-85 -14.5q-46 0 -84 13.5t-65 38.5t-42 60t-15 79q0 43 11.5 74t29 53t37.5 37t37 27q35 26 49.5 48t14.5 53v24h51z" />
    <glyph glyph-name="Agrave" unicode="&#xc0;" horiz-adv-x="655" 
d="M353 716h-51l-92 124h64zM568 0l-68 177h-345l-68 -177h-65l266 686h79l266 -686h-65zM175 230h305l-152 395z" />
    <glyph glyph-name="Aacute" unicode="&#xc1;" horiz-adv-x="655" 
d="M446 840l-92 -124h-51l79 124h64zM568 0l-68 177h-345l-68 -177h-65l266 686h79l266 -686h-65zM175 230h305l-152 395z" />
    <glyph glyph-name="Acircumflex" unicode="&#xc2;" horiz-adv-x="655" 
d="M328 813l-86 -82h-48l96 109h75l97 -109h-49zM568 0l-68 177h-345l-68 -177h-65l266 686h79l266 -686h-65zM175 230h305l-152 395z" />
    <glyph glyph-name="Atilde" unicode="&#xc3;" horiz-adv-x="655" 
d="M255 803q-26 0 -41 -21.5t-15 -56.5h-35q0 51 25.5 84t67.5 33q35 0 53.5 -16.5t32.5 -33.5q11 -15 23.5 -26.5t35.5 -11.5q25 0 39.5 22t14.5 57h36q0 -51 -25.5 -84t-67.5 -33q-35 0 -53 16t-31 33q-12 16 -24.5 27t-35.5 11zM568 0l-68 177h-345l-68 -177h-65l266 686
h79l266 -686h-65zM175 230h305l-152 395z" />
    <glyph glyph-name="Adieresis" unicode="&#xc4;" horiz-adv-x="655" 
d="M247 739q-20 0 -33.5 13.5t-13.5 33.5t13.5 33t33.5 13q19 0 32.5 -13t13.5 -33t-13.5 -33.5t-32.5 -13.5zM409 739q-20 0 -33.5 13.5t-13.5 33.5t13.5 33t33.5 13q19 0 32.5 -13t13.5 -33t-13.5 -33.5t-32.5 -13.5zM568 0l-68 177h-345l-68 -177h-65l266 686h79
l266 -686h-65zM175 230h305l-152 395z" />
    <glyph glyph-name="Aring" unicode="&#xc5;" horiz-adv-x="655" 
d="M328 708q-23 0 -43.5 8.5t-36 23.5t-24.5 35.5t-9 43.5q0 24 9 44.5t24 35t35.5 23t44.5 8.5q23 0 43 -8.5t35 -23t24 -35t9 -44.5q0 -23 -9 -43.5t-24 -35.5t-35 -23.5t-43 -8.5zM328 896q-32 0 -54.5 -22.5t-22.5 -54.5t22.5 -54t54.5 -22q31 0 53.5 22t22.5 54
t-22 54.5t-54 22.5zM568 0l-68 177h-345l-68 -177h-65l266 686h79l266 -686h-65zM175 230h305l-152 395z" />
    <glyph glyph-name="AE" unicode="&#xc6;" horiz-adv-x="836" 
d="M22 0l266 686h506v-56h-306v-260h270v-55h-270v-259h306v-56h-368v177h-270l-69 -177h-65zM174 230h252v400h-97z" />
    <glyph glyph-name="Ccedilla" unicode="&#xc7;" horiz-adv-x="736" 
d="M393 46q85 0 148.5 39t96.5 108l58 -22q-39 -82 -113.5 -130t-174.5 -52l-39 -72q8 2 15 3t14 1q36 0 57.5 -20t21.5 -54q0 -36 -24.5 -59t-63.5 -23q-32 0 -53.5 12t-32.5 32l36 15q7 -13 20 -19t29 -6q23 0 37 12.5t14 35.5q0 22 -13 33.5t-36 11.5q-22 0 -39 -12
l-33 16l49 94q-70 4 -128 31.5t-99.5 74t-64.5 109.5t-23 138q0 79 25 144t70 111.5t108 72.5t138 26q105 0 183.5 -48.5t119.5 -133.5l-58 -22q-33 69 -96.5 108t-148.5 39q-62 0 -113.5 -21.5t-88 -60.5t-57 -94t-20.5 -121t20.5 -121t57 -94t88 -60.5t113.5 -21.5z" />
    <glyph glyph-name="Egrave" unicode="&#xc8;" horiz-adv-x="490" 
d="M297 716h-51l-92 124h64zM448 630h-304v-260h270v-55h-270v-259h304v-56h-365v686h365v-56z" />
    <glyph glyph-name="Eacute" unicode="&#xc9;" horiz-adv-x="490" 
d="M390 840l-92 -124h-51l79 124h64zM448 630h-304v-260h270v-55h-270v-259h304v-56h-365v686h365v-56z" />
    <glyph glyph-name="Ecircumflex" unicode="&#xca;" horiz-adv-x="490" 
d="M272 813l-86 -82h-48l96 109h75l97 -109h-49zM448 630h-304v-260h270v-55h-270v-259h304v-56h-365v686h365v-56z" />
    <glyph glyph-name="Edieresis" unicode="&#xcb;" horiz-adv-x="490" 
d="M191 739q-20 0 -33.5 13.5t-13.5 33.5t13.5 33t33.5 13q19 0 32.5 -13t13.5 -33t-13.5 -33.5t-32.5 -13.5zM353 739q-20 0 -33.5 13.5t-13.5 33.5t13.5 33t33.5 13q19 0 32.5 -13t13.5 -33t-13.5 -33.5t-32.5 -13.5zM448 630h-304v-260h270v-55h-270v-259h304v-56h-365
v686h365v-56z" />
    <glyph glyph-name="Igrave" unicode="&#xcc;" horiz-adv-x="227" 
d="M87 716l-93 124h65l79 -124h-51zM83 0v686h61v-686h-61z" />
    <glyph glyph-name="Iacute" unicode="&#xcd;" horiz-adv-x="227" 
d="M88 716l79 124h64l-92 -124h-51zM83 0v686h61v-686h-61z" />
    <glyph glyph-name="Icircumflex" unicode="&#xce;" horiz-adv-x="227" 
d="M-22 731l97 109h75l97 -109h-49l-85 82l-86 -82h-49zM83 0v686h61v-686h-61z" />
    <glyph glyph-name="Idieresis" unicode="&#xcf;" horiz-adv-x="227" 
d="M32 739q-20 0 -34 13.5t-14 33.5t14 33t34 13q19 0 32.5 -13t13.5 -33t-13.5 -33.5t-32.5 -13.5zM194 739q-20 0 -33.5 13.5t-13.5 33.5t13.5 33t33.5 13q19 0 32.5 -13t13.5 -33t-13.5 -33.5t-32.5 -13.5zM83 0v686h61v-686h-61z" />
    <glyph glyph-name="Eth" unicode="&#xd0;" horiz-adv-x="671" 
d="M508 616q109 -85 109 -273t-109 -273q-44 -35 -107.5 -52.5t-154.5 -17.5h-164v323h-80v42h80v321h164q91 0 154.5 -17.5t107.5 -52.5zM466 115q89 68 89 228t-89 228q-72 59 -220 59h-103v-265h151v-42h-151v-267h103q148 0 220 59z" />
    <glyph glyph-name="Ntilde" unicode="&#xd1;" horiz-adv-x="707" 
d="M285 803q-26 0 -41 -21.5t-15 -56.5h-35q0 51 25.5 84t67.5 33q35 0 53.5 -16.5t32.5 -33.5q11 -15 23.5 -26.5t35.5 -11.5q25 0 39.5 22t14.5 57h36q0 -51 -25.5 -84t-67.5 -33q-35 0 -53 16t-31 33q-12 16 -24.5 27t-35.5 11zM563 686h62v-686h-80l-401 610v-610h-61
v686h78l402 -609v609z" />
    <glyph glyph-name="Ograve" unicode="&#xd2;" horiz-adv-x="787" 
d="M368 716l-92 124h64l79 -124h-51zM393 -11q-75 0 -138 26t-108 72.5t-70 111.5t-25 144t25 144t70 111.5t108 72.5t138 26t138 -26t108 -72.5t70 -111.5t25 -144t-25 -144t-70 -111.5t-108 -72.5t-138 -26zM393 46q62 0 113.5 21.5t88.5 60.5t57 94t20 121t-20 121
t-57 94t-88.5 60.5t-113.5 21.5t-113.5 -21.5t-88 -60.5t-57 -94t-20.5 -121t20.5 -121t57 -94t88 -60.5t113.5 -21.5z" />
    <glyph glyph-name="Oacute" unicode="&#xd3;" horiz-adv-x="787" 
d="M368 716l79 124h64l-92 -124h-51zM393 -11q-75 0 -138 26t-108 72.5t-70 111.5t-25 144t25 144t70 111.5t108 72.5t138 26t138 -26t108 -72.5t70 -111.5t25 -144t-25 -144t-70 -111.5t-108 -72.5t-138 -26zM393 46q62 0 113.5 21.5t88.5 60.5t57 94t20 121t-20 121
t-57 94t-88.5 60.5t-113.5 21.5t-113.5 -21.5t-88 -60.5t-57 -94t-20.5 -121t20.5 -121t57 -94t88 -60.5t113.5 -21.5z" />
    <glyph glyph-name="Ocircumflex" unicode="&#xd4;" horiz-adv-x="787" 
d="M259 731l96 109h75l97 -109h-49l-85 82l-86 -82h-48zM393 -11q-75 0 -138 26t-108 72.5t-70 111.5t-25 144t25 144t70 111.5t108 72.5t138 26t138 -26t108 -72.5t70 -111.5t25 -144t-25 -144t-70 -111.5t-108 -72.5t-138 -26zM393 46q62 0 113.5 21.5t88.5 60.5t57 94
t20 121t-20 121t-57 94t-88.5 60.5t-113.5 21.5t-113.5 -21.5t-88 -60.5t-57 -94t-20.5 -121t20.5 -121t57 -94t88 -60.5t113.5 -21.5z" />
    <glyph glyph-name="Otilde" unicode="&#xd5;" horiz-adv-x="787" 
d="M464 716q-35 0 -53 16t-31 33q-12 16 -24.5 27t-35.5 11q-26 0 -41 -21.5t-15 -56.5h-35q0 51 25.5 84t67.5 33q35 0 53.5 -16.5t32.5 -33.5q11 -15 23.5 -26.5t35.5 -11.5q25 0 39.5 22t14.5 57h36q0 -51 -25.5 -84t-67.5 -33zM393 -11q-75 0 -138 26t-108 72.5
t-70 111.5t-25 144t25 144t70 111.5t108 72.5t138 26t138 -26t108 -72.5t70 -111.5t25 -144t-25 -144t-70 -111.5t-108 -72.5t-138 -26zM393 46q62 0 113.5 21.5t88.5 60.5t57 94t20 121t-20 121t-57 94t-88.5 60.5t-113.5 21.5t-113.5 -21.5t-88 -60.5t-57 -94t-20.5 -121
t20.5 -121t57 -94t88 -60.5t113.5 -21.5z" />
    <glyph glyph-name="Odieresis" unicode="&#xd6;" horiz-adv-x="787" 
d="M313 739q-20 0 -33.5 13.5t-13.5 33.5t13.5 33t33.5 13q19 0 32.5 -13t13.5 -33t-13.5 -33.5t-32.5 -13.5zM475 739q-20 0 -33.5 13.5t-13.5 33.5t13.5 33t33.5 13q19 0 32.5 -13t13.5 -33t-13.5 -33.5t-32.5 -13.5zM393 -11q-75 0 -138 26t-108 72.5t-70 111.5t-25 144
t25 144t70 111.5t108 72.5t138 26t138 -26t108 -72.5t70 -111.5t25 -144t-25 -144t-70 -111.5t-108 -72.5t-138 -26zM393 46q62 0 113.5 21.5t88.5 60.5t57 94t20 121t-20 121t-57 94t-88.5 60.5t-113.5 21.5t-113.5 -21.5t-88 -60.5t-57 -94t-20.5 -121t20.5 -121t57 -94
t88 -60.5t113.5 -21.5z" />
    <glyph glyph-name="multiply" unicode="&#xd7;" horiz-adv-x="468" 
d="M87 59l-33 34l147 147l-147 146l33 34l147 -146l147 146l33 -34l-146 -146l146 -147l-33 -34l-147 146z" />
    <glyph glyph-name="Oslash" unicode="&#xd8;" horiz-adv-x="787" 
d="M610 625q59 -47 91.5 -119t32.5 -163q0 -79 -25 -144t-70 -111.5t-108 -72.5t-138 -26q-54 0 -102 13.5t-87 38.5l-66 -94l-28 19l66 95q-59 47 -91.5 119t-32.5 163q0 79 25 144t70 111.5t108 72.5t138 26q54 0 102 -13.5t87 -38.5l66 94l28 -19zM114 343
q0 -75 25.5 -134.5t70.5 -98.5l339 486q-32 21 -71.5 32.5t-84.5 11.5q-62 0 -113.5 -21.5t-88 -60.5t-57 -94t-20.5 -121zM393 46q62 0 113.5 21.5t88.5 60.5t57 94t20 121q0 75 -25.5 134.5t-70.5 98.5l-339 -486q32 -21 71.5 -32.5t84.5 -11.5z" />
    <glyph glyph-name="Ugrave" unicode="&#xd9;" horiz-adv-x="655" 
d="M302 716l-92 124h64l79 -124h-51zM328 -11q-55 0 -101.5 16.5t-80.5 48t-52.5 77t-18.5 102.5v453h61v-447q0 -45 14 -81t39.5 -61t60.5 -38t78 -13q42 0 77.5 13t60.5 38t39 61t14 81v447h62v-453q0 -57 -19 -102.5t-52.5 -77t-80 -48t-101.5 -16.5z" />
    <glyph glyph-name="Uacute" unicode="&#xda;" horiz-adv-x="655" 
d="M302 716l79 124h64l-92 -124h-51zM328 -11q-55 0 -101.5 16.5t-80.5 48t-52.5 77t-18.5 102.5v453h61v-447q0 -45 14 -81t39.5 -61t60.5 -38t78 -13q42 0 77.5 13t60.5 38t39 61t14 81v447h62v-453q0 -57 -19 -102.5t-52.5 -77t-80 -48t-101.5 -16.5z" />
    <glyph glyph-name="Ucircumflex" unicode="&#xdb;" horiz-adv-x="655" 
d="M193 731l96 109h75l97 -109h-49l-85 82l-86 -82h-48zM328 -11q-55 0 -101.5 16.5t-80.5 48t-52.5 77t-18.5 102.5v453h61v-447q0 -45 14 -81t39.5 -61t60.5 -38t78 -13q42 0 77.5 13t60.5 38t39 61t14 81v447h62v-453q0 -57 -19 -102.5t-52.5 -77t-80 -48t-101.5 -16.5z
" />
    <glyph glyph-name="Udieresis" unicode="&#xdc;" horiz-adv-x="655" 
d="M247 739q-20 0 -33.5 13.5t-13.5 33.5t13.5 33t33.5 13q19 0 32.5 -13t13.5 -33t-13.5 -33.5t-32.5 -13.5zM409 739q-20 0 -33.5 13.5t-13.5 33.5t13.5 33t33.5 13q19 0 32.5 -13t13.5 -33t-13.5 -33.5t-32.5 -13.5zM328 -11q-55 0 -101.5 16.5t-80.5 48t-52.5 77
t-18.5 102.5v453h61v-447q0 -45 14 -81t39.5 -61t60.5 -38t78 -13q42 0 77.5 13t60.5 38t39 61t14 81v447h62v-453q0 -57 -19 -102.5t-52.5 -77t-80 -48t-101.5 -16.5z" />
    <glyph glyph-name="Yacute" unicode="&#xdd;" horiz-adv-x="568" 
d="M402 840l-92 -124h-51l79 124h64zM552 686l-237 -366v-320h-62v319l-238 367h68l201 -312l200 312h68z" />
    <glyph glyph-name="Thorn" unicode="&#xde;" horiz-adv-x="579" 
d="M467 550q34 -26 52 -68t18 -98q0 -64 -24.5 -113t-72.5 -75q-31 -16 -68 -21t-82 -5h-147v-170h-61v686h61v-93h147q62 0 104.5 -10t72.5 -33zM408 245q68 39 68 137q0 87 -55 128q-23 17 -57 23.5t-81 6.5h-140v-316h140q42 0 72.5 4.5t52.5 16.5z" />
    <glyph glyph-name="germandbls" unicode="&#xdf;" horiz-adv-x="618" 
d="M397 -10q-78 0 -132 36t-65 101l51 14q10 -51 48 -78.5t95 -27.5q56 0 89.5 25.5t33.5 72.5q0 27 -11 45t-29.5 29t-42 17.5t-48.5 12.5q-28 6 -53 14t-44 20.5t-30 31t-11 46.5q0 27 10 46.5t26 34.5t36.5 26.5t40.5 22.5q20 12 39 23.5t33.5 26t23.5 32t9 41.5
q0 53 -36.5 80.5t-108.5 27.5q-54 0 -90 -15t-57 -44t-30 -71.5t-9 -97.5v-482h-60v489q0 145 63 208t183 63q97 0 149.5 -43t52.5 -119q0 -34 -12 -58.5t-30.5 -42.5t-41.5 -31.5t-45 -24.5q-35 -19 -60.5 -38t-25.5 -49q0 -17 7.5 -28t21 -18.5t32 -12.5t39.5 -10
q32 -7 62 -17t53.5 -26t37.5 -41t14 -63q0 -36 -13.5 -63.5t-37 -46.5t-56 -28.5t-71.5 -9.5z" />
    <glyph glyph-name="agrave" unicode="&#xe0;" horiz-adv-x="506" 
d="M281 540h-51l-108 146h65zM491 50v-50h-32q-35 0 -54.5 17t-19.5 55v28h-4q-23 -53 -69.5 -81.5t-112.5 -28.5q-64 0 -104.5 32t-40.5 95q0 69 48 104.5t132 49.5l106 18q14 2 24 9.5t10 21.5q0 60 -32.5 91t-91.5 31q-115 0 -128 -105l-59 8q11 72 58.5 107.5
t129.5 35.5q88 0 135.5 -44.5t47.5 -129.5v-214q0 -28 8.5 -39t31.5 -11h17zM212 39q78 0 121.5 55t43.5 158l-139 -26q-124 -19 -124 -104q0 -40 25.5 -61.5t72.5 -21.5z" />
    <glyph glyph-name="aacute" unicode="&#xe1;" horiz-adv-x="506" 
d="M377 686l-108 -146h-51l93 146h66zM491 50v-50h-32q-35 0 -54.5 17t-19.5 55v28h-4q-23 -53 -69.5 -81.5t-112.5 -28.5q-64 0 -104.5 32t-40.5 95q0 69 48 104.5t132 49.5l106 18q14 2 24 9.5t10 21.5q0 60 -32.5 91t-91.5 31q-115 0 -128 -105l-59 8q11 72 58.5 107.5
t129.5 35.5q88 0 135.5 -44.5t47.5 -129.5v-214q0 -28 8.5 -39t31.5 -11h17zM212 39q78 0 121.5 55t43.5 158l-139 -26q-124 -19 -124 -104q0 -40 25.5 -61.5t72.5 -21.5z" />
    <glyph glyph-name="acircumflex" unicode="&#xe2;" horiz-adv-x="506" 
d="M249 652l-82 -112h-48l96 146h68l96 -146h-48zM491 50v-50h-32q-35 0 -54.5 17t-19.5 55v28h-4q-23 -53 -69.5 -81.5t-112.5 -28.5q-64 0 -104.5 32t-40.5 95q0 69 48 104.5t132 49.5l106 18q14 2 24 9.5t10 21.5q0 60 -32.5 91t-91.5 31q-115 0 -128 -105l-59 8
q11 72 58.5 107.5t129.5 35.5q88 0 135.5 -44.5t47.5 -129.5v-214q0 -28 8.5 -39t31.5 -11h17zM212 39q78 0 121.5 55t43.5 158l-139 -26q-124 -19 -124 -104q0 -40 25.5 -61.5t72.5 -21.5z" />
    <glyph glyph-name="atilde" unicode="&#xe3;" horiz-adv-x="506" 
d="M176 625q-26 0 -41 -21.5t-15 -56.5h-35q0 51 25.5 84t67.5 33q35 0 53.5 -16.5t32.5 -33.5q11 -15 23.5 -26.5t35.5 -11.5q25 0 39.5 22t14.5 57h36q0 -51 -25.5 -84t-67.5 -33q-35 0 -53 16t-31 33q-12 16 -24.5 27t-35.5 11zM491 50v-50h-32q-35 0 -54.5 17t-19.5 55
v28h-4q-23 -53 -69.5 -81.5t-112.5 -28.5q-64 0 -104.5 32t-40.5 95q0 69 48 104.5t132 49.5l106 18q14 2 24 9.5t10 21.5q0 60 -32.5 91t-91.5 31q-115 0 -128 -105l-59 8q11 72 58.5 107.5t129.5 35.5q88 0 135.5 -44.5t47.5 -129.5v-214q0 -28 8.5 -39t31.5 -11h17z
M212 39q78 0 121.5 55t43.5 158l-139 -26q-124 -19 -124 -104q0 -40 25.5 -61.5t72.5 -21.5z" />
    <glyph glyph-name="adieresis" unicode="&#xe4;" horiz-adv-x="506" 
d="M169 611q-20 0 -33.5 13.5t-13.5 32.5q0 20 13.5 33.5t33.5 13.5q19 0 32.5 -13.5t13.5 -33.5q0 -19 -13.5 -32.5t-32.5 -13.5zM331 611q-20 0 -33.5 13.5t-13.5 32.5q0 20 13.5 33.5t33.5 13.5q19 0 32.5 -13.5t13.5 -33.5q0 -19 -13.5 -32.5t-32.5 -13.5zM491 50v-50
h-32q-35 0 -54.5 17t-19.5 55v28h-4q-23 -53 -69.5 -81.5t-112.5 -28.5q-64 0 -104.5 32t-40.5 95q0 69 48 104.5t132 49.5l106 18q14 2 24 9.5t10 21.5q0 60 -32.5 91t-91.5 31q-115 0 -128 -105l-59 8q11 72 58.5 107.5t129.5 35.5q88 0 135.5 -44.5t47.5 -129.5v-214
q0 -28 8.5 -39t31.5 -11h17zM212 39q78 0 121.5 55t43.5 158l-139 -26q-124 -19 -124 -104q0 -40 25.5 -61.5t72.5 -21.5z" />
    <glyph glyph-name="aring" unicode="&#xe5;" horiz-adv-x="506" 
d="M250 544q-24 0 -44 8.5t-34.5 23.5t-23 35t-8.5 42q0 23 8 42.5t23 34.5t35 23.5t44 8.5t44 -8.5t34.5 -23.5t22.5 -34.5t8 -42.5q0 -22 -8.5 -42t-23 -35t-34.5 -23.5t-43 -8.5zM250 726q-31 0 -52.5 -20.5t-21.5 -52.5q0 -30 22 -51.5t52 -21.5t51.5 21.5t21.5 51.5
q0 32 -21.5 52.5t-51.5 20.5zM491 50v-50h-32q-35 0 -54.5 17t-19.5 55v28h-4q-23 -53 -69.5 -81.5t-112.5 -28.5q-64 0 -104.5 32t-40.5 95q0 69 48 104.5t132 49.5l106 18q14 2 24 9.5t10 21.5q0 60 -32.5 91t-91.5 31q-115 0 -128 -105l-59 8q11 72 58.5 107.5
t129.5 35.5q88 0 135.5 -44.5t47.5 -129.5v-214q0 -28 8.5 -39t31.5 -11h17zM212 39q78 0 121.5 55t43.5 158l-139 -26q-124 -19 -124 -104q0 -40 25.5 -61.5t72.5 -21.5z" />
    <glyph glyph-name="ae" unicode="&#xe6;" horiz-adv-x="893" 
d="M842 227h-409q2 -42 15.5 -76.5t37.5 -59t56 -38t69 -13.5q54 0 94.5 26t61.5 73l56 -11q-26 -65 -82 -101.5t-130 -36.5q-75 0 -131 36t-84 99q-15 -37 -36.5 -63t-47.5 -42t-54.5 -23t-56.5 -7q-66 0 -106.5 32t-40.5 95q0 69 48 104.5t132 49.5l106 18q34 6 34 31
q0 62 -33.5 92.5t-93.5 30.5q-57 0 -89.5 -25t-40.5 -81l-54 8q22 143 188 143q60 0 103.5 -23.5t62.5 -74.5q31 46 80.5 72t112.5 26q50 0 92.5 -17.5t73.5 -49.5t48.5 -77.5t17.5 -102.5v-14zM610 439q-72 0 -120 -43.5t-56 -121.5h348q-6 76 -53.5 120.5t-118.5 44.5z
M378 191q-4 20 -4 48v16l-131 -24q-130 -21 -130 -107q0 -41 26.5 -63t74.5 -22q24 0 50 8t49 26t40 47t24 72z" />
    <glyph glyph-name="ccedilla" unicode="&#xe7;" horiz-adv-x="555" 
d="M290 40q59 0 101.5 30.5t60.5 84.5l55 -8q-20 -70 -74 -111.5t-128 -45.5l-40 -73q8 2 15 3t14 1q36 0 57.5 -20t21.5 -54q0 -36 -24.5 -59t-63.5 -23q-32 0 -53.5 12t-32.5 32l36 15q7 -13 20 -19t29 -6q23 0 37 12.5t14 35.5q0 22 -13 33.5t-36 11.5q-22 0 -39 -12
l-33 16l50 95q-47 5 -86 25.5t-66.5 53t-43 76t-15.5 94.5q0 54 17.5 99.5t49 78.5t75.5 51.5t96 18.5q80 0 137.5 -42t78.5 -115l-55 -7q-18 54 -60.5 84.5t-101.5 30.5q-39 0 -72 -15t-56.5 -41t-36.5 -62.5t-13 -80.5t13 -80.5t36.5 -63t56.5 -41.5t72 -15z" />
    <glyph glyph-name="egrave" unicode="&#xe8;" horiz-adv-x="572" 
d="M319 540h-51l-108 146h65zM521 227h-409q2 -42 15.5 -76.5t37.5 -59t56 -38t69 -13.5q54 0 94.5 26t62.5 73l55 -11q-26 -65 -82 -101.5t-129 -36.5q-53 0 -96.5 18t-75 51t-49 79t-17.5 101q0 56 17.5 101.5t49 78.5t74.5 51t95 18q50 0 92.5 -17.5t73.5 -49.5
t48.5 -77.5t17.5 -102.5v-14zM289 439q-72 0 -120 -43.5t-56 -121.5h348q-6 76 -53.5 120.5t-118.5 44.5z" />
    <glyph glyph-name="eacute" unicode="&#xe9;" horiz-adv-x="572" 
d="M415 686l-108 -146h-51l93 146h66zM521 227h-409q2 -42 15.5 -76.5t37.5 -59t56 -38t69 -13.5q54 0 94.5 26t62.5 73l55 -11q-26 -65 -82 -101.5t-129 -36.5q-53 0 -96.5 18t-75 51t-49 79t-17.5 101q0 56 17.5 101.5t49 78.5t74.5 51t95 18q50 0 92.5 -17.5t73.5 -49.5
t48.5 -77.5t17.5 -102.5v-14zM289 439q-72 0 -120 -43.5t-56 -121.5h348q-6 76 -53.5 120.5t-118.5 44.5z" />
    <glyph glyph-name="ecircumflex" unicode="&#xea;" horiz-adv-x="572" 
d="M287 652l-82 -112h-48l96 146h68l96 -146h-48zM521 227h-409q2 -42 15.5 -76.5t37.5 -59t56 -38t69 -13.5q54 0 94.5 26t62.5 73l55 -11q-26 -65 -82 -101.5t-129 -36.5q-53 0 -96.5 18t-75 51t-49 79t-17.5 101q0 56 17.5 101.5t49 78.5t74.5 51t95 18q50 0 92.5 -17.5
t73.5 -49.5t48.5 -77.5t17.5 -102.5v-14zM289 439q-72 0 -120 -43.5t-56 -121.5h348q-6 76 -53.5 120.5t-118.5 44.5z" />
    <glyph glyph-name="edieresis" unicode="&#xeb;" horiz-adv-x="572" 
d="M207 611q-20 0 -33.5 13.5t-13.5 32.5q0 20 13.5 33.5t33.5 13.5q19 0 32.5 -13.5t13.5 -33.5q0 -19 -13.5 -32.5t-32.5 -13.5zM369 611q-20 0 -33.5 13.5t-13.5 32.5q0 20 13.5 33.5t33.5 13.5q19 0 32.5 -13.5t13.5 -33.5q0 -19 -13.5 -32.5t-32.5 -13.5zM521 227h-409
q2 -42 15.5 -76.5t37.5 -59t56 -38t69 -13.5q54 0 94.5 26t62.5 73l55 -11q-26 -65 -82 -101.5t-129 -36.5q-53 0 -96.5 18t-75 51t-49 79t-17.5 101q0 56 17.5 101.5t49 78.5t74.5 51t95 18q50 0 92.5 -17.5t73.5 -49.5t48.5 -77.5t17.5 -102.5v-14zM289 439
q-72 0 -120 -43.5t-56 -121.5h348q-6 76 -53.5 120.5t-118.5 44.5z" />
    <glyph glyph-name="igrave" unicode="&#xec;" horiz-adv-x="209" 
d="M85 540l-109 146h66l94 -146h-51zM75 0v478h59v-478h-59z" />
    <glyph glyph-name="iacute" unicode="&#xed;" horiz-adv-x="209" 
d="M73 540l93 146h66l-108 -146h-51zM75 0v478h59v-478h-59z" />
    <glyph glyph-name="icircumflex" unicode="&#xee;" horiz-adv-x="209" 
d="M-27 540l97 146h68l96 -146h-48l-82 112l-82 -112h-49zM75 0v478h59v-478h-59z" />
    <glyph glyph-name="idieresis" unicode="&#xef;" horiz-adv-x="209" 
d="M24 611q-20 0 -34 13.5t-14 32.5q0 20 14 33.5t34 13.5q19 0 32.5 -13.5t13.5 -33.5q0 -19 -13.5 -32.5t-32.5 -13.5zM186 611q-20 0 -33.5 13.5t-13.5 32.5q0 20 13.5 33.5t33.5 13.5q19 0 32.5 -13.5t13.5 -33.5q0 -19 -13.5 -32.5t-32.5 -13.5zM75 0v478h59v-478h-59z
" />
    <glyph glyph-name="eth" unicode="&#xf0;" horiz-adv-x="652" 
d="M507 407q25 -33 40.5 -74.5t15.5 -92.5q0 -56 -18 -102t-49.5 -79t-75.5 -51t-96 -18t-96.5 18t-76 51t-49.5 79t-18 102q0 55 18 100.5t49.5 78.5t76 51t96.5 18q34 0 62 -9l-103 138l-142 -37l-7 25l132 34l-83 111h68l72 -96l135 35l7 -25l-126 -33zM324 40
q39 0 72 15t57 41.5t37.5 63t13.5 80.5q0 42 -13 78t-36.5 63t-56.5 42t-74 15q-40 0 -73 -15t-57 -41t-37.5 -62.5t-13.5 -79.5q0 -44 13.5 -80.5t37.5 -63t57 -41.5t73 -15z" />
    <glyph glyph-name="ntilde" unicode="&#xf1;" horiz-adv-x="531" 
d="M190 625q-26 0 -41 -21.5t-15 -56.5h-35q0 51 25.5 84t67.5 33q35 0 53.5 -16.5t32.5 -33.5q11 -15 23.5 -26.5t35.5 -11.5q25 0 39.5 22t14.5 57h36q0 -51 -25.5 -84t-67.5 -33q-35 0 -53 16t-31 33q-12 16 -24.5 27t-35.5 11zM287 488q84 0 128.5 -45.5t44.5 -128.5
v-314h-60v305q0 66 -34 99.5t-94 33.5t-98.5 -40.5t-38.5 -116.5v-281h-59v478h59v-71q23 38 62 59.5t90 21.5z" />
    <glyph glyph-name="ograve" unicode="&#xf2;" horiz-adv-x="585" 
d="M273 540l-108 146h65l94 -146h-51zM292 -10q-52 0 -96 18t-75.5 51t-49.5 79t-18 102q0 55 18 100.5t49.5 78.5t75.5 51t96 18q53 0 97 -18t75.5 -51t49.5 -78.5t18 -100.5q0 -56 -18 -102t-49.5 -79t-75.5 -51t-97 -18zM292 40q40 0 73 15t57 41.5t37 63t13 80.5
q0 43 -13 79.5t-37 62.5t-57 41t-73 15t-73 -15t-57 -41t-37 -62.5t-13 -79.5q0 -44 13 -80.5t37 -63t57 -41.5t73 -15z" />
    <glyph glyph-name="oacute" unicode="&#xf3;" horiz-adv-x="585" 
d="M262 540l93 146h66l-108 -146h-51zM292 -10q-52 0 -96 18t-75.5 51t-49.5 79t-18 102q0 55 18 100.5t49.5 78.5t75.5 51t96 18q53 0 97 -18t75.5 -51t49.5 -78.5t18 -100.5q0 -56 -18 -102t-49.5 -79t-75.5 -51t-97 -18zM292 40q40 0 73 15t57 41.5t37 63t13 80.5
q0 43 -13 79.5t-37 62.5t-57 41t-73 15t-73 -15t-57 -41t-37 -62.5t-13 -79.5q0 -44 13 -80.5t37 -63t57 -41.5t73 -15z" />
    <glyph glyph-name="ocircumflex" unicode="&#xf4;" horiz-adv-x="585" 
d="M162 540l96 146h68l96 -146h-48l-82 112l-82 -112h-48zM292 -10q-52 0 -96 18t-75.5 51t-49.5 79t-18 102q0 55 18 100.5t49.5 78.5t75.5 51t96 18q53 0 97 -18t75.5 -51t49.5 -78.5t18 -100.5q0 -56 -18 -102t-49.5 -79t-75.5 -51t-97 -18zM292 40q40 0 73 15t57 41.5
t37 63t13 80.5q0 43 -13 79.5t-37 62.5t-57 41t-73 15t-73 -15t-57 -41t-37 -62.5t-13 -79.5q0 -44 13 -80.5t37 -63t57 -41.5t73 -15z" />
    <glyph glyph-name="otilde" unicode="&#xf5;" horiz-adv-x="585" 
d="M364 538q-35 0 -53 16t-31 33q-12 16 -24.5 27t-35.5 11q-26 0 -41 -21.5t-15 -56.5h-35q0 51 25.5 84t67.5 33q35 0 53.5 -16.5t32.5 -33.5q11 -15 23.5 -26.5t35.5 -11.5q25 0 39.5 22t14.5 57h36q0 -51 -25.5 -84t-67.5 -33zM292 -10q-52 0 -96 18t-75.5 51t-49.5 79
t-18 102q0 55 18 100.5t49.5 78.5t75.5 51t96 18q53 0 97 -18t75.5 -51t49.5 -78.5t18 -100.5q0 -56 -18 -102t-49.5 -79t-75.5 -51t-97 -18zM292 40q40 0 73 15t57 41.5t37 63t13 80.5q0 43 -13 79.5t-37 62.5t-57 41t-73 15t-73 -15t-57 -41t-37 -62.5t-13 -79.5
q0 -44 13 -80.5t37 -63t57 -41.5t73 -15z" />
    <glyph glyph-name="odieresis" unicode="&#xf6;" horiz-adv-x="585" 
d="M212 611q-20 0 -33.5 13.5t-13.5 32.5q0 20 13.5 33.5t33.5 13.5q19 0 32.5 -13.5t13.5 -33.5q0 -19 -13.5 -32.5t-32.5 -13.5zM374 611q-20 0 -33.5 13.5t-13.5 32.5q0 20 13.5 33.5t33.5 13.5q19 0 32.5 -13.5t13.5 -33.5q0 -19 -13.5 -32.5t-32.5 -13.5zM292 -10
q-52 0 -96 18t-75.5 51t-49.5 79t-18 102q0 55 18 100.5t49.5 78.5t75.5 51t96 18q53 0 97 -18t75.5 -51t49.5 -78.5t18 -100.5q0 -56 -18 -102t-49.5 -79t-75.5 -51t-97 -18zM292 40q40 0 73 15t57 41.5t37 63t13 80.5q0 43 -13 79.5t-37 62.5t-57 41t-73 15t-73 -15
t-57 -41t-37 -62.5t-13 -79.5q0 -44 13 -80.5t37 -63t57 -41.5t73 -15z" />
    <glyph glyph-name="divide" unicode="&#xf7;" horiz-adv-x="607" 
d="M302 381q-17 0 -30 12.5t-13 31.5q0 17 13 30.5t30 13.5q18 0 31 -13.5t13 -30.5q0 -19 -13 -31.5t-31 -12.5zM54 216v48h500v-48h-500zM302 10q-17 0 -30 12.5t-13 31.5q0 17 13 30.5t30 13.5q18 0 31 -13.5t13 -30.5q0 -19 -13 -31.5t-31 -12.5z" />
    <glyph glyph-name="oslash" unicode="&#xf8;" horiz-adv-x="585" 
d="M449 434q39 -33 61 -82.5t22 -111.5q0 -56 -18 -102t-49.5 -79t-75.5 -51t-97 -18q-73 0 -129 35l-55 -80l-28 19l56 80q-39 33 -61 83t-22 113q0 55 18 100.5t49.5 78.5t75.5 51t96 18q72 0 129 -34l55 79l29 -19zM112 240q0 -47 15 -85t41 -65l222 319q-41 29 -98 29
q-40 0 -73 -15t-57 -41t-37 -62.5t-13 -79.5zM292 40q40 0 73 15t57 41.5t37 63t13 80.5q0 45 -14.5 83t-40.5 64l-223 -319q44 -28 98 -28z" />
    <glyph glyph-name="ugrave" unicode="&#xf9;" horiz-adv-x="530" 
d="M294 540h-51l-108 146h65zM394 478h60v-478h-60v72q-23 -38 -61.5 -60t-89.5 -22q-84 0 -129 46t-45 128v314h60v-305q0 -66 34 -99.5t94 -33.5t98.5 40.5t38.5 116.5v281z" />
    <glyph glyph-name="uacute" unicode="&#xfa;" horiz-adv-x="530" 
d="M390 686l-108 -146h-51l93 146h66zM394 478h60v-478h-60v72q-23 -38 -61.5 -60t-89.5 -22q-84 0 -129 46t-45 128v314h60v-305q0 -66 34 -99.5t94 -33.5t98.5 40.5t38.5 116.5v281z" />
    <glyph glyph-name="ucircumflex" unicode="&#xfb;" horiz-adv-x="530" 
d="M262 652l-82 -112h-48l96 146h68l96 -146h-48zM394 478h60v-478h-60v72q-23 -38 -61.5 -60t-89.5 -22q-84 0 -129 46t-45 128v314h60v-305q0 -66 34 -99.5t94 -33.5t98.5 40.5t38.5 116.5v281z" />
    <glyph glyph-name="udieresis" unicode="&#xfc;" horiz-adv-x="530" 
d="M181 611q-20 0 -33.5 13.5t-13.5 32.5q0 20 13.5 33.5t33.5 13.5q19 0 32.5 -13.5t13.5 -33.5q0 -19 -13.5 -32.5t-32.5 -13.5zM343 611q-20 0 -33.5 13.5t-13.5 32.5q0 20 13.5 33.5t33.5 13.5q19 0 32.5 -13.5t13.5 -33.5q0 -19 -13.5 -32.5t-32.5 -13.5zM394 478h60
v-478h-60v72q-23 -38 -61.5 -60t-89.5 -22q-84 0 -129 46t-45 128v314h60v-305q0 -66 34 -99.5t94 -33.5t98.5 40.5t38.5 116.5v281z" />
    <glyph glyph-name="yacute" unicode="&#xfd;" horiz-adv-x="513" 
d="M386 686l-108 -146h-51l93 146h66zM420 478h64l-300 -721h-65l107 252l-197 469h64l163 -408z" />
    <glyph glyph-name="thorn" unicode="&#xfe;" horiz-adv-x="604" 
d="M321 488q49 0 91 -18t72.5 -51t48 -79t17.5 -102q0 -55 -17.5 -101t-48 -79t-72.5 -51t-91 -18q-63 0 -112.5 30.5t-73.5 82.5v-345h-60v993h60v-375q24 53 73.5 83t112.5 30zM312 41q39 0 72 14.5t56.5 40.5t37 62.5t13.5 79.5q0 44 -13.5 81t-37 63t-56.5 40.5
t-72 14.5t-72 -14.5t-56.5 -40.5t-37 -63t-13.5 -81q0 -43 13.5 -79.5t37 -62.5t56.5 -40.5t72 -14.5z" />
    <glyph glyph-name="ydieresis" unicode="&#xff;" horiz-adv-x="513" 
d="M177 611q-20 0 -33.5 13.5t-13.5 32.5q0 20 13.5 33.5t33.5 13.5q19 0 32.5 -13.5t13.5 -33.5q0 -19 -13.5 -32.5t-32.5 -13.5zM339 611q-20 0 -33.5 13.5t-13.5 32.5q0 20 13.5 33.5t33.5 13.5q19 0 32.5 -13.5t13.5 -33.5q0 -19 -13.5 -32.5t-32.5 -13.5zM420 478h64
l-300 -721h-65l107 252l-197 469h64l163 -408z" />
    <glyph glyph-name="Amacron" unicode="&#x100;" horiz-adv-x="655" 
d="M486 809v-43h-315v43h315zM568 0l-68 177h-345l-68 -177h-65l266 686h79l266 -686h-65zM175 230h305l-152 395z" />
    <glyph glyph-name="amacron" unicode="&#x101;" horiz-adv-x="506" 
d="M362 626v-43h-225v43h225zM491 50v-50h-32q-35 0 -54.5 17t-19.5 55v28h-4q-23 -53 -69.5 -81.5t-112.5 -28.5q-64 0 -104.5 32t-40.5 95q0 69 48 104.5t132 49.5l106 18q14 2 24 9.5t10 21.5q0 60 -32.5 91t-91.5 31q-115 0 -128 -105l-59 8q11 72 58.5 107.5
t129.5 35.5q88 0 135.5 -44.5t47.5 -129.5v-214q0 -28 8.5 -39t31.5 -11h17zM212 39q78 0 121.5 55t43.5 158l-139 -26q-124 -19 -124 -104q0 -40 25.5 -61.5t72.5 -21.5z" />
    <glyph glyph-name="Abreve" unicode="&#x102;" horiz-adv-x="655" 
d="M327 723q-68 0 -110.5 27t-50.5 90h42q8 -43 38 -61.5t81 -18.5t81.5 18.5t38.5 61.5h42q-8 -63 -51 -90t-111 -27zM568 0l-68 177h-345l-68 -177h-65l266 686h79l266 -686h-65zM175 230h305l-152 395z" />
    <glyph glyph-name="abreve" unicode="&#x103;" horiz-adv-x="506" 
d="M249 530q-76 0 -120 39.5t-44 116.5h46q0 -56 30.5 -87.5t87.5 -31.5t88 31t31 88h46q0 -77 -44.5 -116.5t-120.5 -39.5zM491 50v-50h-32q-35 0 -54.5 17t-19.5 55v28h-4q-23 -53 -69.5 -81.5t-112.5 -28.5q-64 0 -104.5 32t-40.5 95q0 69 48 104.5t132 49.5l106 18
q14 2 24 9.5t10 21.5q0 60 -32.5 91t-91.5 31q-115 0 -128 -105l-59 8q11 72 58.5 107.5t129.5 35.5q88 0 135.5 -44.5t47.5 -129.5v-214q0 -28 8.5 -39t31.5 -11h17zM212 39q78 0 121.5 55t43.5 158l-139 -26q-124 -19 -124 -104q0 -40 25.5 -61.5t72.5 -21.5z" />
    <glyph glyph-name="Aogonek" unicode="&#x104;" horiz-adv-x="655" 
d="M522 -126q0 -19 17 -30t46 -11q24 0 48 9v-42q-28 -9 -58 -9q-42 0 -69 18t-27 51q0 35 30 72.5t76 67.5h-17l-68 177h-345l-68 -177h-65l266 686h79l266 -686q-48 -25 -79.5 -60.5t-31.5 -65.5zM175 230h305l-152 395z" />
    <glyph glyph-name="aogonek" unicode="&#x105;" horiz-adv-x="506" 
d="M381 -126q0 -19 17 -30t46 -11q24 0 48 9v-42q-28 -9 -58 -9q-42 0 -69 18t-27 51q0 35 30 72.5t77 68.5q-29 3 -44.5 20t-15.5 51v28h-4q-23 -53 -69.5 -81.5t-112.5 -28.5q-64 0 -104.5 32t-40.5 95q0 69 48 104.5t132 49.5l106 18q14 2 24 9.5t10 21.5q0 60 -32.5 91
t-91.5 31q-115 0 -128 -105l-59 8q11 72 58.5 107.5t129.5 35.5q88 0 135.5 -44.5t47.5 -129.5v-214q0 -28 8.5 -39t31.5 -11h17v-49l1 -1q-48 -25 -79.5 -60.5t-31.5 -65.5zM212 39q78 0 121.5 55t43.5 158l-139 -26q-124 -19 -124 -104q0 -40 25.5 -61.5t72.5 -21.5z" />
    <glyph glyph-name="Cacute" unicode="&#x106;" horiz-adv-x="736" 
d="M368 716l79 124h64l-92 -124h-51zM393 -11q-75 0 -138 26t-108 72.5t-70 111.5t-25 144t25 144t70 111.5t108 72.5t138 26q105 0 183.5 -48.5t119.5 -133.5l-58 -22q-33 69 -96.5 108t-148.5 39q-62 0 -113.5 -21.5t-88 -60.5t-57 -94t-20.5 -121t20.5 -121t57 -94
t88 -60.5t113.5 -21.5q85 0 148.5 39t96.5 108l58 -22q-41 -85 -119.5 -133.5t-183.5 -48.5z" />
    <glyph glyph-name="cacute" unicode="&#x107;" horiz-adv-x="555" 
d="M257 540l93 146h66l-108 -146h-51zM291 -10q-52 0 -96 18.5t-75.5 51.5t-49 79t-17.5 101q0 54 17.5 99.5t49 78.5t75.5 51.5t96 18.5q80 0 137.5 -42t78.5 -115l-55 -7q-18 54 -60.5 84.5t-101.5 30.5q-39 0 -72 -15t-56.5 -41t-36.5 -62.5t-13 -80.5t13 -80.5t36.5 -63
t56.5 -41.5t72 -15q59 0 101.5 30.5t60.5 84.5l55 -8q-21 -73 -79 -115t-137 -42z" />
    <glyph glyph-name="Cdotaccent" unicode="&#x10a;" horiz-adv-x="736" 
d="M394 739q-20 0 -33.5 13.5t-13.5 33.5t13.5 33t33.5 13q19 0 32.5 -13t13.5 -33t-13.5 -33.5t-32.5 -13.5zM393 -11q-75 0 -138 26t-108 72.5t-70 111.5t-25 144t25 144t70 111.5t108 72.5t138 26q105 0 183.5 -48.5t119.5 -133.5l-58 -22q-33 69 -96.5 108t-148.5 39
q-62 0 -113.5 -21.5t-88 -60.5t-57 -94t-20.5 -121t20.5 -121t57 -94t88 -60.5t113.5 -21.5q85 0 148.5 39t96.5 108l58 -22q-41 -85 -119.5 -133.5t-183.5 -48.5z" />
    <glyph glyph-name="cdotaccent" unicode="&#x10b;" horiz-adv-x="555" 
d="M289 611q-20 0 -33.5 13.5t-13.5 32.5q0 20 13.5 33.5t33.5 13.5q19 0 32.5 -13.5t13.5 -33.5q0 -19 -13.5 -32.5t-32.5 -13.5zM291 -10q-52 0 -96 18.5t-75.5 51.5t-49 79t-17.5 101q0 54 17.5 99.5t49 78.5t75.5 51.5t96 18.5q80 0 137.5 -42t78.5 -115l-55 -7
q-18 54 -60.5 84.5t-101.5 30.5q-39 0 -72 -15t-56.5 -41t-36.5 -62.5t-13 -80.5t13 -80.5t36.5 -63t56.5 -41.5t72 -15q59 0 101.5 30.5t60.5 84.5l55 -8q-21 -73 -79 -115t-137 -42z" />
    <glyph glyph-name="Ccaron" unicode="&#x10c;" horiz-adv-x="736" 
d="M355 731l-96 109h48l86 -82l85 82h49l-97 -109h-75zM393 -11q-75 0 -138 26t-108 72.5t-70 111.5t-25 144t25 144t70 111.5t108 72.5t138 26q105 0 183.5 -48.5t119.5 -133.5l-58 -22q-33 69 -96.5 108t-148.5 39q-62 0 -113.5 -21.5t-88 -60.5t-57 -94t-20.5 -121
t20.5 -121t57 -94t88 -60.5t113.5 -21.5q85 0 148.5 39t96.5 108l58 -22q-41 -85 -119.5 -133.5t-183.5 -48.5z" />
    <glyph glyph-name="ccaron" unicode="&#x10d;" horiz-adv-x="555" 
d="M254 540l-96 146h48l82 -113l82 113h48l-96 -146h-68zM291 -10q-52 0 -96 18.5t-75.5 51.5t-49 79t-17.5 101q0 54 17.5 99.5t49 78.5t75.5 51.5t96 18.5q80 0 137.5 -42t78.5 -115l-55 -7q-18 54 -60.5 84.5t-101.5 30.5q-39 0 -72 -15t-56.5 -41t-36.5 -62.5t-13 -80.5
t13 -80.5t36.5 -63t56.5 -41.5t72 -15q59 0 101.5 30.5t60.5 84.5l55 -8q-21 -73 -79 -115t-137 -42z" />
    <glyph glyph-name="Dcaron" unicode="&#x10e;" horiz-adv-x="671" 
d="M228 731l-96 109h48l86 -82l85 82h49l-97 -109h-75zM82 0v686h164q91 0 154.5 -17.5t107.5 -52.5q109 -85 109 -273t-109 -273q-44 -35 -107.5 -52.5t-154.5 -17.5h-164zM143 56h103q148 0 220 59q89 68 89 228t-89 228q-72 59 -220 59h-103v-574z" />
    <glyph glyph-name="dcaron" unicode="&#x10f;" horiz-adv-x="739" 
d="M469 750h59v-750h-57l-1 106q-24 -54 -73.5 -85t-114.5 -31q-49 0 -91 18t-72.5 50.5t-48 78.5t-17.5 102t17.5 101.5t48 78.5t72.5 51t91 18q65 0 114 -30.5t73 -84.5v377zM679 686h60l-73 -302h-47zM292 42q39 0 71.5 14.5t56.5 40.5t37.5 62t13.5 80t-13.5 80.5
t-37.5 62.5t-56.5 40.5t-71.5 14.5t-72 -14.5t-57 -40.5t-37.5 -62.5t-13.5 -80.5t13.5 -80t37.5 -62t57 -40.5t72 -14.5z" />
    <glyph glyph-name="Dcroat" unicode="&#x110;" horiz-adv-x="671" 
d="M508 616q109 -85 109 -273t-109 -273q-44 -35 -107.5 -52.5t-154.5 -17.5h-164v323h-80v42h80v321h164q91 0 154.5 -17.5t107.5 -52.5zM466 115q89 68 89 228t-89 228q-72 59 -220 59h-103v-265h151v-42h-151v-267h103q148 0 220 59z" />
    <glyph glyph-name="dcroat" unicode="&#x111;" horiz-adv-x="604" 
d="M613 629v-42h-85v-587h-59v105q-24 -54 -73 -84.5t-114 -30.5q-49 0 -91 18t-72.5 50.5t-48 78.5t-17.5 102t17.5 101.5t48 78.5t72.5 51t91 18q65 0 114 -30.5t73 -84.5v214h-148v42h148v121h59v-121h85zM292 42q39 0 71.5 14.5t56.5 40.5t37.5 62t13.5 80t-13.5 80.5
t-37.5 62.5t-56.5 40.5t-71.5 14.5t-72 -14.5t-57 -40.5t-37.5 -62.5t-13.5 -80.5t13.5 -80t37.5 -62t57 -40.5t72 -14.5z" />
    <glyph glyph-name="Emacron" unicode="&#x112;" horiz-adv-x="490" 
d="M430 809v-43h-315v43h315zM448 630h-304v-260h270v-55h-270v-259h304v-56h-365v686h365v-56z" />
    <glyph glyph-name="emacron" unicode="&#x113;" horiz-adv-x="572" 
d="M400 626v-43h-225v43h225zM521 227h-409q2 -42 15.5 -76.5t37.5 -59t56 -38t69 -13.5q54 0 94.5 26t62.5 73l55 -11q-26 -65 -82 -101.5t-129 -36.5q-53 0 -96.5 18t-75 51t-49 79t-17.5 101q0 56 17.5 101.5t49 78.5t74.5 51t95 18q50 0 92.5 -17.5t73.5 -49.5
t48.5 -77.5t17.5 -102.5v-14zM289 439q-72 0 -120 -43.5t-56 -121.5h348q-6 76 -53.5 120.5t-118.5 44.5z" />
    <glyph glyph-name="Ebreve" unicode="&#x114;" horiz-adv-x="490" 
d="M271 723q-68 0 -110.5 27t-50.5 90h42q8 -43 38 -61.5t81 -18.5t81.5 18.5t38.5 61.5h42q-8 -63 -51 -90t-111 -27zM448 630h-304v-260h270v-55h-270v-259h304v-56h-365v686h365v-56z" />
    <glyph glyph-name="ebreve" unicode="&#x115;" horiz-adv-x="572" 
d="M287 530q-76 0 -120 39.5t-44 116.5h46q0 -56 30.5 -87.5t87.5 -31.5t88 31t31 88h46q0 -77 -44.5 -116.5t-120.5 -39.5zM521 227h-409q2 -42 15.5 -76.5t37.5 -59t56 -38t69 -13.5q54 0 94.5 26t62.5 73l55 -11q-26 -65 -82 -101.5t-129 -36.5q-53 0 -96.5 18t-75 51
t-49 79t-17.5 101q0 56 17.5 101.5t49 78.5t74.5 51t95 18q50 0 92.5 -17.5t73.5 -49.5t48.5 -77.5t17.5 -102.5v-14zM289 439q-72 0 -120 -43.5t-56 -121.5h348q-6 76 -53.5 120.5t-118.5 44.5z" />
    <glyph glyph-name="Edotaccent" unicode="&#x116;" horiz-adv-x="490" 
d="M273 739q-20 0 -33.5 13.5t-13.5 33.5t13.5 33t33.5 13q19 0 32.5 -13t13.5 -33t-13.5 -33.5t-32.5 -13.5zM448 630h-304v-260h270v-55h-270v-259h304v-56h-365v686h365v-56z" />
    <glyph glyph-name="edotaccent" unicode="&#x117;" horiz-adv-x="572" 
d="M288 611q-20 0 -33.5 13.5t-13.5 32.5q0 20 13.5 33.5t33.5 13.5q19 0 32.5 -13.5t13.5 -33.5q0 -19 -13.5 -32.5t-32.5 -13.5zM521 227h-409q2 -42 15.5 -76.5t37.5 -59t56 -38t69 -13.5q54 0 94.5 26t62.5 73l55 -11q-26 -65 -82 -101.5t-129 -36.5q-53 0 -96.5 18
t-75 51t-49 79t-17.5 101q0 56 17.5 101.5t49 78.5t74.5 51t95 18q50 0 92.5 -17.5t73.5 -49.5t48.5 -77.5t17.5 -102.5v-14zM289 439q-72 0 -120 -43.5t-56 -121.5h348q-6 76 -53.5 120.5t-118.5 44.5z" />
    <glyph glyph-name="Eogonek" unicode="&#x118;" horiz-adv-x="490" 
d="M448 630h-304v-260h270v-55h-270v-259h304v-56q-48 -25 -79.5 -60.5t-31.5 -65.5q0 -19 17 -30t46 -11q24 0 48 9v-42q-28 -9 -58 -9q-42 0 -69 18t-27 51q0 35 30 72.5t76 67.5h-317v686h365v-56z" />
    <glyph glyph-name="eogonek" unicode="&#x119;" horiz-adv-x="572" 
d="M521 227h-409q2 -42 15.5 -76.5t37.5 -59t56 -38t69 -13.5q54 0 94.5 26t62.5 73l55 -11q-20 -48 -56.5 -81.5t-85.5 -47.5q-48 -25 -79 -60t-31 -65q0 -19 17 -30t46 -11q24 0 48 9v-42q-28 -9 -58 -9q-42 0 -69 18t-27 51q0 32 25.5 66.5t66.5 63.5h-8q-53 0 -96.5 18
t-75 51t-49 79t-17.5 101q0 56 17.5 101.5t49 78.5t74.5 51t95 18q50 0 92.5 -17.5t73.5 -49.5t48.5 -77.5t17.5 -102.5v-14zM289 439q-72 0 -120 -43.5t-56 -121.5h348q-6 76 -53.5 120.5t-118.5 44.5z" />
    <glyph glyph-name="Ecaron" unicode="&#x11a;" horiz-adv-x="490" 
d="M309 731h-75l-96 109h48l86 -82l85 82h49zM448 630h-304v-260h270v-55h-270v-259h304v-56h-365v686h365v-56z" />
    <glyph glyph-name="ecaron" unicode="&#x11b;" horiz-adv-x="572" 
d="M321 540h-68l-96 146h48l82 -113l82 113h48zM521 227h-409q2 -42 15.5 -76.5t37.5 -59t56 -38t69 -13.5q54 0 94.5 26t62.5 73l55 -11q-26 -65 -82 -101.5t-129 -36.5q-53 0 -96.5 18t-75 51t-49 79t-17.5 101q0 56 17.5 101.5t49 78.5t74.5 51t95 18q50 0 92.5 -17.5
t73.5 -49.5t48.5 -77.5t17.5 -102.5v-14zM289 439q-72 0 -120 -43.5t-56 -121.5h348q-6 76 -53.5 120.5t-118.5 44.5z" />
    <glyph glyph-name="Gcircumflex" unicode="&#x11c;" horiz-adv-x="775" 
d="M255 731l96 109h75l97 -109h-49l-85 82l-86 -82h-48zM390 -11q-75 0 -137 26t-106.5 72.5t-69.5 111.5t-25 144t25 144t70 111.5t108 72.5t138 26q100 0 176 -43.5t119 -121.5l-54 -29q-35 64 -97.5 100.5t-143.5 36.5q-62 0 -113.5 -21.5t-88 -60.5t-57 -94t-20.5 -121
t20 -121t56.5 -94t88 -60.5t114.5 -21.5q56 0 101 17.5t78 50t53 79t26 103.5h-256v52h316v-348h-51v168q-32 -82 -99.5 -130.5t-170.5 -48.5z" />
    <glyph glyph-name="gcircumflex" unicode="&#x11d;" horiz-adv-x="599" 
d="M293 652l-82 -112h-48l96 146h68l96 -146h-48zM464 478h59v-479q0 -122 -62 -185.5t-169 -63.5q-87 0 -143.5 40.5t-82.5 107.5l50 23q22 -57 66 -89.5t108 -32.5q85 0 129.5 52t44.5 145v118q-23 -53 -72 -85t-115 -32q-48 0 -89 18t-71 51t-47 78.5t-17 99.5t17 99
t47 77t71.5 50t89.5 18q66 0 114.5 -32t71.5 -84v106zM288 48q39 0 71.5 14.5t56.5 40.5t37 62t13 79q0 42 -13 78t-37 61.5t-56.5 40t-71.5 14.5t-71.5 -14.5t-56 -40t-37 -61.5t-13.5 -78q0 -43 13.5 -79t37 -62t56 -40.5t71.5 -14.5z" />
    <glyph glyph-name="Gbreve" unicode="&#x11e;" horiz-adv-x="775" 
d="M389 723q-68 0 -110.5 27t-50.5 90h42q8 -43 38 -61.5t81 -18.5t81.5 18.5t38.5 61.5h42q-8 -63 -51 -90t-111 -27zM390 -11q-75 0 -137 26t-106.5 72.5t-69.5 111.5t-25 144t25 144t70 111.5t108 72.5t138 26q100 0 176 -43.5t119 -121.5l-54 -29q-35 64 -97.5 100.5
t-143.5 36.5q-62 0 -113.5 -21.5t-88 -60.5t-57 -94t-20.5 -121t20 -121t56.5 -94t88 -60.5t114.5 -21.5q56 0 101 17.5t78 50t53 79t26 103.5h-256v52h316v-348h-51v168q-32 -82 -99.5 -130.5t-170.5 -48.5z" />
    <glyph glyph-name="gbreve" unicode="&#x11f;" horiz-adv-x="599" 
d="M293 530q-76 0 -120 39.5t-44 116.5h46q0 -56 30.5 -87.5t87.5 -31.5t88 31t31 88h46q0 -77 -44.5 -116.5t-120.5 -39.5zM464 478h59v-479q0 -122 -62 -185.5t-169 -63.5q-87 0 -143.5 40.5t-82.5 107.5l50 23q22 -57 66 -89.5t108 -32.5q85 0 129.5 52t44.5 145v118
q-23 -53 -72 -85t-115 -32q-48 0 -89 18t-71 51t-47 78.5t-17 99.5t17 99t47 77t71.5 50t89.5 18q66 0 114.5 -32t71.5 -84v106zM288 48q39 0 71.5 14.5t56.5 40.5t37 62t13 79q0 42 -13 78t-37 61.5t-56.5 40t-71.5 14.5t-71.5 -14.5t-56 -40t-37 -61.5t-13.5 -78
q0 -43 13.5 -79t37 -62t56 -40.5t71.5 -14.5z" />
    <glyph glyph-name="Gdotaccent" unicode="&#x120;" horiz-adv-x="775" 
d="M390 739q-20 0 -33.5 13.5t-13.5 33.5t13.5 33t33.5 13q19 0 32.5 -13t13.5 -33t-13.5 -33.5t-32.5 -13.5zM390 -11q-75 0 -137 26t-106.5 72.5t-69.5 111.5t-25 144t25 144t70 111.5t108 72.5t138 26q100 0 176 -43.5t119 -121.5l-54 -29q-35 64 -97.5 100.5
t-143.5 36.5q-62 0 -113.5 -21.5t-88 -60.5t-57 -94t-20.5 -121t20 -121t56.5 -94t88 -60.5t114.5 -21.5q56 0 101 17.5t78 50t53 79t26 103.5h-256v52h316v-348h-51v168q-32 -82 -99.5 -130.5t-170.5 -48.5z" />
    <glyph glyph-name="gdotaccent" unicode="&#x121;" horiz-adv-x="599" 
d="M294 611q-20 0 -33.5 13.5t-13.5 32.5q0 20 13.5 33.5t33.5 13.5q19 0 32.5 -13.5t13.5 -33.5q0 -19 -13.5 -32.5t-32.5 -13.5zM464 478h59v-479q0 -122 -62 -185.5t-169 -63.5q-87 0 -143.5 40.5t-82.5 107.5l50 23q22 -57 66 -89.5t108 -32.5q85 0 129.5 52t44.5 145
v118q-23 -53 -72 -85t-115 -32q-48 0 -89 18t-71 51t-47 78.5t-17 99.5t17 99t47 77t71.5 50t89.5 18q66 0 114.5 -32t71.5 -84v106zM288 48q39 0 71.5 14.5t56.5 40.5t37 62t13 79q0 42 -13 78t-37 61.5t-56.5 40t-71.5 14.5t-71.5 -14.5t-56 -40t-37 -61.5t-13.5 -78
q0 -43 13.5 -79t37 -62t56 -40.5t71.5 -14.5z" />
    <glyph glyph-name="uni0122" unicode="&#x122;" horiz-adv-x="775" 
d="M390 -11q-75 0 -137 26t-106.5 72.5t-69.5 111.5t-25 144t25 144t70 111.5t108 72.5t138 26q100 0 176 -43.5t119 -121.5l-54 -29q-35 64 -97.5 100.5t-143.5 36.5q-62 0 -113.5 -21.5t-88 -60.5t-57 -94t-20.5 -121t20 -121t56.5 -94t88 -60.5t114.5 -21.5
q56 0 101 17.5t78 50t53 79t26 103.5h-256v52h316v-348h-51v168q-32 -82 -99.5 -130.5t-170.5 -48.5zM265 -176l96 146h55l-108 -146h-43z" />
    <glyph glyph-name="uni0123" unicode="&#x123;" horiz-adv-x="599" 
d="M417 686l-96 -146h-55l108 146h43zM464 478h59v-479q0 -122 -62 -185.5t-169 -63.5q-87 0 -143.5 40.5t-82.5 107.5l50 23q22 -57 66 -89.5t108 -32.5q85 0 129.5 52t44.5 145v118q-23 -53 -72 -85t-115 -32q-48 0 -89 18t-71 51t-47 78.5t-17 99.5t17 99t47 77t71.5 50
t89.5 18q66 0 114.5 -32t71.5 -84v106zM288 48q39 0 71.5 14.5t56.5 40.5t37 62t13 79q0 42 -13 78t-37 61.5t-56.5 40t-71.5 14.5t-71.5 -14.5t-56 -40t-37 -61.5t-13.5 -78q0 -43 13.5 -79t37 -62t56 -40.5t71.5 -14.5z" />
    <glyph glyph-name="Hcircumflex" unicode="&#x124;" horiz-adv-x="682" 
d="M208 731l96 109h75l97 -109h-49l-85 82l-86 -82h-48zM83 0v686h61v-315h395v315h61v-686h-61v316h-395v-316h-61z" />
    <glyph glyph-name="hcircumflex" unicode="&#x125;" horiz-adv-x="530" 
d="M266 877l-86 -82h-48l96 109h75l97 -109h-49zM289 488q81 0 125.5 -46t44.5 -133v-309h-59v302q0 68 -34 102t-95 34q-59 0 -97.5 -40t-38.5 -117v-281h-60v750h60v-345q23 39 62 61t92 22z" />
    <glyph glyph-name="Hbar" unicode="&#x126;" horiz-adv-x="682" 
d="M669 551v-32h-69v-519h-61v316h-395v-316h-61v519h-70v32h70v135h61v-135h395v135h61v-135h69zM539 371v148h-395v-148h395z" />
    <glyph glyph-name="hbar" unicode="&#x127;" horiz-adv-x="530" 
d="M289 488q81 0 125.5 -46t44.5 -133v-309h-59v302q0 68 -34 102t-95 34q-59 0 -97.5 -40t-38.5 -117v-281h-60v588h-66v42h66v120h60v-120h166v-42h-166v-183q23 39 62 61t92 22z" />
    <glyph glyph-name="Itilde" unicode="&#x128;" horiz-adv-x="227" 
d="M184 716q-35 0 -53 16t-31 33q-12 16 -24.5 27t-35.5 11q-26 0 -41 -21.5t-15 -56.5h-36q0 51 26 84t68 33q35 0 53.5 -16.5t32.5 -33.5q11 -15 23.5 -26.5t35.5 -11.5q25 0 39.5 22t14.5 57h36q0 -51 -25.5 -84t-67.5 -33zM83 0v686h61v-686h-61z" />
    <glyph glyph-name="itilde" unicode="&#x129;" horiz-adv-x="209" 
d="M175 538q-35 0 -53 16t-31 33q-12 16 -24.5 27t-35.5 11q-26 0 -41 -21.5t-15 -56.5h-36q0 51 26 84t68 33q35 0 53.5 -16.5t32.5 -33.5q11 -15 23.5 -26.5t35.5 -11.5q25 0 39.5 22t14.5 57h36q0 -51 -25.5 -84t-67.5 -33zM75 0v478h59v-478h-59z" />
    <glyph glyph-name="Imacron" unicode="&#x12a;" horiz-adv-x="227" 
d="M-45 766v43h316v-43h-316zM83 0v686h61v-686h-61z" />
    <glyph glyph-name="imacron" unicode="&#x12b;" horiz-adv-x="209" 
d="M-9 583v43h226v-43h-226zM75 0v478h59v-478h-59z" />
    <glyph glyph-name="Ibreve" unicode="&#x12c;" horiz-adv-x="227" 
d="M112 723q-68 0 -111 27t-51 90h43q8 -43 38 -61.5t81 -18.5t81.5 18.5t38.5 61.5h42q-8 -63 -51 -90t-111 -27zM83 0v686h61v-686h-61z" />
    <glyph glyph-name="ibreve" unicode="&#x12d;" horiz-adv-x="209" 
d="M104 530q-76 0 -120.5 39.5t-44.5 116.5h47q0 -56 30.5 -87.5t87.5 -31.5t88 31t31 88h46q0 -77 -44.5 -116.5t-120.5 -39.5zM75 0v478h59v-478h-59z" />
    <glyph glyph-name="Iogonek" unicode="&#x12e;" horiz-adv-x="227" 
d="M144 0q-48 -25 -79.5 -60.5t-31.5 -65.5q0 -19 17 -30t46 -11q24 0 48 9v-42q-28 -9 -58 -9q-42 0 -69.5 18t-27.5 51q0 35 30 72.5t77 67.5h-13v686h61v-686z" />
    <glyph glyph-name="iogonek" unicode="&#x12f;" horiz-adv-x="209" 
d="M105 704q19 0 32.5 -13.5t13.5 -33.5q0 -19 -13.5 -32.5t-32.5 -13.5q-20 0 -33.5 13.5t-13.5 32.5q0 20 13.5 33.5t33.5 13.5zM75 0v478h59v-478q-48 -25 -79.5 -60.5t-31.5 -65.5q0 -19 17 -30t46 -11q24 0 48 9v-42q-28 -9 -58 -9q-42 0 -69.5 18t-27.5 51
q0 35 30 72.5t77 67.5h-11z" />
    <glyph glyph-name="Idotaccent" unicode="&#x130;" horiz-adv-x="227" 
d="M114 739q-20 0 -33.5 13.5t-13.5 33.5t13.5 33t33.5 13q19 0 32.5 -13t13.5 -33t-13.5 -33.5t-32.5 -13.5zM83 0v686h61v-686h-61z" />
    <glyph glyph-name="dotlessi" unicode="&#x131;" horiz-adv-x="209" 
d="M75 0v478h59v-478h-59z" />
    <glyph glyph-name="IJ" unicode="&#x132;" horiz-adv-x="638" 
d="M83 0v686h61v-686h-61zM384 -11q-35 0 -71 10t-69 31l27 50q50 -33 106 -33q57 0 89 37.5t32 106.5v495h61v-504q0 -90 -48.5 -141.5t-126.5 -51.5z" />
    <glyph glyph-name="ij" unicode="&#x133;" horiz-adv-x="415" 
d="M105 611q-20 0 -33.5 13.5t-13.5 32.5q0 20 13.5 33.5t33.5 13.5q19 0 32.5 -13.5t13.5 -33.5q0 -19 -13.5 -32.5t-32.5 -13.5zM309 611q-19 0 -33 13.5t-14 32.5q0 20 14 33.5t33 13.5t33 -13.5t14 -33.5q0 -19 -14 -32.5t-33 -13.5zM75 0v478h59v-478h-59zM147 -194
q39 0 64.5 8.5t40.5 28.5t21 53t6 83v499h60v-499q0 -60 -10 -102.5t-32.5 -69t-59 -38.5t-90.5 -12v49z" />
    <glyph glyph-name="Jcircumflex" unicode="&#x134;" horiz-adv-x="411" 
d="M168 731l96 109h75l97 -109h-49l-85 82l-86 -82h-48zM157 -11q-35 0 -71 10t-69 31l27 50q50 -33 106 -33q57 0 89 37.5t32 106.5v495h61v-504q0 -90 -48.5 -141.5t-126.5 -51.5z" />
    <glyph glyph-name="jcircumflex" unicode="&#x135;" horiz-adv-x="206" 
d="M-31 540l97 146h68l96 -146h-48l-82 112l-82 -112h-49zM-62 -194q39 0 64.5 8.5t40.5 28.5t21 53t6 83v499h60v-499q0 -60 -10 -102.5t-32.5 -69t-59 -38.5t-90.5 -12v49z" />
    <glyph glyph-name="uni0136" unicode="&#x136;" horiz-adv-x="603" 
d="M269 359l313 -359h-79l-286 330h-73v-330h-61v686h61v-301h73l273 301h77zM173 -176l96 146h55l-108 -146h-43z" />
    <glyph glyph-name="uni0137" unicode="&#x137;" horiz-adv-x="501" 
d="M226 253l246 -253h-74l-223 229h-40v-229h-60v750h60v-476h40l207 204h72zM122 -176l96 146h55l-108 -146h-43z" />
    <glyph glyph-name="kgreenlandic" unicode="&#x138;" horiz-adv-x="501" 
d="M226 253l247 -253h-74l-224 229h-40v-229h-59v478h59v-204h41l207 204h72z" />
    <glyph glyph-name="Lacute" unicode="&#x139;" horiz-adv-x="424" 
d="M88 716l79 124h64l-92 -124h-51zM83 0v686h61v-630h261v-56h-322z" />
    <glyph glyph-name="lacute" unicode="&#x13a;" horiz-adv-x="210" 
d="M74 812l93 146h66l-108 -146h-51zM75 0v750h60v-750h-60z" />
    <glyph glyph-name="uni013B" unicode="&#x13b;" horiz-adv-x="424" 
d="M83 0v686h61v-630h261v-56h-322zM95 -176l96 146h55l-108 -146h-43z" />
    <glyph glyph-name="uni013C" unicode="&#x13c;" horiz-adv-x="210" 
d="M75 0v750h60v-750h-60zM-21 -176l97 146h55l-108 -146h-44z" />
    <glyph glyph-name="Lcaron" unicode="&#x13d;" horiz-adv-x="475" 
d="M83 0v686h61v-630h261v-56h-322zM301 384l60 302h60l-73 -302h-47z" />
    <glyph glyph-name="lcaron" unicode="&#x13e;" horiz-adv-x="350" 
d="M75 0v750h60v-750h-60zM231 384l59 302h61l-74 -302h-46z" />
    <glyph glyph-name="Ldot" unicode="&#x13f;" horiz-adv-x="463" 
d="M83 0v686h61v-630h261v-56h-322zM384 295q-19 0 -33 14t-14 34q0 19 14 33t33 14t33 -14t14 -33q0 -20 -14 -34t-33 -14z" />
    <glyph glyph-name="ldot" unicode="&#x140;" horiz-adv-x="329" 
d="M75 0v750h60v-750h-60zM286 328q-19 0 -33 13.5t-14 33.5q0 19 14 33t33 14t33 -14t14 -33q0 -20 -14 -33.5t-33 -13.5z" />
    <glyph glyph-name="Lslash" unicode="&#x141;" horiz-adv-x="424" 
d="M144 56h261v-56h-322v298l-74 -56v55l74 56v333h61v-288l125 94v-55l-125 -94v-287z" />
    <glyph glyph-name="lslash" unicode="&#x142;" horiz-adv-x="210" 
d="M234 493v-55l-99 -74v-364h-60v319l-102 -76v55l102 76v376h60v-331z" />
    <glyph glyph-name="Nacute" unicode="&#x143;" horiz-adv-x="707" 
d="M476 840l-92 -124h-51l79 124h64zM563 686h62v-686h-80l-401 610v-610h-61v686h78l402 -609v609z" />
    <glyph glyph-name="nacute" unicode="&#x144;" horiz-adv-x="531" 
d="M391 686l-108 -146h-51l93 146h66zM287 488q84 0 128.5 -45.5t44.5 -128.5v-314h-60v305q0 66 -34 99.5t-94 33.5t-98.5 -40.5t-38.5 -116.5v-281h-59v478h59v-71q23 38 62 59.5t90 21.5z" />
    <glyph glyph-name="uni0145" unicode="&#x145;" horiz-adv-x="707" 
d="M563 686h62v-686h-80l-401 610v-610h-61v686h78l402 -609v609zM235 -176l96 146h55l-108 -146h-43z" />
    <glyph glyph-name="uni0146" unicode="&#x146;" horiz-adv-x="531" 
d="M287 488q84 0 128.5 -45.5t44.5 -128.5v-314h-60v305q0 66 -34 99.5t-94 33.5t-98.5 -40.5t-38.5 -116.5v-281h-59v478h59v-71q23 38 62 59.5t90 21.5zM139 -176l96 146h55l-108 -146h-43z" />
    <glyph glyph-name="Ncaron" unicode="&#x147;" horiz-adv-x="707" 
d="M395 731h-75l-96 109h48l86 -82l85 82h49zM563 686h62v-686h-80l-401 610v-610h-61v686h78l402 -609v609z" />
    <glyph glyph-name="ncaron" unicode="&#x148;" horiz-adv-x="531" 
d="M296 540h-68l-96 146h48l82 -113l82 113h48zM287 488q84 0 128.5 -45.5t44.5 -128.5v-314h-60v305q0 66 -34 99.5t-94 33.5t-98.5 -40.5t-38.5 -116.5v-281h-59v478h59v-71q23 38 62 59.5t90 21.5z" />
    <glyph glyph-name="napostrophe" unicode="&#x149;" horiz-adv-x="666" 
d="M67 384l59 302h61l-74 -302h-46zM422 488q84 0 128.5 -45.5t44.5 -128.5v-314h-59v305q0 66 -34 99.5t-94 33.5t-98.5 -40.5t-38.5 -116.5v-281h-60v478h60v-71q23 38 61.5 59.5t89.5 21.5z" />
    <glyph glyph-name="Eng" unicode="&#x14a;" horiz-adv-x="707" 
d="M563 686h62v-713q0 -115 -44 -164t-143 -49v49q34 0 57 7.5t37 25t20 46.5t6 73q0 19 -13 39l-401 609v-609h-61v686h78l402 -607v607z" />
    <glyph glyph-name="eng" unicode="&#x14b;" horiz-adv-x="531" 
d="M287 488q84 0 128.5 -45.5t44.5 -128.5v-335q0 -60 -10 -102.5t-32.5 -69t-59 -38.5t-90.5 -12v49q39 0 64.5 8.5t40.5 28.5t21 53t6 83v326q0 66 -34 99.5t-94 33.5t-98.5 -40.5t-38.5 -116.5v-281h-59v478h59v-71q23 38 62 59.5t90 21.5z" />
    <glyph glyph-name="Omacron" unicode="&#x14c;" horiz-adv-x="787" 
d="M236 766v43h315v-43h-315zM393 -11q-75 0 -138 26t-108 72.5t-70 111.5t-25 144t25 144t70 111.5t108 72.5t138 26t138 -26t108 -72.5t70 -111.5t25 -144t-25 -144t-70 -111.5t-108 -72.5t-138 -26zM393 46q62 0 113.5 21.5t88.5 60.5t57 94t20 121t-20 121t-57 94
t-88.5 60.5t-113.5 21.5t-113.5 -21.5t-88 -60.5t-57 -94t-20.5 -121t20.5 -121t57 -94t88 -60.5t113.5 -21.5z" />
    <glyph glyph-name="omacron" unicode="&#x14d;" horiz-adv-x="585" 
d="M181 583v43h225v-43h-225zM292 -10q-52 0 -96 18t-75.5 51t-49.5 79t-18 102q0 55 18 100.5t49.5 78.5t75.5 51t96 18q53 0 97 -18t75.5 -51t49.5 -78.5t18 -100.5q0 -56 -18 -102t-49.5 -79t-75.5 -51t-97 -18zM292 40q40 0 73 15t57 41.5t37 63t13 80.5q0 43 -13 79.5
t-37 62.5t-57 41t-73 15t-73 -15t-57 -41t-37 -62.5t-13 -79.5q0 -44 13 -80.5t37 -63t57 -41.5t73 -15z" />
    <glyph glyph-name="Obreve" unicode="&#x14e;" horiz-adv-x="787" 
d="M392 723q-68 0 -110.5 27t-50.5 90h42q8 -43 38 -61.5t81 -18.5t81.5 18.5t38.5 61.5h42q-8 -63 -51 -90t-111 -27zM393 -11q-75 0 -138 26t-108 72.5t-70 111.5t-25 144t25 144t70 111.5t108 72.5t138 26t138 -26t108 -72.5t70 -111.5t25 -144t-25 -144t-70 -111.5
t-108 -72.5t-138 -26zM393 46q62 0 113.5 21.5t88.5 60.5t57 94t20 121t-20 121t-57 94t-88.5 60.5t-113.5 21.5t-113.5 -21.5t-88 -60.5t-57 -94t-20.5 -121t20.5 -121t57 -94t88 -60.5t113.5 -21.5z" />
    <glyph glyph-name="obreve" unicode="&#x14f;" horiz-adv-x="585" 
d="M292 530q-76 0 -120 39.5t-44 116.5h46q0 -56 30.5 -87.5t87.5 -31.5t88 31t31 88h46q0 -77 -44.5 -116.5t-120.5 -39.5zM292 -10q-52 0 -96 18t-75.5 51t-49.5 79t-18 102q0 55 18 100.5t49.5 78.5t75.5 51t96 18q53 0 97 -18t75.5 -51t49.5 -78.5t18 -100.5
q0 -56 -18 -102t-49.5 -79t-75.5 -51t-97 -18zM292 40q40 0 73 15t57 41.5t37 63t13 80.5q0 43 -13 79.5t-37 62.5t-57 41t-73 15t-73 -15t-57 -41t-37 -62.5t-13 -79.5q0 -44 13 -80.5t37 -63t57 -41.5t73 -15z" />
    <glyph glyph-name="Ohungarumlaut" unicode="&#x150;" horiz-adv-x="787" 
d="M296 716l81 124h62l-92 -124h-51zM438 716l82 124h62l-93 -124h-51zM393 -11q-75 0 -138 26t-108 72.5t-70 111.5t-25 144t25 144t70 111.5t108 72.5t138 26t138 -26t108 -72.5t70 -111.5t25 -144t-25 -144t-70 -111.5t-108 -72.5t-138 -26zM393 46q62 0 113.5 21.5
t88.5 60.5t57 94t20 121t-20 121t-57 94t-88.5 60.5t-113.5 21.5t-113.5 -21.5t-88 -60.5t-57 -94t-20.5 -121t20.5 -121t57 -94t88 -60.5t113.5 -21.5z" />
    <glyph glyph-name="ohungarumlaut" unicode="&#x151;" horiz-adv-x="585" 
d="M197 540l96 146h63l-108 -146h-51zM339 540l96 146h63l-108 -146h-51zM292 -10q-52 0 -96 18t-75.5 51t-49.5 79t-18 102q0 55 18 100.5t49.5 78.5t75.5 51t96 18q53 0 97 -18t75.5 -51t49.5 -78.5t18 -100.5q0 -56 -18 -102t-49.5 -79t-75.5 -51t-97 -18zM292 40
q40 0 73 15t57 41.5t37 63t13 80.5q0 43 -13 79.5t-37 62.5t-57 41t-73 15t-73 -15t-57 -41t-37 -62.5t-13 -79.5q0 -44 13 -80.5t37 -63t57 -41.5t73 -15z" />
    <glyph glyph-name="OE" unicode="&#x152;" horiz-adv-x="933" 
d="M423 0q-91 0 -154.5 17.5t-107.5 52.5q-109 85 -109 273t109 273q44 35 107.5 52.5t154.5 17.5h468v-56h-304v-260h270v-55h-270v-259h304v-56h-468zM526 56v574h-103q-148 0 -220 -59q-89 -68 -89 -228t89 -228q72 -59 220 -59h103z" />
    <glyph glyph-name="oe" unicode="&#x153;" horiz-adv-x="993" 
d="M942 227h-409q2 -42 15.5 -76.5t37.5 -59t56 -38t69 -13.5q54 0 94.5 26t61.5 73l56 -11q-26 -65 -82 -101.5t-130 -36.5q-72 0 -125.5 32.5t-82.5 89.5q-30 -57 -84.5 -89.5t-126.5 -32.5q-52 0 -96 18t-75.5 51t-49.5 79t-18 102q0 55 18 100.5t49.5 78.5t75.5 51
t96 18q72 0 126.5 -32.5t84.5 -89.5q29 57 83 89.5t124 32.5q50 0 92.5 -17.5t73.5 -49.5t48.5 -77.5t17.5 -102.5v-14zM710 439q-72 0 -120 -43.5t-56 -121.5h348q-6 76 -53.5 120.5t-118.5 44.5zM292 40q40 0 73 15t57 41.5t37 63t13 80.5q0 43 -13 79.5t-37 62.5t-57 41
t-73 15t-73 -15t-57 -41t-37 -62.5t-13 -79.5q0 -44 13 -80.5t37 -63t57 -41.5t73 -15z" />
    <glyph glyph-name="Racute" unicode="&#x154;" horiz-adv-x="608" 
d="M412 840l-92 -124h-51l79 124h64zM563 0h-76l-179 263h-18h-146v-263h-61v686h207q64 0 106 -10.5t72 -33.5q34 -26 52 -68t18 -97q0 -64 -24.5 -113t-72.5 -75q-14 -8 -30 -12.5t-33 -7.5zM284 316q41 0 72 4.5t53 17.5q68 39 68 136q0 88 -55 128q-24 17 -57.5 23.5
t-80.5 6.5h-140v-316h140z" />
    <glyph glyph-name="racute" unicode="&#x155;" horiz-adv-x="353" 
d="M288 686l-108 -146h-51l93 146h66zM135 379q23 53 72 81t119 28v-56q-97 0 -144 -49.5t-47 -154.5v-228h-60v478h60v-99z" />
    <glyph glyph-name="uni0156" unicode="&#x156;" horiz-adv-x="608" 
d="M563 0h-76l-179 263h-18h-146v-263h-61v686h207q64 0 106 -10.5t72 -33.5q34 -26 52 -68t18 -97q0 -64 -24.5 -113t-72.5 -75q-14 -8 -30 -12.5t-33 -7.5zM284 316q41 0 72 4.5t53 17.5q68 39 68 136q0 88 -55 128q-24 17 -57.5 23.5t-80.5 6.5h-140v-316h140zM171 -176
l96 146h55l-108 -146h-43z" />
    <glyph glyph-name="uni0157" unicode="&#x157;" horiz-adv-x="353" 
d="M135 379q23 53 72 81t119 28v-56q-97 0 -144 -49.5t-47 -154.5v-228h-60v478h60v-99zM-10 -176l97 146h55l-108 -146h-44z" />
    <glyph glyph-name="Rcaron" unicode="&#x158;" horiz-adv-x="608" 
d="M331 731h-75l-96 109h48l86 -82l85 82h49zM563 0h-76l-179 263h-18h-146v-263h-61v686h207q64 0 106 -10.5t72 -33.5q34 -26 52 -68t18 -97q0 -64 -24.5 -113t-72.5 -75q-14 -8 -30 -12.5t-33 -7.5zM284 316q41 0 72 4.5t53 17.5q68 39 68 136q0 88 -55 128
q-24 17 -57.5 23.5t-80.5 6.5h-140v-316h140z" />
    <glyph glyph-name="rcaron" unicode="&#x159;" horiz-adv-x="353" 
d="M194 540h-68l-96 146h48l82 -113l82 113h48zM135 379q23 53 72 81t119 28v-56q-97 0 -144 -49.5t-47 -154.5v-228h-60v478h60v-99z" />
    <glyph glyph-name="Sacute" unicode="&#x15a;" horiz-adv-x="602" 
d="M275 716l79 124h64l-92 -124h-51zM309 -11q-106 0 -177.5 47t-90.5 134l61 12q17 -69 71 -104.5t137 -35.5t130 37t47 102q0 36 -16.5 59.5t-43.5 38.5t-62.5 24.5t-73.5 17.5q-41 9 -82 21t-73.5 32t-53 52t-20.5 81q0 43 16 78t46 60t71.5 38.5t92.5 13.5q95 0 160 -39
t90 -126l-55 -14q-23 66 -68.5 96t-123.5 30q-76 0 -121.5 -36t-45.5 -99q0 -34 15.5 -56t42 -36.5t60.5 -23t71 -16.5q42 -9 84 -21t76 -32.5t55.5 -53.5t21.5 -85q0 -45 -17 -81t-48 -61.5t-75.5 -39.5t-100.5 -14z" />
    <glyph glyph-name="sacute" unicode="&#x15b;" horiz-adv-x="466" 
d="M202 540l93 146h66l-108 -146h-51zM241 -10q-76 0 -128 38t-63 101l52 13q10 -48 46.5 -76.5t90.5 -28.5q52 0 83.5 24.5t31.5 66.5q0 25 -10.5 41t-28.5 26.5t-41 16.5t-49 11q-32 6 -61 14.5t-51.5 23t-36 37t-13.5 56.5q0 63 46 98.5t120 35.5q67 0 115.5 -32
t59.5 -92l-54 -10q-8 42 -40.5 65t-81.5 23t-79.5 -22.5t-30.5 -61.5q0 -22 10.5 -36.5t28 -24t40.5 -15.5t48 -11q33 -7 63.5 -16t53 -24t36 -38.5t13.5 -60.5q0 -34 -13 -60.5t-35.5 -44.5t-54 -27.5t-67.5 -9.5z" />
    <glyph glyph-name="Scedilla" unicode="&#x15e;" horiz-adv-x="602" 
d="M550 185q0 -44 -16.5 -80t-47 -61.5t-74 -39.5t-97.5 -15l-39 -72q8 2 15 3t14 1q36 0 57.5 -20t21.5 -54q0 -36 -24.5 -59t-63.5 -23q-32 0 -53.5 12t-32.5 32l36 15q7 -13 20 -19t29 -6q23 0 37 12.5t14 35.5q0 22 -13 33.5t-36 11.5q-22 0 -39 -12l-33 16l49 94
q-92 8 -154 54.5t-79 125.5l61 12q17 -69 71 -104.5t137 -35.5t130 37t47 102q0 36 -16.5 59.5t-43.5 38.5t-62.5 24.5t-73.5 17.5q-41 9 -82 21t-73.5 32t-53 52t-20.5 81q0 43 16 78t46 60t71.5 38.5t92.5 13.5q95 0 160 -39t90 -126l-55 -14q-23 66 -68.5 96t-123.5 30
q-76 0 -121.5 -36t-45.5 -99q0 -34 15.5 -56t42 -36.5t60.5 -23t71 -16.5q42 -9 84 -21t76 -32.5t55.5 -53.5t21.5 -85z" />
    <glyph glyph-name="scedilla" unicode="&#x15f;" horiz-adv-x="466" 
d="M411 132q0 -33 -12 -58.5t-33.5 -43.5t-50.5 -28.5t-64 -11.5l-39 -73q8 2 15 3t14 1q36 0 57.5 -20t21.5 -54q0 -36 -24.5 -59t-63.5 -23q-32 0 -53.5 12t-32.5 32l36 15q7 -13 20 -19t29 -6q23 0 37 12.5t14 35.5q0 22 -13 33.5t-36 11.5q-22 0 -39 -12l-33 16l50 96
q-65 8 -108 44t-53 93l52 13q10 -48 46.5 -76.5t90.5 -28.5q52 0 83.5 24.5t31.5 66.5q0 25 -10.5 41t-28.5 26.5t-41 16.5t-49 11q-32 6 -61 14.5t-51.5 23t-36 37t-13.5 56.5q0 63 46 98.5t120 35.5q67 0 115.5 -32t59.5 -92l-54 -10q-8 42 -40.5 65t-81.5 23t-79.5 -22.5
t-30.5 -61.5q0 -22 10.5 -36.5t28 -24t40.5 -15.5t48 -11q33 -7 63.5 -16t53 -24t36 -38.5t13.5 -60.5z" />
    <glyph glyph-name="Scaron" unicode="&#x160;" horiz-adv-x="602" 
d="M262 731l-96 109h48l86 -82l85 82h49l-97 -109h-75zM309 -11q-106 0 -177.5 47t-90.5 134l61 12q17 -69 71 -104.5t137 -35.5t130 37t47 102q0 36 -16.5 59.5t-43.5 38.5t-62.5 24.5t-73.5 17.5q-41 9 -82 21t-73.5 32t-53 52t-20.5 81q0 43 16 78t46 60t71.5 38.5
t92.5 13.5q95 0 160 -39t90 -126l-55 -14q-23 66 -68.5 96t-123.5 30q-76 0 -121.5 -36t-45.5 -99q0 -34 15.5 -56t42 -36.5t60.5 -23t71 -16.5q42 -9 84 -21t76 -32.5t55.5 -53.5t21.5 -85q0 -45 -17 -81t-48 -61.5t-75.5 -39.5t-100.5 -14z" />
    <glyph glyph-name="scaron" unicode="&#x161;" horiz-adv-x="466" 
d="M198 540l-96 146h48l82 -113l82 113h48l-96 -146h-68zM241 -10q-76 0 -128 38t-63 101l52 13q10 -48 46.5 -76.5t90.5 -28.5q52 0 83.5 24.5t31.5 66.5q0 25 -10.5 41t-28.5 26.5t-41 16.5t-49 11q-32 6 -61 14.5t-51.5 23t-36 37t-13.5 56.5q0 63 46 98.5t120 35.5
q67 0 115.5 -32t59.5 -92l-54 -10q-8 42 -40.5 65t-81.5 23t-79.5 -22.5t-30.5 -61.5q0 -22 10.5 -36.5t28 -24t40.5 -15.5t48 -11q33 -7 63.5 -16t53 -24t36 -38.5t13.5 -60.5q0 -34 -13 -60.5t-35.5 -44.5t-54 -27.5t-67.5 -9.5z" />
    <glyph glyph-name="uni0162" unicode="&#x162;" horiz-adv-x="473" 
d="M267 0h-10l-45 -83q8 2 15 3t14 1q36 0 57.5 -20t21.5 -54q0 -36 -24.5 -59t-63.5 -23q-32 0 -53.5 12t-32.5 32l36 15q7 -13 20 -19t29 -6q23 0 37 12.5t14 35.5q0 22 -13 33.5t-36 11.5q-22 0 -39 -12l-33 16l54 104h-10v630h-187v56h436v-56h-187v-630z" />
    <glyph glyph-name="uni0163" unicode="&#x163;" horiz-adv-x="348" 
d="M309 429h-123v-294q0 -42 22.5 -63.5t58.5 -21.5h42v-50h-58h-7l-45 -83q8 2 15 3t14 1q36 0 57.5 -20t21.5 -54q0 -36 -24.5 -59t-63.5 -23q-32 0 -53.5 12t-32.5 32l36 15q7 -13 20 -19t29 -6q23 0 37 12.5t14 35.5q0 22 -13 33.5t-36 11.5q-22 0 -39 -12l-33 16
l58 111q-38 12 -59 43t-21 78v301h-99v49h59q21 0 33.5 11t12.5 39v110h54v-160h123v-49z" />
    <glyph glyph-name="Tcaron" unicode="&#x164;" horiz-adv-x="473" 
d="M273 731h-75l-96 109h48l86 -82l85 82h49zM454 686v-56h-187v-630h-62v630h-187v56h436z" />
    <glyph glyph-name="tcaron" unicode="&#x165;" horiz-adv-x="323" 
d="M272 548l60 302h60l-73 -302h-47zM251 0q-57 0 -91 34t-34 94v301h-99v49h59q21 0 33.5 11t12.5 39v110h54v-160h123v-49h-123v-294q0 -42 22.5 -63.5t58.5 -21.5h42v-50h-58z" />
    <glyph glyph-name="Tbar" unicode="&#x166;" horiz-adv-x="473" 
d="M454 630h-187v-265h116v-42h-116v-323h-62v323h-114v42h114v265h-187v56h436v-56z" />
    <glyph glyph-name="tbar" unicode="&#x167;" horiz-adv-x="348" 
d="M312 219h-126v-84q0 -42 22.5 -63.5t58.5 -21.5h42v-50h-58q-57 0 -91 34t-34 94v91h-103v42h103v168h-99v49h59q21 0 33.5 11t12.5 39v110h54v-160h123v-49h-123v-168h126v-42z" />
    <glyph glyph-name="Utilde" unicode="&#x168;" horiz-adv-x="655" 
d="M398 716q-35 0 -53 16t-31 33q-12 16 -24.5 27t-35.5 11q-26 0 -41 -21.5t-15 -56.5h-35q0 51 25.5 84t67.5 33q35 0 53.5 -16.5t32.5 -33.5q11 -15 23.5 -26.5t35.5 -11.5q25 0 39.5 22t14.5 57h36q0 -51 -25.5 -84t-67.5 -33zM328 -11q-55 0 -101.5 16.5t-80.5 48
t-52.5 77t-18.5 102.5v453h61v-447q0 -45 14 -81t39.5 -61t60.5 -38t78 -13q42 0 77.5 13t60.5 38t39 61t14 81v447h62v-453q0 -57 -19 -102.5t-52.5 -77t-80 -48t-101.5 -16.5z" />
    <glyph glyph-name="utilde" unicode="&#x169;" horiz-adv-x="530" 
d="M189 625q-26 0 -41 -21.5t-15 -56.5h-35q0 51 25.5 84t67.5 33q35 0 53.5 -16.5t32.5 -33.5q11 -15 23.5 -26.5t35.5 -11.5q25 0 39.5 22t14.5 57h36q0 -51 -25.5 -84t-67.5 -33q-35 0 -53 16t-31 33q-12 16 -24.5 27t-35.5 11zM394 478h60v-478h-60v72
q-23 -38 -61.5 -60t-89.5 -22q-84 0 -129 46t-45 128v314h60v-305q0 -66 34 -99.5t94 -33.5t98.5 40.5t38.5 116.5v281z" />
    <glyph glyph-name="Umacron" unicode="&#x16a;" horiz-adv-x="655" 
d="M170 766v43h315v-43h-315zM328 -11q-55 0 -101.5 16.5t-80.5 48t-52.5 77t-18.5 102.5v453h61v-447q0 -45 14 -81t39.5 -61t60.5 -38t78 -13q42 0 77.5 13t60.5 38t39 61t14 81v447h62v-453q0 -57 -19 -102.5t-52.5 -77t-80 -48t-101.5 -16.5z" />
    <glyph glyph-name="umacron" unicode="&#x16b;" horiz-adv-x="530" 
d="M375 626v-43h-225v43h225zM394 478h60v-478h-60v72q-23 -38 -61.5 -60t-89.5 -22q-84 0 -129 46t-45 128v314h60v-305q0 -66 34 -99.5t94 -33.5t98.5 40.5t38.5 116.5v281z" />
    <glyph glyph-name="Uring" unicode="&#x16e;" horiz-adv-x="655" 
d="M328 708q-23 0 -43.5 8.5t-36 23.5t-24.5 35.5t-9 43.5q0 24 9 44.5t24 35t35.5 23t44.5 8.5q23 0 43 -8.5t35 -23t24 -35t9 -44.5q0 -23 -9 -43.5t-24 -35.5t-35 -23.5t-43 -8.5zM328 743q31 0 53.5 22t22.5 54t-22 54.5t-54 22.5t-54.5 -22.5t-22.5 -54.5t22.5 -54
t54.5 -22zM328 -11q-55 0 -101.5 16.5t-80.5 48t-52.5 77t-18.5 102.5v453h61v-447q0 -45 14 -81t39.5 -61t60.5 -38t78 -13q42 0 77.5 13t60.5 38t39 61t14 81v447h62v-453q0 -57 -19 -102.5t-52.5 -77t-80 -48t-101.5 -16.5z" />
    <glyph glyph-name="uring" unicode="&#x16f;" horiz-adv-x="530" 
d="M262 544q-24 0 -44 8.5t-34.5 23.5t-23 35t-8.5 42q0 23 8 42.5t23 34.5t35 23.5t44 8.5t44 -8.5t34.5 -23.5t22.5 -34.5t8 -42.5q0 -22 -8.5 -42t-23 -35t-34.5 -23.5t-43 -8.5zM262 726q-31 0 -52.5 -20.5t-21.5 -52.5q0 -30 22 -51.5t52 -21.5t51.5 21.5t21.5 51.5
q0 32 -21.5 52.5t-51.5 20.5zM394 478h60v-478h-60v72q-23 -38 -61.5 -60t-89.5 -22q-84 0 -129 46t-45 128v314h60v-305q0 -66 34 -99.5t94 -33.5t98.5 40.5t38.5 116.5v281z" />
    <glyph glyph-name="Uhungarumlaut" unicode="&#x170;" horiz-adv-x="655" 
d="M231 716l81 124h62l-92 -124h-51zM373 716l82 124h62l-93 -124h-51zM328 -11q-55 0 -101.5 16.5t-80.5 48t-52.5 77t-18.5 102.5v453h61v-447q0 -45 14 -81t39.5 -61t60.5 -38t78 -13q42 0 77.5 13t60.5 38t39 61t14 81v447h62v-453q0 -57 -19 -102.5t-52.5 -77t-80 -48
t-101.5 -16.5z" />
    <glyph glyph-name="uhungarumlaut" unicode="&#x171;" horiz-adv-x="530" 
d="M325 686l-108 -146h-51l96 146h63zM359 540h-51l96 146h63zM394 478h60v-478h-60v72q-23 -38 -61.5 -60t-89.5 -22q-84 0 -129 46t-45 128v314h60v-305q0 -66 34 -99.5t94 -33.5t98.5 40.5t38.5 116.5v281z" />
    <glyph glyph-name="Uogonek" unicode="&#x172;" horiz-adv-x="655" 
d="M519 686h62v-453q0 -96 -50 -156.5t-132 -79.5q-46 -25 -75.5 -59.5t-29.5 -63.5q0 -19 17 -30t46 -11q24 0 48 9v-42q-28 -9 -58 -9q-42 0 -69 18t-27 51q0 32 25 66t65 63h-13q-55 0 -101.5 16.5t-80.5 48t-52.5 77t-18.5 102.5v453h61v-447q0 -45 14 -81t39.5 -61
t60.5 -38t78 -13q42 0 77.5 13t60.5 38t39 61t14 81v447z" />
    <glyph glyph-name="uogonek" unicode="&#x173;" horiz-adv-x="530" 
d="M454 0q-48 -25 -79.5 -60.5t-31.5 -65.5q0 -19 17 -30t46 -11q24 0 48 9v-42q-28 -9 -58 -9q-42 0 -69 18t-27 51q0 35 30 72.5t76 67.5h-12v72q-23 -38 -61.5 -60t-89.5 -22q-84 0 -129 46t-45 128v314h60v-305q0 -66 34 -99.5t94 -33.5t98.5 40.5t38.5 116.5v281h60
v-478z" />
    <glyph glyph-name="Wcircumflex" unicode="&#x174;" horiz-adv-x="977" 
d="M488 813l-86 -82h-48l96 109h75l97 -109h-49zM884 686h65l-200 -686h-86l-175 588l-175 -588h-85l-200 686h64l182 -626l183 626h63l182 -628z" />
    <glyph glyph-name="wcircumflex" unicode="&#x175;" horiz-adv-x="810" 
d="M405 652l-82 -112h-48l96 146h68l96 -146h-48zM716 478h63l-171 -478h-70l-133 412l-132 -412h-71l-172 478h63l146 -415l136 415h60l136 -416z" />
    <glyph glyph-name="Ycircumflex" unicode="&#x176;" horiz-adv-x="568" 
d="M284 813l-86 -82h-48l96 109h75l97 -109h-49zM552 686l-237 -366v-320h-62v319l-238 367h68l201 -312l200 312h68z" />
    <glyph glyph-name="ycircumflex" unicode="&#x177;" horiz-adv-x="513" 
d="M258 652l-82 -112h-48l96 146h68l96 -146h-48zM420 478h64l-300 -721h-65l107 252l-197 469h64l163 -408z" />
    <glyph glyph-name="Ydieresis" unicode="&#x178;" horiz-adv-x="568" 
d="M203 739q-20 0 -33.5 13.5t-13.5 33.5t13.5 33t33.5 13q19 0 32.5 -13t13.5 -33t-13.5 -33.5t-32.5 -13.5zM365 739q-20 0 -33.5 13.5t-13.5 33.5t13.5 33t33.5 13q19 0 32.5 -13t13.5 -33t-13.5 -33.5t-32.5 -13.5zM552 686l-237 -366v-320h-62v319l-238 367h68
l201 -312l200 312h68z" />
    <glyph glyph-name="Zacute" unicode="&#x179;" horiz-adv-x="570" 
d="M410 840l-92 -124h-51l79 124h64zM106 56h429v-56h-500v55l423 575h-422v56h494v-55z" />
    <glyph glyph-name="zacute" unicode="&#x17a;" horiz-adv-x="465" 
d="M363 686l-108 -146h-51l93 146h66zM431 478l-301 -429h295v-49h-392l301 429h-279v49h376z" />
    <glyph glyph-name="Zdotaccent" unicode="&#x17b;" horiz-adv-x="570" 
d="M293 739q-20 0 -33.5 13.5t-13.5 33.5t13.5 33t33.5 13q19 0 32.5 -13t13.5 -33t-13.5 -33.5t-32.5 -13.5zM106 56h429v-56h-500v55l423 575h-422v56h494v-55z" />
    <glyph glyph-name="zdotaccent" unicode="&#x17c;" horiz-adv-x="465" 
d="M236 611q-20 0 -33.5 13.5t-13.5 32.5q0 20 13.5 33.5t33.5 13.5q19 0 32.5 -13.5t13.5 -33.5q0 -19 -13.5 -32.5t-32.5 -13.5zM431 478l-301 -429h295v-49h-392l301 429h-279v49h376z" />
    <glyph glyph-name="Zcaron" unicode="&#x17d;" horiz-adv-x="570" 
d="M329 731h-75l-96 109h48l86 -82l85 82h49zM106 56h429v-56h-500v55l423 575h-422v56h494v-55z" />
    <glyph glyph-name="zcaron" unicode="&#x17e;" horiz-adv-x="465" 
d="M269 540h-68l-96 146h48l82 -113l82 113h48zM431 478l-301 -429h295v-49h-392l301 429h-279v49h376z" />
    <glyph glyph-name="florin" unicode="&#x192;" horiz-adv-x="389" 
d="M339 700q-45 0 -73.5 -26.5t-28.5 -90.5v-105h124v-49h-124v-429q0 -90 -42.5 -128.5t-117.5 -38.5h-23v50h23q45 0 73 26.5t28 90.5v429h-100v49h100v105q0 90 42.5 128.5t118.5 38.5h22v-50h-22z" />
    <glyph glyph-name="Ohorn" unicode="&#x1a0;" horiz-adv-x="787" 
d="M728 692h45v-55q0 -49 -21 -72t-55 -23q-10 0 -15 1q25 -42 38.5 -92t13.5 -108q0 -79 -25 -144t-70 -111.5t-108 -72.5t-138 -26t-138 26t-108 72.5t-70 111.5t-25 144t25 144t70 111.5t108 72.5t138 26q81 0 146.5 -29t110.5 -82q21 -9 39 -9q26 0 32.5 16.5t6.5 48.5
v50zM393 46q62 0 113.5 21.5t88.5 60.5t57 94t20 121t-20 121t-57 94t-88.5 60.5t-113.5 21.5t-113.5 -21.5t-88 -60.5t-57 -94t-20.5 -121t20.5 -121t57 -94t88 -60.5t113.5 -21.5z" />
    <glyph glyph-name="ohorn" unicode="&#x1a1;" horiz-adv-x="585" 
d="M536 530h45v-55q0 -49 -21 -72t-55 -23q-7 0 -10 1q37 -60 37 -141q0 -56 -18 -102t-49.5 -79t-75.5 -51t-97 -18q-52 0 -96 18t-75.5 51t-49.5 79t-18 102q0 55 18 100.5t49.5 78.5t75.5 51t96 18q51 0 93.5 -17t74.5 -48q21 -8 37 -8q26 0 32.5 16.5t6.5 48.5v50z
M292 40q40 0 73 15t57 41.5t37 63t13 80.5q0 43 -13 79.5t-37 62.5t-57 41t-73 15t-73 -15t-57 -41t-37 -62.5t-13 -79.5q0 -44 13 -80.5t37 -63t57 -41.5t73 -15z" />
    <glyph glyph-name="Uhorn" unicode="&#x1af;" horiz-adv-x="655" 
d="M668 750h45v-55q0 -49 -21 -72t-55 -23q-26 0 -56 14v-381q0 -57 -19 -102.5t-52.5 -77t-80 -48t-101.5 -16.5t-101.5 16.5t-80.5 48t-52.5 77t-18.5 102.5v453h61v-447q0 -45 14 -81t39.5 -61t60.5 -38t78 -13q42 0 77.5 13t60.5 38t39 61t14 81v447h62v-37
q26 -14 48 -14q26 0 32.5 16.5t6.5 48.5v50z" />
    <glyph glyph-name="uhorn" unicode="&#x1b0;" horiz-adv-x="530" 
d="M537 542h45v-55q0 -49 -21 -72t-55 -23q-25 0 -52 12v-404h-60v72q-23 -38 -61.5 -60t-89.5 -22q-84 0 -129 46t-45 128v314h60v-305q0 -66 34 -99.5t94 -33.5t98.5 40.5t38.5 116.5v281h60v-39q24 -12 44 -12q26 0 32.5 16.5t6.5 48.5v50z" />
    <glyph glyph-name="uni01CD" unicode="&#x1cd;" horiz-adv-x="655" 
d="M365 731h-75l-96 109h48l86 -82l85 82h49zM568 0l-68 177h-345l-68 -177h-65l266 686h79l266 -686h-65zM175 230h305l-152 395z" />
    <glyph glyph-name="uni01CE" unicode="&#x1ce;" horiz-adv-x="506" 
d="M283 540h-68l-96 146h48l82 -113l82 113h48zM491 50v-50h-32q-35 0 -54.5 17t-19.5 55v28h-4q-23 -53 -69.5 -81.5t-112.5 -28.5q-64 0 -104.5 32t-40.5 95q0 69 48 104.5t132 49.5l106 18q14 2 24 9.5t10 21.5q0 60 -32.5 91t-91.5 31q-115 0 -128 -105l-59 8
q11 72 58.5 107.5t129.5 35.5q88 0 135.5 -44.5t47.5 -129.5v-214q0 -28 8.5 -39t31.5 -11h17zM212 39q78 0 121.5 55t43.5 158l-139 -26q-124 -19 -124 -104q0 -40 25.5 -61.5t72.5 -21.5z" />
    <glyph glyph-name="uni01CF" unicode="&#x1cf;" horiz-adv-x="227" 
d="M75 731l-97 109h49l86 -82l85 82h49l-97 -109h-75zM83 0v686h61v-686h-61z" />
    <glyph glyph-name="uni01D0" unicode="&#x1d0;" horiz-adv-x="209" 
d="M70 540l-97 146h49l82 -113l82 113h48l-96 -146h-68zM75 0v478h59v-478h-59z" />
    <glyph glyph-name="uni01D1" unicode="&#x1d1;" horiz-adv-x="787" 
d="M355 731l-96 109h48l86 -82l85 82h49l-97 -109h-75zM393 -11q-75 0 -138 26t-108 72.5t-70 111.5t-25 144t25 144t70 111.5t108 72.5t138 26t138 -26t108 -72.5t70 -111.5t25 -144t-25 -144t-70 -111.5t-108 -72.5t-138 -26zM393 46q62 0 113.5 21.5t88.5 60.5t57 94
t20 121t-20 121t-57 94t-88.5 60.5t-113.5 21.5t-113.5 -21.5t-88 -60.5t-57 -94t-20.5 -121t20.5 -121t57 -94t88 -60.5t113.5 -21.5z" />
    <glyph glyph-name="uni01D2" unicode="&#x1d2;" horiz-adv-x="585" 
d="M258 540l-96 146h48l82 -113l82 113h48l-96 -146h-68zM292 -10q-52 0 -96 18t-75.5 51t-49.5 79t-18 102q0 55 18 100.5t49.5 78.5t75.5 51t96 18q53 0 97 -18t75.5 -51t49.5 -78.5t18 -100.5q0 -56 -18 -102t-49.5 -79t-75.5 -51t-97 -18zM292 40q40 0 73 15t57 41.5
t37 63t13 80.5q0 43 -13 79.5t-37 62.5t-57 41t-73 15t-73 -15t-57 -41t-37 -62.5t-13 -79.5q0 -44 13 -80.5t37 -63t57 -41.5t73 -15z" />
    <glyph glyph-name="uni01D3" unicode="&#x1d3;" horiz-adv-x="655" 
d="M289 731l-96 109h48l86 -82l85 82h49l-97 -109h-75zM328 -11q-55 0 -101.5 16.5t-80.5 48t-52.5 77t-18.5 102.5v453h61v-447q0 -45 14 -81t39.5 -61t60.5 -38t78 -13q42 0 77.5 13t60.5 38t39 61t14 81v447h62v-453q0 -57 -19 -102.5t-52.5 -77t-80 -48t-101.5 -16.5z
" />
    <glyph glyph-name="uni01D4" unicode="&#x1d4;" horiz-adv-x="530" 
d="M296 540h-68l-96 146h48l82 -113l82 113h48zM394 478h60v-478h-60v72q-23 -38 -61.5 -60t-89.5 -22q-84 0 -129 46t-45 128v314h60v-305q0 -66 34 -99.5t94 -33.5t98.5 40.5t38.5 116.5v281z" />
    <glyph glyph-name="uni01D5" unicode="&#x1d5;" horiz-adv-x="655" 
d="M170 912v43h315v-43h-315zM247 739q-20 0 -33.5 13.5t-13.5 33.5t13.5 33t33.5 13q19 0 32.5 -13t13.5 -33t-13.5 -33.5t-32.5 -13.5zM409 739q-20 0 -33.5 13.5t-13.5 33.5t13.5 33t33.5 13q19 0 32.5 -13t13.5 -33t-13.5 -33.5t-32.5 -13.5zM328 -11q-55 0 -101.5 16.5
t-80.5 48t-52.5 77t-18.5 102.5v453h61v-447q0 -45 14 -81t39.5 -61t60.5 -38t78 -13q42 0 77.5 13t60.5 38t39 61t14 81v447h62v-453q0 -57 -19 -102.5t-52.5 -77t-80 -48t-101.5 -16.5z" />
    <glyph glyph-name="uni01D6" unicode="&#x1d6;" horiz-adv-x="530" 
d="M375 842v-43h-225v43h225zM181 611q-20 0 -33.5 13.5t-13.5 32.5q0 20 13.5 33.5t33.5 13.5q19 0 32.5 -13.5t13.5 -33.5q0 -19 -13.5 -32.5t-32.5 -13.5zM343 704q19 0 32.5 -13.5t13.5 -33.5q0 -19 -13.5 -32.5t-32.5 -13.5q-20 0 -33.5 13.5t-13.5 32.5
q0 20 13.5 33.5t33.5 13.5zM394 478h60v-478h-60v72q-23 -38 -61.5 -60t-89.5 -22q-84 0 -129 46t-45 128v314h60v-305q0 -66 34 -99.5t94 -33.5t98.5 40.5t38.5 116.5v281z" />
    <glyph glyph-name="uni01D7" unicode="&#x1d7;" horiz-adv-x="655" 
d="M302 862l79 124h64l-92 -124h-51zM247 739q-20 0 -33.5 13.5t-13.5 33.5t13.5 33t33.5 13q19 0 32.5 -13t13.5 -33t-13.5 -33.5t-32.5 -13.5zM409 739q-20 0 -33.5 13.5t-13.5 33.5t13.5 33t33.5 13q19 0 32.5 -13t13.5 -33t-13.5 -33.5t-32.5 -13.5zM328 -11
q-55 0 -101.5 16.5t-80.5 48t-52.5 77t-18.5 102.5v453h61v-447q0 -45 14 -81t39.5 -61t60.5 -38t78 -13q42 0 77.5 13t60.5 38t39 61t14 81v447h62v-453q0 -57 -19 -102.5t-52.5 -77t-80 -48t-101.5 -16.5z" />
    <glyph glyph-name="uni01D8" unicode="&#x1d8;" horiz-adv-x="530" 
d="M390 902l-108 -146h-51l93 146h66zM181 611q-20 0 -33.5 13.5t-13.5 32.5q0 20 13.5 33.5t33.5 13.5q19 0 32.5 -13.5t13.5 -33.5q0 -19 -13.5 -32.5t-32.5 -13.5zM296 657q0 20 13.5 33.5t33.5 13.5q19 0 32.5 -13.5t13.5 -33.5q0 -19 -13.5 -32.5t-32.5 -13.5
q-20 0 -33.5 13.5t-13.5 32.5zM394 478h60v-478h-60v72q-23 -38 -61.5 -60t-89.5 -22q-84 0 -129 46t-45 128v314h60v-305q0 -66 34 -99.5t94 -33.5t98.5 40.5t38.5 116.5v281z" />
    <glyph glyph-name="uni01D9" unicode="&#x1d9;" horiz-adv-x="655" 
d="M289 877l-96 109h48l86 -82l85 82h49l-97 -109h-75zM247 739q-20 0 -33.5 13.5t-13.5 33.5t13.5 33t33.5 13q19 0 32.5 -13t13.5 -33t-13.5 -33.5t-32.5 -13.5zM409 739q-20 0 -33.5 13.5t-13.5 33.5t13.5 33t33.5 13q19 0 32.5 -13t13.5 -33t-13.5 -33.5t-32.5 -13.5z
M328 -11q-55 0 -101.5 16.5t-80.5 48t-52.5 77t-18.5 102.5v453h61v-447q0 -45 14 -81t39.5 -61t60.5 -38t78 -13q42 0 77.5 13t60.5 38t39 61t14 81v447h62v-453q0 -57 -19 -102.5t-52.5 -77t-80 -48t-101.5 -16.5z" />
    <glyph glyph-name="uni01DA" unicode="&#x1da;" horiz-adv-x="530" 
d="M296 756h-68l-96 146h48l82 -113l82 113h48zM134 657q0 20 13.5 33.5t33.5 13.5q19 0 32.5 -13.5t13.5 -33.5q0 -19 -13.5 -32.5t-32.5 -13.5q-20 0 -33.5 13.5t-13.5 32.5zM296 657q0 20 13.5 33.5t33.5 13.5q19 0 32.5 -13.5t13.5 -33.5q0 -19 -13.5 -32.5t-32.5 -13.5
q-20 0 -33.5 13.5t-13.5 32.5zM394 478h60v-478h-60v72q-23 -38 -61.5 -60t-89.5 -22q-84 0 -129 46t-45 128v314h60v-305q0 -66 34 -99.5t94 -33.5t98.5 40.5t38.5 116.5v281z" />
    <glyph glyph-name="uni01DB" unicode="&#x1db;" horiz-adv-x="655" 
d="M302 862l-92 124h64l79 -124h-51zM247 739q-20 0 -33.5 13.5t-13.5 33.5t13.5 33t33.5 13q19 0 32.5 -13t13.5 -33t-13.5 -33.5t-32.5 -13.5zM409 739q-20 0 -33.5 13.5t-13.5 33.5t13.5 33t33.5 13q19 0 32.5 -13t13.5 -33t-13.5 -33.5t-32.5 -13.5zM328 -11
q-55 0 -101.5 16.5t-80.5 48t-52.5 77t-18.5 102.5v453h61v-447q0 -45 14 -81t39.5 -61t60.5 -38t78 -13q42 0 77.5 13t60.5 38t39 61t14 81v447h62v-453q0 -57 -19 -102.5t-52.5 -77t-80 -48t-101.5 -16.5z" />
    <glyph glyph-name="uni01DC" unicode="&#x1dc;" horiz-adv-x="530" 
d="M294 756h-51l-108 146h65zM181 611q-20 0 -33.5 13.5t-13.5 32.5q0 20 13.5 33.5t33.5 13.5q19 0 32.5 -13.5t13.5 -33.5q0 -19 -13.5 -32.5t-32.5 -13.5zM343 611q-20 0 -33.5 13.5t-13.5 32.5q0 20 13.5 33.5t33.5 13.5q19 0 32.5 -13.5t13.5 -33.5q0 -19 -13.5 -32.5
t-32.5 -13.5zM394 478h60v-478h-60v72q-23 -38 -61.5 -60t-89.5 -22q-84 0 -129 46t-45 128v314h60v-305q0 -66 34 -99.5t94 -33.5t98.5 40.5t38.5 116.5v281z" />
    <glyph glyph-name="Gcaron" unicode="&#x1e6;" horiz-adv-x="775" 
d="M351 731l-96 109h48l86 -82l85 82h49l-97 -109h-75zM390 -11q-75 0 -137 26t-106.5 72.5t-69.5 111.5t-25 144t25 144t70 111.5t108 72.5t138 26q100 0 176 -43.5t119 -121.5l-54 -29q-35 64 -97.5 100.5t-143.5 36.5q-62 0 -113.5 -21.5t-88 -60.5t-57 -94t-20.5 -121
t20 -121t56.5 -94t88 -60.5t114.5 -21.5q56 0 101 17.5t78 50t53 79t26 103.5h-256v52h316v-348h-51v168q-32 -82 -99.5 -130.5t-170.5 -48.5z" />
    <glyph glyph-name="gcaron" unicode="&#x1e7;" horiz-adv-x="599" 
d="M327 540h-68l-96 146h48l82 -113l82 113h48zM464 478h59v-479q0 -122 -62 -185.5t-169 -63.5q-87 0 -143.5 40.5t-82.5 107.5l50 23q22 -57 66 -89.5t108 -32.5q85 0 129.5 52t44.5 145v118q-23 -53 -72 -85t-115 -32q-48 0 -89 18t-71 51t-47 78.5t-17 99.5t17 99t47 77
t71.5 50t89.5 18q66 0 114.5 -32t71.5 -84v106zM288 48q39 0 71.5 14.5t56.5 40.5t37 62t13 79q0 42 -13 78t-37 61.5t-56.5 40t-71.5 14.5t-71.5 -14.5t-56 -40t-37 -61.5t-13.5 -78q0 -43 13.5 -79t37 -62t56 -40.5t71.5 -14.5z" />
    <glyph glyph-name="uni01EA" unicode="&#x1ea;" horiz-adv-x="787" 
d="M483 -1q-48 -25 -79 -60t-31 -65q0 -19 17 -30t46 -11q24 0 48 9v-42q-28 -9 -58 -9q-42 0 -69 18t-27 51q0 32 25.5 66.5t65.5 63.5q-7 -1 -13.5 -1h-14.5q-75 0 -138 26t-108 72.5t-70 111.5t-25 144t25 144t70 111.5t108 72.5t138 26t138 -26t108 -72.5t70 -111.5
t25 -144q0 -66 -18 -123t-51 -101.5t-79 -75t-103 -44.5zM114 343q0 -66 20.5 -121t57 -94t88 -60.5t113.5 -21.5t113.5 21.5t88.5 60.5t57 94t20 121t-20 121t-57 94t-88.5 60.5t-113.5 21.5t-113.5 -21.5t-88 -60.5t-57 -94t-20.5 -121z" />
    <glyph glyph-name="uni01EB" unicode="&#x1eb;" horiz-adv-x="585" 
d="M361 -1q-48 -25 -78.5 -60t-30.5 -65q0 -19 17 -30t46 -11q24 0 48 9v-42q-28 -9 -58 -9q-42 0 -69 18t-27 51q0 32 25.5 66.5t66.5 63.5h-9q-52 0 -96 18t-75.5 51t-49.5 79t-18 102q0 55 18 100.5t49.5 78.5t75.5 51t96 18q53 0 97 -18t75.5 -51t49.5 -78.5t18 -100.5
q0 -93 -46.5 -157t-124.5 -84zM112 240q0 -44 13 -80.5t37 -63t57 -41.5t73 -15t73 15t57 41.5t37 63t13 80.5q0 43 -13 79.5t-37 62.5t-57 41t-73 15t-73 -15t-57 -41t-37 -62.5t-13 -79.5z" />
    <glyph glyph-name="Aringacute" unicode="&#x1fa;" horiz-adv-x="655" 
d="M328 708q-23 0 -43.5 8.5t-36 23.5t-24.5 35.5t-9 43.5q0 24 9 44.5t24 35t35.5 23t44.5 8.5q26 0 50 -11l58 91h64l-88 -118q27 -30 27 -73q0 -23 -9 -43.5t-24 -35.5t-35 -23.5t-43 -8.5zM328 896q-32 0 -54.5 -22.5t-22.5 -54.5t22.5 -54t54.5 -22q31 0 53.5 22
t22.5 54q0 22 -10.5 39.5t-27.5 27.5h-9l2 3q-13 7 -31 7zM568 0l-68 177h-345l-68 -177h-65l266 686h79l266 -686h-65zM175 230h305l-152 395z" />
    <glyph glyph-name="aringacute" unicode="&#x1fb;" horiz-adv-x="506" 
d="M250 544q-24 0 -44 8.5t-34.5 23.5t-23 35t-8.5 42q0 23 8 42.5t23 34.5t35 23.5t44 8.5q21 0 42 -8l72 113h66l-102 -137q31 -31 31 -77q0 -22 -8.5 -42t-23 -35t-34.5 -23.5t-43 -8.5zM250 726q-31 0 -52.5 -20.5t-21.5 -52.5q0 -30 22 -51.5t52 -21.5t51.5 21.5
t21.5 51.5q0 24 -13 42t-33 26h-6l1 2q-10 3 -22 3zM491 50v-50h-32q-35 0 -54.5 17t-19.5 55v28h-4q-23 -53 -69.5 -81.5t-112.5 -28.5q-64 0 -104.5 32t-40.5 95q0 69 48 104.5t132 49.5l106 18q14 2 24 9.5t10 21.5q0 60 -32.5 91t-91.5 31q-115 0 -128 -105l-59 8
q11 72 58.5 107.5t129.5 35.5q88 0 135.5 -44.5t47.5 -129.5v-214q0 -28 8.5 -39t31.5 -11h17zM212 39q78 0 121.5 55t43.5 158l-139 -26q-124 -19 -124 -104q0 -40 25.5 -61.5t72.5 -21.5z" />
    <glyph glyph-name="AEacute" unicode="&#x1fc;" horiz-adv-x="836" 
d="M400 716l79 124h64l-92 -124h-51zM22 0l266 686h506v-56h-306v-260h270v-55h-270v-259h306v-56h-368v177h-270l-69 -177h-65zM174 230h252v400h-97z" />
    <glyph glyph-name="aeacute" unicode="&#x1fd;" horiz-adv-x="893" 
d="M571 686l-108 -146h-51l93 146h66zM842 227h-409q2 -42 15.5 -76.5t37.5 -59t56 -38t69 -13.5q54 0 94.5 26t61.5 73l56 -11q-26 -65 -82 -101.5t-130 -36.5q-75 0 -131 36t-84 99q-15 -37 -36.5 -63t-47.5 -42t-54.5 -23t-56.5 -7q-66 0 -106.5 32t-40.5 95
q0 69 48 104.5t132 49.5l106 18q34 6 34 31q0 62 -33.5 92.5t-93.5 30.5q-57 0 -89.5 -25t-40.5 -81l-54 8q22 143 188 143q60 0 103.5 -23.5t62.5 -74.5q31 46 80.5 72t112.5 26q50 0 92.5 -17.5t73.5 -49.5t48.5 -77.5t17.5 -102.5v-14zM610 439q-72 0 -120 -43.5
t-56 -121.5h348q-6 76 -53.5 120.5t-118.5 44.5zM378 191q-4 20 -4 48v16l-131 -24q-130 -21 -130 -107q0 -41 26.5 -63t74.5 -22q24 0 50 8t49 26t40 47t24 72z" />
    <glyph glyph-name="Oslashacute" unicode="&#x1fe;" horiz-adv-x="787" 
d="M511 840l-92 -124h-51l79 124h64zM610 625q59 -47 91.5 -119t32.5 -163q0 -79 -25 -144t-70 -111.5t-108 -72.5t-138 -26q-54 0 -102 13.5t-87 38.5l-66 -94l-28 19l66 95q-59 47 -91.5 119t-32.5 163q0 79 25 144t70 111.5t108 72.5t138 26q54 0 102 -13.5t87 -38.5
l66 94l28 -19zM114 343q0 -75 25.5 -134.5t70.5 -98.5l339 486q-32 21 -71.5 32.5t-84.5 11.5q-62 0 -113.5 -21.5t-88 -60.5t-57 -94t-20.5 -121zM393 46q62 0 113.5 21.5t88.5 60.5t57 94t20 121q0 75 -25.5 134.5t-70.5 98.5l-339 -486q32 -21 71.5 -32.5t84.5 -11.5z
" />
    <glyph glyph-name="oslashacute" unicode="&#x1ff;" horiz-adv-x="585" 
d="M421 686l-108 -146h-51l93 146h66zM449 434q39 -33 61 -82.5t22 -111.5q0 -56 -18 -102t-49.5 -79t-75.5 -51t-97 -18q-73 0 -129 35l-55 -80l-28 19l56 80q-39 33 -61 83t-22 113q0 55 18 100.5t49.5 78.5t75.5 51t96 18q72 0 129 -34l55 79l29 -19zM112 240
q0 -47 15 -85t41 -65l222 319q-41 29 -98 29q-40 0 -73 -15t-57 -41t-37 -62.5t-13 -79.5zM292 40q40 0 73 15t57 41.5t37 63t13 80.5q0 45 -14.5 83t-40.5 64l-223 -319q44 -28 98 -28z" />
    <glyph glyph-name="uni0218" unicode="&#x218;" horiz-adv-x="602" 
d="M309 -11q-106 0 -177.5 47t-90.5 134l61 12q17 -69 71 -104.5t137 -35.5t130 37t47 102q0 36 -16.5 59.5t-43.5 38.5t-62.5 24.5t-73.5 17.5q-41 9 -82 21t-73.5 32t-53 52t-20.5 81q0 43 16 78t46 60t71.5 38.5t92.5 13.5q95 0 160 -39t90 -126l-55 -14q-23 66 -68.5 96
t-123.5 30q-76 0 -121.5 -36t-45.5 -99q0 -34 15.5 -56t42 -36.5t60.5 -23t71 -16.5q42 -9 84 -21t76 -32.5t55.5 -53.5t21.5 -85q0 -45 -17 -81t-48 -61.5t-75.5 -39.5t-100.5 -14zM176 -176l96 146h55l-108 -146h-43z" />
    <glyph glyph-name="uni0219" unicode="&#x219;" horiz-adv-x="466" 
d="M241 -10q-76 0 -128 38t-63 101l52 13q10 -48 46.5 -76.5t90.5 -28.5q52 0 83.5 24.5t31.5 66.5q0 25 -10.5 41t-28.5 26.5t-41 16.5t-49 11q-32 6 -61 14.5t-51.5 23t-36 37t-13.5 56.5q0 63 46 98.5t120 35.5q67 0 115.5 -32t59.5 -92l-54 -10q-8 42 -40.5 65t-81.5 23
t-79.5 -22.5t-30.5 -61.5q0 -22 10.5 -36.5t28 -24t40.5 -15.5t48 -11q33 -7 63.5 -16t53 -24t36 -38.5t13.5 -60.5q0 -34 -13 -60.5t-35.5 -44.5t-54 -27.5t-67.5 -9.5zM112 -176l96 146h55l-108 -146h-43z" />
    <glyph glyph-name="uni021A" unicode="&#x21a;" horiz-adv-x="473" 
d="M454 686v-56h-187v-630h-62v630h-187v56h436zM112 -176l96 146h55l-108 -146h-43z" />
    <glyph glyph-name="uni021B" unicode="&#x21b;" horiz-adv-x="348" 
d="M251 0q-57 0 -91 34t-34 94v301h-99v49h59q21 0 33.5 11t12.5 39v110h54v-160h123v-49h-123v-294q0 -42 22.5 -63.5t58.5 -21.5h42v-50h-58zM99 -176l96 146h55l-108 -146h-43z" />
    <glyph glyph-name="uni0232" unicode="&#x232;" horiz-adv-x="568" 
d="M442 809v-43h-315v43h315zM552 686l-237 -366v-320h-62v319l-238 367h68l201 -312l200 312h68z" />
    <glyph glyph-name="uni0233" unicode="&#x233;" horiz-adv-x="513" 
d="M371 626v-43h-225v43h225zM420 478h64l-300 -721h-65l107 252l-197 469h64l163 -408z" />
    <glyph glyph-name="uni0237" unicode="&#x237;" horiz-adv-x="206" 
d="M-62 -194q39 0 64.5 8.5t40.5 28.5t21 53t6 83v499h60v-499q0 -60 -10 -102.5t-32.5 -69t-59 -38.5t-90.5 -12v49z" />
    <glyph glyph-name="uni0272" unicode="&#x272;" horiz-adv-x="525" 
d="M281 488q84 0 128.5 -45.5t44.5 -128.5v-314h-59v305q0 66 -34 99.5t-94 33.5t-98.5 -40.5t-38.5 -116.5v-302q0 -60 -10 -102.5t-32.5 -69t-59 -38.5t-90.5 -12v49q39 0 64.5 8.5t40.5 28.5t21 53t6 83v499h60v-71q23 38 61.5 59.5t89.5 21.5z" />
    <glyph glyph-name="circumflex" unicode="&#x2c6;" horiz-adv-x="426" 
d="M83 540l96 146h68l96 -146h-48l-82 112l-82 -112h-48z" />
    <glyph glyph-name="caron" unicode="&#x2c7;" horiz-adv-x="426" 
d="M179 540l-96 146h48l82 -113l82 113h48l-96 -146h-68z" />
    <glyph glyph-name="breve" unicode="&#x2d8;" horiz-adv-x="495" 
d="M247 530q-76 0 -120 39.5t-44 116.5h46q0 -56 30.5 -87.5t87.5 -31.5t88 31t31 88h46q0 -77 -44.5 -116.5t-120.5 -39.5z" />
    <glyph glyph-name="dotaccent" unicode="&#x2d9;" horiz-adv-x="259" 
d="M130 611q-20 0 -33.5 13.5t-13.5 32.5q0 20 13.5 33.5t33.5 13.5q19 0 32.5 -13.5t13.5 -33.5q0 -19 -13.5 -32.5t-32.5 -13.5z" />
    <glyph glyph-name="ring" unicode="&#x2da;" horiz-adv-x="385" 
d="M193 544q-24 0 -44 8.5t-34.5 23.5t-23 35t-8.5 42q0 23 8 42.5t23 34.5t35 23.5t44 8.5t44 -8.5t34.5 -23.5t22.5 -34.5t8 -42.5q0 -22 -8.5 -42t-23 -35t-34.5 -23.5t-43 -8.5zM193 580q30 0 51.5 21.5t21.5 51.5q0 32 -21.5 52.5t-51.5 20.5q-31 0 -52.5 -20.5
t-21.5 -52.5q0 -30 22 -51.5t52 -21.5z" />
    <glyph glyph-name="ogonek" unicode="&#x2db;" horiz-adv-x="319" 
d="M179 -209q-42 0 -69 18t-27 51q0 20 10.5 41.5t29 42t43.5 40t53 34.5l18 -18q-48 -25 -79.5 -60.5t-31.5 -65.5q0 -19 17 -30t46 -11q24 0 48 9v-42q-28 -9 -58 -9z" />
    <glyph glyph-name="tilde" unicode="&#x2dc;" horiz-adv-x="493" 
d="M318 538q-35 0 -53 16t-31 33q-12 16 -24.5 27t-35.5 11q-26 0 -41 -21.5t-15 -56.5h-35q0 51 25.5 84t67.5 33q35 0 53.5 -16.5t32.5 -33.5q11 -15 23.5 -26.5t35.5 -11.5q25 0 39.5 22t14.5 57h36q0 -51 -25.5 -84t-67.5 -33z" />
    <glyph glyph-name="hungarumlaut" unicode="&#x2dd;" horiz-adv-x="466" 
d="M83 540l96 146h63l-108 -146h-51zM225 540l96 146h63l-108 -146h-51z" />
    <glyph glyph-name="gravecomb" unicode="&#x300;" 
d="M-133 540l-108 146h65l94 -146h-51z" />
    <glyph glyph-name="acutecomb" unicode="&#x301;" 
d="M-241 540l93 146h66l-108 -146h-51z" />
    <glyph glyph-name="uni0302" unicode="&#x302;" 
d="M-343 540l96 146h68l96 -146h-48l-82 112l-82 -112h-48z" />
    <glyph glyph-name="tildecomb" unicode="&#x303;" 
d="M-175 538q-35 0 -53 16t-31 33q-12 16 -24.5 27t-35.5 11q-26 0 -41 -21.5t-15 -56.5h-35q0 51 25.5 84t67.5 33q35 0 53.5 -16.5t32.5 -33.5q11 -15 23.5 -26.5t35.5 -11.5q25 0 39.5 22t14.5 57h36q0 -51 -25.5 -84t-67.5 -33z" />
    <glyph glyph-name="uni0304" unicode="&#x304;" 
d="M-307 583v43h225v-43h-225z" />
    <glyph glyph-name="uni0306" unicode="&#x306;" 
d="M-248 530q-76 0 -120 39.5t-44 116.5h46q0 -56 30.5 -87.5t87.5 -31.5t88 31t31 88h46q0 -77 -44.5 -116.5t-120.5 -39.5z" />
    <glyph glyph-name="uni0307" unicode="&#x307;" 
d="M-129 611q-20 0 -33.5 13.5t-13.5 32.5q0 20 13.5 33.5t33.5 13.5q19 0 32.5 -13.5t13.5 -33.5q0 -19 -13.5 -32.5t-32.5 -13.5z" />
    <glyph glyph-name="uni0308" unicode="&#x308;" 
d="M-291 611q-20 0 -33.5 13.5t-13.5 32.5q0 20 13.5 33.5t33.5 13.5q19 0 32.5 -13.5t13.5 -33.5q0 -19 -13.5 -32.5t-32.5 -13.5zM-129 611q-20 0 -33.5 13.5t-13.5 32.5q0 20 13.5 33.5t33.5 13.5q19 0 32.5 -13.5t13.5 -33.5q0 -19 -13.5 -32.5t-32.5 -13.5z" />
    <glyph glyph-name="hookabovecomb" unicode="&#x309;" 
d="M-211 518v52q43 7 62 21t19 34t-15.5 32t-43.5 12q-16 0 -31 -5t-36 -18l-18 31q25 14 46 20.5t45 6.5q47 0 73.5 -20.5t26.5 -54.5q0 -30 -21.5 -48t-59.5 -27v-36h-47z" />
    <glyph glyph-name="uni030A" unicode="&#x30a;" 
d="M-192 544q-24 0 -44 8.5t-34.5 23.5t-23 35t-8.5 42q0 23 8 42.5t23 34.5t35 23.5t44 8.5t44 -8.5t34.5 -23.5t22.5 -34.5t8 -42.5q0 -22 -8.5 -42t-23 -35t-34.5 -23.5t-43 -8.5zM-192 580q30 0 51.5 21.5t21.5 51.5q0 32 -21.5 52.5t-51.5 20.5q-31 0 -52.5 -20.5
t-21.5 -52.5q0 -30 22 -51.5t52 -21.5z" />
    <glyph glyph-name="uni030B" unicode="&#x30b;" 
d="M-383 540l96 146h63l-108 -146h-51zM-241 540l96 146h63l-108 -146h-51z" />
    <glyph glyph-name="uni030C" unicode="&#x30c;" 
d="M-247 540l-96 146h48l82 -113l82 113h48l-96 -146h-68z" />
    <glyph glyph-name="uni0312" unicode="&#x312;" 
d="M-234 540l108 146h43l-96 -146h-55z" />
    <glyph glyph-name="uni031B" unicode="&#x31b;" 
d="M-158 410q-20 0 -40.5 7.5t-42.5 20.5l14 28q34 -21 61 -21q26 0 32.5 16.5t6.5 48.5v50h45v-55q0 -49 -21 -72t-55 -23z" />
    <glyph glyph-name="dotbelowcomb" unicode="&#x323;" 
d="M-129 -166q-20 0 -33.5 13.5t-13.5 33.5q0 19 13.5 32.5t33.5 13.5q19 0 32.5 -13.5t13.5 -32.5q0 -20 -13.5 -33.5t-32.5 -13.5z" />
    <glyph glyph-name="uni0326" unicode="&#x326;" 
d="M-234 -176l96 146h55l-108 -146h-43z" />
    <glyph glyph-name="uni0327" unicode="&#x327;" 
d="M-161 -79q36 0 57.5 -20t21.5 -54q0 -36 -24.5 -59t-63.5 -23q-32 0 -53.5 12t-32.5 32l36 15q7 -13 20 -19t29 -6q23 0 37 12.5t14 35.5q0 22 -13 33.5t-36 11.5q-22 0 -39 -12l-33 16l64 123l35 -13l-48 -89q8 2 15 3t14 1z" />
    <glyph glyph-name="uni0328" unicode="&#x328;" 
d="M-140 -209q-42 0 -69 18t-27 51q0 20 10.5 41.5t29 42t43 40t53.5 34.5l18 -18q-48 -25 -79.5 -60.5t-31.5 -65.5q0 -19 17 -30t46 -11q24 0 48 9v-42q-29 -9 -58 -9z" />
    <glyph glyph-name="uni0335" unicode="&#x335;" 
d="M-375 239v42h292v-42h-292z" />
    <glyph glyph-name="uni0336" unicode="&#x336;" 
d="M-796 244v32h713v-32h-713z" />
    <glyph glyph-name="uni0337" unicode="&#x337;" 
d="M-342 158v55l260 195v-55z" />
    <glyph glyph-name="uni0338" unicode="&#x338;" 
d="M-479 90l-28 18l396 569l29 -19z" />
    <glyph glyph-name="uni0394" unicode="&#x394;" horiz-adv-x="740" 
d="M25 0l301 750h88l301 -750h-690zM110 57h521l-260 653h-2z" />
    <glyph glyph-name="uni03A9" unicode="&#x3a9;" horiz-adv-x="832" 
d="M72 0v53h182v11q-34 20 -67 53t-59.5 76t-43 95.5t-16.5 112.5q0 73 26 137t72.5 111.5t110 75t139.5 27.5t139.5 -27.5t110 -75t72.5 -111.5t26 -137q0 -60 -16.5 -112.5t-43 -95.5t-59.5 -76t-67 -53v-11h183v-53h-260v63q37 21 72.5 52t63.5 72t45 92t17 112
q0 66 -21.5 121t-59.5 95.5t-89.5 63t-112.5 22.5q-60 0 -112 -22.5t-89.5 -63t-59 -95.5t-21.5 -121q0 -61 17 -112t44.5 -92t63 -72t72.5 -52v-63h-259z" />
    <glyph glyph-name="uni03BC" unicode="&#x3bc;" horiz-adv-x="529" 
d="M394 478h59v-478h-57l-1 73q-23 -39 -62 -61t-91 -22q-71 0 -113 33v-266h-60v721h60v-305q0 -66 34 -99.5t94 -33.5t98.5 40.5t38.5 116.5v281z" />
    <glyph glyph-name="pi" unicode="&#x3c0;" horiz-adv-x="596" 
d="M70 0q27 59 43.5 114t25 107.5t11.5 104.5t3 106l-140 -2l-4 48h580v-46h-105v-289q0 -35 3 -71.5t16 -71.5h-57q-13 33 -16 70.5t-3 70.5v291h-218q0 -54 -3 -107t-11.5 -106t-24.5 -107.5t-43 -111.5h-57z" />
    <glyph glyph-name="Wgrave" unicode="&#x1e80;" horiz-adv-x="977" 
d="M514 716h-51l-92 124h64zM884 686h65l-200 -686h-86l-175 588l-175 -588h-85l-200 686h64l182 -626l183 626h63l182 -628z" />
    <glyph glyph-name="wgrave" unicode="&#x1e81;" horiz-adv-x="810" 
d="M437 540h-51l-108 146h65zM716 478h63l-171 -478h-70l-133 412l-132 -412h-71l-172 478h63l146 -415l136 415h60l136 -416z" />
    <glyph glyph-name="Wacute" unicode="&#x1e82;" horiz-adv-x="977" 
d="M606 840l-92 -124h-51l79 124h64zM884 686h65l-200 -686h-86l-175 588l-175 -588h-85l-200 686h64l182 -626l183 626h63l182 -628z" />
    <glyph glyph-name="wacute" unicode="&#x1e83;" horiz-adv-x="810" 
d="M533 686l-108 -146h-51l93 146h66zM716 478h63l-171 -478h-70l-133 412l-132 -412h-71l-172 478h63l146 -415l136 415h60l136 -416z" />
    <glyph glyph-name="Wdieresis" unicode="&#x1e84;" horiz-adv-x="977" 
d="M408 739q-20 0 -33.5 13.5t-13.5 33.5t13.5 33t33.5 13q19 0 32.5 -13t13.5 -33t-13.5 -33.5t-32.5 -13.5zM570 739q-20 0 -33.5 13.5t-13.5 33.5t13.5 33t33.5 13q19 0 32.5 -13t13.5 -33t-13.5 -33.5t-32.5 -13.5zM884 686h65l-200 -686h-86l-175 588l-175 -588h-85
l-200 686h64l182 -626l183 626h63l182 -628z" />
    <glyph glyph-name="wdieresis" unicode="&#x1e85;" horiz-adv-x="810" 
d="M325 611q-20 0 -33.5 13.5t-13.5 32.5q0 20 13.5 33.5t33.5 13.5q19 0 32.5 -13.5t13.5 -33.5q0 -19 -13.5 -32.5t-32.5 -13.5zM487 611q-20 0 -33.5 13.5t-13.5 32.5q0 20 13.5 33.5t33.5 13.5q19 0 32.5 -13.5t13.5 -33.5q0 -19 -13.5 -32.5t-32.5 -13.5zM716 478h63
l-171 -478h-70l-133 412l-132 -412h-71l-172 478h63l146 -415l136 415h60l136 -416z" />
    <glyph glyph-name="uni1E9E" unicode="&#x1e9e;" horiz-adv-x="687" 
d="M414 368q41 -7 81 -19t71 -32.5t50 -52.5t19 -79q0 -45 -16.5 -81t-47 -61.5t-73.5 -39.5t-97 -14q-48 0 -87.5 8.5t-71.5 25.5l31 48q52 -29 127 -29q81 0 127.5 37t46.5 102q0 38 -16.5 62t-44 40t-64 25t-75.5 16l-80 16l208 290h-358v-630h-61v686h491v-55l-189 -258
z" />
    <glyph glyph-name="uni1EA0" unicode="&#x1ea0;" horiz-adv-x="655" 
d="M633 0h-65l-68 177h-345l-68 -177h-65l266 686h79zM175 230h305l-152 395zM328 -73q19 0 32.5 -13.5t13.5 -32.5q0 -20 -13.5 -33.5t-32.5 -13.5q-20 0 -33.5 13.5t-13.5 33.5q0 19 13.5 32.5t33.5 13.5z" />
    <glyph glyph-name="uni1EA1" unicode="&#x1ea1;" horiz-adv-x="506" 
d="M491 50v-50h-32q-35 0 -54.5 17t-19.5 55v28h-4q-23 -53 -69.5 -81.5t-112.5 -28.5q-64 0 -104.5 32t-40.5 95q0 69 48 104.5t132 49.5l106 18q14 2 24 9.5t10 21.5q0 60 -32.5 91t-91.5 31q-115 0 -128 -105l-59 8q11 72 58.5 107.5t129.5 35.5q88 0 135.5 -44.5
t47.5 -129.5v-214q0 -28 8.5 -39t31.5 -11h17zM212 39q78 0 121.5 55t43.5 158l-139 -26q-124 -19 -124 -104q0 -40 25.5 -61.5t72.5 -21.5zM265 -73q19 0 32.5 -13.5t13.5 -32.5q0 -20 -13.5 -33.5t-32.5 -13.5q-20 0 -33.5 13.5t-13.5 33.5q0 19 13.5 32.5t33.5 13.5z" />
    <glyph glyph-name="uni1EA2" unicode="&#x1ea2;" horiz-adv-x="655" 
d="M328 869q-15 0 -29.5 -5t-34.5 -18l-18 28q23 14 42.5 20.5t43.5 6.5q45 0 71.5 -20t26.5 -54q0 -31 -22 -49t-60 -27v-35h-41v54q42 7 61.5 21t19.5 34t-16 32t-44 12zM568 0l-68 177h-345l-68 -177h-65l266 686h79l266 -686h-65zM175 230h305l-152 395z" />
    <glyph glyph-name="uni1EA3" unicode="&#x1ea3;" horiz-adv-x="506" 
d="M248 669q-16 0 -31 -5t-36 -18l-18 31q25 14 46 20.5t45 6.5q47 0 73.5 -20.5t26.5 -54.5q0 -30 -21.5 -48t-59.5 -27v-36h-47v52q43 7 62 21t19 34t-15.5 32t-43.5 12zM491 50v-50h-32q-35 0 -54.5 17t-19.5 55v28h-4q-23 -53 -69.5 -81.5t-112.5 -28.5q-64 0 -104.5 32
t-40.5 95q0 69 48 104.5t132 49.5l106 18q14 2 24 9.5t10 21.5q0 60 -32.5 91t-91.5 31q-115 0 -128 -105l-59 8q11 72 58.5 107.5t129.5 35.5q88 0 135.5 -44.5t47.5 -129.5v-214q0 -28 8.5 -39t31.5 -11h17zM212 39q78 0 121.5 55t43.5 158l-139 -26q-124 -19 -124 -104
q0 -40 25.5 -61.5t72.5 -21.5z" />
    <glyph glyph-name="uni1EA4" unicode="&#x1ea4;" horiz-adv-x="655" 
d="M328 813l-86 -82h-48l96 109h75l35 -40l66 103h64l-92 -124h-19l43 -48h-49zM568 0l-68 177h-345l-68 -177h-65l266 686h79l266 -686h-65zM175 230h305l-152 395z" />
    <glyph glyph-name="uni1EA5" unicode="&#x1ea5;" horiz-adv-x="506" 
d="M249 652l-82 -112h-48l96 146h68l44 -67l90 140h66l-109 -146h-43l48 -73h-48zM491 50v-50h-32q-35 0 -54.5 17t-19.5 55v28h-4q-23 -53 -69.5 -81.5t-112.5 -28.5q-64 0 -104.5 32t-40.5 95q0 69 48 104.5t132 49.5l106 18q14 2 24 9.5t10 21.5q0 60 -32.5 91t-91.5 31
q-115 0 -128 -105l-59 8q11 72 58.5 107.5t129.5 35.5q88 0 135.5 -44.5t47.5 -129.5v-214q0 -28 8.5 -39t31.5 -11h17zM212 39q78 0 121.5 55t43.5 158l-139 -26q-124 -19 -124 -104q0 -40 25.5 -61.5t72.5 -21.5z" />
    <glyph glyph-name="uni1EA6" unicode="&#x1ea6;" horiz-adv-x="655" 
d="M508 779h-51l-93 124h65zM328 813l-86 -82h-48l96 109h75l97 -109h-49zM568 0l-68 177h-345l-68 -177h-65l266 686h79l266 -686h-65zM175 230h305l-152 395z" />
    <glyph glyph-name="uni1EA7" unicode="&#x1ea7;" horiz-adv-x="506" 
d="M445 613h-51l-108 146h66zM249 652l-82 -112h-48l96 146h68l96 -146h-48zM491 50v-50h-32q-35 0 -54.5 17t-19.5 55v28h-4q-23 -53 -69.5 -81.5t-112.5 -28.5q-64 0 -104.5 32t-40.5 95q0 69 48 104.5t132 49.5l106 18q14 2 24 9.5t10 21.5q0 60 -32.5 91t-91.5 31
q-115 0 -128 -105l-59 8q11 72 58.5 107.5t129.5 35.5q88 0 135.5 -44.5t47.5 -129.5v-214q0 -28 8.5 -39t31.5 -11h17zM212 39q78 0 121.5 55t43.5 158l-139 -26q-124 -19 -124 -104q0 -40 25.5 -61.5t72.5 -21.5z" />
    <glyph glyph-name="uni1EA8" unicode="&#x1ea8;" horiz-adv-x="655" 
d="M466 921q-16 0 -30.5 -5t-33.5 -18l-19 28q23 14 42.5 21t44.5 7q45 0 71 -20.5t26 -54.5q0 -31 -21.5 -48.5t-59.5 -26.5v-36h-42v55q43 7 62 20.5t19 33.5t-15.5 32t-43.5 12zM328 813l-86 -82h-48l96 109h75l97 -109h-49zM568 0l-68 177h-345l-68 -177h-65l266 686h79
l266 -686h-65zM175 230h305l-152 395z" />
    <glyph glyph-name="uni1EA9" unicode="&#x1ea9;" horiz-adv-x="506" 
d="M366 763q-16 0 -31 -5t-36 -18l-19 31q26 14 47 20.5t45 6.5q47 0 73.5 -20.5t26.5 -53.5q0 -31 -22 -49t-60 -27v-35h-46v52q43 7 62 20.5t19 33.5t-15.5 32t-43.5 12zM249 652l-82 -112h-48l96 146h68l96 -146h-48zM491 50v-50h-32q-35 0 -54.5 17t-19.5 55v28h-4
q-23 -53 -69.5 -81.5t-112.5 -28.5q-64 0 -104.5 32t-40.5 95q0 69 48 104.5t132 49.5l106 18q14 2 24 9.5t10 21.5q0 60 -32.5 91t-91.5 31q-115 0 -128 -105l-59 8q11 72 58.5 107.5t129.5 35.5q88 0 135.5 -44.5t47.5 -129.5v-214q0 -28 8.5 -39t31.5 -11h17zM212 39
q78 0 121.5 55t43.5 158l-139 -26q-124 -19 -124 -104q0 -40 25.5 -61.5t72.5 -21.5z" />
    <glyph glyph-name="uni1EAA" unicode="&#x1eaa;" horiz-adv-x="655" 
d="M254 932q-26 0 -40.5 -22t-14.5 -56h-36q0 51 26 83.5t68 32.5q35 0 53.5 -16t31.5 -33q12 -16 24 -27t35 -11q26 0 40 22t14 56h36q0 -51 -25 -83.5t-67 -32.5q-35 0 -53 15.5t-31 32.5q-12 16 -24.5 27.5t-36.5 11.5zM290 840h75l97 -109h-49l-85 82l-86 -82h-49z
M568 0l-68 177h-345l-68 -177h-65l266 686h79l266 -686h-65zM175 230h305l-152 395z" />
    <glyph glyph-name="uni1EAB" unicode="&#x1eab;" horiz-adv-x="506" 
d="M175 798q-26 0 -40.5 -21.5t-14.5 -56.5h-36q0 51 26 84t68 33q35 0 53.5 -16.5t31.5 -33.5q12 -15 24 -26.5t35 -11.5q26 0 40 22t14 57h36q0 -51 -25 -84t-67 -33q-35 0 -53 16t-31 33q-12 16 -24.5 27t-36.5 11zM214 686h69l96 -146h-49l-81 112l-82 -112h-49zM491 50
v-50h-32q-35 0 -54.5 17t-19.5 55v28h-4q-23 -53 -69.5 -81.5t-112.5 -28.5q-64 0 -104.5 32t-40.5 95q0 69 48 104.5t132 49.5l106 18q14 2 24 9.5t10 21.5q0 60 -32.5 91t-91.5 31q-115 0 -128 -105l-59 8q11 72 58.5 107.5t129.5 35.5q88 0 135.5 -44.5t47.5 -129.5v-214
q0 -28 8.5 -39t31.5 -11h17zM212 39q78 0 121.5 55t43.5 158l-139 -26q-124 -19 -124 -104q0 -40 25.5 -61.5t72.5 -21.5z" />
    <glyph glyph-name="uni1EAC" unicode="&#x1eac;" horiz-adv-x="655" 
d="M328 813l-86 -82h-48l96 109h75l97 -109h-49zM633 0h-65l-68 177h-345l-68 -177h-65l266 686h79zM175 230h305l-152 395zM328 -73q19 0 32.5 -13.5t13.5 -32.5q0 -20 -13.5 -33.5t-32.5 -13.5q-20 0 -33.5 13.5t-13.5 33.5q0 19 13.5 32.5t33.5 13.5z" />
    <glyph glyph-name="uni1EAD" unicode="&#x1ead;" horiz-adv-x="506" 
d="M249 652l-82 -112h-48l96 146h68l96 -146h-48zM491 50v-50h-32q-35 0 -54.5 17t-19.5 55v28h-4q-23 -53 -69.5 -81.5t-112.5 -28.5q-64 0 -104.5 32t-40.5 95q0 69 48 104.5t132 49.5l106 18q14 2 24 9.5t10 21.5q0 60 -32.5 91t-91.5 31q-115 0 -128 -105l-59 8
q11 72 58.5 107.5t129.5 35.5q88 0 135.5 -44.5t47.5 -129.5v-214q0 -28 8.5 -39t31.5 -11h17zM212 39q78 0 121.5 55t43.5 158l-139 -26q-124 -19 -124 -104q0 -40 25.5 -61.5t72.5 -21.5zM265 -73q19 0 32.5 -13.5t13.5 -32.5q0 -20 -13.5 -33.5t-32.5 -13.5
q-20 0 -33.5 13.5t-13.5 33.5q0 19 13.5 32.5t33.5 13.5z" />
    <glyph glyph-name="uni1EAE" unicode="&#x1eae;" horiz-adv-x="655" 
d="M446 948l-93 -123h-51l80 123h64zM327 723q-68 0 -110.5 27t-50.5 90h42q8 -43 38 -61.5t81 -18.5t81.5 18.5t38.5 61.5h42q-8 -63 -51 -90t-111 -27zM568 0l-68 177h-345l-68 -177h-65l266 686h79l266 -686h-65zM175 230h305l-152 395z" />
    <glyph glyph-name="uni1EAF" unicode="&#x1eaf;" horiz-adv-x="506" 
d="M378 811l-109 -146h-51l94 146h66zM249 530q-76 0 -120 39.5t-44 116.5h46q0 -56 30.5 -87.5t87.5 -31.5t88 31t31 88h46q0 -77 -44.5 -116.5t-120.5 -39.5zM491 50v-50h-32q-35 0 -54.5 17t-19.5 55v28h-4q-23 -53 -69.5 -81.5t-112.5 -28.5q-64 0 -104.5 32t-40.5 95
q0 69 48 104.5t132 49.5l106 18q14 2 24 9.5t10 21.5q0 60 -32.5 91t-91.5 31q-115 0 -128 -105l-59 8q11 72 58.5 107.5t129.5 35.5q88 0 135.5 -44.5t47.5 -129.5v-214q0 -28 8.5 -39t31.5 -11h17zM212 39q78 0 121.5 55t43.5 158l-139 -26q-124 -19 -124 -104
q0 -40 25.5 -61.5t72.5 -21.5z" />
    <glyph glyph-name="uni1EB0" unicode="&#x1eb0;" horiz-adv-x="655" 
d="M354 825h-51l-93 123h64zM327 723q-68 0 -110.5 27t-50.5 90h42q8 -43 38 -61.5t81 -18.5q52 0 82 18.5t38 61.5h42q-8 -63 -51 -90t-111 -27zM568 0l-68 177h-345l-68 -177h-65l266 686h79l266 -686h-65zM175 230h305l-152 395z" />
    <glyph glyph-name="uni1EB1" unicode="&#x1eb1;" horiz-adv-x="506" 
d="M281 665h-51l-109 146h66zM248 530q-75 0 -119.5 39.5t-44.5 116.5h46q0 -56 30.5 -87.5t87.5 -31.5t88 31t31 88h46q0 -77 -44.5 -116.5t-120.5 -39.5zM491 50v-50h-32q-35 0 -54.5 17t-19.5 55v28h-4q-23 -53 -69.5 -81.5t-112.5 -28.5q-64 0 -104.5 32t-40.5 95
q0 69 48 104.5t132 49.5l106 18q14 2 24 9.5t10 21.5q0 60 -32.5 91t-91.5 31q-115 0 -128 -105l-59 8q11 72 58.5 107.5t129.5 35.5q88 0 135.5 -44.5t47.5 -129.5v-214q0 -28 8.5 -39t31.5 -11h17zM212 39q78 0 121.5 55t43.5 158l-139 -26q-124 -19 -124 -104
q0 -40 25.5 -61.5t72.5 -21.5z" />
    <glyph glyph-name="uni1EB2" unicode="&#x1eb2;" horiz-adv-x="655" 
d="M329 962q-16 0 -30.5 -4.5t-34.5 -17.5l-18 28q23 14 42.5 20.5t43.5 6.5q45 0 71.5 -20.5t26.5 -53.5q0 -31 -22 -49t-60 -27v-35h-41v54q43 7 62 20.5t19 33.5t-15.5 32t-43.5 12zM327 723q-68 0 -110.5 27t-50.5 90h42q8 -43 38 -61.5t81 -18.5t81.5 18.5t38.5 61.5
h42q-8 -63 -51 -90t-111 -27zM568 0l-68 177h-345l-68 -177h-65l266 686h79l266 -686h-65zM175 230h305l-152 395z" />
    <glyph glyph-name="uni1EB3" unicode="&#x1eb3;" horiz-adv-x="506" 
d="M251 790q-16 0 -30.5 -5t-34.5 -17l-18 28q23 14 42.5 20.5t43.5 6.5q45 0 71.5 -20.5t26.5 -54.5q0 -30 -22 -48t-60 -27v-31h-41v50q43 7 62 20.5t19 33.5t-15.5 32t-43.5 12zM249 530q-76 0 -120 39.5t-44 116.5h46q0 -56 30.5 -87.5t87.5 -31.5t88 31t31 88h46
q0 -77 -44.5 -116.5t-120.5 -39.5zM491 50v-50h-32q-35 0 -54.5 17t-19.5 55v28h-4q-23 -53 -69.5 -81.5t-112.5 -28.5q-64 0 -104.5 32t-40.5 95q0 69 48 104.5t132 49.5l106 18q14 2 24 9.5t10 21.5q0 60 -32.5 91t-91.5 31q-115 0 -128 -105l-59 8q11 72 58.5 107.5
t129.5 35.5q88 0 135.5 -44.5t47.5 -129.5v-214q0 -28 8.5 -39t31.5 -11h17zM212 39q78 0 121.5 55t43.5 158l-139 -26q-124 -19 -124 -104q0 -40 25.5 -61.5t72.5 -21.5z" />
    <glyph glyph-name="uni1EB4" unicode="&#x1eb4;" horiz-adv-x="655" 
d="M254 957q-26 0 -40.5 -22t-14.5 -56h-36q0 51 26 83.5t68 32.5q35 0 53 -16t32 -33q12 -16 24 -27t35 -11q26 0 40 22t14 56h36q0 -51 -25 -83.5t-68 -32.5q-35 0 -53 15.5t-30 32.5q-13 16 -25.5 27.5t-35.5 11.5zM327 760q51 0 81 18.5t38 61.5h43q-8 -63 -51 -90
t-111 -27t-111 27t-51 90h43q8 -43 38 -61.5t81 -18.5zM568 0l-68 177h-345l-68 -177h-65l266 686h79l266 -686h-65zM175 230h305l-152 395z" />
    <glyph glyph-name="uni1EB5" unicode="&#x1eb5;" horiz-adv-x="506" 
d="M176 833q-26 0 -40.5 -21.5t-14.5 -56.5h-36q0 51 26 84t68 33q35 0 53 -16.5t32 -33.5q12 -15 24 -26.5t35 -11.5q26 0 40 22t14 57h36q0 -51 -25 -84t-68 -33q-35 0 -53 16t-30 33q-13 16 -25.5 27t-35.5 11zM249 530q-76 0 -120.5 39.5t-44.5 116.5h47
q0 -56 30.5 -87.5t87.5 -31.5t88 31t31 88h46q0 -77 -45 -116.5t-120 -39.5zM491 50v-50h-32q-35 0 -54.5 17t-19.5 55v28h-4q-23 -53 -69.5 -81.5t-112.5 -28.5q-64 0 -104.5 32t-40.5 95q0 69 48 104.5t132 49.5l106 18q14 2 24 9.5t10 21.5q0 60 -32.5 91t-91.5 31
q-115 0 -128 -105l-59 8q11 72 58.5 107.5t129.5 35.5q88 0 135.5 -44.5t47.5 -129.5v-214q0 -28 8.5 -39t31.5 -11h17zM212 39q78 0 121.5 55t43.5 158l-139 -26q-124 -19 -124 -104q0 -40 25.5 -61.5t72.5 -21.5z" />
    <glyph glyph-name="uni1EB6" unicode="&#x1eb6;" horiz-adv-x="655" 
d="M327 723q-68 0 -110.5 27t-50.5 90h42q8 -43 38 -61.5t81 -18.5t81.5 18.5t38.5 61.5h42q-8 -63 -51 -90t-111 -27zM633 0h-65l-68 177h-345l-68 -177h-65l266 686h79zM175 230h305l-152 395zM328 -73q19 0 32.5 -13.5t13.5 -32.5q0 -20 -13.5 -33.5t-32.5 -13.5
q-20 0 -33.5 13.5t-13.5 33.5q0 19 13.5 32.5t33.5 13.5z" />
    <glyph glyph-name="uni1EB7" unicode="&#x1eb7;" horiz-adv-x="506" 
d="M249 530q-76 0 -120 39.5t-44 116.5h46q0 -56 30.5 -87.5t87.5 -31.5t88 31t31 88h46q0 -77 -44.5 -116.5t-120.5 -39.5zM491 50v-50h-32q-35 0 -54.5 17t-19.5 55v28h-4q-23 -53 -69.5 -81.5t-112.5 -28.5q-64 0 -104.5 32t-40.5 95q0 69 48 104.5t132 49.5l106 18
q14 2 24 9.5t10 21.5q0 60 -32.5 91t-91.5 31q-115 0 -128 -105l-59 8q11 72 58.5 107.5t129.5 35.5q88 0 135.5 -44.5t47.5 -129.5v-214q0 -28 8.5 -39t31.5 -11h17zM212 39q78 0 121.5 55t43.5 158l-139 -26q-124 -19 -124 -104q0 -40 25.5 -61.5t72.5 -21.5zM265 -73
q19 0 32.5 -13.5t13.5 -32.5q0 -20 -13.5 -33.5t-32.5 -13.5q-20 0 -33.5 13.5t-13.5 33.5q0 19 13.5 32.5t33.5 13.5z" />
    <glyph glyph-name="uni1EB8" unicode="&#x1eb8;" horiz-adv-x="490" 
d="M448 630h-304v-260h270v-55h-270v-259h304v-56h-365v686h365v-56zM273 -73q19 0 32.5 -13.5t13.5 -32.5q0 -20 -13.5 -33.5t-32.5 -13.5q-20 0 -33.5 13.5t-13.5 33.5q0 19 13.5 32.5t33.5 13.5z" />
    <glyph glyph-name="uni1EB9" unicode="&#x1eb9;" horiz-adv-x="572" 
d="M521 227h-409q2 -42 15.5 -76.5t37.5 -59t56 -38t69 -13.5q54 0 94.5 26t62.5 73l55 -11q-26 -65 -82 -101.5t-129 -36.5q-53 0 -96.5 18t-75 51t-49 79t-17.5 101q0 56 17.5 101.5t49 78.5t74.5 51t95 18q50 0 92.5 -17.5t73.5 -49.5t48.5 -77.5t17.5 -102.5v-14z
M289 439q-72 0 -120 -43.5t-56 -121.5h348q-6 76 -53.5 120.5t-118.5 44.5zM293 -73q19 0 32.5 -13.5t13.5 -32.5q0 -20 -13.5 -33.5t-32.5 -13.5q-20 0 -33.5 13.5t-13.5 33.5q0 19 13.5 32.5t33.5 13.5z" />
    <glyph glyph-name="uni1EBA" unicode="&#x1eba;" horiz-adv-x="490" 
d="M272 869q-15 0 -29.5 -5t-34.5 -18l-18 28q23 14 42.5 20.5t43.5 6.5q45 0 71.5 -20t26.5 -54q0 -31 -22 -49t-60 -27v-35h-41v54q42 7 61.5 21t19.5 34t-16 32t-44 12zM448 630h-304v-260h270v-55h-270v-259h304v-56h-365v686h365v-56z" />
    <glyph glyph-name="uni1EBB" unicode="&#x1ebb;" horiz-adv-x="572" 
d="M286 669q-16 0 -31 -5t-36 -18l-18 31q25 14 46 20.5t45 6.5q47 0 73.5 -20.5t26.5 -54.5q0 -30 -21.5 -48t-59.5 -27v-36h-47v52q43 7 62 21t19 34t-15.5 32t-43.5 12zM521 227h-409q2 -42 15.5 -76.5t37.5 -59t56 -38t69 -13.5q54 0 94.5 26t62.5 73l55 -11
q-26 -65 -82 -101.5t-129 -36.5q-53 0 -96.5 18t-75 51t-49 79t-17.5 101q0 56 17.5 101.5t49 78.5t74.5 51t95 18q50 0 92.5 -17.5t73.5 -49.5t48.5 -77.5t17.5 -102.5v-14zM289 439q-72 0 -120 -43.5t-56 -121.5h348q-6 76 -53.5 120.5t-118.5 44.5z" />
    <glyph glyph-name="uni1EBC" unicode="&#x1ebc;" horiz-adv-x="490" 
d="M199 803q-26 0 -41 -21.5t-15 -56.5h-35q0 51 25.5 84t67.5 33q35 0 53.5 -16.5t32.5 -33.5q11 -15 23.5 -26.5t35.5 -11.5q25 0 39.5 22t14.5 57h36q0 -51 -25.5 -84t-67.5 -33q-35 0 -53 16t-31 33q-12 16 -24.5 27t-35.5 11zM448 630h-304v-260h270v-55h-270v-259h304
v-56h-365v686h365v-56z" />
    <glyph glyph-name="uni1EBD" unicode="&#x1ebd;" horiz-adv-x="572" 
d="M214 625q-26 0 -41 -21.5t-15 -56.5h-35q0 51 25.5 84t67.5 33q35 0 53.5 -16.5t32.5 -33.5q11 -15 23.5 -26.5t35.5 -11.5q25 0 39.5 22t14.5 57h36q0 -51 -25.5 -84t-67.5 -33q-35 0 -53 16t-31 33q-12 16 -24.5 27t-35.5 11zM521 227h-409q2 -42 15.5 -76.5t37.5 -59
t56 -38t69 -13.5q54 0 94.5 26t62.5 73l55 -11q-26 -65 -82 -101.5t-129 -36.5q-53 0 -96.5 18t-75 51t-49 79t-17.5 101q0 56 17.5 101.5t49 78.5t74.5 51t95 18q50 0 92.5 -17.5t73.5 -49.5t48.5 -77.5t17.5 -102.5v-14zM289 439q-72 0 -120 -43.5t-56 -121.5h348
q-6 76 -53.5 120.5t-118.5 44.5z" />
    <glyph glyph-name="uni1EBE" unicode="&#x1ebe;" horiz-adv-x="490" 
d="M272 813l-86 -82h-48l96 109h75l35 -40l66 103h64l-92 -124h-19l43 -48h-49zM83 0v686h365v-56h-304v-260h270v-55h-270v-259h304v-56h-365z" />
    <glyph glyph-name="uni1EBF" unicode="&#x1ebf;" horiz-adv-x="572" 
d="M287 652l-82 -112h-48l96 146h68l44 -67l90 140h66l-109 -146h-43l48 -73h-48zM289 488q50 0 92.5 -17.5t73.5 -49.5t48.5 -77.5t17.5 -102.5v-14h-409q2 -42 15.5 -76.5t37.5 -59t56 -38t69 -13.5q54 0 94.5 26t62.5 73l55 -11q-26 -65 -82 -101.5t-129 -36.5
q-53 0 -96.5 18t-75 51t-49 79t-17.5 101q0 56 17.5 101.5t49 78.5t74.5 51t95 18zM289 439q-72 0 -120 -43.5t-56 -121.5h348q-6 76 -53.5 120.5t-118.5 44.5z" />
    <glyph glyph-name="uni1EC0" unicode="&#x1ec0;" horiz-adv-x="490" 
d="M452 779h-51l-93 124h65zM272 813l-86 -82h-48l96 109h75l97 -109h-49zM83 0v686h365v-56h-304v-260h270v-55h-270v-259h304v-56h-365z" />
    <glyph glyph-name="uni1EC1" unicode="&#x1ec1;" horiz-adv-x="572" 
d="M483 613h-51l-108 146h66zM287 652l-82 -112h-48l96 146h68l96 -146h-48zM521 227h-409q2 -42 15.5 -76.5t37.5 -59t56 -38t69 -13.5q54 0 94.5 26t62.5 73l55 -11q-26 -65 -82 -101.5t-129 -36.5q-53 0 -96.5 18t-75 51t-49 79t-17.5 101q0 56 17.5 101.5t49 78.5
t74.5 51t95 18q50 0 92.5 -17.5t73.5 -49.5t48.5 -77.5t17.5 -102.5v-14zM289 439q-72 0 -120 -43.5t-56 -121.5h348q-6 76 -53.5 120.5t-118.5 44.5z" />
    <glyph glyph-name="uni1EC2" unicode="&#x1ec2;" horiz-adv-x="490" 
d="M414 954q45 0 71 -20.5t26 -54.5q0 -31 -21.5 -48.5t-59.5 -26.5v-36h-42v55q43 7 62 20.5t19 33.5t-15.5 32t-43.5 12q-16 0 -30.5 -5t-33.5 -18l-19 28q23 14 42.5 21t44.5 7zM272 813l-86 -82h-48l96 109h75l97 -109h-49zM83 0v686h365v-56h-304v-260h270v-55h-270
v-259h304v-56h-365z" />
    <glyph glyph-name="uni1EC3" unicode="&#x1ec3;" horiz-adv-x="572" 
d="M404 763q-16 0 -31 -5t-36 -18l-19 31q26 14 47 20.5t45 6.5q47 0 73.5 -20.5t26.5 -53.5q0 -31 -22 -49t-60 -27v-35h-46v52q43 7 62 20.5t19 33.5t-15.5 32t-43.5 12zM287 652l-82 -112h-48l96 146h68l96 -146h-48zM521 227h-409q2 -42 15.5 -76.5t37.5 -59t56 -38
t69 -13.5q54 0 94.5 26t62.5 73l55 -11q-26 -65 -82 -101.5t-129 -36.5q-53 0 -96.5 18t-75 51t-49 79t-17.5 101q0 56 17.5 101.5t49 78.5t74.5 51t95 18q50 0 92.5 -17.5t73.5 -49.5t48.5 -77.5t17.5 -102.5v-14zM289 439q-72 0 -120 -43.5t-56 -121.5h348
q-6 76 -53.5 120.5t-118.5 44.5z" />
    <glyph glyph-name="uni1EC4" unicode="&#x1ec4;" horiz-adv-x="490" 
d="M198 932q-26 0 -40.5 -22t-14.5 -56h-36q0 51 26 83.5t68 32.5q35 0 53.5 -16t31.5 -33q12 -16 24 -27t35 -11q26 0 40 22t14 56h36q0 -51 -25 -83.5t-67 -32.5q-35 0 -53 15.5t-31 32.5q-12 16 -24.5 27.5t-36.5 11.5zM234 840h75l97 -109h-49l-85 82l-86 -82h-49z
M448 630h-304v-260h270v-55h-270v-259h304v-56h-365v686h365v-56z" />
    <glyph glyph-name="uni1EC5" unicode="&#x1ec5;" horiz-adv-x="572" 
d="M214 798q-26 0 -40.5 -21.5t-14.5 -56.5h-36q0 51 26 84t68 33q35 0 53.5 -16.5t31.5 -33.5q12 -15 24 -26.5t35 -11.5q26 0 40 22t14 57h36q0 -51 -25 -84t-67 -33q-35 0 -53 16t-31 33q-12 16 -24.5 27t-36.5 11zM253 686h69l96 -146h-49l-81 112l-82 -112h-49z
M521 227h-409q2 -42 15.5 -76.5t37.5 -59t56 -38t69 -13.5q54 0 94.5 26t62.5 73l55 -11q-26 -65 -82 -101.5t-129 -36.5q-53 0 -96.5 18t-75 51t-49 79t-17.5 101q0 56 17.5 101.5t49 78.5t74.5 51t95 18q50 0 92.5 -17.5t73.5 -49.5t48.5 -77.5t17.5 -102.5v-14zM289 439
q-72 0 -120 -43.5t-56 -121.5h348q-6 76 -53.5 120.5t-118.5 44.5z" />
    <glyph glyph-name="uni1EC6" unicode="&#x1ec6;" horiz-adv-x="490" 
d="M272 813l-86 -82h-48l96 109h75l97 -109h-49zM448 630h-304v-260h270v-55h-270v-259h304v-56h-365v686h365v-56zM273 -73q19 0 32.5 -13.5t13.5 -32.5q0 -20 -13.5 -33.5t-32.5 -13.5q-20 0 -33.5 13.5t-13.5 33.5q0 19 13.5 32.5t33.5 13.5z" />
    <glyph glyph-name="uni1EC7" unicode="&#x1ec7;" horiz-adv-x="572" 
d="M287 652l-82 -112h-48l96 146h68l96 -146h-48zM521 227h-409q2 -42 15.5 -76.5t37.5 -59t56 -38t69 -13.5q54 0 94.5 26t62.5 73l55 -11q-26 -65 -82 -101.5t-129 -36.5q-53 0 -96.5 18t-75 51t-49 79t-17.5 101q0 56 17.5 101.5t49 78.5t74.5 51t95 18q50 0 92.5 -17.5
t73.5 -49.5t48.5 -77.5t17.5 -102.5v-14zM289 439q-72 0 -120 -43.5t-56 -121.5h348q-6 76 -53.5 120.5t-118.5 44.5zM293 -73q19 0 32.5 -13.5t13.5 -32.5q0 -20 -13.5 -33.5t-32.5 -13.5q-20 0 -33.5 13.5t-13.5 33.5q0 19 13.5 32.5t33.5 13.5z" />
    <glyph glyph-name="uni1EC8" unicode="&#x1ec8;" horiz-adv-x="227" 
d="M92 716v54q42 7 61.5 21t19.5 34t-16 32t-44 12q-15 0 -29.5 -5t-34.5 -18l-18 28q23 14 42.5 20.5t43.5 6.5q45 0 71.5 -20t26.5 -54q0 -31 -22 -49t-60 -27v-35h-41zM83 0v686h61v-686h-61z" />
    <glyph glyph-name="uni1EC9" unicode="&#x1ec9;" horiz-adv-x="209" 
d="M81 518v52q43 7 62 21t19 34t-15.5 32t-43.5 12q-16 0 -31 -5t-36 -18l-18 31q25 14 46 20.5t45 6.5q47 0 73.5 -20.5t26.5 -54.5q0 -30 -21.5 -48t-59.5 -27v-36h-47zM75 0v478h59v-478h-59z" />
    <glyph glyph-name="uni1ECA" unicode="&#x1eca;" horiz-adv-x="227" 
d="M83 0v686h61v-686h-61zM114 -166q-20 0 -33.5 13.5t-13.5 33.5q0 19 13.5 32.5t33.5 13.5q19 0 32.5 -13.5t13.5 -32.5q0 -20 -13.5 -33.5t-32.5 -13.5z" />
    <glyph glyph-name="uni1ECB" unicode="&#x1ecb;" horiz-adv-x="209" 
d="M105 611q-20 0 -33.5 13.5t-13.5 32.5q0 20 13.5 33.5t33.5 13.5q19 0 32.5 -13.5t13.5 -33.5q0 -19 -13.5 -32.5t-32.5 -13.5zM75 0v478h59v-478h-59zM105 -166q-20 0 -33.5 13.5t-13.5 33.5q0 19 13.5 32.5t33.5 13.5q19 0 32.5 -13.5t13.5 -32.5q0 -20 -13.5 -33.5
t-32.5 -13.5z" />
    <glyph glyph-name="uni1ECC" unicode="&#x1ecc;" horiz-adv-x="787" 
d="M393 -11q-75 0 -138 26t-108 72.5t-70 111.5t-25 144t25 144t70 111.5t108 72.5t138 26t138 -26t108 -72.5t70 -111.5t25 -144t-25 -144t-70 -111.5t-108 -72.5t-138 -26zM393 46q62 0 113.5 21.5t88.5 60.5t57 94t20 121t-20 121t-57 94t-88.5 60.5t-113.5 21.5
t-113.5 -21.5t-88 -60.5t-57 -94t-20.5 -121t20.5 -121t57 -94t88 -60.5t113.5 -21.5zM394 -166q-20 0 -33.5 13.5t-13.5 33.5q0 19 13.5 32.5t33.5 13.5q19 0 32.5 -13.5t13.5 -32.5q0 -20 -13.5 -33.5t-32.5 -13.5z" />
    <glyph glyph-name="uni1ECD" unicode="&#x1ecd;" horiz-adv-x="585" 
d="M292 -10q-52 0 -96 18t-75.5 51t-49.5 79t-18 102q0 55 18 100.5t49.5 78.5t75.5 51t96 18q53 0 97 -18t75.5 -51t49.5 -78.5t18 -100.5q0 -56 -18 -102t-49.5 -79t-75.5 -51t-97 -18zM292 40q40 0 73 15t57 41.5t37 63t13 80.5q0 43 -13 79.5t-37 62.5t-57 41t-73 15
t-73 -15t-57 -41t-37 -62.5t-13 -79.5q0 -44 13 -80.5t37 -63t57 -41.5t73 -15zM293 -166q-20 0 -33.5 13.5t-13.5 33.5q0 19 13.5 32.5t33.5 13.5q19 0 32.5 -13.5t13.5 -32.5q0 -20 -13.5 -33.5t-32.5 -13.5z" />
    <glyph glyph-name="uni1ECE" unicode="&#x1ece;" horiz-adv-x="787" 
d="M373 716v54q42 7 61.5 21t19.5 34t-16 32t-44 12q-15 0 -29.5 -5t-34.5 -18l-18 28q23 14 42.5 20.5t43.5 6.5q45 0 71.5 -20t26.5 -54q0 -31 -22 -49t-60 -27v-35h-41zM393 -11q-75 0 -138 26t-108 72.5t-70 111.5t-25 144t25 144t70 111.5t108 72.5t138 26t138 -26
t108 -72.5t70 -111.5t25 -144t-25 -144t-70 -111.5t-108 -72.5t-138 -26zM393 46q62 0 113.5 21.5t88.5 60.5t57 94t20 121t-20 121t-57 94t-88.5 60.5t-113.5 21.5t-113.5 -21.5t-88 -60.5t-57 -94t-20.5 -121t20.5 -121t57 -94t88 -60.5t113.5 -21.5z" />
    <glyph glyph-name="uni1ECF" unicode="&#x1ecf;" horiz-adv-x="585" 
d="M269 518v52q43 7 62 21t19 34t-15.5 32t-43.5 12q-16 0 -31 -5t-36 -18l-18 31q25 14 46 20.5t45 6.5q47 0 73.5 -20.5t26.5 -54.5q0 -30 -21.5 -48t-59.5 -27v-36h-47zM292 -10q-52 0 -96 18t-75.5 51t-49.5 79t-18 102q0 55 18 100.5t49.5 78.5t75.5 51t96 18
q53 0 97 -18t75.5 -51t49.5 -78.5t18 -100.5q0 -56 -18 -102t-49.5 -79t-75.5 -51t-97 -18zM292 40q40 0 73 15t57 41.5t37 63t13 80.5q0 43 -13 79.5t-37 62.5t-57 41t-73 15t-73 -15t-57 -41t-37 -62.5t-13 -79.5q0 -44 13 -80.5t37 -63t57 -41.5t73 -15z" />
    <glyph glyph-name="uni1ED0" unicode="&#x1ed0;" horiz-adv-x="787" 
d="M393 813l-86 -82h-48l96 109h75l35 -40l66 103h64l-92 -124h-19l43 -48h-49zM393 697q75 0 138 -26t108 -72.5t70 -111.5t25 -144t-25 -144t-70 -111.5t-108 -72.5t-138 -26t-138 26t-108 72.5t-70 111.5t-25 144t25 144t70 111.5t108 72.5t138 26zM393 46
q62 0 113.5 21.5t88.5 60.5t57 94t20 121t-20 121t-57 94t-88.5 60.5t-113.5 21.5t-113.5 -21.5t-88 -60.5t-57 -94t-20.5 -121t20.5 -121t57 -94t88 -60.5t113.5 -21.5z" />
    <glyph glyph-name="uni1ED1" unicode="&#x1ed1;" horiz-adv-x="585" 
d="M292 652l-82 -112h-48l96 146h68l44 -67l90 140h66l-109 -146h-43l48 -73h-48zM292 488q53 0 97 -18t75.5 -51t49.5 -78.5t18 -100.5q0 -56 -18 -102t-49.5 -79t-75.5 -51t-97 -18q-52 0 -96 18t-75.5 51t-49.5 79t-18 102q0 55 18 100.5t49.5 78.5t75.5 51t96 18z
M292 40q40 0 73 15t57 41.5t37 63t13 80.5q0 43 -13 79.5t-37 62.5t-57 41t-73 15t-73 -15t-57 -41t-37 -62.5t-13 -79.5q0 -44 13 -80.5t37 -63t57 -41.5t73 -15z" />
    <glyph glyph-name="uni1ED2" unicode="&#x1ed2;" horiz-adv-x="787" 
d="M522 779l-93 124h65l79 -124h-51zM259 731l96 109h75l97 -109h-49l-85 82l-86 -82h-48zM393 -11q-75 0 -138 26t-108 72.5t-70 111.5t-25 144t25 144t70 111.5t108 72.5t138 26t138 -26t108 -72.5t70 -111.5t25 -144t-25 -144t-70 -111.5t-108 -72.5t-138 -26zM393 46
q62 0 113.5 21.5t88.5 60.5t57 94t20 121t-20 121t-57 94t-88.5 60.5t-113.5 21.5t-113.5 -21.5t-88 -60.5t-57 -94t-20.5 -121t20.5 -121t57 -94t88 -60.5t113.5 -21.5z" />
    <glyph glyph-name="uni1ED3" unicode="&#x1ed3;" horiz-adv-x="585" 
d="M437 613l-108 146h66l93 -146h-51zM162 540l96 146h68l96 -146h-48l-82 112l-82 -112h-48zM292 -10q-52 0 -96 18t-75.5 51t-49.5 79t-18 102q0 55 18 100.5t49.5 78.5t75.5 51t96 18q53 0 97 -18t75.5 -51t49.5 -78.5t18 -100.5q0 -56 -18 -102t-49.5 -79t-75.5 -51
t-97 -18zM292 40q40 0 73 15t57 41.5t37 63t13 80.5q0 43 -13 79.5t-37 62.5t-57 41t-73 15t-73 -15t-57 -41t-37 -62.5t-13 -79.5q0 -44 13 -80.5t37 -63t57 -41.5t73 -15z" />
    <glyph glyph-name="uni1ED4" unicode="&#x1ed4;" horiz-adv-x="787" 
d="M551 768h-42v55q43 7 62 20.5t19 33.5t-15.5 32t-43.5 12q-16 0 -30.5 -5t-33.5 -18l-19 28q23 14 42.5 21t44.5 7q45 0 71 -20.5t26 -54.5q0 -31 -21.5 -48.5t-59.5 -26.5v-36zM307 731h-48l96 109h75l97 -109h-49l-85 82zM393 -11q-75 0 -138 26t-108 72.5t-70 111.5
t-25 144t25 144t70 111.5t108 72.5t138 26t138 -26t108 -72.5t70 -111.5t25 -144t-25 -144t-70 -111.5t-108 -72.5t-138 -26zM393 46q62 0 113.5 21.5t88.5 60.5t57 94t20 121t-20 121t-57 94t-88.5 60.5t-113.5 21.5t-113.5 -21.5t-88 -60.5t-57 -94t-20.5 -121t20.5 -121
t57 -94t88 -60.5t113.5 -21.5z" />
    <glyph glyph-name="uni1ED5" unicode="&#x1ed5;" horiz-adv-x="585" 
d="M433 613h-46v52q43 7 62 20.5t19 33.5t-15.5 32t-43.5 12q-16 0 -31 -5t-36 -18l-19 31q26 14 47 20.5t45 6.5q47 0 73.5 -20.5t26.5 -53.5q0 -31 -22 -49t-60 -27v-35zM162 540l96 146h68l96 -146h-48l-82 112l-82 -112h-48zM292 -10q-52 0 -96 18t-75.5 51t-49.5 79
t-18 102q0 55 18 100.5t49.5 78.5t75.5 51t96 18q53 0 97 -18t75.5 -51t49.5 -78.5t18 -100.5q0 -56 -18 -102t-49.5 -79t-75.5 -51t-97 -18zM292 40q40 0 73 15t57 41.5t37 63t13 80.5q0 43 -13 79.5t-37 62.5t-57 41t-73 15t-73 -15t-57 -41t-37 -62.5t-13 -79.5
q0 -44 13 -80.5t37 -63t57 -41.5t73 -15z" />
    <glyph glyph-name="uni1ED6" unicode="&#x1ed6;" horiz-adv-x="787" 
d="M464 845q-35 0 -53 15.5t-31 32.5q-12 16 -24.5 27.5t-36.5 11.5q-26 0 -40.5 -22t-14.5 -56h-36q0 51 26 83.5t68 32.5q35 0 53.5 -16t31.5 -33q12 -16 24 -27t35 -11q26 0 40 22t14 56h36q0 -51 -25 -83.5t-67 -32.5zM307 731h-49l97 109h75l97 -109h-49l-85 82z
M393 -11q-75 0 -138 26t-108 72.5t-70 111.5t-25 144t25 144t70 111.5t108 72.5t138 26t138 -26t108 -72.5t70 -111.5t25 -144t-25 -144t-70 -111.5t-108 -72.5t-138 -26zM393 46q62 0 113.5 21.5t88.5 60.5t57 94t20 121t-20 121t-57 94t-88.5 60.5t-113.5 21.5
t-113.5 -21.5t-88 -60.5t-57 -94t-20.5 -121t20.5 -121t57 -94t88 -60.5t113.5 -21.5z" />
    <glyph glyph-name="uni1ED7" unicode="&#x1ed7;" horiz-adv-x="585" 
d="M364 711q-35 0 -53 16t-31 33q-12 16 -24.5 27t-36.5 11q-26 0 -40.5 -21.5t-14.5 -56.5h-36q0 51 26 84t68 33q35 0 53.5 -16.5t31.5 -33.5q12 -15 24 -26.5t35 -11.5q26 0 40 22t14 57h36q0 -51 -25 -84t-67 -33zM211 540h-49l96 146h69l96 -146h-49l-81 112zM292 -10
q-52 0 -96 18t-75.5 51t-49.5 79t-18 102q0 55 18 100.5t49.5 78.5t75.5 51t96 18q53 0 97 -18t75.5 -51t49.5 -78.5t18 -100.5q0 -56 -18 -102t-49.5 -79t-75.5 -51t-97 -18zM292 40q40 0 73 15t57 41.5t37 63t13 80.5q0 43 -13 79.5t-37 62.5t-57 41t-73 15t-73 -15
t-57 -41t-37 -62.5t-13 -79.5q0 -44 13 -80.5t37 -63t57 -41.5t73 -15z" />
    <glyph glyph-name="uni1ED8" unicode="&#x1ed8;" horiz-adv-x="787" 
d="M259 731l96 109h75l97 -109h-49l-85 82l-86 -82h-48zM393 -11q-75 0 -138 26t-108 72.5t-70 111.5t-25 144t25 144t70 111.5t108 72.5t138 26t138 -26t108 -72.5t70 -111.5t25 -144t-25 -144t-70 -111.5t-108 -72.5t-138 -26zM393 46q62 0 113.5 21.5t88.5 60.5t57 94
t20 121t-20 121t-57 94t-88.5 60.5t-113.5 21.5t-113.5 -21.5t-88 -60.5t-57 -94t-20.5 -121t20.5 -121t57 -94t88 -60.5t113.5 -21.5zM394 -166q-20 0 -33.5 13.5t-13.5 33.5q0 19 13.5 32.5t33.5 13.5q19 0 32.5 -13.5t13.5 -32.5q0 -20 -13.5 -33.5t-32.5 -13.5z" />
    <glyph glyph-name="uni1ED9" unicode="&#x1ed9;" horiz-adv-x="585" 
d="M162 540l96 146h68l96 -146h-48l-82 112l-82 -112h-48zM292 -10q-52 0 -96 18t-75.5 51t-49.5 79t-18 102q0 55 18 100.5t49.5 78.5t75.5 51t96 18q53 0 97 -18t75.5 -51t49.5 -78.5t18 -100.5q0 -56 -18 -102t-49.5 -79t-75.5 -51t-97 -18zM292 40q40 0 73 15t57 41.5
t37 63t13 80.5q0 43 -13 79.5t-37 62.5t-57 41t-73 15t-73 -15t-57 -41t-37 -62.5t-13 -79.5q0 -44 13 -80.5t37 -63t57 -41.5t73 -15zM293 -166q-20 0 -33.5 13.5t-13.5 33.5q0 19 13.5 32.5t33.5 13.5q19 0 32.5 -13.5t13.5 -32.5q0 -20 -13.5 -33.5t-32.5 -13.5z" />
    <glyph glyph-name="uni1EDA" unicode="&#x1eda;" horiz-adv-x="787" 
d="M511 840l-92 -124h-51l79 124h64zM728 692h45v-55q0 -49 -21 -72t-55 -23q-10 0 -15 1q25 -42 38.5 -92t13.5 -108q0 -79 -25 -144t-70 -111.5t-108 -72.5t-138 -26t-138 26t-108 72.5t-70 111.5t-25 144t25 144t70 111.5t108 72.5t138 26q81 0 146.5 -29t110.5 -82
q21 -9 39 -9q26 0 32.5 16.5t6.5 48.5v50zM393 46q62 0 113.5 21.5t88.5 60.5t57 94t20 121t-20 121t-57 94t-88.5 60.5t-113.5 21.5t-113.5 -21.5t-88 -60.5t-57 -94t-20.5 -121t20.5 -121t57 -94t88 -60.5t113.5 -21.5z" />
    <glyph glyph-name="uni1EDB" unicode="&#x1edb;" horiz-adv-x="585" 
d="M421 686l-108 -146h-51l93 146h66zM536 530h45v-55q0 -49 -21 -72t-55 -23q-7 0 -10 1q37 -60 37 -141q0 -56 -18 -102t-49.5 -79t-75.5 -51t-97 -18q-52 0 -96 18t-75.5 51t-49.5 79t-18 102q0 55 18 100.5t49.5 78.5t75.5 51t96 18q51 0 93.5 -17t74.5 -48q21 -8 37 -8
q26 0 32.5 16.5t6.5 48.5v50zM292 40q40 0 73 15t57 41.5t37 63t13 80.5q0 43 -13 79.5t-37 62.5t-57 41t-73 15t-73 -15t-57 -41t-37 -62.5t-13 -79.5q0 -44 13 -80.5t37 -63t57 -41.5t73 -15z" />
    <glyph glyph-name="uni1EDC" unicode="&#x1edc;" horiz-adv-x="787" 
d="M419 716h-51l-92 124h64zM728 692h45v-55q0 -49 -21 -72t-55 -23q-10 0 -15 1q25 -42 38.5 -92t13.5 -108q0 -79 -25 -144t-70 -111.5t-108 -72.5t-138 -26t-138 26t-108 72.5t-70 111.5t-25 144t25 144t70 111.5t108 72.5t138 26q81 0 146.5 -29t110.5 -82q21 -9 39 -9
q26 0 32.5 16.5t6.5 48.5v50zM393 46q62 0 113.5 21.5t88.5 60.5t57 94t20 121t-20 121t-57 94t-88.5 60.5t-113.5 21.5t-113.5 -21.5t-88 -60.5t-57 -94t-20.5 -121t20.5 -121t57 -94t88 -60.5t113.5 -21.5z" />
    <glyph glyph-name="uni1EDD" unicode="&#x1edd;" horiz-adv-x="585" 
d="M324 540h-51l-108 146h65zM536 530h45v-55q0 -49 -21 -72t-55 -23q-7 0 -10 1q37 -60 37 -141q0 -56 -18 -102t-49.5 -79t-75.5 -51t-97 -18q-52 0 -96 18t-75.5 51t-49.5 79t-18 102q0 55 18 100.5t49.5 78.5t75.5 51t96 18q51 0 93.5 -17t74.5 -48q21 -8 37 -8
q26 0 32.5 16.5t6.5 48.5v50zM292 40q40 0 73 15t57 41.5t37 63t13 80.5q0 43 -13 79.5t-37 62.5t-57 41t-73 15t-73 -15t-57 -41t-37 -62.5t-13 -79.5q0 -44 13 -80.5t37 -63t57 -41.5t73 -15z" />
    <glyph glyph-name="uni1EDE" unicode="&#x1ede;" horiz-adv-x="787" 
d="M394 869q-15 0 -29.5 -5t-34.5 -18l-18 28q23 14 42.5 20.5t43.5 6.5q45 0 71.5 -20t26.5 -54q0 -31 -22 -49t-60 -27v-35h-41v54q42 7 61.5 21t19.5 34t-16 32t-44 12zM728 692h45v-55q0 -49 -21 -72t-55 -23q-10 0 -15 1q25 -42 38.5 -92t13.5 -108q0 -79 -25 -144
t-70 -111.5t-108 -72.5t-138 -26t-138 26t-108 72.5t-70 111.5t-25 144t25 144t70 111.5t108 72.5t138 26q81 0 146.5 -29t110.5 -82q21 -9 39 -9q26 0 32.5 16.5t6.5 48.5v50zM393 46q62 0 113.5 21.5t88.5 60.5t57 94t20 121t-20 121t-57 94t-88.5 60.5t-113.5 21.5
t-113.5 -21.5t-88 -60.5t-57 -94t-20.5 -121t20.5 -121t57 -94t88 -60.5t113.5 -21.5z" />
    <glyph glyph-name="uni1EDF" unicode="&#x1edf;" horiz-adv-x="585" 
d="M291 669q-16 0 -31 -5t-36 -18l-18 31q25 14 46 20.5t45 6.5q47 0 73.5 -20.5t26.5 -54.5q0 -30 -21.5 -48t-59.5 -27v-36h-47v52q43 7 62 21t19 34t-15.5 32t-43.5 12zM536 530h45v-55q0 -49 -21 -72t-55 -23q-7 0 -10 1q37 -60 37 -141q0 -56 -18 -102t-49.5 -79
t-75.5 -51t-97 -18q-52 0 -96 18t-75.5 51t-49.5 79t-18 102q0 55 18 100.5t49.5 78.5t75.5 51t96 18q51 0 93.5 -17t74.5 -48q21 -8 37 -8q26 0 32.5 16.5t6.5 48.5v50zM292 40q40 0 73 15t57 41.5t37 63t13 80.5q0 43 -13 79.5t-37 62.5t-57 41t-73 15t-73 -15t-57 -41
t-37 -62.5t-13 -79.5q0 -44 13 -80.5t37 -63t57 -41.5t73 -15z" />
    <glyph glyph-name="uni1EE0" unicode="&#x1ee0;" horiz-adv-x="787" 
d="M320 803q-26 0 -41 -21.5t-15 -56.5h-35q0 51 25.5 84t67.5 33q35 0 53.5 -16.5t32.5 -33.5q11 -15 23.5 -26.5t35.5 -11.5q25 0 39.5 22t14.5 57h36q0 -51 -25.5 -84t-67.5 -33q-35 0 -53 16t-31 33q-12 16 -24.5 27t-35.5 11zM728 692h45v-55q0 -49 -21 -72t-55 -23
q-10 0 -15 1q25 -42 38.5 -92t13.5 -108q0 -79 -25 -144t-70 -111.5t-108 -72.5t-138 -26t-138 26t-108 72.5t-70 111.5t-25 144t25 144t70 111.5t108 72.5t138 26q81 0 146.5 -29t110.5 -82q21 -9 39 -9q26 0 32.5 16.5t6.5 48.5v50zM393 46q62 0 113.5 21.5t88.5 60.5
t57 94t20 121t-20 121t-57 94t-88.5 60.5t-113.5 21.5t-113.5 -21.5t-88 -60.5t-57 -94t-20.5 -121t20.5 -121t57 -94t88 -60.5t113.5 -21.5z" />
    <glyph glyph-name="uni1EE1" unicode="&#x1ee1;" horiz-adv-x="585" 
d="M220 625q-26 0 -41 -21.5t-15 -56.5h-35q0 51 25.5 84t67.5 33q35 0 53.5 -16.5t32.5 -33.5q11 -15 23.5 -26.5t35.5 -11.5q25 0 39.5 22t14.5 57h36q0 -51 -25.5 -84t-67.5 -33q-35 0 -53 16t-31 33q-12 16 -24.5 27t-35.5 11zM536 530h45v-55q0 -49 -21 -72t-55 -23
q-7 0 -10 1q37 -60 37 -141q0 -56 -18 -102t-49.5 -79t-75.5 -51t-97 -18q-52 0 -96 18t-75.5 51t-49.5 79t-18 102q0 55 18 100.5t49.5 78.5t75.5 51t96 18q51 0 93.5 -17t74.5 -48q21 -8 37 -8q26 0 32.5 16.5t6.5 48.5v50zM292 40q40 0 73 15t57 41.5t37 63t13 80.5
q0 43 -13 79.5t-37 62.5t-57 41t-73 15t-73 -15t-57 -41t-37 -62.5t-13 -79.5q0 -44 13 -80.5t37 -63t57 -41.5t73 -15z" />
    <glyph glyph-name="uni1EE2" unicode="&#x1ee2;" horiz-adv-x="787" 
d="M728 692h45v-55q0 -49 -21 -72t-55 -23q-10 0 -15 1q25 -42 38.5 -92t13.5 -108q0 -79 -25 -144t-70 -111.5t-108 -72.5t-138 -26t-138 26t-108 72.5t-70 111.5t-25 144t25 144t70 111.5t108 72.5t138 26q81 0 146.5 -29t110.5 -82q21 -9 39 -9q26 0 32.5 16.5t6.5 48.5
v50zM393 46q62 0 113.5 21.5t88.5 60.5t57 94t20 121t-20 121t-57 94t-88.5 60.5t-113.5 21.5t-113.5 -21.5t-88 -60.5t-57 -94t-20.5 -121t20.5 -121t57 -94t88 -60.5t113.5 -21.5zM394 -73q19 0 32.5 -13.5t13.5 -32.5q0 -20 -13.5 -33.5t-32.5 -13.5q-20 0 -33.5 13.5
t-13.5 33.5q0 19 13.5 32.5t33.5 13.5z" />
    <glyph glyph-name="uni1EE3" unicode="&#x1ee3;" horiz-adv-x="585" 
d="M536 530h45v-55q0 -49 -21 -72t-55 -23q-7 0 -10 1q37 -60 37 -141q0 -56 -18 -102t-49.5 -79t-75.5 -51t-97 -18q-52 0 -96 18t-75.5 51t-49.5 79t-18 102q0 55 18 100.5t49.5 78.5t75.5 51t96 18q51 0 93.5 -17t74.5 -48q21 -8 37 -8q26 0 32.5 16.5t6.5 48.5v50z
M292 40q40 0 73 15t57 41.5t37 63t13 80.5q0 43 -13 79.5t-37 62.5t-57 41t-73 15t-73 -15t-57 -41t-37 -62.5t-13 -79.5q0 -44 13 -80.5t37 -63t57 -41.5t73 -15zM293 -73q19 0 32.5 -13.5t13.5 -32.5q0 -20 -13.5 -33.5t-32.5 -13.5q-20 0 -33.5 13.5t-13.5 33.5
q0 19 13.5 32.5t33.5 13.5z" />
    <glyph glyph-name="uni1EE4" unicode="&#x1ee4;" horiz-adv-x="655" 
d="M328 -11q-55 0 -101.5 16.5t-80.5 48t-52.5 77t-18.5 102.5v453h61v-447q0 -45 14 -81t39.5 -61t60.5 -38t78 -13q42 0 77.5 13t60.5 38t39 61t14 81v447h62v-453q0 -57 -19 -102.5t-52.5 -77t-80 -48t-101.5 -16.5zM328 -166q-20 0 -33.5 13.5t-13.5 33.5
q0 19 13.5 32.5t33.5 13.5q19 0 32.5 -13.5t13.5 -32.5q0 -20 -13.5 -33.5t-32.5 -13.5z" />
    <glyph glyph-name="uni1EE5" unicode="&#x1ee5;" horiz-adv-x="530" 
d="M394 478h60v-478h-60v72q-23 -38 -61.5 -60t-89.5 -22q-84 0 -129 46t-45 128v314h60v-305q0 -66 34 -99.5t94 -33.5t98.5 40.5t38.5 116.5v281zM265 -73q19 0 32.5 -13.5t13.5 -32.5q0 -20 -13.5 -33.5t-32.5 -13.5q-20 0 -33.5 13.5t-13.5 33.5q0 19 13.5 32.5
t33.5 13.5z" />
    <glyph glyph-name="uni1EE6" unicode="&#x1ee6;" horiz-adv-x="655" 
d="M307 716v54q42 7 61.5 21t19.5 34t-16 32t-44 12q-15 0 -29.5 -5t-34.5 -18l-18 28q23 14 42.5 20.5t43.5 6.5q45 0 71.5 -20t26.5 -54q0 -31 -22 -49t-60 -27v-35h-41zM328 -11q-55 0 -101.5 16.5t-80.5 48t-52.5 77t-18.5 102.5v453h61v-447q0 -45 14 -81t39.5 -61
t60.5 -38t78 -13q42 0 77.5 13t60.5 38t39 61t14 81v447h62v-453q0 -57 -19 -102.5t-52.5 -77t-80 -48t-101.5 -16.5z" />
    <glyph glyph-name="uni1EE7" unicode="&#x1ee7;" horiz-adv-x="530" 
d="M260 669q-16 0 -31 -5t-36 -18l-18 31q25 14 46 20.5t45 6.5q47 0 73.5 -20.5t26.5 -54.5q0 -30 -21.5 -48t-59.5 -27v-36h-47v52q43 7 62 21t19 34t-15.5 32t-43.5 12zM394 478h60v-478h-60v72q-23 -38 -61.5 -60t-89.5 -22q-84 0 -129 46t-45 128v314h60v-305
q0 -66 34 -99.5t94 -33.5t98.5 40.5t38.5 116.5v281z" />
    <glyph glyph-name="uni1EE8" unicode="&#x1ee8;" horiz-adv-x="655" 
d="M445 840l-92 -124h-51l79 124h64zM668 750h45v-55q0 -49 -21 -72t-55 -23q-26 0 -56 14v-381q0 -57 -19 -102.5t-52.5 -77t-80 -48t-101.5 -16.5t-101.5 16.5t-80.5 48t-52.5 77t-18.5 102.5v453h61v-447q0 -45 14 -81t39.5 -61t60.5 -38t78 -13q42 0 77.5 13t60.5 38
t39 61t14 81v447h62v-37q26 -14 48 -14q26 0 32.5 16.5t6.5 48.5v50z" />
    <glyph glyph-name="uni1EE9" unicode="&#x1ee9;" horiz-adv-x="530" 
d="M390 686l-108 -146h-51l93 146h66zM537 542h45v-55q0 -49 -21 -72t-55 -23q-25 0 -52 12v-404h-60v72q-23 -38 -61.5 -60t-89.5 -22q-84 0 -129 46t-45 128v314h60v-305q0 -66 34 -99.5t94 -33.5t98.5 40.5t38.5 116.5v281h60v-39q24 -12 44 -12q26 0 32.5 16.5t6.5 48.5
v50z" />
    <glyph glyph-name="uni1EEA" unicode="&#x1eea;" horiz-adv-x="655" 
d="M353 716h-51l-92 124h64zM668 750h45v-55q0 -49 -21 -72t-55 -23q-26 0 -56 14v-381q0 -57 -19 -102.5t-52.5 -77t-80 -48t-101.5 -16.5t-101.5 16.5t-80.5 48t-52.5 77t-18.5 102.5v453h61v-447q0 -45 14 -81t39.5 -61t60.5 -38t78 -13q42 0 77.5 13t60.5 38t39 61
t14 81v447h62v-37q26 -14 48 -14q26 0 32.5 16.5t6.5 48.5v50z" />
    <glyph glyph-name="uni1EEB" unicode="&#x1eeb;" horiz-adv-x="530" 
d="M294 540h-51l-108 146h65zM537 542h45v-55q0 -49 -21 -72t-55 -23q-25 0 -52 12v-404h-60v72q-23 -38 -61.5 -60t-89.5 -22q-84 0 -129 46t-45 128v314h60v-305q0 -66 34 -99.5t94 -33.5t98.5 40.5t38.5 116.5v281h60v-39q24 -12 44 -12q26 0 32.5 16.5t6.5 48.5v50z" />
    <glyph glyph-name="uni1EEC" unicode="&#x1eec;" horiz-adv-x="655" 
d="M328 869q-15 0 -29.5 -5t-34.5 -18l-18 28q23 14 42.5 20.5t43.5 6.5q45 0 71.5 -20t26.5 -54q0 -31 -22 -49t-60 -27v-35h-41v54q42 7 61.5 21t19.5 34t-16 32t-44 12zM668 750h45v-55q0 -49 -21 -72t-55 -23q-26 0 -56 14v-381q0 -57 -19 -102.5t-52.5 -77t-80 -48
t-101.5 -16.5t-101.5 16.5t-80.5 48t-52.5 77t-18.5 102.5v453h61v-447q0 -45 14 -81t39.5 -61t60.5 -38t78 -13q42 0 77.5 13t60.5 38t39 61t14 81v447h62v-37q26 -14 48 -14q26 0 32.5 16.5t6.5 48.5v50z" />
    <glyph glyph-name="uni1EED" unicode="&#x1eed;" horiz-adv-x="530" 
d="M260 669q-16 0 -31 -5t-36 -18l-18 31q25 14 46 20.5t45 6.5q47 0 73.5 -20.5t26.5 -54.5q0 -30 -21.5 -48t-59.5 -27v-36h-47v52q43 7 62 21t19 34t-15.5 32t-43.5 12zM537 542h45v-55q0 -49 -21 -72t-55 -23q-25 0 -52 12v-404h-60v72q-23 -38 -61.5 -60t-89.5 -22
q-84 0 -129 46t-45 128v314h60v-305q0 -66 34 -99.5t94 -33.5t98.5 40.5t38.5 116.5v281h60v-39q24 -12 44 -12q26 0 32.5 16.5t6.5 48.5v50z" />
    <glyph glyph-name="uni1EEE" unicode="&#x1eee;" horiz-adv-x="655" 
d="M254 803q-26 0 -41 -21.5t-15 -56.5h-35q0 51 25.5 84t67.5 33q35 0 53.5 -16.5t32.5 -33.5q11 -15 23.5 -26.5t35.5 -11.5q25 0 39.5 22t14.5 57h36q0 -51 -25.5 -84t-67.5 -33q-35 0 -53 16t-31 33q-12 16 -24.5 27t-35.5 11zM668 750h45v-55q0 -49 -21 -72t-55 -23
q-26 0 -56 14v-381q0 -57 -19 -102.5t-52.5 -77t-80 -48t-101.5 -16.5t-101.5 16.5t-80.5 48t-52.5 77t-18.5 102.5v453h61v-447q0 -45 14 -81t39.5 -61t60.5 -38t78 -13q42 0 77.5 13t60.5 38t39 61t14 81v447h62v-37q26 -14 48 -14q26 0 32.5 16.5t6.5 48.5v50z" />
    <glyph glyph-name="uni1EEF" unicode="&#x1eef;" horiz-adv-x="530" 
d="M189 625q-26 0 -41 -21.5t-15 -56.5h-35q0 51 25.5 84t67.5 33q35 0 53.5 -16.5t32.5 -33.5q11 -15 23.5 -26.5t35.5 -11.5q25 0 39.5 22t14.5 57h36q0 -51 -25.5 -84t-67.5 -33q-35 0 -53 16t-31 33q-12 16 -24.5 27t-35.5 11zM537 542h45v-55q0 -49 -21 -72t-55 -23
q-25 0 -52 12v-404h-60v72q-23 -38 -61.5 -60t-89.5 -22q-84 0 -129 46t-45 128v314h60v-305q0 -66 34 -99.5t94 -33.5t98.5 40.5t38.5 116.5v281h60v-39q24 -12 44 -12q26 0 32.5 16.5t6.5 48.5v50z" />
    <glyph glyph-name="uni1EF0" unicode="&#x1ef0;" horiz-adv-x="655" 
d="M668 750h45v-55q0 -49 -21 -72t-55 -23q-26 0 -56 14v-381q0 -57 -19 -102.5t-52.5 -77t-80 -48t-101.5 -16.5t-101.5 16.5t-80.5 48t-52.5 77t-18.5 102.5v453h61v-447q0 -45 14 -81t39.5 -61t60.5 -38t78 -13q42 0 77.5 13t60.5 38t39 61t14 81v447h62v-37
q26 -14 48 -14q26 0 32.5 16.5t6.5 48.5v50zM328 -73q19 0 32.5 -13.5t13.5 -32.5q0 -20 -13.5 -33.5t-32.5 -13.5q-20 0 -33.5 13.5t-13.5 33.5q0 19 13.5 32.5t33.5 13.5z" />
    <glyph glyph-name="uni1EF1" unicode="&#x1ef1;" horiz-adv-x="530" 
d="M537 542h45v-55q0 -49 -21 -72t-55 -23q-25 0 -52 12v-404h-60v72q-23 -38 -61.5 -60t-89.5 -22q-84 0 -129 46t-45 128v314h60v-305q0 -66 34 -99.5t94 -33.5t98.5 40.5t38.5 116.5v281h60v-39q24 -12 44 -12q26 0 32.5 16.5t6.5 48.5v50zM265 -73q19 0 32.5 -13.5
t13.5 -32.5q0 -20 -13.5 -33.5t-32.5 -13.5q-20 0 -33.5 13.5t-13.5 33.5q0 19 13.5 32.5t33.5 13.5z" />
    <glyph glyph-name="Ygrave" unicode="&#x1ef2;" horiz-adv-x="568" 
d="M309 716h-51l-92 124h64zM552 686l-237 -366v-320h-62v319l-238 367h68l201 -312l200 312h68z" />
    <glyph glyph-name="ygrave" unicode="&#x1ef3;" horiz-adv-x="513" 
d="M290 540h-51l-108 146h65zM420 478h64l-300 -721h-65l107 252l-197 469h64l163 -408z" />
    <glyph glyph-name="uni1EF4" unicode="&#x1ef4;" horiz-adv-x="568" 
d="M253 0v319l-238 367h68l201 -312l200 312h68l-237 -366v-320h-62zM285 -73q19 0 32.5 -13.5t13.5 -32.5q0 -20 -13.5 -33.5t-32.5 -13.5q-20 0 -33.5 13.5t-13.5 33.5q0 19 13.5 32.5t33.5 13.5z" />
    <glyph glyph-name="uni1EF5" unicode="&#x1ef5;" horiz-adv-x="513" 
d="M420 478h64l-300 -721h-65l107 252l-197 469h64l163 -408zM418 -73q19 0 32.5 -13.5t13.5 -32.5q0 -20 -13.5 -33.5t-32.5 -13.5q-20 0 -33.5 13.5t-13.5 33.5q0 19 13.5 32.5t33.5 13.5z" />
    <glyph glyph-name="uni1EF6" unicode="&#x1ef6;" horiz-adv-x="568" 
d="M284 869q-15 0 -29.5 -5t-34.5 -18l-18 28q23 14 42.5 20.5t43.5 6.5q45 0 71.5 -20t26.5 -54q0 -31 -22 -49t-60 -27v-35h-41v54q42 7 61.5 21t19.5 34t-16 32t-44 12zM552 686l-237 -366v-320h-62v319l-238 367h68l201 -312l200 312h68z" />
    <glyph glyph-name="uni1EF7" unicode="&#x1ef7;" horiz-adv-x="513" 
d="M256 669q-16 0 -31 -5t-36 -18l-18 31q25 14 46 20.5t45 6.5q47 0 73.5 -20.5t26.5 -54.5q0 -30 -21.5 -48t-59.5 -27v-36h-47v52q43 7 62 21t19 34t-15.5 32t-43.5 12zM420 478h64l-300 -721h-65l107 252l-197 469h64l163 -408z" />
    <glyph glyph-name="uni1EF8" unicode="&#x1ef8;" horiz-adv-x="568" 
d="M211 803q-26 0 -41 -21.5t-15 -56.5h-35q0 51 25.5 84t67.5 33q35 0 53.5 -16.5t32.5 -33.5q11 -15 23.5 -26.5t35.5 -11.5q25 0 39.5 22t14.5 57h36q0 -51 -25.5 -84t-67.5 -33q-35 0 -53 16t-31 33q-12 16 -24.5 27t-35.5 11zM552 686l-237 -366v-320h-62v319l-238 367
h68l201 -312l200 312h68z" />
    <glyph glyph-name="uni1EF9" unicode="&#x1ef9;" horiz-adv-x="513" 
d="M185 625q-26 0 -41 -21.5t-15 -56.5h-35q0 51 25.5 84t67.5 33q35 0 53.5 -16.5t32.5 -33.5q11 -15 23.5 -26.5t35.5 -11.5q25 0 39.5 22t14.5 57h36q0 -51 -25.5 -84t-67.5 -33q-35 0 -53 16t-31 33q-12 16 -24.5 27t-35.5 11zM420 478h64l-300 -721h-65l107 252
l-197 469h64l163 -408z" />
    <glyph glyph-name="endash" unicode="&#x2013;" horiz-adv-x="500" 
d="M0 216v48h500v-48h-500z" />
    <glyph glyph-name="emdash" unicode="&#x2014;" horiz-adv-x="1000" 
d="M0 216v48h1000v-48h-1000z" />
    <glyph glyph-name="quoteleft" unicode="&#x2018;" horiz-adv-x="250" 
d="M63 384l74 302h46l-60 -302h-60z" />
    <glyph glyph-name="quoteright" unicode="&#x2019;" horiz-adv-x="250" 
d="M67 384l59 302h61l-74 -302h-46z" />
    <glyph glyph-name="quotesinglbase" unicode="&#x201a;" horiz-adv-x="282" 
d="M82 -176l60 302h61l-74 -302h-47z" />
    <glyph glyph-name="quotedblleft" unicode="&#x201c;" horiz-adv-x="437" 
d="M63 384l74 302h46l-60 -302h-60zM251 384l73 302h47l-60 -302h-60z" />
    <glyph glyph-name="quotedblright" unicode="&#x201d;" horiz-adv-x="437" 
d="M67 384l59 302h61l-74 -302h-46zM254 384l60 302h61l-74 -302h-47z" />
    <glyph glyph-name="quotedblbase" unicode="&#x201e;" horiz-adv-x="468" 
d="M82 -176l60 302h61l-74 -302h-47zM269 -176l59 302h61l-74 -302h-46z" />
    <glyph glyph-name="dagger" unicode="&#x2020;" horiz-adv-x="487" 
d="M444 488v-43h-171v-599h-59v599h-171v43h171v198h59v-198h171z" />
    <glyph glyph-name="daggerdbl" unicode="&#x2021;" horiz-adv-x="515" 
d="M458 445h-171v-356h171v-42h-171v-201h-59v201h-171v42h171v356h-171v43h171v198h59v-198h171v-43z" />
    <glyph glyph-name="bullet" unicode="&#x2022;" horiz-adv-x="486" 
d="M243 76q-33 0 -62.5 12.5t-52 34t-36 51.5t-13.5 65q0 33 13.5 63t36 52.5t52 35.5t62.5 13t62.5 -13t52 -35.5t36 -52.5t13.5 -63q0 -35 -13.5 -65t-36 -51.5t-52 -34t-62.5 -12.5z" />
    <glyph glyph-name="ellipsis" unicode="&#x2026;" horiz-adv-x="785" 
d="M147 -10q-19 0 -33 13.5t-14 33.5q0 19 14 32.5t33 13.5t33 -13.5t14 -32.5q0 -20 -14 -33.5t-33 -13.5zM395 -10q-19 0 -32.5 13.5t-13.5 33.5q0 19 13.5 32.5t32.5 13.5t33 -13.5t14 -32.5q0 -20 -14 -33.5t-33 -13.5zM638 -10q-19 0 -33 13.5t-14 33.5q0 19 14 32.5
t33 13.5t33 -13.5t14 -32.5q0 -20 -14 -33.5t-33 -13.5z" />
    <glyph glyph-name="perthousand" unicode="&#x2030;" horiz-adv-x="1033" 
d="M194 416q-29 0 -54.5 11t-44 30t-29.5 44.5t-11 54.5t11 54.5t30 44.5t44.5 30t53.5 11q29 0 54.5 -11t44 -30t29.5 -44.5t11 -54.5t-11 -54.5t-29.5 -44.5t-44 -30t-54.5 -11zM143 0l364 686h54l-365 -686h-53zM194 460q40 0 67.5 27.5t27.5 68.5q0 40 -28 68t-67 28
t-67 -27.5t-28 -68.5t28 -68.5t67 -27.5zM517 -10q-29 0 -55 11t-45 30t-30 45t-11 55t11 54.5t30 44.5t45 30t55 11q28 0 53 -11t44 -30t30 -44.5t11 -54.5t-11 -54.5t-29.5 -45t-43.5 -30.5t-54 -11zM841 -10q-29 0 -55 11t-45 30t-30 45t-11 55t11 54.5t30 44.5t45 30
t55 11t54 -11t43.5 -30t29.5 -44.5t11 -54.5t-11 -54.5t-29.5 -45t-43.5 -30.5t-54 -11zM517 35q39 0 67 28t28 68q0 20 -7.5 37.5t-20.5 30.5t-30.5 20.5t-36.5 7.5q-41 0 -69 -28t-28 -68t28 -68t69 -28zM841 35q39 0 67 28t28 68q0 20 -7.5 37.5t-20.5 30.5t-30.5 20.5
t-36.5 7.5q-41 0 -69 -28t-28 -68t28 -68t69 -28z" />
    <glyph glyph-name="guilsinglleft" unicode="&#x2039;" horiz-adv-x="276" 
d="M185 56l-152 184l152 184h54l-152 -184l152 -184h-54z" />
    <glyph glyph-name="guilsinglright" unicode="&#x203a;" horiz-adv-x="276" 
d="M91 56h-54l152 184l-152 184h54l152 -184z" />
    <glyph glyph-name="fraction" unicode="&#x2044;" horiz-adv-x="157" 
d="M-134 0l387 686h38l-388 -686h-37z" />
    <glyph glyph-name="uni2070" unicode="&#x2070;" horiz-adv-x="348" 
d="M174 388q-66 0 -100 53t-34 159q0 212 134 212q133 0 133 -212q0 -106 -34 -159t-99 -53zM174 420q97 0 97 180q0 92 -24.5 136t-72.5 44t-73 -44t-25 -136q0 -91 25 -135.5t73 -44.5z" />
    <glyph glyph-name="uni2074" unicode="&#x2074;" horiz-adv-x="321" 
d="M298 522v-33h-51v-95h-35v95h-210v33l195 284h50v-284h51zM40 522h172v255z" />
    <glyph glyph-name="uni2075" unicode="&#x2075;" horiz-adv-x="339" 
d="M152 653q81 0 120 -31.5t39 -98.5q0 -61 -37 -98t-97 -37q-65 0 -102.5 34.5t-37.5 95.5q0 5 0.5 8.5t0.5 7.5h36q-1 -5 -1 -13q0 -48 27 -74.5t78 -26.5q45 0 71 28t26 73q0 57 -34 79t-98 22h-90l25 184h215v-33h-184l-17 -120h60z" />
    <glyph glyph-name="uni2076" unicode="&#x2076;" horiz-adv-x="319" 
d="M164 671q29 0 53.5 -10.5t42.5 -29.5t28.5 -44.5t10.5 -55.5t-11 -56.5t-29.5 -45.5t-44.5 -30t-56 -11t-56 11t-44.5 30.5t-29 45.5t-10.5 56q0 56 37 101l148 174h44l-119 -140q20 5 36 5zM157 420q48 0 77.5 32t29.5 79q0 48 -29 80t-77 32q-47 0 -76.5 -31.5
t-29.5 -79.5q-1 -47 28 -79.5t77 -32.5z" />
    <glyph glyph-name="uni2077" unicode="&#x2077;" horiz-adv-x="280" 
d="M1 806h281v-33l-216 -379h-41l218 379h-242v33z" />
    <glyph glyph-name="uni2078" unicode="&#x2078;" horiz-adv-x="338" 
d="M169 388q-58 0 -96 33t-38 87q0 38 21.5 66.5t56.5 40.5q-28 12 -45 36t-17 56q0 46 33.5 75.5t84.5 29.5t84 -30t33 -75q0 -32 -17 -56t-44 -36q35 -12 56 -40.5t21 -66.5q0 -54 -38 -87t-95 -33zM169 626q35 0 59.5 23t24.5 57t-24.5 56t-59.5 22q-36 0 -60 -22
t-24 -56t24 -57t60 -23zM169 420q43 0 70 25.5t27 65.5t-27 64.5t-70 24.5q-44 0 -71 -24.5t-27 -64.5t27.5 -65.5t70.5 -25.5z" />
    <glyph glyph-name="uni2079" unicode="&#x2079;" horiz-adv-x="319" 
d="M161 812q30 0 56 -11t44.5 -30.5t29 -45.5t10.5 -56q0 -56 -37 -101l-148 -174h-44l119 140q-20 -5 -36 -5q-29 0 -53.5 10.5t-42.5 29.5t-28.5 44.5t-10.5 55.5t11 56.5t29.5 45.5t44.5 30t56 11zM161 557q47 0 76.5 31.5t29.5 79.5q1 47 -28 79.5t-77 32.5t-77.5 -32
t-29.5 -79q0 -48 29 -80t77 -32z" />
    <glyph glyph-name="uni2080" unicode="&#x2080;" horiz-adv-x="348" 
d="M174 -167q-66 0 -100 53.5t-34 159.5q0 212 134 212q133 0 133 -212q0 -106 -34 -159.5t-99 -53.5zM174 -134q97 0 97 180q0 179 -97 179q-48 0 -73 -43.5t-25 -135.5q0 -91 25 -135.5t73 -44.5z" />
    <glyph glyph-name="uni2081" unicode="&#x2081;" horiz-adv-x="203" 
d="M103 251h35v-411h-35v369l-102 -83v42z" />
    <glyph glyph-name="uni2082" unicode="&#x2082;" horiz-adv-x="317" 
d="M72 -127h223v-33h-266v38l169 172q27 29 39 51t12 46q0 37 -23.5 58t-64.5 21q-48 0 -72.5 -24.5t-24.5 -70.5v-21l-36 4v20q0 59 34.5 91.5t96.5 32.5q57 0 91 -29.5t34 -80.5q0 -27 -12 -54.5t-48 -64.5z" />
    <glyph glyph-name="uni2083" unicode="&#x2083;" horiz-adv-x="331" 
d="M166 -167q-66 0 -103.5 36t-37.5 100h37q0 -48 26.5 -75.5t77.5 -27.5q43 0 70 25.5t27 65.5q0 45 -30 68.5t-78 23.5h-13v29h13q40 0 63 21.5t23 55.5q0 32 -22 51.5t-57 19.5q-38 0 -62 -24.5t-24 -64.5v-3l-36 4q0 55 33.5 87.5t87.5 32.5q51 0 82.5 -28.5t31.5 -72.5
q0 -35 -18.5 -58t-47.5 -33q40 -10 65 -37.5t25 -73.5q0 -54 -37 -88t-96 -34z" />
    <glyph glyph-name="uni2084" unicode="&#x2084;" horiz-adv-x="321" 
d="M298 -33v-32h-51v-95h-35v95h-210v32l195 284h50v-284h51zM39 -33h173v256z" />
    <glyph glyph-name="uni2085" unicode="&#x2085;" horiz-adv-x="339" 
d="M152 98q81 0 120 -31t39 -98q0 -61 -37 -98.5t-97 -37.5q-65 0 -102.5 34.5t-37.5 96.5q0 4 0.5 8t0.5 8h36q-1 -5 -1 -14q0 -48 27 -74t78 -26q45 0 71 28t26 73q0 56 -34 78.5t-98 22.5h-90l25 183h215v-32h-184l-18 -121h61z" />
    <glyph glyph-name="uni2086" unicode="&#x2086;" horiz-adv-x="319" 
d="M164 116q29 0 53.5 -10.5t42.5 -29.5t28.5 -44.5t10.5 -55.5t-11 -56t-29.5 -45.5t-44.5 -30.5t-56 -11t-56 11t-44.5 30.5t-29 46t-10.5 56.5q0 55 37 100l148 174h44l-120 -140q20 5 37 5zM157 -134q48 0 77.5 32t29.5 79t-29 79.5t-77 32.5q-47 0 -76.5 -32t-29.5 -79
q-1 -47 28 -79.5t77 -32.5z" />
    <glyph glyph-name="uni2087" unicode="&#x2087;" horiz-adv-x="280" 
d="M1 251h281v-32l-216 -379h-41l218 379h-242v32z" />
    <glyph glyph-name="uni2088" unicode="&#x2088;" horiz-adv-x="338" 
d="M169 -167q-58 0 -96 33t-38 87q0 39 21.5 67t56.5 41q-28 11 -45 35.5t-17 56.5q0 46 33.5 75.5t84.5 29.5t84 -30t33 -75q0 -32 -17 -56t-44 -36q35 -13 56 -41t21 -67q0 -53 -37.5 -86.5t-95.5 -33.5zM169 72q36 0 60 23t24 57t-24.5 56t-59.5 22q-36 0 -60 -22
t-24 -56q0 -35 24 -57.5t60 -22.5zM169 -134q43 0 70.5 25.5t27.5 65.5q0 39 -27.5 64t-70.5 25t-70.5 -25t-27.5 -64q0 -40 27.5 -65.5t70.5 -25.5z" />
    <glyph glyph-name="uni2089" unicode="&#x2089;" horiz-adv-x="319" 
d="M161 258q30 0 56 -11t44.5 -30.5t29 -45.5t10.5 -56q0 -56 -37 -101l-148 -174h-44l119 140q-20 -5 -36 -5q-29 0 -53.5 10.5t-42.5 29.5t-28.5 44.5t-10.5 55.5t11 56.5t29.5 45.5t44.5 30t56 11zM161 3q47 0 76.5 31.5t29.5 79.5q1 47 -28 79.5t-77 32.5t-77.5 -32.5
t-29.5 -78.5q0 -48 29 -80t77 -32z" />
    <glyph glyph-name="Euro" unicode="&#x20ac;" horiz-adv-x="748" 
d="M462 47q54 0 98 18.5t76 51.5l51 -35q-42 -43 -98.5 -67.5t-126.5 -24.5q-61 0 -114 18t-94 52t-69.5 82t-41.5 109h-77v38h71q-3 27 -3 55q0 27 3 52h-71v38h77q12 61 40.5 109.5t69.5 82.5t94.5 52t114.5 18q70 0 126.5 -24.5t98.5 -66.5l-51 -35q-32 34 -76 52t-98 18
q-98 0 -166 -54t-91 -152h269v-38h-276q-3 -25 -3 -52q0 -28 3 -55h276v-38h-269q23 -97 91 -150.5t166 -53.5z" />
    <glyph glyph-name="uni2113" unicode="&#x2113;" horiz-adv-x="525" 
d="M304 -10q-76 0 -119 46.5t-46 133.5l-73 -51l-20 33l91 64v277q0 99 40 151t109 52q62 0 94 -39.5t32 -105.5q0 -31 -10.5 -71.5t-35.5 -86t-66.5 -94.5t-104.5 -96v-17q0 -70 31.5 -108t87.5 -38q42 0 76.5 19.5t58.5 51.5l27 -30q-32 -46 -77 -68.5t-95 -22.5zM194 258
q52 41 86 83.5t53.5 81.5t27.5 72.5t8 57.5q0 48 -20.5 74t-58.5 26q-45 0 -71.5 -39.5t-24.5 -115.5v-240z" />
    <glyph glyph-name="uni2116" unicode="&#x2116;" horiz-adv-x="1286" 
d="M971 198q-51 0 -94 18.5t-74 51.5t-48.5 78.5t-17.5 100.5q0 54 17.5 100t48.5 79t74 51.5t94 18.5t94.5 -18.5t74.5 -51.5t48.5 -79t17.5 -100q0 -55 -17.5 -100.5t-48.5 -78.5t-74.5 -51.5t-94.5 -18.5zM601 77v609h61v-686h-79l-401 608v-608h-62v686h79zM971 644
q-39 0 -71 -14.5t-55 -40.5t-35.5 -62t-12.5 -80q0 -43 12.5 -79.5t35.5 -62.5t55 -40.5t71 -14.5t71 14.5t55 40.5t36 62.5t13 79.5q0 44 -13 80t-36 62t-55 40.5t-71 14.5zM745 82v43h451v-43h-451z" />
    <glyph glyph-name="trademark" unicode="&#x2122;" horiz-adv-x="646" 
d="M107 358v293h-89v35h216v-35h-89v-293h-38zM258 358l26 328h51l109 -257l109 257h50l25 -328h-38l-21 271l-114 -271h-23l-112 270l-23 -270h-39z" />
    <glyph glyph-name="estimated" unicode="&#x212e;" horiz-adv-x="975" 
d="M494 -9q-88 0 -166 30t-136 82t-91.5 122t-33.5 149q0 80 33.5 150.5t91.5 123t136 82.5t166 30q89 0 167 -30t136 -82.5t91.5 -123t33.5 -150.5v-10h-692q-6 0 -6 -4v-210q0 -11 9 -24q51 -52 118 -83t144 -31q84 0 154.5 34.5t121.5 93.5h61q-57 -68 -145.5 -108.5
t-192.5 -40.5zM761 385q4 0 4 7v210q0 7 -2.5 13.5t-7.5 11.5q-51 50 -117 80t-143 30q-76 0 -143 -31t-118 -82q-10 -12 -10 -26v-206q0 -7 6 -7h531z" />
    <glyph glyph-name="oneeighth" unicode="&#x215b;" horiz-adv-x="697" 
d="M103 274v370l-102 -84v42l102 84h35v-412h-35zM456 686h38l-387 -686h-38zM584 221q35 -13 56 -41t21 -67q0 -26 -10 -48t-28 -38t-42 -25t-53 -9q-58 0 -96 33t-38 87q0 39 21.5 67t56.5 41q-28 11 -45 35.5t-17 56.5q0 46 33.5 75.5t84.5 29.5t84 -30t33 -75
q0 -32 -17 -56t-44 -36zM444 312q0 -35 24 -57.5t60 -22.5q35 0 59.5 23t24.5 57t-24.5 56t-59.5 22q-36 0 -60 -22t-24 -56zM528 26q43 0 70 25.5t27 65.5q0 39 -27 64t-70 25q-44 0 -71 -25t-27 -64q0 -40 27.5 -65.5t70.5 -25.5z" />
    <glyph glyph-name="threeeighths" unicode="&#x215c;" horiz-adv-x="825" 
d="M166 268q-66 0 -103.5 35.5t-37.5 100.5h37q0 -48 26.5 -76t77.5 -28q43 0 70 25.5t27 65.5q0 46 -30 69t-78 23h-13v29h13q40 0 63 21.5t23 55.5q0 32 -22 51.5t-57 19.5q-38 0 -62 -24.5t-24 -64.5v-2l-36 4q0 54 33.5 86.5t87.5 32.5q51 0 82.5 -28.5t31.5 -71.5
q0 -35 -18.5 -58.5t-47.5 -33.5q40 -9 65 -36.5t25 -73.5q0 -54 -37 -88t-96 -34zM197 0l387 686h38l-387 -686h-38zM656 -7q-58 0 -96 33t-38 87q0 39 21.5 67t56.5 41q-28 11 -45 35.5t-17 56.5q0 46 33.5 75.5t84.5 29.5t84 -30t33 -75q0 -32 -17 -56t-44 -36
q35 -13 56 -41t21 -67q0 -26 -10 -48t-28 -38t-42 -25t-53 -9zM656 232q35 0 59.5 23t24.5 57t-24.5 56t-59.5 22q-36 0 -60 -22t-24 -56q0 -35 24 -57.5t60 -22.5zM656 26q43 0 70 25.5t27 65.5q0 39 -27 64t-70 25q-44 0 -71 -25t-27 -64q0 -40 27.5 -65.5t70.5 -25.5z
" />
    <glyph glyph-name="fiveeighths" unicode="&#x215d;" horiz-adv-x="833" 
d="M311 403q0 -61 -37 -98t-97 -37q-65 0 -102.5 34.5t-37.5 95.5q0 5 0.5 8.5t0.5 7.5h36q-1 -5 -1 -13q0 -48 27 -74.5t78 -26.5q45 0 71 28t26 73q0 57 -34 79t-98 22h-90l25 184h215v-33h-184l-17 -120h60q81 0 120 -31.5t39 -98.5zM592 686h38l-387 -686h-38zM721 221
q35 -13 56 -41t21 -67q0 -26 -10 -48t-28 -38t-42 -25t-53 -9q-58 0 -96 33t-38 87q0 39 21.5 67t56.5 41q-28 11 -45 35.5t-17 56.5q0 46 33.5 75.5t84.5 29.5t84 -30t33 -75q0 -32 -17 -56t-44 -36zM581 312q0 -35 24 -57.5t60 -22.5q35 0 59.5 23t24.5 57t-24.5 56
t-59.5 22q-36 0 -60 -22t-24 -56zM665 26q43 0 70 25.5t27 65.5q0 39 -27 64t-70 25q-44 0 -71 -25t-27 -64q0 -40 27.5 -65.5t70.5 -25.5z" />
    <glyph glyph-name="seveneighths" unicode="&#x215e;" horiz-adv-x="757" 
d="M282 686v-33l-216 -379h-41l218 379h-242v33h281zM515 686h38l-387 -686h-38zM644 221q35 -13 56 -41t21 -67q0 -26 -10 -48t-28 -38t-42 -25t-53 -9q-58 0 -96 33t-38 87q0 39 21.5 67t56.5 41q-28 11 -45 35.5t-17 56.5q0 46 33.5 75.5t84.5 29.5t84 -30t33 -75
q0 -32 -17 -56t-44 -36zM504 312q0 -35 24 -57.5t60 -22.5q35 0 59.5 23t24.5 57t-24.5 56t-59.5 22q-36 0 -60 -22t-24 -56zM588 26q43 0 70 25.5t27 65.5q0 39 -27 64t-70 25q-44 0 -71 -25t-27 -64q0 -40 27.5 -65.5t70.5 -25.5z" />
    <glyph glyph-name="arrowleft" unicode="&#x2190;" horiz-adv-x="687" 
d="M185 56l-152 184l152 184h54l-132 -160h580v-48h-580l132 -160h-54z" />
    <glyph glyph-name="arrowup" unicode="&#x2191;" horiz-adv-x="491" 
d="M245 686l184 -152v-54l-160 132v-612h-48v612l-160 -132v54z" />
    <glyph glyph-name="arrowright" unicode="&#x2192;" horiz-adv-x="688" 
d="M503 56h-55l132 160h-580v48h580l-132 160h55l152 -184z" />
    <glyph glyph-name="arrowdown" unicode="&#x2193;" horiz-adv-x="491" 
d="M245 0l-184 152v55l160 -133v612h48v-612l160 133v-55z" />
    <glyph glyph-name="arrowboth" unicode="&#x2194;" horiz-adv-x="983" 
d="M778 424l152 -184l-152 -184h-55l133 160h-729l132 -160h-54l-152 184l152 184h54l-132 -160h729l-133 160h55z" />
    <glyph glyph-name="arrowupdn" unicode="&#x2195;" horiz-adv-x="491" 
d="M245 0l-184 152v55l160 -133v538l-160 -133v55l184 152l184 -152v-55l-160 133v-538l160 133v-55z" />
    <glyph glyph-name="uni2196" unicode="&#x2196;" horiz-adv-x="660" 
d="M599 526v-526h-48v478h-432l132 -160h-55l-152 184l152 184h55l-132 -160h480z" />
    <glyph glyph-name="uni2197" unicode="&#x2197;" horiz-adv-x="660" 
d="M464 686l152 -184l-152 -184h-54l131 160h-431v-478h-48v526h479l-131 160h54z" />
    <glyph glyph-name="uni2198" unicode="&#x2198;" horiz-adv-x="660" 
d="M464 368l152 -184l-152 -184h-54l131 160h-479v526h48v-478h431l-131 160h54z" />
    <glyph glyph-name="uni2199" unicode="&#x2199;" horiz-adv-x="660" 
d="M551 686h48v-526h-480l132 -160h-55l-152 184l152 184h55l-132 -160h432v478z" />
    <glyph glyph-name="partialdiff" unicode="&#x2202;" horiz-adv-x="605" 
d="M486 407q25 -33 40.5 -74.5t15.5 -92.5q0 -56 -18 -102t-49.5 -79t-75.5 -51t-96 -18t-96.5 18t-76 51t-49.5 79t-18 102q0 55 18 100.5t50 78.5t76.5 51t96.5 18q35 0 62 -10l-204 272h69zM303 40q40 0 73 15t57 41.5t37 63t13 80.5q0 42 -13 78t-36.5 63t-56.5 42
t-74 15q-40 0 -73 -15t-57 -41t-37 -62.5t-13 -79.5q0 -44 13 -80.5t37 -63t57 -41.5t73 -15z" />
    <glyph glyph-name="emptyset" unicode="&#x2205;" horiz-adv-x="875" 
d="M805 682l-104 -104q42 -48 66 -107.5t24 -126.5q0 -73 -28 -137.5t-76 -112.5t-112 -76t-137 -28q-68 0 -127.5 24t-107.5 66l-105 -105l-28 28l105 105q-42 48 -66 108t-24 128q0 73 28 137t76 112t112 75.5t137 27.5q68 0 127.5 -24t107.5 -66l104 104zM137 344
q0 -57 20 -108t55 -91l424 424q-40 35 -90.5 55t-107.5 20q-62 0 -116.5 -23.5t-95.5 -64.5t-65 -95.5t-24 -116.5zM738 344q0 57 -19.5 107t-54.5 90l-424 -424q40 -35 90.5 -55t107.5 -20q62 0 116.5 24t95.5 65t64.5 96t23.5 117z" />
    <glyph glyph-name="product" unicode="&#x220f;" horiz-adv-x="736" 
d="M139 0v628h-97v58h652v-58h-97v-628h-58v628h-341v-628h-59z" />
    <glyph glyph-name="summation" unicode="&#x2211;" horiz-adv-x="681" 
d="M626 686v-54h-508l328 -289l-328 -289h508v-54h-566v80l294 263l-294 263v80h566z" />
    <glyph glyph-name="minus" unicode="&#x2212;" horiz-adv-x="558" 
d="M54 216v48h450v-48h-450z" />
    <glyph glyph-name="radical" unicode="&#x221a;" horiz-adv-x="778" 
d="M317 0l-165 426h-107v52h145l159 -413l330 685h58l-361 -750h-59z" />
    <glyph glyph-name="infinity" unicode="&#x221e;" horiz-adv-x="820" 
d="M232 98q-31 0 -56.5 11t-43.5 30t-28 45t-10 56t9.5 55.5t27.5 44t43.5 29.5t57.5 11q47 0 89.5 -27.5t88.5 -78.5q46 51 88.5 78.5t89.5 27.5q32 0 57.5 -11t43.5 -29.5t27.5 -44t9.5 -55.5t-9.5 -56t-27.5 -45t-43.5 -30t-57.5 -11q-45 0 -87.5 26.5t-90.5 77.5
q-48 -51 -90.5 -77.5t-87.5 -26.5zM231 146q38 0 73.5 25t73.5 69q-39 45 -75.5 68.5t-71.5 23.5q-44 0 -66.5 -27t-22.5 -65q0 -39 22.5 -66.5t66.5 -27.5zM589 146q43 0 66 27.5t23 66.5q0 38 -23 65t-66 27q-35 0 -71.5 -23.5t-75.5 -68.5q37 -44 73 -69t74 -25z" />
    <glyph glyph-name="integral" unicode="&#x222b;" horiz-adv-x="383" 
d="M38 -167v50h23q45 0 73 26.5t28 90.5v583q0 90 42.5 128.5t118.5 38.5h22v-50h-22q-45 0 -73 -26.5t-28 -90.5v-583q0 -90 -43 -128.5t-118 -38.5h-23z" />
    <glyph glyph-name="approxequal" unicode="&#x2248;" horiz-adv-x="598" 
d="M407 251q-24 0 -42.5 7.5t-34 19t-27.5 25t-22 25.5q-20 24 -39 39.5t-47 15.5q-43 0 -69.5 -34t-26.5 -89h-45q0 75 38 122t104 47q42 0 70 -22t53 -54q17 -22 36 -39.5t49 -17.5q42 0 69 33.5t27 89.5h45q0 -37 -10 -67.5t-28 -53t-43.5 -35t-56.5 -12.5zM407 49
q-24 0 -42.5 7.5t-34 19t-27.5 25t-22 25.5q-19 23 -37.5 39.5t-48.5 15.5q-44 0 -70 -34t-26 -89h-45q0 76 38.5 123t103.5 47q42 0 69.5 -22.5t53.5 -53.5q17 -22 36 -40t49 -18q42 0 69 33.5t27 89.5h45q0 -36 -10 -67t-28 -53.5t-43.5 -35t-56.5 -12.5z" />
    <glyph glyph-name="notequal" unicode="&#x2260;" horiz-adv-x="577" 
d="M86 -97l112 213h-144v48h168l79 151h-247v48h272l105 202h50l-105 -202h148v-48h-173l-79 -151h252v-48h-276l-112 -213h-50z" />
    <glyph glyph-name="lessequal" unicode="&#x2264;" horiz-adv-x="481" 
d="M428 548v-52l-329 -155l329 -156v-52l-374 181v54zM54 17v48h374v-48h-374z" />
    <glyph glyph-name="greaterequal" unicode="&#x2265;" horiz-adv-x="481" 
d="M54 548l374 -180v-54l-374 -181v52l328 156l-328 155v52zM54 17v48h374v-48h-374z" />
    <glyph glyph-name="lozenge" unicode="&#x25ca;" horiz-adv-x="632" 
d="M316 83l-271 271l271 271l271 -271zM316 153l201 201l-201 201l-201 -201z" />
    <glyph glyph-name="heart" unicode="&#x2665;" horiz-adv-x="773" 
d="M386 -10q-92 71 -156 128.5t-103.5 107t-57 94t-17.5 88.5q0 75 46 121t121 46q60 0 102.5 -33t58.5 -90h12q16 57 58.5 90t102.5 33q75 0 121 -46t46 -121q0 -44 -17.5 -88.5t-57 -94t-103.5 -107t-156 -128.5z" />
    <glyph glyph-name="uniF8FF" unicode="&#xf8ff;" horiz-adv-x="898" 
d="M449 0q-78 0 -147.5 30t-121 81.5t-81.5 121t-30 147.5q0 79 30 148t81.5 120.5t121 81.5t147.5 30q79 0 148 -30t120.5 -81.5t81.5 -120.5t30 -148q0 -78 -30 -147.5t-81.5 -121t-120.5 -81.5t-148 -30zM449 36q71 0 134 27t109.5 74t73.5 109.5t27 133.5t-27 134
t-73.5 109.5t-109.5 73.5t-134 27t-133.5 -27t-109.5 -73.5t-74 -109.5t-27 -134t27 -133.5t74 -109.5t109.5 -74t133.5 -27zM648 217q-5 0 -11 6l-145 144q-6 6 -6 13.5t5 12.5l145 145q13 13 25 0q5 -5 5 -13t-5 -13l-132 -132l132 -132q5 -5 5 -12t-5 -13q-4 -6 -13 -6z
M250 217q-8 0 -13 5t-5 13v290q0 8 5 13t13 5t13 -5t5 -13v-290q0 -8 -5 -13t-13 -5zM449 217q-8 0 -13 5t-5 13v290q0 8 5 13t13 5t13 -5t5 -13v-290q0 -8 -5 -13t-13 -5zM304 362q-8 0 -13 5t-5 13t5 13t13 5h91q8 0 13 -5t5 -13t-5 -13t-13 -5h-91z" />
    <glyph glyph-name="G.ss05" horiz-adv-x="782" 
d="M394 -11q-76 0 -139 26t-108 72.5t-70 111.5t-25 144t25 144t70 111.5t108 72.5t138 26q99 0 174 -43t119 -118l-54 -28q-35 64 -96.5 98.5t-142.5 34.5q-62 0 -113.5 -21t-88 -60t-57 -94t-20.5 -122t20 -122t57 -94.5t89.5 -61t117.5 -21.5q56 0 103 17.5t83 50t58 79
t27 104.5h-274v52h334v-36q-3 -76 -30 -136.5t-72 -101.5t-104.5 -63t-128.5 -22z" />
    <glyph glyph-name="Gbreve.ss05" horiz-adv-x="782" 
d="M395 723q-68 0 -110.5 27t-50.5 90h42q8 -43 38 -61.5t81 -18.5t81.5 18.5t38.5 61.5h42q-8 -63 -51 -90t-111 -27zM394 -11q-76 0 -139 26t-108 72.5t-70 111.5t-25 144t25 144t70 111.5t108 72.5t138 26q99 0 174 -43t119 -118l-54 -28q-35 64 -96.5 98.5t-142.5 34.5
q-62 0 -113.5 -21t-88 -60t-57 -94t-20.5 -122t20 -122t57 -94.5t89.5 -61t117.5 -21.5q56 0 103 17.5t83 50t58 79t27 104.5h-274v52h334v-36q-3 -76 -30 -136.5t-72 -101.5t-104.5 -63t-128.5 -22z" />
    <glyph glyph-name="Gdotaccent.ss05" horiz-adv-x="782" 
d="M396 739q-20 0 -33.5 13.5t-13.5 33.5t13.5 33t33.5 13q19 0 32.5 -13t13.5 -33t-13.5 -33.5t-32.5 -13.5zM394 -11q-76 0 -139 26t-108 72.5t-70 111.5t-25 144t25 144t70 111.5t108 72.5t138 26q99 0 174 -43t119 -118l-54 -28q-35 64 -96.5 98.5t-142.5 34.5
q-62 0 -113.5 -21t-88 -60t-57 -94t-20.5 -122t20 -122t57 -94.5t89.5 -61t117.5 -21.5q56 0 103 17.5t83 50t58 79t27 104.5h-274v52h334v-36q-3 -76 -30 -136.5t-72 -101.5t-104.5 -63t-128.5 -22z" />
    <glyph glyph-name="IJacute" horiz-adv-x="638" 
d="M88 716l79 124h64l-92 -124h-51zM504 716l79 124h64l-92 -124h-51zM83 0v686h61v-686h-61zM384 -11q-35 0 -71 10t-69 31l27 50q50 -33 106 -33q57 0 89 37.5t32 106.5v495h61v-504q0 -90 -48.5 -141.5t-126.5 -51.5z" />
    <glyph glyph-name="M.ss03" horiz-adv-x="823" 
d="M636 686h104v-686h-61v634h-3l-241 -634h-47l-241 634h-3v-634h-61v686h104l224 -585z" />
    <glyph glyph-name="Q.ss04" horiz-adv-x="787" 
d="M734 343q0 -82 -27 -148.5t-75 -114.5l74 -80l-57 -20l-61 65q-41 -27 -89.5 -41.5t-105.5 -14.5q-75 0 -138 26t-108 72.5t-70 111.5t-25 144t25 144.5t70 112t108 72t138 25.5t138 -25.5t108 -72t70 -112t25 -144.5zM114 343q0 -66 20.5 -121t57 -94t88 -60.5
t113.5 -21.5q90 0 158 45l-137 145l58 18l120 -130q38 40 59.5 95t21.5 124q0 66 -20.5 121t-57.5 94t-88.5 60.5t-113.5 21.5t-113.5 -21.5t-88 -60.5t-57 -94t-20.5 -121z" />
    <glyph glyph-name="a.ss02" horiz-adv-x="604" 
d="M469 478h59v-478h-59v105q-24 -54 -73 -84.5t-114 -30.5q-49 0 -91 18t-72.5 50.5t-48 78.5t-17.5 102t17.5 101.5t48 78.5t72.5 51t91 18q65 0 114 -30.5t73 -84.5v105zM292 42q39 0 71.5 14.5t56.5 40.5t37.5 62t13.5 80t-13.5 80.5t-37.5 62.5t-56.5 40.5t-71.5 14.5
t-72 -14.5t-57 -40.5t-37.5 -62.5t-13.5 -80.5t13.5 -80t37.5 -62t57 -40.5t72 -14.5z" />
    <glyph glyph-name="aacute.ss02" horiz-adv-x="604" 
d="M433 686l-108 -146h-51l93 146h66zM469 478h59v-478h-59v105q-24 -54 -73 -84.5t-114 -30.5q-49 0 -91 18t-72.5 50.5t-48 78.5t-17.5 102t17.5 101.5t48 78.5t72.5 51t91 18q65 0 114 -30.5t73 -84.5v105zM292 42q39 0 71.5 14.5t56.5 40.5t37.5 62t13.5 80t-13.5 80.5
t-37.5 62.5t-56.5 40.5t-71.5 14.5t-72 -14.5t-57 -40.5t-37.5 -62.5t-13.5 -80.5t13.5 -80t37.5 -62t57 -40.5t72 -14.5z" />
    <glyph glyph-name="abreve.ss02" horiz-adv-x="604" 
d="M304 530q-76 0 -120 39.5t-44 116.5h46q0 -56 30.5 -87.5t87.5 -31.5t88 31t31 88h46q0 -77 -44.5 -116.5t-120.5 -39.5zM469 478h59v-478h-59v105q-24 -54 -73 -84.5t-114 -30.5q-49 0 -91 18t-72.5 50.5t-48 78.5t-17.5 102t17.5 101.5t48 78.5t72.5 51t91 18
q65 0 114 -30.5t73 -84.5v105zM292 42q39 0 71.5 14.5t56.5 40.5t37.5 62t13.5 80t-13.5 80.5t-37.5 62.5t-56.5 40.5t-71.5 14.5t-72 -14.5t-57 -40.5t-37.5 -62.5t-13.5 -80.5t13.5 -80t37.5 -62t57 -40.5t72 -14.5z" />
    <glyph glyph-name="acircumflex.ss02" horiz-adv-x="604" 
d="M305 652l-82 -112h-48l96 146h68l96 -146h-48zM469 478h59v-478h-59v105q-24 -54 -73 -84.5t-114 -30.5q-49 0 -91 18t-72.5 50.5t-48 78.5t-17.5 102t17.5 101.5t48 78.5t72.5 51t91 18q65 0 114 -30.5t73 -84.5v105zM292 42q39 0 71.5 14.5t56.5 40.5t37.5 62t13.5 80
t-13.5 80.5t-37.5 62.5t-56.5 40.5t-71.5 14.5t-72 -14.5t-57 -40.5t-37.5 -62.5t-13.5 -80.5t13.5 -80t37.5 -62t57 -40.5t72 -14.5z" />
    <glyph glyph-name="acutecomb.case" 
d="M-226 716l79 124h64l-92 -124h-51z" />
    <glyph glyph-name="adieresis.ss02" horiz-adv-x="604" 
d="M224 611q-20 0 -33.5 13.5t-13.5 32.5q0 20 13.5 33.5t33.5 13.5q19 0 32.5 -13.5t13.5 -33.5q0 -19 -13.5 -32.5t-32.5 -13.5zM386 611q-20 0 -33.5 13.5t-13.5 32.5q0 20 13.5 33.5t33.5 13.5q19 0 32.5 -13.5t13.5 -33.5q0 -19 -13.5 -32.5t-32.5 -13.5zM469 478h59
v-478h-59v105q-24 -54 -73 -84.5t-114 -30.5q-49 0 -91 18t-72.5 50.5t-48 78.5t-17.5 102t17.5 101.5t48 78.5t72.5 51t91 18q65 0 114 -30.5t73 -84.5v105zM292 42q39 0 71.5 14.5t56.5 40.5t37.5 62t13.5 80t-13.5 80.5t-37.5 62.5t-56.5 40.5t-71.5 14.5t-72 -14.5
t-57 -40.5t-37.5 -62.5t-13.5 -80.5t13.5 -80t37.5 -62t57 -40.5t72 -14.5z" />
    <glyph glyph-name="agrave.ss02" horiz-adv-x="604" 
d="M337 540h-51l-108 146h65zM469 478h59v-478h-59v105q-24 -54 -73 -84.5t-114 -30.5q-49 0 -91 18t-72.5 50.5t-48 78.5t-17.5 102t17.5 101.5t48 78.5t72.5 51t91 18q65 0 114 -30.5t73 -84.5v105zM292 42q39 0 71.5 14.5t56.5 40.5t37.5 62t13.5 80t-13.5 80.5
t-37.5 62.5t-56.5 40.5t-71.5 14.5t-72 -14.5t-57 -40.5t-37.5 -62.5t-13.5 -80.5t13.5 -80t37.5 -62t57 -40.5t72 -14.5z" />
    <glyph glyph-name="amacron.ss02" horiz-adv-x="604" 
d="M418 626v-43h-225v43h225zM469 478h59v-478h-59v105q-24 -54 -73 -84.5t-114 -30.5q-49 0 -91 18t-72.5 50.5t-48 78.5t-17.5 102t17.5 101.5t48 78.5t72.5 51t91 18q65 0 114 -30.5t73 -84.5v105zM292 42q39 0 71.5 14.5t56.5 40.5t37.5 62t13.5 80t-13.5 80.5
t-37.5 62.5t-56.5 40.5t-71.5 14.5t-72 -14.5t-57 -40.5t-37.5 -62.5t-13.5 -80.5t13.5 -80t37.5 -62t57 -40.5t72 -14.5z" />
    <glyph glyph-name="aogonek.ss02" horiz-adv-x="604" 
d="M528 0q-48 -25 -79.5 -60.5t-31.5 -65.5q0 -19 17 -30t46 -11q24 0 48 9v-42q-28 -9 -58 -9q-42 0 -69 18t-27 51q0 35 30 72.5t76 67.5h-11v105q-24 -54 -73 -84.5t-114 -30.5q-49 0 -91 18t-72.5 50.5t-48 78.5t-17.5 102t17.5 101.5t48 78.5t72.5 51t91 18
q65 0 114 -30.5t73 -84.5v105h59v-478zM292 42q39 0 71.5 14.5t56.5 40.5t37.5 62t13.5 80t-13.5 80.5t-37.5 62.5t-56.5 40.5t-71.5 14.5t-72 -14.5t-57 -40.5t-37.5 -62.5t-13.5 -80.5t13.5 -80t37.5 -62t57 -40.5t72 -14.5z" />
    <glyph glyph-name="aring.ss02" horiz-adv-x="604" 
d="M305 544q-24 0 -44 8.5t-34.5 23.5t-23 35t-8.5 42q0 23 8 42.5t23 34.5t35 23.5t44 8.5t44 -8.5t34.5 -23.5t22.5 -34.5t8 -42.5q0 -22 -8.5 -42t-23 -35t-34.5 -23.5t-43 -8.5zM305 726q-31 0 -52.5 -20.5t-21.5 -52.5q0 -30 22 -51.5t52 -21.5t51.5 21.5t21.5 51.5
q0 32 -21.5 52.5t-51.5 20.5zM469 478h59v-478h-59v105q-24 -54 -73 -84.5t-114 -30.5q-49 0 -91 18t-72.5 50.5t-48 78.5t-17.5 102t17.5 101.5t48 78.5t72.5 51t91 18q65 0 114 -30.5t73 -84.5v105zM292 42q39 0 71.5 14.5t56.5 40.5t37.5 62t13.5 80t-13.5 80.5
t-37.5 62.5t-56.5 40.5t-71.5 14.5t-72 -14.5t-57 -40.5t-37.5 -62.5t-13.5 -80.5t13.5 -80t37.5 -62t57 -40.5t72 -14.5z" />
    <glyph glyph-name="aringacute.ss02" horiz-adv-x="604" 
d="M305 544q-24 0 -44 8.5t-34.5 23.5t-23 35t-8.5 42q0 23 8 42.5t23 34.5t35 23.5t44 8.5q22 0 43 -8l72 113h66l-102 -138q30 -32 30 -76q0 -22 -8.5 -42t-23 -35t-34.5 -23.5t-43 -8.5zM305 726q-31 0 -52.5 -20.5t-21.5 -52.5q0 -30 22 -51.5t52 -21.5t51.5 21.5
t21.5 51.5q0 24 -13 42t-33 26h-5l1 1q-9 4 -23 4zM469 478h59v-478h-59v105q-24 -54 -73 -84.5t-114 -30.5q-49 0 -91 18t-72.5 50.5t-48 78.5t-17.5 102t17.5 101.5t48 78.5t72.5 51t91 18q65 0 114 -30.5t73 -84.5v105zM292 42q39 0 71.5 14.5t56.5 40.5t37.5 62t13.5 80
t-13.5 80.5t-37.5 62.5t-56.5 40.5t-71.5 14.5t-72 -14.5t-57 -40.5t-37.5 -62.5t-13.5 -80.5t13.5 -80t37.5 -62t57 -40.5t72 -14.5z" />
    <glyph glyph-name="atilde.ss02" horiz-adv-x="604" 
d="M232 625q-26 0 -41 -21.5t-15 -56.5h-35q0 51 25.5 84t67.5 33q35 0 53.5 -16.5t32.5 -33.5q11 -15 23.5 -26.5t35.5 -11.5q25 0 39.5 22t14.5 57h36q0 -51 -25.5 -84t-67.5 -33q-35 0 -53 16t-31 33q-12 16 -24.5 27t-35.5 11zM469 478h59v-478h-59v105
q-24 -54 -73 -84.5t-114 -30.5q-49 0 -91 18t-72.5 50.5t-48 78.5t-17.5 102t17.5 101.5t48 78.5t72.5 51t91 18q65 0 114 -30.5t73 -84.5v105zM292 42q39 0 71.5 14.5t56.5 40.5t37.5 62t13.5 80t-13.5 80.5t-37.5 62.5t-56.5 40.5t-71.5 14.5t-72 -14.5t-57 -40.5
t-37.5 -62.5t-13.5 -80.5t13.5 -80t37.5 -62t57 -40.5t72 -14.5z" />
    <glyph glyph-name="braceleft.case" horiz-adv-x="286" 
d="M223 -173q-54 0 -86.5 35t-32.5 88v218q0 32 -2 57.5t-9.5 45t-21 31.5t-36.5 17v48q23 5 36.5 17t21 31t9.5 44.5t2 57.5v218q0 53 32.5 88t86.5 35h42v-47h-33q-31 0 -51 -21.5t-20 -59.5v-212q0 -29 -2.5 -56.5t-10 -50.5t-21.5 -41t-38 -27q24 -10 38 -28t21.5 -41
t10 -50.5t2.5 -56.5v-212q0 -38 20 -59.5t51 -21.5h33v-47h-42z" />
    <glyph glyph-name="braceright.case" horiz-adv-x="286" 
d="M21 -173v47h33q32 0 52 21.5t20 59.5v212q0 29 2 56.5t9.5 50.5t21.5 41t38 28q-23 9 -37 27t-21.5 41t-10 50.5t-2.5 56.5v212q0 38 -20 59.5t-52 21.5h-33v47h42q54 0 86.5 -35t32.5 -88v-218q0 -32 2 -57.5t9.5 -44.5t21 -31t36.5 -17v-48q-23 -5 -36.5 -17t-21 -31.5
t-9.5 -45t-2 -57.5v-218q0 -53 -32.5 -88t-86.5 -35h-42z" />
    <glyph glyph-name="bracketleft.case" horiz-adv-x="286" 
d="M75 -173v1031h199v-46h-145v-939h145v-46h-199z" />
    <glyph glyph-name="bracketright.case" horiz-adv-x="287" 
d="M211 -173h-198v46h144v939h-144v46h198v-1031z" />
    <glyph glyph-name="eight.dnom" horiz-adv-x="338" 
d="M169 -7q-58 0 -96 33t-38 87q0 39 21.5 67t56.5 41q-28 11 -45 35.5t-17 56.5q0 46 33.5 75.5t84.5 29.5t84 -30t33 -75q0 -32 -17 -56t-44 -36q35 -13 56 -41t21 -67q0 -26 -10 -48t-28 -38t-42 -25t-53 -9zM169 232q35 0 59.5 23t24.5 57t-24.5 56t-59.5 22
q-36 0 -60 -22t-24 -56q0 -35 24 -57.5t60 -22.5zM169 26q43 0 70 25.5t27 65.5q0 39 -27 64t-70 25q-44 0 -71 -25t-27 -64q0 -40 27.5 -65.5t70.5 -25.5z" />
    <glyph glyph-name="eight.lf" horiz-adv-x="552" 
d="M277 -11q-48 0 -89 14.5t-71 41t-46.5 63.5t-16.5 81q0 64 35 111.5t95 67.5q-47 20 -75 60t-28 94q0 38 15 70t41 55.5t62 36.5t78 13t77.5 -13.5t61.5 -36.5t41 -55t15 -70q0 -53 -28.5 -93.5t-73.5 -60.5q58 -20 93.5 -67t35.5 -112q0 -44 -16.5 -81t-46.5 -63.5
t-70.5 -41t-88.5 -14.5zM277 387q30 0 55.5 10t44 28t29.5 42.5t11 52.5t-11 51.5t-30 41t-44.5 27.5t-54.5 10q-30 0 -56 -10t-44.5 -27.5t-29.5 -41t-11 -51.5t11 -52.5t29.5 -42.5t44.5 -28t56 -10zM277 43q35 0 65 11t51.5 31.5t33.5 48t12 60.5t-12 60.5t-33.5 47
t-51 30.5t-65.5 11t-66 -11t-52 -30.5t-34 -47t-12 -60.5t12.5 -60.5t34 -48t51.5 -31.5t66 -11z" />
    <glyph glyph-name="eight.numr" horiz-adv-x="338" 
d="M169 268q-58 0 -96 33t-38 87q0 38 21.5 66.5t56.5 40.5q-28 12 -45 36t-17 56q0 46 33.5 75.5t84.5 29.5t84 -30t33 -75q0 -32 -17 -56t-44 -36q35 -12 56 -40.5t21 -66.5q0 -54 -38 -87t-95 -33zM169 506q35 0 59.5 23t24.5 57t-24.5 56t-59.5 22q-36 0 -60 -22
t-24 -56t24 -57t60 -23zM169 300q43 0 70 25.5t27 65.5t-27 64.5t-70 24.5q-44 0 -71 -24.5t-27 -64.5t27.5 -65.5t70.5 -25.5z" />
    <glyph glyph-name="exclamdown.case" horiz-adv-x="229" 
d="M114 696q19 0 33 -13t14 -33t-14 -33.5t-33 -13.5t-33 13.5t-14 33.5t14 33t33 13zM89 494h50l5 -494h-60z" />
    <glyph glyph-name="f_j" horiz-adv-x="556" 
d="M310 429h-124v-429h-59v429h-100v49h100v105q0 87 46.5 132t133.5 45q77 0 119 -37.5t54 -101.5l-58 -15q-7 51 -34.5 77.5t-82.5 26.5q-58 0 -88.5 -31.5t-30.5 -95.5v-105h124v-49zM422 478h59v-499q0 -60 -9.5 -102.5t-32 -69t-59 -38.5t-90.5 -12v49q39 0 64.5 8.5
t40.5 28.5t21 53t6 83v499z" />
    <glyph glyph-name="f_t" horiz-adv-x="621" 
d="M127 0v429h-100v49h100v105q0 90 42.5 128.5t118.5 38.5h22v-50h-22q-45 0 -73.5 -26.5t-28.5 -90.5v-105h173q47 0 47 45v115h52v-160h123v-49h-123v-296q0 -42 22.5 -63.5t59.5 -21.5h41v-48h-57q-57 0 -91 34t-34 94v301h-213v-429h-59z" />
    <glyph glyph-name="five.dnom" horiz-adv-x="339" 
d="M152 258q81 0 120 -31t39 -98q0 -61 -37 -98.5t-97 -37.5q-65 0 -102.5 34.5t-37.5 96.5q0 4 0.5 8t0.5 8h36q-1 -5 -1 -14q0 -48 27 -74t78 -26q45 0 71 28t26 73q0 56 -34 78.5t-98 22.5h-90l25 183h215v-32h-184l-18 -121h61z" />
    <glyph glyph-name="five.lf" horiz-adv-x="557" 
d="M245 431q134 0 199 -52t65 -164q0 -51 -16 -92.5t-45.5 -71t-70 -46t-90.5 -16.5q-109 0 -171 57.5t-62 160.5v13t1 13h59q-1 -6 -1.5 -11.5t-0.5 -10.5q0 -80 45 -124t130 -44q37 0 67 12.5t51.5 35t33 53.5t11.5 68q0 93 -57 130t-163 37h-151l42 307h359v-54h-307
l-29 -201h101z" />
    <glyph glyph-name="five.numr" horiz-adv-x="339" 
d="M152 533q81 0 120 -31.5t39 -98.5q0 -61 -37 -98t-97 -37q-65 0 -102.5 34.5t-37.5 95.5q0 5 0.5 8.5t0.5 7.5h36q-1 -5 -1 -13q0 -48 27 -74.5t78 -26.5q45 0 71 28t26 73q0 57 -34 79t-98 22h-90l25 184h215v-33h-184l-17 -120h60z" />
    <glyph glyph-name="four.dnom" horiz-adv-x="321" 
d="M298 127v-32h-51v-95h-35v95h-210v33l195 283h50v-284h51zM39 127h173v256z" />
    <glyph glyph-name="four.lf" horiz-adv-x="548" 
d="M518 212v-54h-84v-158h-59v158h-350v55l325 473h84v-474h84zM88 212h287v426z" />
    <glyph glyph-name="four.numr" horiz-adv-x="321" 
d="M298 402v-33h-51v-95h-35v95h-210v33l195 284h50v-284h51zM40 402h172v255z" />
    <glyph glyph-name="g.ss01" horiz-adv-x="594" 
d="M529 478v-49h-88q22 -23 34 -53t12 -65q0 -39 -14.5 -70t-40 -52t-60.5 -32.5t-76 -11.5q-65 0 -112 27q-29 -26 -29 -55q0 -34 38.5 -49.5t118.5 -26.5q39 -5 78 -13t69.5 -23.5t49.5 -40t19 -63.5t-16.5 -67t-46.5 -47t-71.5 -28t-91.5 -9q-109 0 -170.5 38t-61.5 96
q0 37 20.5 69.5t68.5 70.5q-26 13 -41.5 33t-15.5 50q0 53 48 89q-23 23 -36.5 53t-13.5 66q0 39 15 70.5t40.5 54.5t61 35.5t75.5 12.5q38 0 68 -10h169zM295 191q63 0 100 34t37 89q0 56 -38.5 92t-100.5 36q-60 0 -98 -36t-38 -91q0 -54 37.5 -89t100.5 -35zM469 -106
q0 26 -15 43t-40 28t-58 17t-69 11q-44 5 -82 15q-25 -21 -40.5 -37.5t-23 -30.5t-10 -25.5t-2.5 -21.5q0 -43 47.5 -71t125.5 -28q75 0 121 23.5t46 76.5z" />
    <glyph glyph-name="gbreve.ss01" horiz-adv-x="594" 
d="M296 530q-76 0 -120 39.5t-44 116.5h46q0 -56 30.5 -87.5t87.5 -31.5t88 31t31 88h46q0 -77 -44.5 -116.5t-120.5 -39.5zM529 478v-49h-88q22 -23 34 -53t12 -65q0 -39 -14.5 -70t-40 -52t-60.5 -32.5t-76 -11.5q-65 0 -112 27q-29 -26 -29 -55q0 -34 38.5 -49.5
t118.5 -26.5q39 -5 78 -13t69.5 -23.5t49.5 -40t19 -63.5t-16.5 -67t-46.5 -47t-71.5 -28t-91.5 -9q-109 0 -170.5 38t-61.5 96q0 37 20.5 69.5t68.5 70.5q-26 13 -41.5 33t-15.5 50q0 53 48 89q-23 23 -36.5 53t-13.5 66q0 39 15 70.5t40.5 54.5t61 35.5t75.5 12.5
q38 0 68 -10h169zM295 191q63 0 100 34t37 89q0 56 -38.5 92t-100.5 36q-60 0 -98 -36t-38 -91q0 -54 37.5 -89t100.5 -35zM469 -106q0 26 -15 43t-40 28t-58 17t-69 11q-44 5 -82 15q-25 -21 -40.5 -37.5t-23 -30.5t-10 -25.5t-2.5 -21.5q0 -43 47.5 -71t125.5 -28
q75 0 121 23.5t46 76.5z" />
    <glyph glyph-name="gdotaccent.ss01" horiz-adv-x="594" 
d="M297 611q-20 0 -33.5 13.5t-13.5 32.5q0 20 13.5 33.5t33.5 13.5q19 0 32.5 -13.5t13.5 -33.5q0 -19 -13.5 -32.5t-32.5 -13.5zM529 478v-49h-88q22 -23 34 -53t12 -65q0 -39 -14.5 -70t-40 -52t-60.5 -32.5t-76 -11.5q-65 0 -112 27q-29 -26 -29 -55q0 -34 38.5 -49.5
t118.5 -26.5q39 -5 78 -13t69.5 -23.5t49.5 -40t19 -63.5t-16.5 -67t-46.5 -47t-71.5 -28t-91.5 -9q-109 0 -170.5 38t-61.5 96q0 37 20.5 69.5t68.5 70.5q-26 13 -41.5 33t-15.5 50q0 53 48 89q-23 23 -36.5 53t-13.5 66q0 39 15 70.5t40.5 54.5t61 35.5t75.5 12.5
q38 0 68 -10h169zM295 191q63 0 100 34t37 89q0 56 -38.5 92t-100.5 36q-60 0 -98 -36t-38 -91q0 -54 37.5 -89t100.5 -35zM469 -106q0 26 -15 43t-40 28t-58 17t-69 11q-44 5 -82 15q-25 -21 -40.5 -37.5t-23 -30.5t-10 -25.5t-2.5 -21.5q0 -43 47.5 -71t125.5 -28
q75 0 121 23.5t46 76.5z" />
    <glyph glyph-name="gravecomb.case" 
d="M-134 716l-92 124h64l79 -124h-51z" />
    <glyph glyph-name="hookabovecomb.case" 
d="M-205 716v54q42 7 61.5 21t19.5 34t-16 32t-44 12q-15 0 -29.5 -5t-34.5 -18l-18 28q23 14 42.5 20.5t43.5 6.5q45 0 71.5 -20t26.5 -54q0 -31 -22 -49t-60 -27v-35h-41z" />
    <glyph glyph-name="i.loclTRK" horiz-adv-x="209" 
d="M105 611q-20 0 -33.5 13.5t-13.5 32.5q0 20 13.5 33.5t33.5 13.5q19 0 32.5 -13.5t13.5 -33.5q0 -19 -13.5 -32.5t-32.5 -13.5zM75 0v478h59v-478h-59z" />
    </font>
</defs>
</svg>
