<?xml version="1.0" standalone="no"?>
<!DOCTYPE svg PUBLIC "-//W3C//DTD SVG 1.1//EN" "http://www.w3.org/Graphics/SVG/1.1/DTD/svg11.dtd" >
<svg xmlns="http://www.w3.org/2000/svg" xmlns:xlink="http://www.w3.org/1999/xlink" version="1.1">
<metadata>
Created by FontForge 20201107 at Sun May 24 06:39:00 2020
 By 
Copyright (c) 2020 Cerebri Sans ProTM Version - 2020 Edition by Alfredo Marco Pradil. All rights reserved.
</metadata>
<defs>
<font id="CerebriSansPro-Medium" horiz-adv-x="0" >
  <font-face 
    font-family="Cerebri Sans Pro Medium"
    font-weight="500"
    font-stretch="normal"
    units-per-em="1000"
    panose-1="0 0 6 0 0 0 0 0 0 0"
    ascent="750"
    descent="-250"
    x-height="494"
    cap-height="699"
    bbox="-805 -250 1280 1043"
    underline-thickness="63"
    underline-position="-201"
    unicode-range="U+000D-FB02"
  />
<missing-glyph horiz-adv-x="540" 
d="M50 0v699h439v-699h-439zM134 84h271v531h-271v-531z" />
    <glyph glyph-name="fi" unicode="fi" horiz-adv-x="617" 
d="M336 672q-43 0 -73.5 -24t-30.5 -83v-71h116v-84h-116v-410h-109v410h-101v84h101v71q0 51 16 88t45 60.5t69.5 35t88.5 11.5q86 0 136.5 -39.5t68.5 -106.5l-106 -28q-9 44 -33.5 65t-71.5 21zM441 494h109v-494h-109v494z" />
    <glyph glyph-name="fl" unicode="fl" horiz-adv-x="617" 
d="M337 760q47 0 86 -11.5t67.5 -35t44.5 -60.5t16 -88v-565h-109v559q0 60 -28 86.5t-78 26.5q-43 0 -73.5 -24t-30.5 -83v-71h116v-84h-116v-410h-109v410h-101v84h101v71q0 51 16 88t44.5 60.5t68 35t85.5 11.5z" />
    <glyph glyph-name="f_f" unicode="ff" horiz-adv-x="694" 
d="M646 663q-16 0 -32.5 -4t-29.5 -15t-21 -30t-8 -49v-71h116v-84h-116v-410h-109v410h-214v-410h-109v410h-101v84h101v71q0 51 16 88t45 60.5t69.5 35t88.5 11.5q99 0 149 -56q27 26 66 36t89 10h25v-87h-25zM232 494h214v71q0 11 0.5 21.5t1.5 20.5q-14 31 -41.5 48
t-70.5 17q-55 0 -79.5 -27.5t-24.5 -79.5v-71z" />
    <glyph glyph-name="f_f_i" unicode="ffi" horiz-adv-x="936" 
d="M661 760q86 0 136.5 -39.5t68.5 -106.5l-106 -28q-9 44 -33.5 65t-70.5 21q-44 0 -74.5 -24t-30.5 -83v-71h116v-84h-116v-410h-109v410h-210v-410h-109v410h-101v84h101v71q0 51 16 88t45 60.5t69.5 35t88.5 11.5q51 0 88 -15t62 -42q29 29 72 43t97 14zM442 494v71
q0 27 4 47q-15 29 -42 44.5t-68 15.5q-55 0 -79.5 -27.5t-24.5 -79.5v-71h210zM761 494h109v-494h-109v494z" />
    <glyph glyph-name="f_f_l" unicode="ffl" horiz-adv-x="937" 
d="M656 760q47 0 86 -11.5t67.5 -35t44.5 -60.5t16 -88v-565h-108v559q0 60 -28.5 86.5t-77.5 26.5q-45 0 -75 -25.5t-30 -81.5v-71h116v-84h-116v-410h-109v410h-210v-410h-109v410h-101v84h101v71q0 51 16 88t45 60.5t69.5 35t88.5 11.5q51 0 88 -14.5t62 -41.5
q29 29 71 42.5t93 13.5zM442 494v71q0 27 4 47q-15 29 -42 44.5t-68 15.5q-55 0 -79.5 -27.5t-24.5 -79.5v-71h210z" />
    <glyph glyph-name="h_d_c_o.liga" unicode="hdco" horiz-adv-x="828" 
d="M414 0q-78 0 -147.5 30t-121 81.5t-81.5 121t-30 147.5q0 79 30 148t81.5 120.5t121 81.5t147.5 30q79 0 148 -30t120.5 -81.5t81.5 -120.5t30 -148q0 -78 -30 -147.5t-81.5 -121t-120.5 -81.5t-148 -30zM414 36q71 0 134 27t109.5 74t73.5 109.5t27 133.5t-27 134
t-73.5 109.5t-109.5 73.5t-134 27t-133.5 -27t-109.5 -73.5t-74 -109.5t-27 -134t27 -133.5t74 -109.5t109.5 -74t133.5 -27zM613 217q-7 0 -12 6l-145 144q-12 14 0 26l145 145q13 13 25 0q5 -5 5 -13t-5 -13l-132 -132l132 -132q5 -5 5 -12t-5 -13q-4 -6 -13 -6zM215 217
q-8 0 -13 5t-5 13v290q0 8 5 13t13 5t13 -5t5 -13v-290q0 -8 -5 -13t-13 -5zM414 217q-8 0 -13 5t-5 13v290q0 8 5 13t13 5t13 -5t5 -13v-290q0 -8 -5 -13t-13 -5zM269 362q-8 0 -13 5t-5 13t5 13t13 5h91q8 0 13 -5t5 -13t-5 -13t-13 -5h-91z" />
    <glyph glyph-name="hyphen_greater.liga" unicode="&#x2d;&#x3e;" horiz-adv-x="720" 
d="M538 64h-90l118 142h-566v83h566l-118 143h90l152 -184z" />
    <glyph glyph-name="less_hyphen.liga" unicode="&#x3c;&#x2d;" horiz-adv-x="720" 
d="M182 64l-152 184l152 184h90l-117 -143h565v-83h-565l117 -142h-90z" />
    <glyph glyph-name="parenleft_greater_parenright.liga" unicode="&#x28;&#x3e;&#x29;" horiz-adv-x="805" 
d="M402 -10q-74 0 -139.5 28.5t-114 77.5t-77 114.5t-28.5 139.5t28.5 139.5t77 114.5t114 77t139.5 28t139.5 -28.5t114.5 -77t77.5 -114t28.5 -139.5t-28.5 -139.5t-77.5 -114.5t-114.5 -77.5t-139.5 -28.5zM402 49q63 0 117.5 23.5t95 64.5t64 95.5t23.5 117.5
q0 62 -23.5 117t-64 95.5t-95 64t-117.5 23.5q-62 0 -117 -23.5t-95.5 -64t-64 -95.5t-23.5 -117q0 -63 23.5 -117.5t64 -95.5t95 -64.5t117.5 -23.5zM313 151v398l291 -199z" />
    <glyph glyph-name=".notdef" horiz-adv-x="540" 
d="M50 0v699h439v-699h-439zM134 84h271v531h-271v-531z" />
    <glyph glyph-name=".null" 
 />
    <glyph glyph-name=".null" 
 />
    <glyph glyph-name="nonmarkingreturn" unicode="&#xd;" horiz-adv-x="250" 
 />
    <glyph glyph-name="space" unicode=" " horiz-adv-x="260" 
 />
    <glyph glyph-name="exclam" unicode="!" horiz-adv-x="256" 
d="M83 214l-11 485h110l-11 -485h-88zM127 -10q-28 0 -47.5 19.5t-19.5 47.5q0 29 19.5 48.5t47.5 19.5q29 0 48.5 -19.5t19.5 -48.5q0 -28 -19.5 -47.5t-48.5 -19.5z" />
    <glyph glyph-name="quotedbl" unicode="&#x22;" horiz-adv-x="400" 
d="M62 382l-15 317h104l-11 -317h-78zM261 382l-11 317h103l-14 -317h-78z" />
    <glyph glyph-name="numbersign" unicode="#" horiz-adv-x="738" 
d="M151 0l23 167h-138l10 77h139l31 210h-140l13 77h138l24 168h77l-24 -168h179l24 168h77l-24 -168h143l-12 -77h-142l-30 -210h142l-11 -77h-141l-25 -167h-77l25 167h-182l-23 -167h-76zM262 244h180l30 210h-180z" />
    <glyph glyph-name="dollar" unicode="$" horiz-adv-x="608" 
d="M564 196q0 -45 -16.5 -82.5t-47 -64.5t-73.5 -42.5t-96 -18.5v-64h-43v63q-52 3 -96.5 17t-79 39.5t-57.5 61.5t-31 81l112 24q15 -60 54 -91.5t98 -36.5v228l-10 2t-10 3q-40 11 -79.5 24t-71 35t-51 54.5t-19.5 81.5q0 46 17.5 83t49.5 63.5t76 41t98 14.5v60h43v-62
q41 -4 77 -16.5t66 -34.5t51.5 -53.5t31.5 -74.5l-102 -24q-17 49 -46.5 75.5t-77.5 33.5v-214h1q41 -11 82 -25t74.5 -37t54.5 -57.5t21 -86.5zM162 516q0 -23 9.5 -39.5t26.5 -28t40 -20t50 -15.5v205q-57 -2 -91.5 -29t-34.5 -73zM331 82q55 5 85 32.5t30 73.5
q0 24 -8.5 41t-24 30t-36.5 22t-46 17v-216z" />
    <glyph glyph-name="percent" unicode="%" horiz-adv-x="798" 
d="M208 396q-33 0 -61.5 12.5t-49.5 33.5t-33 49.5t-12 61.5q0 32 12.5 60.5t33.5 49.5t49.5 33.5t60.5 12.5t60.5 -12.5t49.5 -33.5t33.5 -49.5t12.5 -60.5q0 -33 -12.5 -61.5t-33.5 -49.5t-49.5 -33.5t-60.5 -12.5zM167 0l367 699h92l-368 -699h-91zM208 469
q35 0 58.5 24.5t23.5 59.5q0 34 -24 58.5t-58 24.5q-35 0 -59 -24t-24 -59t24 -59.5t59 -24.5zM591 -9q-33 0 -61.5 12.5t-50 33.5t-33.5 49.5t-12 61.5t12.5 61.5t33.5 49.5t49.5 33.5t61.5 12.5q32 0 60 -12.5t49 -33.5t33.5 -49.5t12.5 -61.5q0 -32 -12 -60.5t-33 -50
t-49.5 -34t-60.5 -12.5zM591 65q35 0 58.5 24t23.5 59q0 34 -24 58.5t-58 24.5q-35 0 -59.5 -24t-24.5 -59t24.5 -59t59.5 -24z" />
    <glyph glyph-name="ampersand" unicode="&#x26;" horiz-adv-x="732" 
d="M684 0h-124l-49 61q-48 -35 -105 -54.5t-120 -19.5q-55 0 -100 13.5t-77 39t-49 62t-17 82.5q0 41 14 73.5t38.5 59.5t58 51t73.5 49l-15 18q-22 26 -37.5 59t-15.5 69q0 35 13 62.5t36.5 46.5t55 29.5t67.5 10.5q43 0 76.5 -11t56.5 -30.5t35 -46t12 -57.5
q0 -57 -37.5 -94.5t-106.5 -74.5l153 -192q28 40 44 90.5t16 110.5h98q0 -82 -25.5 -153t-70.5 -126zM337 638q-35 0 -55.5 -19.5t-20.5 -49.5q0 -23 13 -46t28 -43l14 -18q49 29 71 53.5t22 56.5q0 29 -20 47.5t-52 18.5zM296 80q84 0 157 54l-173 215q-27 -16 -50 -32
t-40 -33.5t-27 -39t-10 -50.5q0 -57 37.5 -85.5t105.5 -28.5z" />
    <glyph glyph-name="quotesingle" unicode="'" horiz-adv-x="198" 
d="M59 382l-11 317h103l-14 -317h-78z" />
    <glyph glyph-name="parenleft" unicode="(" horiz-adv-x="332" 
d="M207 -250q-75 87 -116 225.5t-41 308.5t41 308t116 226h108q-40 -40 -71 -95.5t-52.5 -124t-33 -148t-11.5 -166.5t11.5 -166.5t33 -148t52.5 -124t71 -95.5h-108z" />
    <glyph glyph-name="parenright" unicode=")" horiz-adv-x="333" 
d="M18 -250q40 40 71 95.5t52.5 124t33 148t11.5 166.5t-11.5 166.5t-33 148t-52.5 124t-71 95.5h107q75 -88 116 -226t41 -308t-41 -308.5t-116 -225.5h-107z" />
    <glyph glyph-name="asterisk" unicode="*" horiz-adv-x="389" 
d="M131 420l-54 32l75 97q9 12 4.5 20t-18.5 6l-124 -15v63l124 -15q14 -2 19 6t-5 19l-75 98l54 32l49 -114q5 -14 14.5 -14t14.5 14l49 114l54 -32l-76 -98q-9 -11 -4.5 -19.5t19.5 -6.5l124 16v-63l-124 15q-15 2 -19.5 -6t5.5 -20l75 -97l-54 -32l-49 113
q-5 14 -14.5 14t-14.5 -14z" />
    <glyph glyph-name="plus" unicode="+" horiz-adv-x="585" 
d="M251 9v197h-197v83h197v197h83v-197h196v-83h-196v-197h-83z" />
    <glyph glyph-name="comma" unicode="," horiz-adv-x="306" 
d="M71 -179l61 314h111l-92 -314h-80z" />
    <glyph glyph-name="hyphen" unicode="-" horiz-adv-x="390" 
d="M20 206v83h350v-83h-350z" />
    <glyph glyph-name="period" unicode="." horiz-adv-x="309" 
d="M154 -10q-27 0 -47 19.5t-20 47.5t20 48t47 20q28 0 48 -20t20 -48t-20 -47.5t-48 -19.5z" />
    <glyph glyph-name="slash" unicode="/" horiz-adv-x="591" 
d="M1 -193l485 943h104l-485 -943h-104z" />
    <glyph glyph-name="zero" unicode="0" horiz-adv-x="585" 
d="M293 -13q-119 0 -181.5 90t-62.5 273q0 184 62.5 273t181.5 89q118 0 180.5 -89t62.5 -273q0 -183 -62.5 -273t-180.5 -90zM293 85q64 0 99 64t35 201t-35 200.5t-99 63.5q-66 0 -100.5 -63t-34.5 -201q0 -137 35 -201t100 -64z" />
    <glyph glyph-name="one" unicode="1" horiz-adv-x="585" 
d="M297 699h106v-699h-109v572l-166 -135v125z" />
    <glyph glyph-name="two" unicode="2" horiz-adv-x="585" 
d="M204 97h328v-97h-475v93l282 287q37 38 54 68t17 64q0 49 -31 75.5t-85 26.5q-63 0 -96.5 -33t-33.5 -99v-34l-109 11v32q0 104 62.5 162.5t172.5 58.5q50 0 92 -13.5t72 -39t46.5 -62t16.5 -81.5q0 -52 -21 -97t-75 -100z" />
    <glyph glyph-name="three" unicode="3" horiz-adv-x="585" 
d="M298 -13q-121 0 -186.5 63t-65.5 181h112q1 -66 33.5 -106t104.5 -40q60 0 95 35t35 89q0 34 -12.5 57.5t-32.5 37.5t-45 20.5t-50 6.5h-23v84h22q51 0 82 29t31 77q0 43 -29 69t-76 26q-54 0 -85.5 -34.5t-31.5 -93.5v-6l-110 12q0 51 16 91.5t45.5 68.5t71 43t91.5 15
q46 0 84.5 -14t66.5 -38.5t43.5 -58t15.5 -71.5q0 -30 -8.5 -54.5t-22.5 -43t-32 -31.5t-37 -20q28 -7 53 -21t43.5 -36t29.5 -52t11 -69q0 -48 -17 -87.5t-48.5 -68t-75.5 -44.5t-98 -16z" />
    <glyph glyph-name="four" unicode="4" horiz-adv-x="585" 
d="M556 244v-97h-78v-147h-109v147h-338v97l283 455h164v-455h78zM137 244h232v382z" />
    <glyph glyph-name="five" unicode="5" horiz-adv-x="585" 
d="M277 446q129 0 195 -53.5t66 -166.5q0 -54 -17.5 -98t-49 -75.5t-76 -48.5t-98.5 -17q-56 0 -101.5 16t-77.5 45t-49.5 71.5t-17.5 94.5q0 7 0.5 13.5t1.5 13.5h106q0 -5 -0.5 -9t-0.5 -9q0 -66 36.5 -102t103.5 -36q63 0 97 38t34 97q0 41 -14.5 67.5t-40 41.5t-59.5 21
t-73 6h-168l33 343h399v-97h-301l-16 -156h88z" />
    <glyph glyph-name="six" unicode="6" horiz-adv-x="585" 
d="M314 468q48 0 89.5 -17.5t73 -48.5t49.5 -74.5t18 -94.5q0 -52 -20 -97t-54.5 -78t-80.5 -52t-98 -19q-54 0 -99.5 19.5t-79 53.5t-52.5 78.5t-19 95.5q0 45 15 87.5t48 85.5l233 292h131l-189 -234q18 3 35 3zM437 235q0 32 -10 60t-29.5 48.5t-46.5 32.5t-61 12
q-33 0 -59.5 -11.5t-46 -31.5t-30 -47.5t-11.5 -59.5q0 -31 10 -59t29 -49t46 -33t60 -12t60 12t46.5 32.5t31 47.5t11.5 58z" />
    <glyph glyph-name="seven" unicode="7" horiz-adv-x="585" 
d="M50 699h487v-97l-337 -602h-125l344 602h-369v97z" />
    <glyph glyph-name="eight" unicode="8" horiz-adv-x="585" 
d="M293 -13q-52 0 -97 15.5t-77.5 43t-51 67t-18.5 87.5q0 63 32 109.5t86 69.5q-42 23 -66 61t-24 87q0 40 16 74t45 58.5t68.5 38.5t86.5 14q46 0 85.5 -14t68 -38.5t44.5 -58.5t16 -74q0 -49 -24 -87t-64 -61q54 -23 85.5 -69.5t31.5 -109.5q0 -48 -18.5 -87.5t-51 -67
t-77 -43t-96.5 -15.5zM293 411q24 0 45 8.5t36.5 23.5t24.5 35.5t9 44.5q0 48 -33.5 78t-81.5 30q-49 0 -82 -30t-33 -78q0 -49 33 -80.5t82 -31.5zM293 85q58 0 96 35t38 92t-38 91t-96 34q-60 0 -97.5 -34t-37.5 -91t38 -92t97 -35z" />
    <glyph glyph-name="nine" unicode="9" horiz-adv-x="585" 
d="M294 712q54 0 99.5 -19.5t79 -53.5t52.5 -78.5t19 -95.5q0 -45 -15 -87.5t-48 -84.5l-233 -293h-131l189 234q-18 -3 -35 -3q-48 0 -89.5 17.5t-73 49t-49.5 74.5t-18 95t20 96.5t54.5 77.5t80.5 52t98 19zM442 462q0 31 -10 58.5t-29 48.5t-46 33t-60 12t-60 -12
t-46.5 -32t-31 -47.5t-11.5 -58.5q0 -32 10 -60t29.5 -48.5t46.5 -32.5t61 -12q33 0 59.5 11.5t46 32t30 48t11.5 59.5z" />
    <glyph glyph-name="colon" unicode=":" horiz-adv-x="294" 
d="M147 351q-28 0 -47.5 20t-19.5 48q0 27 19.5 47t47.5 20t47.5 -20t19.5 -47q0 -28 -19.5 -48t-47.5 -20zM147 -10q-28 0 -47.5 19.5t-19.5 47.5t19.5 48t47.5 20t47.5 -20t19.5 -48t-19.5 -47.5t-47.5 -19.5z" />
    <glyph glyph-name="semicolon" unicode=";" horiz-adv-x="306" 
d="M167 351q-27 0 -47 20t-20 48q0 27 20 47t47 20q28 0 48 -20t20 -47q0 -28 -20 -48t-48 -20zM58 -179l61 314h111l-92 -314h-80z" />
    <glyph glyph-name="less" unicode="&#x3c;" horiz-adv-x="488" 
d="M433 477v-90l-277 -139l277 -140v-90l-379 191v78z" />
    <glyph glyph-name="equal" unicode="=" horiz-adv-x="558" 
d="M54 311v83h450v-83h-450zM54 102v83h450v-83h-450z" />
    <glyph glyph-name="greater" unicode="&#x3e;" horiz-adv-x="487" 
d="M54 477l379 -190v-78l-379 -191v90l277 140l-277 139v90z" />
    <glyph glyph-name="question" unicode="?" horiz-adv-x="516" 
d="M210 209v38q0 48 22 74.5t57 49.5q15 10 30.5 21t28 26t20 35.5t7.5 49.5q0 57 -34 87.5t-89 30.5q-58 0 -91.5 -33.5t-33.5 -87.5q0 -19 4 -35l-98 5q-1 8 -1.5 16.5t-0.5 19.5q0 45 16 83t45 65.5t70 42.5t90 15q50 0 91.5 -14t71 -40.5t46 -63.5t16.5 -84t-13 -79.5
t-31.5 -55t-40 -37.5t-39.5 -27q-28 -20 -41.5 -37.5t-13.5 -43.5v-21h-88zM255 -10q-29 0 -48.5 19.5t-19.5 47.5q0 29 20 48t48 19q27 0 46.5 -19t19.5 -48q0 -28 -19 -47.5t-47 -19.5z" />
    <glyph glyph-name="at" unicode="@" horiz-adv-x="879" 
d="M441 -107q-78 0 -146.5 28.5t-120 78.5t-81 118t-29.5 147q0 81 29 151t79.5 121.5t119.5 80.5t149 29q82 0 151 -30t119.5 -80.5t78.5 -117.5t28 -141q0 -97 -41.5 -150t-119.5 -53q-46 0 -74.5 17t-44.5 55h-6q-19 -36 -52 -55.5t-77 -19.5q-26 0 -49 7t-40.5 20
t-27.5 32.5t-10 43.5q0 26 11 45.5t28.5 33.5t40.5 22.5t47 13.5l114 26v23q0 34 -20.5 52t-55.5 18q-66 0 -83 -65l-72 18q14 46 53 73.5t102 27.5q29 0 56.5 -7.5t48.5 -24t33.5 -42t12.5 -62.5v-117q0 -77 72 -77q90 0 90 139q0 64 -23 120.5t-64.5 99t-99 67
t-126.5 24.5q-67 0 -124.5 -24t-99.5 -66.5t-65.5 -100.5t-23.5 -126q0 -66 24.5 -122.5t67 -98.5t99.5 -65.5t122 -23.5q45 0 86 12t79 34l29 -55q-42 -26 -91 -40t-103 -14zM419 126q45 0 71.5 32.5t26.5 87.5v24l-88 -22q-43 -11 -60 -26.5t-17 -40.5q0 -26 18.5 -40.5
t48.5 -14.5z" />
    <glyph glyph-name="A" unicode="A" horiz-adv-x="698" 
d="M564 0l-58 158h-314l-58 -158h-121l265 699h142l265 -699h-121zM227 253h244l-122 331z" />
    <glyph glyph-name="B" unicode="B" horiz-adv-x="616" 
d="M438 371q64 -18 99 -60.5t35 -117.5q0 -62 -24.5 -100t-60.5 -58.5t-77 -27.5t-75 -7h-262v699h227q113 0 171 -45t58 -133q0 -111 -91 -150zM416 503q0 102 -118 102h-111v-204h111q118 0 118 102zM336 97q122 0 122 109q0 108 -122 108h-149v-217h149z" />
    <glyph glyph-name="C" unicode="C" horiz-adv-x="752" 
d="M397 -13q-78 0 -143 26.5t-112 74t-73 114.5t-26 148t26 147.5t73 114t112 74t143 26.5q115 0 199.5 -55.5t123.5 -150.5l-106 -39q-27 66 -84 103.5t-133 37.5q-53 0 -97.5 -18.5t-76.5 -52.5t-49.5 -81.5t-17.5 -105.5t17.5 -105.5t49.5 -81.5t76.5 -52.5t97.5 -18.5
q76 0 133 37t84 103l106 -38q-39 -96 -123.5 -151.5t-199.5 -55.5z" />
    <glyph glyph-name="D" unicode="D" horiz-adv-x="691" 
d="M73 0v699h195q90 0 152.5 -17t107.5 -50q60 -45 89 -116t29 -166q0 -96 -29 -167t-89 -115q-45 -34 -107.5 -51t-152.5 -17h-195zM186 100h81q119 0 182 48q84 62 84 202t-84 201q-63 48 -182 48h-81v-499z" />
    <glyph glyph-name="E" unicode="E" horiz-adv-x="512" 
d="M468 599h-281v-200h250v-99h-250v-200h281v-100h-395v699h395v-100z" />
    <glyph glyph-name="F" unicode="F" horiz-adv-x="502" 
d="M474 599h-287v-200h250v-99h-250v-300h-114v699h401v-100z" />
    <glyph glyph-name="G" unicode="G" horiz-adv-x="783" 
d="M391 -13q-77 0 -141 26.5t-110 74t-71.5 114.5t-25.5 148t26 147.5t73 114t112 74t143 26.5q103 0 182 -45t124 -124l-99 -53q-30 56 -84 87t-123 31q-53 0 -97.5 -18.5t-76.5 -52.5t-49.5 -81.5t-17.5 -105.5t17 -105.5t48.5 -81.5t76 -52.5t99.5 -18.5q86 0 144.5 48.5
t75.5 139.5h-216v92h327v-372h-90v130q-32 -65 -93.5 -104t-153.5 -39z" />
    <glyph glyph-name="H" unicode="H" horiz-adv-x="713" 
d="M73 0v699h114v-299h340v299h114v-699h-114v301h-340v-301h-114z" />
    <glyph glyph-name="I" unicode="I" horiz-adv-x="260" 
d="M73 0v699h114v-699h-114z" />
    <glyph glyph-name="J" unicode="J" horiz-adv-x="445" 
d="M180 -13q-42 0 -84 11.5t-86 37.5l48 92q26 -17 52.5 -26.5t55.5 -9.5q47 0 72 30.5t25 95.5v481h113v-501q0 -50 -14.5 -89.5t-40 -66.5t-61.5 -41t-80 -14z" />
    <glyph glyph-name="K" unicode="K" horiz-adv-x="657" 
d="M501 0l-251 313h-63v-313h-114v699h114v-288h60l247 288h139l-288 -334l298 -365h-142z" />
    <glyph glyph-name="L" unicode="L" horiz-adv-x="440" 
d="M73 0v699h114v-599h239v-100h-353z" />
    <glyph glyph-name="M" unicode="M" horiz-adv-x="908" 
d="M857 0h-114l-45 587l-205 -587h-79l-204 585l-45 -585h-115l56 699h169l179 -495l178 495h170z" />
    <glyph glyph-name="N" unicode="N" horiz-adv-x="746" 
d="M559 699h114v-699h-139l-347 546v-546h-114v699h137l349 -544v544z" />
    <glyph glyph-name="O" unicode="O" horiz-adv-x="794" 
d="M397 -13q-78 0 -143 26.5t-112 74t-73 114.5t-26 148t26 147.5t73 114t112 74t143 26.5t143 -26.5t112 -74t73 -114t26 -147.5t-26 -148t-73 -114.5t-112 -74t-143 -26.5zM397 92q53 0 97 18.5t76 52.5t50 81.5t18 105.5t-18 105.5t-50 81.5t-76 52.5t-97 18.5
t-97.5 -18.5t-76.5 -52.5t-49.5 -81.5t-17.5 -105.5t17.5 -105.5t49.5 -81.5t76.5 -52.5t97.5 -18.5z" />
    <glyph glyph-name="P" unicode="P" horiz-adv-x="593" 
d="M492 649q32 -26 50 -67.5t18 -98.5q0 -66 -25 -118.5t-77 -81.5q-37 -20 -80 -24.5t-82 -4.5h-110v-254h-113v699h223q72 0 118 -12t78 -38zM397 371q50 30 50 106q0 35 -11.5 60.5t-31.5 40.5q-23 16 -55 21t-68 5h-95v-254h95q32 0 64 3.5t52 17.5z" />
    <glyph glyph-name="Q" unicode="Q" horiz-adv-x="799" 
d="M768 -33l-99 -38l-93 101q-80 -43 -179 -43q-78 0 -143 26.5t-112 74t-73 114.5t-26 148t26 147.5t73 114t112 74t143 26.5t143 -26.5t112 -74t73 -114t26 -147.5q0 -78 -24 -142.5t-68 -112.5zM156 350q0 -58 17.5 -105.5t49.5 -81.5t76.5 -52.5t97.5 -18.5t97 18.5
t76 52.5t50 81.5t18 105.5t-18 105.5t-50 81.5t-76 52.5t-97 18.5t-97.5 -18.5t-76.5 -52.5t-49.5 -81.5t-17.5 -105.5z" />
    <glyph glyph-name="R" unicode="R" horiz-adv-x="638" 
d="M467 0l-176 254h-104v-254h-114v699h224q71 0 117 -12t78 -38q33 -26 51 -67.5t18 -98.5q0 -66 -25.5 -118.5t-76.5 -81.5q-10 -5 -20.5 -9t-21.5 -7l192 -267h-142zM187 604v-254h95q32 0 63.5 3.5t52.5 17.5q49 31 49 106q0 70 -43 101q-23 16 -54.5 21t-67.5 5h-95z
" />
    <glyph glyph-name="S" unicode="S" horiz-adv-x="608" 
d="M308 -13q-55 0 -103.5 13t-85.5 38.5t-61.5 62.5t-33.5 85l112 24q17 -66 61.5 -97.5t111.5 -31.5q66 0 101.5 28t35.5 79q0 29 -13.5 47.5t-37 31.5t-54 22t-63.5 18q-40 11 -81 24.5t-74.5 36t-54.5 56.5t-21 86q0 46 17.5 83t49.5 63.5t76.5 41t98.5 14.5
q47 0 90.5 -10t79 -32t61 -56.5t37.5 -82.5l-102 -24q-20 58 -58 84.5t-102 26.5q-60 0 -96.5 -27t-36.5 -75q0 -26 13 -43.5t35 -29.5t51 -20t61 -16q41 -10 84 -23.5t78 -36.5t57.5 -59t22.5 -92q0 -48 -18 -86.5t-51.5 -65.5t-81 -42t-105.5 -15z" />
    <glyph glyph-name="T" unicode="T" horiz-adv-x="494" 
d="M480 699v-100h-176v-599h-113v599h-177v100h466z" />
    <glyph glyph-name="U" unicode="U" horiz-adv-x="671" 
d="M336 -13q-58 0 -107.5 16.5t-86 48.5t-57 80t-20.5 112v455h114v-441q0 -85 44 -126.5t113 -41.5q68 0 112.5 41.5t44.5 126.5v441h113v-455q0 -64 -20.5 -112t-56.5 -80t-85.5 -48.5t-107.5 -16.5z" />
    <glyph glyph-name="V" unicode="V" horiz-adv-x="699" 
d="M564 699h121l-265 -699h-142l-265 699h121l215 -584z" />
    <glyph glyph-name="W" unicode="W" horiz-adv-x="1027" 
d="M889 699h118l-190 -699h-153l-151 499l-151 -499h-152l-190 699h118l156 -582l169 582h101l169 -581z" />
    <glyph glyph-name="X" unicode="X" horiz-adv-x="715" 
d="M14 0l276 362l-268 337h138l197 -254l198 254h138l-268 -337l276 -362h-142l-202 269l-201 -269h-142z" />
    <glyph glyph-name="Y" unicode="Y" horiz-adv-x="602" 
d="M595 699l-237 -369v-330h-114v328l-238 371h125l170 -272l169 272h125z" />
    <glyph glyph-name="Z" unicode="Z" horiz-adv-x="576" 
d="M167 100h375v-100h-508v93l371 506h-370v100h503v-92z" />
    <glyph glyph-name="bracketleft" unicode="[" horiz-adv-x="325" 
d="M66 -250v1068h235v-79h-138v-911h138v-78h-235z" />
    <glyph glyph-name="backslash" unicode="\" horiz-adv-x="591" 
d="M486 -193l-485 943h104l485 -943h-104z" />
    <glyph glyph-name="bracketright" unicode="]" horiz-adv-x="325" 
d="M259 -250h-235v78h138v911h-138v79h235v-1068z" />
    <glyph glyph-name="asciicircum" unicode="^" horiz-adv-x="690" 
d="M646 149h-93l-208 455l-208 -455h-94l252 550h100z" />
    <glyph glyph-name="underscore" unicode="_" horiz-adv-x="500" 
d="M0 -104v83h500v-83h-500z" />
    <glyph glyph-name="grave" unicode="`" horiz-adv-x="353" 
d="M185 555l-112 144h117l90 -144h-95z" />
    <glyph glyph-name="a" unicode="a" horiz-adv-x="539" 
d="M528 86v-86h-51q-38 0 -62.5 16.5t-24.5 53.5v11h-5q-26 -43 -73.5 -67t-113.5 -24q-31 0 -59 7.5t-49 24t-33 41.5t-12 60q0 38 15 65t40.5 45.5t60 30.5t74.5 19l89 17q16 3 28.5 10.5t12.5 25.5q0 45 -26.5 67t-71.5 22q-96 0 -107 -92l-109 15q13 77 68 116.5
t150 39.5q100 0 152.5 -46.5t52.5 -134.5v-190q0 -26 8 -36.5t28 -10.5h18zM228 75q63 0 103 43t40 117l-131 -30q-86 -15 -86 -72q0 -28 19.5 -43t54.5 -15z" />
    <glyph glyph-name="b" unicode="b" horiz-adv-x="628" 
d="M345 504q50 0 94 -18t76 -51.5t50.5 -81t18.5 -106.5q0 -60 -18.5 -107.5t-50.5 -80.5t-76 -51t-94 -18q-56 0 -101 22t-68 64v-76h-108v750h108v-333q23 42 68 64.5t101 22.5zM323 81q33 0 61 11.5t48 33t31.5 52.5t11.5 69t-11.5 68.5t-31.5 52t-48 33.5t-61 12
t-60.5 -12t-47.5 -33.5t-31.5 -52t-11.5 -68.5t11.5 -69t31.5 -52.5t47.5 -33t60.5 -11.5z" />
    <glyph glyph-name="c" unicode="c" horiz-adv-x="579" 
d="M302 -10q-57 0 -104.5 19t-82 53t-53.5 81.5t-19 104.5t19 104t53.5 80.5t82 52.5t104.5 19q91 0 154 -45.5t83 -129.5l-101 -11q-14 49 -49.5 74.5t-87.5 25.5q-33 0 -60.5 -12.5t-47 -35t-30.5 -54t-11 -68.5q0 -38 11 -69.5t30.5 -54.5t47 -35.5t60.5 -12.5
q52 0 87.5 26t49.5 75l101 -11q-20 -84 -83.5 -130t-153.5 -46z" />
    <glyph glyph-name="d" unicode="d" horiz-adv-x="628" 
d="M452 750h109v-750h-109v76q-23 -42 -68 -64t-101 -22q-50 0 -93.5 18t-76 51t-51 80.5t-18.5 107.5q0 59 18.5 106.5t51 81t76 51.5t93.5 18q56 0 101 -22.5t68 -64.5v333zM305 81q33 0 60.5 11.5t47.5 33t31.5 52.5t11.5 69t-11.5 68.5t-31.5 52t-47.5 33.5t-60.5 12
t-61 -12t-48 -33.5t-31.5 -52t-11.5 -68.5t11.5 -69t31.5 -52.5t48 -33t61 -11.5z" />
    <glyph glyph-name="e" unicode="e" horiz-adv-x="589" 
d="M544 225h-393q5 -71 47 -110t104 -39q45 0 78.5 21t50.5 60l100 -15q-25 -72 -86 -112t-143 -40q-58 0 -106 18t-81.5 51.5t-52 81t-18.5 106.5t19 106.5t52.5 81t80.5 51.5t103 18q53 0 98 -16.5t78 -48.5t51.5 -79.5t18.5 -109.5zM300 418q-57 0 -95 -26.5t-49 -83.5
h279q-8 54 -45 82t-90 28z" />
    <glyph glyph-name="f" unicode="f" horiz-adv-x="371" 
d="M322 663q-16 0 -32.5 -4t-29 -15t-20.5 -30t-8 -49v-71h116v-84h-116v-410h-109v410h-101v84h101v71q0 55 14 91t40.5 57t63 29t81.5 8h26v-87h-26z" />
    <glyph glyph-name="g" unicode="g" horiz-adv-x="616" 
d="M440 494h109v-486q0 -133 -67.5 -195.5t-183.5 -62.5q-100 0 -160 42t-86 112l91 38q22 -52 59 -79.5t92 -27.5q75 0 110.5 44.5t35.5 120.5v93q-22 -38 -66.5 -62t-101.5 -24q-48 0 -89.5 18t-72.5 51t-49 79t-18 102t18 101.5t49 78t73 50t90 17.5q58 0 101 -24t66 -63
v77zM297 96q33 0 60.5 12t47.5 33.5t31 51t11 64.5t-11 64.5t-31 50.5t-47.5 33t-60.5 12q-32 0 -59.5 -12t-47.5 -33t-31 -50.5t-11 -64.5t11 -64.5t31 -51t47.5 -33.5t59.5 -12z" />
    <glyph glyph-name="h" unicode="h" horiz-adv-x="579" 
d="M338 504q87 0 133 -47.5t46 -139.5v-317h-109v301q0 60 -29.5 88t-79.5 28q-24 0 -46.5 -8t-39.5 -24.5t-27.5 -43t-10.5 -64.5v-277h-109v750h109v-322q26 35 67.5 55.5t95.5 20.5z" />
    <glyph glyph-name="i" unicode="i" horiz-adv-x="240" 
d="M120 592q-28 0 -48 20t-20 48t20 47.5t48 19.5t48 -19.5t20 -47.5t-20 -48t-48 -20zM66 0v494h109v-494h-109z" />
    <glyph glyph-name="j" unicode="j" horiz-adv-x="238" 
d="M116 592q-28 0 -48 20t-20 48t20 47.5t48 19.5t48 -19.5t20 -47.5t-20 -48t-48 -20zM-57 -158q36 0 59 8t36.5 26.5t18.5 48.5t5 73v496h109v-496q0 -63 -12.5 -108.5t-39.5 -75t-70.5 -43.5t-105.5 -14v85z" />
    <glyph glyph-name="k" unicode="k" horiz-adv-x="551" 
d="M299 262l233 -262h-132l-192 218h-33v-218h-109v750h109v-456h32l184 200h125z" />
    <glyph glyph-name="l" unicode="l" horiz-adv-x="241" 
d="M66 0v750h109v-750h-109z" />
    <glyph glyph-name="m" unicode="m" horiz-adv-x="856" 
d="M627 504q78 0 122.5 -39.5t44.5 -109.5v-355h-109v320q0 48 -26 72.5t-68 24.5q-44 0 -75 -30t-31 -101v-286h-109v320q0 48 -26.5 72.5t-68.5 24.5q-41 0 -70.5 -25.5t-34.5 -82.5v-309h-109v494h109v-58q23 32 59.5 50t82.5 18q58 0 98 -22.5t57 -64.5q23 42 62.5 64.5
t91.5 22.5z" />
    <glyph glyph-name="n" unicode="n" horiz-adv-x="579" 
d="M332 504q91 0 138 -46t47 -130v-328h-109v307q0 56 -30 83t-78 27t-83 -28.5t-41 -91.5v-297h-109v494h109v-61q26 34 65.5 52.5t90.5 18.5z" />
    <glyph glyph-name="o" unicode="o" horiz-adv-x="612" 
d="M306 -10q-58 0 -106 18.5t-83 52t-54.5 81t-19.5 106.5t19.5 106t54.5 80.5t83 51.5t106 18t106 -18t82.5 -51.5t54 -80.5t19.5 -106t-19.5 -106.5t-54 -81t-82.5 -52t-106 -18.5zM306 78q34 0 62.5 12.5t48.5 35t31.5 53.5t11.5 69q0 37 -11.5 68t-31.5 53.5t-48.5 35
t-62.5 12.5t-62.5 -12.5t-49 -35t-31.5 -53.5t-11 -68q0 -38 11 -69t31.5 -53.5t49 -35t62.5 -12.5z" />
    <glyph glyph-name="p" unicode="p" horiz-adv-x="628" 
d="M344 504q50 0 94 -18t76 -51t50.5 -80.5t18.5 -106.5t-18.5 -107t-50.5 -81.5t-76 -51.5t-94 -18q-57 0 -101.5 22.5t-67.5 64.5v-320h-109v737h109v-75q23 41 67.5 63t101.5 22zM322 81q33 0 60.5 12t48 33.5t32 52.5t11.5 69t-11.5 68.5t-32 52t-48 33t-60.5 11.5
t-60.5 -11.5t-47.5 -33t-31.5 -52t-11.5 -68.5t11.5 -69t31.5 -52.5t47.5 -33.5t60.5 -12z" />
    <glyph glyph-name="q" unicode="q" horiz-adv-x="628" 
d="M453 494h109v-737h-109v320q-23 -42 -67.5 -64.5t-101.5 -22.5q-50 0 -93.5 18t-76 51.5t-51 81.5t-18.5 107t18.5 106.5t51 80.5t76 51t93.5 18q57 0 101.5 -21.5t67.5 -63.5v75zM306 81q33 0 60.5 12t47.5 33.5t31.5 52.5t11.5 69t-11.5 68.5t-31.5 52t-47.5 33
t-60.5 11.5t-60.5 -11.5t-48 -33t-32 -52t-11.5 -68.5t11.5 -69t32 -52.5t48 -33.5t60.5 -12z" />
    <glyph glyph-name="r" unicode="r" horiz-adv-x="377" 
d="M175 412q23 42 69.5 67t109.5 25v-101q-92 0 -135.5 -39.5t-43.5 -133.5v-230h-109v494h109v-82z" />
    <glyph glyph-name="s" unicode="s" horiz-adv-x="495" 
d="M257 -10q-42 0 -78 9t-64.5 27t-47.5 44.5t-25 60.5l91 25q11 -44 43.5 -65t77.5 -21q39 0 64.5 17t25.5 49q0 20 -9.5 32.5t-26 21t-37.5 14t-44 9.5q-37 7 -68.5 17t-55 26t-36.5 40t-13 59q0 70 52 109.5t137 39.5q35 0 67.5 -7.5t58.5 -23.5t44.5 -39.5t26.5 -56.5
l-96 -21q-11 35 -37.5 52t-66.5 17q-38 0 -62 -15.5t-24 -43.5q0 -16 9.5 -27t25 -18.5t36.5 -13t44 -10.5q40 -9 73 -19.5t57 -27t37 -41.5t13 -63q0 -40 -15.5 -69t-41.5 -48.5t-61 -29t-74 -9.5z" />
    <glyph glyph-name="t" unicode="t" horiz-adv-x="382" 
d="M265 0q-69 0 -106.5 39t-37.5 108v263h-99v84h47q29 0 46.5 15t17.5 60v87h97v-162h114v-84h-114v-247q0 -38 19.5 -56.5t51.5 -18.5h43v-88h-79z" />
    <glyph glyph-name="u" unicode="u" horiz-adv-x="579" 
d="M403 494h109v-494h-109v62q-26 -34 -66 -53t-91 -19q-91 0 -138 46t-47 130v328h109v-307q0 -56 30 -82.5t78 -26.5q52 0 88 33.5t37 106.5v276z" />
    <glyph glyph-name="v" unicode="v" horiz-adv-x="556" 
d="M418 494h119l-210 -494h-98l-210 494h118l141 -366z" />
    <glyph glyph-name="w" unicode="w" horiz-adv-x="860" 
d="M723 494h115l-174 -494h-116l-118 363l-118 -363h-116l-175 494h116l121 -365l126 365h92l126 -365z" />
    <glyph glyph-name="x" unicode="x" horiz-adv-x="590" 
d="M21 0l208 248l-208 246h137l137 -175l136 175h136l-207 -247l207 -247h-136l-136 174l-136 -174h-138z" />
    <glyph glyph-name="y" unicode="y" horiz-adv-x="556" 
d="M418 494h119l-311 -737h-119l114 262l-202 475h118l140 -365z" />
    <glyph glyph-name="z" unicode="z" horiz-adv-x="481" 
d="M452 494l-259 -409h250v-85h-416l258 410h-237v84h404z" />
    <glyph glyph-name="braceleft" unicode="{" horiz-adv-x="324" 
d="M244 -250q-67 0 -105 38t-38 95v231q0 34 -3 57t-10.5 38t-21.5 24t-37 14v73q23 6 37 14.5t21.5 24t10.5 38.5t3 57v231q0 28 10 52t28.5 42t45 28.5t59.5 10.5h55v-80h-35q-26 0 -43 -16.5t-17 -48.5v-216q0 -31 -3 -58t-12 -49.5t-24.5 -39t-41.5 -26.5
q26 -10 41.5 -27t24.5 -39t12 -49t3 -58v-216q0 -32 17 -48.5t43 -16.5h35v-80h-55z" />
    <glyph glyph-name="bar" unicode="|" horiz-adv-x="326" 
d="M109 -150v900h109v-900h-109z" />
    <glyph glyph-name="braceright" unicode="}" horiz-adv-x="324" 
d="M25 -250v80h35q26 0 43 16.5t17 48.5v216q0 31 3 58t12 49t25 39t41 27q-25 10 -41 26.5t-25 39t-12 49.5t-3 58v216q0 32 -17 48.5t-43 16.5h-35v80h55q33 0 59.5 -10.5t45 -28.5t28.5 -42t10 -52v-231q0 -34 3 -57t10.5 -38.5t22 -24t36.5 -14.5v-73q-22 -5 -36.5 -14
t-22 -24t-10.5 -38t-3 -57v-231q0 -57 -38 -95t-105 -38h-55z" />
    <glyph glyph-name="asciitilde" unicode="~" horiz-adv-x="614" 
d="M411 151q-27 0 -48 8t-37.5 20t-29 25.5t-21.5 23.5q-17 18 -31.5 28t-32.5 10q-38 0 -58 -32t-21 -76h-78q0 83 41.5 134.5t117.5 51.5q45 0 73 -20.5t53 -52.5q13 -17 28 -31t38 -14q34 0 57 29t21 79h76q0 -39 -10 -72.5t-29 -58t-46.5 -38.5t-62.5 -14z" />
    <glyph glyph-name="exclamdown" unicode="&#xa1;" horiz-adv-x="256" 
d="M127 504q29 0 48.5 -19.5t19.5 -48.5q0 -28 -19.5 -47.5t-48.5 -19.5q-28 0 -47.5 19.5t-19.5 47.5q0 29 19.5 48.5t47.5 19.5zM83 279h88l11 -485h-110z" />
    <glyph glyph-name="cent" unicode="&#xa2;" horiz-adv-x="579" 
d="M301 180q52 0 87.5 25.5t49.5 74.5l101 -10q-18 -77 -72.5 -122t-132.5 -53v-95h-66v95q-50 5 -91.5 26t-71 54.5t-46 78.5t-16.5 97t16.5 96.5t46 78t71 54.5t91.5 26v93h66v-93q79 -8 133 -53t72 -121l-101 -11q-14 49 -49.5 74.5t-87.5 25.5q-33 0 -60.5 -12.5
t-47 -35t-30.5 -53.5t-11 -69q0 -37 11 -68.5t30.5 -54.5t47 -35.5t60.5 -12.5z" />
    <glyph glyph-name="sterling" unicode="&#xa3;" horiz-adv-x="646" 
d="M480 490q1 7 1.5 13.5t0.5 12.5q0 52 -29.5 78.5t-82.5 26.5q-61 0 -94.5 -37.5t-33.5 -114.5v-90h159v-79h-159v-207h326v-93h-500v67l37 4q38 8 38 50v179h-75v79h75v90q0 55 16 99.5t46 76t72.5 48.5t94.5 17q40 0 76.5 -10.5t64.5 -33t44.5 -57t16.5 -82.5
q0 -8 -0.5 -16t-1.5 -16z" />
    <glyph glyph-name="currency" unicode="&#xa4;" horiz-adv-x="671" 
d="M131 89l-58 61l76 76q-40 57 -40 126q0 33 10 65.5t30 60.5l-75 75l58 62l77 -77q58 40 127 40q68 0 125 -40l77 76l59 -60l-76 -75q20 -29 29.5 -61t9.5 -66q0 -33 -9.5 -65.5t-29.5 -60.5l76 -76l-59 -61l-77 77q-28 -20 -60.5 -29.5t-65.5 -9.5q-70 0 -127 39z
M335 210q30 0 56 11.5t45 31t30 45.5t11 55t-11 55t-30.5 45t-45.5 30t-55 11t-55 -11.5t-45.5 -31t-30.5 -45.5t-11 -55q0 -30 11.5 -56t31 -45t45.5 -29.5t54 -10.5z" />
    <glyph glyph-name="yen" unicode="&#xa5;" horiz-adv-x="602" 
d="M595 699l-198 -305h140v-83h-179v-126h179v-83h-179v-102h-114v102h-180v83h180v126h-180v83h140l-198 305h125l170 -269l169 269h125z" />
    <glyph glyph-name="brokenbar" unicode="&#xa6;" horiz-adv-x="326" 
d="M109 390v360h109v-360h-109zM109 -150v360h109v-360h-109z" />
    <glyph glyph-name="section" unicode="&#xa7;" horiz-adv-x="626" 
d="M329 -191q-45 0 -85 9t-72.5 29t-56 51t-34.5 75l88 23q15 -58 53.5 -84.5t101.5 -26.5q61 0 98.5 28t37.5 80q0 27 -13.5 45t-37 30.5t-53.5 21t-63 16.5q-39 10 -78 22.5t-70.5 33t-51.5 52.5t-20 80q0 72 42 119q-20 19 -31 45t-11 61q0 43 16.5 77.5t46 58.5t71 37
t90.5 13q45 0 85 -9t72.5 -29t56 -51t34.5 -75l-88 -22q-15 58 -53.5 84t-101.5 26q-60 0 -98 -28t-38 -80q0 -27 13.5 -45t37 -30.5t53.5 -21t63 -16.5q39 -10 78 -22.5t70.5 -33t51.5 -52.5t20 -80q0 -37 -10.5 -66.5t-30.5 -52.5q19 -19 30 -44.5t11 -61.5
q0 -43 -16.5 -77.5t-46 -58.5t-70.5 -37t-91 -13zM434 145q25 28 25 70q0 30 -14.5 50t-39.5 33.5t-56.5 22.5t-66.5 18q-24 5 -47.5 12t-41.5 18q-25 -26 -25 -70q0 -30 14.5 -50t39 -33.5t56.5 -22.5t66 -18q24 -5 47.5 -11.5t42.5 -18.5z" />
    <glyph glyph-name="dieresis" unicode="&#xa8;" horiz-adv-x="472" 
d="M141 592q-28 0 -48 20t-20 48t20 47.5t48 19.5t48 -19.5t20 -47.5t-20 -48t-48 -20zM331 592q-28 0 -48 20t-20 48t20 47.5t48 19.5t48 -19.5t20 -47.5t-20 -48t-48 -20z" />
    <glyph glyph-name="copyright" unicode="&#xa9;" horiz-adv-x="848" 
d="M424 -10q-74 0 -139.5 28.5t-114.5 77.5t-77.5 114.5t-28.5 139.5t28.5 139.5t77.5 114.5t114.5 77t139.5 28t139.5 -28.5t114 -77t77 -114t28.5 -139.5t-28 -139.5t-77 -114.5t-114.5 -77.5t-139.5 -28.5zM424 49q63 0 117.5 23.5t95 64.5t64 95.5t23.5 117.5
q0 62 -23.5 117t-64 95.5t-95 64t-117.5 23.5q-62 0 -117 -23.5t-95.5 -64t-64 -95.5t-23.5 -117q0 -63 23.5 -117.5t64 -95.5t95 -64.5t117.5 -23.5zM424 156q-40 0 -75.5 15t-62 41.5t-41.5 61.5t-15 75q0 41 15 76t41.5 61.5t62 41.5t75.5 15q48 0 88 -21.5t67 -57.5
l-48 -34q-18 24 -46 38.5t-61 14.5q-28 0 -52.5 -10.5t-42.5 -28.5t-28.5 -42.5t-10.5 -52.5t10.5 -52t28.5 -42t42.5 -28.5t52.5 -10.5q33 0 61 14.5t46 38.5l48 -35q-27 -35 -67 -56.5t-88 -21.5z" />
    <glyph glyph-name="ordfeminine" unicode="&#xaa;" horiz-adv-x="449" 
d="M308 699h64v-300h-64v47q-19 -24 -46 -38.5t-62 -14.5q-31 0 -58.5 12t-47.5 33t-32 49.5t-12 61.5t12 61.5t32 49.5t47.5 33t58.5 12q35 0 62 -14.5t46 -38.5v47zM211 449q20 0 37.5 8t31 21.5t21 31.5t7.5 39t-7.5 39t-21 31.5t-31 21t-37.5 7.5q-41 0 -69.5 -28.5
t-28.5 -70.5q0 -21 7.5 -39t21 -31.5t31.5 -21.5t38 -8z" />
    <glyph glyph-name="guillemotleft" unicode="&#xab;" horiz-adv-x="525" 
d="M182 64l-152 184l152 184h90l-152 -184l152 -184h-90zM403 64l-152 184l152 184h90l-152 -184l152 -184h-90z" />
    <glyph glyph-name="logicalnot" unicode="&#xac;" horiz-adv-x="734" 
d="M591 89v227h-537v90h626v-317h-89z" />
    <glyph glyph-name="uni00AD" unicode="&#xad;" horiz-adv-x="390" 
d="M20 206v83h350v-83h-350z" />
    <glyph glyph-name="registered" unicode="&#xae;" horiz-adv-x="429" 
d="M214 308q-41 0 -77.5 16t-63.5 43.5t-43 64t-16 77.5t15.5 77.5t42.5 63.5t63.5 43t78.5 16q41 0 77.5 -16t64 -43t43.5 -63.5t16 -77.5t-16 -77.5t-43.5 -64t-64 -43.5t-77.5 -16zM214 346q34 0 63.5 13t51.5 35t35 51.5t13 63.5t-13 64t-35 52t-51.5 34.5t-63.5 12.5
t-64 -13t-52 -35t-34.5 -51.5t-12.5 -63.5t12.5 -63.5t34.5 -51.5t52 -35t64 -13zM138 399v220h98q28 0 46.5 -19t18.5 -47q0 -20 -9.5 -34.5t-25.5 -22.5l41 -97h-44l-36 91h-50v-91h-39zM177 524h51q16 0 24.5 8t8.5 21q0 14 -8.5 22t-24.5 8h-51v-59z" />
    <glyph glyph-name="macron" unicode="&#xaf;" horiz-adv-x="403" 
d="M73 586v71h256v-71h-256z" />
    <glyph glyph-name="degree" unicode="&#xb0;" horiz-adv-x="451" 
d="M226 418q-30 0 -57 11.5t-46.5 31t-31 46.5t-11.5 57t11.5 56.5t31 46t46.5 31t57 11.5t56.5 -11.5t46 -31t31 -46t11.5 -56.5t-11.5 -57t-31 -46.5t-46 -31t-56.5 -11.5zM226 481q35 0 58.5 24t23.5 59t-23.5 58.5t-58.5 23.5t-59 -23.5t-24 -58.5t24 -59t59 -24z" />
    <glyph glyph-name="plusminus" unicode="&#xb1;" horiz-adv-x="585" 
d="M251 156v163h-197v83h197v163h83v-163h196v-83h-196v-163h-83zM54 15v83h476v-83h-476z" />
    <glyph glyph-name="uni00B2" unicode="&#xb2;" horiz-adv-x="335" 
d="M115 458h197v-58h-285v55l169 173q23 23 33 41t10 38q0 29 -19 45t-51 16q-38 0 -58 -20t-20 -59v-21l-65 7v19q0 63 37 98t103 35q61 0 99 -31.5t38 -86.5q0 -31 -13 -58t-45 -60z" />
    <glyph glyph-name="uni00B3" unicode="&#xb3;" horiz-adv-x="344" 
d="M174 392q-73 0 -112 38t-39 108h67q0 -39 20 -63.5t62 -24.5q37 0 58 21.5t21 53.5q0 21 -7.5 35t-19.5 22.5t-27 12t-30 3.5h-14v51h13q31 0 49.5 17.5t18.5 45.5q0 26 -17.5 41.5t-45.5 15.5q-32 0 -51 -21t-19 -56v-3l-66 7q0 62 36.5 96.5t97.5 34.5q56 0 91 -31.5
t35 -77.5q0 -36 -18.5 -59t-41.5 -31q33 -8 57.5 -33.5t24.5 -73.5q0 -57 -39.5 -93t-103.5 -36z" />
    <glyph glyph-name="acute" unicode="&#xb4;" horiz-adv-x="353" 
d="M73 555l91 144h116l-112 -144h-95z" />
    <glyph glyph-name="uni00B5" unicode="&#xb5;" horiz-adv-x="578" 
d="M402 494h109v-494h-103l-4 65q-26 -35 -66.5 -55t-92.5 -20q-21 0 -39.5 2.5t-35.5 7.5v-243h-109v737h109v-307q0 -56 29.5 -82.5t78.5 -26.5q26 0 48.5 8t39 25t26.5 43.5t10 63.5v276z" />
    <glyph glyph-name="paragraph" unicode="&#xb6;" horiz-adv-x="579" 
d="M255 -150v514h-26q-83 0 -130.5 43t-47.5 125t47.5 124.5t130.5 42.5h84v-849h-58zM411 -150v849h59v-849h-59z" />
    <glyph glyph-name="periodcentered" unicode="&#xb7;" horiz-adv-x="329" 
d="M165 281q-27 0 -47.5 20t-20.5 49q0 28 20.5 48.5t47.5 20.5t48 -20.5t21 -48.5q0 -29 -21 -49t-48 -20z" />
    <glyph glyph-name="cedilla" unicode="&#xb8;" horiz-adv-x="357" 
d="M198 -63q39 0 62 -23t23 -60q0 -41 -28 -68t-74 -27q-45 0 -71 16.5t-37 42.5l61 19q6 -14 18.5 -20t26.5 -6q19 0 32.5 11.5t13.5 31.5t-13 30.5t-32 10.5q-23 0 -37 -14l-53 24l71 125l55 -20l-46 -77q13 4 28 4z" />
    <glyph glyph-name="uni00B9" unicode="&#xb9;" horiz-adv-x="229" 
d="M108 819h63v-419h-65v344l-100 -82v75z" />
    <glyph glyph-name="ordmasculine" unicode="&#xba;" horiz-adv-x="412" 
d="M206 397q-34 0 -64 12t-52.5 33t-35 49.5t-12.5 61.5t12.5 61.5t35 49.5t52.5 33t64 12q35 0 65 -12t52 -33t35 -49.5t13 -61.5t-13 -61.5t-35 -49.5t-52 -33t-65 -12zM206 452q21 0 39 8t32 21.5t22 32t8 39.5t-8 39.5t-22 32t-32 21.5t-39 8t-39.5 -8t-32 -21.5
t-21.5 -32t-8 -39.5t8 -39.5t21.5 -32t32 -21.5t39.5 -8z" />
    <glyph glyph-name="guillemotright" unicode="&#xbb;" horiz-adv-x="525" 
d="M122 64h-90l152 184l-152 184h90l152 -184zM343 64h-90l152 184l-152 184h90l152 -184z" />
    <glyph glyph-name="onequarter" unicode="&#xbc;" horiz-adv-x="740" 
d="M106 280v344l-100 -82v75l102 82h63v-419h-65zM487 699h67l-395 -699h-66zM717 146v-58h-47v-88h-65v88h-203v59l170 273h98v-274h47zM465 146h140v229z" />
    <glyph glyph-name="onehalf" unicode="&#xbd;" horiz-adv-x="753" 
d="M106 280v344l-100 -82v75l102 82h63v-419h-65zM487 699h67l-395 -699h-66zM533 58h197v-58h-285v56l169 172q23 23 33 41t10 38q0 29 -19 45.5t-51 16.5q-38 0 -58 -20.5t-20 -59.5v-20l-65 6v19q0 63 37 98t103 35q61 0 99 -31.5t38 -85.5q0 -32 -13 -59t-45 -60z" />
    <glyph glyph-name="threequarters" unicode="&#xbe;" horiz-adv-x="854" 
d="M317 401q0 -57 -39.5 -93t-103.5 -36q-73 0 -112 38t-39 108h67q0 -39 20 -63.5t62 -24.5q37 0 58 21.5t21 53.5q0 21 -7.5 35t-19.5 22.5t-27 12t-30 3.5h-14v51h13q31 0 49.5 17.5t18.5 45.5q0 26 -17.5 41.5t-45.5 15.5q-32 0 -51 -21t-19 -56v-3l-66 7
q0 62 36.5 96.5t97.5 34.5q56 0 91 -31.5t35 -77.5q0 -36 -18.5 -59t-41.5 -31q33 -8 57.5 -33.5t24.5 -73.5zM602 699h67l-395 -699h-66zM832 146v-58h-47v-88h-65v88h-203v59l170 273h98v-274h47zM580 146h140v229z" />
    <glyph glyph-name="questiondown" unicode="&#xbf;" horiz-adv-x="516" 
d="M254 504q28 0 47.5 -19.5t19.5 -47.5t-19.5 -47.5t-47.5 -19.5q-27 0 -47 19.5t-20 47.5t19.5 47.5t47.5 19.5zM299 286v-38q0 -48 -22 -74.5t-58 -49.5q-15 -10 -30 -21t-27.5 -26t-20 -35.5t-7.5 -49.5q0 -57 34 -88t88 -31q58 0 91.5 33.5t33.5 87.5q0 19 -3 35l97 -4
q1 -8 1.5 -17t0.5 -19q0 -45 -16 -83t-45 -65.5t-69.5 -43t-90.5 -15.5t-91.5 14t-71 40.5t-46 63.5t-16.5 84t13 79.5t31.5 55t40 37.5t39.5 27q29 20 42.5 38t13.5 44v21h88z" />
    <glyph glyph-name="Agrave" unicode="&#xc0;" horiz-adv-x="698" 
d="M397 729h-95l-103 131h116zM564 0l-58 158h-314l-58 -158h-121l265 699h142l265 -699h-121zM227 253h244l-122 331z" />
    <glyph glyph-name="Aacute" unicode="&#xc1;" horiz-adv-x="698" 
d="M500 860l-103 -131h-95l82 131h116zM564 0l-58 158h-314l-58 -158h-121l265 699h142l265 -699h-121zM227 253h244l-122 331z" />
    <glyph glyph-name="Acircumflex" unicode="&#xc2;" horiz-adv-x="698" 
d="M349 811l-71 -73h-89l97 122h127l96 -122h-89zM564 0l-58 158h-314l-58 -158h-121l265 699h142l265 -699h-121zM227 253h244l-122 331z" />
    <glyph glyph-name="Atilde" unicode="&#xc3;" horiz-adv-x="698" 
d="M279 807q-20 0 -30 -20.5t-10 -49.5h-56q0 57 27.5 94t74.5 37q35 0 53.5 -15t32.5 -31q11 -13 21 -22.5t28 -9.5q20 0 29.5 20t9.5 51h56q0 -57 -26.5 -94.5t-74.5 -37.5q-35 0 -54 15t-31 31q-11 13 -21.5 22.5t-28.5 9.5zM564 0l-58 158h-314l-58 -158h-121l265 699
h142l265 -699h-121zM227 253h244l-122 331z" />
    <glyph glyph-name="Adieresis" unicode="&#xc4;" horiz-adv-x="698" 
d="M254 743q-28 0 -48 20t-20 48t20 47.5t48 19.5t48 -19.5t20 -47.5t-20 -48t-48 -20zM444 743q-28 0 -48 20t-20 48t20 47.5t48 19.5t48 -19.5t20 -47.5t-20 -48t-48 -20zM564 0l-58 158h-314l-58 -158h-121l265 699h142l265 -699h-121zM227 253h244l-122 331z" />
    <glyph glyph-name="Aring" unicode="&#xc5;" horiz-adv-x="698" 
d="M349 725q-26 0 -48.5 9t-39.5 25t-27 38t-10 49t10 49t27 38t39.5 25t48.5 9t48 -9t39 -25t26.5 -38t9.5 -49t-10 -49t-26.5 -38t-39 -25t-47.5 -9zM349 914q-29 0 -48.5 -19.5t-19.5 -48.5t19.5 -48.5t48.5 -19.5q28 0 48 19.5t20 48.5t-19.5 48.5t-48.5 19.5zM564 0
l-58 158h-314l-58 -158h-121l265 699h142l265 -699h-121zM227 253h244l-122 331z" />
    <glyph glyph-name="AE" unicode="&#xc6;" horiz-adv-x="879" 
d="M13 0l265 699h557v-100h-287v-200h251v-100h-251v-199h287v-100h-400v158h-242l-59 -158h-121zM225 253h210v346h-80z" />
    <glyph glyph-name="Ccedilla" unicode="&#xc7;" horiz-adv-x="752" 
d="M397 92q76 0 133 37t84 103l106 -38q-37 -91 -115 -145.5t-184 -60.5l-33 -55q13 4 28 4q39 0 62 -23t23 -60q0 -41 -28 -68t-74 -27q-45 0 -71 16.5t-37 42.5l61 19q6 -14 18.5 -20t26.5 -6q19 0 32.5 11.5t13.5 31.5t-13 30.5t-32 10.5q-23 0 -37 -14l-53 24l48 84
q-70 7 -127.5 36t-98.5 76t-64 110.5t-23 138.5q0 81 26 147.5t73 114t112 74t143 26.5q115 0 199.5 -55.5t123.5 -150.5l-106 -39q-27 66 -84 103.5t-133 37.5q-53 0 -97.5 -18.5t-76.5 -52.5t-49.5 -81.5t-17.5 -105.5t17.5 -105.5t49.5 -81.5t76.5 -52.5t97.5 -18.5z" />
    <glyph glyph-name="Egrave" unicode="&#xc8;" horiz-adv-x="512" 
d="M324 729h-95l-103 131h116zM468 599h-281v-200h250v-99h-250v-200h281v-100h-395v699h395v-100z" />
    <glyph glyph-name="Eacute" unicode="&#xc9;" horiz-adv-x="512" 
d="M427 860l-103 -131h-95l82 131h116zM468 599h-281v-200h250v-99h-250v-200h281v-100h-395v699h395v-100z" />
    <glyph glyph-name="Ecircumflex" unicode="&#xca;" horiz-adv-x="512" 
d="M276 811l-71 -73h-89l97 122h127l96 -122h-89zM468 599h-281v-200h250v-99h-250v-200h281v-100h-395v699h395v-100z" />
    <glyph glyph-name="Edieresis" unicode="&#xcb;" horiz-adv-x="512" 
d="M181 743q-28 0 -48 20t-20 48t20 47.5t48 19.5t48 -19.5t20 -47.5t-20 -48t-48 -20zM371 743q-28 0 -48 20t-20 48t20 47.5t48 19.5t48 -19.5t20 -47.5t-20 -48t-48 -20zM468 599h-281v-200h250v-99h-250v-200h281v-100h-395v699h395v-100z" />
    <glyph glyph-name="Igrave" unicode="&#xcc;" horiz-adv-x="260" 
d="M82 729l-103 131h116l82 -131h-95zM73 0v699h114v-699h-114z" />
    <glyph glyph-name="Iacute" unicode="&#xcd;" horiz-adv-x="260" 
d="M82 729l82 131h116l-103 -131h-95zM73 0v699h114v-699h-114z" />
    <glyph glyph-name="Icircumflex" unicode="&#xce;" horiz-adv-x="260" 
d="M-31 738l97 122h127l96 -122h-89l-71 73l-71 -73h-89zM73 0v699h114v-699h-114z" />
    <glyph glyph-name="Idieresis" unicode="&#xcf;" horiz-adv-x="260" 
d="M34 743q-28 0 -48 20t-20 48t20 47.5t48 19.5t48 -19.5t20 -47.5t-20 -48t-48 -20zM224 743q-28 0 -48 20t-20 48t20 47.5t48 19.5t48 -19.5t20 -47.5t-20 -48t-48 -20zM73 0v699h114v-699h-114z" />
    <glyph glyph-name="Eth" unicode="&#xd0;" horiz-adv-x="691" 
d="M528 632q60 -45 89 -116t29 -166q0 -96 -29 -167t-89 -115q-45 -34 -107.5 -51t-152.5 -17h-195v315h-77v69h77v315h195q90 0 152.5 -17t107.5 -50zM449 148q84 62 84 202t-84 201q-63 48 -182 48h-81v-215h133v-69h-133v-215h81q119 0 182 48z" />
    <glyph glyph-name="Ntilde" unicode="&#xd1;" horiz-adv-x="746" 
d="M306 807q-20 0 -30 -20.5t-10 -49.5h-56q0 57 27.5 94t74.5 37q35 0 53.5 -15t32.5 -31q11 -13 21 -22.5t28 -9.5q20 0 29.5 20t9.5 51h56q0 -57 -26.5 -94.5t-74.5 -37.5q-35 0 -54 15t-31 31q-11 13 -21.5 22.5t-28.5 9.5zM559 699h114v-699h-139l-347 546v-546h-114
v699h137l349 -544v544z" />
    <glyph glyph-name="Ograve" unicode="&#xd2;" horiz-adv-x="794" 
d="M349 729l-103 131h116l82 -131h-95zM397 -13q-78 0 -143 26.5t-112 74t-73 114.5t-26 148t26 147.5t73 114t112 74t143 26.5t143 -26.5t112 -74t73 -114t26 -147.5t-26 -148t-73 -114.5t-112 -74t-143 -26.5zM397 92q53 0 97 18.5t76 52.5t50 81.5t18 105.5t-18 105.5
t-50 81.5t-76 52.5t-97 18.5t-97.5 -18.5t-76.5 -52.5t-49.5 -81.5t-17.5 -105.5t17.5 -105.5t49.5 -81.5t76.5 -52.5t97.5 -18.5z" />
    <glyph glyph-name="Oacute" unicode="&#xd3;" horiz-adv-x="794" 
d="M349 729l82 131h116l-103 -131h-95zM397 -13q-78 0 -143 26.5t-112 74t-73 114.5t-26 148t26 147.5t73 114t112 74t143 26.5t143 -26.5t112 -74t73 -114t26 -147.5t-26 -148t-73 -114.5t-112 -74t-143 -26.5zM397 92q53 0 97 18.5t76 52.5t50 81.5t18 105.5t-18 105.5
t-50 81.5t-76 52.5t-97 18.5t-97.5 -18.5t-76.5 -52.5t-49.5 -81.5t-17.5 -105.5t17.5 -105.5t49.5 -81.5t76.5 -52.5t97.5 -18.5z" />
    <glyph glyph-name="Ocircumflex" unicode="&#xd4;" horiz-adv-x="794" 
d="M237 738l97 122h127l96 -122h-89l-71 73l-71 -73h-89zM397 -13q-78 0 -143 26.5t-112 74t-73 114.5t-26 148t26 147.5t73 114t112 74t143 26.5t143 -26.5t112 -74t73 -114t26 -147.5t-26 -148t-73 -114.5t-112 -74t-143 -26.5zM397 92q53 0 97 18.5t76 52.5t50 81.5
t18 105.5t-18 105.5t-50 81.5t-76 52.5t-97 18.5t-97.5 -18.5t-76.5 -52.5t-49.5 -81.5t-17.5 -105.5t17.5 -105.5t49.5 -81.5t76.5 -52.5t97.5 -18.5z" />
    <glyph glyph-name="Otilde" unicode="&#xd5;" horiz-adv-x="794" 
d="M461 729q-35 0 -54 15t-31 31q-11 13 -21.5 22.5t-28.5 9.5q-20 0 -30 -20.5t-10 -49.5h-56q0 57 27.5 94t74.5 37q35 0 53.5 -15t32.5 -31q11 -13 21 -22.5t28 -9.5q20 0 29.5 20t9.5 51h56q0 -57 -26.5 -94.5t-74.5 -37.5zM397 -13q-78 0 -143 26.5t-112 74t-73 114.5
t-26 148t26 147.5t73 114t112 74t143 26.5t143 -26.5t112 -74t73 -114t26 -147.5t-26 -148t-73 -114.5t-112 -74t-143 -26.5zM397 92q53 0 97 18.5t76 52.5t50 81.5t18 105.5t-18 105.5t-50 81.5t-76 52.5t-97 18.5t-97.5 -18.5t-76.5 -52.5t-49.5 -81.5t-17.5 -105.5
t17.5 -105.5t49.5 -81.5t76.5 -52.5t97.5 -18.5z" />
    <glyph glyph-name="Odieresis" unicode="&#xd6;" horiz-adv-x="794" 
d="M302 743q-28 0 -48 20t-20 48t20 47.5t48 19.5t48 -19.5t20 -47.5t-20 -48t-48 -20zM492 743q-28 0 -48 20t-20 48t20 47.5t48 19.5t48 -19.5t20 -47.5t-20 -48t-48 -20zM397 -13q-78 0 -143 26.5t-112 74t-73 114.5t-26 148t26 147.5t73 114t112 74t143 26.5t143 -26.5
t112 -74t73 -114t26 -147.5t-26 -148t-73 -114.5t-112 -74t-143 -26.5zM397 92q53 0 97 18.5t76 52.5t50 81.5t18 105.5t-18 105.5t-50 81.5t-76 52.5t-97 18.5t-97.5 -18.5t-76.5 -52.5t-49.5 -81.5t-17.5 -105.5t17.5 -105.5t49.5 -81.5t76.5 -52.5t97.5 -18.5z" />
    <glyph glyph-name="multiply" unicode="&#xd7;" horiz-adv-x="504" 
d="M113 50l-59 59l140 139l-140 139l59 58l139 -138l139 138l59 -58l-139 -139l139 -139l-59 -59l-139 139z" />
    <glyph glyph-name="Oslash" unicode="&#xd8;" horiz-adv-x="794" 
d="M627 635q59 -48 91.5 -121t32.5 -164q0 -81 -26 -148t-73 -114.5t-112 -74t-143 -26.5q-54 0 -101 12.5t-87 35.5l-61 -87l-44 27l63 90q-59 48 -91.5 120.5t-32.5 164.5q0 81 26 147.5t73 114t112 74t143 26.5q54 0 100.5 -12.5t86.5 -35.5l61 87l44 -27zM156 350
q0 -62 19.5 -111t54.5 -83l292 419q-26 16 -58 24.5t-67 8.5q-53 0 -97.5 -18.5t-76.5 -52.5t-49.5 -81.5t-17.5 -105.5zM397 92q53 0 97 18.5t76 52.5t50 81.5t18 105.5q0 61 -20 110t-55 84l-292 -419q27 -16 59 -24.5t67 -8.5z" />
    <glyph glyph-name="Ugrave" unicode="&#xd9;" horiz-adv-x="671" 
d="M287 729l-103 131h116l82 -131h-95zM336 -13q-58 0 -107.5 16.5t-86 48.5t-57 80t-20.5 112v455h114v-441q0 -85 44 -126.5t113 -41.5q68 0 112.5 41.5t44.5 126.5v441h113v-455q0 -64 -20.5 -112t-56.5 -80t-85.5 -48.5t-107.5 -16.5z" />
    <glyph glyph-name="Uacute" unicode="&#xda;" horiz-adv-x="671" 
d="M288 729l82 131h116l-103 -131h-95zM336 -13q-58 0 -107.5 16.5t-86 48.5t-57 80t-20.5 112v455h114v-441q0 -85 44 -126.5t113 -41.5q68 0 112.5 41.5t44.5 126.5v441h113v-455q0 -64 -20.5 -112t-56.5 -80t-85.5 -48.5t-107.5 -16.5z" />
    <glyph glyph-name="Ucircumflex" unicode="&#xdb;" horiz-adv-x="671" 
d="M175 738l97 122h127l96 -122h-89l-71 73l-71 -73h-89zM336 -13q-58 0 -107.5 16.5t-86 48.5t-57 80t-20.5 112v455h114v-441q0 -85 44 -126.5t113 -41.5q68 0 112.5 41.5t44.5 126.5v441h113v-455q0 -64 -20.5 -112t-56.5 -80t-85.5 -48.5t-107.5 -16.5z" />
    <glyph glyph-name="Udieresis" unicode="&#xdc;" horiz-adv-x="671" 
d="M240 743q-28 0 -48 20t-20 48t20 47.5t48 19.5t48 -19.5t20 -47.5t-20 -48t-48 -20zM430 743q-28 0 -48 20t-20 48t20 47.5t48 19.5t48 -19.5t20 -47.5t-20 -48t-48 -20zM336 -13q-58 0 -107.5 16.5t-86 48.5t-57 80t-20.5 112v455h114v-441q0 -85 44 -126.5t113 -41.5
q68 0 112.5 41.5t44.5 126.5v441h113v-455q0 -64 -20.5 -112t-56.5 -80t-85.5 -48.5t-107.5 -16.5z" />
    <glyph glyph-name="Yacute" unicode="&#xdd;" horiz-adv-x="602" 
d="M451 860l-103 -131h-95l82 131h116zM595 699l-237 -369v-330h-114v328l-238 371h125l170 -272l169 272h125z" />
    <glyph glyph-name="Thorn" unicode="&#xde;" horiz-adv-x="593" 
d="M492 553q32 -26 50 -67.5t18 -98.5q0 -66 -25 -118.5t-77 -80.5q-37 -20 -80 -24.5t-82 -4.5h-110v-159h-113v699h113v-95h110q133 0 196 -51zM397 276q50 29 50 105q0 35 -11.5 60.5t-31.5 41.5q-23 16 -55 20.5t-68 4.5h-95v-254h95q32 0 64 4t52 18z" />
    <glyph glyph-name="germandbls" unicode="&#xdf;" horiz-adv-x="673" 
d="M443 -10q-43 0 -80 9t-66 26.5t-48.5 43.5t-25.5 61l91 25q11 -46 43 -67t79 -21q42 0 69.5 17.5t27.5 53.5q0 21 -10 35t-26.5 23t-37 14.5t-42.5 10.5q-36 8 -65 17.5t-50 24t-32 36t-11 53.5q0 33 11.5 55.5t30 38.5t41 27t43.5 21q18 9 35 18t30 20t20.5 25t7.5 32
q0 39 -32.5 61.5t-95.5 22.5q-56 0 -90.5 -17.5t-53 -47.5t-25 -70.5t-6.5 -87.5v-450h-109v467q0 80 20 136t57 91t89.5 50.5t117.5 15.5q110 0 170.5 -49.5t60.5 -131.5q0 -36 -12.5 -60.5t-32 -41t-43 -27.5t-46.5 -20q-32 -14 -55 -28t-23 -40q0 -27 25.5 -37.5
t66.5 -20.5q38 -9 70.5 -19.5t56 -28t37 -43t13.5 -64.5q0 -41 -15.5 -71t-42 -49.5t-62 -29t-75.5 -9.5z" />
    <glyph glyph-name="agrave" unicode="&#xe0;" horiz-adv-x="539" 
d="M316 555h-95l-112 144h117zM528 86v-86h-51q-38 0 -62.5 16.5t-24.5 53.5v11h-5q-26 -43 -73.5 -67t-113.5 -24q-31 0 -59 7.5t-49 24t-33 41.5t-12 60q0 38 15 65t40.5 45.5t60 30.5t74.5 19l89 17q16 3 28.5 10.5t12.5 25.5q0 45 -26.5 67t-71.5 22q-96 0 -107 -92
l-109 15q13 77 68 116.5t150 39.5q100 0 152.5 -46.5t52.5 -134.5v-190q0 -26 8 -36.5t28 -10.5h18zM228 75q63 0 103 43t40 117l-131 -30q-86 -15 -86 -72q0 -28 19.5 -43t54.5 -15z" />
    <glyph glyph-name="aacute" unicode="&#xe1;" horiz-adv-x="539" 
d="M421 699l-112 -144h-95l91 144h116zM528 86v-86h-51q-38 0 -62.5 16.5t-24.5 53.5v11h-5q-26 -43 -73.5 -67t-113.5 -24q-31 0 -59 7.5t-49 24t-33 41.5t-12 60q0 38 15 65t40.5 45.5t60 30.5t74.5 19l89 17q16 3 28.5 10.5t12.5 25.5q0 45 -26.5 67t-71.5 22
q-96 0 -107 -92l-109 15q13 77 68 116.5t150 39.5q100 0 152.5 -46.5t52.5 -134.5v-190q0 -26 8 -36.5t28 -10.5h18zM228 75q63 0 103 43t40 117l-131 -30q-86 -15 -86 -72q0 -28 19.5 -43t54.5 -15z" />
    <glyph glyph-name="acircumflex" unicode="&#xe2;" horiz-adv-x="539" 
d="M265 646l-69 -91h-89l96 144h124l96 -144h-90zM528 86v-86h-51q-38 0 -62.5 16.5t-24.5 53.5v11h-5q-26 -43 -73.5 -67t-113.5 -24q-31 0 -59 7.5t-49 24t-33 41.5t-12 60q0 38 15 65t40.5 45.5t60 30.5t74.5 19l89 17q16 3 28.5 10.5t12.5 25.5q0 45 -26.5 67t-71.5 22
q-96 0 -107 -92l-109 15q13 77 68 116.5t150 39.5q100 0 152.5 -46.5t52.5 -134.5v-190q0 -26 8 -36.5t28 -10.5h18zM228 75q63 0 103 43t40 117l-131 -30q-86 -15 -86 -72q0 -28 19.5 -43t54.5 -15z" />
    <glyph glyph-name="atilde" unicode="&#xe3;" horiz-adv-x="539" 
d="M195 628q-20 0 -30 -20.5t-10 -49.5h-56q0 57 27.5 94.5t74.5 37.5q35 0 53.5 -15t32.5 -32q11 -13 21 -22t28 -9q20 0 29.5 20t9.5 50h56q0 -57 -26.5 -94t-74.5 -37q-35 0 -54 15t-31 30q-11 14 -21.5 23t-28.5 9zM528 86v-86h-51q-38 0 -62.5 16.5t-24.5 53.5v11h-5
q-26 -43 -73.5 -67t-113.5 -24q-31 0 -59 7.5t-49 24t-33 41.5t-12 60q0 38 15 65t40.5 45.5t60 30.5t74.5 19l89 17q16 3 28.5 10.5t12.5 25.5q0 45 -26.5 67t-71.5 22q-96 0 -107 -92l-109 15q13 77 68 116.5t150 39.5q100 0 152.5 -46.5t52.5 -134.5v-190q0 -26 8 -36.5
t28 -10.5h18zM228 75q63 0 103 43t40 117l-131 -30q-86 -15 -86 -72q0 -28 19.5 -43t54.5 -15z" />
    <glyph glyph-name="adieresis" unicode="&#xe4;" horiz-adv-x="539" 
d="M170 592q-28 0 -48 20t-20 48t20 47.5t48 19.5t48 -19.5t20 -47.5t-20 -48t-48 -20zM360 592q-28 0 -48 20t-20 48t20 47.5t48 19.5t48 -19.5t20 -47.5t-20 -48t-48 -20zM528 86v-86h-51q-38 0 -62.5 16.5t-24.5 53.5v11h-5q-26 -43 -73.5 -67t-113.5 -24q-31 0 -59 7.5
t-49 24t-33 41.5t-12 60q0 38 15 65t40.5 45.5t60 30.5t74.5 19l89 17q16 3 28.5 10.5t12.5 25.5q0 45 -26.5 67t-71.5 22q-96 0 -107 -92l-109 15q13 77 68 116.5t150 39.5q100 0 152.5 -46.5t52.5 -134.5v-190q0 -26 8 -36.5t28 -10.5h18zM228 75q63 0 103 43t40 117
l-131 -30q-86 -15 -86 -72q0 -28 19.5 -43t54.5 -15z" />
    <glyph glyph-name="aring" unicode="&#xe5;" horiz-adv-x="539" 
d="M265 553q-27 0 -48.5 9t-37.5 25t-24.5 37t-8.5 45t8.5 45t24.5 36.5t37.5 25t48.5 9.5q26 0 48 -9.5t37.5 -25t24 -36.5t8.5 -45t-8.5 -45t-24 -37t-37.5 -25t-48 -9zM265 730q-26 0 -43.5 -17t-17.5 -44q0 -26 17.5 -43.5t43.5 -17.5t44 17.5t18 43.5q0 27 -18 44
t-44 17zM528 86v-86h-51q-38 0 -62.5 16.5t-24.5 53.5v11h-5q-26 -43 -73.5 -67t-113.5 -24q-31 0 -59 7.5t-49 24t-33 41.5t-12 60q0 38 15 65t40.5 45.5t60 30.5t74.5 19l89 17q16 3 28.5 10.5t12.5 25.5q0 45 -26.5 67t-71.5 22q-96 0 -107 -92l-109 15q13 77 68 116.5
t150 39.5q100 0 152.5 -46.5t52.5 -134.5v-190q0 -26 8 -36.5t28 -10.5h18zM228 75q63 0 103 43t40 117l-131 -30q-86 -15 -86 -72q0 -28 19.5 -43t54.5 -15z" />
    <glyph glyph-name="ae" unicode="&#xe6;" horiz-adv-x="906" 
d="M861 225h-393q5 -71 47 -110t104 -39q45 0 78.5 21t50.5 60l100 -15q-26 -72 -86.5 -112t-142.5 -40q-73 0 -129 27.5t-89 78.5q-35 -57 -88 -81.5t-110 -24.5q-34 0 -63 7.5t-50 24t-33 41.5t-12 60q0 38 15 65t40.5 45.5t60.5 30.5t74 19l89 17q23 5 32.5 14t9.5 23
q0 48 -30 70t-75 22q-48 0 -77 -22t-35 -74l-98 15q14 81 67 118.5t151 37.5q51 0 95 -14.5t70 -52.5q34 32 80 49.5t102 17.5q53 0 98 -16.5t77.5 -48.5t51.5 -79.5t19 -109.5zM616 418q-57 0 -94.5 -26.5t-48.5 -83.5h279q-9 54 -45.5 82t-90.5 28zM232 75q19 0 40 5.5
t39.5 18t33.5 32t22 47.5q-3 14 -4.5 29t-2.5 32l-109 -22q-99 -18 -99 -79q0 -30 21.5 -46.5t58.5 -16.5z" />
    <glyph glyph-name="ccedilla" unicode="&#xe7;" horiz-adv-x="579" 
d="M301 76q52 0 87.5 26t49.5 75l101 -11q-18 -78 -76 -124t-140 -51l-34 -58q13 4 28 4q39 0 62 -23t23 -60q0 -41 -28 -68t-74 -27q-45 0 -71 16.5t-37 42.5l61 19q6 -14 18.5 -20t26.5 -6q19 0 32.5 11.5t13.5 31.5t-13 30.5t-32 10.5q-23 0 -37 -14l-53 24l50 88
q-48 7 -88 28.5t-68.5 54.5t-44 77t-15.5 95q0 57 19 104t53.5 80.5t82 52.5t104.5 19q91 0 154 -45.5t83 -129.5l-101 -11q-14 49 -49.5 74.5t-87.5 25.5q-33 0 -60.5 -12.5t-47 -35t-30.5 -54t-11 -68.5q0 -38 11 -69.5t30.5 -54.5t47 -35.5t60.5 -12.5z" />
    <glyph glyph-name="egrave" unicode="&#xe8;" horiz-adv-x="589" 
d="M346 555h-95l-112 144h117zM544 225h-393q5 -71 47 -110t104 -39q45 0 78.5 21t50.5 60l100 -15q-25 -72 -86 -112t-143 -40q-58 0 -106 18t-81.5 51.5t-52 81t-18.5 106.5t19 106.5t52.5 81t80.5 51.5t103 18q53 0 98 -16.5t78 -48.5t51.5 -79.5t18.5 -109.5zM300 418
q-57 0 -95 -26.5t-49 -83.5h279q-8 54 -45 82t-90 28z" />
    <glyph glyph-name="eacute" unicode="&#xe9;" horiz-adv-x="589" 
d="M451 699l-112 -144h-95l91 144h116zM544 225h-393q5 -71 47 -110t104 -39q45 0 78.5 21t50.5 60l100 -15q-25 -72 -86 -112t-143 -40q-58 0 -106 18t-81.5 51.5t-52 81t-18.5 106.5t19 106.5t52.5 81t80.5 51.5t103 18q53 0 98 -16.5t78 -48.5t51.5 -79.5t18.5 -109.5z
M300 418q-57 0 -95 -26.5t-49 -83.5h279q-8 54 -45 82t-90 28z" />
    <glyph glyph-name="ecircumflex" unicode="&#xea;" horiz-adv-x="589" 
d="M295 646l-69 -91h-89l96 144h124l96 -144h-90zM544 225h-393q5 -71 47 -110t104 -39q45 0 78.5 21t50.5 60l100 -15q-25 -72 -86 -112t-143 -40q-58 0 -106 18t-81.5 51.5t-52 81t-18.5 106.5t19 106.5t52.5 81t80.5 51.5t103 18q53 0 98 -16.5t78 -48.5t51.5 -79.5
t18.5 -109.5zM300 418q-57 0 -95 -26.5t-49 -83.5h279q-8 54 -45 82t-90 28z" />
    <glyph glyph-name="edieresis" unicode="&#xeb;" horiz-adv-x="589" 
d="M200 592q-28 0 -48 20t-20 48t20 47.5t48 19.5t48 -19.5t20 -47.5t-20 -48t-48 -20zM390 592q-28 0 -48 20t-20 48t20 47.5t48 19.5t48 -19.5t20 -47.5t-20 -48t-48 -20zM544 225h-393q5 -71 47 -110t104 -39q45 0 78.5 21t50.5 60l100 -15q-25 -72 -86 -112t-143 -40
q-58 0 -106 18t-81.5 51.5t-52 81t-18.5 106.5t19 106.5t52.5 81t80.5 51.5t103 18q53 0 98 -16.5t78 -48.5t51.5 -79.5t18.5 -109.5zM300 418q-57 0 -95 -26.5t-49 -83.5h279q-8 54 -45 82t-90 28z" />
    <glyph glyph-name="igrave" unicode="&#xec;" horiz-adv-x="240" 
d="M76 555l-112 144h117l90 -144h-95zM66 0v494h109v-494h-109z" />
    <glyph glyph-name="iacute" unicode="&#xed;" horiz-adv-x="240" 
d="M69 555l91 144h116l-112 -144h-95zM66 0v494h109v-494h-109z" />
    <glyph glyph-name="icircumflex" unicode="&#xee;" horiz-adv-x="240" 
d="M-38 555l96 144h124l96 -144h-90l-68 91l-69 -91h-89zM66 0v494h109v-494h-109z" />
    <glyph glyph-name="idieresis" unicode="&#xef;" horiz-adv-x="240" 
d="M25 592q-28 0 -48 20t-20 48t20 47.5t48 19.5t48 -19.5t20 -47.5t-20 -48t-48 -20zM215 592q-28 0 -48 20t-20 48t20 47.5t48 19.5t48 -19.5t20 -47.5t-20 -48t-48 -20zM66 0v494h109v-494h-109z" />
    <glyph glyph-name="eth" unicode="&#xf0;" horiz-adv-x="626" 
d="M518 417q25 -34 40.5 -76t15.5 -93q0 -59 -19.5 -106.5t-54 -81t-82.5 -52t-106 -18.5t-106 18.5t-83 52t-54.5 81t-19.5 106.5t19.5 106.5t54.5 80.5t83.5 51t106.5 18h9.5t9.5 -1l-82 106l-131 -33l-10 33l118 30l-85 111h123l64 -84l113 29l9 -34l-99 -25zM312 77
q34 0 62.5 12.5t48.5 35t31.5 54t11.5 69.5q0 36 -11 67t-31 53.5t-48.5 35.5t-63.5 13q-34 0 -63 -12.5t-49 -35t-31.5 -53.5t-11.5 -68q0 -38 11.5 -69.5t31.5 -54t49 -35t63 -12.5z" />
    <glyph glyph-name="ntilde" unicode="&#xf1;" horiz-adv-x="579" 
d="M215 628q-20 0 -30 -20.5t-10 -49.5h-56q0 57 27.5 94.5t74.5 37.5q35 0 53.5 -15t32.5 -32q11 -13 21 -22t28 -9q20 0 29.5 20t9.5 50h56q0 -57 -26.5 -94t-74.5 -37q-35 0 -54 15t-31 30q-11 14 -21.5 23t-28.5 9zM332 504q91 0 138 -46t47 -130v-328h-109v307
q0 56 -30 83t-78 27t-83 -28.5t-41 -91.5v-297h-109v494h109v-61q26 34 65.5 52.5t90.5 18.5z" />
    <glyph glyph-name="ograve" unicode="&#xf2;" horiz-adv-x="612" 
d="M263 555l-112 144h117l90 -144h-95zM306 -10q-58 0 -106 18.5t-83 52t-54.5 81t-19.5 106.5t19.5 106t54.5 80.5t83 51.5t106 18t106 -18t82.5 -51.5t54 -80.5t19.5 -106t-19.5 -106.5t-54 -81t-82.5 -52t-106 -18.5zM306 78q34 0 62.5 12.5t48.5 35t31.5 53.5t11.5 69
q0 37 -11.5 68t-31.5 53.5t-48.5 35t-62.5 12.5t-62.5 -12.5t-49 -35t-31.5 -53.5t-11 -68q0 -38 11 -69t31.5 -53.5t49 -35t62.5 -12.5z" />
    <glyph glyph-name="oacute" unicode="&#xf3;" horiz-adv-x="612" 
d="M256 555l91 144h116l-112 -144h-95zM306 -10q-58 0 -106 18.5t-83 52t-54.5 81t-19.5 106.5t19.5 106t54.5 80.5t83 51.5t106 18t106 -18t82.5 -51.5t54 -80.5t19.5 -106t-19.5 -106.5t-54 -81t-82.5 -52t-106 -18.5zM306 78q34 0 62.5 12.5t48.5 35t31.5 53.5t11.5 69
q0 37 -11.5 68t-31.5 53.5t-48.5 35t-62.5 12.5t-62.5 -12.5t-49 -35t-31.5 -53.5t-11 -68q0 -38 11 -69t31.5 -53.5t49 -35t62.5 -12.5z" />
    <glyph glyph-name="ocircumflex" unicode="&#xf4;" horiz-adv-x="612" 
d="M149 555l96 144h124l96 -144h-90l-68 91l-69 -91h-89zM306 -10q-58 0 -106 18.5t-83 52t-54.5 81t-19.5 106.5t19.5 106t54.5 80.5t83 51.5t106 18t106 -18t82.5 -51.5t54 -80.5t19.5 -106t-19.5 -106.5t-54 -81t-82.5 -52t-106 -18.5zM306 78q34 0 62.5 12.5t48.5 35
t31.5 53.5t11.5 69q0 37 -11.5 68t-31.5 53.5t-48.5 35t-62.5 12.5t-62.5 -12.5t-49 -35t-31.5 -53.5t-11 -68q0 -38 11 -69t31.5 -53.5t49 -35t62.5 -12.5z" />
    <glyph glyph-name="otilde" unicode="&#xf5;" horiz-adv-x="612" 
d="M371 551q-35 0 -54 15t-31 30q-11 14 -21.5 23t-28.5 9q-20 0 -30 -20.5t-10 -49.5h-56q0 57 27.5 94.5t74.5 37.5q35 0 53.5 -15t32.5 -32q11 -13 21 -22t28 -9q20 0 29.5 20t9.5 50h56q0 -57 -26.5 -94t-74.5 -37zM306 -10q-58 0 -106 18.5t-83 52t-54.5 81
t-19.5 106.5t19.5 106t54.5 80.5t83 51.5t106 18t106 -18t82.5 -51.5t54 -80.5t19.5 -106t-19.5 -106.5t-54 -81t-82.5 -52t-106 -18.5zM306 78q34 0 62.5 12.5t48.5 35t31.5 53.5t11.5 69q0 37 -11.5 68t-31.5 53.5t-48.5 35t-62.5 12.5t-62.5 -12.5t-49 -35t-31.5 -53.5
t-11 -68q0 -38 11 -69t31.5 -53.5t49 -35t62.5 -12.5z" />
    <glyph glyph-name="odieresis" unicode="&#xf6;" horiz-adv-x="612" 
d="M212 592q-28 0 -48 20t-20 48t20 47.5t48 19.5t48 -19.5t20 -47.5t-20 -48t-48 -20zM402 592q-28 0 -48 20t-20 48t20 47.5t48 19.5t48 -19.5t20 -47.5t-20 -48t-48 -20zM306 -10q-58 0 -106 18.5t-83 52t-54.5 81t-19.5 106.5t19.5 106t54.5 80.5t83 51.5t106 18
t106 -18t82.5 -51.5t54 -80.5t19.5 -106t-19.5 -106.5t-54 -81t-82.5 -52t-106 -18.5zM306 78q34 0 62.5 12.5t48.5 35t31.5 53.5t11.5 69q0 37 -11.5 68t-31.5 53.5t-48.5 35t-62.5 12.5t-62.5 -12.5t-49 -35t-31.5 -53.5t-11 -68q0 -38 11 -69t31.5 -53.5t49 -35
t62.5 -12.5z" />
    <glyph glyph-name="divide" unicode="&#xf7;" horiz-adv-x="608" 
d="M301 374q-24 0 -42.5 17.5t-18.5 43.5q0 24 18.5 42.5t42.5 18.5q25 0 43 -18.5t18 -42.5q0 -26 -18 -43.5t-43 -17.5zM54 206v83h500v-83h-500zM301 -1q-24 0 -42.5 17.5t-18.5 43.5q0 25 18.5 43t42.5 18q25 0 43 -18t18 -43q0 -26 -18 -43.5t-43 -17.5z" />
    <glyph glyph-name="oslash" unicode="&#xf8;" horiz-adv-x="612" 
d="M478 449q43 -34 66.5 -84.5t23.5 -116.5q0 -59 -19.5 -106.5t-54 -81t-82.5 -52t-106 -18.5q-70 0 -128 28l-47 -67l-44 27l47 67q-43 34 -67 85.5t-24 117.5q0 59 19.5 106t54.5 80.5t83 51.5t106 18q71 0 129 -28l47 68l44 -27zM152 248q0 -74 40 -120l189 271
q-17 8 -35.5 13t-39.5 5q-34 0 -62.5 -12.5t-49 -35t-31.5 -53.5t-11 -68zM306 78q34 0 62.5 12.5t48.5 35t31.5 53.5t11.5 69q0 72 -40 118l-188 -270q32 -18 74 -18z" />
    <glyph glyph-name="ugrave" unicode="&#xf9;" horiz-adv-x="579" 
d="M337 555h-95l-112 144h117zM403 494h109v-494h-109v62q-26 -34 -66 -53t-91 -19q-91 0 -138 46t-47 130v328h109v-307q0 -56 30 -82.5t78 -26.5q52 0 88 33.5t37 106.5v276z" />
    <glyph glyph-name="uacute" unicode="&#xfa;" horiz-adv-x="579" 
d="M442 699l-112 -144h-95l91 144h116zM403 494h109v-494h-109v62q-26 -34 -66 -53t-91 -19q-91 0 -138 46t-47 130v328h109v-307q0 -56 30 -82.5t78 -26.5q52 0 88 33.5t37 106.5v276z" />
    <glyph glyph-name="ucircumflex" unicode="&#xfb;" horiz-adv-x="579" 
d="M286 646l-69 -91h-89l96 144h124l96 -144h-90zM403 494h109v-494h-109v62q-26 -34 -66 -53t-91 -19q-91 0 -138 46t-47 130v328h109v-307q0 -56 30 -82.5t78 -26.5q52 0 88 33.5t37 106.5v276z" />
    <glyph glyph-name="udieresis" unicode="&#xfc;" horiz-adv-x="579" 
d="M191 592q-28 0 -48 20t-20 48t20 47.5t48 19.5t48 -19.5t20 -47.5t-20 -48t-48 -20zM381 592q-28 0 -48 20t-20 48t20 47.5t48 19.5t48 -19.5t20 -47.5t-20 -48t-48 -20zM403 494h109v-494h-109v62q-26 -34 -66 -53t-91 -19q-91 0 -138 46t-47 130v328h109v-307
q0 -56 30 -82.5t78 -26.5q52 0 88 33.5t37 106.5v276z" />
    <glyph glyph-name="yacute" unicode="&#xfd;" horiz-adv-x="556" 
d="M437 699l-112 -144h-95l91 144h116zM418 494h119l-311 -737h-119l114 262l-202 475h118l140 -365z" />
    <glyph glyph-name="thorn" unicode="&#xfe;" horiz-adv-x="628" 
d="M344 504q50 0 94 -18t76 -51.5t50.5 -81t18.5 -107.5q0 -59 -18.5 -107t-50.5 -81.5t-76 -51.5t-94 -18q-57 0 -101.5 22.5t-67.5 64.5v-318h-109v993h109v-333q23 42 67.5 64.5t101.5 22.5zM323 79q33 0 60.5 12t47.5 33.5t31.5 52.5t11.5 69t-11.5 69t-31.5 52.5
t-47.5 33.5t-60.5 12t-60.5 -12t-48 -33.5t-32 -52.5t-11.5 -69t11.5 -69t32 -52.5t48 -33.5t60.5 -12z" />
    <glyph glyph-name="ydieresis" unicode="&#xff;" horiz-adv-x="556" 
d="M186 592q-28 0 -48 20t-20 48t20 47.5t48 19.5t48 -19.5t20 -47.5t-20 -48t-48 -20zM376 592q-28 0 -48 20t-20 48t20 47.5t48 19.5t48 -19.5t20 -47.5t-20 -48t-48 -20zM418 494h119l-311 -737h-119l114 262l-202 475h118l140 -365z" />
    <glyph glyph-name="Amacron" unicode="&#x100;" horiz-adv-x="698" 
d="M510 843v-71h-321v71h321zM564 0l-58 158h-314l-58 -158h-121l265 699h142l265 -699h-121zM227 253h244l-122 331z" />
    <glyph glyph-name="amacron" unicode="&#x101;" horiz-adv-x="539" 
d="M393 657v-71h-256v71h256zM528 86v-86h-51q-38 0 -62.5 16.5t-24.5 53.5v11h-5q-26 -43 -73.5 -67t-113.5 -24q-31 0 -59 7.5t-49 24t-33 41.5t-12 60q0 38 15 65t40.5 45.5t60 30.5t74.5 19l89 17q16 3 28.5 10.5t12.5 25.5q0 45 -26.5 67t-71.5 22q-96 0 -107 -92
l-109 15q13 77 68 116.5t150 39.5q100 0 152.5 -46.5t52.5 -134.5v-190q0 -26 8 -36.5t28 -10.5h18zM228 75q63 0 103 43t40 117l-131 -30q-86 -15 -86 -72q0 -28 19.5 -43t54.5 -15z" />
    <glyph glyph-name="Abreve" unicode="&#x102;" horiz-adv-x="698" 
d="M349 734q-37 0 -67.5 6t-53 21t-36 39t-15.5 60h71q5 -37 29.5 -53t71.5 -16q48 0 72.5 16t29.5 53h70q-2 -36 -15.5 -60t-36 -39t-53 -21t-67.5 -6zM564 0l-58 158h-314l-58 -158h-121l265 699h142l265 -699h-121zM227 253h244l-122 331z" />
    <glyph glyph-name="abreve" unicode="&#x103;" horiz-adv-x="539" 
d="M264 545q-78 0 -125.5 36.5t-47.5 117.5h79q0 -45 24 -69.5t70 -24.5q48 0 72 24.5t24 69.5h79q0 -81 -47.5 -117.5t-127.5 -36.5zM528 86v-86h-51q-38 0 -62.5 16.5t-24.5 53.5v11h-5q-26 -43 -73.5 -67t-113.5 -24q-31 0 -59 7.5t-49 24t-33 41.5t-12 60q0 38 15 65
t40.5 45.5t60 30.5t74.5 19l89 17q16 3 28.5 10.5t12.5 25.5q0 45 -26.5 67t-71.5 22q-96 0 -107 -92l-109 15q13 77 68 116.5t150 39.5q100 0 152.5 -46.5t52.5 -134.5v-190q0 -26 8 -36.5t28 -10.5h18zM228 75q63 0 103 43t40 117l-131 -30q-86 -15 -86 -72
q0 -28 19.5 -43t54.5 -15z" />
    <glyph glyph-name="Aogonek" unicode="&#x104;" horiz-adv-x="698" 
d="M592 -112q0 -16 13 -24.5t35 -8.5q25 0 45 13v-70q-31 -11 -68 -11q-41 0 -69.5 16.5t-28.5 51.5q0 36 31.5 73.5t77.5 71.5h-64l-58 158h-314l-58 -158h-121l265 699h142l265 -699q-41 -25 -67 -56t-26 -56zM227 253h244l-122 331z" />
    <glyph glyph-name="aogonek" unicode="&#x105;" horiz-adv-x="539" 
d="M528 0q-41 -25 -67 -56t-26 -56q0 -16 13 -24.5t35 -8.5q25 0 45 13v-70q-31 -11 -68 -11q-41 0 -69.5 16.5t-28.5 51.5q0 36 31.5 73.5t78.5 71.5q-37 2 -59.5 18.5t-22.5 51.5v11h-5q-26 -43 -73.5 -67t-113.5 -24q-31 0 -59 7.5t-49 24t-33 41.5t-12 60q0 38 15 65
t40.5 45.5t60 30.5t74.5 19l89 17q16 3 28.5 10.5t12.5 25.5q0 45 -26.5 67t-71.5 22q-96 0 -107 -92l-109 15q13 77 68 116.5t150 39.5q100 0 152.5 -46.5t52.5 -134.5v-190q0 -26 8 -36.5t28 -10.5h18v-86zM228 75q63 0 103 43t40 117l-131 -30q-86 -15 -86 -72
q0 -28 19.5 -43t54.5 -15z" />
    <glyph glyph-name="Cacute" unicode="&#x106;" horiz-adv-x="752" 
d="M349 729l82 131h116l-103 -131h-95zM397 -13q-78 0 -143 26.5t-112 74t-73 114.5t-26 148t26 147.5t73 114t112 74t143 26.5q115 0 199.5 -55.5t123.5 -150.5l-106 -39q-27 66 -84 103.5t-133 37.5q-53 0 -97.5 -18.5t-76.5 -52.5t-49.5 -81.5t-17.5 -105.5t17.5 -105.5
t49.5 -81.5t76.5 -52.5t97.5 -18.5q76 0 133 37t84 103l106 -38q-39 -96 -123.5 -151.5t-199.5 -55.5z" />
    <glyph glyph-name="cacute" unicode="&#x107;" horiz-adv-x="579" 
d="M246 555l91 144h116l-112 -144h-95zM302 -10q-57 0 -104.5 19t-82 53t-53.5 81.5t-19 104.5t19 104t53.5 80.5t82 52.5t104.5 19q91 0 154 -45.5t83 -129.5l-101 -11q-14 49 -49.5 74.5t-87.5 25.5q-33 0 -60.5 -12.5t-47 -35t-30.5 -54t-11 -68.5q0 -38 11 -69.5
t30.5 -54.5t47 -35.5t60.5 -12.5q52 0 87.5 26t49.5 75l101 -11q-20 -84 -83.5 -130t-153.5 -46z" />
    <glyph glyph-name="Cdotaccent" unicode="&#x10a;" horiz-adv-x="752" 
d="M397 743q-28 0 -48 20t-20 48t20 47.5t48 19.5t48 -19.5t20 -47.5t-20 -48t-48 -20zM397 -13q-78 0 -143 26.5t-112 74t-73 114.5t-26 148t26 147.5t73 114t112 74t143 26.5q115 0 199.5 -55.5t123.5 -150.5l-106 -39q-27 66 -84 103.5t-133 37.5q-53 0 -97.5 -18.5
t-76.5 -52.5t-49.5 -81.5t-17.5 -105.5t17.5 -105.5t49.5 -81.5t76.5 -52.5t97.5 -18.5q76 0 133 37t84 103l106 -38q-39 -96 -123.5 -151.5t-199.5 -55.5z" />
    <glyph glyph-name="cdotaccent" unicode="&#x10b;" horiz-adv-x="579" 
d="M298 592q-28 0 -48 20t-20 48t20 47.5t48 19.5t48 -19.5t20 -47.5t-20 -48t-48 -20zM302 -10q-57 0 -104.5 19t-82 53t-53.5 81.5t-19 104.5t19 104t53.5 80.5t82 52.5t104.5 19q91 0 154 -45.5t83 -129.5l-101 -11q-14 49 -49.5 74.5t-87.5 25.5q-33 0 -60.5 -12.5
t-47 -35t-30.5 -54t-11 -68.5q0 -38 11 -69.5t30.5 -54.5t47 -35.5t60.5 -12.5q52 0 87.5 26t49.5 75l101 -11q-20 -84 -83.5 -130t-153.5 -46z" />
    <glyph glyph-name="Ccaron" unicode="&#x10c;" horiz-adv-x="752" 
d="M334 738l-97 122h89l71 -73l71 73h89l-96 -122h-127zM397 -13q-78 0 -143 26.5t-112 74t-73 114.5t-26 148t26 147.5t73 114t112 74t143 26.5q115 0 199.5 -55.5t123.5 -150.5l-106 -39q-27 66 -84 103.5t-133 37.5q-53 0 -97.5 -18.5t-76.5 -52.5t-49.5 -81.5
t-17.5 -105.5t17.5 -105.5t49.5 -81.5t76.5 -52.5t97.5 -18.5q76 0 133 37t84 103l106 -38q-39 -96 -123.5 -151.5t-199.5 -55.5z" />
    <glyph glyph-name="ccaron" unicode="&#x10d;" horiz-adv-x="579" 
d="M235 555l-96 144h89l69 -91l68 91h90l-96 -144h-124zM302 -10q-57 0 -104.5 19t-82 53t-53.5 81.5t-19 104.5t19 104t53.5 80.5t82 52.5t104.5 19q91 0 154 -45.5t83 -129.5l-101 -11q-14 49 -49.5 74.5t-87.5 25.5q-33 0 -60.5 -12.5t-47 -35t-30.5 -54t-11 -68.5
q0 -38 11 -69.5t30.5 -54.5t47 -35.5t60.5 -12.5q52 0 87.5 26t49.5 75l101 -11q-20 -84 -83.5 -130t-153.5 -46z" />
    <glyph glyph-name="Dcaron" unicode="&#x10e;" horiz-adv-x="691" 
d="M217 738l-97 122h89l71 -73l71 73h89l-96 -122h-127zM73 0v699h195q90 0 152.5 -17t107.5 -50q60 -45 89 -116t29 -166q0 -96 -29 -167t-89 -115q-45 -34 -107.5 -51t-152.5 -17h-195zM186 100h81q119 0 182 48q84 62 84 202t-84 201q-63 48 -182 48h-81v-499z" />
    <glyph glyph-name="dcaron" unicode="&#x10f;" horiz-adv-x="775" 
d="M452 750h109v-750h-104l-3 80q-23 -44 -68.5 -67t-102.5 -23q-50 0 -93.5 18t-76 51t-51 80.5t-18.5 107.5q0 59 18.5 106.5t51 81t76 51.5t93.5 18q56 0 101 -22.5t68 -64.5v333zM697 699h111l-92 -313h-79zM305 81q33 0 60.5 11.5t47.5 33t31.5 52.5t11.5 69
t-11.5 68.5t-31.5 52t-47.5 33.5t-60.5 12t-61 -12t-48 -33.5t-31.5 -52t-11.5 -68.5t11.5 -69t31.5 -52.5t48 -33t61 -11.5z" />
    <glyph glyph-name="Dcroat" unicode="&#x110;" horiz-adv-x="691" 
d="M528 632q60 -45 89 -116t29 -166q0 -96 -29 -167t-89 -115q-45 -34 -107.5 -51t-152.5 -17h-195v315h-77v69h77v315h195q90 0 152.5 -17t107.5 -50zM449 148q84 62 84 202t-84 201q-63 48 -182 48h-81v-215h133v-69h-133v-215h81q119 0 182 48z" />
    <glyph glyph-name="dcroat" unicode="&#x111;" horiz-adv-x="628" 
d="M636 653v-69h-75v-584h-109v76q-23 -42 -68 -64t-101 -22q-50 0 -93.5 18t-76 51t-51 80.5t-18.5 107.5q0 59 18.5 106.5t51 81t76 51.5t93.5 18q56 0 101 -22.5t68 -64.5v167h-139v69h139v97h109v-97h75zM305 81q33 0 60.5 11.5t47.5 33t31.5 52.5t11.5 69t-11.5 68.5
t-31.5 52t-47.5 33.5t-60.5 12t-61 -12t-48 -33.5t-31.5 -52t-11.5 -68.5t11.5 -69t31.5 -52.5t48 -33t61 -11.5z" />
    <glyph glyph-name="Emacron" unicode="&#x112;" horiz-adv-x="512" 
d="M437 843v-71h-321v71h321zM468 599h-281v-200h250v-99h-250v-200h281v-100h-395v699h395v-100z" />
    <glyph glyph-name="emacron" unicode="&#x113;" horiz-adv-x="589" 
d="M423 657v-71h-256v71h256zM544 225h-393q5 -71 47 -110t104 -39q45 0 78.5 21t50.5 60l100 -15q-25 -72 -86 -112t-143 -40q-58 0 -106 18t-81.5 51.5t-52 81t-18.5 106.5t19 106.5t52.5 81t80.5 51.5t103 18q53 0 98 -16.5t78 -48.5t51.5 -79.5t18.5 -109.5zM300 418
q-57 0 -95 -26.5t-49 -83.5h279q-8 54 -45 82t-90 28z" />
    <glyph glyph-name="Ebreve" unicode="&#x114;" horiz-adv-x="512" 
d="M276 734q-37 0 -67.5 6t-53 21t-36 39t-15.5 60h71q5 -37 29.5 -53t71.5 -16q48 0 72.5 16t29.5 53h70q-2 -36 -15.5 -60t-36 -39t-53 -21t-67.5 -6zM468 599h-281v-200h250v-99h-250v-200h281v-100h-395v699h395v-100z" />
    <glyph glyph-name="ebreve" unicode="&#x115;" horiz-adv-x="589" 
d="M294 545q-78 0 -125.5 36.5t-47.5 117.5h79q0 -45 24 -69.5t70 -24.5q48 0 72 24.5t24 69.5h79q0 -81 -47.5 -117.5t-127.5 -36.5zM544 225h-393q5 -71 47 -110t104 -39q45 0 78.5 21t50.5 60l100 -15q-25 -72 -86 -112t-143 -40q-58 0 -106 18t-81.5 51.5t-52 81
t-18.5 106.5t19 106.5t52.5 81t80.5 51.5t103 18q53 0 98 -16.5t78 -48.5t51.5 -79.5t18.5 -109.5zM300 418q-57 0 -95 -26.5t-49 -83.5h279q-8 54 -45 82t-90 28z" />
    <glyph glyph-name="Edotaccent" unicode="&#x116;" horiz-adv-x="512" 
d="M277 743q-28 0 -48 20t-20 48t20 47.5t48 19.5t48 -19.5t20 -47.5t-20 -48t-48 -20zM468 599h-281v-200h250v-99h-250v-200h281v-100h-395v699h395v-100z" />
    <glyph glyph-name="edotaccent" unicode="&#x117;" horiz-adv-x="589" 
d="M295 592q-28 0 -48 20t-20 48t20 47.5t48 19.5t48 -19.5t20 -47.5t-20 -48t-48 -20zM544 225h-393q5 -71 47 -110t104 -39q45 0 78.5 21t50.5 60l100 -15q-25 -72 -86 -112t-143 -40q-58 0 -106 18t-81.5 51.5t-52 81t-18.5 106.5t19 106.5t52.5 81t80.5 51.5t103 18
q53 0 98 -16.5t78 -48.5t51.5 -79.5t18.5 -109.5zM300 418q-57 0 -95 -26.5t-49 -83.5h279q-8 54 -45 82t-90 28z" />
    <glyph glyph-name="Eogonek" unicode="&#x118;" horiz-adv-x="512" 
d="M468 599h-281v-200h250v-99h-250v-200h281v-100q-41 -25 -67 -56t-26 -56q0 -16 13 -24.5t35 -8.5q25 0 45 13v-70q-31 -11 -68 -11q-41 0 -69.5 16.5t-28.5 51.5q0 36 31.5 73.5t77.5 71.5h-338v699h395v-100z" />
    <glyph glyph-name="eogonek" unicode="&#x119;" horiz-adv-x="589" 
d="M544 225h-393q5 -71 47 -110t104 -39q45 0 78.5 21t50.5 60l100 -15q-19 -55 -59 -91.5t-96 -51.5q-40 -25 -66 -55.5t-26 -55.5q0 -16 13 -24.5t35 -8.5q25 0 45 13v-70q-31 -11 -68 -11q-41 0 -69.5 16.5t-28.5 51.5q0 33 27 68t69 67h-5q-58 0 -106 18t-81.5 51.5
t-52 81t-18.5 106.5t19 106.5t52.5 81t80.5 51.5t103 18q53 0 98 -16.5t78 -48.5t51.5 -79.5t18.5 -109.5zM300 418q-57 0 -95 -26.5t-49 -83.5h279q-8 54 -45 82t-90 28z" />
    <glyph glyph-name="Ecaron" unicode="&#x11a;" horiz-adv-x="512" 
d="M340 738h-127l-97 122h89l71 -73l71 73h89zM468 599h-281v-200h250v-99h-250v-200h281v-100h-395v699h395v-100z" />
    <glyph glyph-name="ecaron" unicode="&#x11b;" horiz-adv-x="589" 
d="M357 555h-124l-96 144h89l69 -91l68 91h90zM544 225h-393q5 -71 47 -110t104 -39q45 0 78.5 21t50.5 60l100 -15q-25 -72 -86 -112t-143 -40q-58 0 -106 18t-81.5 51.5t-52 81t-18.5 106.5t19 106.5t52.5 81t80.5 51.5t103 18q53 0 98 -16.5t78 -48.5t51.5 -79.5
t18.5 -109.5zM300 418q-57 0 -95 -26.5t-49 -83.5h279q-8 54 -45 82t-90 28z" />
    <glyph glyph-name="Gcircumflex" unicode="&#x11c;" horiz-adv-x="783" 
d="M234 738l97 122h127l96 -122h-89l-71 73l-71 -73h-89zM391 -13q-77 0 -141 26.5t-110 74t-71.5 114.5t-25.5 148t26 147.5t73 114t112 74t143 26.5q103 0 182 -45t124 -124l-99 -53q-30 56 -84 87t-123 31q-53 0 -97.5 -18.5t-76.5 -52.5t-49.5 -81.5t-17.5 -105.5
t17 -105.5t48.5 -81.5t76 -52.5t99.5 -18.5q86 0 144.5 48.5t75.5 139.5h-216v92h327v-372h-90v130q-32 -65 -93.5 -104t-153.5 -39z" />
    <glyph glyph-name="gcircumflex" unicode="&#x11d;" horiz-adv-x="616" 
d="M309 646l-69 -91h-89l96 144h124l96 -144h-90zM440 494h109v-486q0 -133 -67.5 -195.5t-183.5 -62.5q-100 0 -160 42t-86 112l91 38q22 -52 59 -79.5t92 -27.5q75 0 110.5 44.5t35.5 120.5v93q-22 -38 -66.5 -62t-101.5 -24q-48 0 -89.5 18t-72.5 51t-49 79t-18 102
t18 101.5t49 78t73 50t90 17.5q58 0 101 -24t66 -63v77zM297 96q33 0 60.5 12t47.5 33.5t31 51t11 64.5t-11 64.5t-31 50.5t-47.5 33t-60.5 12q-32 0 -59.5 -12t-47.5 -33t-31 -50.5t-11 -64.5t11 -64.5t31 -51t47.5 -33.5t59.5 -12z" />
    <glyph glyph-name="Gbreve" unicode="&#x11e;" horiz-adv-x="783" 
d="M394 734q-37 0 -67.5 6t-53 21t-36 39t-15.5 60h71q5 -37 29.5 -53t71.5 -16q48 0 72.5 16t29.5 53h70q-2 -36 -15.5 -60t-36 -39t-53 -21t-67.5 -6zM391 -13q-77 0 -141 26.5t-110 74t-71.5 114.5t-25.5 148t26 147.5t73 114t112 74t143 26.5q103 0 182 -45t124 -124
l-99 -53q-30 56 -84 87t-123 31q-53 0 -97.5 -18.5t-76.5 -52.5t-49.5 -81.5t-17.5 -105.5t17 -105.5t48.5 -81.5t76 -52.5t99.5 -18.5q86 0 144.5 48.5t75.5 139.5h-216v92h327v-372h-90v130q-32 -65 -93.5 -104t-153.5 -39z" />
    <glyph glyph-name="gbreve" unicode="&#x11f;" horiz-adv-x="616" 
d="M308 545q-78 0 -125.5 36.5t-47.5 117.5h79q0 -45 24 -69.5t70 -24.5q48 0 72 24.5t24 69.5h79q0 -81 -47.5 -117.5t-127.5 -36.5zM440 494h109v-486q0 -133 -67.5 -195.5t-183.5 -62.5q-100 0 -160 42t-86 112l91 38q22 -52 59 -79.5t92 -27.5q75 0 110.5 44.5
t35.5 120.5v93q-22 -38 -66.5 -62t-101.5 -24q-48 0 -89.5 18t-72.5 51t-49 79t-18 102t18 101.5t49 78t73 50t90 17.5q58 0 101 -24t66 -63v77zM297 96q33 0 60.5 12t47.5 33.5t31 51t11 64.5t-11 64.5t-31 50.5t-47.5 33t-60.5 12q-32 0 -59.5 -12t-47.5 -33t-31 -50.5
t-11 -64.5t11 -64.5t31 -51t47.5 -33.5t59.5 -12z" />
    <glyph glyph-name="Gdotaccent" unicode="&#x120;" horiz-adv-x="783" 
d="M395 743q-28 0 -48 20t-20 48t20 47.5t48 19.5t48 -19.5t20 -47.5t-20 -48t-48 -20zM391 -13q-77 0 -141 26.5t-110 74t-71.5 114.5t-25.5 148t26 147.5t73 114t112 74t143 26.5q103 0 182 -45t124 -124l-99 -53q-30 56 -84 87t-123 31q-53 0 -97.5 -18.5t-76.5 -52.5
t-49.5 -81.5t-17.5 -105.5t17 -105.5t48.5 -81.5t76 -52.5t99.5 -18.5q86 0 144.5 48.5t75.5 139.5h-216v92h327v-372h-90v130q-32 -65 -93.5 -104t-153.5 -39z" />
    <glyph glyph-name="gdotaccent" unicode="&#x121;" horiz-adv-x="616" 
d="M309 592q-28 0 -48 20t-20 48t20 47.5t48 19.5t48 -19.5t20 -47.5t-20 -48t-48 -20zM440 494h109v-486q0 -133 -67.5 -195.5t-183.5 -62.5q-100 0 -160 42t-86 112l91 38q22 -52 59 -79.5t92 -27.5q75 0 110.5 44.5t35.5 120.5v93q-22 -38 -66.5 -62t-101.5 -24
q-48 0 -89.5 18t-72.5 51t-49 79t-18 102t18 101.5t49 78t73 50t90 17.5q58 0 101 -24t66 -63v77zM297 96q33 0 60.5 12t47.5 33.5t31 51t11 64.5t-11 64.5t-31 50.5t-47.5 33t-60.5 12q-32 0 -59.5 -12t-47.5 -33t-31 -50.5t-11 -64.5t11 -64.5t31 -51t47.5 -33.5t59.5 -12
z" />
    <glyph glyph-name="uni0122" unicode="&#x122;" horiz-adv-x="783" 
d="M391 -13q-77 0 -141 26.5t-110 74t-71.5 114.5t-25.5 148t26 147.5t73 114t112 74t143 26.5q103 0 182 -45t124 -124l-99 -53q-30 56 -84 87t-123 31q-53 0 -97.5 -18.5t-76.5 -52.5t-49.5 -81.5t-17.5 -105.5t17 -105.5t48.5 -81.5t76 -52.5t99.5 -18.5q86 0 144.5 48.5
t75.5 139.5h-216v92h327v-372h-90v130q-32 -65 -93.5 -104t-153.5 -39zM250 -174l96 144h94l-112 -144h-78z" />
    <glyph glyph-name="uni0123" unicode="&#x123;" horiz-adv-x="616" 
d="M451 699l-96 -144h-94l112 144h78zM440 494h109v-486q0 -133 -67.5 -195.5t-183.5 -62.5q-100 0 -160 42t-86 112l91 38q22 -52 59 -79.5t92 -27.5q75 0 110.5 44.5t35.5 120.5v93q-22 -38 -66.5 -62t-101.5 -24q-48 0 -89.5 18t-72.5 51t-49 79t-18 102t18 101.5t49 78
t73 50t90 17.5q58 0 101 -24t66 -63v77zM297 96q33 0 60.5 12t47.5 33.5t31 51t11 64.5t-11 64.5t-31 50.5t-47.5 33t-60.5 12q-32 0 -59.5 -12t-47.5 -33t-31 -50.5t-11 -64.5t11 -64.5t31 -51t47.5 -33.5t59.5 -12z" />
    <glyph glyph-name="Hcircumflex" unicode="&#x124;" horiz-adv-x="713" 
d="M197 738l97 122h127l96 -122h-89l-71 73l-71 -73h-89zM73 0v699h114v-299h340v299h114v-699h-114v301h-340v-301h-114z" />
    <glyph glyph-name="hcircumflex" unicode="&#x125;" horiz-adv-x="579" 
d="M290 862l-71 -73h-89l97 122h127l96 -122h-89zM338 504q87 0 133 -47.5t46 -139.5v-317h-109v301q0 60 -29.5 88t-79.5 28q-24 0 -46.5 -8t-39.5 -24.5t-27.5 -43t-10.5 -64.5v-277h-109v750h109v-322q26 35 67.5 55.5t95.5 20.5z" />
    <glyph glyph-name="Hbar" unicode="&#x126;" horiz-adv-x="713" 
d="M706 572v-46h-65v-526h-114v301h-340v-301h-114v526h-64v46h64v127h114v-127h340v127h114v-127h65zM527 400v126h-340v-126h340z" />
    <glyph glyph-name="hbar" unicode="&#x127;" horiz-adv-x="579" 
d="M338 504q87 0 133 -47.5t46 -139.5v-317h-109v301q0 60 -29.5 88t-79.5 28q-24 0 -46.5 -8t-39.5 -24.5t-27.5 -43t-10.5 -64.5v-277h-109v584h-62v69h62v97h109v-97h152v-69h-152v-156q26 35 67.5 55.5t95.5 20.5z" />
    <glyph glyph-name="Itilde" unicode="&#x128;" horiz-adv-x="260" 
d="M194 729q-35 0 -54 15t-31 31q-11 13 -21.5 22.5t-28.5 9.5q-20 0 -30 -20.5t-10 -49.5h-56q0 57 27.5 94t74.5 37q35 0 53.5 -15t32.5 -31q11 -13 21 -22.5t28 -9.5q20 0 29.5 20t9.5 51h56q0 -57 -26.5 -94.5t-74.5 -37.5zM73 0v699h114v-699h-114z" />
    <glyph glyph-name="itilde" unicode="&#x129;" horiz-adv-x="240" 
d="M185 551q-35 0 -54 15t-31 30q-11 14 -21.5 23t-28.5 9q-20 0 -30 -20.5t-10 -49.5h-56q0 57 27 94.5t75 37.5q35 0 53.5 -15t32.5 -32q11 -13 21 -22t28 -9q20 0 29.5 20t9.5 50h56q0 -57 -26.5 -94t-74.5 -37zM66 0v494h109v-494h-109z" />
    <glyph glyph-name="Imacron" unicode="&#x12a;" horiz-adv-x="260" 
d="M-32 772v71h321v-71h-321zM73 0v699h114v-699h-114z" />
    <glyph glyph-name="imacron" unicode="&#x12b;" horiz-adv-x="240" 
d="M-8 586v71h256v-71h-256zM66 0v494h109v-494h-109z" />
    <glyph glyph-name="Ibreve" unicode="&#x12c;" horiz-adv-x="260" 
d="M129 734q-37 0 -67.5 6t-53 21t-36 39t-15.5 60h71q5 -37 29.5 -53t71.5 -16q48 0 72.5 16t29.5 53h70q-2 -36 -15.5 -60t-36 -39t-53 -21t-67.5 -6zM73 0v699h114v-699h-114z" />
    <glyph glyph-name="ibreve" unicode="&#x12d;" horiz-adv-x="240" 
d="M119 545q-78 0 -125.5 36.5t-47.5 117.5h79q0 -45 24 -69.5t70 -24.5q48 0 72 24.5t24 69.5h79q0 -81 -47.5 -117.5t-127.5 -36.5zM66 0v494h109v-494h-109z" />
    <glyph glyph-name="Iogonek" unicode="&#x12e;" horiz-adv-x="260" 
d="M187 0q-41 -25 -67 -56t-26 -56q0 -16 13 -24.5t35 -8.5q25 0 45 13v-70q-31 -11 -68 -11q-41 0 -69.5 16.5t-28.5 51.5q0 36 31.5 73.5t77.5 71.5h-57v699h114v-699z" />
    <glyph glyph-name="iogonek" unicode="&#x12f;" horiz-adv-x="240" 
d="M120 592q-28 0 -48 20t-20 48t20 47.5t48 19.5t48 -19.5t20 -47.5t-20 -48t-48 -20zM66 0v494h109v-494q-41 -25 -67 -56t-26 -56q0 -16 13 -24.5t35 -8.5q25 0 45 13v-70q-31 -11 -68 -11q-41 0 -69.5 16.5t-28.5 51.5q0 36 31.5 73.5t77.5 71.5h-52z" />
    <glyph glyph-name="Idotaccent" unicode="&#x130;" horiz-adv-x="260" 
d="M129 743q-28 0 -48 20t-20 48t20 47.5t48 19.5t48 -19.5t20 -47.5t-20 -48t-48 -20zM73 0v699h114v-699h-114z" />
    <glyph glyph-name="dotlessi" unicode="&#x131;" horiz-adv-x="240" 
d="M66 0v494h109v-494h-109z" />
    <glyph glyph-name="IJ" unicode="&#x132;" horiz-adv-x="705" 
d="M73 0v699h114v-699h-114zM440 -13q-42 0 -84 11.5t-86 37.5l48 92q26 -17 52.5 -26.5t55.5 -9.5q47 0 72 30.5t25 95.5v481h113v-501q0 -50 -14.5 -89.5t-40 -66.5t-61.5 -41t-80 -14z" />
    <glyph glyph-name="ij" unicode="&#x133;" horiz-adv-x="478" 
d="M120 592q-28 0 -48 20t-20 48t20 47.5t48 19.5t48 -19.5t20 -47.5t-20 -48t-48 -20zM357 592q-29 0 -48.5 20t-19.5 48t19.5 47.5t48.5 19.5q27 0 47 -19.5t20 -47.5t-20 -48t-47 -20zM66 0v494h109v-494h-109zM183 -158q36 0 59 8t36.5 26.5t18.5 48.5t5 73v496h109
v-496q0 -63 -12.5 -108.5t-39.5 -75t-70.5 -43.5t-105.5 -14v85z" />
    <glyph glyph-name="Jcircumflex" unicode="&#x134;" horiz-adv-x="445" 
d="M159 738l97 122h127l96 -122h-89l-71 73l-71 -73h-89zM180 -13q-42 0 -84 11.5t-86 37.5l48 92q26 -17 52.5 -26.5t55.5 -9.5q47 0 72 30.5t25 95.5v481h113v-501q0 -50 -14.5 -89.5t-40 -66.5t-61.5 -41t-80 -14z" />
    <glyph glyph-name="jcircumflex" unicode="&#x135;" horiz-adv-x="238" 
d="M-42 555l96 144h124l96 -144h-90l-68 91l-69 -91h-89zM-57 -158q36 0 59 8t36.5 26.5t18.5 48.5t5 73v496h109v-496q0 -63 -12.5 -108.5t-39.5 -75t-70.5 -43.5t-105.5 -14v85z" />
    <glyph glyph-name="uni0136" unicode="&#x136;" horiz-adv-x="657" 
d="M345 365l298 -365h-142l-251 313h-63v-313h-114v699h114v-288h60l247 288h139zM176 -174l96 144h94l-112 -144h-78z" />
    <glyph glyph-name="uni0137" unicode="&#x137;" horiz-adv-x="551" 
d="M299 262l233 -262h-132l-192 218h-33v-218h-109v750h109v-456h32l184 200h125zM124 -174l96 144h94l-112 -144h-78z" />
    <glyph glyph-name="kgreenlandic" unicode="&#x138;" horiz-adv-x="552" 
d="M299 262l233 -262h-132l-192 218h-32v-218h-109v494h109v-200h31l185 200h124z" />
    <glyph glyph-name="Lacute" unicode="&#x139;" horiz-adv-x="440" 
d="M82 729l82 131h116l-103 -131h-95zM73 0v699h114v-599h239v-100h-353z" />
    <glyph glyph-name="lacute" unicode="&#x13a;" horiz-adv-x="241" 
d="M70 811l91 144h116l-112 -144h-95zM66 0v750h109v-750h-109z" />
    <glyph glyph-name="uni013B" unicode="&#x13b;" horiz-adv-x="440" 
d="M73 0v699h114v-599h239v-100h-353zM92 -174l96 144h94l-112 -144h-78z" />
    <glyph glyph-name="uni013C" unicode="&#x13c;" horiz-adv-x="241" 
d="M66 0v750h109v-750h-109zM-23 -174l96 144h94l-112 -144h-78z" />
    <glyph glyph-name="Lcaron" unicode="&#x13d;" horiz-adv-x="461" 
d="M73 0v699h114v-599h239v-100h-353zM301 386l61 313h111l-92 -313h-80z" />
    <glyph glyph-name="lcaron" unicode="&#x13e;" horiz-adv-x="393" 
d="M66 0v750h109v-750h-109zM254 386l60 313h111l-92 -313h-79z" />
    <glyph glyph-name="Ldot" unicode="&#x13f;" horiz-adv-x="496" 
d="M73 0v699h114v-599h239v-100h-353zM406 281q-28 0 -48.5 19.5t-20.5 48.5q0 28 20.5 48.5t48.5 20.5q27 0 48 -20.5t21 -48.5q0 -29 -21 -48.5t-48 -19.5z" />
    <glyph glyph-name="ldot" unicode="&#x140;" horiz-adv-x="391" 
d="M66 0v750h109v-750h-109zM331 306q-28 0 -48.5 20t-20.5 49q0 28 20.5 48.5t48.5 20.5q27 0 48 -20.5t21 -48.5q0 -29 -21 -49t-48 -20z" />
    <glyph glyph-name="Lslash" unicode="&#x141;" horiz-adv-x="440" 
d="M187 100h239v-100h-353v248l-68 -50v93l68 51v357h114v-272l112 83v-94l-112 -83v-233z" />
    <glyph glyph-name="lslash" unicode="&#x142;" horiz-adv-x="241" 
d="M267 510v-94l-92 -68v-348h-109v267l-93 -69v93l93 69v390h109v-309z" />
    <glyph glyph-name="Nacute" unicode="&#x143;" horiz-adv-x="746" 
d="M527 860l-103 -131h-95l82 131h116zM559 699h114v-699h-139l-347 546v-546h-114v699h137l349 -544v544z" />
    <glyph glyph-name="nacute" unicode="&#x144;" horiz-adv-x="579" 
d="M442 699l-112 -144h-95l91 144h116zM332 504q91 0 138 -46t47 -130v-328h-109v307q0 56 -30 83t-78 27t-83 -28.5t-41 -91.5v-297h-109v494h109v-61q26 34 65.5 52.5t90.5 18.5z" />
    <glyph glyph-name="uni0145" unicode="&#x145;" horiz-adv-x="746" 
d="M559 699h114v-699h-139l-347 546v-546h-114v699h137l349 -544v544zM233 -174l96 144h94l-112 -144h-78z" />
    <glyph glyph-name="uni0146" unicode="&#x146;" horiz-adv-x="579" 
d="M332 504q91 0 138 -46t47 -130v-328h-109v307q0 56 -30 83t-78 27t-83 -28.5t-41 -91.5v-297h-109v494h109v-61q26 34 65.5 52.5t90.5 18.5zM142 -174l96 144h94l-112 -144h-78z" />
    <glyph glyph-name="Ncaron" unicode="&#x147;" horiz-adv-x="746" 
d="M440 738h-127l-97 122h89l71 -73l71 73h89zM559 699h114v-699h-139l-347 546v-546h-114v699h137l349 -544v544z" />
    <glyph glyph-name="ncaron" unicode="&#x148;" horiz-adv-x="579" 
d="M348 555h-124l-96 144h89l69 -91l68 91h90zM332 504q91 0 138 -46t47 -130v-328h-109v307q0 56 -30 83t-78 27t-83 -28.5t-41 -91.5v-297h-109v494h109v-61q26 34 65.5 52.5t90.5 18.5z" />
    <glyph glyph-name="napostrophe" unicode="&#x149;" horiz-adv-x="743" 
d="M57 386l61 313h111l-92 -313h-80zM496 504q91 0 138 -46t47 -130v-328h-109v307q0 56 -30 83t-79 27q-52 0 -88 -33t-36 -107v-277h-109v494h109v-62q26 34 66 53t91 19z" />
    <glyph glyph-name="Eng" unicode="&#x14a;" horiz-adv-x="746" 
d="M559 699h114v-715q0 -113 -55 -167t-162 -54v85q49 0 71 24t22 85q0 19 -15 43l-347 544v-544h-114v699h137l349 -542v542z" />
    <glyph glyph-name="eng" unicode="&#x14b;" horiz-adv-x="579" 
d="M332 504q91 0 138 -46t47 -130v-330q0 -63 -12.5 -108.5t-39.5 -75t-70.5 -43.5t-105.5 -14v85q36 0 59.5 8t36.5 26.5t18 48.5t5 73v309q0 56 -30 83t-78 27t-83 -28.5t-41 -91.5v-297h-109v494h109v-61q26 34 65.5 52.5t90.5 18.5z" />
    <glyph glyph-name="Omacron" unicode="&#x14c;" horiz-adv-x="794" 
d="M236 772v71h321v-71h-321zM397 -13q-78 0 -143 26.5t-112 74t-73 114.5t-26 148t26 147.5t73 114t112 74t143 26.5t143 -26.5t112 -74t73 -114t26 -147.5t-26 -148t-73 -114.5t-112 -74t-143 -26.5zM397 92q53 0 97 18.5t76 52.5t50 81.5t18 105.5t-18 105.5t-50 81.5
t-76 52.5t-97 18.5t-97.5 -18.5t-76.5 -52.5t-49.5 -81.5t-17.5 -105.5t17.5 -105.5t49.5 -81.5t76.5 -52.5t97.5 -18.5z" />
    <glyph glyph-name="omacron" unicode="&#x14d;" horiz-adv-x="612" 
d="M179 586v71h256v-71h-256zM306 -10q-58 0 -106 18.5t-83 52t-54.5 81t-19.5 106.5t19.5 106t54.5 80.5t83 51.5t106 18t106 -18t82.5 -51.5t54 -80.5t19.5 -106t-19.5 -106.5t-54 -81t-82.5 -52t-106 -18.5zM306 78q34 0 62.5 12.5t48.5 35t31.5 53.5t11.5 69
q0 37 -11.5 68t-31.5 53.5t-48.5 35t-62.5 12.5t-62.5 -12.5t-49 -35t-31.5 -53.5t-11 -68q0 -38 11 -69t31.5 -53.5t49 -35t62.5 -12.5z" />
    <glyph glyph-name="Obreve" unicode="&#x14e;" horiz-adv-x="794" 
d="M396 734q-37 0 -67.5 6t-53 21t-36 39t-15.5 60h71q5 -37 29.5 -53t71.5 -16q48 0 72.5 16t29.5 53h70q-2 -36 -15.5 -60t-36 -39t-53 -21t-67.5 -6zM397 -13q-78 0 -143 26.5t-112 74t-73 114.5t-26 148t26 147.5t73 114t112 74t143 26.5t143 -26.5t112 -74t73 -114
t26 -147.5t-26 -148t-73 -114.5t-112 -74t-143 -26.5zM397 92q53 0 97 18.5t76 52.5t50 81.5t18 105.5t-18 105.5t-50 81.5t-76 52.5t-97 18.5t-97.5 -18.5t-76.5 -52.5t-49.5 -81.5t-17.5 -105.5t17.5 -105.5t49.5 -81.5t76.5 -52.5t97.5 -18.5z" />
    <glyph glyph-name="obreve" unicode="&#x14f;" horiz-adv-x="612" 
d="M306 545q-78 0 -125.5 36.5t-47.5 117.5h79q0 -45 24 -69.5t70 -24.5q48 0 72 24.5t24 69.5h79q0 -81 -47.5 -117.5t-127.5 -36.5zM306 -10q-58 0 -106 18.5t-83 52t-54.5 81t-19.5 106.5t19.5 106t54.5 80.5t83 51.5t106 18t106 -18t82.5 -51.5t54 -80.5t19.5 -106
t-19.5 -106.5t-54 -81t-82.5 -52t-106 -18.5zM306 78q34 0 62.5 12.5t48.5 35t31.5 53.5t11.5 69q0 37 -11.5 68t-31.5 53.5t-48.5 35t-62.5 12.5t-62.5 -12.5t-49 -35t-31.5 -53.5t-11 -68q0 -38 11 -69t31.5 -53.5t49 -35t62.5 -12.5z" />
    <glyph glyph-name="Ohungarumlaut" unicode="&#x150;" horiz-adv-x="794" 
d="M262 729l88 131h110l-103 -131h-95zM437 729l88 131h110l-103 -131h-95zM397 -13q-78 0 -143 26.5t-112 74t-73 114.5t-26 148t26 147.5t73 114t112 74t143 26.5t143 -26.5t112 -74t73 -114t26 -147.5t-26 -148t-73 -114.5t-112 -74t-143 -26.5zM397 92q53 0 97 18.5
t76 52.5t50 81.5t18 105.5t-18 105.5t-50 81.5t-76 52.5t-97 18.5t-97.5 -18.5t-76.5 -52.5t-49.5 -81.5t-17.5 -105.5t17.5 -105.5t49.5 -81.5t76.5 -52.5t97.5 -18.5z" />
    <glyph glyph-name="ohungarumlaut" unicode="&#x151;" horiz-adv-x="612" 
d="M172 555l96 144h111l-112 -144h-95zM347 555l96 144h111l-113 -144h-94zM306 -10q-58 0 -106 18.5t-83 52t-54.5 81t-19.5 106.5t19.5 106t54.5 80.5t83 51.5t106 18t106 -18t82.5 -51.5t54 -80.5t19.5 -106t-19.5 -106.5t-54 -81t-82.5 -52t-106 -18.5zM306 78
q34 0 62.5 12.5t48.5 35t31.5 53.5t11.5 69q0 37 -11.5 68t-31.5 53.5t-48.5 35t-62.5 12.5t-62.5 -12.5t-49 -35t-31.5 -53.5t-11 -68q0 -38 11 -69t31.5 -53.5t49 -35t62.5 -12.5z" />
    <glyph glyph-name="OE" unicode="&#x152;" horiz-adv-x="941" 
d="M421 0q-91 0 -153.5 17t-107.5 51q-59 44 -88 115t-29 167q0 95 29 166t88 116q45 33 107.5 50t153.5 17h476v-100h-281v-200h250v-99h-250v-200h281v-100h-476zM502 100v499h-81q-119 0 -182 -48q-83 -62 -83 -201q0 -140 83 -202q63 -48 182 -48h81z" />
    <glyph glyph-name="oe" unicode="&#x153;" horiz-adv-x="1007" 
d="M962 225h-393q5 -71 47 -110t104 -39q45 0 78.5 21t50.5 60l100 -15q-25 -72 -86 -112t-143 -40q-68 0 -120 23.5t-86 67.5q-35 -44 -88.5 -67t-119.5 -24q-58 0 -106 18.5t-83 52t-54.5 81t-19.5 106.5t19.5 106t54.5 80.5t83 51.5t106 18q66 0 119.5 -23.5t88.5 -67.5
q34 44 85.5 67.5t117.5 23.5q53 0 98 -16.5t78 -48.5t51.5 -79.5t18.5 -109.5zM718 418q-57 0 -95 -26.5t-49 -83.5h279q-9 54 -45.5 82t-89.5 28zM306 78q34 0 62.5 12.5t48.5 35t31.5 53.5t11.5 69q0 37 -11.5 68t-31.5 53.5t-48.5 35t-62.5 12.5t-62.5 -12.5t-49 -35
t-31.5 -53.5t-11 -68q0 -38 11 -69t31.5 -53.5t49 -35t62.5 -12.5z" />
    <glyph glyph-name="Racute" unicode="&#x154;" horiz-adv-x="638" 
d="M451 860l-103 -131h-95l82 131h116zM467 0l-176 254h-104v-254h-114v699h224q71 0 117 -12t78 -38q33 -26 51 -67.5t18 -98.5q0 -66 -25.5 -118.5t-76.5 -81.5q-10 -5 -20.5 -9t-21.5 -7l192 -267h-142zM187 604v-254h95q32 0 63.5 3.5t52.5 17.5q49 31 49 106
q0 70 -43 101q-23 16 -54.5 21t-67.5 5h-95z" />
    <glyph glyph-name="racute" unicode="&#x155;" horiz-adv-x="377" 
d="M331 699l-112 -144h-95l91 144h116zM175 412q23 42 69.5 67t109.5 25v-101q-92 0 -135.5 -39.5t-43.5 -133.5v-230h-109v494h109v-82z" />
    <glyph glyph-name="uni0156" unicode="&#x156;" horiz-adv-x="638" 
d="M609 0h-142l-176 254h-104v-254h-114v699h224q71 0 117 -12t78 -38q33 -26 51 -67.5t18 -98.5q0 -66 -25.5 -118.5t-76.5 -81.5q-10 -5 -20.5 -9t-21.5 -7zM187 604v-254h95q32 0 63.5 3.5t52.5 17.5q49 31 49 106q0 70 -43 101q-23 16 -54.5 21t-67.5 5h-95zM157 -174
l96 144h94l-112 -144h-78z" />
    <glyph glyph-name="uni0157" unicode="&#x157;" horiz-adv-x="377" 
d="M175 412q23 42 69.5 67t109.5 25v-101q-92 0 -135.5 -39.5t-43.5 -133.5v-230h-109v494h109v-82zM-17 -174l96 144h94l-112 -144h-78z" />
    <glyph glyph-name="Rcaron" unicode="&#x158;" horiz-adv-x="638" 
d="M365 738h-127l-97 122h89l71 -73l71 73h89zM467 0l-176 254h-104v-254h-114v699h224q71 0 117 -12t78 -38q33 -26 51 -67.5t18 -98.5q0 -66 -25.5 -118.5t-76.5 -81.5q-10 -5 -20.5 -9t-21.5 -7l192 -267h-142zM187 604v-254h95q32 0 63.5 3.5t52.5 17.5q49 31 49 106
q0 70 -43 101q-23 16 -54.5 21t-67.5 5h-95z" />
    <glyph glyph-name="rcaron" unicode="&#x159;" horiz-adv-x="377" 
d="M237 555h-124l-96 144h89l69 -91l68 91h90zM175 412q23 42 69.5 67t109.5 25v-101q-92 0 -135.5 -39.5t-43.5 -133.5v-230h-109v494h109v-82z" />
    <glyph glyph-name="Sacute" unicode="&#x15a;" horiz-adv-x="608" 
d="M253 729l82 131h116l-103 -131h-95zM308 -13q-55 0 -103.5 13t-85.5 38.5t-61.5 62.5t-33.5 85l112 24q17 -66 61.5 -97.5t111.5 -31.5q66 0 101.5 28t35.5 79q0 29 -13.5 47.5t-37 31.5t-54 22t-63.5 18q-40 11 -81 24.5t-74.5 36t-54.5 56.5t-21 86q0 46 17.5 83
t49.5 63.5t76.5 41t98.5 14.5q47 0 90.5 -10t79 -32t61 -56.5t37.5 -82.5l-102 -24q-20 58 -58 84.5t-102 26.5q-60 0 -96.5 -27t-36.5 -75q0 -26 13 -43.5t35 -29.5t51 -20t61 -16q41 -10 84 -23.5t78 -36.5t57.5 -59t22.5 -92q0 -48 -18 -86.5t-51.5 -65.5t-81 -42
t-105.5 -15z" />
    <glyph glyph-name="sacute" unicode="&#x15b;" horiz-adv-x="495" 
d="M195 555l91 144h116l-112 -144h-95zM257 -10q-42 0 -78 9t-64.5 27t-47.5 44.5t-25 60.5l91 25q11 -44 43.5 -65t77.5 -21q39 0 64.5 17t25.5 49q0 20 -9.5 32.5t-26 21t-37.5 14t-44 9.5q-37 7 -68.5 17t-55 26t-36.5 40t-13 59q0 70 52 109.5t137 39.5q35 0 67.5 -7.5
t58.5 -23.5t44.5 -39.5t26.5 -56.5l-96 -21q-11 35 -37.5 52t-66.5 17q-38 0 -62 -15.5t-24 -43.5q0 -16 9.5 -27t25 -18.5t36.5 -13t44 -10.5q40 -9 73 -19.5t57 -27t37 -41.5t13 -63q0 -40 -15.5 -69t-41.5 -48.5t-61 -29t-74 -9.5z" />
    <glyph glyph-name="Scedilla" unicode="&#x15e;" horiz-adv-x="608" 
d="M564 196q0 -46 -17 -83.5t-48.5 -64.5t-76 -43t-99.5 -18l-32 -54q13 4 28 4q39 0 62 -23t23 -60q0 -41 -28 -68t-74 -27q-45 0 -71 16.5t-37 42.5l61 19q6 -14 18.5 -20t26.5 -6q19 0 32.5 11.5t13.5 31.5t-13 30.5t-32 10.5q-23 0 -37 -14l-53 24l48 85
q-93 11 -156.5 61t-78.5 135l112 24q17 -66 61.5 -97.5t111.5 -31.5q66 0 101.5 28t35.5 79q0 29 -13.5 47.5t-37 31.5t-54 22t-63.5 18q-40 11 -81 24.5t-74.5 36t-54.5 56.5t-21 86q0 46 17.5 83t49.5 63.5t76.5 41t98.5 14.5q47 0 90.5 -10t79 -32t61 -56.5t37.5 -82.5
l-102 -24q-20 58 -58 84.5t-102 26.5q-60 0 -96.5 -27t-36.5 -75q0 -26 13 -43.5t35 -29.5t51 -20t61 -16q41 -10 84 -23.5t78 -36.5t57.5 -59t22.5 -92z" />
    <glyph glyph-name="scedilla" unicode="&#x15f;" horiz-adv-x="495" 
d="M449 146q0 -37 -13.5 -64.5t-36.5 -47t-54 -30t-66 -13.5l-34 -58q13 4 28 4q39 0 62 -23t23 -60q0 -41 -28 -68t-74 -27q-45 0 -71 16.5t-37 42.5l61 19q6 -14 18.5 -20t26.5 -6q19 0 32.5 11.5t13.5 31.5t-13 30.5t-32 10.5q-23 0 -37 -14l-53 24l50 88
q-69 8 -115.5 43t-57.5 95l91 25q11 -44 43.5 -65t77.5 -21q39 0 64.5 17t25.5 49q0 20 -9.5 32.5t-26 21t-37.5 14t-44 9.5q-37 7 -68.5 17t-55 26t-36.5 40t-13 59q0 70 52 109.5t137 39.5q35 0 67.5 -7.5t58.5 -23.5t44.5 -39.5t26.5 -56.5l-96 -21q-11 35 -37.5 52
t-66.5 17q-38 0 -62 -15.5t-24 -43.5q0 -16 9.5 -27t25 -18.5t36.5 -13t44 -10.5q40 -9 73 -19.5t57 -27t37 -41.5t13 -63z" />
    <glyph glyph-name="Scaron" unicode="&#x160;" horiz-adv-x="608" 
d="M237 738l-97 122h89l71 -73l71 73h89l-96 -122h-127zM308 -13q-55 0 -103.5 13t-85.5 38.5t-61.5 62.5t-33.5 85l112 24q17 -66 61.5 -97.5t111.5 -31.5q66 0 101.5 28t35.5 79q0 29 -13.5 47.5t-37 31.5t-54 22t-63.5 18q-40 11 -81 24.5t-74.5 36t-54.5 56.5t-21 86
q0 46 17.5 83t49.5 63.5t76.5 41t98.5 14.5q47 0 90.5 -10t79 -32t61 -56.5t37.5 -82.5l-102 -24q-20 58 -58 84.5t-102 26.5q-60 0 -96.5 -27t-36.5 -75q0 -26 13 -43.5t35 -29.5t51 -20t61 -16q41 -10 84 -23.5t78 -36.5t57.5 -59t22.5 -92q0 -48 -18 -86.5t-51.5 -65.5
t-81 -42t-105.5 -15z" />
    <glyph glyph-name="scaron" unicode="&#x161;" horiz-adv-x="495" 
d="M184 555l-96 144h89l69 -91l68 91h90l-96 -144h-124zM257 -10q-42 0 -78 9t-64.5 27t-47.5 44.5t-25 60.5l91 25q11 -44 43.5 -65t77.5 -21q39 0 64.5 17t25.5 49q0 20 -9.5 32.5t-26 21t-37.5 14t-44 9.5q-37 7 -68.5 17t-55 26t-36.5 40t-13 59q0 70 52 109.5t137 39.5
q35 0 67.5 -7.5t58.5 -23.5t44.5 -39.5t26.5 -56.5l-96 -21q-11 35 -37.5 52t-66.5 17q-38 0 -62 -15.5t-24 -43.5q0 -16 9.5 -27t25 -18.5t36.5 -13t44 -10.5q40 -9 73 -19.5t57 -27t37 -41.5t13 -63q0 -40 -15.5 -69t-41.5 -48.5t-61 -29t-74 -9.5z" />
    <glyph glyph-name="uni0162" unicode="&#x162;" horiz-adv-x="494" 
d="M304 0h-25l-40 -67q13 4 28 4q39 0 62 -23t23 -60q0 -41 -28 -68t-74 -27q-45 0 -71 16.5t-37 42.5l61 19q6 -14 18.5 -20t26.5 -6q19 0 32.5 11.5t13.5 31.5t-13 30.5t-32 10.5q-23 0 -37 -14l-53 24l54 95h-22v599h-177v100h466v-100h-176v-599z" />
    <glyph glyph-name="uni0163" unicode="&#x163;" horiz-adv-x="382" 
d="M344 410h-114v-247q0 -38 19.5 -56.5t51.5 -18.5h43v-88h-79l-40 -67q13 4 28 4q39 0 62 -23t23 -60q0 -41 -28 -68t-74 -27q-45 0 -71 16.5t-37 42.5l61 19q6 -14 18.5 -20t26.5 -6q19 0 32.5 11.5t13.5 31.5t-13 30.5t-32 10.5q-23 0 -37 -14l-53 24l60 105
q-41 15 -62.5 50t-21.5 87v263h-99v84h47q29 0 46.5 15t17.5 60v87h97v-162h114v-84z" />
    <glyph glyph-name="Tcaron" unicode="&#x164;" horiz-adv-x="494" 
d="M311 738h-127l-97 122h89l71 -73l71 73h89zM480 699v-100h-176v-599h-113v599h-177v100h466z" />
    <glyph glyph-name="tcaron" unicode="&#x165;" horiz-adv-x="367" 
d="M296 557l60 314h112l-93 -314h-79zM265 0q-69 0 -106.5 39t-37.5 108v263h-99v84h47q29 0 46.5 15t17.5 60v87h97v-162h114v-84h-114v-247q0 -38 19.5 -56.5t51.5 -18.5h43v-88h-79z" />
    <glyph glyph-name="Tbar" unicode="&#x166;" horiz-adv-x="494" 
d="M480 599h-176v-215h105v-69h-105v-315h-113v315h-105v69h105v215h-177v100h466v-100z" />
    <glyph glyph-name="tbar" unicode="&#x167;" horiz-adv-x="382" 
d="M347 213h-117v-50q0 -38 19.5 -56.5t51.5 -18.5h43v-88h-79q-69 0 -106.5 39t-37.5 108v66h-100v69h100v128h-99v84h47q29 0 46.5 15t17.5 60v87h97v-162h114v-84h-114v-128h117v-69z" />
    <glyph glyph-name="Utilde" unicode="&#x168;" horiz-adv-x="671" 
d="M400 729q-35 0 -54 15t-31 31q-11 13 -21.5 22.5t-28.5 9.5q-20 0 -30 -20.5t-10 -49.5h-56q0 57 27.5 94t74.5 37q35 0 53.5 -15t32.5 -31q11 -13 21 -22.5t28 -9.5q20 0 29.5 20t9.5 51h56q0 -57 -26.5 -94.5t-74.5 -37.5zM336 -13q-58 0 -107.5 16.5t-86 48.5t-57 80
t-20.5 112v455h114v-441q0 -85 44 -126.5t113 -41.5q68 0 112.5 41.5t44.5 126.5v441h113v-455q0 -64 -20.5 -112t-56.5 -80t-85.5 -48.5t-107.5 -16.5z" />
    <glyph glyph-name="utilde" unicode="&#x169;" horiz-adv-x="579" 
d="M216 628q-20 0 -30 -20.5t-10 -49.5h-56q0 57 27.5 94.5t74.5 37.5q35 0 53.5 -15t32.5 -32q11 -13 21 -22t28 -9q20 0 29.5 20t9.5 50h56q0 -57 -26.5 -94t-74.5 -37q-35 0 -54 15t-31 30q-11 14 -21.5 23t-28.5 9zM403 494h109v-494h-109v62q-26 -34 -66 -53t-91 -19
q-91 0 -138 46t-47 130v328h109v-307q0 -56 30 -82.5t78 -26.5q52 0 88 33.5t37 106.5v276z" />
    <glyph glyph-name="Umacron" unicode="&#x16a;" horiz-adv-x="671" 
d="M174 772v71h321v-71h-321zM336 -13q-58 0 -107.5 16.5t-86 48.5t-57 80t-20.5 112v455h114v-441q0 -85 44 -126.5t113 -41.5q68 0 112.5 41.5t44.5 126.5v441h113v-455q0 -64 -20.5 -112t-56.5 -80t-85.5 -48.5t-107.5 -16.5z" />
    <glyph glyph-name="umacron" unicode="&#x16b;" horiz-adv-x="579" 
d="M414 657v-71h-256v71h256zM403 494h109v-494h-109v62q-26 -34 -66 -53t-91 -19q-91 0 -138 46t-47 130v328h109v-307q0 -56 30 -82.5t78 -26.5q52 0 88 33.5t37 106.5v276z" />
    <glyph glyph-name="Uring" unicode="&#x16e;" horiz-adv-x="671" 
d="M335 725q-26 0 -48.5 9t-39.5 25t-27 38t-10 49t10 49t27 38t39.5 25t48.5 9t48 -9t39 -25t26.5 -38t9.5 -49t-10 -49t-26.5 -38t-39 -25t-47.5 -9zM335 778q28 0 48 19.5t20 48.5t-19.5 48.5t-48.5 19.5t-48.5 -19.5t-19.5 -48.5t19.5 -48.5t48.5 -19.5zM336 -13
q-58 0 -107.5 16.5t-86 48.5t-57 80t-20.5 112v455h114v-441q0 -85 44 -126.5t113 -41.5q68 0 112.5 41.5t44.5 126.5v441h113v-455q0 -64 -20.5 -112t-56.5 -80t-85.5 -48.5t-107.5 -16.5z" />
    <glyph glyph-name="uring" unicode="&#x16f;" horiz-adv-x="579" 
d="M287 553q-27 0 -48.5 9t-37.5 25t-24.5 37t-8.5 45t8.5 45t24.5 36.5t37.5 25t48.5 9.5q26 0 48 -9.5t37.5 -25t24 -36.5t8.5 -45t-8.5 -45t-24 -37t-37.5 -25t-48 -9zM287 730q-26 0 -43.5 -17t-17.5 -44q0 -26 17.5 -43.5t43.5 -17.5t44 17.5t18 43.5q0 27 -18 44
t-44 17zM403 494h109v-494h-109v62q-26 -34 -66 -53t-91 -19q-91 0 -138 46t-47 130v328h109v-307q0 -56 30 -82.5t78 -26.5q52 0 88 33.5t37 106.5v276z" />
    <glyph glyph-name="Uhungarumlaut" unicode="&#x170;" horiz-adv-x="671" 
d="M200 729l88 131h110l-103 -131h-95zM375 729l88 131h110l-103 -131h-95zM336 -13q-58 0 -107.5 16.5t-86 48.5t-57 80t-20.5 112v455h114v-441q0 -85 44 -126.5t113 -41.5q68 0 112.5 41.5t44.5 126.5v441h113v-455q0 -64 -20.5 -112t-56.5 -80t-85.5 -48.5t-107.5 -16.5
z" />
    <glyph glyph-name="uhungarumlaut" unicode="&#x171;" horiz-adv-x="579" 
d="M359 699l-112 -144h-95l96 144h111zM421 555h-94l96 144h111zM403 494h109v-494h-109v62q-26 -34 -66 -53t-91 -19q-91 0 -138 46t-47 130v328h109v-307q0 -56 30 -82.5t78 -26.5q52 0 88 33.5t37 106.5v276z" />
    <glyph glyph-name="Uogonek" unicode="&#x172;" horiz-adv-x="671" 
d="M493 699h113v-455q0 -103 -52 -165.5t-135 -82.5q-38 -24 -62.5 -54t-24.5 -54q0 -16 13 -24.5t35 -8.5q25 0 45 13v-70q-31 -11 -68 -11q-41 0 -69.5 16.5t-28.5 51.5q0 32 26.5 66t66.5 66h-16q-58 0 -107.5 16.5t-86 48.5t-57 80t-20.5 112v455h114v-441
q0 -85 44 -126.5t113 -41.5q68 0 112.5 41.5t44.5 126.5v441z" />
    <glyph glyph-name="uogonek" unicode="&#x173;" horiz-adv-x="579" 
d="M512 0q-41 -25 -67 -56t-26 -56q0 -16 13 -24.5t35 -8.5q25 0 45 13v-70q-31 -11 -68 -11q-41 0 -69.5 16.5t-28.5 51.5q0 36 31.5 73.5t77.5 71.5h-52v62q-26 -34 -66 -53t-91 -19q-91 0 -138 46t-47 130v328h109v-307q0 -56 30 -82.5t78 -26.5q52 0 88 33.5t37 106.5
v276h109v-494z" />
    <glyph glyph-name="Wcircumflex" unicode="&#x174;" horiz-adv-x="1027" 
d="M513 811l-71 -73h-89l97 122h127l96 -122h-89zM889 699h118l-190 -699h-153l-151 499l-151 -499h-152l-190 699h118l156 -582l169 582h101l169 -581z" />
    <glyph glyph-name="wcircumflex" unicode="&#x175;" horiz-adv-x="860" 
d="M430 646l-69 -91h-89l96 144h124l96 -144h-90zM723 494h115l-174 -494h-116l-118 363l-118 -363h-116l-175 494h116l121 -365l126 365h92l126 -365z" />
    <glyph glyph-name="Ycircumflex" unicode="&#x176;" horiz-adv-x="602" 
d="M301 811l-71 -73h-89l97 122h127l96 -122h-89zM595 699l-237 -369v-330h-114v328l-238 371h125l170 -272l169 272h125z" />
    <glyph glyph-name="ycircumflex" unicode="&#x177;" horiz-adv-x="556" 
d="M281 646l-69 -91h-89l96 144h124l96 -144h-90zM418 494h119l-311 -737h-119l114 262l-202 475h118l140 -365z" />
    <glyph glyph-name="Ydieresis" unicode="&#x178;" horiz-adv-x="602" 
d="M206 743q-28 0 -48 20t-20 48t20 47.5t48 19.5t48 -19.5t20 -47.5t-20 -48t-48 -20zM396 743q-28 0 -48 20t-20 48t20 47.5t48 19.5t48 -19.5t20 -47.5t-20 -48t-48 -20zM595 699l-237 -369v-330h-114v328l-238 371h125l170 -272l169 272h125z" />
    <glyph glyph-name="Zacute" unicode="&#x179;" horiz-adv-x="576" 
d="M449 860l-103 -131h-95l82 131h116zM167 100h375v-100h-508v93l371 506h-370v100h503v-92z" />
    <glyph glyph-name="zacute" unicode="&#x17a;" horiz-adv-x="481" 
d="M399 699l-112 -144h-95l91 144h116zM452 494l-259 -409h250v-85h-416l258 410h-237v84h404z" />
    <glyph glyph-name="Zdotaccent" unicode="&#x17b;" horiz-adv-x="576" 
d="M299 743q-28 0 -48 20t-20 48t20 47.5t48 19.5t48 -19.5t20 -47.5t-20 -48t-48 -20zM167 100h375v-100h-508v93l371 506h-370v100h503v-92z" />
    <glyph glyph-name="zdotaccent" unicode="&#x17c;" horiz-adv-x="481" 
d="M243 592q-28 0 -48 20t-20 48t20 47.5t48 19.5t48 -19.5t20 -47.5t-20 -48t-48 -20zM452 494l-259 -409h250v-85h-416l258 410h-237v84h404z" />
    <glyph glyph-name="Zcaron" unicode="&#x17d;" horiz-adv-x="576" 
d="M363 738h-127l-97 122h89l71 -73l71 73h89zM167 100h375v-100h-508v93l371 506h-370v100h503v-92z" />
    <glyph glyph-name="zcaron" unicode="&#x17e;" horiz-adv-x="481" 
d="M304 555h-124l-96 144h89l69 -91l68 91h90zM452 494l-259 -409h250v-85h-416l258 410h-237v84h404z" />
    <glyph glyph-name="florin" unicode="&#x192;" horiz-adv-x="420" 
d="M372 663q-16 0 -32.5 -4t-29.5 -15t-21 -30t-8 -49v-71h116v-84h-116v-410q0 -55 -14 -91t-40.5 -57t-63 -29t-81.5 -8h-25v87h25q17 0 33 4t28.5 15t20.5 30t8 49v410h-100v84h100v71q0 55 14.5 91t40.5 57t63 29t82 8h25v-87h-25z" />
    <glyph glyph-name="Ohorn" unicode="&#x1a0;" horiz-adv-x="794" 
d="M710 731h76v-70q0 -29 -8 -48.5t-20.5 -32t-28.5 -18t-33 -7.5q26 -42 40.5 -93.5t14.5 -111.5q0 -81 -26 -148t-73 -114.5t-112 -74t-143 -26.5t-143 26.5t-112 74t-73 114.5t-26 148t26 147.5t73 114t112 74t143 26.5q80 0 145.5 -27t112.5 -77q4 -1 12 -1q27 0 35 15
t8 50v59zM397 92q53 0 97 18.5t76 52.5t50 81.5t18 105.5t-18 105.5t-50 81.5t-76 52.5t-97 18.5t-97.5 -18.5t-76.5 -52.5t-49.5 -81.5t-17.5 -105.5t17.5 -105.5t49.5 -81.5t76.5 -52.5t97.5 -18.5z" />
    <glyph glyph-name="ohorn" unicode="&#x1a1;" horiz-adv-x="612" 
d="M542 566h76v-70q0 -28 -7.5 -47.5t-20 -32t-28 -18t-32.5 -7.5q18 -30 28 -65.5t10 -77.5q0 -59 -19.5 -106.5t-54 -81t-82.5 -52t-106 -18.5t-106 18.5t-83 52t-54.5 81t-19.5 106.5t19.5 106t54.5 80.5t83 51.5t106 18q54 0 99 -15.5t80 -44.5q4 -1 7 -1.5t7 -0.5
q27 0 35 15t8 50v59zM306 78q34 0 62.5 12.5t48.5 35t31.5 53.5t11.5 69q0 37 -11.5 68t-31.5 53.5t-48.5 35t-62.5 12.5t-62.5 -12.5t-49 -35t-31.5 -53.5t-11 -68q0 -38 11 -69t31.5 -53.5t49 -35t62.5 -12.5z" />
    <glyph glyph-name="Uhorn" unicode="&#x1af;" horiz-adv-x="671" 
d="M686 778h76v-70q0 -31 -9 -51.5t-23.5 -32.5t-32.5 -17t-36 -5q-26 0 -55 12v-370q0 -64 -20.5 -112t-56.5 -80t-85.5 -48.5t-107.5 -16.5t-107.5 16.5t-86 48.5t-57 80t-20.5 112v455h114v-441q0 -85 44 -126.5t113 -41.5q68 0 112.5 41.5t44.5 126.5v441h113v-35
q20 -10 37 -10q27 0 35 15t8 50v59z" />
    <glyph glyph-name="uhorn" unicode="&#x1b0;" horiz-adv-x="579" 
d="M583 573h76v-70q0 -31 -9 -51.5t-23.5 -32.5t-32.5 -17t-36 -5q-20 0 -46 8v-405h-109v62q-26 -34 -66 -53t-91 -19q-91 0 -138 46t-47 130v328h109v-307q0 -56 30 -82.5t78 -26.5q52 0 88 33.5t37 106.5v276h109v-39q15 -6 28 -6q27 0 35 15t8 50v59z" />
    <glyph glyph-name="uni01CD" unicode="&#x1cd;" horiz-adv-x="698" 
d="M413 738h-127l-97 122h89l71 -73l71 73h89zM564 0l-58 158h-314l-58 -158h-121l265 699h142l265 -699h-121zM227 253h244l-122 331z" />
    <glyph glyph-name="uni01CE" unicode="&#x1ce;" horiz-adv-x="539" 
d="M327 555h-124l-96 144h89l69 -91l68 91h90zM528 86v-86h-51q-38 0 -62.5 16.5t-24.5 53.5v11h-5q-26 -43 -73.5 -67t-113.5 -24q-31 0 -59 7.5t-49 24t-33 41.5t-12 60q0 38 15 65t40.5 45.5t60 30.5t74.5 19l89 17q16 3 28.5 10.5t12.5 25.5q0 45 -26.5 67t-71.5 22
q-96 0 -107 -92l-109 15q13 77 68 116.5t150 39.5q100 0 152.5 -46.5t52.5 -134.5v-190q0 -26 8 -36.5t28 -10.5h18zM228 75q63 0 103 43t40 117l-131 -30q-86 -15 -86 -72q0 -28 19.5 -43t54.5 -15z" />
    <glyph glyph-name="uni01CF" unicode="&#x1cf;" horiz-adv-x="260" 
d="M66 738l-97 122h89l71 -73l71 73h89l-96 -122h-127zM73 0v699h114v-699h-114z" />
    <glyph glyph-name="uni01D0" unicode="&#x1d0;" horiz-adv-x="240" 
d="M58 555l-96 144h89l69 -91l68 91h90l-96 -144h-124zM66 0v494h109v-494h-109z" />
    <glyph glyph-name="uni01D1" unicode="&#x1d1;" horiz-adv-x="794" 
d="M334 738l-97 122h89l71 -73l71 73h89l-96 -122h-127zM397 -13q-78 0 -143 26.5t-112 74t-73 114.5t-26 148t26 147.5t73 114t112 74t143 26.5t143 -26.5t112 -74t73 -114t26 -147.5t-26 -148t-73 -114.5t-112 -74t-143 -26.5zM397 92q53 0 97 18.5t76 52.5t50 81.5
t18 105.5t-18 105.5t-50 81.5t-76 52.5t-97 18.5t-97.5 -18.5t-76.5 -52.5t-49.5 -81.5t-17.5 -105.5t17.5 -105.5t49.5 -81.5t76.5 -52.5t97.5 -18.5z" />
    <glyph glyph-name="uni01D2" unicode="&#x1d2;" horiz-adv-x="612" 
d="M245 555l-96 144h89l69 -91l68 91h90l-96 -144h-124zM306 -10q-58 0 -106 18.5t-83 52t-54.5 81t-19.5 106.5t19.5 106t54.5 80.5t83 51.5t106 18t106 -18t82.5 -51.5t54 -80.5t19.5 -106t-19.5 -106.5t-54 -81t-82.5 -52t-106 -18.5zM306 78q34 0 62.5 12.5t48.5 35
t31.5 53.5t11.5 69q0 37 -11.5 68t-31.5 53.5t-48.5 35t-62.5 12.5t-62.5 -12.5t-49 -35t-31.5 -53.5t-11 -68q0 -38 11 -69t31.5 -53.5t49 -35t62.5 -12.5z" />
    <glyph glyph-name="uni01D3" unicode="&#x1d3;" horiz-adv-x="671" 
d="M272 738l-97 122h89l71 -73l71 73h89l-96 -122h-127zM336 -13q-58 0 -107.5 16.5t-86 48.5t-57 80t-20.5 112v455h114v-441q0 -85 44 -126.5t113 -41.5q68 0 112.5 41.5t44.5 126.5v441h113v-455q0 -64 -20.5 -112t-56.5 -80t-85.5 -48.5t-107.5 -16.5z" />
    <glyph glyph-name="uni01D4" unicode="&#x1d4;" horiz-adv-x="579" 
d="M348 555h-124l-96 144h89l69 -91l68 91h90zM403 494h109v-494h-109v62q-26 -34 -66 -53t-91 -19q-91 0 -138 46t-47 130v328h109v-307q0 -56 30 -82.5t78 -26.5q52 0 88 33.5t37 106.5v276z" />
    <glyph glyph-name="uni01D5" unicode="&#x1d5;" horiz-adv-x="671" 
d="M174 951v71h321v-71h-321zM240 743q-28 0 -48 20t-20 48t20 47.5t48 19.5t48 -19.5t20 -47.5t-20 -48t-48 -20zM430 743q-28 0 -48 20t-20 48t20 47.5t48 19.5t48 -19.5t20 -47.5t-20 -48t-48 -20zM336 -13q-58 0 -107.5 16.5t-86 48.5t-57 80t-20.5 112v455h114v-441
q0 -85 44 -126.5t113 -41.5q68 0 112.5 41.5t44.5 126.5v441h113v-455q0 -64 -20.5 -112t-56.5 -80t-85.5 -48.5t-107.5 -16.5z" />
    <glyph glyph-name="uni01D6" unicode="&#x1d6;" horiz-adv-x="579" 
d="M414 880v-71h-256v71h256zM191 592q-28 0 -48 20t-20 48t20 47.5t48 19.5t48 -19.5t20 -47.5t-20 -48t-48 -20zM313 660q0 28 20 47.5t48 19.5t48 -19.5t20 -47.5t-20 -48t-48 -20t-48 20t-20 48zM403 494h109v-494h-109v62q-26 -34 -66 -53t-91 -19q-91 0 -138 46
t-47 130v328h109v-307q0 -56 30 -82.5t78 -26.5q52 0 88 33.5t37 106.5v276z" />
    <glyph glyph-name="uni01D7" unicode="&#x1d7;" horiz-adv-x="671" 
d="M288 908l82 131h116l-103 -131h-95zM240 743q-28 0 -48 20t-20 48t20 47.5t48 19.5t48 -19.5t20 -47.5t-20 -48t-48 -20zM430 743q-28 0 -48 20t-20 48t20 47.5t48 19.5t48 -19.5t20 -47.5t-20 -48t-48 -20zM336 -13q-58 0 -107.5 16.5t-86 48.5t-57 80t-20.5 112v455
h114v-441q0 -85 44 -126.5t113 -41.5q68 0 112.5 41.5t44.5 126.5v441h113v-455q0 -64 -20.5 -112t-56.5 -80t-85.5 -48.5t-107.5 -16.5z" />
    <glyph glyph-name="uni01D8" unicode="&#x1d8;" horiz-adv-x="579" 
d="M442 922l-112 -144h-95l91 144h116zM191 592q-28 0 -48 20t-20 48t20 47.5t48 19.5t48 -19.5t20 -47.5t-20 -48t-48 -20zM381 727q28 0 48 -19.5t20 -47.5t-20 -48t-48 -20t-48 20t-20 48t20 47.5t48 19.5zM403 494h109v-494h-109v62q-26 -34 -66 -53t-91 -19
q-91 0 -138 46t-47 130v328h109v-307q0 -56 30 -82.5t78 -26.5q52 0 88 33.5t37 106.5v276z" />
    <glyph glyph-name="uni01D9" unicode="&#x1d9;" horiz-adv-x="671" 
d="M272 917l-97 122h89l71 -73l71 73h89l-96 -122h-127zM240 743q-28 0 -48 20t-20 48t20 47.5t48 19.5t48 -19.5t20 -47.5t-20 -48t-48 -20zM430 743q-28 0 -48 20t-20 48t20 47.5t48 19.5t48 -19.5t20 -47.5t-20 -48t-48 -20zM336 -13q-58 0 -107.5 16.5t-86 48.5t-57 80
t-20.5 112v455h114v-441q0 -85 44 -126.5t113 -41.5q68 0 112.5 41.5t44.5 126.5v441h113v-455q0 -64 -20.5 -112t-56.5 -80t-85.5 -48.5t-107.5 -16.5z" />
    <glyph glyph-name="uni01DA" unicode="&#x1da;" horiz-adv-x="579" 
d="M348 778h-124l-96 144h89l69 -91l68 91h90zM191 592q-28 0 -48 20t-20 48t20 47.5t48 19.5t48 -19.5t20 -47.5t-20 -48t-48 -20zM381 727q28 0 48 -19.5t20 -47.5t-20 -48t-48 -20t-48 20t-20 48t20 47.5t48 19.5zM403 494h109v-494h-109v62q-26 -34 -66 -53t-91 -19
q-91 0 -138 46t-47 130v328h109v-307q0 -56 30 -82.5t78 -26.5q52 0 88 33.5t37 106.5v276z" />
    <glyph glyph-name="uni01DB" unicode="&#x1db;" horiz-adv-x="671" 
d="M287 908l-103 131h116l82 -131h-95zM240 743q-28 0 -48 20t-20 48t20 47.5t48 19.5t48 -19.5t20 -47.5t-20 -48t-48 -20zM430 743q-28 0 -48 20t-20 48t20 47.5t48 19.5t48 -19.5t20 -47.5t-20 -48t-48 -20zM336 -13q-58 0 -107.5 16.5t-86 48.5t-57 80t-20.5 112v455
h114v-441q0 -85 44 -126.5t113 -41.5q68 0 112.5 41.5t44.5 126.5v441h113v-455q0 -64 -20.5 -112t-56.5 -80t-85.5 -48.5t-107.5 -16.5z" />
    <glyph glyph-name="uni01DC" unicode="&#x1dc;" horiz-adv-x="579" 
d="M337 778h-95l-112 144h117zM191 592q-28 0 -48 20t-20 48t20 47.5t48 19.5t48 -19.5t20 -47.5t-20 -48t-48 -20zM313 660q0 28 20 47.5t48 19.5t48 -19.5t20 -47.5t-20 -48t-48 -20t-48 20t-20 48zM403 494h109v-494h-109v62q-26 -34 -66 -53t-91 -19q-91 0 -138 46
t-47 130v328h109v-307q0 -56 30 -82.5t78 -26.5q52 0 88 33.5t37 106.5v276z" />
    <glyph glyph-name="Gcaron" unicode="&#x1e6;" horiz-adv-x="783" 
d="M331 738l-97 122h89l71 -73l71 73h89l-96 -122h-127zM391 -13q-77 0 -141 26.5t-110 74t-71.5 114.5t-25.5 148t26 147.5t73 114t112 74t143 26.5q103 0 182 -45t124 -124l-99 -53q-30 56 -84 87t-123 31q-53 0 -97.5 -18.5t-76.5 -52.5t-49.5 -81.5t-17.5 -105.5
t17 -105.5t48.5 -81.5t76 -52.5t99.5 -18.5q86 0 144.5 48.5t75.5 139.5h-216v92h327v-372h-90v130q-32 -65 -93.5 -104t-153.5 -39z" />
    <glyph glyph-name="gcaron" unicode="&#x1e7;" horiz-adv-x="616" 
d="M371 555h-124l-96 144h89l69 -91l68 91h90zM440 494h109v-486q0 -133 -67.5 -195.5t-183.5 -62.5q-100 0 -160 42t-86 112l91 38q22 -52 59 -79.5t92 -27.5q75 0 110.5 44.5t35.5 120.5v93q-22 -38 -66.5 -62t-101.5 -24q-48 0 -89.5 18t-72.5 51t-49 79t-18 102
t18 101.5t49 78t73 50t90 17.5q58 0 101 -24t66 -63v77zM297 96q33 0 60.5 12t47.5 33.5t31 51t11 64.5t-11 64.5t-31 50.5t-47.5 33t-60.5 12q-32 0 -59.5 -12t-47.5 -33t-31 -50.5t-11 -64.5t11 -64.5t31 -51t47.5 -33.5t59.5 -12z" />
    <glyph glyph-name="uni01EA" unicode="&#x1ea;" horiz-adv-x="794" 
d="M492 -2q-40 -25 -65 -55.5t-25 -54.5q0 -16 13 -24.5t35 -8.5q25 0 45 13v-70q-31 -11 -68 -11q-41 0 -69.5 16.5t-28.5 51.5q0 32 26.5 66.5t66.5 66.5q-6 -1 -12 -1h-13q-78 0 -143 26.5t-112 74t-73 114.5t-26 148t26 147.5t73 114t112 74t143 26.5t143 -26.5t112 -74
t73 -114t26 -147.5q0 -68 -18.5 -126t-52.5 -103.5t-81.5 -77t-106.5 -45.5zM156 350q0 -58 17.5 -105.5t49.5 -81.5t76.5 -52.5t97.5 -18.5t97 18.5t76 52.5t50 81.5t18 105.5t-18 105.5t-50 81.5t-76 52.5t-97 18.5t-97.5 -18.5t-76.5 -52.5t-49.5 -81.5t-17.5 -105.5z
" />
    <glyph glyph-name="uni01EB" unicode="&#x1eb;" horiz-adv-x="612" 
d="M383 0q-40 -25 -66 -56t-26 -56q0 -16 13 -24.5t35 -8.5q25 0 45 13v-70q-31 -11 -68 -11q-41 0 -69.5 16.5t-28.5 51.5q0 33 27 68t69 67h-8q-58 0 -106 18.5t-83 52t-54.5 81t-19.5 106.5t19.5 106t54.5 80.5t83 51.5t106 18t106 -18t82.5 -51.5t54 -80.5t19.5 -106
q0 -98 -50 -162.5t-135 -85.5zM152 248q0 -38 11 -69t31.5 -53.5t49 -35t62.5 -12.5t62.5 12.5t48.5 35t31.5 53.5t11.5 69q0 37 -11.5 68t-31.5 53.5t-48.5 35t-62.5 12.5t-62.5 -12.5t-49 -35t-31.5 -53.5t-11 -68z" />
    <glyph glyph-name="Aringacute" unicode="&#x1fa;" horiz-adv-x="698" 
d="M349 725q-26 0 -48.5 9t-39.5 25t-27 38t-10 49t10 49t27 38t39.5 25t48.5 9q16 0 29 -3l50 79h116l-96 -123q24 -32 24 -74q0 -27 -10 -49t-26.5 -38t-39 -25t-47.5 -9zM347 914q-29 -1 -47.5 -20t-18.5 -48t19.5 -48.5t48.5 -19.5q28 0 48 19.5t20 48.5q0 25 -14 43
t-37 23h-20zM564 0l-58 158h-314l-58 -158h-121l265 699h142l265 -699h-121zM227 253h244l-122 331z" />
    <glyph glyph-name="aringacute" unicode="&#x1fb;" horiz-adv-x="539" 
d="M265 553q-27 0 -48.5 9t-37.5 25t-24.5 37t-8.5 45t8.5 45t24.5 36.5t37.5 25t48.5 9.5q15 0 28 -3l58 92h116l-106 -136q22 -31 22 -69q0 -24 -8.5 -45t-24 -37t-37.5 -25t-48 -9zM265 730q-26 0 -43.5 -17t-17.5 -44q0 -26 17.5 -43.5t43.5 -17.5t44 17.5t18 43.5
q0 27 -18 44t-44 17zM528 86v-86h-51q-38 0 -62.5 16.5t-24.5 53.5v11h-5q-26 -43 -73.5 -67t-113.5 -24q-31 0 -59 7.5t-49 24t-33 41.5t-12 60q0 38 15 65t40.5 45.5t60 30.5t74.5 19l89 17q16 3 28.5 10.5t12.5 25.5q0 45 -26.5 67t-71.5 22q-96 0 -107 -92l-109 15
q13 77 68 116.5t150 39.5q100 0 152.5 -46.5t52.5 -134.5v-190q0 -26 8 -36.5t28 -10.5h18zM228 75q63 0 103 43t40 117l-131 -30q-86 -15 -86 -72q0 -28 19.5 -43t54.5 -15z" />
    <glyph glyph-name="AEacute" unicode="&#x1fc;" horiz-adv-x="879" 
d="M396 729l82 131h116l-103 -131h-95zM13 0l265 699h557v-100h-287v-200h251v-100h-251v-199h287v-100h-400v158h-242l-59 -158h-121zM225 253h210v346h-80z" />
    <glyph glyph-name="aeacute" unicode="&#x1fd;" horiz-adv-x="906" 
d="M607 699l-112 -144h-95l91 144h116zM861 225h-393q5 -71 47 -110t104 -39q45 0 78.5 21t50.5 60l100 -15q-26 -72 -86.5 -112t-142.5 -40q-73 0 -129 27.5t-89 78.5q-35 -57 -88 -81.5t-110 -24.5q-34 0 -63 7.5t-50 24t-33 41.5t-12 60q0 38 15 65t40.5 45.5t60.5 30.5
t74 19l89 17q23 5 32.5 14t9.5 23q0 48 -30 70t-75 22q-48 0 -77 -22t-35 -74l-98 15q14 81 67 118.5t151 37.5q51 0 95 -14.5t70 -52.5q34 32 80 49.5t102 17.5q53 0 98 -16.5t77.5 -48.5t51.5 -79.5t19 -109.5zM616 418q-57 0 -94.5 -26.5t-48.5 -83.5h279q-9 54 -45.5 82
t-90.5 28zM232 75q19 0 40 5.5t39.5 18t33.5 32t22 47.5q-3 14 -4.5 29t-2.5 32l-109 -22q-99 -18 -99 -79q0 -30 21.5 -46.5t58.5 -16.5z" />
    <glyph glyph-name="Oslashacute" unicode="&#x1fe;" horiz-adv-x="794" 
d="M547 860l-103 -131h-95l82 131h116zM627 635q59 -48 91.5 -121t32.5 -164q0 -81 -26 -148t-73 -114.5t-112 -74t-143 -26.5q-54 0 -101 12.5t-87 35.5l-61 -87l-44 27l63 90q-59 48 -91.5 120.5t-32.5 164.5q0 81 26 147.5t73 114t112 74t143 26.5q54 0 100.5 -12.5
t86.5 -35.5l61 87l44 -27zM156 350q0 -62 19.5 -111t54.5 -83l292 419q-26 16 -58 24.5t-67 8.5q-53 0 -97.5 -18.5t-76.5 -52.5t-49.5 -81.5t-17.5 -105.5zM397 92q53 0 97 18.5t76 52.5t50 81.5t18 105.5q0 61 -20 110t-55 84l-292 -419q27 -16 59 -24.5t67 -8.5z" />
    <glyph glyph-name="oslashacute" unicode="&#x1ff;" horiz-adv-x="612" 
d="M463 699l-112 -144h-95l91 144h116zM478 449q43 -34 66.5 -84.5t23.5 -116.5q0 -59 -19.5 -106.5t-54 -81t-82.5 -52t-106 -18.5q-70 0 -128 28l-47 -67l-44 27l47 67q-43 34 -67 85.5t-24 117.5q0 59 19.5 106t54.5 80.5t83 51.5t106 18q71 0 129 -28l47 68l44 -27z
M152 248q0 -74 40 -120l189 271q-17 8 -35.5 13t-39.5 5q-34 0 -62.5 -12.5t-49 -35t-31.5 -53.5t-11 -68zM306 78q34 0 62.5 12.5t48.5 35t31.5 53.5t11.5 69q0 72 -40 118l-188 -270q32 -18 74 -18z" />
    <glyph glyph-name="uni0218" unicode="&#x218;" horiz-adv-x="608" 
d="M308 -13q-55 0 -103.5 13t-85.5 38.5t-61.5 62.5t-33.5 85l112 24q17 -66 61.5 -97.5t111.5 -31.5q66 0 101.5 28t35.5 79q0 29 -13.5 47.5t-37 31.5t-54 22t-63.5 18q-40 11 -81 24.5t-74.5 36t-54.5 56.5t-21 86q0 46 17.5 83t49.5 63.5t76.5 41t98.5 14.5
q47 0 90.5 -10t79 -32t61 -56.5t37.5 -82.5l-102 -24q-20 58 -58 84.5t-102 26.5q-60 0 -96.5 -27t-36.5 -75q0 -26 13 -43.5t35 -29.5t51 -20t61 -16q41 -10 84 -23.5t78 -36.5t57.5 -59t22.5 -92q0 -48 -18 -86.5t-51.5 -65.5t-81 -42t-105.5 -15zM157 -174l96 144h94
l-112 -144h-78z" />
    <glyph glyph-name="uni0219" unicode="&#x219;" horiz-adv-x="495" 
d="M257 -10q-42 0 -78 9t-64.5 27t-47.5 44.5t-25 60.5l91 25q11 -44 43.5 -65t77.5 -21q39 0 64.5 17t25.5 49q0 20 -9.5 32.5t-26 21t-37.5 14t-44 9.5q-37 7 -68.5 17t-55 26t-36.5 40t-13 59q0 70 52 109.5t137 39.5q35 0 67.5 -7.5t58.5 -23.5t44.5 -39.5t26.5 -56.5
l-96 -21q-11 35 -37.5 52t-66.5 17q-38 0 -62 -15.5t-24 -43.5q0 -16 9.5 -27t25 -18.5t36.5 -13t44 -10.5q40 -9 73 -19.5t57 -27t37 -41.5t13 -63q0 -40 -15.5 -69t-41.5 -48.5t-61 -29t-74 -9.5zM110 -174l96 144h94l-112 -144h-78z" />
    <glyph glyph-name="uni021A" unicode="&#x21a;" horiz-adv-x="494" 
d="M480 699v-100h-176v-599h-113v599h-177v100h466zM104 -174l96 144h94l-112 -144h-78z" />
    <glyph glyph-name="uni021B" unicode="&#x21b;" horiz-adv-x="382" 
d="M265 0q-69 0 -106.5 39t-37.5 108v263h-99v84h47q29 0 46.5 15t17.5 60v87h97v-162h114v-84h-114v-247q0 -38 19.5 -56.5t51.5 -18.5h43v-88h-79zM90 -174l96 144h94l-112 -144h-78z" />
    <glyph glyph-name="uni0232" unicode="&#x232;" horiz-adv-x="602" 
d="M461 843v-71h-321v71h321zM595 699l-237 -369v-330h-114v328l-238 371h125l170 -272l169 272h125z" />
    <glyph glyph-name="uni0233" unicode="&#x233;" horiz-adv-x="556" 
d="M409 657v-71h-256v71h256zM418 494h119l-311 -737h-119l114 262l-202 475h118l140 -365z" />
    <glyph glyph-name="uni0237" unicode="&#x237;" horiz-adv-x="238" 
d="M-57 -158q36 0 59 8t36.5 26.5t18.5 48.5t5 73v496h109v-496q0 -63 -12.5 -108.5t-39.5 -75t-70.5 -43.5t-105.5 -14v85z" />
    <glyph glyph-name="uni0272" unicode="&#x272;" horiz-adv-x="574" 
d="M327 504q91 0 138 -46t47 -130v-328h-109v307q0 56 -30 83t-78 27t-83 -28.5t-41 -91.5v-299q0 -63 -12.5 -108.5t-39.5 -75t-70.5 -43.5t-105.5 -14v85q36 0 59 8t36.5 26.5t18.5 48.5t5 73v496h109v-61q26 34 65.5 52.5t90.5 18.5z" />
    <glyph glyph-name="circumflex" unicode="&#x2c6;" horiz-adv-x="462" 
d="M73 555l96 144h124l96 -144h-90l-68 91l-69 -91h-89z" />
    <glyph glyph-name="caron" unicode="&#x2c7;" horiz-adv-x="462" 
d="M169 555l-96 144h89l69 -91l68 91h90l-96 -144h-124z" />
    <glyph glyph-name="breve" unicode="&#x2d8;" horiz-adv-x="494" 
d="M246 545q-78 0 -125.5 36.5t-47.5 117.5h79q0 -45 24 -69.5t70 -24.5q48 0 72 24.5t24 69.5h79q0 -81 -47.5 -117.5t-127.5 -36.5z" />
    <glyph glyph-name="dotaccent" unicode="&#x2d9;" horiz-adv-x="282" 
d="M141 592q-28 0 -48 20t-20 48t20 47.5t48 19.5t48 -19.5t20 -47.5t-20 -48t-48 -20z" />
    <glyph glyph-name="ring" unicode="&#x2da;" horiz-adv-x="383" 
d="M192 553q-27 0 -48.5 9t-37.5 25t-24.5 37t-8.5 45t8.5 45t24.5 36.5t37.5 25t48.5 9.5q26 0 48 -9.5t37.5 -25t24 -36.5t8.5 -45t-8.5 -45t-24 -37t-37.5 -25t-48 -9zM192 608q26 0 44 17.5t18 43.5q0 27 -18 44t-44 17t-43.5 -17t-17.5 -44q0 -26 17.5 -43.5
t43.5 -17.5z" />
    <glyph glyph-name="ogonek" unicode="&#x2db;" horiz-adv-x="312" 
d="M171 -213q-41 0 -69.5 16.5t-28.5 51.5q0 20 11 41t29.5 42t43 41.5t51.5 38.5l31 -18q-41 -25 -67 -56t-26 -56q0 -16 13 -24.5t35 -8.5q25 0 45 13v-70q-31 -11 -68 -11z" />
    <glyph glyph-name="tilde" unicode="&#x2dc;" horiz-adv-x="478" 
d="M304 551q-35 0 -54 15t-31 30q-11 14 -21.5 23t-28.5 9q-20 0 -30 -20.5t-10 -49.5h-56q0 57 27.5 94.5t74.5 37.5q35 0 53.5 -15t32.5 -32q11 -13 21 -22t28 -9q20 0 29.5 20t9.5 50h56q0 -57 -26.5 -94t-74.5 -37z" />
    <glyph glyph-name="hungarumlaut" unicode="&#x2dd;" horiz-adv-x="528" 
d="M73 555l96 144h111l-112 -144h-95zM248 555l96 144h111l-113 -144h-94z" />
    <glyph glyph-name="gravecomb" unicode="&#x300;" 
d="M-168 555l-112 144h117l90 -144h-95z" />
    <glyph glyph-name="acutecomb" unicode="&#x301;" 
d="M-280 555l91 144h116l-112 -144h-95z" />
    <glyph glyph-name="uni0302" unicode="&#x302;" 
d="M-389 555l96 144h124l96 -144h-90l-68 91l-69 -91h-89z" />
    <glyph glyph-name="tildecomb" unicode="&#x303;" 
d="M-174 551q-35 0 -54 15t-31 30q-11 14 -21.5 23t-28.5 9q-20 0 -30 -20.5t-10 -49.5h-56q0 57 27.5 94.5t74.5 37.5q35 0 53.5 -15t32.5 -32q11 -13 21 -22t28 -9q20 0 29.5 20t9.5 50h56q0 -57 -26.5 -94t-74.5 -37z" />
    <glyph glyph-name="uni0304" unicode="&#x304;" 
d="M-330 586v71h256v-71h-256z" />
    <glyph glyph-name="uni0306" unicode="&#x306;" 
d="M-248 545q-78 0 -125.5 36.5t-47.5 117.5h79q0 -45 24 -69.5t70 -24.5q48 0 72 24.5t24 69.5h79q0 -81 -47.5 -117.5t-127.5 -36.5z" />
    <glyph glyph-name="uni0307" unicode="&#x307;" 
d="M-141 592q-28 0 -48 20t-20 48t20 47.5t48 19.5t48 -19.5t20 -47.5t-20 -48t-48 -20z" />
    <glyph glyph-name="uni0308" unicode="&#x308;" 
d="M-331 592q-28 0 -48 20t-20 48t20 47.5t48 19.5t48 -19.5t20 -47.5t-20 -48t-48 -20zM-141 592q-28 0 -48 20t-20 48t20 47.5t48 19.5t48 -19.5t20 -47.5t-20 -48t-48 -20z" />
    <glyph glyph-name="hookabovecomb" unicode="&#x309;" 
d="M-233 532v56q43 6 61.5 18t18.5 30q0 17 -13.5 27t-37.5 10q-14 0 -29 -5t-36 -16l-29 46q28 14 53 21.5t56 7.5q57 0 86.5 -22t29.5 -58q0 -34 -23.5 -51t-57.5 -25v-39h-79z" />
    <glyph glyph-name="uni030A" unicode="&#x30a;" 
d="M-191 553q-27 0 -48.5 9t-37.5 25t-24.5 37t-8.5 45t8.5 45t24.5 36.5t37.5 25t48.5 9.5q26 0 48 -9.5t37.5 -25t24 -36.5t8.5 -45t-8.5 -45t-24 -37t-37.5 -25t-48 -9zM-191 608q26 0 44 17.5t18 43.5q0 27 -18 44t-44 17t-43.5 -17t-17.5 -44q0 -26 17.5 -43.5
t43.5 -17.5z" />
    <glyph glyph-name="uni030B" unicode="&#x30b;" 
d="M-455 555l96 144h111l-112 -144h-95zM-280 555l96 144h111l-113 -144h-94z" />
    <glyph glyph-name="uni030C" unicode="&#x30c;" 
d="M-293 555l-96 144h89l69 -91l68 91h90l-96 -144h-124z" />
    <glyph glyph-name="uni0312" unicode="&#x312;" 
d="M-263 555l112 144h78l-96 -144h-94z" />
    <glyph glyph-name="uni031B" unicode="&#x31b;" 
d="M-174 388q-21 0 -44.5 8t-47.5 22l19 41q32 -19 55 -19q27 0 35 15t8 50v59h76v-70q0 -31 -9 -51.5t-23.5 -32.5t-32.5 -17t-36 -5z" />
    <glyph glyph-name="dotbelowcomb" unicode="&#x323;" 
d="M-141 -201q-28 0 -48 19.5t-20 48.5q0 27 20 47t48 20t48 -20t20 -47q0 -29 -20 -48.5t-48 -19.5z" />
    <glyph glyph-name="uni0326" unicode="&#x326;" 
d="M-263 -174l96 144h94l-112 -144h-78z" />
    <glyph glyph-name="uni0327" unicode="&#x327;" 
d="M-159 -63q39 0 62 -23t23 -60q0 -41 -28 -68t-74 -27q-45 0 -71 16.5t-37 42.5l61 19q6 -14 18.5 -20t26.5 -6q19 0 32.5 11.5t13.5 31.5t-13 30.5t-32 10.5q-23 0 -37 -14l-53 24l71 125l55 -20l-46 -77q13 4 28 4z" />
    <glyph glyph-name="uni0328" unicode="&#x328;" 
d="M-141 -213q-41 0 -69.5 16.5t-28.5 51.5q0 20 11 41t29.5 42t43 41.5t51.5 38.5l31 -18q-41 -25 -67 -56t-26 -56q0 -16 13 -24.5t35 -8.5q25 0 45 13v-70q-31 -11 -68 -11z" />
    <glyph glyph-name="uni0335" unicode="&#x335;" 
d="M-396 220v69h323v-69h-323z" />
    <glyph glyph-name="uni0336" unicode="&#x336;" 
d="M-805 237v46h732v-46h-732z" />
    <glyph glyph-name="uni0337" unicode="&#x337;" 
d="M-367 139v93l294 219v-94z" />
    <glyph glyph-name="uni0338" unicode="&#x338;" 
d="M-468 78l-44 27l395 566l44 -27z" />
    <glyph glyph-name="uni0394" unicode="&#x394;" horiz-adv-x="781" 
d="M456 750l301 -750h-733l301 750h131zM391 648l-214 -545h428z" />
    <glyph glyph-name="uni03A9" unicode="&#x3a9;" horiz-adv-x="842" 
d="M61 0v95h147v7q-25 19 -50.5 48.5t-45.5 67.5t-33 83.5t-13 96.5q0 68 25.5 130t72.5 109.5t112.5 76t144.5 28.5t144.5 -28t112.5 -75t73 -110t26 -132q0 -51 -13 -96t-33.5 -83t-46 -67.5t-50.5 -48.5v-7h147v-95h-295v85q33 22 63 50.5t53.5 64t37.5 79t14 96.5
q0 57 -17.5 105t-49 82t-74 53t-92.5 19t-92.5 -19t-74 -53t-49 -82t-17.5 -105q0 -53 14 -96.5t37.5 -79t53.5 -64t63 -50.5v-85h-295z" />
    <glyph glyph-name="uni03BC" unicode="&#x3bc;" horiz-adv-x="578" 
d="M402 494h109v-494h-103l-4 65q-26 -35 -66.5 -55t-92.5 -20q-21 0 -39.5 2.5t-35.5 7.5v-243h-109v737h109v-307q0 -56 29.5 -82.5t78.5 -26.5q26 0 48.5 8t39 25t26.5 43.5t10 63.5v276z" />
    <glyph glyph-name="pi" unicode="&#x3c0;" horiz-adv-x="627" 
d="M70 0q21 51 34.5 105.5t22 108.5t12 105.5t3.5 95.5l-121 -3l-9 82h603v-79h-95v-272q0 -40 3.5 -77t12.5 -66h-100q-12 25 -15 62.5t-3 76.5v276h-175q-1 -46 -4.5 -99.5t-11.5 -108t-21.5 -107.5t-34.5 -100h-101z" />
    <glyph glyph-name="Wgrave" unicode="&#x1e80;" horiz-adv-x="1027" 
d="M560 729h-95l-103 131h116zM889 699h118l-190 -699h-153l-151 499l-151 -499h-152l-190 699h118l156 -582l169 582h101l169 -581z" />
    <glyph glyph-name="wgrave" unicode="&#x1e81;" horiz-adv-x="860" 
d="M481 555h-95l-112 144h117zM723 494h115l-174 -494h-116l-118 363l-118 -363h-116l-175 494h116l121 -365l126 365h92l126 -365z" />
    <glyph glyph-name="Wacute" unicode="&#x1e82;" horiz-adv-x="1027" 
d="M664 860l-103 -131h-95l82 131h116zM889 699h118l-190 -699h-153l-151 499l-151 -499h-152l-190 699h118l156 -582l169 582h101l169 -581z" />
    <glyph glyph-name="wacute" unicode="&#x1e83;" horiz-adv-x="860" 
d="M586 699l-112 -144h-95l91 144h116zM723 494h115l-174 -494h-116l-118 363l-118 -363h-116l-175 494h116l121 -365l126 365h92l126 -365z" />
    <glyph glyph-name="Wdieresis" unicode="&#x1e84;" horiz-adv-x="1027" 
d="M418 743q-28 0 -48 20t-20 48t20 47.5t48 19.5t48 -19.5t20 -47.5t-20 -48t-48 -20zM608 743q-28 0 -48 20t-20 48t20 47.5t48 19.5t48 -19.5t20 -47.5t-20 -48t-48 -20zM889 699h118l-190 -699h-153l-151 499l-151 -499h-152l-190 699h118l156 -582l169 582h101
l169 -581z" />
    <glyph glyph-name="wdieresis" unicode="&#x1e85;" horiz-adv-x="860" 
d="M335 592q-28 0 -48 20t-20 48t20 47.5t48 19.5t48 -19.5t20 -47.5t-20 -48t-48 -20zM525 592q-28 0 -48 20t-20 48t20 47.5t48 19.5t48 -19.5t20 -47.5t-20 -48t-48 -20zM723 494h115l-174 -494h-116l-118 363l-118 -363h-116l-175 494h116l121 -365l126 365h92l126 -365
z" />
    <glyph glyph-name="uni1E9E" unicode="&#x1e9e;" horiz-adv-x="725" 
d="M477 388q39 -9 76 -23.5t65.5 -37t45.5 -54.5t17 -77q0 -48 -17.5 -86.5t-49 -65.5t-76 -42t-98.5 -15q-55 0 -97 9.5t-77 27.5l58 86q22 -13 50 -21t64 -8q60 0 94.5 28t34.5 79q0 31 -14.5 51t-39 34t-57 23.5t-68.5 18.5l-78 20l170 264h-293v-599h-114v699h542v-88
l-151 -220z" />
    <glyph glyph-name="uni1EA0" unicode="&#x1ea0;" horiz-adv-x="698" 
d="M685 0h-121l-58 158h-314l-58 -158h-121l265 699h142zM227 253h244l-122 331zM350 -66q28 0 48 -20t20 -47q0 -29 -20 -48.5t-48 -19.5t-48 19.5t-20 48.5q0 27 20 47t48 20z" />
    <glyph glyph-name="uni1EA1" unicode="&#x1ea1;" horiz-adv-x="539" 
d="M528 86v-86h-51q-38 0 -62.5 16.5t-24.5 53.5v11h-5q-26 -43 -73.5 -67t-113.5 -24q-31 0 -59 7.5t-49 24t-33 41.5t-12 60q0 38 15 65t40.5 45.5t60 30.5t74.5 19l89 17q16 3 28.5 10.5t12.5 25.5q0 45 -26.5 67t-71.5 22q-96 0 -107 -92l-109 15q13 77 68 116.5
t150 39.5q100 0 152.5 -46.5t52.5 -134.5v-190q0 -26 8 -36.5t28 -10.5h18zM228 75q63 0 103 43t40 117l-131 -30q-86 -15 -86 -72q0 -28 19.5 -43t54.5 -15zM277 -66q28 0 48 -20t20 -47q0 -29 -20 -48.5t-48 -19.5t-48 19.5t-20 48.5q0 27 20 47t48 20z" />
    <glyph glyph-name="uni1EA2" unicode="&#x1ea2;" horiz-adv-x="698" 
d="M345 875q-14 0 -28.5 -4.5t-31.5 -15.5l-29 40q23 14 45 21.5t52 7.5q54 0 82.5 -22t28.5 -58q0 -34 -23 -51t-58 -25v-39h-68v62q43 5 61.5 17.5t18.5 30.5q0 17 -13 26.5t-37 9.5zM564 0l-58 158h-314l-58 -158h-121l265 699h142l265 -699h-121zM227 253h244l-122 331z
" />
    <glyph glyph-name="uni1EA3" unicode="&#x1ea3;" horiz-adv-x="539" 
d="M255 673q-14 0 -29 -5t-36 -16l-29 46q28 14 53 21.5t56 7.5q57 0 86.5 -22t29.5 -58q0 -34 -23.5 -51t-57.5 -25v-39h-79v56q43 6 61.5 18t18.5 30q0 17 -13.5 27t-37.5 10zM528 86v-86h-51q-38 0 -62.5 16.5t-24.5 53.5v11h-5q-26 -43 -73.5 -67t-113.5 -24
q-31 0 -59 7.5t-49 24t-33 41.5t-12 60q0 38 15 65t40.5 45.5t60 30.5t74.5 19l89 17q16 3 28.5 10.5t12.5 25.5q0 45 -26.5 67t-71.5 22q-96 0 -107 -92l-109 15q13 77 68 116.5t150 39.5q100 0 152.5 -46.5t52.5 -134.5v-190q0 -26 8 -36.5t28 -10.5h18zM228 75
q63 0 103 43t40 117l-131 -30q-86 -15 -86 -72q0 -28 19.5 -43t54.5 -15z" />
    <glyph glyph-name="uni1EA4" unicode="&#x1ea4;" horiz-adv-x="698" 
d="M349 811l-71 -73h-89l97 122h127l19 -24l57 90h115l-103 -131h-37l45 -57h-89zM564 0l-58 158h-314l-58 -158h-121l265 699h142l265 -699h-121zM227 253h244l-122 331z" />
    <glyph glyph-name="uni1EA5" unicode="&#x1ea5;" horiz-adv-x="539" 
d="M265 646l-69 -91h-89l96 144h124l26 -39l69 111h117l-113 -144h-51l48 -72h-90zM474 133q0 -26 8 -36.5t28 -10.5h18v-86h-51q-38 0 -62.5 16.5t-24.5 53.5v11h-5q-26 -43 -73.5 -67t-113.5 -24q-31 0 -59 7.5t-49 24t-33 41.5t-12 60q0 38 15 65t40.5 45.5t60 30.5
t74.5 19l89 17q16 3 28.5 10.5t12.5 25.5q0 45 -26.5 67t-71.5 22q-96 0 -107 -92l-109 15q13 77 68 116.5t150 39.5q100 0 152.5 -46.5t52.5 -134.5v-190zM228 75q63 0 103 43t40 117l-131 -30q-86 -15 -86 -72q0 -28 19.5 -43t54.5 -15z" />
    <glyph glyph-name="uni1EA6" unicode="&#x1ea6;" horiz-adv-x="698" 
d="M597 795h-94l-103 131h115zM349 811l-71 -73h-89l97 122h127l96 -122h-89zM564 0l-58 158h-314l-58 -158h-121l265 699h142l265 -699h-121zM227 253h244l-122 331z" />
    <glyph glyph-name="uni1EA7" unicode="&#x1ea7;" horiz-adv-x="539" 
d="M526 627h-95l-113 144h117zM265 646l-69 -91h-89l96 144h124l96 -144h-90zM528 86v-86h-51q-38 0 -62.5 16.5t-24.5 53.5v11h-5q-26 -43 -73.5 -67t-113.5 -24q-31 0 -59 7.5t-49 24t-33 41.5t-12 60q0 38 15 65t40.5 45.5t60 30.5t74.5 19l89 17q16 3 28.5 10.5
t12.5 25.5q0 45 -26.5 67t-71.5 22q-96 0 -107 -92l-109 15q13 77 68 116.5t150 39.5q100 0 152.5 -46.5t52.5 -134.5v-190q0 -26 8 -36.5t28 -10.5h18zM228 75q63 0 103 43t40 117l-131 -30q-86 -15 -86 -72q0 -28 19.5 -43t54.5 -15z" />
    <glyph glyph-name="uni1EA8" unicode="&#x1ea8;" horiz-adv-x="698" 
d="M514 935q-14 0 -28.5 -4.5t-30.5 -15.5l-29 40q23 14 45 21.5t52 7.5q53 0 82 -22t29 -58q0 -34 -23.5 -51t-58.5 -25v-39h-67v62q43 5 61 17.5t18 30.5q0 17 -13 26.5t-37 9.5zM349 811l-71 -73h-89l97 122h127l96 -122h-89zM564 0l-58 158h-314l-58 -158h-121l265 699
h142l265 -699h-121zM227 253h244l-122 331z" />
    <glyph glyph-name="uni1EA9" unicode="&#x1ea9;" horiz-adv-x="539" 
d="M413 767q-14 0 -29.5 -4.5t-35.5 -15.5l-29 46q27 14 52.5 21.5t55.5 7.5q57 0 87 -22t30 -58q0 -35 -23.5 -51.5t-58.5 -24.5v-39h-79v56q43 5 61.5 17.5t18.5 30.5q0 17 -13 26.5t-37 9.5zM265 646l-69 -91h-89l96 144h124l96 -144h-90zM474 133q0 -26 8 -36.5
t28 -10.5h18v-86h-51q-38 0 -62.5 16.5t-24.5 53.5v11h-5q-26 -43 -73.5 -67t-113.5 -24q-31 0 -59 7.5t-49 24t-33 41.5t-12 60q0 38 15 65t40.5 45.5t60 30.5t74.5 19l89 17q16 3 28.5 10.5t12.5 25.5q0 45 -26.5 67t-71.5 22q-96 0 -107 -92l-109 15q13 77 68 116.5
t150 39.5q100 0 152.5 -46.5t52.5 -134.5v-190zM228 75q63 0 103 43t40 117l-131 -30q-86 -15 -86 -72q0 -28 19.5 -43t54.5 -15z" />
    <glyph glyph-name="uni1EAA" unicode="&#x1eaa;" horiz-adv-x="698" 
d="M279 949q-20 0 -30 -20.5t-10 -49.5h-56q0 57 27.5 94.5t74.5 37.5q35 0 54 -15.5t32 -31.5q11 -13 21 -22.5t28 -9.5q20 0 29.5 20t9.5 51h56q0 -57 -26.5 -94.5t-74.5 -37.5q-35 0 -53.5 15.5t-31.5 30.5q-11 14 -21.5 23t-28.5 9zM286 860h127l96 -122h-89l-70 73
l-71 -73h-89zM564 0l-58 158h-314l-58 -158h-121l265 699h142l265 -699h-121zM227 253h244l-122 331z" />
    <glyph glyph-name="uni1EAB" unicode="&#x1eab;" horiz-adv-x="539" 
d="M195 804q-20 0 -30 -20t-10 -50h-56q0 58 27.5 95t74.5 37q35 0 54 -15t32 -31q11 -14 21 -23t28 -9q20 0 29.5 20t9.5 50h56q0 -56 -26.5 -93.5t-74.5 -37.5q-35 0 -53.5 15t-31.5 31q-11 13 -21.5 22t-28.5 9zM204 699h123l96 -144h-89l-68 91l-69 -91h-89zM528 86v-86
h-51q-38 0 -62.5 16.5t-24.5 53.5v11h-5q-26 -43 -73.5 -67t-113.5 -24q-31 0 -59 7.5t-49 24t-33 41.5t-12 60q0 38 15 65t40.5 45.5t60 30.5t74.5 19l89 17q16 3 28.5 10.5t12.5 25.5q0 45 -26.5 67t-71.5 22q-96 0 -107 -92l-109 15q13 77 68 116.5t150 39.5
q100 0 152.5 -46.5t52.5 -134.5v-190q0 -26 8 -36.5t28 -10.5h18zM228 75q63 0 103 43t40 117l-131 -30q-86 -15 -86 -72q0 -28 19.5 -43t54.5 -15z" />
    <glyph glyph-name="uni1EAC" unicode="&#x1eac;" horiz-adv-x="698" 
d="M349 811l-71 -73h-89l97 122h127l96 -122h-89zM685 0h-121l-58 158h-314l-58 -158h-121l265 699h142zM227 253h244l-122 331zM350 -66q28 0 48 -20t20 -47q0 -29 -20 -48.5t-48 -19.5t-48 19.5t-20 48.5q0 27 20 47t48 20z" />
    <glyph glyph-name="uni1EAD" unicode="&#x1ead;" horiz-adv-x="539" 
d="M265 646l-69 -91h-89l96 144h124l96 -144h-90zM528 86v-86h-51q-38 0 -62.5 16.5t-24.5 53.5v11h-5q-26 -43 -73.5 -67t-113.5 -24q-31 0 -59 7.5t-49 24t-33 41.5t-12 60q0 38 15 65t40.5 45.5t60 30.5t74.5 19l89 17q16 3 28.5 10.5t12.5 25.5q0 45 -26.5 67t-71.5 22
q-96 0 -107 -92l-109 15q13 77 68 116.5t150 39.5q100 0 152.5 -46.5t52.5 -134.5v-190q0 -26 8 -36.5t28 -10.5h18zM228 75q63 0 103 43t40 117l-131 -30q-86 -15 -86 -72q0 -28 19.5 -43t54.5 -15zM277 -66q28 0 48 -20t20 -47q0 -29 -20 -48.5t-48 -19.5t-48 19.5
t-20 48.5q0 27 20 47t48 20z" />
    <glyph glyph-name="uni1EAE" unicode="&#x1eae;" horiz-adv-x="698" 
d="M500 995l-103 -131h-95l82 131h116zM349 734q-37 0 -67.5 6t-53 21t-36 39t-15.5 60h71q5 -37 29.5 -53t71.5 -16q48 0 72.5 16t29.5 53h70q-2 -36 -15.5 -60t-36 -39t-53 -21t-67.5 -6zM564 0l-58 158h-314l-58 -158h-121l265 699h142l265 -699h-121zM227 253h244
l-122 331z" />
    <glyph glyph-name="uni1EAF" unicode="&#x1eaf;" horiz-adv-x="539" 
d="M422 844l-113 -145h-94l90 145h117zM264 545q-78 0 -125.5 36.5t-47.5 117.5h79q0 -45 24 -69.5t70 -24.5q48 0 72 24.5t24 69.5h79q0 -81 -47.5 -117.5t-127.5 -36.5zM528 86v-86h-51q-38 0 -62.5 16.5t-24.5 53.5v11h-5q-26 -43 -73.5 -67t-113.5 -24q-31 0 -59 7.5
t-49 24t-33 41.5t-12 60q0 38 15 65t40.5 45.5t60 30.5t74.5 19l89 17q16 3 28.5 10.5t12.5 25.5q0 45 -26.5 67t-71.5 22q-96 0 -107 -92l-109 15q13 77 68 116.5t150 39.5q100 0 152.5 -46.5t52.5 -134.5v-190q0 -26 8 -36.5t28 -10.5h18zM228 75q63 0 103 43t40 117
l-131 -30q-86 -15 -86 -72q0 -28 19.5 -43t54.5 -15z" />
    <glyph glyph-name="uni1EB0" unicode="&#x1eb0;" horiz-adv-x="698" 
d="M397 864h-95l-103 131h116zM349 734q-37 0 -67.5 6t-53 21t-36 39t-15.5 60h71q5 -37 29.5 -53t71.5 -16q48 0 72.5 16t29.5 53h70q-2 -36 -15.5 -60t-36 -39t-53 -21t-67.5 -6zM564 0l-58 158h-314l-58 -158h-121l265 699h142l265 -699h-121zM227 253h244l-122 331z" />
    <glyph glyph-name="uni1EB1" unicode="&#x1eb1;" horiz-adv-x="539" 
d="M316 699h-94l-113 145h117zM265 545q-79 0 -126.5 36.5t-47.5 117.5h79q0 -45 24 -69.5t71 -24.5t71 24.5t24 69.5h79q0 -81 -47.5 -117.5t-126.5 -36.5zM528 86v-86h-51q-38 0 -62.5 16.5t-24.5 53.5v11h-5q-26 -43 -73.5 -67t-113.5 -24q-31 0 -59 7.5t-49 24t-33 41.5
t-12 60q0 38 15 65t40.5 45.5t60 30.5t74.5 19l89 17q16 3 28.5 10.5t12.5 25.5q0 45 -26.5 67t-71.5 22q-96 0 -107 -92l-109 15q13 77 68 116.5t150 39.5q100 0 152.5 -46.5t52.5 -134.5v-190q0 -26 8 -36.5t28 -10.5h18zM228 75q63 0 103 43t40 117l-131 -30
q-86 -15 -86 -72q0 -28 19.5 -43t54.5 -15z" />
    <glyph glyph-name="uni1EB2" unicode="&#x1eb2;" horiz-adv-x="698" 
d="M345 989q-30 0 -59 -21l-30 41q23 14 45.5 21.5t52.5 7.5q53 0 82 -22t29 -59q0 -34 -23.5 -51t-58.5 -25v-38h-67v61q43 6 61 18t18 30q0 17 -13 27t-37 10zM349 734q-37 0 -67.5 6t-53 21t-36 39t-15.5 60h71q5 -37 29.5 -53t71.5 -16q48 0 72.5 16t29.5 53h70
q-2 -36 -15.5 -60t-36 -39t-53 -21t-67.5 -6zM564 0l-58 158h-314l-58 -158h-121l265 699h142l265 -699h-121zM227 253h244l-122 331z" />
    <glyph glyph-name="uni1EB3" unicode="&#x1eb3;" horiz-adv-x="539" 
d="M261 809q-29 0 -60 -21l-29 41q23 14 45 21t52 7q54 0 83 -21.5t29 -58.5q0 -34 -23.5 -51t-58.5 -25v-27h-68v50q43 6 61.5 18t18.5 30q0 17 -13 27t-37 10zM264 545q-78 0 -125.5 36.5t-47.5 117.5h79q0 -45 24 -69.5t70 -24.5q48 0 72 24.5t24 69.5h79
q0 -81 -47.5 -117.5t-127.5 -36.5zM528 86v-86h-51q-38 0 -62.5 16.5t-24.5 53.5v11h-5q-26 -43 -73.5 -67t-113.5 -24q-31 0 -59 7.5t-49 24t-33 41.5t-12 60q0 38 15 65t40.5 45.5t60 30.5t74.5 19l89 17q16 3 28.5 10.5t12.5 25.5q0 45 -26.5 67t-71.5 22q-96 0 -107 -92
l-109 15q13 77 68 116.5t150 39.5q100 0 152.5 -46.5t52.5 -134.5v-190q0 -26 8 -36.5t28 -10.5h18zM228 75q63 0 103 43t40 117l-131 -30q-86 -15 -86 -72q0 -28 19.5 -43t54.5 -15z" />
    <glyph glyph-name="uni1EB4" unicode="&#x1eb4;" horiz-adv-x="698" 
d="M279 968q-20 0 -30 -20.5t-10 -49.5h-56q0 57 27.5 94t74.5 37q35 0 54 -15t32 -31q11 -13 21 -22.5t28 -9.5q20 0 29.5 20t9.5 51h56q0 -57 -26.5 -94.5t-74.5 -37.5q-35 0 -53.5 15t-31.5 31q-11 13 -21.5 22.5t-28.5 9.5zM349 734q-37 0 -67.5 6t-53 21t-36 39
t-15.5 60h71q5 -37 29.5 -53t71.5 -16q48 0 72.5 16t29.5 53h70q-2 -36 -15.5 -60t-36 -39t-53 -21t-67.5 -6zM564 0l-58 158h-314l-58 -158h-121l265 699h142l265 -699h-121zM227 253h244l-122 331z" />
    <glyph glyph-name="uni1EB5" unicode="&#x1eb5;" horiz-adv-x="539" 
d="M195 833q-20 0 -30 -20.5t-10 -49.5h-56q0 57 27.5 94.5t74.5 37.5q35 0 54 -15.5t32 -31.5q11 -13 21 -22t28 -9q20 0 29.5 19.5t9.5 50.5h56q0 -57 -26.5 -94.5t-74.5 -37.5q-35 0 -53.5 15.5t-31.5 30.5q-11 14 -21.5 23t-28.5 9zM265 545q-79 0 -126.5 36.5
t-47.5 117.5h79q0 -45 24 -69.5t71 -24.5t71 24.5t24 69.5h79q0 -81 -47.5 -117.5t-126.5 -36.5zM528 86v-86h-51q-38 0 -62.5 16.5t-24.5 53.5v11h-5q-26 -43 -73.5 -67t-113.5 -24q-31 0 -59 7.5t-49 24t-33 41.5t-12 60q0 38 15 65t40.5 45.5t60 30.5t74.5 19l89 17
q16 3 28.5 10.5t12.5 25.5q0 45 -26.5 67t-71.5 22q-96 0 -107 -92l-109 15q13 77 68 116.5t150 39.5q100 0 152.5 -46.5t52.5 -134.5v-190q0 -26 8 -36.5t28 -10.5h18zM228 75q63 0 103 43t40 117l-131 -30q-86 -15 -86 -72q0 -28 19.5 -43t54.5 -15z" />
    <glyph glyph-name="uni1EB6" unicode="&#x1eb6;" horiz-adv-x="698" 
d="M349 734q-37 0 -67.5 6t-53 21t-36 39t-15.5 60h71q5 -37 29.5 -53t71.5 -16q48 0 72.5 16t29.5 53h70q-2 -36 -15.5 -60t-36 -39t-53 -21t-67.5 -6zM685 0h-121l-58 158h-314l-58 -158h-121l265 699h142zM227 253h244l-122 331zM350 -66q28 0 48 -20t20 -47
q0 -29 -20 -48.5t-48 -19.5t-48 19.5t-20 48.5q0 27 20 47t48 20z" />
    <glyph glyph-name="uni1EB7" unicode="&#x1eb7;" horiz-adv-x="539" 
d="M264 545q-78 0 -125.5 36.5t-47.5 117.5h79q0 -45 24 -69.5t70 -24.5q48 0 72 24.5t24 69.5h79q0 -81 -47.5 -117.5t-127.5 -36.5zM528 86v-86h-51q-38 0 -62.5 16.5t-24.5 53.5v11h-5q-26 -43 -73.5 -67t-113.5 -24q-31 0 -59 7.5t-49 24t-33 41.5t-12 60q0 38 15 65
t40.5 45.5t60 30.5t74.5 19l89 17q16 3 28.5 10.5t12.5 25.5q0 45 -26.5 67t-71.5 22q-96 0 -107 -92l-109 15q13 77 68 116.5t150 39.5q100 0 152.5 -46.5t52.5 -134.5v-190q0 -26 8 -36.5t28 -10.5h18zM228 75q63 0 103 43t40 117l-131 -30q-86 -15 -86 -72
q0 -28 19.5 -43t54.5 -15zM277 -66q28 0 48 -20t20 -47q0 -29 -20 -48.5t-48 -19.5t-48 19.5t-20 48.5q0 27 20 47t48 20z" />
    <glyph glyph-name="uni1EB8" unicode="&#x1eb8;" horiz-adv-x="512" 
d="M468 599h-281v-200h250v-99h-250v-200h281v-100h-395v699h395v-100zM277 -66q28 0 48 -20t20 -47q0 -29 -20 -48.5t-48 -19.5t-48 19.5t-20 48.5q0 27 20 47t48 20z" />
    <glyph glyph-name="uni1EB9" unicode="&#x1eb9;" horiz-adv-x="589" 
d="M544 225h-393q5 -71 47 -110t104 -39q45 0 78.5 21t50.5 60l100 -15q-25 -72 -86 -112t-143 -40q-58 0 -106 18t-81.5 51.5t-52 81t-18.5 106.5t19 106.5t52.5 81t80.5 51.5t103 18q53 0 98 -16.5t78 -48.5t51.5 -79.5t18.5 -109.5zM300 418q-57 0 -95 -26.5t-49 -83.5
h279q-8 54 -45 82t-90 28zM307 -67q28 0 48 -20t20 -47q0 -29 -20 -48.5t-48 -19.5t-48 19.5t-20 48.5q0 27 20 47t48 20z" />
    <glyph glyph-name="uni1EBA" unicode="&#x1eba;" horiz-adv-x="512" 
d="M272 875q-14 0 -28.5 -4.5t-31.5 -15.5l-29 40q23 14 45 21.5t52 7.5q54 0 82.5 -22t28.5 -58q0 -34 -23 -51t-58 -25v-39h-68v62q43 5 61.5 17.5t18.5 30.5q0 17 -13 26.5t-37 9.5zM468 599h-281v-200h250v-99h-250v-200h281v-100h-395v699h395v-100z" />
    <glyph glyph-name="uni1EBB" unicode="&#x1ebb;" horiz-adv-x="589" 
d="M284 673q-14 0 -29 -5t-36 -16l-29 46q28 14 53 21.5t56 7.5q57 0 86.5 -22t29.5 -58q0 -34 -23.5 -51t-57.5 -25v-39h-79v56q43 6 61.5 18t18.5 30q0 17 -13.5 27t-37.5 10zM544 225h-393q5 -71 47 -110t104 -39q45 0 78.5 21t50.5 60l100 -15q-25 -72 -86 -112
t-143 -40q-58 0 -106 18t-81.5 51.5t-52 81t-18.5 106.5t19 106.5t52.5 81t80.5 51.5t103 18q53 0 98 -16.5t78 -48.5t51.5 -79.5t18.5 -109.5zM300 418q-57 0 -95 -26.5t-49 -83.5h279q-8 54 -45 82t-90 28z" />
    <glyph glyph-name="uni1EBC" unicode="&#x1ebc;" horiz-adv-x="512" 
d="M206 807q-20 0 -30 -20.5t-10 -49.5h-56q0 57 27.5 94t74.5 37q35 0 53.5 -15t32.5 -31q11 -13 21 -22.5t28 -9.5q20 0 29.5 20t9.5 51h56q0 -57 -26.5 -94.5t-74.5 -37.5q-35 0 -54 15t-31 31q-11 13 -21.5 22.5t-28.5 9.5zM468 599h-281v-200h250v-99h-250v-200h281
v-100h-395v699h395v-100z" />
    <glyph glyph-name="uni1EBD" unicode="&#x1ebd;" horiz-adv-x="589" 
d="M225 628q-20 0 -30 -20.5t-10 -49.5h-56q0 57 27.5 94.5t74.5 37.5q35 0 53.5 -15t32.5 -32q11 -13 21 -22t28 -9q20 0 29.5 20t9.5 50h56q0 -57 -26.5 -94t-74.5 -37q-35 0 -54 15t-31 30q-11 14 -21.5 23t-28.5 9zM544 225h-393q5 -71 47 -110t104 -39q45 0 78.5 21
t50.5 60l100 -15q-25 -72 -86 -112t-143 -40q-58 0 -106 18t-81.5 51.5t-52 81t-18.5 106.5t19 106.5t52.5 81t80.5 51.5t103 18q53 0 98 -16.5t78 -48.5t51.5 -79.5t18.5 -109.5zM300 418q-57 0 -95 -26.5t-49 -83.5h279q-8 54 -45 82t-90 28z" />
    <glyph glyph-name="uni1EBE" unicode="&#x1ebe;" horiz-adv-x="512" 
d="M276 811l-71 -73h-89l97 122h127l19 -24l57 90h115l-103 -131h-37l45 -57h-89zM73 0v699h395v-100h-281v-200h250v-99h-250v-200h281v-100h-395z" />
    <glyph glyph-name="uni1EBF" unicode="&#x1ebf;" horiz-adv-x="589" 
d="M295 646l-69 -91h-89l96 144h124l26 -39l69 111h117l-113 -144h-51l48 -72h-90zM299 504q53 0 98 -16.5t78 -48.5t51.5 -79.5t18.5 -109.5l-1 -25h-393q5 -71 47 -110t104 -39q45 0 78.5 21t50.5 60l100 -15q-25 -72 -86 -112t-143 -40q-58 0 -106 18t-81.5 51.5t-52 81
t-18.5 106.5t19 106.5t52.5 81t80.5 51.5t103 18zM300 418q-57 0 -95 -26.5t-49 -83.5h279q-8 54 -45 82t-90 28z" />
    <glyph glyph-name="uni1EC0" unicode="&#x1ec0;" horiz-adv-x="512" 
d="M524 795h-94l-103 131h115zM276 811l-71 -73h-89l97 122h127l96 -122h-89zM73 0v699h395v-100h-281v-200h250v-99h-250v-200h281v-100h-395z" />
    <glyph glyph-name="uni1EC1" unicode="&#x1ec1;" horiz-adv-x="589" 
d="M556 627h-95l-113 144h117zM295 646l-69 -91h-89l96 144h124l96 -144h-90zM299 504q53 0 98 -16.5t78 -48.5t51.5 -79.5t18.5 -109.5l-1 -25h-393q5 -71 47 -110t104 -39q45 0 78.5 21t50.5 60l100 -15q-25 -72 -86 -112t-143 -40q-58 0 -106 18t-81.5 51.5t-52 81
t-18.5 106.5t19 106.5t52.5 81t80.5 51.5t103 18zM300 418q-57 0 -95 -26.5t-49 -83.5h279q-8 54 -45 82t-90 28z" />
    <glyph glyph-name="uni1EC2" unicode="&#x1ec2;" horiz-adv-x="512" 
d="M450 984q53 0 82 -22t29 -58q0 -34 -23.5 -51t-58.5 -25v-39h-67v62q43 5 61 17.5t18 30.5q0 17 -13 26.5t-37 9.5q-14 0 -28.5 -4.5t-30.5 -15.5l-29 40q23 14 45 21.5t52 7.5zM276 811l-71 -73h-89l97 122h127l96 -122h-89zM73 0v699h395v-100h-281v-200h250v-99h-250
v-200h281v-100h-395z" />
    <glyph glyph-name="uni1EC3" unicode="&#x1ec3;" horiz-adv-x="589" 
d="M457 822q57 0 87 -22t30 -58q0 -35 -23.5 -51.5t-58.5 -24.5v-39h-79v56q43 5 61.5 17.5t18.5 30.5q0 17 -13 26.5t-37 9.5q-14 0 -29.5 -4.5t-35.5 -15.5l-29 46q27 14 52.5 21.5t55.5 7.5zM295 646l-69 -91h-89l96 144h124l96 -144h-90zM299 504q53 0 98 -16.5
t78 -48.5t51.5 -79.5t18.5 -109.5l-1 -25h-393q5 -71 47 -110t104 -39q45 0 78.5 21t50.5 60l100 -15q-25 -72 -86 -112t-143 -40q-58 0 -106 18t-81.5 51.5t-52 81t-18.5 106.5t19 106.5t52.5 81t80.5 51.5t103 18zM300 418q-57 0 -95 -26.5t-49 -83.5h279q-8 54 -45 82
t-90 28z" />
    <glyph glyph-name="uni1EC4" unicode="&#x1ec4;" horiz-adv-x="512" 
d="M206 949q-20 0 -30 -20.5t-10 -49.5h-56q0 57 27.5 94.5t74.5 37.5q35 0 54 -15.5t32 -31.5q11 -13 21 -22.5t28 -9.5q20 0 29.5 20t9.5 51h56q0 -57 -26.5 -94.5t-74.5 -37.5q-35 0 -53.5 15.5t-31.5 30.5q-11 14 -21.5 23t-28.5 9zM213 860h127l96 -122h-89l-70 73
l-71 -73h-89zM468 599h-281v-200h250v-99h-250v-200h281v-100h-395v699h395v-100z" />
    <glyph glyph-name="uni1EC5" unicode="&#x1ec5;" horiz-adv-x="589" 
d="M224 804q-20 0 -30 -20t-10 -50h-56q0 58 27.5 95t74.5 37q35 0 54 -15t32 -31q11 -14 21 -23t28 -9q20 0 29.5 20t9.5 50h56q0 -56 -26.5 -93.5t-74.5 -37.5q-35 0 -53.5 15t-31.5 31q-11 13 -21.5 22t-28.5 9zM233 699h123l96 -144h-89l-68 91l-69 -91h-89zM544 225
h-393q5 -71 47 -110t104 -39q45 0 78.5 21t50.5 60l100 -15q-25 -72 -86 -112t-143 -40q-58 0 -106 18t-81.5 51.5t-52 81t-18.5 106.5t19 106.5t52.5 81t80.5 51.5t103 18q53 0 98 -16.5t78 -48.5t51.5 -79.5t18.5 -109.5zM300 418q-57 0 -95 -26.5t-49 -83.5h279
q-8 54 -45 82t-90 28z" />
    <glyph glyph-name="uni1EC6" unicode="&#x1ec6;" horiz-adv-x="512" 
d="M276 811l-71 -73h-89l97 122h127l96 -122h-89zM468 599h-281v-200h250v-99h-250v-200h281v-100h-395v699h395v-100zM277 -66q28 0 48 -20t20 -47q0 -29 -20 -48.5t-48 -19.5t-48 19.5t-20 48.5q0 27 20 47t48 20z" />
    <glyph glyph-name="uni1EC7" unicode="&#x1ec7;" horiz-adv-x="589" 
d="M295 646l-69 -91h-89l96 144h124l96 -144h-90zM544 225h-393q5 -71 47 -110t104 -39q45 0 78.5 21t50.5 60l100 -15q-25 -72 -86 -112t-143 -40q-58 0 -106 18t-81.5 51.5t-52 81t-18.5 106.5t19 106.5t52.5 81t80.5 51.5t103 18q53 0 98 -16.5t78 -48.5t51.5 -79.5
t18.5 -109.5zM300 418q-57 0 -95 -26.5t-49 -83.5h279q-8 54 -45 82t-90 28zM307 -67q28 0 48 -20t20 -47q0 -29 -20 -48.5t-48 -19.5t-48 19.5t-20 48.5q0 27 20 47t48 20z" />
    <glyph glyph-name="uni1EC8" unicode="&#x1ec8;" horiz-adv-x="260" 
d="M95 729v62q43 5 61.5 17.5t18.5 30.5q0 17 -13 26.5t-37 9.5q-14 0 -28.5 -4.5t-31.5 -15.5l-29 40q23 14 45 21.5t52 7.5q54 0 82.5 -22t28.5 -58q0 -34 -23 -51t-58 -25v-39h-68zM73 0v699h114v-699h-114z" />
    <glyph glyph-name="uni1EC9" unicode="&#x1ec9;" horiz-adv-x="240" 
d="M80 532v56q43 6 61.5 18t18.5 30q0 17 -13.5 27t-37.5 10q-14 0 -29 -5t-36 -16l-29 46q28 14 53 21.5t56 7.5q57 0 86.5 -22t29.5 -58q0 -34 -23.5 -51t-57.5 -25v-39h-79zM66 0v494h109v-494h-109z" />
    <glyph glyph-name="uni1ECA" unicode="&#x1eca;" horiz-adv-x="260" 
d="M73 0v699h114v-699h-114zM129 -201q-28 0 -48 19.5t-20 48.5q0 27 20 47t48 20t48 -20t20 -47q0 -29 -20 -48.5t-48 -19.5z" />
    <glyph glyph-name="uni1ECB" unicode="&#x1ecb;" horiz-adv-x="240" 
d="M120 592q-28 0 -48 20t-20 48t20 47.5t48 19.5t48 -19.5t20 -47.5t-20 -48t-48 -20zM66 0v494h109v-494h-109zM120 -201q-28 0 -48 19.5t-20 48.5q0 27 20 47t48 20t48 -20t20 -47q0 -29 -20 -48.5t-48 -19.5z" />
    <glyph glyph-name="uni1ECC" unicode="&#x1ecc;" horiz-adv-x="794" 
d="M397 -13q-78 0 -143 26.5t-112 74t-73 114.5t-26 148t26 147.5t73 114t112 74t143 26.5t143 -26.5t112 -74t73 -114t26 -147.5t-26 -148t-73 -114.5t-112 -74t-143 -26.5zM397 92q53 0 97 18.5t76 52.5t50 81.5t18 105.5t-18 105.5t-50 81.5t-76 52.5t-97 18.5
t-97.5 -18.5t-76.5 -52.5t-49.5 -81.5t-17.5 -105.5t17.5 -105.5t49.5 -81.5t76.5 -52.5t97.5 -18.5zM397 -201q-28 0 -48 19.5t-20 48.5q0 27 20 47t48 20t48 -20t20 -47q0 -29 -20 -48.5t-48 -19.5z" />
    <glyph glyph-name="uni1ECD" unicode="&#x1ecd;" horiz-adv-x="612" 
d="M306 -10q-58 0 -106 18.5t-83 52t-54.5 81t-19.5 106.5t19.5 106t54.5 80.5t83 51.5t106 18t106 -18t82.5 -51.5t54 -80.5t19.5 -106t-19.5 -106.5t-54 -81t-82.5 -52t-106 -18.5zM306 78q34 0 62.5 12.5t48.5 35t31.5 53.5t11.5 69q0 37 -11.5 68t-31.5 53.5t-48.5 35
t-62.5 12.5t-62.5 -12.5t-49 -35t-31.5 -53.5t-11 -68q0 -38 11 -69t31.5 -53.5t49 -35t62.5 -12.5zM307 -201q-28 0 -48 19.5t-20 48.5q0 27 20 47t48 20t48 -20t20 -47q0 -29 -20 -48.5t-48 -19.5z" />
    <glyph glyph-name="uni1ECE" unicode="&#x1ece;" horiz-adv-x="794" 
d="M362 729v62q43 5 61.5 17.5t18.5 30.5q0 17 -13 26.5t-37 9.5q-14 0 -28.5 -4.5t-31.5 -15.5l-29 40q23 14 45 21.5t52 7.5q54 0 82.5 -22t28.5 -58q0 -34 -23 -51t-58 -25v-39h-68zM397 -13q-78 0 -143 26.5t-112 74t-73 114.5t-26 148t26 147.5t73 114t112 74t143 26.5
t143 -26.5t112 -74t73 -114t26 -147.5t-26 -148t-73 -114.5t-112 -74t-143 -26.5zM397 92q53 0 97 18.5t76 52.5t50 81.5t18 105.5t-18 105.5t-50 81.5t-76 52.5t-97 18.5t-97.5 -18.5t-76.5 -52.5t-49.5 -81.5t-17.5 -105.5t17.5 -105.5t49.5 -81.5t76.5 -52.5t97.5 -18.5z
" />
    <glyph glyph-name="uni1ECF" unicode="&#x1ecf;" horiz-adv-x="612" 
d="M267 532v56q43 6 61.5 18t18.5 30q0 17 -13.5 27t-37.5 10q-14 0 -29 -5t-36 -16l-29 46q28 14 53 21.5t56 7.5q57 0 86.5 -22t29.5 -58q0 -34 -23.5 -51t-57.5 -25v-39h-79zM306 -10q-58 0 -106 18.5t-83 52t-54.5 81t-19.5 106.5t19.5 106t54.5 80.5t83 51.5t106 18
t106 -18t82.5 -51.5t54 -80.5t19.5 -106t-19.5 -106.5t-54 -81t-82.5 -52t-106 -18.5zM306 78q34 0 62.5 12.5t48.5 35t31.5 53.5t11.5 69q0 37 -11.5 68t-31.5 53.5t-48.5 35t-62.5 12.5t-62.5 -12.5t-49 -35t-31.5 -53.5t-11 -68q0 -38 11 -69t31.5 -53.5t49 -35
t62.5 -12.5z" />
    <glyph glyph-name="uni1ED0" unicode="&#x1ed0;" horiz-adv-x="794" 
d="M397 811l-71 -73h-89l97 122h127l19 -24l57 90h115l-103 -131h-37l45 -57h-89zM397 712q78 0 143 -26.5t112 -74t73 -114t26 -147.5t-26 -148t-73 -114.5t-112 -74t-143 -26.5t-143 26.5t-112 74t-73 114.5t-26 148t26 147.5t73 114t112 74t143 26.5zM397 92
q53 0 97 18.5t76 52.5t50 81.5t18 105.5t-18 105.5t-50 81.5t-76 52.5t-97 18.5t-97.5 -18.5t-76.5 -52.5t-49.5 -81.5t-17.5 -105.5t17.5 -105.5t49.5 -81.5t76.5 -52.5t97.5 -18.5z" />
    <glyph glyph-name="uni1ED1" unicode="&#x1ed1;" horiz-adv-x="612" 
d="M307 646l-69 -91h-89l96 144h124l26 -39l69 111h117l-113 -144h-51l48 -72h-90zM306 504q58 0 106 -18t82.5 -51.5t54 -80.5t19.5 -106t-19.5 -106.5t-54 -81t-82.5 -52t-106 -18.5t-106 18.5t-83 52t-54.5 81t-19.5 106.5t19.5 106t54.5 80.5t83 51.5t106 18zM306 78
q34 0 62.5 12.5t48.5 35t31.5 53.5t11.5 69q0 37 -11.5 68t-31.5 53.5t-48.5 35t-62.5 12.5t-62.5 -12.5t-49 -35t-31.5 -53.5t-11 -68q0 -38 11 -69t31.5 -53.5t49 -35t62.5 -12.5z" />
    <glyph glyph-name="uni1ED2" unicode="&#x1ed2;" horiz-adv-x="794" 
d="M551 795l-103 131h115l82 -131h-94zM237 738l97 122h127l96 -122h-89l-71 73l-71 -73h-89zM397 -13q-78 0 -143 26.5t-112 74t-73 114.5t-26 148t26 147.5t73 114t112 74t143 26.5t143 -26.5t112 -74t73 -114t26 -147.5t-26 -148t-73 -114.5t-112 -74t-143 -26.5zM397 92
q53 0 97 18.5t76 52.5t50 81.5t18 105.5t-18 105.5t-50 81.5t-76 52.5t-97 18.5t-97.5 -18.5t-76.5 -52.5t-49.5 -81.5t-17.5 -105.5t17.5 -105.5t49.5 -81.5t76.5 -52.5t97.5 -18.5z" />
    <glyph glyph-name="uni1ED3" unicode="&#x1ed3;" horiz-adv-x="612" 
d="M473 627l-113 144h117l91 -144h-95zM149 555l96 144h124l96 -144h-90l-68 91l-69 -91h-89zM306 -10q-58 0 -106 18.5t-83 52t-54.5 81t-19.5 106.5t19.5 106t54.5 80.5t83 51.5t106 18t106 -18t82.5 -51.5t54 -80.5t19.5 -106t-19.5 -106.5t-54 -81t-82.5 -52t-106 -18.5
zM306 78q34 0 62.5 12.5t48.5 35t31.5 53.5t11.5 69q0 37 -11.5 68t-31.5 53.5t-48.5 35t-62.5 12.5t-62.5 -12.5t-49 -35t-31.5 -53.5t-11 -68q0 -38 11 -69t31.5 -53.5t49 -35t62.5 -12.5z" />
    <glyph glyph-name="uni1ED4" unicode="&#x1ed4;" horiz-adv-x="794" 
d="M600 789h-67v62q43 5 61 17.5t18 30.5q0 17 -13 26.5t-37 9.5q-14 0 -28.5 -4.5t-30.5 -15.5l-29 40q23 14 45 21.5t52 7.5q53 0 82 -22t29 -58q0 -34 -23.5 -51t-58.5 -25v-39zM326 738h-89l97 122h127l96 -122h-89l-71 73zM397 -13q-78 0 -143 26.5t-112 74t-73 114.5
t-26 148t26 147.5t73 114t112 74t143 26.5t143 -26.5t112 -74t73 -114t26 -147.5t-26 -148t-73 -114.5t-112 -74t-143 -26.5zM397 92q53 0 97 18.5t76 52.5t50 81.5t18 105.5t-18 105.5t-50 81.5t-76 52.5t-97 18.5t-97.5 -18.5t-76.5 -52.5t-49.5 -81.5t-17.5 -105.5
t17.5 -105.5t49.5 -81.5t76.5 -52.5t97.5 -18.5z" />
    <glyph glyph-name="uni1ED5" unicode="&#x1ed5;" horiz-adv-x="612" 
d="M504 627h-79v56q43 5 61.5 17.5t18.5 30.5q0 17 -13 26.5t-37 9.5q-14 0 -29.5 -4.5t-35.5 -15.5l-29 46q27 14 52.5 21.5t55.5 7.5q57 0 87 -22t30 -58q0 -35 -23.5 -51.5t-58.5 -24.5v-39zM149 555l96 144h124l96 -144h-90l-68 91l-69 -91h-89zM306 -10
q-58 0 -106 18.5t-83 52t-54.5 81t-19.5 106.5t19.5 106t54.5 80.5t83 51.5t106 18t106 -18t82.5 -51.5t54 -80.5t19.5 -106t-19.5 -106.5t-54 -81t-82.5 -52t-106 -18.5zM306 78q34 0 62.5 12.5t48.5 35t31.5 53.5t11.5 69q0 37 -11.5 68t-31.5 53.5t-48.5 35t-62.5 12.5
t-62.5 -12.5t-49 -35t-31.5 -53.5t-11 -68q0 -38 11 -69t31.5 -53.5t49 -35t62.5 -12.5z" />
    <glyph glyph-name="uni1ED6" unicode="&#x1ed6;" horiz-adv-x="794" 
d="M461 871q-35 0 -53.5 15.5t-31.5 30.5q-11 14 -21.5 23t-28.5 9q-20 0 -30 -20.5t-10 -49.5h-56q0 57 27.5 94.5t74.5 37.5q35 0 54 -15.5t32 -31.5q11 -13 21 -22.5t28 -9.5q20 0 29.5 20t9.5 51h56q0 -57 -26.5 -94.5t-74.5 -37.5zM326 738h-89l96 122h127l96 -122h-89
l-70 73zM397 -13q-78 0 -143 26.5t-112 74t-73 114.5t-26 148t26 147.5t73 114t112 74t143 26.5t143 -26.5t112 -74t73 -114t26 -147.5t-26 -148t-73 -114.5t-112 -74t-143 -26.5zM397 92q53 0 97 18.5t76 52.5t50 81.5t18 105.5t-18 105.5t-50 81.5t-76 52.5t-97 18.5
t-97.5 -18.5t-76.5 -52.5t-49.5 -81.5t-17.5 -105.5t17.5 -105.5t49.5 -81.5t76.5 -52.5t97.5 -18.5z" />
    <glyph glyph-name="uni1ED7" unicode="&#x1ed7;" horiz-adv-x="612" 
d="M371 727q-35 0 -53.5 15t-31.5 31q-11 13 -21.5 22t-28.5 9q-20 0 -30 -20t-10 -50h-56q0 58 27.5 95t74.5 37q35 0 54 -15t32 -31q11 -14 21 -23t28 -9q20 0 29.5 20t9.5 50h56q0 -56 -26.5 -93.5t-74.5 -37.5zM238 555h-89l96 144h123l96 -144h-89l-68 91zM306 -10
q-58 0 -106 18.5t-83 52t-54.5 81t-19.5 106.5t19.5 106t54.5 80.5t83 51.5t106 18t106 -18t82.5 -51.5t54 -80.5t19.5 -106t-19.5 -106.5t-54 -81t-82.5 -52t-106 -18.5zM306 78q34 0 62.5 12.5t48.5 35t31.5 53.5t11.5 69q0 37 -11.5 68t-31.5 53.5t-48.5 35t-62.5 12.5
t-62.5 -12.5t-49 -35t-31.5 -53.5t-11 -68q0 -38 11 -69t31.5 -53.5t49 -35t62.5 -12.5z" />
    <glyph glyph-name="uni1ED8" unicode="&#x1ed8;" horiz-adv-x="794" 
d="M237 738l97 122h127l96 -122h-89l-71 73l-71 -73h-89zM397 -13q-78 0 -143 26.5t-112 74t-73 114.5t-26 148t26 147.5t73 114t112 74t143 26.5t143 -26.5t112 -74t73 -114t26 -147.5t-26 -148t-73 -114.5t-112 -74t-143 -26.5zM397 92q53 0 97 18.5t76 52.5t50 81.5
t18 105.5t-18 105.5t-50 81.5t-76 52.5t-97 18.5t-97.5 -18.5t-76.5 -52.5t-49.5 -81.5t-17.5 -105.5t17.5 -105.5t49.5 -81.5t76.5 -52.5t97.5 -18.5zM397 -201q-28 0 -48 19.5t-20 48.5q0 27 20 47t48 20t48 -20t20 -47q0 -29 -20 -48.5t-48 -19.5z" />
    <glyph glyph-name="uni1ED9" unicode="&#x1ed9;" horiz-adv-x="612" 
d="M149 555l96 144h124l96 -144h-90l-68 91l-69 -91h-89zM306 -10q-58 0 -106 18.5t-83 52t-54.5 81t-19.5 106.5t19.5 106t54.5 80.5t83 51.5t106 18t106 -18t82.5 -51.5t54 -80.5t19.5 -106t-19.5 -106.5t-54 -81t-82.5 -52t-106 -18.5zM306 78q34 0 62.5 12.5t48.5 35
t31.5 53.5t11.5 69q0 37 -11.5 68t-31.5 53.5t-48.5 35t-62.5 12.5t-62.5 -12.5t-49 -35t-31.5 -53.5t-11 -68q0 -38 11 -69t31.5 -53.5t49 -35t62.5 -12.5zM307 -201q-28 0 -48 19.5t-20 48.5q0 27 20 47t48 20t48 -20t20 -47q0 -29 -20 -48.5t-48 -19.5z" />
    <glyph glyph-name="uni1EDA" unicode="&#x1eda;" horiz-adv-x="794" 
d="M547 860l-103 -131h-95l82 131h116zM710 731h76v-70q0 -29 -8 -48.5t-20.5 -32t-28.5 -18t-33 -7.5q26 -42 40.5 -93.5t14.5 -111.5q0 -81 -26 -148t-73 -114.5t-112 -74t-143 -26.5t-143 26.5t-112 74t-73 114.5t-26 148t26 147.5t73 114t112 74t143 26.5
q80 0 145.5 -27t112.5 -77q4 -1 12 -1q27 0 35 15t8 50v59zM397 92q53 0 97 18.5t76 52.5t50 81.5t18 105.5t-18 105.5t-50 81.5t-76 52.5t-97 18.5t-97.5 -18.5t-76.5 -52.5t-49.5 -81.5t-17.5 -105.5t17.5 -105.5t49.5 -81.5t76.5 -52.5t97.5 -18.5z" />
    <glyph glyph-name="uni1EDB" unicode="&#x1edb;" horiz-adv-x="612" 
d="M463 699l-112 -144h-95l91 144h116zM542 566h76v-70q0 -28 -7.5 -47.5t-20 -32t-28 -18t-32.5 -7.5q18 -30 28 -65.5t10 -77.5q0 -59 -19.5 -106.5t-54 -81t-82.5 -52t-106 -18.5t-106 18.5t-83 52t-54.5 81t-19.5 106.5t19.5 106t54.5 80.5t83 51.5t106 18
q54 0 99 -15.5t80 -44.5q4 -1 7 -1.5t7 -0.5q27 0 35 15t8 50v59zM306 78q34 0 62.5 12.5t48.5 35t31.5 53.5t11.5 69q0 37 -11.5 68t-31.5 53.5t-48.5 35t-62.5 12.5t-62.5 -12.5t-49 -35t-31.5 -53.5t-11 -68q0 -38 11 -69t31.5 -53.5t49 -35t62.5 -12.5z" />
    <glyph glyph-name="uni1EDC" unicode="&#x1edc;" horiz-adv-x="794" 
d="M444 729h-95l-103 131h116zM710 731h76v-70q0 -29 -8 -48.5t-20.5 -32t-28.5 -18t-33 -7.5q26 -42 40.5 -93.5t14.5 -111.5q0 -81 -26 -148t-73 -114.5t-112 -74t-143 -26.5t-143 26.5t-112 74t-73 114.5t-26 148t26 147.5t73 114t112 74t143 26.5q80 0 145.5 -27
t112.5 -77q4 -1 12 -1q27 0 35 15t8 50v59zM397 92q53 0 97 18.5t76 52.5t50 81.5t18 105.5t-18 105.5t-50 81.5t-76 52.5t-97 18.5t-97.5 -18.5t-76.5 -52.5t-49.5 -81.5t-17.5 -105.5t17.5 -105.5t49.5 -81.5t76.5 -52.5t97.5 -18.5z" />
    <glyph glyph-name="uni1EDD" unicode="&#x1edd;" horiz-adv-x="612" 
d="M358 555h-95l-112 144h117zM542 566h76v-70q0 -28 -7.5 -47.5t-20 -32t-28 -18t-32.5 -7.5q18 -30 28 -65.5t10 -77.5q0 -59 -19.5 -106.5t-54 -81t-82.5 -52t-106 -18.5t-106 18.5t-83 52t-54.5 81t-19.5 106.5t19.5 106t54.5 80.5t83 51.5t106 18q54 0 99 -15.5
t80 -44.5q4 -1 7 -1.5t7 -0.5q27 0 35 15t8 50v59zM306 78q34 0 62.5 12.5t48.5 35t31.5 53.5t11.5 69q0 37 -11.5 68t-31.5 53.5t-48.5 35t-62.5 12.5t-62.5 -12.5t-49 -35t-31.5 -53.5t-11 -68q0 -38 11 -69t31.5 -53.5t49 -35t62.5 -12.5z" />
    <glyph glyph-name="uni1EDE" unicode="&#x1ede;" horiz-adv-x="794" 
d="M392 875q-14 0 -28.5 -4.5t-31.5 -15.5l-29 40q23 14 45 21.5t52 7.5q54 0 82.5 -22t28.5 -58q0 -34 -23 -51t-58 -25v-39h-68v62q43 5 61.5 17.5t18.5 30.5q0 17 -13 26.5t-37 9.5zM710 731h76v-70q0 -29 -8 -48.5t-20.5 -32t-28.5 -18t-33 -7.5q26 -42 40.5 -93.5
t14.5 -111.5q0 -81 -26 -148t-73 -114.5t-112 -74t-143 -26.5t-143 26.5t-112 74t-73 114.5t-26 148t26 147.5t73 114t112 74t143 26.5q80 0 145.5 -27t112.5 -77q4 -1 12 -1q27 0 35 15t8 50v59zM397 92q53 0 97 18.5t76 52.5t50 81.5t18 105.5t-18 105.5t-50 81.5
t-76 52.5t-97 18.5t-97.5 -18.5t-76.5 -52.5t-49.5 -81.5t-17.5 -105.5t17.5 -105.5t49.5 -81.5t76.5 -52.5t97.5 -18.5z" />
    <glyph glyph-name="uni1EDF" unicode="&#x1edf;" horiz-adv-x="612" 
d="M296 673q-14 0 -29 -5t-36 -16l-29 46q28 14 53 21.5t56 7.5q57 0 86.5 -22t29.5 -58q0 -34 -23.5 -51t-57.5 -25v-39h-79v56q43 6 61.5 18t18.5 30q0 17 -13.5 27t-37.5 10zM542 566h76v-70q0 -28 -7.5 -47.5t-20 -32t-28 -18t-32.5 -7.5q18 -30 28 -65.5t10 -77.5
q0 -59 -19.5 -106.5t-54 -81t-82.5 -52t-106 -18.5t-106 18.5t-83 52t-54.5 81t-19.5 106.5t19.5 106t54.5 80.5t83 51.5t106 18q54 0 99 -15.5t80 -44.5q4 -1 7 -1.5t7 -0.5q27 0 35 15t8 50v59zM306 78q34 0 62.5 12.5t48.5 35t31.5 53.5t11.5 69q0 37 -11.5 68
t-31.5 53.5t-48.5 35t-62.5 12.5t-62.5 -12.5t-49 -35t-31.5 -53.5t-11 -68q0 -38 11 -69t31.5 -53.5t49 -35t62.5 -12.5z" />
    <glyph glyph-name="uni1EE0" unicode="&#x1ee0;" horiz-adv-x="794" 
d="M326 807q-20 0 -30 -20.5t-10 -49.5h-56q0 57 27.5 94t74.5 37q35 0 53.5 -15t32.5 -31q11 -13 21 -22.5t28 -9.5q20 0 29.5 20t9.5 51h56q0 -57 -26.5 -94.5t-74.5 -37.5q-35 0 -54 15t-31 31q-11 13 -21.5 22.5t-28.5 9.5zM710 731h76v-70q0 -29 -8 -48.5t-20.5 -32
t-28.5 -18t-33 -7.5q26 -42 40.5 -93.5t14.5 -111.5q0 -81 -26 -148t-73 -114.5t-112 -74t-143 -26.5t-143 26.5t-112 74t-73 114.5t-26 148t26 147.5t73 114t112 74t143 26.5q80 0 145.5 -27t112.5 -77q4 -1 12 -1q27 0 35 15t8 50v59zM397 92q53 0 97 18.5t76 52.5
t50 81.5t18 105.5t-18 105.5t-50 81.5t-76 52.5t-97 18.5t-97.5 -18.5t-76.5 -52.5t-49.5 -81.5t-17.5 -105.5t17.5 -105.5t49.5 -81.5t76.5 -52.5t97.5 -18.5z" />
    <glyph glyph-name="uni1EE1" unicode="&#x1ee1;" horiz-adv-x="612" 
d="M236 628q-20 0 -30 -20.5t-10 -49.5h-56q0 57 27.5 94.5t74.5 37.5q35 0 53.5 -15t32.5 -32q11 -13 21 -22t28 -9q20 0 29.5 20t9.5 50h56q0 -57 -26.5 -94t-74.5 -37q-35 0 -54 15t-31 30q-11 14 -21.5 23t-28.5 9zM542 566h76v-70q0 -28 -7.5 -47.5t-20 -32t-28 -18
t-32.5 -7.5q18 -30 28 -65.5t10 -77.5q0 -59 -19.5 -106.5t-54 -81t-82.5 -52t-106 -18.5t-106 18.5t-83 52t-54.5 81t-19.5 106.5t19.5 106t54.5 80.5t83 51.5t106 18q54 0 99 -15.5t80 -44.5q4 -1 7 -1.5t7 -0.5q27 0 35 15t8 50v59zM306 78q34 0 62.5 12.5t48.5 35
t31.5 53.5t11.5 69q0 37 -11.5 68t-31.5 53.5t-48.5 35t-62.5 12.5t-62.5 -12.5t-49 -35t-31.5 -53.5t-11 -68q0 -38 11 -69t31.5 -53.5t49 -35t62.5 -12.5z" />
    <glyph glyph-name="uni1EE2" unicode="&#x1ee2;" horiz-adv-x="794" 
d="M710 731h76v-70q0 -29 -8 -48.5t-20.5 -32t-28.5 -18t-33 -7.5q26 -42 40.5 -93.5t14.5 -111.5q0 -81 -26 -148t-73 -114.5t-112 -74t-143 -26.5t-143 26.5t-112 74t-73 114.5t-26 148t26 147.5t73 114t112 74t143 26.5q80 0 145.5 -27t112.5 -77q4 -1 12 -1q27 0 35 15
t8 50v59zM397 92q53 0 97 18.5t76 52.5t50 81.5t18 105.5t-18 105.5t-50 81.5t-76 52.5t-97 18.5t-97.5 -18.5t-76.5 -52.5t-49.5 -81.5t-17.5 -105.5t17.5 -105.5t49.5 -81.5t76.5 -52.5t97.5 -18.5zM397 -66q28 0 48 -20t20 -47q0 -29 -20 -48.5t-48 -19.5t-48 19.5
t-20 48.5q0 27 20 47t48 20z" />
    <glyph glyph-name="uni1EE3" unicode="&#x1ee3;" horiz-adv-x="612" 
d="M542 566h76v-70q0 -28 -7.5 -47.5t-20 -32t-28 -18t-32.5 -7.5q18 -30 28 -65.5t10 -77.5q0 -59 -19.5 -106.5t-54 -81t-82.5 -52t-106 -18.5t-106 18.5t-83 52t-54.5 81t-19.5 106.5t19.5 106t54.5 80.5t83 51.5t106 18q54 0 99 -15.5t80 -44.5q4 -1 7 -1.5t7 -0.5
q27 0 35 15t8 50v59zM306 78q34 0 62.5 12.5t48.5 35t31.5 53.5t11.5 69q0 37 -11.5 68t-31.5 53.5t-48.5 35t-62.5 12.5t-62.5 -12.5t-49 -35t-31.5 -53.5t-11 -68q0 -38 11 -69t31.5 -53.5t49 -35t62.5 -12.5zM307 -66q28 0 48 -20t20 -47q0 -29 -20 -48.5t-48 -19.5
t-48 19.5t-20 48.5q0 27 20 47t48 20z" />
    <glyph glyph-name="uni1EE4" unicode="&#x1ee4;" horiz-adv-x="671" 
d="M336 -13q-58 0 -107.5 16.5t-86 48.5t-57 80t-20.5 112v455h114v-441q0 -85 44 -126.5t113 -41.5q68 0 112.5 41.5t44.5 126.5v441h113v-455q0 -64 -20.5 -112t-56.5 -80t-85.5 -48.5t-107.5 -16.5zM335 -201q-28 0 -48 19.5t-20 48.5q0 27 20 47t48 20t48 -20t20 -47
q0 -29 -20 -48.5t-48 -19.5z" />
    <glyph glyph-name="uni1EE5" unicode="&#x1ee5;" horiz-adv-x="579" 
d="M403 494h109v-494h-109v62q-26 -34 -66 -53t-91 -19q-91 0 -138 46t-47 130v328h109v-307q0 -56 30 -82.5t78 -26.5q52 0 88 33.5t37 106.5v276zM290 -66q28 0 48 -20t20 -47q0 -29 -20 -48.5t-48 -19.5t-48 19.5t-20 48.5q0 27 20 47t48 20z" />
    <glyph glyph-name="uni1EE6" unicode="&#x1ee6;" horiz-adv-x="671" 
d="M301 729v62q43 5 61.5 17.5t18.5 30.5q0 17 -13 26.5t-37 9.5q-14 0 -28.5 -4.5t-31.5 -15.5l-29 40q23 14 45 21.5t52 7.5q54 0 82.5 -22t28.5 -58q0 -34 -23 -51t-58 -25v-39h-68zM336 -13q-58 0 -107.5 16.5t-86 48.5t-57 80t-20.5 112v455h114v-441q0 -85 44 -126.5
t113 -41.5q68 0 112.5 41.5t44.5 126.5v441h113v-455q0 -64 -20.5 -112t-56.5 -80t-85.5 -48.5t-107.5 -16.5z" />
    <glyph glyph-name="uni1EE7" unicode="&#x1ee7;" horiz-adv-x="579" 
d="M276 673q-14 0 -29 -5t-36 -16l-29 46q28 14 53 21.5t56 7.5q57 0 86.5 -22t29.5 -58q0 -34 -23.5 -51t-57.5 -25v-39h-79v56q43 6 61.5 18t18.5 30q0 17 -13.5 27t-37.5 10zM403 494h109v-494h-109v62q-26 -34 -66 -53t-91 -19q-91 0 -138 46t-47 130v328h109v-307
q0 -56 30 -82.5t78 -26.5q52 0 88 33.5t37 106.5v276z" />
    <glyph glyph-name="uni1EE8" unicode="&#x1ee8;" horiz-adv-x="671" 
d="M486 860l-103 -131h-95l82 131h116zM686 778h76v-70q0 -31 -9 -51.5t-23.5 -32.5t-32.5 -17t-36 -5q-26 0 -55 12v-370q0 -64 -20.5 -112t-56.5 -80t-85.5 -48.5t-107.5 -16.5t-107.5 16.5t-86 48.5t-57 80t-20.5 112v455h114v-441q0 -85 44 -126.5t113 -41.5
q68 0 112.5 41.5t44.5 126.5v441h113v-35q20 -10 37 -10q27 0 35 15t8 50v59z" />
    <glyph glyph-name="uni1EE9" unicode="&#x1ee9;" horiz-adv-x="579" 
d="M442 699l-112 -144h-95l91 144h116zM583 573h76v-70q0 -31 -9 -51.5t-23.5 -32.5t-32.5 -17t-36 -5q-20 0 -46 8v-405h-109v62q-26 -34 -66 -53t-91 -19q-91 0 -138 46t-47 130v328h109v-307q0 -56 30 -82.5t78 -26.5q52 0 88 33.5t37 106.5v276h109v-39q15 -6 28 -6
q27 0 35 15t8 50v59z" />
    <glyph glyph-name="uni1EEA" unicode="&#x1eea;" horiz-adv-x="671" 
d="M382 729h-95l-103 131h116zM686 778h76v-70q0 -31 -9 -51.5t-23.5 -32.5t-32.5 -17t-36 -5q-26 0 -55 12v-370q0 -64 -20.5 -112t-56.5 -80t-85.5 -48.5t-107.5 -16.5t-107.5 16.5t-86 48.5t-57 80t-20.5 112v455h114v-441q0 -85 44 -126.5t113 -41.5q68 0 112.5 41.5
t44.5 126.5v441h113v-35q20 -10 37 -10q27 0 35 15t8 50v59z" />
    <glyph glyph-name="uni1EEB" unicode="&#x1eeb;" horiz-adv-x="579" 
d="M337 555h-95l-112 144h117zM583 573h76v-70q0 -31 -9 -51.5t-23.5 -32.5t-32.5 -17t-36 -5q-20 0 -46 8v-405h-109v62q-26 -34 -66 -53t-91 -19q-91 0 -138 46t-47 130v328h109v-307q0 -56 30 -82.5t78 -26.5q52 0 88 33.5t37 106.5v276h109v-39q15 -6 28 -6q27 0 35 15
t8 50v59z" />
    <glyph glyph-name="uni1EEC" unicode="&#x1eec;" horiz-adv-x="671" 
d="M331 875q-14 0 -28.5 -4.5t-31.5 -15.5l-29 40q23 14 45 21.5t52 7.5q54 0 82.5 -22t28.5 -58q0 -34 -23 -51t-58 -25v-39h-68v62q43 5 61.5 17.5t18.5 30.5q0 17 -13 26.5t-37 9.5zM686 778h76v-70q0 -31 -9 -51.5t-23.5 -32.5t-32.5 -17t-36 -5q-26 0 -55 12v-370
q0 -64 -20.5 -112t-56.5 -80t-85.5 -48.5t-107.5 -16.5t-107.5 16.5t-86 48.5t-57 80t-20.5 112v455h114v-441q0 -85 44 -126.5t113 -41.5q68 0 112.5 41.5t44.5 126.5v441h113v-35q20 -10 37 -10q27 0 35 15t8 50v59z" />
    <glyph glyph-name="uni1EED" unicode="&#x1eed;" horiz-adv-x="579" 
d="M276 673q-14 0 -29 -5t-36 -16l-29 46q28 14 53 21.5t56 7.5q57 0 86.5 -22t29.5 -58q0 -34 -23.5 -51t-57.5 -25v-39h-79v56q43 6 61.5 18t18.5 30q0 17 -13.5 27t-37.5 10zM583 573h76v-70q0 -31 -9 -51.5t-23.5 -32.5t-32.5 -17t-36 -5q-20 0 -46 8v-405h-109v62
q-26 -34 -66 -53t-91 -19q-91 0 -138 46t-47 130v328h109v-307q0 -56 30 -82.5t78 -26.5q52 0 88 33.5t37 106.5v276h109v-39q15 -6 28 -6q27 0 35 15t8 50v59z" />
    <glyph glyph-name="uni1EEE" unicode="&#x1eee;" horiz-adv-x="671" 
d="M265 807q-20 0 -30 -20.5t-10 -49.5h-56q0 57 27.5 94t74.5 37q35 0 53.5 -15t32.5 -31q11 -13 21 -22.5t28 -9.5q20 0 29.5 20t9.5 51h56q0 -57 -26.5 -94.5t-74.5 -37.5q-35 0 -54 15t-31 31q-11 13 -21.5 22.5t-28.5 9.5zM686 778h76v-70q0 -31 -9 -51.5t-23.5 -32.5
t-32.5 -17t-36 -5q-26 0 -55 12v-370q0 -64 -20.5 -112t-56.5 -80t-85.5 -48.5t-107.5 -16.5t-107.5 16.5t-86 48.5t-57 80t-20.5 112v455h114v-441q0 -85 44 -126.5t113 -41.5q68 0 112.5 41.5t44.5 126.5v441h113v-35q20 -10 37 -10q27 0 35 15t8 50v59z" />
    <glyph glyph-name="uni1EEF" unicode="&#x1eef;" horiz-adv-x="579" 
d="M216 628q-20 0 -30 -20.5t-10 -49.5h-56q0 57 27.5 94.5t74.5 37.5q35 0 53.5 -15t32.5 -32q11 -13 21 -22t28 -9q20 0 29.5 20t9.5 50h56q0 -57 -26.5 -94t-74.5 -37q-35 0 -54 15t-31 30q-11 14 -21.5 23t-28.5 9zM583 573h76v-70q0 -31 -9 -51.5t-23.5 -32.5
t-32.5 -17t-36 -5q-20 0 -46 8v-405h-109v62q-26 -34 -66 -53t-91 -19q-91 0 -138 46t-47 130v328h109v-307q0 -56 30 -82.5t78 -26.5q52 0 88 33.5t37 106.5v276h109v-39q15 -6 28 -6q27 0 35 15t8 50v59z" />
    <glyph glyph-name="uni1EF0" unicode="&#x1ef0;" horiz-adv-x="671" 
d="M686 778h76v-70q0 -31 -9 -51.5t-23.5 -32.5t-32.5 -17t-36 -5q-26 0 -55 12v-370q0 -64 -20.5 -112t-56.5 -80t-85.5 -48.5t-107.5 -16.5t-107.5 16.5t-86 48.5t-57 80t-20.5 112v455h114v-441q0 -85 44 -126.5t113 -41.5q68 0 112.5 41.5t44.5 126.5v441h113v-35
q20 -10 37 -10q27 0 35 15t8 50v59zM335 -66q28 0 48 -20t20 -47q0 -29 -20 -48.5t-48 -19.5t-48 19.5t-20 48.5q0 27 20 47t48 20z" />
    <glyph glyph-name="uni1EF1" unicode="&#x1ef1;" horiz-adv-x="579" 
d="M583 573h76v-70q0 -31 -9 -51.5t-23.5 -32.5t-32.5 -17t-36 -5q-20 0 -46 8v-405h-109v62q-26 -34 -66 -53t-91 -19q-91 0 -138 46t-47 130v328h109v-307q0 -56 30 -82.5t78 -26.5q52 0 88 33.5t37 106.5v276h109v-39q15 -6 28 -6q27 0 35 15t8 50v59zM290 -66
q28 0 48 -20t20 -47q0 -29 -20 -48.5t-48 -19.5t-48 19.5t-20 48.5q0 27 20 47t48 20z" />
    <glyph glyph-name="Ygrave" unicode="&#x1ef2;" horiz-adv-x="602" 
d="M348 729h-95l-103 131h116zM595 699l-237 -369v-330h-114v328l-238 371h125l170 -272l169 272h125z" />
    <glyph glyph-name="ygrave" unicode="&#x1ef3;" horiz-adv-x="556" 
d="M332 555h-95l-112 144h117zM418 494h119l-311 -737h-119l114 262l-202 475h118l140 -365z" />
    <glyph glyph-name="uni1EF4" unicode="&#x1ef4;" horiz-adv-x="602" 
d="M244 0v328l-238 371h125l170 -272l169 272h125l-237 -369v-330h-114zM301 -66q28 0 48 -20t20 -47q0 -29 -20 -48.5t-48 -19.5t-48 19.5t-20 48.5q0 27 20 47t48 20z" />
    <glyph glyph-name="uni1EF5" unicode="&#x1ef5;" horiz-adv-x="556" 
d="M418 494h119l-311 -737h-119l114 262l-202 475h118l140 -365zM463 -66q28 0 48 -20t20 -47q0 -29 -20 -48.5t-48 -19.5t-48 19.5t-20 48.5q0 27 20 47t48 20z" />
    <glyph glyph-name="uni1EF6" unicode="&#x1ef6;" horiz-adv-x="602" 
d="M297 875q-14 0 -28.5 -4.5t-31.5 -15.5l-29 40q23 14 45 21.5t52 7.5q54 0 82.5 -22t28.5 -58q0 -34 -23 -51t-58 -25v-39h-68v62q43 5 61.5 17.5t18.5 30.5q0 17 -13 26.5t-37 9.5zM595 699l-237 -369v-330h-114v328l-238 371h125l170 -272l169 272h125z" />
    <glyph glyph-name="uni1EF7" unicode="&#x1ef7;" horiz-adv-x="556" 
d="M271 673q-14 0 -29 -5t-36 -16l-29 46q28 14 53 21.5t56 7.5q57 0 86.5 -22t29.5 -58q0 -34 -23.5 -51t-57.5 -25v-39h-79v56q43 6 61.5 18t18.5 30q0 17 -13.5 27t-37.5 10zM418 494h119l-311 -737h-119l114 262l-202 475h118l140 -365z" />
    <glyph glyph-name="uni1EF8" unicode="&#x1ef8;" horiz-adv-x="602" 
d="M230 807q-20 0 -30 -20.5t-10 -49.5h-56q0 57 27.5 94t74.5 37q35 0 53.5 -15t32.5 -31q11 -13 21 -22.5t28 -9.5q20 0 29.5 20t9.5 51h56q0 -57 -26.5 -94.5t-74.5 -37.5q-35 0 -54 15t-31 31q-11 13 -21.5 22.5t-28.5 9.5zM595 699l-237 -369v-330h-114v328l-238 371
h125l170 -272l169 272h125z" />
    <glyph glyph-name="uni1EF9" unicode="&#x1ef9;" horiz-adv-x="556" 
d="M211 628q-20 0 -30 -20.5t-10 -49.5h-56q0 57 27.5 94.5t74.5 37.5q35 0 53.5 -15t32.5 -32q11 -13 21 -22t28 -9q20 0 29.5 20t9.5 50h56q0 -57 -26.5 -94t-74.5 -37q-35 0 -54 15t-31 30q-11 14 -21.5 23t-28.5 9zM418 494h119l-311 -737h-119l114 262l-202 475h118
l140 -365z" />
    <glyph glyph-name="endash" unicode="&#x2013;" horiz-adv-x="500" 
d="M0 206v83h500v-83h-500z" />
    <glyph glyph-name="emdash" unicode="&#x2014;" horiz-adv-x="1000" 
d="M0 206v83h1000v-83h-1000z" />
    <glyph glyph-name="quoteleft" unicode="&#x2018;" horiz-adv-x="278" 
d="M49 386l92 313h80l-61 -313h-111z" />
    <glyph glyph-name="quoteright" unicode="&#x2019;" horiz-adv-x="278" 
d="M57 386l61 313h111l-92 -313h-80z" />
    <glyph glyph-name="quotesinglbase" unicode="&#x201a;" horiz-adv-x="306" 
d="M71 -179l61 314h111l-92 -314h-80z" />
    <glyph glyph-name="quotedblleft" unicode="&#x201c;" horiz-adv-x="493" 
d="M49 386l92 313h80l-61 -313h-111zM264 386l92 313h79l-60 -313h-111z" />
    <glyph glyph-name="quotedblright" unicode="&#x201d;" horiz-adv-x="493" 
d="M57 386l61 313h111l-92 -313h-80zM272 386l61 313h111l-92 -313h-80z" />
    <glyph glyph-name="quotedblbase" unicode="&#x201e;" horiz-adv-x="518" 
d="M71 -179l61 314h111l-92 -314h-80zM283 -179l61 314h111l-92 -314h-80z" />
    <glyph glyph-name="dagger" unicode="&#x2020;" horiz-adv-x="500" 
d="M457 516v-72h-153v-585h-109v585h-152v72h152v183h109v-183h153z" />
    <glyph glyph-name="daggerdbl" unicode="&#x2021;" horiz-adv-x="526" 
d="M470 444h-152v-324h152v-72h-152v-189h-109v189h-153v72h153v324h-153v72h153v183h109v-183h152v-72z" />
    <glyph glyph-name="bullet" unicode="&#x2022;" horiz-adv-x="494" 
d="M247 70q-36 0 -68 13.5t-56.5 37.5t-39 56.5t-14.5 69.5q0 36 14.5 68t39 56.5t56.5 39t68 14.5q35 0 67.5 -14.5t57 -39t39 -56.5t14.5 -68q0 -37 -14.5 -69.5t-39 -56.5t-57 -37.5t-67.5 -13.5z" />
    <glyph glyph-name="ellipsis" unicode="&#x2026;" horiz-adv-x="848" 
d="M154 -10q-27 0 -47 19.5t-20 47.5t20 48t47 20q28 0 48 -20t20 -48t-20 -47.5t-48 -19.5zM425 -10q-27 0 -47 19.5t-20 47.5t20 48t47 20q28 0 48 -20t20 -48t-20 -47.5t-48 -19.5zM692 -10q-27 0 -47 19.5t-20 47.5t20 48t47 20q28 0 48 -20t20 -48t-20 -47.5t-48 -19.5
z" />
    <glyph glyph-name="perthousand" unicode="&#x2030;" horiz-adv-x="1157" 
d="M208 396q-33 0 -61.5 12.5t-49.5 33.5t-33 49.5t-12 61.5q0 32 12.5 60.5t33.5 49.5t49.5 33.5t60.5 12.5t60.5 -12.5t49.5 -33.5t33.5 -49.5t12.5 -60.5q0 -33 -12.5 -61.5t-33.5 -49.5t-49.5 -33.5t-60.5 -12.5zM167 0l367 699h92l-368 -699h-91zM208 469
q35 0 58.5 24.5t23.5 59.5q0 34 -24 58.5t-58 24.5q-35 0 -59 -24t-24 -59t24 -59.5t59 -24.5zM591 -9q-33 0 -61.5 12.5t-50 33.5t-33.5 49.5t-12 61.5t12.5 61.5t33.5 49.5t49.5 33.5t61.5 12.5q32 0 60 -12.5t49 -33.5t33.5 -49.5t12.5 -61.5q0 -32 -12 -60.5t-33 -50
t-49.5 -34t-60.5 -12.5zM950 -9q-33 0 -61.5 12.5t-49.5 33.5t-33.5 49.5t-12.5 61.5t12.5 61.5t34 49.5t50 33.5t60.5 12.5t60.5 -12.5t49.5 -33.5t33.5 -49.5t12.5 -61.5q0 -32 -12.5 -60.5t-33.5 -50t-49.5 -34t-60.5 -12.5zM591 65q35 0 58.5 24t23.5 59q0 34 -24 58.5
t-58 24.5q-35 0 -59.5 -24t-24.5 -59t24.5 -59t59.5 -24zM950 65q35 0 59 24t24 59q0 34 -24.5 58.5t-58.5 24.5q-35 0 -59 -24t-24 -59t24 -59t59 -24z" />
    <glyph glyph-name="guilsinglleft" unicode="&#x2039;" horiz-adv-x="304" 
d="M182 64l-152 184l152 184h90l-152 -184l152 -184h-90z" />
    <glyph glyph-name="guilsinglright" unicode="&#x203a;" horiz-adv-x="304" 
d="M122 64h-90l152 184l-152 184h90l152 -184z" />
    <glyph glyph-name="fraction" unicode="&#x2044;" horiz-adv-x="188" 
d="M-136 0l394 699h67l-395 -699h-66z" />
    <glyph glyph-name="uni2070" unicode="&#x2070;" horiz-adv-x="362" 
d="M181 392q-71 0 -108.5 54t-37.5 163q0 111 37.5 164.5t108.5 53.5t108.5 -53.5t37.5 -164.5q0 -109 -37.5 -163t-108.5 -54zM181 451q38 0 59.5 38t21.5 120q0 83 -21.5 121t-59.5 38q-39 0 -60 -38t-21 -121q0 -82 21.5 -120t59.5 -38z" />
    <glyph glyph-name="uni2074" unicode="&#x2074;" horiz-adv-x="345" 
d="M322 546v-58h-47v-88h-65v88h-203v58l170 273h98v-273h47zM71 546h139v229z" />
    <glyph glyph-name="uni2075" unicode="&#x2075;" horiz-adv-x="353" 
d="M170 667q78 0 117.5 -32t39.5 -100q0 -65 -39.5 -104t-105.5 -39q-68 0 -107.5 36.5t-39.5 99.5v8t1 8h64q-1 -4 -1 -11q0 -39 22 -61t62 -22q38 0 58.5 23t20.5 58q0 25 -9 41t-24 25t-35.5 12.5t-43.5 3.5h-101l20 206h239v-58h-181l-9 -94h52z" />
    <glyph glyph-name="uni2076" unicode="&#x2076;" horiz-adv-x="334" 
d="M180 680q29 0 53.5 -10.5t43.5 -29t29.5 -44.5t10.5 -57t-12 -58t-32.5 -46.5t-48 -31t-58.5 -11.5q-32 0 -59.5 11.5t-47.5 32t-31.5 47.5t-11.5 57q0 27 9 52.5t29 51.5l139 175h79l-114 -141q6 1 11.5 1.5t10.5 0.5zM253 540q1 39 -23 66t-65 27q-39 0 -63 -26
t-25 -65q-1 -38 22.5 -65t64.5 -27q39 0 64 26.5t25 63.5z" />
    <glyph glyph-name="uni2077" unicode="&#x2077;" horiz-adv-x="302" 
d="M6 819h293v-58l-202 -361h-75l205 361h-221v58z" />
    <glyph glyph-name="uni2078" unicode="&#x2078;" horiz-adv-x="351" 
d="M176 392q-64 0 -105 35t-41 92q0 38 19 66t51 42q-25 14 -39.5 37t-14.5 52q0 48 36.5 79.5t93.5 31.5q56 0 92 -31.5t36 -79.5q0 -29 -14.5 -52t-38.5 -37q32 -14 51 -42t19 -66q0 -28 -11 -51.5t-30.5 -40.5t-46 -26t-57.5 -9zM176 646q29 0 49 19t20 48t-20 47t-49 18
t-49.5 -18t-20.5 -47t20.5 -48t49.5 -19zM176 450q35 0 57.5 21.5t22.5 55.5t-22.5 54.5t-57.5 20.5t-58 -20.5t-23 -54.5t23 -55.5t58 -21.5z" />
    <glyph glyph-name="uni2079" unicode="&#x2079;" horiz-adv-x="334" 
d="M168 827q32 0 59.5 -11.5t47.5 -32t31.5 -47.5t11.5 -57q0 -27 -9 -52.5t-29 -51.5l-139 -175h-79l113 139q-5 -1 -10.5 -1h-10.5q-28 0 -53 10.5t-44 29.5t-29.5 45t-10.5 57t12 58t32.5 46.5t48 31t58.5 11.5zM257 677q1 37 -22.5 64t-64.5 27q-39 0 -64 -26t-25 -64
q-1 -38 23 -65t65 -27q39 0 63 26t25 65z" />
    <glyph glyph-name="uni2080" unicode="&#x2080;" horiz-adv-x="362" 
d="M181 -168q-71 0 -108.5 54t-37.5 164t37.5 163.5t108.5 53.5t108.5 -53.5t37.5 -163.5t-37.5 -164t-108.5 -54zM181 -109q38 0 59.5 38.5t21.5 120.5t-21.5 120t-59.5 38q-39 0 -60 -37.5t-21 -120.5q0 -82 21.5 -120.5t59.5 -38.5z" />
    <glyph glyph-name="uni2081" unicode="&#x2081;" horiz-adv-x="229" 
d="M108 260h63v-420h-65v344l-100 -82v75z" />
    <glyph glyph-name="uni2082" unicode="&#x2082;" horiz-adv-x="335" 
d="M115 -102h197v-58h-285v56l169 172q23 23 33 41t10 38q0 29 -19 45.5t-51 16.5q-38 0 -58 -20.5t-20 -59.5v-20l-65 6v19q0 63 37 98t103 35q61 0 99 -31.5t38 -85.5q0 -32 -13 -59t-45 -60z" />
    <glyph glyph-name="uni2083" unicode="&#x2083;" horiz-adv-x="344" 
d="M174 -168q-73 0 -112 38t-39 109h67q0 -39 20 -63.5t62 -24.5q37 0 58 21t21 53q0 21 -7.5 35t-19.5 22.5t-27 12t-30 3.5h-14v51h13q31 0 49.5 17.5t18.5 45.5q0 26 -17.5 41.5t-45.5 15.5q-32 0 -51 -20.5t-19 -55.5v-4l-66 7q0 62 36.5 96.5t97.5 34.5q56 0 91 -31.5
t35 -77.5q0 -35 -18.5 -58t-41.5 -31q33 -8 57.5 -34t24.5 -73q0 -57 -39.5 -93.5t-103.5 -36.5z" />
    <glyph glyph-name="uni2084" unicode="&#x2084;" horiz-adv-x="345" 
d="M322 -14v-58h-47v-88h-65v88h-203v59l170 273h98v-274h47zM70 -14h140v229z" />
    <glyph glyph-name="uni2085" unicode="&#x2085;" horiz-adv-x="353" 
d="M170 108q78 0 117.5 -32t39.5 -100q0 -66 -39.5 -105t-105.5 -39q-68 0 -107.5 36.5t-39.5 99.5v8.5t1 8.5h64q-1 -4 -1 -11q0 -39 22 -61t62 -22q38 0 58.5 23t20.5 58q0 25 -9 40.5t-24 24.5t-35.5 12.5t-43.5 3.5h-101l20 207h239v-59h-181l-9 -93h52z" />
    <glyph glyph-name="uni2086" unicode="&#x2086;" horiz-adv-x="334" 
d="M180 121q29 0 53.5 -10.5t43.5 -29t29.5 -44.5t10.5 -57t-12 -58t-32.5 -47t-48 -31.5t-58.5 -11.5q-32 0 -59.5 11.5t-47.5 32t-31.5 47.5t-11.5 58q0 26 9 51.5t29 51.5l139 176h79l-114 -141q6 1 11.5 1.5t10.5 0.5zM253 -19q1 38 -23 65t-65 27q-39 0 -63 -26
t-25 -64t22.5 -65t64.5 -27q39 0 64 26t25 64z" />
    <glyph glyph-name="uni2087" unicode="&#x2087;" horiz-adv-x="302" 
d="M6 260h293v-59l-202 -361h-75l205 361h-221v59z" />
    <glyph glyph-name="uni2088" unicode="&#x2088;" horiz-adv-x="352" 
d="M176 -168q-31 0 -58 9t-46.5 26t-30.5 40.5t-11 52.5q0 38 19.5 66t51.5 42q-25 13 -39.5 36t-14.5 52q0 49 36 80t93 31q56 0 92.5 -31.5t36.5 -79.5q0 -29 -15 -51.5t-38 -36.5q32 -14 51 -42t19 -66q0 -29 -11 -52.5t-30.5 -40.5t-46 -26t-58.5 -9zM176 87q29 0 49 19
t20 48q0 28 -20 46t-49 18t-49 -18t-20 -46q0 -29 20 -48t49 -19zM176 -109q35 0 57.5 21t22.5 55q0 35 -22.5 55t-57.5 20t-58 -20t-23 -55q0 -34 23 -55t58 -21z" />
    <glyph glyph-name="uni2089" unicode="&#x2089;" horiz-adv-x="334" 
d="M168 267q32 0 59.5 -11.5t47.5 -32t31.5 -47.5t11.5 -57q0 -27 -9 -52.5t-29 -50.5l-139 -176h-79l114 141q-6 -1 -11.5 -1.5t-10.5 -0.5q-28 0 -53 10.5t-44 29t-29.5 44.5t-10.5 57t12 58t32.5 46.5t48 31t58.5 11.5zM257 117q1 38 -22.5 65t-64.5 27q-39 0 -64 -26.5
t-25 -63.5q-1 -39 23 -65.5t65 -26.5q39 0 63 25.5t25 64.5z" />
    <glyph glyph-name="Euro" unicode="&#x20ac;" horiz-adv-x="762" 
d="M451 93q54 0 93 22.5t65 60.5l96 -60q-42 -57 -106.5 -91.5t-147.5 -34.5q-59 0 -110.5 17.5t-92.5 50.5t-69.5 81t-41.5 109h-73v60h65q-1 11 -1.5 21t-0.5 21t0.5 21t1.5 21h-65v60h73q13 62 41.5 109.5t69.5 80.5t92.5 50t110.5 17q83 0 147.5 -34t106.5 -91l-96 -60
q-26 41 -65.5 62.5t-92.5 21.5q-73 0 -125.5 -39t-74.5 -117h226v-60h-236q-1 -10 -1.5 -20.5t-0.5 -21.5t0.5 -21.5t1.5 -20.5h236v-60h-226q22 -78 74.5 -116.5t125.5 -38.5z" />
    <glyph glyph-name="uni2113" unicode="&#x2113;" horiz-adv-x="560" 
d="M314 -10q-81 0 -127.5 42t-51.5 127l-62 -44l-30 55l90 64v250q0 115 46.5 170t125.5 55q72 0 107.5 -43t35.5 -112q0 -72 -49 -160.5t-163 -177.5v-25q0 -54 27.5 -84.5t74.5 -30.5q40 0 74.5 22.5t58.5 55.5l44 -49q-38 -62 -91.5 -88.5t-109.5 -26.5zM236 309
q39 33 66 68t43.5 67.5t23.5 61.5t7 51q0 37 -16 58.5t-46 21.5q-36 0 -58 -33t-20 -108v-187z" />
    <glyph glyph-name="uni2116" unicode="&#x2116;" horiz-adv-x="1350" 
d="M1029 195q-55 0 -101.5 19t-80 53t-52 81.5t-18.5 104.5t18.5 104t51.5 80.5t79.5 52.5t102.5 19t102 -19t79 -52.5t51.5 -80.5t18.5 -104t-18.5 -104.5t-51.5 -81.5t-79 -53t-102 -19zM595 156v543h114v-699h-138l-349 548v-548h-113v699h137zM1028 617
q-64 0 -102.5 -44.5t-38.5 -119.5q0 -76 38.5 -120.5t102.5 -44.5q65 0 103.5 44.5t38.5 120.5q0 75 -38.5 119.5t-103.5 44.5zM803 48v71h451v-71h-451z" />
    <glyph glyph-name="trademark" unicode="&#x2122;" horiz-adv-x="684" 
d="M100 358v287h-86v54h232v-54h-85v-287h-61zM268 358l29 341h86l87 -226l87 226h85l28 -341h-61l-22 264l-98 -264h-39l-97 264l-23 -264h-62z" />
    <glyph glyph-name="estimated" unicode="&#x212e;" horiz-adv-x="965" 
d="M488 -9q-88 0 -166 30t-136 82t-91.5 122t-33.5 149q0 80 33.5 150.5t91.5 123t136 82.5t166 30q89 0 167 -30t136 -82.5t91.5 -123t33.5 -150.5v-10h-692q-6 0 -6 -4v-210q0 -11 9 -24q51 -52 118 -83t144 -31q84 0 154.5 34.5t121.5 93.5h61q-57 -68 -145.5 -108.5
t-192.5 -40.5zM755 385q4 0 4 7v210q0 7 -2.5 13.5t-7.5 11.5q-51 50 -117 80t-143 30q-76 0 -143 -31t-118 -82q-10 -12 -10 -26v-206q0 -7 6 -7h531z" />
    <glyph glyph-name="oneeighth" unicode="&#x215b;" horiz-adv-x="769" 
d="M106 280v344l-100 -82v75l102 82h63v-419h-65zM487 699h67l-395 -699h-66zM669 228q32 -14 51 -42t19 -66q0 -29 -11 -52.5t-30.5 -40.5t-46 -26t-57.5 -9q-64 0 -105 35t-41 93q0 38 19 66t51 42q-25 13 -39.5 36t-14.5 52q0 49 36.5 80t93.5 31q56 0 92 -31.5t36 -79.5
q0 -29 -14.5 -51.5t-38.5 -36.5zM594 378q-29 0 -49.5 -18t-20.5 -46q0 -29 20.5 -48t49.5 -19t49 19t20 48q0 28 -20 46t-49 18zM594 51q35 0 57.5 21t22.5 55q0 35 -22.5 55t-57.5 20t-58 -20t-23 -55q0 -34 23 -55t58 -21z" />
    <glyph glyph-name="threeeighths" unicode="&#x215c;" horiz-adv-x="884" 
d="M174 272q-73 0 -112 38t-39 108h67q0 -39 20 -63.5t62 -24.5q37 0 58 21.5t21 53.5q0 21 -7.5 35t-19.5 22.5t-27 12t-30 3.5h-14v51h13q31 0 49.5 17.5t18.5 45.5q0 26 -17.5 41.5t-45.5 15.5q-32 0 -51 -21t-19 -56v-3l-66 7q0 62 36.5 96.5t97.5 34.5q56 0 91 -31.5
t35 -77.5q0 -36 -18.5 -59t-41.5 -31q33 -8 57.5 -33.5t24.5 -73.5q0 -57 -39.5 -93t-103.5 -36zM208 0l394 699h67l-395 -699h-66zM709 -8q-64 0 -105 35t-41 93q0 38 19 66t51 42q-25 13 -39.5 36t-14.5 52q0 49 36.5 80t93.5 31q56 0 92 -31.5t36 -79.5
q0 -29 -14.5 -51.5t-38.5 -36.5q32 -14 51 -42t19 -66q0 -29 -11 -52.5t-30.5 -40.5t-46 -26t-57.5 -9zM709 247q29 0 49 19t20 48q0 28 -20 46t-49 18t-49.5 -18t-20.5 -46q0 -29 20.5 -48t49.5 -19zM709 51q35 0 57.5 21t22.5 55q0 35 -22.5 55t-57.5 20t-58 -20t-23 -55
q0 -34 23 -55t58 -21z" />
    <glyph glyph-name="fiveeighths" unicode="&#x215d;" horiz-adv-x="892" 
d="M327 415q0 -65 -39.5 -104t-105.5 -39q-68 0 -107.5 36.5t-39.5 99.5v8t1 8h64q-1 -4 -1 -11q0 -39 22 -61t62 -22q38 0 58.5 23t20.5 58q0 25 -9 41t-24 25t-35.5 12.5t-43.5 3.5h-101l20 206h239v-58h-181l-9 -94h52q78 0 117.5 -32t39.5 -100zM611 699h67l-395 -699
h-66zM792 228q32 -14 51 -42t19 -66q0 -29 -11 -52.5t-30.5 -40.5t-46 -26t-57.5 -9q-64 0 -105 35t-41 93q0 38 19 66t51 42q-25 13 -39.5 36t-14.5 52q0 49 36.5 80t93.5 31q56 0 92 -31.5t36 -79.5q0 -29 -14.5 -51.5t-38.5 -36.5zM717 378q-29 0 -49.5 -18t-20.5 -46
q0 -29 20.5 -48t49.5 -19t49 19t20 48q0 28 -20 46t-49 18zM717 51q35 0 57.5 21t22.5 55q0 35 -22.5 55t-57.5 20t-58 -20t-23 -55q0 -34 23 -55t58 -21z" />
    <glyph glyph-name="seveneighths" unicode="&#x215e;" horiz-adv-x="802" 
d="M299 699v-58l-202 -361h-75l205 361h-221v58h293zM521 699h67l-395 -699h-66zM702 228q32 -14 51 -42t19 -66q0 -29 -11 -52.5t-30.5 -40.5t-46 -26t-57.5 -9q-64 0 -105 35t-41 93q0 38 19 66t51 42q-25 13 -39.5 36t-14.5 52q0 49 36.5 80t93.5 31q56 0 92 -31.5
t36 -79.5q0 -29 -14.5 -51.5t-38.5 -36.5zM627 378q-29 0 -49.5 -18t-20.5 -46q0 -29 20.5 -48t49.5 -19t49 19t20 48q0 28 -20 46t-49 18zM627 51q35 0 57.5 21t22.5 55q0 35 -22.5 55t-57.5 20t-58 -20t-23 -55q0 -34 23 -55t58 -21z" />
    <glyph glyph-name="arrowleft" unicode="&#x2190;" horiz-adv-x="720" 
d="M182 64l-152 184l152 184h90l-117 -143h565v-83h-565l117 -142h-90z" />
    <glyph glyph-name="arrowup" unicode="&#x2191;" horiz-adv-x="469" 
d="M234 699l184 -152v-90l-142 117v-574h-83v574l-143 -117v90z" />
    <glyph glyph-name="arrowright" unicode="&#x2192;" horiz-adv-x="720" 
d="M538 64h-90l118 142h-566v83h566l-118 143h90l152 -184z" />
    <glyph glyph-name="arrowdown" unicode="&#x2193;" horiz-adv-x="469" 
d="M234 0l-184 152v90l143 -117v574h83v-574l142 117v-90z" />
    <glyph glyph-name="arrowboth" unicode="&#x2194;" horiz-adv-x="988" 
d="M792 432l152 -184l-152 -184h-90l118 142h-652l117 -142h-90l-152 184l152 184h90l-117 -143h652l-118 143h90z" />
    <glyph glyph-name="arrowupdn" unicode="&#x2195;" horiz-adv-x="469" 
d="M234 0l-184 152v90l143 -117v450l-143 -118v90l184 152l184 -152v-90l-142 118v-450l142 117v-90z" />
    <glyph glyph-name="uni2196" unicode="&#x2196;" horiz-adv-x="683" 
d="M632 557v-557h-83v474h-383l118 -143h-90l-152 184l152 184h90l-117 -142h465z" />
    <glyph glyph-name="uni2197" unicode="&#x2197;" horiz-adv-x="683" 
d="M490 699l152 -184l-152 -184h-91l118 143h-383v-474h-83v557h465l-117 142h91z" />
    <glyph glyph-name="uni2198" unicode="&#x2198;" horiz-adv-x="683" 
d="M490 368l152 -184l-152 -184h-91l118 143h-466v556h83v-473h382l-117 142h91z" />
    <glyph glyph-name="uni2199" unicode="&#x2199;" horiz-adv-x="683" 
d="M549 699h83v-556h-466l118 -143h-90l-152 184l152 184h90l-117 -142h382v473z" />
    <glyph glyph-name="partialdiff" unicode="&#x2202;" horiz-adv-x="642" 
d="M527 417q26 -34 41.5 -76t15.5 -93q0 -59 -19.5 -106.5t-54.5 -81t-83 -52t-106 -18.5t-106 18.5t-82.5 52t-54 81t-19.5 106.5t19.5 106.5t54.5 80.5t83.5 51t106.5 18h9.5t9.5 -1l-190 247h123zM321 77q35 0 63.5 12.5t48.5 35t31.5 54t11.5 69.5q0 36 -11 67
t-31.5 53.5t-49 35.5t-63.5 13q-34 0 -62.5 -12.5t-48.5 -35t-31.5 -53.5t-11.5 -68q0 -38 11.5 -69.5t31.5 -54t48.5 -35t62.5 -12.5z" />
    <glyph glyph-name="emptyset" unicode="&#x2205;" horiz-adv-x="876" 
d="M814 680l-101 -101q39 -47 61.5 -105t22.5 -124q0 -74 -28 -140t-77 -115t-114.5 -77.5t-139.5 -28.5q-66 0 -124.5 22.5t-106.5 61.5l-100 -100l-46 46l101 101q-40 47 -62 105.5t-22 124.5q0 74 28.5 139.5t77.5 114.5t114.5 77t139.5 28q66 0 124 -22.5t105 -61.5
l101 101zM170 350q0 -47 15 -89t42 -76l375 375q-34 27 -75.5 42t-88.5 15q-55 0 -104 -21t-85.5 -57.5t-57.5 -85t-21 -103.5zM705 350q0 47 -15 88.5t-42 75.5l-375 -375q35 -26 76.5 -41t88.5 -15q55 0 103.5 21t85 57.5t57.5 85t21 103.5z" />
    <glyph glyph-name="product" unicode="&#x220f;" horiz-adv-x="778" 
d="M130 0v593h-85v106h688v-106h-85v-593h-106v593h-305v-593h-107z" />
    <glyph glyph-name="summation" unicode="&#x2211;" horiz-adv-x="689" 
d="M631 699v-97h-444l308 -252l-308 -253h444v-97h-566v133l259 215l-259 218v133h566z" />
    <glyph glyph-name="minus" unicode="&#x2212;" horiz-adv-x="559" 
d="M54 206v83h451v-83h-451z" />
    <glyph glyph-name="radical" unicode="&#x221a;" horiz-adv-x="791" 
d="M648 750h103l-359 -750h-96l-146 402h-104v92h174l130 -367z" />
    <glyph glyph-name="infinity" unicode="&#x221e;" horiz-adv-x="831" 
d="M238 89q-35 0 -63.5 12t-49 33.5t-32 50.5t-11.5 63t11.5 63t32 50t49 33t63.5 12q46 0 89 -24.5t89 -73.5q45 49 88 73.5t90 24.5q35 0 63.5 -12t49 -33t32 -50t11.5 -63t-11.5 -63t-32 -50.5t-49 -33.5t-63.5 -12q-46 0 -88.5 23.5t-89.5 72.5q-48 -49 -90.5 -72.5
t-87.5 -23.5zM237 172q29 0 59.5 20t62.5 56q-67 75 -122 75q-35 0 -53 -21.5t-18 -53.5q0 -33 18 -54.5t53 -21.5zM595 172q34 0 52.5 21.5t18.5 54.5q0 32 -18.5 53.5t-52.5 21.5q-54 0 -123 -75q32 -36 62.5 -56t60.5 -20z" />
    <glyph glyph-name="integral" unicode="&#x222b;" horiz-adv-x="420" 
d="M40 -185v87h25q17 0 33 4t29 15t21 30t8 49v565q0 55 14 91t40.5 57t63 29t81.5 8h26v-87h-26q-16 0 -32.5 -4t-29 -15t-20.5 -30t-8 -49v-565q0 -55 -14.5 -91t-40.5 -57t-63 -29t-82 -8h-25z" />
    <glyph glyph-name="approxequal" unicode="&#x2248;" horiz-adv-x="614" 
d="M411 264q-27 0 -48 8t-37.5 20t-29 25.5t-21.5 23.5q-17 19 -31.5 28.5t-32.5 9.5q-37 0 -58 -30t-21 -78h-78q0 83 42 135t116 52q41 0 70 -19.5t57 -54.5q13 -16 27.5 -30t39.5 -14q33 0 55 28t22 79h76q0 -39 -10 -72.5t-29 -58t-46.5 -38.5t-62.5 -14zM411 37
q-27 0 -48.5 8.5t-38 20.5t-28.5 25.5t-21 23.5q-15 17 -28.5 27.5t-35.5 10.5q-38 -2 -58.5 -31t-20.5 -77h-78q0 85 42.5 136t115.5 51q40 0 69 -19.5t58 -54.5q12 -15 27 -30t40 -15q33 0 55 28.5t22 79.5h76q0 -39 -10 -73t-29 -58.5t-46.5 -38.5t-62.5 -14z" />
    <glyph glyph-name="notequal" unicode="&#x2260;" horiz-adv-x="603" 
d="M78 -94l101 196h-125v83h167l66 126h-233v83h275l90 174h84l-91 -174h137v-83h-179l-65 -126h244v-83h-287l-100 -196h-84z" />
    <glyph glyph-name="lessequal" unicode="&#x2264;" horiz-adv-x="488" 
d="M433 572v-89l-283 -122l283 -123v-91l-379 175v78zM54 15v83h379v-83h-379z" />
    <glyph glyph-name="greaterequal" unicode="&#x2265;" horiz-adv-x="487" 
d="M54 572l379 -172v-78l-379 -175v91l283 123l-283 122v89zM54 15v83h379v-83h-379z" />
    <glyph glyph-name="lozenge" unicode="&#x25ca;" horiz-adv-x="651" 
d="M326 70l-284 283l284 285l284 -284zM326 192l162 162l-162 162l-162 -163z" />
    <glyph glyph-name="heart" unicode="&#x2665;" horiz-adv-x="754" 
d="M377 -10q-92 71 -156 128.5t-103.5 107t-57 94t-17.5 88.5q0 75 46 121t121 46q60 0 102.5 -33t58.5 -90h12q16 57 58.5 90t102.5 33q75 0 121 -46t46 -121q0 -44 -17.5 -88.5t-57 -94t-103.5 -107t-156 -128.5z" />
    <glyph glyph-name="uniF8FF" unicode="&#xf8ff;" horiz-adv-x="886" 
d="M443 0q-78 0 -147.5 30t-121 81.5t-81.5 121t-30 147.5q0 79 30 148t81.5 120.5t121 81.5t147.5 30q79 0 148 -30t120.5 -81.5t81.5 -120.5t30 -148q0 -78 -30 -147.5t-81.5 -121t-120.5 -81.5t-148 -30zM443 36q71 0 134 27t109.5 74t73.5 109.5t27 133.5t-27 134
t-73.5 109.5t-109.5 73.5t-134 27t-133.5 -27t-109.5 -73.5t-74 -109.5t-27 -134t27 -133.5t74 -109.5t109.5 -74t133.5 -27zM642 217q-7 0 -12 6l-145 144q-12 14 0 26l145 145q13 13 25 0q5 -5 5 -13t-5 -13l-132 -132l132 -132q5 -5 5 -12t-5 -13q-4 -6 -13 -6zM244 217
q-8 0 -13 5t-5 13v290q0 8 5 13t13 5t13 -5t5 -13v-290q0 -8 -5 -13t-13 -5zM443 217q-8 0 -13 5t-5 13v290q0 8 5 13t13 5t13 -5t5 -13v-290q0 -8 -5 -13t-13 -5zM298 362q-8 0 -13 5t-5 13t5 13t13 5h91q8 0 13 -5t5 -13t-5 -13t-13 -5h-91z" />
    <glyph glyph-name="G.ss05" horiz-adv-x="784" 
d="M398 -13q-79 0 -144.5 26.5t-112.5 74t-72.5 114t-25.5 147.5t26 148t73 114.5t112 74t143 26.5q103 0 181.5 -45t123.5 -122l-99 -53q-31 58 -84 88.5t-122 30.5q-53 0 -97.5 -18t-76.5 -52t-49.5 -81.5t-17.5 -107.5q0 -58 17 -107t49.5 -83.5t79 -54t105.5 -19.5
q43 0 81.5 12.5t68.5 37t49.5 60.5t23.5 82h-229v92h340l-1 -56q-2 -83 -30.5 -145t-75.5 -103t-108 -61t-128 -20z" />
    <glyph glyph-name="Gbreve.ss05" horiz-adv-x="784" 
d="M397 734q-37 0 -67.5 6t-53 21t-36 39t-15.5 60h71q5 -37 29.5 -53t71.5 -16q48 0 72.5 16t29.5 53h70q-2 -36 -15.5 -60t-36 -39t-53 -21t-67.5 -6zM398 -13q-79 0 -144.5 26.5t-112.5 74t-72.5 114t-25.5 147.5t26 148t73 114.5t112 74t143 26.5q103 0 181.5 -45
t123.5 -122l-99 -53q-31 58 -84 88.5t-122 30.5q-53 0 -97.5 -18t-76.5 -52t-49.5 -81.5t-17.5 -107.5q0 -58 17 -107t49.5 -83.5t79 -54t105.5 -19.5q43 0 81.5 12.5t68.5 37t49.5 60.5t23.5 82h-229v92h340l-1 -56q-2 -83 -30.5 -145t-75.5 -103t-108 -61t-128 -20z" />
    <glyph glyph-name="Gdotaccent.ss05" horiz-adv-x="784" 
d="M398 743q-28 0 -48 20t-20 48t20 47.5t48 19.5t48 -19.5t20 -47.5t-20 -48t-48 -20zM398 -13q-79 0 -144.5 26.5t-112.5 74t-72.5 114t-25.5 147.5t26 148t73 114.5t112 74t143 26.5q103 0 181.5 -45t123.5 -122l-99 -53q-31 58 -84 88.5t-122 30.5q-53 0 -97.5 -18
t-76.5 -52t-49.5 -81.5t-17.5 -107.5q0 -58 17 -107t49.5 -83.5t79 -54t105.5 -19.5q43 0 81.5 12.5t68.5 37t49.5 60.5t23.5 82h-229v92h340l-1 -56q-2 -83 -30.5 -145t-75.5 -103t-108 -61t-128 -20z" />
    <glyph glyph-name="IJacute" horiz-adv-x="705" 
d="M82 729l82 131h116l-103 -131h-95zM532 729l82 131h116l-103 -131h-95zM73 0v699h114v-699h-114zM440 -13q-42 0 -84 11.5t-86 37.5l48 92q26 -17 52.5 -26.5t55.5 -9.5q47 0 72 30.5t25 95.5v481h113v-501q0 -50 -14.5 -89.5t-40 -66.5t-61.5 -41t-80 -14z" />
    <glyph glyph-name="M.ss03" horiz-adv-x="870" 
d="M613 699h184v-699h-114v597l-209 -597h-78l-209 597v-597h-114v699h184l177 -503z" />
    <glyph glyph-name="Q.ss04" horiz-adv-x="794" 
d="M751 350q0 -81 -25.5 -146.5t-71.5 -113.5l78 -90l-99 -38l-60 66q-38 -20 -82 -30.5t-94 -10.5q-78 0 -143 26.5t-112 74t-73 114.5t-26 148t26 147.5t73 114t112 74t143 26.5t143 -26.5t112 -74t73 -114t26 -147.5zM155 350q0 -58 18 -106t50 -82t76.5 -52.5
t97.5 -18.5q59 0 111 25l-127 138l101 34l99 -114q28 33 43 77.5t15 98.5q0 58 -18 105.5t-50 81.5t-76.5 52.5t-97.5 18.5t-97.5 -18.5t-76.5 -52.5t-50 -81.5t-18 -105.5z" />
    <glyph glyph-name="a.ss02" horiz-adv-x="628" 
d="M452 494h109v-494h-109v76q-23 -42 -68 -64t-101 -22q-50 0 -93.5 18t-76 51t-51 80.5t-18.5 107.5q0 59 18.5 106.5t51 81t76 51.5t93.5 18q56 0 101 -22.5t68 -64.5v77zM305 81q33 0 60.5 11.5t47.5 33t31.5 52.5t11.5 69t-11.5 68.5t-31.5 52t-47.5 33.5t-60.5 12
t-61 -12t-48 -33.5t-31.5 -52t-11.5 -68.5t11.5 -69t31.5 -52.5t48 -33t61 -11.5z" />
    <glyph glyph-name="aacute.ss02" horiz-adv-x="628" 
d="M472 699l-112 -144h-95l91 144h116zM452 494h109v-494h-109v76q-23 -42 -68 -64t-101 -22q-50 0 -93.5 18t-76 51t-51 80.5t-18.5 107.5q0 59 18.5 106.5t51 81t76 51.5t93.5 18q56 0 101 -22.5t68 -64.5v77zM305 81q33 0 60.5 11.5t47.5 33t31.5 52.5t11.5 69
t-11.5 68.5t-31.5 52t-47.5 33.5t-60.5 12t-61 -12t-48 -33.5t-31.5 -52t-11.5 -68.5t11.5 -69t31.5 -52.5t48 -33t61 -11.5z" />
    <glyph glyph-name="abreve.ss02" horiz-adv-x="628" 
d="M315 545q-78 0 -125.5 36.5t-47.5 117.5h79q0 -45 24 -69.5t70 -24.5q48 0 72 24.5t24 69.5h79q0 -81 -47.5 -117.5t-127.5 -36.5zM452 494h109v-494h-109v76q-23 -42 -68 -64t-101 -22q-50 0 -93.5 18t-76 51t-51 80.5t-18.5 107.5q0 59 18.5 106.5t51 81t76 51.5
t93.5 18q56 0 101 -22.5t68 -64.5v77zM305 81q33 0 60.5 11.5t47.5 33t31.5 52.5t11.5 69t-11.5 68.5t-31.5 52t-47.5 33.5t-60.5 12t-61 -12t-48 -33.5t-31.5 -52t-11.5 -68.5t11.5 -69t31.5 -52.5t48 -33t61 -11.5z" />
    <glyph glyph-name="acircumflex.ss02" horiz-adv-x="628" 
d="M316 646l-69 -91h-89l96 144h124l96 -144h-90zM452 494h109v-494h-109v76q-23 -42 -68 -64t-101 -22q-50 0 -93.5 18t-76 51t-51 80.5t-18.5 107.5q0 59 18.5 106.5t51 81t76 51.5t93.5 18q56 0 101 -22.5t68 -64.5v77zM305 81q33 0 60.5 11.5t47.5 33t31.5 52.5t11.5 69
t-11.5 68.5t-31.5 52t-47.5 33.5t-60.5 12t-61 -12t-48 -33.5t-31.5 -52t-11.5 -68.5t11.5 -69t31.5 -52.5t48 -33t61 -11.5z" />
    <glyph glyph-name="acutecomb.case" 
d="M-271 729l82 131h116l-103 -131h-95z" />
    <glyph glyph-name="adieresis.ss02" horiz-adv-x="628" 
d="M221 592q-28 0 -48 20t-20 48t20 47.5t48 19.5t48 -19.5t20 -47.5t-20 -48t-48 -20zM411 592q-28 0 -48 20t-20 48t20 47.5t48 19.5t48 -19.5t20 -47.5t-20 -48t-48 -20zM452 494h109v-494h-109v76q-23 -42 -68 -64t-101 -22q-50 0 -93.5 18t-76 51t-51 80.5t-18.5 107.5
q0 59 18.5 106.5t51 81t76 51.5t93.5 18q56 0 101 -22.5t68 -64.5v77zM305 81q33 0 60.5 11.5t47.5 33t31.5 52.5t11.5 69t-11.5 68.5t-31.5 52t-47.5 33.5t-60.5 12t-61 -12t-48 -33.5t-31.5 -52t-11.5 -68.5t11.5 -69t31.5 -52.5t48 -33t61 -11.5z" />
    <glyph glyph-name="agrave.ss02" horiz-adv-x="628" 
d="M366 555h-95l-112 144h117zM452 494h109v-494h-109v76q-23 -42 -68 -64t-101 -22q-50 0 -93.5 18t-76 51t-51 80.5t-18.5 107.5q0 59 18.5 106.5t51 81t76 51.5t93.5 18q56 0 101 -22.5t68 -64.5v77zM305 81q33 0 60.5 11.5t47.5 33t31.5 52.5t11.5 69t-11.5 68.5
t-31.5 52t-47.5 33.5t-60.5 12t-61 -12t-48 -33.5t-31.5 -52t-11.5 -68.5t11.5 -69t31.5 -52.5t48 -33t61 -11.5z" />
    <glyph glyph-name="amacron.ss02" horiz-adv-x="628" 
d="M443 657v-71h-256v71h256zM452 494h109v-494h-109v76q-23 -42 -68 -64t-101 -22q-50 0 -93.5 18t-76 51t-51 80.5t-18.5 107.5q0 59 18.5 106.5t51 81t76 51.5t93.5 18q56 0 101 -22.5t68 -64.5v77zM305 81q33 0 60.5 11.5t47.5 33t31.5 52.5t11.5 69t-11.5 68.5
t-31.5 52t-47.5 33.5t-60.5 12t-61 -12t-48 -33.5t-31.5 -52t-11.5 -68.5t11.5 -69t31.5 -52.5t48 -33t61 -11.5z" />
    <glyph glyph-name="aogonek.ss02" horiz-adv-x="628" 
d="M561 0q-41 -25 -67 -56t-26 -56q0 -16 13 -24.5t35 -8.5q25 0 45 13v-70q-31 -11 -68 -11q-41 0 -69.5 16.5t-28.5 51.5q0 36 31.5 73.5t77.5 71.5h-52v76q-23 -42 -68 -64t-101 -22q-50 0 -93.5 18t-76 51t-51 80.5t-18.5 107.5q0 59 18.5 106.5t51 81t76 51.5t93.5 18
q56 0 101 -22.5t68 -64.5v77h109v-494zM305 81q33 0 60.5 11.5t47.5 33t31.5 52.5t11.5 69t-11.5 68.5t-31.5 52t-47.5 33.5t-60.5 12t-61 -12t-48 -33.5t-31.5 -52t-11.5 -68.5t11.5 -69t31.5 -52.5t48 -33t61 -11.5z" />
    <glyph glyph-name="aring.ss02" horiz-adv-x="628" 
d="M316 553q-27 0 -48.5 9t-37.5 25t-24.5 37t-8.5 45t8.5 45t24.5 36.5t37.5 25t48.5 9.5q26 0 48 -9.5t37.5 -25t24 -36.5t8.5 -45t-8.5 -45t-24 -37t-37.5 -25t-48 -9zM316 730q-26 0 -43.5 -17t-17.5 -44q0 -26 17.5 -43.5t43.5 -17.5t44 17.5t18 43.5q0 27 -18 44
t-44 17zM452 494h109v-494h-109v76q-23 -42 -68 -64t-101 -22q-50 0 -93.5 18t-76 51t-51 80.5t-18.5 107.5q0 59 18.5 106.5t51 81t76 51.5t93.5 18q56 0 101 -22.5t68 -64.5v77zM305 81q33 0 60.5 11.5t47.5 33t31.5 52.5t11.5 69t-11.5 68.5t-31.5 52t-47.5 33.5
t-60.5 12t-61 -12t-48 -33.5t-31.5 -52t-11.5 -68.5t11.5 -69t31.5 -52.5t48 -33t61 -11.5z" />
    <glyph glyph-name="aringacute.ss02" horiz-adv-x="628" 
d="M316 553q-27 0 -48.5 9t-37.5 25t-24.5 37t-8.5 45t8.5 45t24.5 36.5t37.5 25t48.5 9.5q15 0 28 -3l58 92h116l-106 -136q22 -31 22 -69q0 -24 -8.5 -45t-24 -37t-37.5 -25t-48 -9zM316 730q-26 0 -43.5 -17t-17.5 -44q0 -26 17.5 -43.5t43.5 -17.5t44 17.5t18 43.5
q0 27 -18 44t-44 17zM452 494h109v-494h-109v76q-23 -42 -68 -64t-101 -22q-50 0 -93.5 18t-76 51t-51 80.5t-18.5 107.5q0 59 18.5 106.5t51 81t76 51.5t93.5 18q56 0 101 -22.5t68 -64.5v77zM305 81q33 0 60.5 11.5t47.5 33t31.5 52.5t11.5 69t-11.5 68.5t-31.5 52
t-47.5 33.5t-60.5 12t-61 -12t-48 -33.5t-31.5 -52t-11.5 -68.5t11.5 -69t31.5 -52.5t48 -33t61 -11.5z" />
    <glyph glyph-name="atilde.ss02" horiz-adv-x="628" 
d="M245 628q-20 0 -30 -20.5t-10 -49.5h-56q0 57 27.5 94.5t74.5 37.5q35 0 53.5 -15t32.5 -32q11 -13 21 -22t28 -9q20 0 29.5 20t9.5 50h56q0 -57 -26.5 -94t-74.5 -37q-35 0 -54 15t-31 30q-11 14 -21.5 23t-28.5 9zM452 494h109v-494h-109v76q-23 -42 -68 -64t-101 -22
q-50 0 -93.5 18t-76 51t-51 80.5t-18.5 107.5q0 59 18.5 106.5t51 81t76 51.5t93.5 18q56 0 101 -22.5t68 -64.5v77zM305 81q33 0 60.5 11.5t47.5 33t31.5 52.5t11.5 69t-11.5 68.5t-31.5 52t-47.5 33.5t-60.5 12t-61 -12t-48 -33.5t-31.5 -52t-11.5 -68.5t11.5 -69
t31.5 -52.5t48 -33t61 -11.5z" />
    <glyph glyph-name="braceleft.case" horiz-adv-x="324" 
d="M244 -184q-33 0 -59.5 10t-45 28t-28.5 42t-10 52v231q0 34 -3 57.5t-10.5 38.5t-21.5 24t-37 14v73q23 5 37 14t21.5 24t10.5 38.5t3 57.5v231q0 28 10 52t28.5 42t45 28t59.5 10h55v-79h-35q-26 0 -43 -17t-17 -49v-216q0 -31 -3 -58t-12 -49t-24.5 -39t-41.5 -27
q26 -10 41.5 -26.5t24.5 -39t12 -49.5t3 -58v-215q0 -32 17 -49t43 -17h35v-79h-55z" />
    <glyph glyph-name="braceright.case" horiz-adv-x="324" 
d="M25 -184v79h35q26 0 43 17t17 49v215q0 31 3 58t12 49.5t25 39t41 26.5q-25 10 -41 27t-25 39t-12 49t-3 58v216q0 32 -17 49t-43 17h-35v79h55q33 0 59.5 -10t45 -28t28.5 -42t10 -52v-231q0 -34 3 -57.5t10.5 -38.5t22 -24t36.5 -14v-73q-22 -5 -36.5 -14t-22 -24
t-10.5 -38.5t-3 -57.5v-231q0 -28 -10 -52t-28.5 -42t-45 -28t-59.5 -10h-55z" />
    <glyph glyph-name="bracketleft.case" horiz-adv-x="320" 
d="M66 -184v1067h235v-78h-138v-911h138v-78h-235z" />
    <glyph glyph-name="bracketright.case" horiz-adv-x="321" 
d="M254 -184h-235v78h139v911h-139v78h235v-1067z" />
    <glyph glyph-name="eight.dnom" horiz-adv-x="351" 
d="M176 -8q-64 0 -105 35t-41 93q0 38 19 66t51 42q-25 13 -39.5 36t-14.5 52q0 49 36.5 80t93.5 31q56 0 92 -31.5t36 -79.5q0 -29 -14.5 -51.5t-38.5 -36.5q32 -14 51 -42t19 -66q0 -29 -11 -52.5t-30.5 -40.5t-46 -26t-57.5 -9zM176 247q29 0 49 19t20 48q0 28 -20 46
t-49 18t-49.5 -18t-20.5 -46q0 -29 20.5 -48t49.5 -19zM176 51q35 0 57.5 21t22.5 55q0 35 -22.5 55t-57.5 20t-58 -20t-23 -55q0 -34 23 -55t58 -21z" />
    <glyph glyph-name="eight.lf" horiz-adv-x="580" 
d="M291 -13q-52 0 -97 15.5t-77.5 43t-51 67t-18.5 87.5q0 63 32 109.5t86 69.5q-42 23 -66 61t-24 87q0 40 16 74t45 58.5t68.5 38.5t86.5 14q46 0 85.5 -14t68 -38.5t44.5 -58.5t16 -74q0 -49 -24.5 -87t-63.5 -61q54 -23 85 -69.5t31 -109.5q0 -48 -18.5 -87.5t-50.5 -67
t-76.5 -43t-96.5 -15.5zM291 411q24 0 45 8.5t36.5 23.5t24.5 35.5t9 44.5t-9 43.5t-25 34t-36.5 22.5t-44.5 8q-49 0 -82.5 -30t-33.5 -78q0 -49 33.5 -80.5t82.5 -31.5zM291 85q58 0 96 35t38 92t-38 91t-96 34q-60 0 -97.5 -34t-37.5 -91t38 -92t97 -35z" />
    <glyph glyph-name="eight.numr" horiz-adv-x="351" 
d="M176 272q-64 0 -105 35t-41 92q0 38 19 66t51 42q-25 14 -39.5 37t-14.5 52q0 48 36.5 79.5t93.5 31.5q56 0 92 -31.5t36 -79.5q0 -29 -14.5 -52t-38.5 -37q32 -14 51 -42t19 -66q0 -28 -11 -51.5t-30.5 -40.5t-46 -26t-57.5 -9zM176 526q29 0 49 19t20 48t-20 47t-49 18
t-49.5 -18t-20.5 -47t20.5 -48t49.5 -19zM176 330q35 0 57.5 21.5t22.5 55.5t-22.5 54.5t-57.5 20.5t-58 -20.5t-23 -54.5t23 -55.5t58 -21.5z" />
    <glyph glyph-name="exclamdown.case" horiz-adv-x="256" 
d="M127 709q29 0 48.5 -19.5t19.5 -47.5t-19.5 -48t-48.5 -20q-28 0 -47.5 20t-19.5 48t19.5 47.5t47.5 19.5zM83 485h88l11 -485h-110z" />
    <glyph glyph-name="f_j" horiz-adv-x="617" 
d="M348 410h-116v-410h-109v410h-101v84h101v71q0 51 16 88t45 60.5t69.5 35t88.5 11.5q86 0 136.5 -39.5t68.5 -106.5l-106 -28q-9 44 -33.5 65t-71.5 21q-43 0 -73.5 -24t-30.5 -83v-71h116v-84zM441 494h109v-496q0 -63 -12 -108.5t-39 -75t-70 -43.5t-105 -14v85
q36 0 59 8t35.5 26.5t17.5 48.5t5 73v496z" />
    <glyph glyph-name="f_t" horiz-adv-x="686" 
d="M123 0v410h-101v84h101v71q0 55 14 91t40.5 57t63 29t81.5 8h26v-87h-26q-16 0 -32.5 -4t-29 -15t-20.5 -30t-8 -49v-71h140q34 0 52 15t18 49v98h92v-162h114v-84h-114v-251q0 -38 18.5 -56.5t51.5 -18.5h42v-84h-78q-68 0 -105.5 39t-37.5 108v263h-193v-410h-109z" />
    <glyph glyph-name="five.dnom" horiz-adv-x="353" 
d="M170 268q78 0 117.5 -32t39.5 -100q0 -66 -39.5 -105t-105.5 -39q-68 0 -107.5 36.5t-39.5 99.5v8.5t1 8.5h64q-1 -4 -1 -11q0 -39 22 -61t62 -22q38 0 58.5 23t20.5 58q0 25 -9 40.5t-24 24.5t-35.5 12.5t-43.5 3.5h-101l20 207h239v-59h-181l-9 -93h52z" />
    <glyph glyph-name="five.lf" horiz-adv-x="581" 
d="M276 446q129 0 195 -53.5t66 -166.5q0 -54 -17 -98t-48.5 -75.5t-76 -48.5t-99.5 -17q-56 0 -101.5 16t-77.5 45t-49.5 71.5t-17.5 94.5q0 7 0.5 13.5t1.5 13.5h107q-1 -5 -1 -9v-9q0 -66 36 -102t104 -36q62 0 96 38t34 97q0 41 -14.5 67.5t-40 41.5t-59.5 21t-73 6
h-168l34 343h398v-97h-301l-16 -156h88z" />
    <glyph glyph-name="five.numr" horiz-adv-x="353" 
d="M170 547q78 0 117.5 -32t39.5 -100q0 -65 -39.5 -104t-105.5 -39q-68 0 -107.5 36.5t-39.5 99.5v8t1 8h64q-1 -4 -1 -11q0 -39 22 -61t62 -22q38 0 58.5 23t20.5 58q0 25 -9 41t-24 25t-35.5 12.5t-43.5 3.5h-101l20 206h239v-58h-181l-9 -94h52z" />
    <glyph glyph-name="four.dnom" horiz-adv-x="345" 
d="M322 146v-58h-47v-88h-65v88h-203v59l170 273h98v-274h47zM70 146h140v229z" />
    <glyph glyph-name="four.lf" horiz-adv-x="584" 
d="M554 244v-97h-78v-147h-109v147h-338v97l284 455h163v-455h78zM135 244h232v382z" />
    <glyph glyph-name="four.numr" horiz-adv-x="345" 
d="M322 426v-58h-47v-88h-65v88h-203v58l170 273h98v-273h47zM71 426h139v229z" />
    <glyph glyph-name="g.ss01" horiz-adv-x="593" 
d="M545 494v-84h-71q25 -42 25 -94q0 -42 -16 -73.5t-44 -52.5t-65.5 -31.5t-79.5 -10.5q-61 0 -105 19q-18 -22 -18 -43q0 -33 40.5 -45t114.5 -20q41 -5 80 -13t69.5 -23.5t49.5 -42t19 -67.5q0 -42 -18.5 -73t-51 -51t-77.5 -29.5t-99 -9.5q-125 0 -189.5 39.5
t-64.5 98.5q0 32 17.5 63t59.5 65q-21 14 -33 34.5t-12 50.5q0 64 51 104q-23 23 -36 52.5t-13 66.5q0 42 16.5 75.5t45 56.5t66.5 35.5t80 12.5q40 0 73 -10h186zM291 225q51 0 79 28t28 70q0 45 -29 73.5t-79 28.5t-79 -28.5t-29 -72.5q0 -43 29 -71t80 -28zM435 -102
q0 21 -12.5 34.5t-34.5 21.5t-51.5 12.5t-63.5 8.5q-19 2 -37.5 4.5t-36.5 6.5q-29 -26 -37.5 -44.5t-8.5 -34.5q0 -37 39.5 -60t105.5 -23q62 0 99.5 16.5t37.5 57.5z" />
    <glyph glyph-name="gbreve.ss01" horiz-adv-x="593" 
d="M294 545q-78 0 -125.5 36.5t-47.5 117.5h79q0 -45 24 -69.5t70 -24.5q48 0 72 24.5t24 69.5h79q0 -81 -47.5 -117.5t-127.5 -36.5zM545 494v-84h-71q25 -42 25 -94q0 -42 -16 -73.5t-44 -52.5t-65.5 -31.5t-79.5 -10.5q-61 0 -105 19q-18 -22 -18 -43q0 -33 40.5 -45
t114.5 -20q41 -5 80 -13t69.5 -23.5t49.5 -42t19 -67.5q0 -42 -18.5 -73t-51 -51t-77.5 -29.5t-99 -9.5q-125 0 -189.5 39.5t-64.5 98.5q0 32 17.5 63t59.5 65q-21 14 -33 34.5t-12 50.5q0 64 51 104q-23 23 -36 52.5t-13 66.5q0 42 16.5 75.5t45 56.5t66.5 35.5t80 12.5
q40 0 73 -10h186zM291 225q51 0 79 28t28 70q0 45 -29 73.5t-79 28.5t-79 -28.5t-29 -72.5q0 -43 29 -71t80 -28zM435 -102q0 21 -12.5 34.5t-34.5 21.5t-51.5 12.5t-63.5 8.5q-19 2 -37.5 4.5t-36.5 6.5q-29 -26 -37.5 -44.5t-8.5 -34.5q0 -37 39.5 -60t105.5 -23
q62 0 99.5 16.5t37.5 57.5z" />
    <glyph glyph-name="gdotaccent.ss01" horiz-adv-x="593" 
d="M295 592q-28 0 -48 20t-20 48t20 47.5t48 19.5t48 -19.5t20 -47.5t-20 -48t-48 -20zM545 494v-84h-71q25 -42 25 -94q0 -42 -16 -73.5t-44 -52.5t-65.5 -31.5t-79.5 -10.5q-61 0 -105 19q-18 -22 -18 -43q0 -33 40.5 -45t114.5 -20q41 -5 80 -13t69.5 -23.5t49.5 -42
t19 -67.5q0 -42 -18.5 -73t-51 -51t-77.5 -29.5t-99 -9.5q-125 0 -189.5 39.5t-64.5 98.5q0 32 17.5 63t59.5 65q-21 14 -33 34.5t-12 50.5q0 64 51 104q-23 23 -36 52.5t-13 66.5q0 42 16.5 75.5t45 56.5t66.5 35.5t80 12.5q40 0 73 -10h186zM291 225q51 0 79 28t28 70
q0 45 -29 73.5t-79 28.5t-79 -28.5t-29 -72.5q0 -43 29 -71t80 -28zM435 -102q0 21 -12.5 34.5t-34.5 21.5t-51.5 12.5t-63.5 8.5q-19 2 -37.5 4.5t-36.5 6.5q-29 -26 -37.5 -44.5t-8.5 -34.5q0 -37 39.5 -60t105.5 -23q62 0 99.5 16.5t37.5 57.5z" />
    <glyph glyph-name="gravecomb.case" 
d="M-168 729l-103 131h116l82 -131h-95z" />
    <glyph glyph-name="hookabovecomb.case" 
d="M-223 729v62q43 5 61.5 17.5t18.5 30.5q0 17 -13 26.5t-37 9.5q-14 0 -28.5 -4.5t-31.5 -15.5l-29 40q23 14 45 21.5t52 7.5q54 0 82.5 -22t28.5 -58q0 -34 -23 -51t-58 -25v-39h-68z" />
    <glyph glyph-name="i.loclTRK" horiz-adv-x="240" 
d="M120 592q-28 0 -48 20t-20 48t20 47.5t48 19.5t48 -19.5t20 -47.5t-20 -48t-48 -20zM66 0v494h109v-494h-109z" />
    <glyph glyph-name="ijacute" horiz-adv-x="478" 
d="M69 555l91 144h116l-112 -144h-95zM305 555l91 144h116l-112 -144h-95zM66 0v494h109v-494h-109zM183 -158q36 0 59 8t36.5 26.5t18.5 48.5t5 73v496h109v-496q0 -63 -12.5 -108.5t-39.5 -75t-70.5 -43.5t-105.5 -14v85z" />
    </font>
</defs>
</svg>
