<?xml version="1.0" standalone="no"?>
<!DOCTYPE svg PUBLIC "-//W3C//DTD SVG 1.1//EN" "http://www.w3.org/Graphics/SVG/1.1/DTD/svg11.dtd" >
<svg xmlns="http://www.w3.org/2000/svg" xmlns:xlink="http://www.w3.org/1999/xlink" version="1.1">
<metadata>
Created by FontForge 20201107 at Sun May 24 06:38:59 2020
 By 
Copyright (c) 2020 Cerebri Sans ProTM Version - 2020 Edition by Alfredo Marco Pradil. All rights reserved.
</metadata>
<defs>
<font id="CerebriSansPro-ExtraLight" horiz-adv-x="0" >
  <font-face 
    font-family="Cerebri Sans Pro ExtraLight"
    font-weight="200"
    font-stretch="normal"
    units-per-em="1000"
    panose-1="0 0 3 0 0 0 0 0 0 0"
    ascent="750"
    descent="-250"
    x-height="472"
    cap-height="680"
    bbox="-793 -250 1176 995"
    underline-thickness="45"
    underline-position="-183"
    unicode-range="U+000D-FB02"
  />
<missing-glyph horiz-adv-x="528" 
d="M66 0v680h397v-680h-397zM100 34h328v612h-328v-612z" />
    <glyph glyph-name="fi" unicode="fi" horiz-adv-x="532" 
d="M292 725q-64 0 -94 -34.5t-30 -100.5v-118h127v-35h-127v-437h-40v437h-99v35h99v118q0 81 41.5 125.5t123.5 44.5q74 0 112.5 -37t47.5 -100l-39 -10q-6 54 -34.5 83t-87.5 29zM414 472h40v-472h-40v472z" />
    <glyph glyph-name="fl" unicode="fl" horiz-adv-x="534" 
d="M292 760q81 0 122 -44.5t41 -125.5v-590h-39v589q0 66 -29.5 101t-94.5 35q-64 0 -94 -34.5t-30 -100.5v-118h127v-35h-127v-437h-40v437h-99v35h99v118q0 81 41.5 125.5t122.5 44.5z" />
    <glyph glyph-name="f_f" unicode="ff" horiz-adv-x="612" 
d="M561 715q-50 0 -77.5 -29.5t-27.5 -95.5v-118h126v-35h-126v-437h-40v437h-248v-437h-40v437h-99v35h99v118q0 81 41.5 125.5t123.5 44.5q54 0 88.5 -20.5t52.5 -57.5q17 35 49 51.5t78 16.5h21v-35h-21zM168 472h248v118v13t1 12q-7 53 -37 81.5t-88 28.5q-66 0 -95 -36
t-29 -99v-118z" />
    <glyph glyph-name="f_f_i" unicode="ffi" horiz-adv-x="819" 
d="M578 725q-63 0 -93 -34.5t-30 -100.5v-118h126v-35h-126v-437h-40v437h-247v-437h-40v437h-99v35h99v118q0 81 41.5 125.5t123.5 44.5q54 0 88.5 -20.5t51.5 -57.5q19 38 55 58t91 20q74 0 112.5 -37t47.5 -100l-39 -10q-5 54 -34 83t-88 29zM415 472v118v15t1 14
q-8 51 -37.5 78.5t-86.5 27.5q-66 0 -95 -36t-29 -99v-118h247zM700 472h40v-472h-40v472z" />
    <glyph glyph-name="f_f_l" unicode="ffl" horiz-adv-x="820" 
d="M578 760q82 0 123 -44.5t41 -125.5v-590h-40v589q0 66 -29.5 101t-94.5 35q-63 0 -93 -35t-30 -100v-118h126v-35h-126v-437h-40v437h-247v-437h-40v437h-99v35h99v118q0 81 41.5 125.5t123.5 44.5q54 0 88.5 -20.5t51.5 -57.5q19 38 55 58t90 20zM415 472v118v15t1 14
q-8 51 -37.5 78.5t-86.5 27.5q-66 0 -95 -36t-29 -99v-118h247z" />
    <glyph glyph-name="h_d_c_o.liga" unicode="hdco" horiz-adv-x="873" 
d="M437 0q-78 0 -147.5 30t-121 81.5t-81.5 121t-30 147.5q0 79 30 148t81.5 120.5t121 81.5t147.5 30q79 0 148 -30t120.5 -81.5t81.5 -120.5t30 -148q0 -78 -30 -147.5t-81.5 -121t-120.5 -81.5t-148 -30zM437 36q71 0 134 27t109.5 74t73.5 109.5t27 133.5t-27 134
t-73.5 109.5t-109.5 73.5t-134 27t-133.5 -27t-109.5 -73.5t-74 -109.5t-27 -134t27 -133.5t74 -109.5t109.5 -74t133.5 -27zM636 217q-7 0 -12 6l-145 144q-12 14 0 26l145 145q13 13 25 0q5 -5 5 -13t-5 -13l-132 -132l132 -132q5 -5 5 -12.5t-5 -12.5q-4 -6 -13 -6z
M238 217q-8 0 -13 5t-5 13v290q0 8 5 13t13 5t13 -5t5 -13v-290q0 -8 -5 -13t-13 -5zM437 217q-8 0 -13 5t-5 13v290q0 8 5 13t13 5t13 -5t5 -13v-290q0 -8 -5 -13t-13 -5zM292 362q-8 0 -13 5t-5 13t5 13t13 5h91q8 0 13 -5t5 -13t-5 -13t-13 -5h-91z" />
    <glyph glyph-name="hyphen_greater.liga" unicode="&#x2d;&#x3e;" horiz-adv-x="674" 
d="M488 52h-40l138 167h-586v34h586l-138 167h40l152 -184z" />
    <glyph glyph-name="less_hyphen.liga" unicode="&#x3c;&#x2d;" horiz-adv-x="674" 
d="M186 52l-152 184l152 184h40l-138 -167h586v-34h-586l138 -167h-40z" />
    <glyph glyph-name="parenleft_greater_parenright.liga" unicode="&#x28;&#x3e;&#x29;" horiz-adv-x="814" 
d="M407 -10q-72 0 -136 27.5t-112 75.5t-75.5 112t-27.5 136t27.5 135.5t75.5 111t112 75t136 27.5t135.5 -27.5t111 -75t75.5 -111t28 -135.5t-27.5 -136t-75.5 -112t-111.5 -75.5t-135.5 -27.5zM407 19q66 0 124.5 25.5t102 69t69 102.5t25.5 125t-25.5 124.5t-69 102
t-102 69t-124.5 25.5t-125 -25.5t-102.5 -69t-69 -102t-25.5 -124.5q0 -67 25.5 -125.5t69 -102t102 -69t125.5 -25.5zM312 142v398l291 -199z" />
    <glyph glyph-name=".notdef" horiz-adv-x="528" 
d="M66 0v680h397v-680h-397zM100 34h328v612h-328v-612z" />
    <glyph glyph-name=".null" 
 />
    <glyph glyph-name=".null" 
 />
    <glyph glyph-name="nonmarkingreturn" unicode="&#xd;" horiz-adv-x="250" 
 />
    <glyph glyph-name="space" unicode=" " horiz-adv-x="260" 
 />
    <glyph glyph-name="exclam" unicode="!" horiz-adv-x="218" 
d="M91 184l-3 496h40l-2 -496h-35zM108 -10q-15 0 -26.5 11t-11.5 27t11.5 27.5t26.5 11.5q16 0 27.5 -11.5t11.5 -27.5t-11.5 -27t-27.5 -11z" />
    <glyph glyph-name="quotedbl" unicode="&#x22;" horiz-adv-x="330" 
d="M61 367l-3 313h39l-3 -313h-33zM236 367l-2 313h38l-3 -313h-33z" />
    <glyph glyph-name="numbersign" unicode="#" horiz-adv-x="678" 
d="M150 0l26 180h-140l5 33h140l37 256h-140l5 32h140l26 179h33l-26 -179h208l25 179h34l-27 -179h147l-5 -32h-146l-37 -256h146l-5 -33h-146l-27 -180h-32l26 180h-208l-26 -180h-33zM214 213h208l37 256h-208z" />
    <glyph glyph-name="dollar" unicode="$" horiz-adv-x="600" 
d="M545 180q0 -86 -60.5 -137.5t-164.5 -53.5v-59h-25v59q-97 4 -163 49t-84 125l41 8q16 -67 69.5 -104t136.5 -41v302h-1q-41 9 -81.5 20t-73 30t-52.5 49t-20 78q0 42 16 76.5t44.5 58.5t69.5 37.5t90 13.5h8v64h25v-65q81 -6 134.5 -44t76.5 -113l-37 -10
q-21 62 -63 93.5t-111 37.5v-293q41 -8 81 -19.5t72 -31t52 -51t20 -79.5zM108 507q0 -36 15.5 -60t41 -39t59.5 -24t71 -17v288h-6q-83 0 -132 -40t-49 -108zM320 26q86 2 134.5 43t48.5 110q0 36 -15 60.5t-40 40t-58 25.5t-70 18v-297z" />
    <glyph glyph-name="percent" unicode="%" horiz-adv-x="675" 
d="M189 424q-27 0 -51 10.5t-42 28.5t-28.5 42.5t-10.5 52.5q0 27 10.5 51t28.5 42t42 28.5t51 10.5t51 -10.5t41.5 -28.5t28 -42t10.5 -51q0 -28 -10.5 -52.5t-28 -42.5t-41.5 -28.5t-51 -10.5zM134 0l363 680h38l-363 -680h-38zM189 456q21 0 39 8t31.5 21.5t21.5 32.5
t8 40t-8 39t-21.5 32t-31.5 22t-39 8q-42 0 -71 -29.5t-29 -71.5q0 -43 29 -72.5t71 -29.5zM487 -10q-28 0 -52.5 10.5t-42.5 28.5t-28.5 42.5t-10.5 52.5t10.5 52.5t28.5 42.5t42.5 28.5t52.5 10.5q27 0 51 -10.5t42 -28.5t28.5 -42.5t10.5 -52.5t-10.5 -52.5t-28.5 -42.5
t-42 -28.5t-51 -10.5zM487 22q21 0 39 8t31.5 22t21.5 32.5t8 39.5t-8 39.5t-21.5 32.5t-32 22t-38.5 8q-21 0 -39.5 -8t-32.5 -22t-22 -32.5t-8 -39.5t8 -39.5t22 -32.5t32.5 -22t39.5 -8z" />
    <glyph glyph-name="ampersand" unicode="&#x26;" horiz-adv-x="675" 
d="M616 379q0 -81 -26 -147.5t-69 -115.5l88 -116h-47l-67 88q-51 -48 -111.5 -73.5t-120.5 -25.5q-98 0 -152.5 46t-54.5 130q0 45 17 79t45.5 61.5t64.5 50.5t73 46l-14 18q-22 29 -42.5 64t-20.5 77q0 28 10 52t28.5 41t43.5 27t55 10q60 0 97 -35.5t37 -89.5
q0 -29 -9 -51t-27 -41.5t-44.5 -38t-60.5 -39.5l190 -251q35 44 57 102.5t22 131.5h38zM218 562q0 -34 19 -65.5t38 -56.5l14 -19q32 21 55.5 37.5t38.5 33t22 34.5t7 41q0 40 -26.5 66t-68.5 26q-45 0 -72 -27.5t-27 -69.5zM266 26q53 0 107.5 23t99.5 68l-197 259
q-34 -22 -66.5 -42.5t-57.5 -44.5t-40.5 -53t-15.5 -68q0 -70 44 -106t126 -36z" />
    <glyph glyph-name="quotesingle" unicode="'" horiz-adv-x="155" 
d="M61 367l-3 313h39l-4 -313h-32z" />
    <glyph glyph-name="parenleft" unicode="(" horiz-adv-x="282" 
d="M216 -250q-75 75 -116 207t-41 301q0 168 41 300t116 207h48q-40 -34 -71 -85t-52.5 -116t-33 -142.5t-11.5 -163.5q0 -87 11.5 -164t33 -142.5t52.5 -116.5t71 -85h-48z" />
    <glyph glyph-name="parenright" unicode=")" horiz-adv-x="282" 
d="M18 -250q40 34 71 85t52.5 116.5t33 142.5t11.5 164q0 86 -11.5 163.5t-33 142.5t-52.5 116t-71 85h48q75 -75 116 -207t41 -300q0 -169 -41 -301t-116 -207h-48z" />
    <glyph glyph-name="asterisk" unicode="*" horiz-adv-x="349" 
d="M109 478l-26 15l68 100q6 8 3 13t-11 4l-124 -6v31l124 -8q8 0 11.5 5t-2.5 13l-69 101l26 14l57 -106q4 -8 9 -8t9 8l55 106l26 -14l-69 -101q-5 -8 -1.5 -13.5t11.5 -4.5l123 8v-31l-123 6q-8 1 -11 -4.5t2 -12.5l68 -100l-26 -15l-55 106q-3 8 -8 8t-10 -8z" />
    <glyph glyph-name="plus" unicode="+" horiz-adv-x="563" 
d="M265 8v211h-212v34h212v211h34v-211h211v-34h-211v-211h-34z" />
    <glyph glyph-name="comma" unicode="," horiz-adv-x="272" 
d="M87 -175l59 297h40l-66 -297h-33z" />
    <glyph glyph-name="hyphen" unicode="-" horiz-adv-x="381" 
d="M15 219v34h350v-34h-350z" />
    <glyph glyph-name="period" unicode="." horiz-adv-x="288" 
d="M144 -10q-16 0 -27 11t-11 27t11 27.5t27 11.5t27 -11.5t11 -27.5t-11 -27t-27 -11z" />
    <glyph glyph-name="slash" unicode="/" horiz-adv-x="519" 
d="M-3 -175l484 925h41l-484 -925h-41z" />
    <glyph glyph-name="zero" unicode="0" horiz-adv-x="550" 
d="M275 -11q-105 0 -159.5 89t-54.5 263q0 350 214 350q106 0 160 -88t54 -262t-54.5 -263t-159.5 -89zM275 27q85 0 129.5 78t44.5 236q0 313 -174 313q-87 0 -130.5 -77t-43.5 -236q0 -158 44.5 -236t129.5 -78z" />
    <glyph glyph-name="one" unicode="1" horiz-adv-x="550" 
d="M309 680h41v-680h-40v632l-171 -140v48z" />
    <glyph glyph-name="two" unicode="2" horiz-adv-x="550" 
d="M103 37h392v-37h-432v52l282 286q50 51 70.5 91t20.5 82q0 67 -42.5 105t-117.5 38q-84 0 -128.5 -43t-44.5 -124v-36l-40 5v33q0 96 56 149t156 53q92 0 146.5 -48t54.5 -131q0 -21 -4.5 -42.5t-15.5 -45.5t-31 -51t-51 -59z" />
    <glyph glyph-name="three" unicode="3" horiz-adv-x="550" 
d="M280 -11q-107 0 -167.5 58.5t-60.5 161.5h41q0 -85 48.5 -133.5t138.5 -48.5q38 0 70 12t55 34t36 51.5t13 65.5q0 78 -52 121t-142 43h-23v35h22q72 0 114 38.5t42 98.5q0 57 -39.5 92.5t-102.5 35.5q-69 0 -111.5 -43.5t-42.5 -113.5v-3l-40 5q0 43 14 78t39.5 60.5
t61 39.5t78.5 14q40 0 73 -12t57 -33.5t37.5 -51.5t13.5 -65q0 -58 -31.5 -97.5t-82.5 -56.5q72 -17 113.5 -64.5t41.5 -122.5q0 -43 -16 -79.5t-44.5 -63t-67.5 -41.5t-86 -15z" />
    <glyph glyph-name="four" unicode="4" horiz-adv-x="550" 
d="M516 200v-37h-85v-163h-40v163h-355v37l342 480h53v-480h85zM82 200h309v442z" />
    <glyph glyph-name="five" unicode="5" horiz-adv-x="550" 
d="M231 424q136 0 201 -51.5t65 -162.5q0 -49 -15.5 -89.5t-44 -69.5t-68.5 -45.5t-88 -16.5q-107 0 -167.5 56.5t-60.5 158.5q0 7 0.5 13t1.5 13h39q0 -7 -0.5 -12.5t-0.5 -11.5q0 -86 49 -132.5t140 -46.5q39 0 71 13.5t55.5 37.5t36 57t12.5 73q0 98 -58 139.5t-176 41.5
h-143l46 291h343v-37h-310l-35 -219h107z" />
    <glyph glyph-name="six" unicode="6" horiz-adv-x="550" 
d="M280 458q48 0 89 -18t70.5 -49t46.5 -73.5t17 -92.5q0 -49 -17.5 -92.5t-48 -75t-72 -50t-90.5 -18.5t-91 18.5t-72.5 50.5t-47.5 75.5t-17 92.5q0 48 16 89.5t46 75.5l251 289h50l-205 -235q33 13 75 13zM274 27q41 0 76 15.5t60 42t39.5 63t14.5 78.5t-14 78t-39.5 63
t-60 42.5t-76.5 15.5q-41 0 -75.5 -15.5t-59.5 -42t-39 -63t-14 -78.5t13.5 -78t38.5 -63t59.5 -42.5t76.5 -15.5z" />
    <glyph glyph-name="seven" unicode="7" horiz-adv-x="550" 
d="M45 680h460v-37l-369 -643h-46l370 643h-415v37z" />
    <glyph glyph-name="eight" unicode="8" horiz-adv-x="550" 
d="M276 -11q-47 0 -86.5 14.5t-68 40.5t-44.5 61.5t-16 78.5q0 66 37 113t98 66q-49 19 -79 60.5t-30 96.5q0 37 14.5 68t40 54t60 36t74.5 13t74 -13t59.5 -36t40 -54.5t14.5 -67.5q0 -54 -30.5 -95.5t-78.5 -61.5q61 -19 97.5 -66t36.5 -113q0 -42 -16 -78t-44.5 -62
t-67.5 -40.5t-85 -14.5zM276 377q32 0 59.5 11t47.5 30t31.5 45t11.5 56t-11.5 55t-32 43.5t-47.5 29t-59 10.5t-59.5 -10.5t-48 -29t-32 -43.5t-11.5 -55t11.5 -56t32 -45t48 -30t59.5 -11zM276 27q38 0 70 12t55 33t36 50.5t13 64.5t-13 64t-36 50t-55 32.5t-70 11.5
q-39 0 -71 -11.5t-55 -32.5t-36 -50t-13 -64t13 -64.5t36.5 -50.5t55.5 -33t70 -12z" />
    <glyph glyph-name="nine" unicode="9" horiz-adv-x="550" 
d="M275 691q50 0 91.5 -18.5t72 -50t47.5 -74.5t17 -93q0 -48 -16 -90t-46 -76l-251 -289h-50l205 236q-33 -13 -75 -13q-48 0 -89 18t-70.5 49t-46.5 73.5t-17 91.5q0 50 17.5 93t48 75t72 50t90.5 18zM276 256q41 0 75.5 15.5t59.5 42t39.5 62.5t14.5 78t-14 78.5
t-39 63.5t-59.5 42.5t-76.5 15.5q-41 0 -76 -15.5t-60 -42.5t-39 -63t-14 -78t13.5 -78.5t39 -63t60 -42t76.5 -15.5z" />
    <glyph glyph-name="colon" unicode=":" horiz-adv-x="277" 
d="M138 385q-15 0 -26.5 11t-11.5 28q0 15 11.5 26.5t26.5 11.5q16 0 27.5 -11.5t11.5 -26.5q0 -17 -11.5 -28t-27.5 -11zM138 -10q-15 0 -26.5 11t-11.5 27t11.5 27.5t26.5 11.5q16 0 27.5 -11.5t11.5 -27.5t-11.5 -27t-27.5 -11z" />
    <glyph glyph-name="semicolon" unicode=";" horiz-adv-x="275" 
d="M151 385q-16 0 -27.5 11t-11.5 28q0 15 11.5 26.5t27.5 11.5q15 0 26.5 -11.5t11.5 -26.5q0 -17 -11.5 -28t-26.5 -11zM74 -175l60 297h40l-66 -297h-34z" />
    <glyph glyph-name="less" unicode="&#x3c;" horiz-adv-x="479" 
d="M426 445v-37l-344 -171l344 -173v-37l-372 188v44z" />
    <glyph glyph-name="equal" unicode="=" horiz-adv-x="557" 
d="M53 316v34h450v-34h-450zM53 122v34h450v-34h-450z" />
    <glyph glyph-name="greater" unicode="&#x3e;" horiz-adv-x="479" 
d="M53 445l372 -186v-44l-372 -188v37l344 173l-344 171v37z" />
    <glyph glyph-name="question" unicode="?" horiz-adv-x="479" 
d="M222 183v28q0 42 19 72t61 59q16 12 33 25.5t31 32t23 43.5t9 59q0 72 -43 112.5t-117 40.5q-75 0 -119.5 -44t-44.5 -117q0 -25 4 -41l-37 -2q-2 10 -3 21.5t-1 22.5q0 44 14.5 80t41 62t63.5 40t82 14t81.5 -13t62.5 -37.5t40.5 -59t14.5 -77.5q0 -41 -11 -71
t-28 -51.5t-36.5 -37t-36.5 -27.5q-38 -28 -53 -52t-15 -58v-24h-35zM239 -10q-15 0 -26.5 11t-11.5 27t11.5 27.5t26.5 11.5q16 0 27.5 -11.5t11.5 -27.5t-11.5 -27t-27.5 -11z" />
    <glyph glyph-name="at" unicode="@" horiz-adv-x="870" 
d="M436 -101q-75 0 -141 28.5t-115.5 77.5t-78 115.5t-28.5 141.5q0 76 28.5 142.5t77.5 116t115.5 78t141.5 28.5q76 0 142.5 -28.5t115.5 -78t77.5 -115.5t28.5 -140q0 -97 -38.5 -150t-109.5 -53q-46 0 -75 21.5t-37 61.5h-2q-19 -41 -53 -62.5t-81 -21.5q-54 0 -89 27.5
t-35 75.5q0 49 33.5 77t94.5 40l127 24v33q0 44 -27.5 68.5t-75.5 24.5q-76 0 -103 -71l-30 10q16 42 49.5 65t83.5 23q60 0 97.5 -32t37.5 -90v-159q0 -87 86 -87q57 0 87 44.5t30 128.5q0 69 -26 130t-71 106.5t-106 71.5t-131 26t-131 -26t-106 -71.5t-71 -106.5
t-26 -131q0 -69 26.5 -130t71.5 -106t106 -71t130 -26q88 0 165 43l13 -26q-39 -23 -84 -35t-94 -12zM407 89q61 0 94.5 42.5t33.5 120.5v27l-118 -22q-54 -11 -79.5 -33.5t-25.5 -58.5q0 -35 26 -55.5t69 -20.5z" />
    <glyph glyph-name="A" unicode="A" horiz-adv-x="637" 
d="M569 0l-72 184h-357l-71 -184h-43l265 680h55l266 -680h-43zM154 220h329l-164 422z" />
    <glyph glyph-name="B" unicode="B" horiz-adv-x="597" 
d="M403 354q66 -13 101 -56.5t35 -116.5q0 -47 -15 -81.5t-41 -56.5t-61.5 -32.5t-77.5 -10.5h-258v680h212q200 0 200 -172q0 -117 -95 -154zM457 504q0 140 -160 140h-170v-280h170q160 0 160 140zM344 37q154 0 154 146t-154 146h-217v-292h217z" />
    <glyph glyph-name="C" unicode="C" horiz-adv-x="729" 
d="M392 -11q-75 0 -136.5 25.5t-106 72t-69 111.5t-24.5 143t24.5 142.5t69 110.5t106 71.5t136.5 25.5q101 0 177 -45.5t117 -126.5l-38 -15q-35 69 -101.5 108.5t-154.5 39.5q-66 0 -120.5 -22.5t-93 -63.5t-60 -98t-21.5 -127t21.5 -127.5t60 -99t93 -64t120.5 -22.5
q88 0 154.5 39.5t101.5 109.5l38 -16q-41 -80 -117 -126t-177 -46z" />
    <glyph glyph-name="D" unicode="D" horiz-adv-x="663" 
d="M85 0v680h152q177 0 263 -71q105 -82 105 -268t-105 -270q-86 -71 -263 -71h-152zM126 38h111q81 0 139 15.5t97 47.5q91 73 91 240q0 165 -91 238q-39 32 -97 48t-139 16h-111v-605z" />
    <glyph glyph-name="E" unicode="E" horiz-adv-x="482" 
d="M440 643h-313v-284h278v-38h-278v-283h313v-38h-354v680h354v-37z" />
    <glyph glyph-name="F" unicode="F" horiz-adv-x="472" 
d="M441 643h-314v-284h278v-38h-278v-321h-41v680h355v-37z" />
    <glyph glyph-name="G" unicode="G" horiz-adv-x="771" 
d="M390 -11q-74 0 -135.5 25.5t-105.5 72t-68.5 111.5t-24.5 143t24.5 142.5t69 110.5t106 71.5t136.5 25.5q98 0 173 -43.5t117 -120.5l-36 -18q-37 67 -102.5 105t-151.5 38q-66 0 -120.5 -22.5t-93 -63.5t-60 -98t-21.5 -127t21 -127.5t60 -99t93.5 -64t120.5 -22.5
q61 0 109 19.5t82.5 55.5t55 86.5t25.5 113.5h-271v36h312v-339h-36v183q-31 -90 -101.5 -142t-177.5 -52z" />
    <glyph glyph-name="H" unicode="H" horiz-adv-x="670" 
d="M86 0v680h41v-320h416v320h41v-680h-41v322h-416v-322h-41z" />
    <glyph glyph-name="I" unicode="I" horiz-adv-x="213" 
d="M86 0v680h41v-680h-41z" />
    <glyph glyph-name="J" unicode="J" horiz-adv-x="398" 
d="M147 -11q-32 0 -65.5 10t-62.5 28l19 33q23 -14 51 -23t55 -9q60 0 95 40.5t35 111.5v500h41v-505q0 -42 -12 -76.5t-34.5 -58.5t-53 -37.5t-68.5 -13.5z" />
    <glyph glyph-name="K" unicode="K" horiz-adv-x="582" 
d="M504 0l-300 336h-77v-336h-41v680h41v-306h76l286 306h51l-301 -323l318 -357h-53z" />
    <glyph glyph-name="L" unicode="L" horiz-adv-x="417" 
d="M86 0v680h41v-642h270v-38h-311z" />
    <glyph glyph-name="M" unicode="M" horiz-adv-x="851" 
d="M737 680l49 -680h-41l-46 648l-2 -1l-254 -647h-34l-254 647l-3 1l-45 -648h-41l49 680h68l243 -613l243 613h68z" />
    <glyph glyph-name="N" unicode="N" horiz-adv-x="692" 
d="M565 680h40v-680h-55l-423 634v-634h-41v680h56l423 -634v634z" />
    <glyph glyph-name="O" unicode="O" horiz-adv-x="784" 
d="M392 -11q-75 0 -136.5 25.5t-106 72t-69 111.5t-24.5 143t24.5 142.5t69 110.5t106 71.5t136.5 25.5q74 0 136 -25.5t106 -71.5t68.5 -110.5t24.5 -142.5t-24.5 -143t-68.5 -111.5t-106 -72t-136 -25.5zM392 28q66 0 120 22.5t92.5 64t60 99t21.5 127.5t-21.5 127t-60 98
t-92.5 63.5t-120 22.5t-120.5 -22.5t-93 -63.5t-60 -98t-21.5 -127t21.5 -127.5t60 -99t93 -64t120.5 -22.5z" />
    <glyph glyph-name="P" unicode="P" horiz-adv-x="574" 
d="M457 640q71 -54 71 -166q0 -63 -24 -110t-71 -73q-29 -14 -63.5 -19.5t-82.5 -5.5h-161v-266h-41v680h202q61 0 101 -9.5t69 -30.5zM412 324q75 41 75 149q0 95 -59 139q-24 17 -59 24.5t-86 7.5h-157v-341h157q45 0 75.5 5t53.5 16z" />
    <glyph glyph-name="Q" unicode="Q" horiz-adv-x="786" 
d="M735 -41l-39 -13l-102 106q-41 -30 -91.5 -46.5t-110.5 -16.5q-75 0 -136.5 25.5t-106 72t-69 111.5t-24.5 143t24.5 142.5t69 110.5t106 71.5t136.5 25.5q74 0 136 -25.5t106 -71.5t68.5 -110.5t24.5 -142.5q0 -83 -27 -150t-76 -114zM97 341q0 -70 21.5 -127.5t60 -99
t93 -64t120.5 -22.5t120 22.5t92.5 64t60 99t21.5 127.5t-21.5 127t-60 98t-92.5 63.5t-120 22.5t-120.5 -22.5t-93 -63.5t-60 -98t-21.5 -127z" />
    <glyph glyph-name="R" unicode="R" horiz-adv-x="595" 
d="M545 0h-51l-179 266h-27h-161v-266h-41v680h202q61 0 101 -9.5t69 -30.5q71 -54 71 -166q0 -63 -24 -110t-71 -73q-16 -8 -34 -13t-39 -8zM284 303q45 0 75.5 5t53.5 16q75 41 75 149q0 95 -59 139q-24 17 -59 24.5t-86 7.5h-157v-341h157z" />
    <glyph glyph-name="S" unicode="S" horiz-adv-x="600" 
d="M310 -11q-103 0 -173 45.5t-89 128.5l41 8q17 -70 74.5 -107.5t146.5 -37.5q91 0 142 40.5t51 112.5q0 39 -17 64t-45.5 40.5t-66 25t-77.5 18.5q-41 9 -82 19.5t-74 29.5t-53.5 50t-20.5 79q0 42 16 76.5t44.5 58.5t69.5 37.5t90 13.5q95 0 156.5 -38t87.5 -120l-37 -10
q-23 69 -72.5 100.5t-132.5 31.5t-132 -40t-49 -108q0 -38 16.5 -62t44.5 -39t64.5 -24.5t76.5 -17.5q42 -9 83.5 -19.5t75.5 -30.5t55 -51.5t21 -82.5q0 -44 -16.5 -79.5t-47 -60t-74 -38t-97.5 -13.5z" />
    <glyph glyph-name="T" unicode="T" horiz-adv-x="464" 
d="M444 680v-37h-192v-643h-41v643h-192v37h425z" />
    <glyph glyph-name="U" unicode="U" horiz-adv-x="649" 
d="M324 -11q-54 0 -99.5 17t-78 48.5t-50.5 75.5t-18 99v451h41v-448q0 -47 15 -84.5t42 -64t64.5 -41t83.5 -14.5t84 14.5t65 41t42 64t15 84.5v448h40v-451q0 -55 -18 -99t-50.5 -75.5t-78 -48.5t-99.5 -17z" />
    <glyph glyph-name="V" unicode="V" horiz-adv-x="638" 
d="M569 680h43l-266 -680h-55l-265 680h43l250 -641z" />
    <glyph glyph-name="W" unicode="W" horiz-adv-x="957" 
d="M882 680h43l-204 -680h-58l-185 627l-184 -627h-59l-204 680h43l192 -644l188 644h48l188 -644z" />
    <glyph glyph-name="X" unicode="X" horiz-adv-x="646" 
d="M26 0l273 350l-261 330h50l235 -299l235 299h50l-260 -330l272 -350h-51l-246 316l-246 -316h-51z" />
    <glyph glyph-name="Y" unicode="Y" horiz-adv-x="555" 
d="M535 680l-238 -365v-315h-40v315l-238 365h45l213 -327l213 327h45z" />
    <glyph glyph-name="Z" unicode="Z" horiz-adv-x="567" 
d="M81 38h452v-38h-498v40l446 603h-444v37h489v-40z" />
    <glyph glyph-name="bracketleft" unicode="[" horiz-adv-x="282" 
d="M79 -250v1015h184v-33h-147v-949h147v-33h-184z" />
    <glyph glyph-name="backslash" unicode="\" horiz-adv-x="519" 
d="M481 -175l-484 925h41l484 -925h-41z" />
    <glyph glyph-name="bracketright" unicode="]" horiz-adv-x="283" 
d="M204 -250h-185v33h148v949h-148v33h185v-1015z" />
    <glyph glyph-name="asciicircum" unicode="^" horiz-adv-x="640" 
d="M592 132h-37l-235 510l-234 -510h-38l252 548h40z" />
    <glyph glyph-name="underscore" unicode="_" horiz-adv-x="500" 
d="M0 -67v34h500v-34h-500z" />
    <glyph glyph-name="grave" unicode="`" horiz-adv-x="313" 
d="M193 533l-107 147h46l94 -147h-33z" />
    <glyph glyph-name="a" unicode="a" horiz-adv-x="492" 
d="M477 35v-35h-26q-68 0 -68 72v36h-4q-23 -57 -68 -87.5t-111 -30.5t-104 32.5t-38 92.5q0 65 45 101t130 50l114 18q14 3 22.5 10t8.5 20q0 66 -35 100t-100 34q-121 0 -136 -109l-40 4q11 69 55.5 104t120.5 35q84 0 129 -44.5t45 -126.5v-225q0 -28 9.5 -39.5
t32.5 -11.5h18zM206 25q85 0 129 60t44 173l-141 -23q-141 -22 -141 -118q0 -45 28.5 -68.5t80.5 -23.5z" />
    <glyph glyph-name="b" unicode="b" horiz-adv-x="595" 
d="M314 482q48 0 89.5 -18t71.5 -51t47 -78t17 -99t-17 -99.5t-47 -78t-71.5 -50.5t-89.5 -18q-68 0 -118.5 34t-75.5 92v-116h-40v750h40v-394q25 57 75.5 91.5t118.5 34.5zM309 26q41 0 76 15.5t60.5 43t39.5 66.5t14 85t-14 84.5t-39.5 66.5t-60.5 43.5t-76 15.5
q-42 0 -76.5 -15.5t-60 -43.5t-39.5 -66.5t-14 -84.5t14 -85t39.5 -66.5t60 -43t76.5 -15.5z" />
    <glyph glyph-name="c" unicode="c" horiz-adv-x="545" 
d="M286 -10q-50 0 -92.5 18.5t-73 51t-47.5 77.5t-17 99t17 99t47.5 77.5t73 51t92.5 18.5q76 0 131 -40.5t78 -109.5l-37 -6q-20 56 -65 88.5t-107 32.5q-42 0 -76.5 -15.5t-60 -43.5t-39.5 -67t-14 -85t14 -85t39.5 -67t60 -43.5t76.5 -15.5q62 0 107 32.5t65 88.5l37 -6
q-23 -69 -78.5 -109.5t-130.5 -40.5z" />
    <glyph glyph-name="d" unicode="d" horiz-adv-x="595" 
d="M475 750h40v-750h-40v113q-26 -57 -76.5 -90t-117.5 -33q-48 0 -89.5 18t-71.5 50.5t-47 78t-17 99.5t17 99t47 78t71.5 51t89.5 18q67 0 117.5 -33.5t76.5 -90.5v392zM286 26q42 0 76.5 15.5t60 43t39.5 66.5t14 85t-14 84.5t-39.5 66.5t-60 43.5t-76.5 15.5
q-41 0 -76 -15.5t-60.5 -43.5t-39.5 -66.5t-14 -84.5t14 -85t39.5 -66.5t60.5 -43t76 -15.5z" />
    <glyph glyph-name="e" unicode="e" horiz-adv-x="565" 
d="M511 227h-415q1 -45 15.5 -82t40 -64t60 -41.5t74.5 -14.5q57 0 100.5 28t66.5 78l37 -8q-27 -62 -80.5 -97.5t-123.5 -35.5q-50 0 -92.5 18t-73 51t-47.5 78t-17 99t17 99t47.5 78t72.5 51t92 18q49 0 90.5 -17.5t72 -50t47.5 -77.5t17 -100zM285 447q-39 0 -72.5 -13.5
t-58 -38t-39.5 -59t-18 -76.5h375q-3 42 -17.5 76.5t-39.5 59t-58 38t-72 13.5z" />
    <glyph glyph-name="f" unicode="f" horiz-adv-x="325" 
d="M274 715q-51 0 -78.5 -29.5t-27.5 -95.5v-118h127v-35h-127v-437h-40v437h-99v35h99v118q0 83 38 121.5t108 38.5h21v-35h-21z" />
    <glyph glyph-name="g" unicode="g" horiz-adv-x="592" 
d="M473 472h40v-476q0 -118 -60.5 -182t-163.5 -64q-81 0 -136.5 40t-81.5 106l35 16q22 -59 68.5 -93.5t113.5 -34.5q88 0 136.5 55.5t48.5 154.5v126q-24 -57 -74.5 -91.5t-119.5 -34.5q-48 0 -89 18t-70.5 50.5t-46.5 77t-17 98.5q0 53 17 98t46.5 77.5t70.5 50.5t89 18
q69 0 119.5 -34.5t74.5 -91.5v116zM285 29q41 0 76 15.5t60 43.5t39 66t14 84q0 45 -14 83.5t-39 66.5t-60 43.5t-76 15.5q-42 0 -76.5 -15.5t-60 -43.5t-39.5 -66.5t-14 -83.5q0 -46 14 -84t39.5 -66t60.5 -43.5t76 -15.5z" />
    <glyph glyph-name="h" unicode="h" horiz-adv-x="511" 
d="M269 482q79 0 123 -46t44 -130v-306h-40v303q0 70 -35.5 107t-100.5 37q-63 0 -102.5 -43t-39.5 -121v-283h-39v750h39v-356q22 42 60.5 65t90.5 23z" />
    <glyph glyph-name="i" unicode="i" horiz-adv-x="197" 
d="M99 618q-16 0 -27.5 11t-11.5 27q0 17 11.5 27.5t27.5 10.5q15 0 26.5 -10.5t11.5 -27.5q0 -16 -11.5 -27t-26.5 -11zM78 0v472h40v-472h-40z" />
    <glyph glyph-name="j" unicode="j" horiz-adv-x="193" 
d="M94 618q-16 0 -27.5 11t-11.5 27q0 17 11.5 27.5t27.5 10.5q15 0 26.5 -10.5t11.5 -27.5q0 -16 -11.5 -27t-26.5 -11zM-64 -209q40 0 67 8.5t42.5 29.5t22 55.5t6.5 86.5v501h39v-501q0 -59 -9 -100t-29.5 -66.5t-54.5 -36.5t-84 -11v34z" />
    <glyph glyph-name="k" unicode="k" horiz-adv-x="480" 
d="M196 250l252 -250h-51l-236 233h-43v-233h-39v750h39v-485h45l216 207h51z" />
    <glyph glyph-name="l" unicode="l" horiz-adv-x="197" 
d="M79 0v750h39v-750h-39z" />
    <glyph glyph-name="m" unicode="m" horiz-adv-x="748" 
d="M527 482q68 0 107 -40t39 -109v-333h-39v326q0 57 -31 89t-84 32q-56 0 -89.5 -36t-33.5 -102v-309h-39v326q0 57 -31.5 89t-84.5 32q-51 0 -84 -31t-38 -87v-329h-40v472h40v-64q18 35 51.5 54.5t78.5 19.5q52 0 87.5 -24t50.5 -67q18 43 54 67t86 24z" />
    <glyph glyph-name="n" unicode="n" horiz-adv-x="511" 
d="M268 482q81 0 125 -46t44 -127v-309h-40v304q0 69 -35.5 106t-100.5 37q-63 0 -102.5 -43.5t-39.5 -120.5v-283h-40v472h40v-77q22 42 60 64.5t89 22.5z" />
    <glyph glyph-name="o" unicode="o" horiz-adv-x="574" 
d="M287 -10q-50 0 -92.5 18t-73 51t-48 78t-17.5 99t17.5 99t48 77.5t73 51t92.5 18.5t92 -18.5t73 -51t48 -77.5t17 -99t-17 -99t-48 -78t-73 -51t-92 -18zM287 25q42 0 76.5 15.5t60 43.5t39.5 67t14 85t-14 85t-39.5 67t-60 43.5t-76.5 15.5t-77 -15.5t-60.5 -43.5
t-39.5 -67t-14 -85t14 -85t39.5 -67t60.5 -43.5t77 -15.5z" />
    <glyph glyph-name="p" unicode="p" horiz-adv-x="595" 
d="M312 482q48 0 89.5 -18t71.5 -51t47 -78t17 -99t-17 -99t-47 -78t-71.5 -51t-89.5 -18q-67 0 -118 34t-76 92v-359h-39v715h39v-116q25 58 76 92t118 34zM307 26q42 0 76.5 15.5t60 43.5t39.5 66.5t14 84.5t-14 84.5t-39.5 66.5t-60 43.5t-76.5 15.5q-41 0 -76 -15.5
t-60.5 -43.5t-39.5 -66.5t-14 -84.5t14 -84.5t39.5 -66.5t60.5 -43.5t76 -15.5z" />
    <glyph glyph-name="q" unicode="q" horiz-adv-x="595" 
d="M477 472h40v-715h-40v359q-25 -58 -76 -92t-118 -34q-48 0 -89.5 18t-71.5 51t-47 78t-17 99t17 99t47 78t71.5 51t89.5 18q67 0 118 -34t76 -92v116zM288 26q41 0 76 15.5t60.5 43.5t39.5 66.5t14 84.5t-14 84.5t-39.5 66.5t-60.5 43.5t-76 15.5q-42 0 -76.5 -15.5
t-60 -43.5t-39.5 -66.5t-14 -84.5t14 -84.5t39.5 -66.5t60 -43.5t76.5 -15.5z" />
    <glyph glyph-name="r" unicode="r" horiz-adv-x="344" 
d="M118 364q23 57 72.5 87.5t123.5 30.5v-39q-196 0 -196 -215v-228h-39v472h39v-108z" />
    <glyph glyph-name="s" unicode="s" horiz-adv-x="454" 
d="M234 -10q-72 0 -120.5 38.5t-59.5 99.5l36 9q8 -51 46.5 -82.5t96.5 -31.5q57 0 90.5 28t33.5 73q0 27 -11 44.5t-29.5 29t-42.5 17.5t-50 11q-30 6 -58 14t-50 22t-35.5 36t-13.5 55q0 60 43.5 94.5t113.5 34.5q66 0 110.5 -32.5t55.5 -90.5l-37 -6q-8 45 -42.5 70
t-87.5 25q-54 0 -86.5 -24.5t-32.5 -68.5q0 -24 11 -40t29 -26.5t42 -17t50 -11.5q30 -6 59 -14t51.5 -22.5t36 -37.5t13.5 -59q0 -32 -12 -57.5t-33.5 -43t-51.5 -27t-65 -9.5z" />
    <glyph glyph-name="t" unicode="t" horiz-adv-x="334" 
d="M246 0q-54 0 -86 32t-32 89v316h-99v35h64q38 0 38 40v119h37v-159h126v-35h-126v-313q0 -43 24 -66t62 -23h40v-35h-48z" />
    <glyph glyph-name="u" unicode="u" horiz-adv-x="510" 
d="M391 472h39v-472h-39v77q-22 -42 -60.5 -64.5t-89.5 -22.5q-81 0 -124.5 45.5t-43.5 127.5v309h39v-304q0 -69 36 -106t101 -37q63 0 102 43.5t40 119.5v284z" />
    <glyph glyph-name="v" unicode="v" horiz-adv-x="495" 
d="M420 472h43l-196 -472h-39l-196 472h43l173 -423z" />
    <glyph glyph-name="w" unicode="w" horiz-adv-x="790" 
d="M714 472h42l-171 -472h-52l-138 433l-138 -433h-52l-171 472h42l155 -436l141 436h47l140 -436z" />
    <glyph glyph-name="x" unicode="x" horiz-adv-x="511" 
d="M36 0l195 236l-195 236h51l168 -208l168 208h51l-194 -236l194 -236h-51l-168 207l-168 -207h-51z" />
    <glyph glyph-name="y" unicode="y" horiz-adv-x="495" 
d="M420 472h43l-296 -715h-44l104 247l-195 468h43l173 -423z" />
    <glyph glyph-name="z" unicode="z" horiz-adv-x="459" 
d="M423 472l-319 -438h313v-34h-381l319 437h-297v35h365z" />
    <glyph glyph-name="braceleft" unicode="{" horiz-adv-x="271" 
d="M215 -250q-49 0 -79.5 33.5t-30.5 84.5v213q0 31 -2 58t-9 47.5t-20.5 34.5t-36.5 18v38q23 4 36.5 17.5t20.5 34t9 47.5t2 58v213q0 51 30.5 84.5t79.5 33.5h37v-33h-33q-33 0 -54.5 -24t-21.5 -64v-210q0 -28 -2 -55.5t-9 -51t-20 -42t-36 -27.5q23 -10 36.5 -28
t20 -42t8.5 -51.5t2 -55.5v-210q0 -40 21.5 -64t54.5 -24h33v-33h-37z" />
    <glyph glyph-name="bar" unicode="|" horiz-adv-x="289" 
d="M125 -150v900h39v-900h-39z" />
    <glyph glyph-name="braceright" unicode="}" horiz-adv-x="271" 
d="M20 -250v33h32q33 0 54.5 24t21.5 64v210q0 28 2 55.5t9 51.5t20.5 42t36.5 28q-23 9 -36.5 27.5t-20.5 42t-9 51t-2 55.5v210q0 40 -21.5 64t-54.5 24h-32v33h37q49 0 79 -33.5t30 -84.5v-213q0 -31 2 -58t9 -47.5t20.5 -34t36.5 -17.5v-38q-23 -4 -36.5 -18
t-20.5 -34.5t-9 -47.5t-2 -58v-213q0 -51 -30 -84.5t-79 -33.5h-37z" />
    <glyph glyph-name="asciitilde" unicode="~" horiz-adv-x="592" 
d="M405 150q-22 0 -40 7t-32.5 18.5t-26 25t-22.5 25.5q-22 26 -42.5 44.5t-52.5 18.5q-47 0 -75 -36t-28 -93h-33q0 36 9.5 65.5t27.5 51t43.5 33.5t56.5 12q43 0 70.5 -24t49.5 -53q20 -25 41 -43.5t53 -18.5q45 0 74 35.5t28 92.5h33q0 -35 -9.5 -64.5t-27.5 -51
t-42.5 -33.5t-54.5 -12z" />
    <glyph glyph-name="exclamdown" unicode="&#xa1;" horiz-adv-x="218" 
d="M108 482q16 0 27.5 -11t11.5 -27t-11.5 -27t-27.5 -11q-15 0 -26.5 11t-11.5 27t11.5 27t26.5 11zM91 288h35l2 -496h-40z" />
    <glyph glyph-name="cent" unicode="&#xa2;" horiz-adv-x="545" 
d="M286 126q62 0 107 32.5t65 88.5l37 -6q-21 -65 -72.5 -104.5t-121.5 -44.5v-92h-31v92q-47 3 -86.5 22.5t-68 52t-44 76t-15.5 95.5q0 51 15.5 94.5t44 76t68 52t86.5 22.5v97h31v-97q71 -5 122 -44.5t72 -104.5l-37 -7q-20 57 -65 89t-107 32q-42 0 -76.5 -15.5
t-60 -43.5t-39.5 -66.5t-14 -84.5t14 -85t39.5 -67.5t60 -44t76.5 -15.5z" />
    <glyph glyph-name="sterling" unicode="&#xa3;" horiz-adv-x="628" 
d="M187 36h369v-36h-483v30l44 1q32 3 32 35v251h-76v33h76v107q0 111 55.5 172.5t155.5 61.5q83 0 134 -46t51 -129q0 -18 -3 -36l-36 2q3 18 3 32q0 66 -40 103.5t-110 37.5q-84 0 -128 -50t-44 -148v-107h194v-33h-194v-281z" />
    <glyph glyph-name="currency" unicode="&#xa4;" horiz-adv-x="659" 
d="M104 91l-25 25l99 98q-23 28 -34.5 60t-11.5 67t11.5 67.5t34.5 59.5l-98 98l24 25l98 -98q27 23 60 34.5t68 11.5q34 0 66.5 -11.5t59.5 -34.5l98 98l24 -25l-97 -98q23 -26 34.5 -59t11.5 -68q0 -70 -46 -127l98 -98l-25 -25l-98 99q-27 -23 -60 -35t-66 -12
q-35 0 -68 12t-60 35zM330 178q34 0 63.5 12.5t51.5 34.5t35 52t13 64t-13 64t-35 52t-52 35t-63 13q-34 0 -64 -13t-52 -35.5t-35 -52t-13 -63.5t13 -64t35.5 -52t52 -34.5t63.5 -12.5z" />
    <glyph glyph-name="yen" unicode="&#xa5;" horiz-adv-x="555" 
d="M535 680l-221 -330h190v-34h-207v-160h207v-34h-207v-122h-40v122h-208v34h208v160h-208v34h191l-221 330h45l213 -319l213 319h45z" />
    <glyph glyph-name="brokenbar" unicode="&#xa6;" horiz-adv-x="289" 
d="M125 390v360h39v-360h-39zM125 -150v360h39v-360h-39z" />
    <glyph glyph-name="section" unicode="&#xa7;" horiz-adv-x="632" 
d="M335 -218q-94 0 -154 36.5t-85 117.5l33 10q23 -69 72 -100.5t132 -31.5t132.5 40t49.5 109q0 38 -17 62.5t-45 39.5t-64.5 24.5t-76.5 17.5q-41 9 -82 19.5t-74 30t-53.5 50t-20.5 79.5q0 71 42 118q-20 17 -31 42.5t-11 60.5q0 42 15.5 75.5t44 57.5t68 37t88.5 13
q94 0 154 -37t85 -118l-34 -10q-22 69 -71.5 100.5t-132.5 31.5t-132 -40t-49 -109q0 -38 17 -62t45 -39.5t64.5 -24.5t76.5 -17q41 -9 82 -19.5t74 -30t53.5 -50t20.5 -79.5q0 -72 -43 -118q20 -18 31.5 -43.5t11.5 -60.5q0 -42 -15.5 -75.5t-44 -57t-68.5 -36.5t-88 -13z
M479 87q35 40 35 98q0 40 -17.5 65t-46 40.5t-66 25t-78.5 18.5q-42 8 -82.5 18.5t-70.5 32.5q-35 -40 -35 -98q0 -40 17.5 -65t46.5 -41t66.5 -25.5t77.5 -17.5q42 -8 82.5 -19t70.5 -32z" />
    <glyph glyph-name="dieresis" unicode="&#xa8;" horiz-adv-x="400" 
d="M125 618q-16 0 -27.5 11t-11.5 27q0 17 11.5 27.5t27.5 10.5q15 0 26.5 -10.5t11.5 -27.5q0 -16 -11.5 -27t-26.5 -11zM276 618q-16 0 -27.5 11t-11.5 27q0 17 11.5 27.5t27.5 10.5q15 0 26.5 -10.5t11.5 -27.5q0 -16 -11.5 -27t-26.5 -11z" />
    <glyph glyph-name="copyright" unicode="&#xa9;" horiz-adv-x="847" 
d="M424 -10q-72 0 -136 27.5t-111.5 75.5t-75.5 112t-28 136t28 135.5t75.5 111t111.5 75t136 27.5t135.5 -27.5t111.5 -75t75.5 -111t27.5 -135.5t-27.5 -136t-75 -112t-111.5 -75.5t-136 -27.5zM424 19q66 0 124.5 25.5t102 69t69 102.5t25.5 125t-25.5 124.5t-69 102
t-102 69t-124.5 25.5t-125 -25.5t-102.5 -69t-69 -102t-25.5 -124.5q0 -67 25.5 -125.5t69 -102t102 -69t125.5 -25.5zM423 134q-42 0 -79.5 16.5t-65.5 44.5t-44.5 65.5t-16.5 79.5t16.5 79.5t44.5 65.5t65.5 44.5t79.5 16.5q51 0 94 -23t72 -61l-23 -16q-24 32 -61 51.5
t-82 19.5q-37 0 -69 -14t-56 -38t-38 -56t-14 -69t14 -69.5t38 -56.5t56 -38t69 -14q45 0 82 19.5t61 52.5l23 -16q-29 -38 -72 -61t-94 -23z" />
    <glyph glyph-name="ordfeminine" unicode="&#xaa;" horiz-adv-x="468" 
d="M348 680h30v-300h-30v66q-19 -33 -51 -52.5t-74 -19.5q-31 0 -59 12t-49 33t-33 49.5t-12 61.5t12 61.5t33 49.5t49 33t59 12q42 0 74 -19.5t51 -52.5v66zM223 402q26 0 48.5 10t39.5 27.5t27 40.5t10 50q0 26 -10 49.5t-27 40.5t-39.5 27t-48.5 10q-25 0 -47.5 -10
t-39 -27t-26.5 -40.5t-10 -49.5q0 -27 10 -50t26.5 -40.5t39 -27.5t47.5 -10z" />
    <glyph glyph-name="guillemotleft" unicode="&#xab;" horiz-adv-x="452" 
d="M186 52l-152 184l152 184h40l-152 -184l152 -184h-40zM373 52l-152 184l152 184h41l-152 -184l152 -184h-41z" />
    <glyph glyph-name="logicalnot" unicode="&#xac;" horiz-adv-x="673" 
d="M585 119v199h-532v35h567v-234h-35z" />
    <glyph glyph-name="uni00AD" unicode="&#xad;" horiz-adv-x="381" 
d="M15 219v34h350v-34h-350z" />
    <glyph glyph-name="registered" unicode="&#xae;" horiz-adv-x="420" 
d="M209 310q-39 0 -73.5 15t-60.5 41t-41 60.5t-15 73.5t15 73.5t41 60.5t60.5 41t73.5 15t74 -15t61 -41t41 -60.5t15 -73.5t-15 -73.5t-41 -60.5t-61 -41t-74 -15zM209 334q35 0 65 13t53 35.5t36 53t13 64.5q0 35 -13 65t-35.5 53t-53 36t-65.5 13q-34 0 -64.5 -13.5
t-53 -36t-35.5 -53t-13 -64.5t13 -64.5t35.5 -53t53 -35.5t64.5 -13zM141 391v217h88q28 0 45.5 -18t17.5 -46q0 -41 -37 -55l43 -98h-27l-40 94h-66v-94h-24zM165 508h62q19 0 30 10t11 26q0 18 -11.5 29.5t-29.5 11.5h-62v-77z" />
    <glyph glyph-name="macron" unicode="&#xaf;" horiz-adv-x="385" 
d="M86 581v32h213v-32h-213z" />
    <glyph glyph-name="degree" unicode="&#xb0;" horiz-adv-x="459" 
d="M229 420q-28 0 -52.5 10.5t-43 29t-29 43t-10.5 52.5t10.5 52.5t29 43t43 29t52.5 10.5t52.5 -10.5t43 -29t29 -43t10.5 -52.5t-10.5 -52.5t-29 -43t-43 -29t-52.5 -10.5zM229 450q22 0 41 8.5t33.5 22.5t22.5 33t8 41t-8 41.5t-22.5 33.5t-33.5 22.5t-41 8.5t-41 -8.5
t-33 -22.5t-22.5 -33.5t-8.5 -41.5t8.5 -41t22.5 -33t33 -22.5t41 -8.5z" />
    <glyph glyph-name="plusminus" unicode="&#xb1;" horiz-adv-x="563" 
d="M265 113v204h-212v34h212v203h34v-203h211v-34h-211v-204h-34zM53 18v34h457v-34h-457z" />
    <glyph glyph-name="uni00B2" unicode="&#xb2;" horiz-adv-x="310" 
d="M29 392v31l169 172q30 31 42.5 54.5t12.5 49.5q0 40 -25.5 62.5t-70.5 22.5q-51 0 -77.5 -26t-26.5 -74v-21l-24 3v19q0 58 33.5 90t93.5 32q56 0 88.5 -29t32.5 -79q0 -26 -11.5 -53t-49.5 -66l-164 -166h236v-22h-259z" />
    <glyph glyph-name="uni00B3" unicode="&#xb3;" horiz-adv-x="325" 
d="M163 386q-64 0 -100.5 34.5t-36.5 97.5h25q0 -51 29 -80.5t83 -29.5q46 0 75 27.5t29 70.5q0 47 -31 73t-85 26h-14v20h14q43 0 68 23.5t25 59.5q0 34 -23.5 55.5t-61.5 21.5q-42 0 -67.5 -26t-25.5 -68v-3l-24 3q0 52 32.5 84t83.5 32q48 0 78.5 -27.5t30.5 -70.5
q0 -35 -19 -58.5t-50 -33.5q44 -10 68.5 -38.5t24.5 -73.5q0 -52 -35.5 -85.5t-92.5 -33.5z" />
    <glyph glyph-name="acute" unicode="&#xb4;" horiz-adv-x="313" 
d="M86 533l95 147h45l-106 -147h-34z" />
    <glyph glyph-name="uni00B5" unicode="&#xb5;" horiz-adv-x="510" 
d="M390 472h40v-472h-38l-1 77q-22 -41 -60.5 -64t-89.5 -23q-84 0 -129 51v-284h-39v715h39v-304q0 -69 36 -106t100 -37t103 43.5t39 119.5v284z" />
    <glyph glyph-name="paragraph" unicode="&#xb6;" horiz-adv-x="560" 
d="M274 -150v495h-40q-83 0 -130.5 43t-47.5 125t47.5 124.5t130.5 42.5h69v-830h-29zM406 -150v830h29v-830h-29z" />
    <glyph glyph-name="periodcentered" unicode="&#xb7;" horiz-adv-x="298" 
d="M153 302q-16 0 -27.5 11t-11.5 28q0 15 11.5 26.5t27.5 11.5q15 0 26.5 -11.5t11.5 -26.5q0 -17 -11.5 -28t-26.5 -11z" />
    <glyph glyph-name="cedilla" unicode="&#xb8;" horiz-adv-x="332" 
d="M170 -85q35 0 55.5 -19t20.5 -51q0 -35 -23 -56.5t-59 -21.5q-27 0 -47 10.5t-31 28.5l26 13q17 -24 51 -24q25 0 39.5 13.5t14.5 36.5q0 22 -14 33.5t-37 11.5t-40 -10l-25 13l61 121l27 -9l-48 -94q8 2 15 3t14 1z" />
    <glyph glyph-name="uni00B9" unicode="&#xb9;" horiz-adv-x="192" 
d="M101 800h24v-408h-24v380l-103 -85v29z" />
    <glyph glyph-name="ordmasculine" unicode="&#xba;" horiz-adv-x="432" 
d="M215 378q-33 0 -62 12t-51 33t-34.5 49.5t-12.5 61.5t12.5 61.5t34.5 49.5t51 33t62 12q34 0 63.5 -12t51 -33t34 -49.5t12.5 -61.5t-12.5 -61.5t-34 -49.5t-51 -33t-63.5 -12zM215 403q27 0 51 10t42 28t28.5 42t10.5 51t-10.5 50.5t-28.5 41.5t-42 28t-51 10t-51 -10
t-41.5 -28t-27.5 -41.5t-10 -50.5t10 -51t27.5 -42t41.5 -28t51 -10z" />
    <glyph glyph-name="guillemotright" unicode="&#xbb;" horiz-adv-x="452" 
d="M79 52h-41l152 184l-152 184h41l152 -184zM266 52h-40l152 184l-152 184h40l152 -184z" />
    <glyph glyph-name="onequarter" unicode="&#xbc;" horiz-adv-x="642" 
d="M101 272v380l-103 -85v29l103 84h24v-408h-24zM443 680h26l-384 -680h-26zM619 120v-22h-52v-98h-24v98h-212v22l205 288h31v-288h52zM358 120h185v264z" />
    <glyph glyph-name="onehalf" unicode="&#xbd;" horiz-adv-x="646" 
d="M101 272v380l-103 -85v29l103 84h24v-408h-24zM443 680h26l-384 -680h-26zM388 22h236v-22h-259v31l169 172q30 31 42.5 54.5t12.5 49.5q0 40 -25.5 62.5t-70.5 22.5q-51 0 -77.5 -26t-26.5 -74v-21l-24 3v19q0 58 33.5 90t93.5 32q56 0 88.5 -29t32.5 -79
q0 -26 -11.5 -53.5t-49.5 -65.5z" />
    <glyph glyph-name="threequarters" unicode="&#xbe;" horiz-adv-x="776" 
d="M291 385q0 -52 -35.5 -85.5t-92.5 -33.5q-64 0 -100.5 34.5t-36.5 97.5h25q0 -51 29 -80.5t83 -29.5q46 0 75 27.5t29 70.5q0 47 -31 73t-85 26h-14v20h14q43 0 68 23.5t25 59.5q0 34 -23.5 55.5t-61.5 21.5q-42 0 -67.5 -26t-25.5 -68v-3l-24 3q0 52 32.5 84t83.5 32
q48 0 78.5 -27.5t30.5 -70.5q0 -35 -19 -58.5t-50 -33.5q44 -10 68.5 -38.5t24.5 -73.5zM576 680h26l-384 -680h-26zM752 120v-22h-52v-98h-24v98h-212v22l205 288h31v-288h52zM491 120h185v264z" />
    <glyph glyph-name="questiondown" unicode="&#xbf;" horiz-adv-x="479" 
d="M235 482q15 0 26.5 -11t11.5 -28q0 -15 -11.5 -26.5t-26.5 -11.5q-16 0 -27.5 11.5t-11.5 26.5q0 17 11.5 28t27.5 11zM252 289v-29q0 -42 -19 -71.5t-61 -59.5q-16 -11 -33 -24.5t-31 -32t-23 -43.5t-9 -60q0 -71 43 -112t117 -41q75 0 119.5 44t44.5 118q0 24 -4 41
l37 2q2 -10 3 -21.5t1 -23.5q0 -44 -14.5 -80t-41 -62t-63.5 -40t-82 -14t-81.5 13.5t-62.5 38t-40.5 59t-14.5 77.5q0 41 11 71t28 52t36.5 37t36.5 27q38 28 53 52t15 57v25h35z" />
    <glyph glyph-name="Agrave" unicode="&#xc0;" horiz-adv-x="637" 
d="M336 710h-33l-89 121h44zM569 0l-72 184h-357l-71 -184h-43l265 680h55l266 -680h-43zM154 220h329l-164 422z" />
    <glyph glyph-name="Aacute" unicode="&#xc1;" horiz-adv-x="637" 
d="M424 831l-88 -121h-34l78 121h44zM569 0l-72 184h-357l-71 -184h-43l265 680h55l266 -680h-43zM154 220h329l-164 422z" />
    <glyph glyph-name="Acircumflex" unicode="&#xc2;" horiz-adv-x="637" 
d="M319 813l-92 -85h-33l97 103h54l97 -103h-32zM569 0l-72 184h-357l-71 -184h-43l265 680h55l266 -680h-43zM154 220h329l-164 422z" />
    <glyph glyph-name="Atilde" unicode="&#xc3;" horiz-adv-x="637" 
d="M244 802q-28 0 -44.5 -23t-16.5 -59h-28q0 48 25 79.5t66 31.5q35 0 53 -17t32 -34q12 -17 25 -28.5t38 -11.5q27 0 43.5 22.5t16.5 58.5h28q0 -48 -24.5 -79.5t-65.5 -31.5q-35 0 -52.5 16.5t-30.5 33.5t-26 29.5t-39 12.5zM569 0l-72 184h-357l-71 -184h-43l265 680h55
l266 -680h-43zM154 220h329l-164 422z" />
    <glyph glyph-name="Adieresis" unicode="&#xc4;" horiz-adv-x="637" 
d="M244 737q-16 0 -27.5 11.5t-11.5 26.5q0 17 11.5 28t27.5 11q15 0 26.5 -11t11.5 -28q0 -15 -11.5 -26.5t-26.5 -11.5zM395 737q-16 0 -27.5 11.5t-11.5 26.5q0 17 11.5 28t27.5 11q15 0 26.5 -11t11.5 -28q0 -15 -11.5 -26.5t-26.5 -11.5zM569 0l-72 184h-357l-71 -184
h-43l265 680h55l266 -680h-43zM154 220h329l-164 422z" />
    <glyph glyph-name="Aring" unicode="&#xc5;" horiz-adv-x="637" 
d="M319 702q-22 0 -42 8.5t-35 22.5t-23.5 34t-8.5 42q0 23 8.5 42.5t23 33.5t34.5 22.5t43 8.5q22 0 41.5 -8.5t34 -22.5t23 -33.5t8.5 -42.5q0 -22 -8.5 -42t-23 -34t-34 -22.5t-41.5 -8.5zM319 888q-34 0 -57 -23t-23 -56t23.5 -56.5t56.5 -23.5q32 0 55.5 23.5
t23.5 56.5t-23.5 56t-55.5 23zM569 0l-72 184h-357l-71 -184h-43l265 680h55l266 -680h-43zM154 220h329l-164 422z" />
    <glyph glyph-name="AE" unicode="&#xc6;" horiz-adv-x="819" 
d="M26 0l265 680h487v-37h-315v-284h278v-38h-278v-283h315v-38h-355v184h-282l-72 -184h-43zM154 220h269v423h-104z" />
    <glyph glyph-name="Ccedilla" unicode="&#xc7;" horiz-adv-x="729" 
d="M392 28q88 0 154.5 39.5t101.5 109.5l38 -16q-40 -78 -113.5 -124t-170.5 -48l-40 -78q8 2 15 3t14 1q35 0 55.5 -19t20.5 -51q0 -35 -23 -56.5t-59 -21.5q-27 0 -47 10.5t-31 28.5l26 13q17 -24 51 -24q25 0 39.5 13.5t14.5 36.5q0 22 -14 33.5t-37 11.5t-40 -10l-25 13
l49 97q-70 3 -128.5 30t-99.5 73.5t-64 109.5t-23 138q0 78 24.5 142.5t69 110.5t106 71.5t136.5 25.5q101 0 177 -45.5t117 -126.5l-38 -15q-35 69 -101.5 108.5t-154.5 39.5q-66 0 -120.5 -22.5t-93 -63.5t-60 -98t-21.5 -127t21.5 -127.5t60 -99t93 -64t120.5 -22.5z" />
    <glyph glyph-name="Egrave" unicode="&#xc8;" horiz-adv-x="482" 
d="M287 710h-33l-89 121h44zM440 643h-313v-284h278v-38h-278v-283h313v-38h-354v680h354v-37z" />
    <glyph glyph-name="Eacute" unicode="&#xc9;" horiz-adv-x="482" 
d="M375 831l-88 -121h-34l78 121h44zM440 643h-313v-284h278v-38h-278v-283h313v-38h-354v680h354v-37z" />
    <glyph glyph-name="Ecircumflex" unicode="&#xca;" horiz-adv-x="482" 
d="M270 813l-92 -85h-33l97 103h54l97 -103h-32zM440 643h-313v-284h278v-38h-278v-283h313v-38h-354v680h354v-37z" />
    <glyph glyph-name="Edieresis" unicode="&#xcb;" horiz-adv-x="482" 
d="M195 737q-16 0 -27.5 11.5t-11.5 26.5q0 17 11.5 28t27.5 11q15 0 26.5 -11t11.5 -28q0 -15 -11.5 -26.5t-26.5 -11.5zM346 737q-16 0 -27.5 11.5t-11.5 26.5q0 17 11.5 28t27.5 11q15 0 26.5 -11t11.5 -28q0 -15 -11.5 -26.5t-26.5 -11.5zM440 643h-313v-284h278v-38
h-278v-283h313v-38h-354v680h354v-37z" />
    <glyph glyph-name="Igrave" unicode="&#xcc;" horiz-adv-x="213" 
d="M90 710l-89 121h44l78 -121h-33zM86 0v680h41v-680h-41z" />
    <glyph glyph-name="Iacute" unicode="&#xcd;" horiz-adv-x="213" 
d="M90 710l78 121h44l-88 -121h-34zM86 0v680h41v-680h-41z" />
    <glyph glyph-name="Icircumflex" unicode="&#xce;" horiz-adv-x="213" 
d="M-18 728l97 103h54l97 -103h-32l-91 85l-92 -85h-33zM86 0v680h41v-680h-41z" />
    <glyph glyph-name="Idieresis" unicode="&#xcf;" horiz-adv-x="213" 
d="M31 737q-16 0 -27.5 11.5t-11.5 26.5q0 17 11.5 28t27.5 11q15 0 26.5 -11t11.5 -28q0 -15 -11.5 -26.5t-26.5 -11.5zM182 737q-16 0 -27.5 11.5t-11.5 26.5q0 17 11.5 28t27.5 11q15 0 26.5 -11t11.5 -28q0 -15 -11.5 -26.5t-26.5 -11.5zM86 0v680h41v-680h-41z" />
    <glyph glyph-name="Eth" unicode="&#xd0;" horiz-adv-x="663" 
d="M500 609q105 -82 105 -268t-105 -270q-86 -71 -263 -71h-152v326h-81v30h81v324h152q177 0 263 -71zM473 101q91 73 91 240q0 165 -91 238q-39 32 -97 48t-139 16h-111v-287h159v-30h-159v-288h111q81 0 139 15.5t97 47.5z" />
    <glyph glyph-name="Ntilde" unicode="&#xd1;" horiz-adv-x="692" 
d="M276 802q-28 0 -44.5 -23t-16.5 -59h-28q0 48 25 79.5t66 31.5q35 0 53 -17t32 -34q12 -17 25 -28.5t38 -11.5q27 0 43.5 22.5t16.5 58.5h28q0 -48 -24.5 -79.5t-65.5 -31.5q-35 0 -52.5 16.5t-30.5 33.5t-26 29.5t-39 12.5zM565 680h40v-680h-55l-423 634v-634h-41v680
h56l423 -634v634z" />
    <glyph glyph-name="Ograve" unicode="&#xd2;" horiz-adv-x="784" 
d="M375 710l-89 121h44l78 -121h-33zM392 -11q-75 0 -136.5 25.5t-106 72t-69 111.5t-24.5 143t24.5 142.5t69 110.5t106 71.5t136.5 25.5q74 0 136 -25.5t106 -71.5t68.5 -110.5t24.5 -142.5t-24.5 -143t-68.5 -111.5t-106 -72t-136 -25.5zM392 28q66 0 120 22.5t92.5 64
t60 99t21.5 127.5t-21.5 127t-60 98t-92.5 63.5t-120 22.5t-120.5 -22.5t-93 -63.5t-60 -98t-21.5 -127t21.5 -127.5t60 -99t93 -64t120.5 -22.5z" />
    <glyph glyph-name="Oacute" unicode="&#xd3;" horiz-adv-x="784" 
d="M375 710l78 121h44l-88 -121h-34zM392 -11q-75 0 -136.5 25.5t-106 72t-69 111.5t-24.5 143t24.5 142.5t69 110.5t106 71.5t136.5 25.5q74 0 136 -25.5t106 -71.5t68.5 -110.5t24.5 -142.5t-24.5 -143t-68.5 -111.5t-106 -72t-136 -25.5zM392 28q66 0 120 22.5t92.5 64
t60 99t21.5 127.5t-21.5 127t-60 98t-92.5 63.5t-120 22.5t-120.5 -22.5t-93 -63.5t-60 -98t-21.5 -127t21.5 -127.5t60 -99t93 -64t120.5 -22.5z" />
    <glyph glyph-name="Ocircumflex" unicode="&#xd4;" horiz-adv-x="784" 
d="M267 728l97 103h54l97 -103h-32l-91 85l-92 -85h-33zM392 -11q-75 0 -136.5 25.5t-106 72t-69 111.5t-24.5 143t24.5 142.5t69 110.5t106 71.5t136.5 25.5q74 0 136 -25.5t106 -71.5t68.5 -110.5t24.5 -142.5t-24.5 -143t-68.5 -111.5t-106 -72t-136 -25.5zM392 28
q66 0 120 22.5t92.5 64t60 99t21.5 127.5t-21.5 127t-60 98t-92.5 63.5t-120 22.5t-120.5 -22.5t-93 -63.5t-60 -98t-21.5 -127t21.5 -127.5t60 -99t93 -64t120.5 -22.5z" />
    <glyph glyph-name="Otilde" unicode="&#xd5;" horiz-adv-x="784" 
d="M465 710q-35 0 -52.5 16.5t-30.5 33.5t-26 29.5t-39 12.5q-28 0 -44.5 -23t-16.5 -59h-28q0 48 25 79.5t66 31.5q35 0 53 -17t32 -34q12 -17 25 -28.5t38 -11.5q27 0 43.5 22.5t16.5 58.5h28q0 -48 -24.5 -79.5t-65.5 -31.5zM392 -11q-75 0 -136.5 25.5t-106 72
t-69 111.5t-24.5 143t24.5 142.5t69 110.5t106 71.5t136.5 25.5q74 0 136 -25.5t106 -71.5t68.5 -110.5t24.5 -142.5t-24.5 -143t-68.5 -111.5t-106 -72t-136 -25.5zM392 28q66 0 120 22.5t92.5 64t60 99t21.5 127.5t-21.5 127t-60 98t-92.5 63.5t-120 22.5t-120.5 -22.5
t-93 -63.5t-60 -98t-21.5 -127t21.5 -127.5t60 -99t93 -64t120.5 -22.5z" />
    <glyph glyph-name="Odieresis" unicode="&#xd6;" horiz-adv-x="784" 
d="M316 737q-16 0 -27.5 11.5t-11.5 26.5q0 17 11.5 28t27.5 11q15 0 26.5 -11t11.5 -28q0 -15 -11.5 -26.5t-26.5 -11.5zM467 737q-16 0 -27.5 11.5t-11.5 26.5q0 17 11.5 28t27.5 11q15 0 26.5 -11t11.5 -28q0 -15 -11.5 -26.5t-26.5 -11.5zM392 -11q-75 0 -136.5 25.5
t-106 72t-69 111.5t-24.5 143t24.5 142.5t69 110.5t106 71.5t136.5 25.5q74 0 136 -25.5t106 -71.5t68.5 -110.5t24.5 -142.5t-24.5 -143t-68.5 -111.5t-106 -72t-136 -25.5zM392 28q66 0 120 22.5t92.5 64t60 99t21.5 127.5t-21.5 127t-60 98t-92.5 63.5t-120 22.5
t-120.5 -22.5t-93 -63.5t-60 -98t-21.5 -127t21.5 -127.5t60 -99t93 -64t120.5 -22.5z" />
    <glyph glyph-name="multiply" unicode="&#xd7;" horiz-adv-x="453" 
d="M77 62l-24 24l150 150l-150 149l24 24l150 -149l149 149l24 -24l-149 -149l149 -150l-24 -24l-149 150z" />
    <glyph glyph-name="Oslash" unicode="&#xd8;" horiz-adv-x="784" 
d="M604 621q58 -46 90.5 -117.5t32.5 -162.5q0 -78 -24.5 -143t-68.5 -111.5t-106 -72t-136 -25.5q-110 0 -190 54l-67 -96l-23 15l68 97q-59 47 -91.5 119t-32.5 163q0 78 24.5 142.5t69 110.5t106 71.5t136.5 25.5q108 0 190 -54l67 97l23 -15zM97 341q0 -81 27.5 -144
t77.5 -105l357 513q-35 23 -77 35t-90 12q-66 0 -120.5 -22.5t-93 -63.5t-60 -98t-21.5 -127zM392 28q66 0 120 22.5t92.5 64t60 99t21.5 127.5q0 80 -27.5 143t-77.5 104l-357 -512q73 -48 168 -48z" />
    <glyph glyph-name="Ugrave" unicode="&#xd9;" horiz-adv-x="649" 
d="M308 710l-89 121h44l78 -121h-33zM324 -11q-54 0 -99.5 17t-78 48.5t-50.5 75.5t-18 99v451h41v-448q0 -47 15 -84.5t42 -64t64.5 -41t83.5 -14.5t84 14.5t65 41t42 64t15 84.5v448h40v-451q0 -55 -18 -99t-50.5 -75.5t-78 -48.5t-99.5 -17z" />
    <glyph glyph-name="Uacute" unicode="&#xda;" horiz-adv-x="649" 
d="M307 710l78 121h44l-88 -121h-34zM324 -11q-54 0 -99.5 17t-78 48.5t-50.5 75.5t-18 99v451h41v-448q0 -47 15 -84.5t42 -64t64.5 -41t83.5 -14.5t84 14.5t65 41t42 64t15 84.5v448h40v-451q0 -55 -18 -99t-50.5 -75.5t-78 -48.5t-99.5 -17z" />
    <glyph glyph-name="Ucircumflex" unicode="&#xdb;" horiz-adv-x="649" 
d="M200 728l97 103h54l97 -103h-32l-91 85l-92 -85h-33zM324 -11q-54 0 -99.5 17t-78 48.5t-50.5 75.5t-18 99v451h41v-448q0 -47 15 -84.5t42 -64t64.5 -41t83.5 -14.5t84 14.5t65 41t42 64t15 84.5v448h40v-451q0 -55 -18 -99t-50.5 -75.5t-78 -48.5t-99.5 -17z" />
    <glyph glyph-name="Udieresis" unicode="&#xdc;" horiz-adv-x="649" 
d="M249 737q-16 0 -27.5 11.5t-11.5 26.5q0 17 11.5 28t27.5 11q15 0 26.5 -11t11.5 -28q0 -15 -11.5 -26.5t-26.5 -11.5zM400 737q-16 0 -27.5 11.5t-11.5 26.5q0 17 11.5 28t27.5 11q15 0 26.5 -11t11.5 -28q0 -15 -11.5 -26.5t-26.5 -11.5zM324 -11q-54 0 -99.5 17
t-78 48.5t-50.5 75.5t-18 99v451h41v-448q0 -47 15 -84.5t42 -64t64.5 -41t83.5 -14.5t84 14.5t65 41t42 64t15 84.5v448h40v-451q0 -55 -18 -99t-50.5 -75.5t-78 -48.5t-99.5 -17z" />
    <glyph glyph-name="Yacute" unicode="&#xdd;" horiz-adv-x="555" 
d="M382 831l-88 -121h-34l78 121h44zM535 680l-238 -365v-315h-40v315l-238 365h45l213 -327l213 327h45z" />
    <glyph glyph-name="Thorn" unicode="&#xde;" horiz-adv-x="574" 
d="M457 548q35 -26 53 -68t18 -97q0 -63 -24 -110t-71 -73q-29 -14 -63.5 -19.5t-82.5 -5.5h-161v-175h-41v680h41v-91h161q60 0 100.5 -9.5t69.5 -31.5zM412 233q75 41 75 149q0 96 -59 138q-24 18 -59 25t-86 7h-157v-341h157q45 0 75.5 5t53.5 17z" />
    <glyph glyph-name="germandbls" unicode="&#xdf;" horiz-adv-x="596" 
d="M379 -10q-75 0 -126.5 36.5t-62.5 99.5l36 9q9 -53 49.5 -82.5t102.5 -29.5q61 0 97 28.5t36 79.5q0 30 -12 49t-31.5 31t-44 19t-50.5 13q-25 6 -48.5 13t-41.5 18.5t-28.5 29t-10.5 44.5q0 24 9.5 42.5t24.5 33t34.5 26.5t38.5 23q21 12 41 25t35 29t24.5 35.5
t9.5 44.5q0 118 -151 118q-106 0 -149 -57t-43 -174v-494h-39v498q0 139 57 200.5t174 61.5q91 0 140 -40t49 -115q0 -33 -11.5 -57.5t-30 -43t-41 -32.5t-44.5 -26q-36 -22 -62 -42.5t-26 -53.5q0 -18 8 -29.5t21.5 -19.5t32.5 -13.5t40 -10.5q30 -7 59 -16t52 -24.5
t37.5 -40t14.5 -62.5q0 -69 -46.5 -106.5t-123.5 -37.5z" />
    <glyph glyph-name="agrave" unicode="&#xe0;" horiz-adv-x="492" 
d="M266 533h-33l-107 147h46zM477 35v-35h-26q-68 0 -68 72v36h-4q-23 -57 -68 -87.5t-111 -30.5t-104 32.5t-38 92.5q0 65 45 101t130 50l114 18q14 3 22.5 10t8.5 20q0 66 -35 100t-100 34q-121 0 -136 -109l-40 4q11 69 55.5 104t120.5 35q84 0 129 -44.5t45 -126.5v-225
q0 -28 9.5 -39.5t32.5 -11.5h18zM206 25q85 0 129 60t44 173l-141 -23q-141 -22 -141 -118q0 -45 28.5 -68.5t80.5 -23.5z" />
    <glyph glyph-name="aacute" unicode="&#xe1;" horiz-adv-x="492" 
d="M359 680l-106 -147h-34l95 147h45zM477 35v-35h-26q-68 0 -68 72v36h-4q-23 -57 -68 -87.5t-111 -30.5t-104 32.5t-38 92.5q0 65 45 101t130 50l114 18q14 3 22.5 10t8.5 20q0 66 -35 100t-100 34q-121 0 -136 -109l-40 4q11 69 55.5 104t120.5 35q84 0 129 -44.5
t45 -126.5v-225q0 -28 9.5 -39.5t32.5 -11.5h18zM206 25q85 0 129 60t44 173l-141 -23q-141 -22 -141 -118q0 -45 28.5 -68.5t80.5 -23.5z" />
    <glyph glyph-name="acircumflex" unicode="&#xe2;" horiz-adv-x="492" 
d="M242 655l-87 -122h-33l96 147h47l96 -147h-32zM477 35v-35h-26q-68 0 -68 72v36h-4q-23 -57 -68 -87.5t-111 -30.5t-104 32.5t-38 92.5q0 65 45 101t130 50l114 18q14 3 22.5 10t8.5 20q0 66 -35 100t-100 34q-121 0 -136 -109l-40 4q11 69 55.5 104t120.5 35
q84 0 129 -44.5t45 -126.5v-225q0 -28 9.5 -39.5t32.5 -11.5h18zM206 25q85 0 129 60t44 173l-141 -23q-141 -22 -141 -118q0 -45 28.5 -68.5t80.5 -23.5z" />
    <glyph glyph-name="atilde" unicode="&#xe3;" horiz-adv-x="492" 
d="M167 624q-28 0 -44.5 -22.5t-16.5 -58.5h-28q0 48 25 79t66 31q35 0 53 -16.5t32 -33.5q12 -17 25 -29t38 -12q27 0 43.5 23t16.5 59h28q0 -48 -24.5 -79.5t-65.5 -31.5q-35 0 -52.5 16.5t-30.5 33.5t-26 29t-39 12zM477 35v-35h-26q-68 0 -68 72v36h-4
q-23 -57 -68 -87.5t-111 -30.5t-104 32.5t-38 92.5q0 65 45 101t130 50l114 18q14 3 22.5 10t8.5 20q0 66 -35 100t-100 34q-121 0 -136 -109l-40 4q11 69 55.5 104t120.5 35q84 0 129 -44.5t45 -126.5v-225q0 -28 9.5 -39.5t32.5 -11.5h18zM206 25q85 0 129 60t44 173
l-141 -23q-141 -22 -141 -118q0 -45 28.5 -68.5t80.5 -23.5z" />
    <glyph glyph-name="adieresis" unicode="&#xe4;" horiz-adv-x="492" 
d="M167 618q-16 0 -27.5 11t-11.5 27q0 17 11.5 27.5t27.5 10.5q15 0 26.5 -10.5t11.5 -27.5q0 -16 -11.5 -27t-26.5 -11zM318 618q-16 0 -27.5 11t-11.5 27q0 17 11.5 27.5t27.5 10.5q15 0 26.5 -10.5t11.5 -27.5q0 -16 -11.5 -27t-26.5 -11zM477 35v-35h-26q-68 0 -68 72
v36h-4q-23 -57 -68 -87.5t-111 -30.5t-104 32.5t-38 92.5q0 65 45 101t130 50l114 18q14 3 22.5 10t8.5 20q0 66 -35 100t-100 34q-121 0 -136 -109l-40 4q11 69 55.5 104t120.5 35q84 0 129 -44.5t45 -126.5v-225q0 -28 9.5 -39.5t32.5 -11.5h18zM206 25q85 0 129 60
t44 173l-141 -23q-141 -22 -141 -118q0 -45 28.5 -68.5t80.5 -23.5z" />
    <glyph glyph-name="aring" unicode="&#xe5;" horiz-adv-x="492" 
d="M244 541q-22 0 -42 8.5t-34.5 23t-23 33.5t-8.5 41t8.5 41t23 33.5t34 22.5t42.5 8q22 0 41 -8t33.5 -22.5t22.5 -33.5t8 -41t-8 -41t-22.5 -33.5t-33.5 -23t-41 -8.5zM244 725q-34 0 -56.5 -23t-22.5 -55t23 -55.5t56 -23.5q31 0 54 23.5t23 55.5t-22.5 55t-54.5 23z
M477 35v-35h-26q-68 0 -68 72v36h-4q-23 -57 -68 -87.5t-111 -30.5t-104 32.5t-38 92.5q0 65 45 101t130 50l114 18q14 3 22.5 10t8.5 20q0 66 -35 100t-100 34q-121 0 -136 -109l-40 4q11 69 55.5 104t120.5 35q84 0 129 -44.5t45 -126.5v-225q0 -28 9.5 -39.5t32.5 -11.5
h18zM206 25q85 0 129 60t44 173l-141 -23q-141 -22 -141 -118q0 -45 28.5 -68.5t80.5 -23.5z" />
    <glyph glyph-name="ae" unicode="&#xe6;" horiz-adv-x="887" 
d="M834 227h-416q1 -45 15.5 -82t40 -64t60 -41.5t74.5 -14.5q57 0 100.5 28t66.5 78l37 -8q-26 -62 -79.5 -97.5t-124.5 -35.5q-77 0 -133 40.5t-80 109.5q-13 -42 -35 -70.5t-48 -46.5t-54.5 -25.5t-56.5 -7.5q-66 0 -104.5 32.5t-38.5 92.5q0 65 45 101t130 50l114 18
q31 6 31 30q0 67 -35.5 101t-100.5 34q-122 0 -137 -110l-38 4q22 138 176 138q65 0 108.5 -28.5t57.5 -87.5q29 54 80.5 85.5t117.5 31.5q49 0 90.5 -17.5t72 -50t47.5 -77.5t17 -100v-10zM608 447q-39 0 -72.5 -13.5t-58 -38t-40 -59t-18.5 -76.5h375q-3 42 -17.5 76.5
t-39.5 59t-57.5 38t-71.5 13.5zM383 186q-2 12 -3 24.5t-1 25.5v13t1 12l-1 -1l-139 -23q-143 -22 -143 -118q0 -46 28.5 -70t81.5 -24q26 0 53 8.5t51 28t42.5 51t25.5 78.5z" />
    <glyph glyph-name="ccedilla" unicode="&#xe7;" horiz-adv-x="545" 
d="M286 25q62 0 107 32.5t65 88.5l37 -6q-22 -67 -75 -107t-125 -43l-40 -79q8 2 15 3t14 1q35 0 55.5 -19t20.5 -51q0 -35 -23 -56.5t-59 -21.5q-27 0 -47 10.5t-31 28.5l26 13q17 -24 51 -24q25 0 39.5 13.5t14.5 36.5q0 22 -14 33.5t-37 11.5t-40 -10l-25 13l49 98
q-46 4 -84 23.5t-65.5 52t-43 75.5t-15.5 94q0 54 17 99t47.5 77.5t73 51t92.5 18.5q76 0 131 -40.5t78 -109.5l-37 -6q-20 56 -65 88.5t-107 32.5q-42 0 -76.5 -15.5t-60 -43.5t-39.5 -67t-14 -85t14 -85t39.5 -67t60 -43.5t76.5 -15.5z" />
    <glyph glyph-name="egrave" unicode="&#xe8;" horiz-adv-x="565" 
d="M308 533h-33l-107 147h46zM511 227h-415q1 -45 15.5 -82t40 -64t60 -41.5t74.5 -14.5q57 0 100.5 28t66.5 78l37 -8q-27 -62 -80.5 -97.5t-123.5 -35.5q-50 0 -92.5 18t-73 51t-47.5 78t-17 99t17 99t47.5 78t72.5 51t92 18q49 0 90.5 -17.5t72 -50t47.5 -77.5t17 -100z
M285 447q-39 0 -72.5 -13.5t-58 -38t-39.5 -59t-18 -76.5h375q-3 42 -17.5 76.5t-39.5 59t-58 38t-72 13.5z" />
    <glyph glyph-name="eacute" unicode="&#xe9;" horiz-adv-x="565" 
d="M400 680l-106 -147h-34l95 147h45zM511 227h-415q1 -45 15.5 -82t40 -64t60 -41.5t74.5 -14.5q57 0 100.5 28t66.5 78l37 -8q-27 -62 -80.5 -97.5t-123.5 -35.5q-50 0 -92.5 18t-73 51t-47.5 78t-17 99t17 99t47.5 78t72.5 51t92 18q49 0 90.5 -17.5t72 -50t47.5 -77.5
t17 -100zM285 447q-39 0 -72.5 -13.5t-58 -38t-39.5 -59t-18 -76.5h375q-3 42 -17.5 76.5t-39.5 59t-58 38t-72 13.5z" />
    <glyph glyph-name="ecircumflex" unicode="&#xea;" horiz-adv-x="565" 
d="M284 655l-87 -122h-33l96 147h47l96 -147h-32zM511 227h-415q1 -45 15.5 -82t40 -64t60 -41.5t74.5 -14.5q57 0 100.5 28t66.5 78l37 -8q-27 -62 -80.5 -97.5t-123.5 -35.5q-50 0 -92.5 18t-73 51t-47.5 78t-17 99t17 99t47.5 78t72.5 51t92 18q49 0 90.5 -17.5t72 -50
t47.5 -77.5t17 -100zM285 447q-39 0 -72.5 -13.5t-58 -38t-39.5 -59t-18 -76.5h375q-3 42 -17.5 76.5t-39.5 59t-58 38t-72 13.5z" />
    <glyph glyph-name="edieresis" unicode="&#xeb;" horiz-adv-x="565" 
d="M209 618q-16 0 -27.5 11t-11.5 27q0 17 11.5 27.5t27.5 10.5q15 0 26.5 -10.5t11.5 -27.5q0 -16 -11.5 -27t-26.5 -11zM360 618q-16 0 -27.5 11t-11.5 27q0 17 11.5 27.5t27.5 10.5q15 0 26.5 -10.5t11.5 -27.5q0 -16 -11.5 -27t-26.5 -11zM511 227h-415q1 -45 15.5 -82
t40 -64t60 -41.5t74.5 -14.5q57 0 100.5 28t66.5 78l37 -8q-27 -62 -80.5 -97.5t-123.5 -35.5q-50 0 -92.5 18t-73 51t-47.5 78t-17 99t17 99t47.5 78t72.5 51t92 18q49 0 90.5 -17.5t72 -50t47.5 -77.5t17 -100zM285 447q-39 0 -72.5 -13.5t-58 -38t-39.5 -59t-18 -76.5
h375q-3 42 -17.5 76.5t-39.5 59t-58 38t-72 13.5z" />
    <glyph glyph-name="igrave" unicode="&#xec;" horiz-adv-x="197" 
d="M89 533l-107 147h46l94 -147h-33zM78 0v472h40v-472h-40z" />
    <glyph glyph-name="iacute" unicode="&#xed;" horiz-adv-x="197" 
d="M74 533l95 147h45l-106 -147h-34zM78 0v472h40v-472h-40z" />
    <glyph glyph-name="icircumflex" unicode="&#xee;" horiz-adv-x="197" 
d="M-22 533l96 147h47l96 -147h-32l-87 122l-87 -122h-33zM78 0v472h40v-472h-40z" />
    <glyph glyph-name="idieresis" unicode="&#xef;" horiz-adv-x="197" 
d="M23 618q-16 0 -27.5 11t-11.5 27q0 17 11.5 27.5t27.5 10.5q15 0 26.5 -10.5t11.5 -27.5q0 -16 -11.5 -27t-26.5 -11zM174 618q-16 0 -27.5 11t-11.5 27q0 17 11.5 27.5t27.5 10.5q15 0 26.5 -10.5t11.5 -27.5q0 -16 -11.5 -27t-26.5 -11zM78 0v472h40v-472h-40z" />
    <glyph glyph-name="eth" unicode="&#xf0;" horiz-adv-x="663" 
d="M502 403q25 -33 41 -74.5t16 -92.5q0 -54 -17 -99t-48 -78t-73.5 -51t-92.5 -18t-92 18t-73 51t-48 78t-17 99t17.5 99t48 78t73 51t92.5 18q44 0 81 -17l-115 155l-146 -38l-6 21l138 36l-82 111h47l75 -101l144 37l6 -20l-137 -36zM328 25q42 0 77 15.5t60.5 43.5
t39.5 67t14 85q0 44 -14 82.5t-39 67t-60 45t-78 16.5q-42 0 -76.5 -15.5t-60 -43.5t-39.5 -67t-14 -85t14 -85t39.5 -67t60 -43.5t76.5 -15.5z" />
    <glyph glyph-name="ntilde" unicode="&#xf1;" horiz-adv-x="511" 
d="M178 624q-28 0 -44.5 -22.5t-16.5 -58.5h-28q0 48 25 79t66 31q35 0 53 -16.5t32 -33.5q12 -17 25 -29t38 -12q27 0 43.5 23t16.5 59h28q0 -48 -24.5 -79.5t-65.5 -31.5q-35 0 -52.5 16.5t-30.5 33.5t-26 29t-39 12zM268 482q81 0 125 -46t44 -127v-309h-40v304
q0 69 -35.5 106t-100.5 37q-63 0 -102.5 -43.5t-39.5 -120.5v-283h-40v472h40v-77q22 42 60 64.5t89 22.5z" />
    <glyph glyph-name="ograve" unicode="&#xf2;" horiz-adv-x="574" 
d="M277 533l-107 147h46l94 -147h-33zM287 -10q-50 0 -92.5 18t-73 51t-48 78t-17.5 99t17.5 99t48 77.5t73 51t92.5 18.5t92 -18.5t73 -51t48 -77.5t17 -99t-17 -99t-48 -78t-73 -51t-92 -18zM287 25q42 0 76.5 15.5t60 43.5t39.5 67t14 85t-14 85t-39.5 67t-60 43.5
t-76.5 15.5t-77 -15.5t-60.5 -43.5t-39.5 -67t-14 -85t14 -85t39.5 -67t60.5 -43.5t77 -15.5z" />
    <glyph glyph-name="oacute" unicode="&#xf3;" horiz-adv-x="574" 
d="M263 533l95 147h45l-106 -147h-34zM287 -10q-50 0 -92.5 18t-73 51t-48 78t-17.5 99t17.5 99t48 77.5t73 51t92.5 18.5t92 -18.5t73 -51t48 -77.5t17 -99t-17 -99t-48 -78t-73 -51t-92 -18zM287 25q42 0 76.5 15.5t60 43.5t39.5 67t14 85t-14 85t-39.5 67t-60 43.5
t-76.5 15.5t-77 -15.5t-60.5 -43.5t-39.5 -67t-14 -85t14 -85t39.5 -67t60.5 -43.5t77 -15.5z" />
    <glyph glyph-name="ocircumflex" unicode="&#xf4;" horiz-adv-x="574" 
d="M167 533l96 147h47l96 -147h-32l-87 122l-87 -122h-33zM287 -10q-50 0 -92.5 18t-73 51t-48 78t-17.5 99t17.5 99t48 77.5t73 51t92.5 18.5t92 -18.5t73 -51t48 -77.5t17 -99t-17 -99t-48 -78t-73 -51t-92 -18zM287 25q42 0 76.5 15.5t60 43.5t39.5 67t14 85t-14 85
t-39.5 67t-60 43.5t-76.5 15.5t-77 -15.5t-60.5 -43.5t-39.5 -67t-14 -85t14 -85t39.5 -67t60.5 -43.5t77 -15.5z" />
    <glyph glyph-name="otilde" unicode="&#xf5;" horiz-adv-x="574" 
d="M360 533q-35 0 -52.5 16.5t-30.5 33.5t-26 29t-39 12q-28 0 -44.5 -22.5t-16.5 -58.5h-28q0 48 25 79t66 31q35 0 53 -16.5t32 -33.5q12 -17 25 -29t38 -12q27 0 43.5 23t16.5 59h28q0 -48 -24.5 -79.5t-65.5 -31.5zM287 -10q-50 0 -92.5 18t-73 51t-48 78t-17.5 99
t17.5 99t48 77.5t73 51t92.5 18.5t92 -18.5t73 -51t48 -77.5t17 -99t-17 -99t-48 -78t-73 -51t-92 -18zM287 25q42 0 76.5 15.5t60 43.5t39.5 67t14 85t-14 85t-39.5 67t-60 43.5t-76.5 15.5t-77 -15.5t-60.5 -43.5t-39.5 -67t-14 -85t14 -85t39.5 -67t60.5 -43.5t77 -15.5z
" />
    <glyph glyph-name="odieresis" unicode="&#xf6;" horiz-adv-x="574" 
d="M212 618q-16 0 -27.5 11t-11.5 27q0 17 11.5 27.5t27.5 10.5q15 0 26.5 -10.5t11.5 -27.5q0 -16 -11.5 -27t-26.5 -11zM363 618q-16 0 -27.5 11t-11.5 27q0 17 11.5 27.5t27.5 10.5q15 0 26.5 -10.5t11.5 -27.5q0 -16 -11.5 -27t-26.5 -11zM287 -10q-50 0 -92.5 18
t-73 51t-48 78t-17.5 99t17.5 99t48 77.5t73 51t92.5 18.5t92 -18.5t73 -51t48 -77.5t17 -99t-17 -99t-48 -78t-73 -51t-92 -18zM287 25q42 0 76.5 15.5t60 43.5t39.5 67t14 85t-14 85t-39.5 67t-60 43.5t-76.5 15.5t-77 -15.5t-60.5 -43.5t-39.5 -67t-14 -85t14 -85
t39.5 -67t60.5 -43.5t77 -15.5z" />
    <glyph glyph-name="divide" unicode="&#xf7;" horiz-adv-x="607" 
d="M303 384q-15 0 -26 10.5t-11 26.5q0 15 11 26t26 11q14 0 25.5 -11t11.5 -26q0 -16 -11.5 -26.5t-25.5 -10.5zM53 219v34h500v-34h-500zM303 15q-15 0 -26 10.5t-11 26.5q0 14 11 25t26 11q14 0 25.5 -11t11.5 -25q0 -16 -11.5 -26.5t-25.5 -10.5z" />
    <glyph glyph-name="oslash" unicode="&#xf8;" horiz-adv-x="574" 
d="M437 427q38 -33 59 -82t21 -109q0 -54 -17 -99t-48 -78t-73 -51t-92 -18q-74 0 -129 38l-58 -84l-23 16l59 85q-38 32 -59 81.5t-21 109.5q0 54 17.5 99t48 77.5t73 51t92.5 18.5q37 0 69 -10t59 -28l60 85l22 -16zM96 236q0 -50 16.5 -91t45.5 -69l236 338
q-46 33 -107 33q-42 0 -77 -15.5t-60.5 -43.5t-39.5 -67t-14 -85zM287 25q42 0 76.5 15.5t60 43.5t39.5 67t14 85q0 50 -16.5 90.5t-45.5 69.5l-236 -338q47 -33 108 -33z" />
    <glyph glyph-name="ugrave" unicode="&#xf9;" horiz-adv-x="510" 
d="M275 533h-33l-107 147h46zM391 472h39v-472h-39v77q-22 -42 -60.5 -64.5t-89.5 -22.5q-81 0 -124.5 45.5t-43.5 127.5v309h39v-304q0 -69 36 -106t101 -37q63 0 102 43.5t40 119.5v284z" />
    <glyph glyph-name="uacute" unicode="&#xfa;" horiz-adv-x="510" 
d="M368 680l-106 -147h-34l95 147h45zM391 472h39v-472h-39v77q-22 -42 -60.5 -64.5t-89.5 -22.5q-81 0 -124.5 45.5t-43.5 127.5v309h39v-304q0 -69 36 -106t101 -37q63 0 102 43.5t40 119.5v284z" />
    <glyph glyph-name="ucircumflex" unicode="&#xfb;" horiz-adv-x="510" 
d="M252 655l-87 -122h-33l96 147h47l96 -147h-32zM391 472h39v-472h-39v77q-22 -42 -60.5 -64.5t-89.5 -22.5q-81 0 -124.5 45.5t-43.5 127.5v309h39v-304q0 -69 36 -106t101 -37q63 0 102 43.5t40 119.5v284z" />
    <glyph glyph-name="udieresis" unicode="&#xfc;" horiz-adv-x="510" 
d="M177 618q-16 0 -27.5 11t-11.5 27q0 17 11.5 27.5t27.5 10.5q15 0 26.5 -10.5t11.5 -27.5q0 -16 -11.5 -27t-26.5 -11zM328 618q-16 0 -27.5 11t-11.5 27q0 17 11.5 27.5t27.5 10.5q15 0 26.5 -10.5t11.5 -27.5q0 -16 -11.5 -27t-26.5 -11zM391 472h39v-472h-39v77
q-22 -42 -60.5 -64.5t-89.5 -22.5q-81 0 -124.5 45.5t-43.5 127.5v309h39v-304q0 -69 36 -106t101 -37q63 0 102 43.5t40 119.5v284z" />
    <glyph glyph-name="yacute" unicode="&#xfd;" horiz-adv-x="495" 
d="M364 680l-106 -147h-34l95 147h45zM420 472h43l-296 -715h-44l104 247l-195 468h43l173 -423z" />
    <glyph glyph-name="thorn" unicode="&#xfe;" horiz-adv-x="595" 
d="M312 482q48 0 89.5 -18t71.5 -51t47 -78.5t17 -99.5t-17 -99t-47 -77.5t-71.5 -50.5t-89.5 -18q-67 0 -118 34t-76 92v-359h-39v993h39v-395q25 58 76 92.5t118 34.5zM307 25q42 0 76.5 15.5t60 43.5t39.5 66.5t14 84.5q0 47 -14 85.5t-39.5 66.5t-60 43.5t-76.5 15.5
q-41 0 -76 -15.5t-60.5 -43.5t-39.5 -66.5t-14 -85.5q0 -46 14 -84.5t39.5 -66.5t60.5 -43.5t76 -15.5z" />
    <glyph glyph-name="ydieresis" unicode="&#xff;" horiz-adv-x="495" 
d="M173 618q-16 0 -27.5 11t-11.5 27q0 17 11.5 27.5t27.5 10.5q15 0 26.5 -10.5t11.5 -27.5q0 -16 -11.5 -27t-26.5 -11zM324 618q-16 0 -27.5 11t-11.5 27q0 17 11.5 27.5t27.5 10.5q15 0 26.5 -10.5t11.5 -27.5q0 -16 -11.5 -27t-26.5 -11zM420 472h43l-296 -715h-44
l104 247l-195 468h43l173 -423z" />
    <glyph glyph-name="Amacron" unicode="&#x100;" horiz-adv-x="637" 
d="M475 795v-32h-313v32h313zM569 0l-72 184h-357l-71 -184h-43l265 680h55l266 -680h-43zM154 220h329l-164 422z" />
    <glyph glyph-name="amacron" unicode="&#x101;" horiz-adv-x="492" 
d="M349 613v-32h-213v32h213zM477 35v-35h-26q-68 0 -68 72v36h-4q-23 -57 -68 -87.5t-111 -30.5t-104 32.5t-38 92.5q0 65 45 101t130 50l114 18q14 3 22.5 10t8.5 20q0 66 -35 100t-100 34q-121 0 -136 -109l-40 4q11 69 55.5 104t120.5 35q84 0 129 -44.5t45 -126.5v-225
q0 -28 9.5 -39.5t32.5 -11.5h18zM206 25q85 0 129 60t44 173l-141 -23q-141 -22 -141 -118q0 -45 28.5 -68.5t80.5 -23.5z" />
    <glyph glyph-name="Abreve" unicode="&#x102;" horiz-adv-x="637" 
d="M317 719q-65 0 -106 26.5t-51 85.5h32q9 -45 41 -64.5t84 -19.5q54 0 86 19.5t41 64.5h32q-11 -59 -52 -85.5t-107 -26.5zM569 0l-72 184h-357l-71 -184h-43l265 680h55l266 -680h-43zM154 220h329l-164 422z" />
    <glyph glyph-name="abreve" unicode="&#x103;" horiz-adv-x="492" 
d="M242 523q-75 0 -118 41t-43 116h33q0 -60 33.5 -94t94.5 -34q62 0 95 34t33 94h34q0 -75 -43.5 -116t-118.5 -41zM477 35v-35h-26q-68 0 -68 72v36h-4q-23 -57 -68 -87.5t-111 -30.5t-104 32.5t-38 92.5q0 65 45 101t130 50l114 18q14 3 22.5 10t8.5 20q0 66 -35 100
t-100 34q-121 0 -136 -109l-40 4q11 69 55.5 104t120.5 35q84 0 129 -44.5t45 -126.5v-225q0 -28 9.5 -39.5t32.5 -11.5h18zM206 25q85 0 129 60t44 173l-141 -23q-141 -22 -141 -118q0 -45 28.5 -68.5t80.5 -23.5z" />
    <glyph glyph-name="Aogonek" unicode="&#x104;" horiz-adv-x="637" 
d="M494 -131q0 -21 18.5 -33t50.5 -12q12 0 24.5 1.5t24.5 6.5v-32q-14 -3 -27 -5t-27 -2q-42 0 -69 18.5t-27 50.5q0 35 30 72.5t77 66.5l-72 183h-357l-71 -184h-43l265 680h55l266 -680q-25 -12 -46.5 -28t-37.5 -33.5t-25 -35.5t-9 -34zM154 220h329l-164 422z" />
    <glyph glyph-name="aogonek" unicode="&#x105;" horiz-adv-x="492" 
d="M477 0q-25 -12 -46.5 -28t-37.5 -33.5t-25 -35.5t-9 -34q0 -21 18.5 -33t50.5 -12q12 0 24.5 1.5t24.5 6.5v-32q-14 -3 -27 -5t-27 -2q-42 0 -69 18.5t-27 50.5q0 35 30 72.5t77 66.5q-51 9 -51 71v36h-4q-23 -57 -68 -87.5t-111 -30.5t-104 32.5t-38 92.5q0 65 45 101
t130 50l114 18q14 3 22.5 10t8.5 20q0 66 -35 100t-100 34q-121 0 -136 -109l-40 4q11 69 55.5 104t120.5 35q84 0 129 -44.5t45 -126.5v-225q0 -28 9.5 -39.5t32.5 -11.5h18v-35zM206 25q85 0 129 60t44 173l-141 -23q-141 -22 -141 -118q0 -45 28.5 -68.5t80.5 -23.5z" />
    <glyph glyph-name="Cacute" unicode="&#x106;" horiz-adv-x="729" 
d="M375 710l78 121h44l-88 -121h-34zM392 -11q-75 0 -136.5 25.5t-106 72t-69 111.5t-24.5 143t24.5 142.5t69 110.5t106 71.5t136.5 25.5q101 0 177 -45.5t117 -126.5l-38 -15q-35 69 -101.5 108.5t-154.5 39.5q-66 0 -120.5 -22.5t-93 -63.5t-60 -98t-21.5 -127
t21.5 -127.5t60 -99t93 -64t120.5 -22.5q88 0 154.5 39.5t101.5 109.5l38 -16q-41 -80 -117 -126t-177 -46z" />
    <glyph glyph-name="cacute" unicode="&#x107;" horiz-adv-x="545" 
d="M261 533l95 147h45l-106 -147h-34zM286 -10q-50 0 -92.5 18.5t-73 51t-47.5 77.5t-17 99t17 99t47.5 77.5t73 51t92.5 18.5q76 0 131 -40.5t78 -109.5l-37 -6q-20 56 -65 88.5t-107 32.5q-42 0 -76.5 -15.5t-60 -43.5t-39.5 -67t-14 -85t14 -85t39.5 -67t60 -43.5
t76.5 -15.5q62 0 107 32.5t65 88.5l37 -6q-23 -69 -78.5 -109.5t-130.5 -40.5z" />
    <glyph glyph-name="Cdotaccent" unicode="&#x10a;" horiz-adv-x="729" 
d="M392 737q-16 0 -27.5 11.5t-11.5 26.5q0 17 11.5 28t27.5 11q15 0 26.5 -11t11.5 -28q0 -15 -11.5 -26.5t-26.5 -11.5zM392 -11q-75 0 -136.5 25.5t-106 72t-69 111.5t-24.5 143t24.5 142.5t69 110.5t106 71.5t136.5 25.5q101 0 177 -45.5t117 -126.5l-38 -15
q-35 69 -101.5 108.5t-154.5 39.5q-66 0 -120.5 -22.5t-93 -63.5t-60 -98t-21.5 -127t21.5 -127.5t60 -99t93 -64t120.5 -22.5q88 0 154.5 39.5t101.5 109.5l38 -16q-41 -80 -117 -126t-177 -46z" />
    <glyph glyph-name="cdotaccent" unicode="&#x10b;" horiz-adv-x="545" 
d="M285 618q-16 0 -27.5 11t-11.5 27q0 17 11.5 27.5t27.5 10.5q15 0 26.5 -10.5t11.5 -27.5q0 -16 -11.5 -27t-26.5 -11zM286 -10q-50 0 -92.5 18.5t-73 51t-47.5 77.5t-17 99t17 99t47.5 77.5t73 51t92.5 18.5q76 0 131 -40.5t78 -109.5l-37 -6q-20 56 -65 88.5t-107 32.5
q-42 0 -76.5 -15.5t-60 -43.5t-39.5 -67t-14 -85t14 -85t39.5 -67t60 -43.5t76.5 -15.5q62 0 107 32.5t65 88.5l37 -6q-23 -69 -78.5 -109.5t-130.5 -40.5z" />
    <glyph glyph-name="Ccaron" unicode="&#x10c;" horiz-adv-x="729" 
d="M364 728l-97 103h33l92 -85l91 85h32l-97 -103h-54zM392 -11q-75 0 -136.5 25.5t-106 72t-69 111.5t-24.5 143t24.5 142.5t69 110.5t106 71.5t136.5 25.5q101 0 177 -45.5t117 -126.5l-38 -15q-35 69 -101.5 108.5t-154.5 39.5q-66 0 -120.5 -22.5t-93 -63.5t-60 -98
t-21.5 -127t21.5 -127.5t60 -99t93 -64t120.5 -22.5q88 0 154.5 39.5t101.5 109.5l38 -16q-41 -80 -117 -126t-177 -46z" />
    <glyph glyph-name="ccaron" unicode="&#x10d;" horiz-adv-x="545" 
d="M261 533l-96 147h33l87 -121l87 121h32l-96 -147h-47zM286 -10q-50 0 -92.5 18.5t-73 51t-47.5 77.5t-17 99t17 99t47.5 77.5t73 51t92.5 18.5q76 0 131 -40.5t78 -109.5l-37 -6q-20 56 -65 88.5t-107 32.5q-42 0 -76.5 -15.5t-60 -43.5t-39.5 -67t-14 -85t14 -85
t39.5 -67t60 -43.5t76.5 -15.5q62 0 107 32.5t65 88.5l37 -6q-23 -69 -78.5 -109.5t-130.5 -40.5z" />
    <glyph glyph-name="Dcaron" unicode="&#x10e;" horiz-adv-x="663" 
d="M233 728l-97 103h33l92 -85l91 85h32l-97 -103h-54zM85 0v680h152q177 0 263 -71q105 -82 105 -268t-105 -270q-86 -71 -263 -71h-152zM126 38h111q81 0 139 15.5t97 47.5q91 73 91 240q0 165 -91 238q-39 32 -97 48t-139 16h-111v-605z" />
    <glyph glyph-name="dcaron" unicode="&#x10f;" horiz-adv-x="724" 
d="M475 750h40v-750h-38l-2 114q-25 -57 -76 -90.5t-118 -33.5q-48 0 -89.5 18t-71.5 50.5t-47 78t-17 99.5t17 99t47 78t71.5 51t89.5 18q67 0 117.5 -33.5t76.5 -90.5v392zM671 680h41l-67 -296h-33zM286 26q42 0 76.5 15.5t60 43t39.5 66.5t14 85t-14 84.5t-39.5 66.5
t-60 43.5t-76.5 15.5q-41 0 -76 -15.5t-60.5 -43.5t-39.5 -66.5t-14 -84.5t14 -85t39.5 -66.5t60.5 -43t76 -15.5z" />
    <glyph glyph-name="Dcroat" unicode="&#x110;" horiz-adv-x="663" 
d="M500 609q105 -82 105 -268t-105 -270q-86 -71 -263 -71h-152v326h-81v30h81v324h152q177 0 263 -71zM473 101q91 73 91 240q0 165 -91 238q-39 32 -97 48t-139 16h-111v-287h159v-30h-159v-288h111q81 0 139 15.5t97 47.5z" />
    <glyph glyph-name="dcroat" unicode="&#x111;" horiz-adv-x="595" 
d="M605 618v-30h-90v-588h-40v113q-26 -57 -76.5 -90t-117.5 -33q-48 0 -89.5 18t-71.5 50.5t-47 78t-17 99.5t17 99t47 78t71.5 51t89.5 18q67 0 117.5 -33.5t76.5 -90.5v230h-151v30h151v132h40v-132h90zM286 26q42 0 76.5 15.5t60 43t39.5 66.5t14 85t-14 84.5
t-39.5 66.5t-60 43.5t-76.5 15.5q-41 0 -76 -15.5t-60.5 -43.5t-39.5 -66.5t-14 -84.5t14 -85t39.5 -66.5t60.5 -43t76 -15.5z" />
    <glyph glyph-name="Emacron" unicode="&#x112;" horiz-adv-x="482" 
d="M426 795v-32h-313v32h313zM440 643h-313v-284h278v-38h-278v-283h313v-38h-354v680h354v-37z" />
    <glyph glyph-name="emacron" unicode="&#x113;" horiz-adv-x="565" 
d="M391 613v-32h-213v32h213zM511 227h-415q1 -45 15.5 -82t40 -64t60 -41.5t74.5 -14.5q57 0 100.5 28t66.5 78l37 -8q-27 -62 -80.5 -97.5t-123.5 -35.5q-50 0 -92.5 18t-73 51t-47.5 78t-17 99t17 99t47.5 78t72.5 51t92 18q49 0 90.5 -17.5t72 -50t47.5 -77.5t17 -100z
M285 447q-39 0 -72.5 -13.5t-58 -38t-39.5 -59t-18 -76.5h375q-3 42 -17.5 76.5t-39.5 59t-58 38t-72 13.5z" />
    <glyph glyph-name="Ebreve" unicode="&#x114;" horiz-adv-x="482" 
d="M269 719q-65 0 -106 26.5t-51 85.5h32q9 -45 41 -64.5t84 -19.5q54 0 86 19.5t41 64.5h32q-11 -59 -52 -85.5t-107 -26.5zM440 643h-313v-284h278v-38h-278v-283h313v-38h-354v680h354v-37z" />
    <glyph glyph-name="ebreve" unicode="&#x115;" horiz-adv-x="565" 
d="M283 523q-75 0 -118 41t-43 116h33q0 -60 33.5 -94t94.5 -34q62 0 95 34t33 94h34q0 -75 -43.5 -116t-118.5 -41zM511 227h-415q1 -45 15.5 -82t40 -64t60 -41.5t74.5 -14.5q57 0 100.5 28t66.5 78l37 -8q-27 -62 -80.5 -97.5t-123.5 -35.5q-50 0 -92.5 18t-73 51
t-47.5 78t-17 99t17 99t47.5 78t72.5 51t92 18q49 0 90.5 -17.5t72 -50t47.5 -77.5t17 -100zM285 447q-39 0 -72.5 -13.5t-58 -38t-39.5 -59t-18 -76.5h375q-3 42 -17.5 76.5t-39.5 59t-58 38t-72 13.5z" />
    <glyph glyph-name="Edotaccent" unicode="&#x116;" horiz-adv-x="482" 
d="M270 737q-16 0 -27.5 11.5t-11.5 26.5q0 17 11.5 28t27.5 11q15 0 26.5 -11t11.5 -28q0 -15 -11.5 -26.5t-26.5 -11.5zM440 643h-313v-284h278v-38h-278v-283h313v-38h-354v680h354v-37z" />
    <glyph glyph-name="edotaccent" unicode="&#x117;" horiz-adv-x="565" 
d="M285 618q-16 0 -27.5 11t-11.5 27q0 17 11.5 27.5t27.5 10.5q15 0 26.5 -10.5t11.5 -27.5q0 -16 -11.5 -27t-26.5 -11zM511 227h-415q1 -45 15.5 -82t40 -64t60 -41.5t74.5 -14.5q57 0 100.5 28t66.5 78l37 -8q-27 -62 -80.5 -97.5t-123.5 -35.5q-50 0 -92.5 18t-73 51
t-47.5 78t-17 99t17 99t47.5 78t72.5 51t92 18q49 0 90.5 -17.5t72 -50t47.5 -77.5t17 -100zM285 447q-39 0 -72.5 -13.5t-58 -38t-39.5 -59t-18 -76.5h375q-3 42 -17.5 76.5t-39.5 59t-58 38t-72 13.5z" />
    <glyph glyph-name="Eogonek" unicode="&#x118;" horiz-adv-x="482" 
d="M440 643h-313v-284h278v-38h-278v-283h313v-38q-25 -12 -46.5 -28t-37.5 -33.5t-25 -35.5t-9 -34q0 -21 18.5 -33t50.5 -12q12 0 24.5 1.5t24.5 6.5v-32q-14 -3 -27 -5t-27 -2q-42 0 -69 18.5t-27 50.5q0 34 29.5 71.5t75.5 66.5h-309v680h354v-37z" />
    <glyph glyph-name="eogonek" unicode="&#x119;" horiz-adv-x="565" 
d="M511 227h-415q1 -45 15.5 -82t40 -64t60 -41.5t74.5 -14.5q57 0 100.5 28t66.5 78l37 -8q-20 -46 -55 -77.5t-82 -45.5q-25 -12 -46 -28t-37 -33.5t-25 -35.5t-9 -34q0 -21 18.5 -33t50.5 -12q12 0 24.5 1.5t24.5 6.5v-32q-14 -3 -27 -5t-27 -2q-42 0 -69 18.5t-27 50.5
t25 66t65 62h-8q-50 0 -92.5 18t-73 51t-47.5 78t-17 99t17 99t47.5 78t72.5 51t92 18q49 0 90.5 -17.5t72 -50t47.5 -77.5t17 -100zM285 447q-39 0 -72.5 -13.5t-58 -38t-39.5 -59t-18 -76.5h375q-3 42 -17.5 76.5t-39.5 59t-58 38t-72 13.5z" />
    <glyph glyph-name="Ecaron" unicode="&#x11a;" horiz-adv-x="482" 
d="M296 728h-54l-97 103h33l92 -85l91 85h32zM440 643h-313v-284h278v-38h-278v-283h313v-38h-354v680h354v-37z" />
    <glyph glyph-name="ecaron" unicode="&#x11b;" horiz-adv-x="565" 
d="M307 533h-47l-96 147h33l87 -121l87 121h32zM511 227h-415q1 -45 15.5 -82t40 -64t60 -41.5t74.5 -14.5q57 0 100.5 28t66.5 78l37 -8q-27 -62 -80.5 -97.5t-123.5 -35.5q-50 0 -92.5 18t-73 51t-47.5 78t-17 99t17 99t47.5 78t72.5 51t92 18q49 0 90.5 -17.5t72 -50
t47.5 -77.5t17 -100zM285 447q-39 0 -72.5 -13.5t-58 -38t-39.5 -59t-18 -76.5h375q-3 42 -17.5 76.5t-39.5 59t-58 38t-72 13.5z" />
    <glyph glyph-name="Gcircumflex" unicode="&#x11c;" horiz-adv-x="771" 
d="M263 728l97 103h54l97 -103h-32l-91 85l-92 -85h-33zM390 -11q-74 0 -135.5 25.5t-105.5 72t-68.5 111.5t-24.5 143t24.5 142.5t69 110.5t106 71.5t136.5 25.5q98 0 173 -43.5t117 -120.5l-36 -18q-37 67 -102.5 105t-151.5 38q-66 0 -120.5 -22.5t-93 -63.5t-60 -98
t-21.5 -127t21 -127.5t60 -99t93.5 -64t120.5 -22.5q61 0 109 19.5t82.5 55.5t55 86.5t25.5 113.5h-271v36h312v-339h-36v183q-31 -90 -101.5 -142t-177.5 -52z" />
    <glyph glyph-name="gcircumflex" unicode="&#x11d;" horiz-adv-x="592" 
d="M287 655l-87 -122h-33l96 147h47l96 -147h-32zM473 472h40v-476q0 -118 -60.5 -182t-163.5 -64q-81 0 -136.5 40t-81.5 106l35 16q22 -59 68.5 -93.5t113.5 -34.5q88 0 136.5 55.5t48.5 154.5v126q-24 -57 -74.5 -91.5t-119.5 -34.5q-48 0 -89 18t-70.5 50.5t-46.5 77
t-17 98.5q0 53 17 98t46.5 77.5t70.5 50.5t89 18q69 0 119.5 -34.5t74.5 -91.5v116zM285 29q41 0 76 15.5t60 43.5t39 66t14 84q0 45 -14 83.5t-39 66.5t-60 43.5t-76 15.5q-42 0 -76.5 -15.5t-60 -43.5t-39.5 -66.5t-14 -83.5q0 -46 14 -84t39.5 -66t60.5 -43.5t76 -15.5z
" />
    <glyph glyph-name="Gbreve" unicode="&#x11e;" horiz-adv-x="771" 
d="M386 719q-65 0 -106 26.5t-51 85.5h32q9 -45 41 -64.5t84 -19.5q54 0 86 19.5t41 64.5h32q-11 -59 -52 -85.5t-107 -26.5zM390 -11q-74 0 -135.5 25.5t-105.5 72t-68.5 111.5t-24.5 143t24.5 142.5t69 110.5t106 71.5t136.5 25.5q98 0 173 -43.5t117 -120.5l-36 -18
q-37 67 -102.5 105t-151.5 38q-66 0 -120.5 -22.5t-93 -63.5t-60 -98t-21.5 -127t21 -127.5t60 -99t93.5 -64t120.5 -22.5q61 0 109 19.5t82.5 55.5t55 86.5t25.5 113.5h-271v36h312v-339h-36v183q-31 -90 -101.5 -142t-177.5 -52z" />
    <glyph glyph-name="gbreve" unicode="&#x11f;" horiz-adv-x="592" 
d="M286 523q-75 0 -118 41t-43 116h33q0 -60 33.5 -94t94.5 -34q62 0 95 34t33 94h34q0 -75 -43.5 -116t-118.5 -41zM473 472h40v-476q0 -118 -60.5 -182t-163.5 -64q-81 0 -136.5 40t-81.5 106l35 16q22 -59 68.5 -93.5t113.5 -34.5q88 0 136.5 55.5t48.5 154.5v126
q-24 -57 -74.5 -91.5t-119.5 -34.5q-48 0 -89 18t-70.5 50.5t-46.5 77t-17 98.5q0 53 17 98t46.5 77.5t70.5 50.5t89 18q69 0 119.5 -34.5t74.5 -91.5v116zM285 29q41 0 76 15.5t60 43.5t39 66t14 84q0 45 -14 83.5t-39 66.5t-60 43.5t-76 15.5q-42 0 -76.5 -15.5t-60 -43.5
t-39.5 -66.5t-14 -83.5q0 -46 14 -84t39.5 -66t60.5 -43.5t76 -15.5z" />
    <glyph glyph-name="Gdotaccent" unicode="&#x120;" horiz-adv-x="771" 
d="M388 737q-16 0 -27.5 11.5t-11.5 26.5q0 17 11.5 28t27.5 11q15 0 26.5 -11t11.5 -28q0 -15 -11.5 -26.5t-26.5 -11.5zM390 -11q-74 0 -135.5 25.5t-105.5 72t-68.5 111.5t-24.5 143t24.5 142.5t69 110.5t106 71.5t136.5 25.5q98 0 173 -43.5t117 -120.5l-36 -18
q-37 67 -102.5 105t-151.5 38q-66 0 -120.5 -22.5t-93 -63.5t-60 -98t-21.5 -127t21 -127.5t60 -99t93.5 -64t120.5 -22.5q61 0 109 19.5t82.5 55.5t55 86.5t25.5 113.5h-271v36h312v-339h-36v183q-31 -90 -101.5 -142t-177.5 -52z" />
    <glyph glyph-name="gdotaccent" unicode="&#x121;" horiz-adv-x="592" 
d="M288 618q-16 0 -27.5 11t-11.5 27q0 17 11.5 27.5t27.5 10.5q15 0 26.5 -10.5t11.5 -27.5q0 -16 -11.5 -27t-26.5 -11zM473 472h40v-476q0 -118 -60.5 -182t-163.5 -64q-81 0 -136.5 40t-81.5 106l35 16q22 -59 68.5 -93.5t113.5 -34.5q88 0 136.5 55.5t48.5 154.5v126
q-24 -57 -74.5 -91.5t-119.5 -34.5q-48 0 -89 18t-70.5 50.5t-46.5 77t-17 98.5q0 53 17 98t46.5 77.5t70.5 50.5t89 18q69 0 119.5 -34.5t74.5 -91.5v116zM285 29q41 0 76 15.5t60 43.5t39 66t14 84q0 45 -14 83.5t-39 66.5t-60 43.5t-76 15.5q-42 0 -76.5 -15.5t-60 -43.5
t-39.5 -66.5t-14 -83.5q0 -46 14 -84t39.5 -66t60.5 -43.5t76 -15.5z" />
    <glyph glyph-name="uni0122" unicode="&#x122;" horiz-adv-x="771" 
d="M390 -11q-74 0 -135.5 25.5t-105.5 72t-68.5 111.5t-24.5 143t24.5 142.5t69 110.5t106 71.5t136.5 25.5q98 0 173 -43.5t117 -120.5l-36 -18q-37 67 -102.5 105t-151.5 38q-66 0 -120.5 -22.5t-93 -63.5t-60 -98t-21.5 -127t21 -127.5t60 -99t93.5 -64t120.5 -22.5
q61 0 109 19.5t82.5 55.5t55 86.5t25.5 113.5h-271v36h312v-339h-36v183q-31 -90 -101.5 -142t-177.5 -52zM270 -177l96 147h41l-107 -147h-30z" />
    <glyph glyph-name="uni0123" unicode="&#x123;" horiz-adv-x="592" 
d="M403 680l-96 -147h-41l107 147h30zM473 472h40v-476q0 -118 -60.5 -182t-163.5 -64q-81 0 -136.5 40t-81.5 106l35 16q22 -59 68.5 -93.5t113.5 -34.5q88 0 136.5 55.5t48.5 154.5v126q-24 -57 -74.5 -91.5t-119.5 -34.5q-48 0 -89 18t-70.5 50.5t-46.5 77t-17 98.5
q0 53 17 98t46.5 77.5t70.5 50.5t89 18q69 0 119.5 -34.5t74.5 -91.5v116zM285 29q41 0 76 15.5t60 43.5t39 66t14 84q0 45 -14 83.5t-39 66.5t-60 43.5t-76 15.5q-42 0 -76.5 -15.5t-60 -43.5t-39.5 -66.5t-14 -83.5q0 -46 14 -84t39.5 -66t60.5 -43.5t76 -15.5z" />
    <glyph glyph-name="Hcircumflex" unicode="&#x124;" horiz-adv-x="670" 
d="M211 728l97 103h54l97 -103h-32l-91 85l-92 -85h-33zM86 0v680h41v-320h416v320h41v-680h-41v322h-416v-322h-41z" />
    <glyph glyph-name="hcircumflex" unicode="&#x125;" horiz-adv-x="511" 
d="M256 883l-92 -85h-33l97 103h54l97 -103h-32zM269 482q79 0 123 -46t44 -130v-306h-40v303q0 70 -35.5 107t-100.5 37q-63 0 -102.5 -43t-39.5 -121v-283h-39v750h39v-356q22 42 60.5 65t90.5 23z" />
    <glyph glyph-name="Hbar" unicode="&#x126;" horiz-adv-x="670" 
d="M655 543v-26h-71v-517h-41v322h-416v-322h-41v517h-71v26h71v137h41v-137h416v137h41v-137h71zM543 360v157h-416v-157h416z" />
    <glyph glyph-name="hbar" unicode="&#x127;" horiz-adv-x="511" 
d="M269 482q79 0 123 -46t44 -130v-306h-40v303q0 70 -35.5 107t-100.5 37q-63 0 -102.5 -43t-39.5 -121v-283h-39v589h-69v30h69v131h39v-131h173v-30h-173v-195q22 42 60.5 65t90.5 23z" />
    <glyph glyph-name="Itilde" unicode="&#x128;" horiz-adv-x="213" 
d="M179 710q-35 0 -52.5 16.5t-30.5 33.5t-26 29.5t-39 12.5q-28 0 -44.5 -23t-16.5 -59h-28q0 48 25 79.5t66 31.5q35 0 53 -17t32 -34q12 -17 25 -28.5t38 -11.5q27 0 43.5 22.5t16.5 58.5h28q0 -48 -24.5 -79.5t-65.5 -31.5zM86 0v680h41v-680h-41z" />
    <glyph glyph-name="itilde" unicode="&#x129;" horiz-adv-x="197" 
d="M171 533q-35 0 -52.5 16.5t-30.5 33.5t-26 29t-39 12q-28 0 -44.5 -22.5t-16.5 -58.5h-28q0 48 25 79t66 31q35 0 53 -16.5t32 -33.5q12 -17 25 -29t38 -12q27 0 43.5 23t16.5 59h28q0 -48 -24.5 -79.5t-65.5 -31.5zM78 0v472h40v-472h-40z" />
    <glyph glyph-name="Imacron" unicode="&#x12a;" horiz-adv-x="213" 
d="M-50 763v32h313v-32h-313zM86 0v680h41v-680h-41z" />
    <glyph glyph-name="imacron" unicode="&#x12b;" horiz-adv-x="197" 
d="M-8 581v32h213v-32h-213zM78 0v472h40v-472h-40z" />
    <glyph glyph-name="Ibreve" unicode="&#x12c;" horiz-adv-x="213" 
d="M105 719q-65 0 -106.5 26.5t-50.5 85.5h31q10 -45 42 -64.5t84 -19.5q54 0 86 19.5t41 64.5h32q-11 -59 -52 -85.5t-107 -26.5zM86 0v680h41v-680h-41z" />
    <glyph glyph-name="ibreve" unicode="&#x12d;" horiz-adv-x="197" 
d="M97 523q-75 0 -118 41t-43 116h33q0 -60 33.5 -94t94.5 -34q62 0 95 34t33 94h34q0 -75 -43.5 -116t-118.5 -41zM78 0v472h40v-472h-40z" />
    <glyph glyph-name="Iogonek" unicode="&#x12e;" horiz-adv-x="213" 
d="M127 0q-25 -12 -46.5 -28t-37.5 -33.5t-25 -35.5t-9 -34q0 -21 18.5 -33t50.5 -12q12 0 24.5 1.5t24.5 6.5v-32q-14 -3 -27 -5t-27 -2q-42 0 -69 18.5t-27 50.5q0 35 30.5 73.5t78.5 67.5v677h41v-680z" />
    <glyph glyph-name="iogonek" unicode="&#x12f;" horiz-adv-x="197" 
d="M99 694q15 0 26.5 -10.5t11.5 -27.5q0 -16 -11.5 -27t-26.5 -11q-16 0 -27.5 11t-11.5 27q0 17 11.5 27.5t27.5 10.5zM78 472h40v-472q-25 -12 -46.5 -28t-37.5 -33.5t-25 -35.5t-9 -34q0 -21 18.5 -33t50.5 -12q12 0 24.5 1.5t24.5 6.5v-32q-14 -3 -27 -5t-27 -2
q-42 0 -69 18.5t-27 50.5q0 35 31 73.5t79 67.5v469z" />
    <glyph glyph-name="Idotaccent" unicode="&#x130;" horiz-adv-x="213" 
d="M107 737q-16 0 -27.5 11.5t-11.5 26.5q0 17 11.5 28t27.5 11q15 0 26.5 -11t11.5 -28q0 -15 -11.5 -26.5t-26.5 -11.5zM86 0v680h41v-680h-41z" />
    <glyph glyph-name="dotlessi" unicode="&#x131;" horiz-adv-x="197" 
d="M78 0v472h40v-472h-40z" />
    <glyph glyph-name="IJ" unicode="&#x132;" horiz-adv-x="611" 
d="M86 0v680h41v-680h-41zM360 -11q-32 0 -65.5 10t-62.5 28l19 33q23 -14 51 -23t55 -9q60 0 95 40.5t35 111.5v500h41v-505q0 -42 -12 -76.5t-34.5 -58.5t-53 -37.5t-68.5 -13.5z" />
    <glyph glyph-name="ij" unicode="&#x133;" horiz-adv-x="390" 
d="M99 618q-16 0 -27.5 11t-11.5 27q0 17 11.5 27.5t27.5 10.5q15 0 26.5 -10.5t11.5 -27.5q0 -16 -11.5 -27t-26.5 -11zM291 618q-16 0 -27.5 11t-11.5 27q0 17 11.5 27.5t27.5 10.5q15 0 26.5 -10.5t11.5 -27.5q0 -16 -11.5 -27t-26.5 -11zM78 0v472h40v-472h-40z
M133 -209q41 0 67.5 8.5t42 29.5t22 55.5t6.5 86.5v501h39v-501q0 -59 -9 -100t-29.5 -66.5t-54.5 -36.5t-84 -11v34z" />
    <glyph glyph-name="Jcircumflex" unicode="&#x134;" horiz-adv-x="398" 
d="M170 728l97 103h54l97 -103h-32l-91 85l-92 -85h-33zM147 -11q-32 0 -65.5 10t-62.5 28l19 33q23 -14 51 -23t55 -9q60 0 95 40.5t35 111.5v500h41v-505q0 -42 -12 -76.5t-34.5 -58.5t-53 -37.5t-68.5 -13.5z" />
    <glyph glyph-name="jcircumflex" unicode="&#x135;" horiz-adv-x="193" 
d="M-27 533l96 147h47l96 -147h-32l-87 122l-87 -122h-33zM-64 -209q40 0 67 8.5t42.5 29.5t22 55.5t6.5 86.5v501h39v-501q0 -59 -9 -100t-29.5 -66.5t-54.5 -36.5t-84 -11v34z" />
    <glyph glyph-name="uni0136" unicode="&#x136;" horiz-adv-x="582" 
d="M239 357l318 -357h-53l-300 336h-77v-336h-41v680h41v-306h76l286 306h51zM171 -177l96 147h41l-107 -147h-30z" />
    <glyph glyph-name="uni0137" unicode="&#x137;" horiz-adv-x="480" 
d="M196 250l252 -250h-51l-236 233h-43v-233h-39v750h39v-485h45l216 207h51zM120 -177l96 147h41l-107 -147h-30z" />
    <glyph glyph-name="kgreenlandic" unicode="&#x138;" horiz-adv-x="481" 
d="M197 250l252 -250h-51l-236 233h-43v-233h-40v472h40v-207h45l216 207h51z" />
    <glyph glyph-name="Lacute" unicode="&#x139;" horiz-adv-x="417" 
d="M90 710l78 121h44l-88 -121h-34zM86 0v680h41v-642h270v-38h-311z" />
    <glyph glyph-name="lacute" unicode="&#x13a;" horiz-adv-x="197" 
d="M74 812l95 147h45l-106 -147h-34zM79 0v750h39v-750h-39z" />
    <glyph glyph-name="uni013B" unicode="&#x13b;" horiz-adv-x="417" 
d="M86 0v680h41v-642h270v-38h-311zM95 -177l96 147h41l-107 -147h-30z" />
    <glyph glyph-name="uni013C" unicode="&#x13c;" horiz-adv-x="197" 
d="M79 0v750h39v-750h-39zM-19 -177l96 147h41l-107 -147h-30z" />
    <glyph glyph-name="Lcaron" unicode="&#x13d;" horiz-adv-x="481" 
d="M86 0v680h41v-642h270v-38h-311zM301 384l59 296h41l-67 -296h-33z" />
    <glyph glyph-name="lcaron" unicode="&#x13e;" horiz-adv-x="333" 
d="M79 0v750h39v-750h-39zM221 384l60 296h40l-66 -296h-34z" />
    <glyph glyph-name="Ldot" unicode="&#x13f;" horiz-adv-x="450" 
d="M86 0v680h41v-642h270v-38h-311zM375 301q-16 0 -27.5 11t-11.5 28q0 15 11.5 26.5t27.5 11.5q15 0 27 -11.5t12 -26.5q0 -17 -12 -28t-27 -11z" />
    <glyph glyph-name="ldot" unicode="&#x140;" horiz-adv-x="304" 
d="M79 0v750h39v-750h-39zM268 336q-16 0 -27.5 11t-11.5 28q0 16 11.5 27.5t27.5 11.5q15 0 27 -11.5t12 -27.5q0 -17 -12 -28t-27 -11z" />
    <glyph glyph-name="Lslash" unicode="&#x141;" horiz-adv-x="417" 
d="M127 38h270v-38h-311v316l-77 -58v41l77 58v323h41v-293l129 97v-40l-129 -97v-309z" />
    <glyph glyph-name="lslash" unicode="&#x142;" horiz-adv-x="197" 
d="M220 486v-40l-102 -77v-369h-39v340l-106 -80v41l106 79v370h39v-340z" />
    <glyph glyph-name="Nacute" unicode="&#x143;" horiz-adv-x="692" 
d="M456 831l-88 -121h-34l78 121h44zM565 680h40v-680h-55l-423 634v-634h-41v680h56l423 -634v634z" />
    <glyph glyph-name="nacute" unicode="&#x144;" horiz-adv-x="511" 
d="M369 680l-106 -147h-34l95 147h45zM268 482q81 0 125 -46t44 -127v-309h-40v304q0 69 -35.5 106t-100.5 37q-63 0 -102.5 -43.5t-39.5 -120.5v-283h-40v472h40v-77q22 42 60 64.5t89 22.5z" />
    <glyph glyph-name="uni0145" unicode="&#x145;" horiz-adv-x="692" 
d="M565 680h40v-680h-55l-423 634v-634h-41v680h56l423 -634v634zM234 -177l96 147h41l-107 -147h-30z" />
    <glyph glyph-name="uni0146" unicode="&#x146;" horiz-adv-x="511" 
d="M268 482q81 0 125 -46t44 -127v-309h-40v304q0 69 -35.5 106t-100.5 37q-63 0 -102.5 -43.5t-39.5 -120.5v-283h-40v472h40v-77q22 42 60 64.5t89 22.5zM136 -177l96 147h41l-107 -147h-30z" />
    <glyph glyph-name="Ncaron" unicode="&#x147;" horiz-adv-x="692" 
d="M378 728h-54l-97 103h33l92 -85l91 85h32zM565 680h40v-680h-55l-423 634v-634h-41v680h56l423 -634v634z" />
    <glyph glyph-name="ncaron" unicode="&#x148;" horiz-adv-x="511" 
d="M276 533h-47l-96 147h33l87 -121l87 121h32zM268 482q81 0 125 -46t44 -127v-309h-40v304q0 69 -35.5 106t-100.5 37q-63 0 -102.5 -43.5t-39.5 -120.5v-283h-40v472h40v-77q22 42 60 64.5t89 22.5z" />
    <glyph glyph-name="napostrophe" unicode="&#x149;" horiz-adv-x="636" 
d="M70 384l60 296h40l-66 -296h-34zM393 482q81 0 124.5 -46t43.5 -127v-309h-40v304q0 69 -35.5 106t-100.5 37q-63 0 -102.5 -43.5t-39.5 -120.5v-283h-39v472h39v-77q22 42 60.5 64.5t89.5 22.5z" />
    <glyph glyph-name="Eng" unicode="&#x14a;" horiz-adv-x="692" 
d="M565 680h40v-712q0 -58 -9.5 -98t-30 -65t-54 -36t-81.5 -11v35q38 0 63.5 8t40.5 27.5t21.5 52t6.5 81.5q0 18 -12 38l-423 633v-633h-41v680h56l423 -634v634z" />
    <glyph glyph-name="eng" unicode="&#x14b;" horiz-adv-x="511" 
d="M268 482q81 0 125 -46t44 -127v-338q0 -59 -9 -100t-29.5 -66.5t-54.5 -36.5t-84 -11v34q40 0 66.5 8.5t42 29.5t22 55.5t6.5 86.5v333q0 69 -35.5 106t-100.5 37q-63 0 -102.5 -43.5t-39.5 -120.5v-283h-40v472h40v-77q22 42 60 64.5t89 22.5z" />
    <glyph glyph-name="Omacron" unicode="&#x14c;" horiz-adv-x="784" 
d="M235 763v32h313v-32h-313zM392 -11q-75 0 -136.5 25.5t-106 72t-69 111.5t-24.5 143t24.5 142.5t69 110.5t106 71.5t136.5 25.5q74 0 136 -25.5t106 -71.5t68.5 -110.5t24.5 -142.5t-24.5 -143t-68.5 -111.5t-106 -72t-136 -25.5zM392 28q66 0 120 22.5t92.5 64t60 99
t21.5 127.5t-21.5 127t-60 98t-92.5 63.5t-120 22.5t-120.5 -22.5t-93 -63.5t-60 -98t-21.5 -127t21.5 -127.5t60 -99t93 -64t120.5 -22.5z" />
    <glyph glyph-name="omacron" unicode="&#x14d;" horiz-adv-x="574" 
d="M180 581v32h213v-32h-213zM287 -10q-50 0 -92.5 18t-73 51t-48 78t-17.5 99t17.5 99t48 77.5t73 51t92.5 18.5t92 -18.5t73 -51t48 -77.5t17 -99t-17 -99t-48 -78t-73 -51t-92 -18zM287 25q42 0 76.5 15.5t60 43.5t39.5 67t14 85t-14 85t-39.5 67t-60 43.5t-76.5 15.5
t-77 -15.5t-60.5 -43.5t-39.5 -67t-14 -85t14 -85t39.5 -67t60.5 -43.5t77 -15.5z" />
    <glyph glyph-name="Obreve" unicode="&#x14e;" horiz-adv-x="784" 
d="M390 719q-65 0 -106 26.5t-51 85.5h32q9 -45 41 -64.5t84 -19.5q54 0 86 19.5t41 64.5h32q-11 -59 -52 -85.5t-107 -26.5zM392 -11q-75 0 -136.5 25.5t-106 72t-69 111.5t-24.5 143t24.5 142.5t69 110.5t106 71.5t136.5 25.5q74 0 136 -25.5t106 -71.5t68.5 -110.5
t24.5 -142.5t-24.5 -143t-68.5 -111.5t-106 -72t-136 -25.5zM392 28q66 0 120 22.5t92.5 64t60 99t21.5 127.5t-21.5 127t-60 98t-92.5 63.5t-120 22.5t-120.5 -22.5t-93 -63.5t-60 -98t-21.5 -127t21.5 -127.5t60 -99t93 -64t120.5 -22.5z" />
    <glyph glyph-name="obreve" unicode="&#x14f;" horiz-adv-x="574" 
d="M286 523q-75 0 -118 41t-43 116h33q0 -60 33.5 -94t94.5 -34q62 0 95 34t33 94h34q0 -75 -43.5 -116t-118.5 -41zM287 -10q-50 0 -92.5 18t-73 51t-48 78t-17.5 99t17.5 99t48 77.5t73 51t92.5 18.5t92 -18.5t73 -51t48 -77.5t17 -99t-17 -99t-48 -78t-73 -51t-92 -18z
M287 25q42 0 76.5 15.5t60 43.5t39.5 67t14 85t-14 85t-39.5 67t-60 43.5t-76.5 15.5t-77 -15.5t-60.5 -43.5t-39.5 -67t-14 -85t14 -85t39.5 -67t60.5 -43.5t77 -15.5z" />
    <glyph glyph-name="Ohungarumlaut" unicode="&#x150;" horiz-adv-x="784" 
d="M309 710l80 121h42l-88 -121h-34zM439 710l80 121h42l-88 -121h-34zM392 -11q-75 0 -136.5 25.5t-106 72t-69 111.5t-24.5 143t24.5 142.5t69 110.5t106 71.5t136.5 25.5q74 0 136 -25.5t106 -71.5t68.5 -110.5t24.5 -142.5t-24.5 -143t-68.5 -111.5t-106 -72t-136 -25.5
zM392 28q66 0 120 22.5t92.5 64t60 99t21.5 127.5t-21.5 127t-60 98t-92.5 63.5t-120 22.5t-120.5 -22.5t-93 -63.5t-60 -98t-21.5 -127t21.5 -127.5t60 -99t93 -64t120.5 -22.5z" />
    <glyph glyph-name="ohungarumlaut" unicode="&#x151;" horiz-adv-x="574" 
d="M205 533l96 147h44l-106 -147h-34zM334 533l96 147h44l-106 -147h-34zM287 -10q-50 0 -92.5 18t-73 51t-48 78t-17.5 99t17.5 99t48 77.5t73 51t92.5 18.5t92 -18.5t73 -51t48 -77.5t17 -99t-17 -99t-48 -78t-73 -51t-92 -18zM287 25q42 0 76.5 15.5t60 43.5t39.5 67
t14 85t-14 85t-39.5 67t-60 43.5t-76.5 15.5t-77 -15.5t-60.5 -43.5t-39.5 -67t-14 -85t14 -85t39.5 -67t60.5 -43.5t77 -15.5z" />
    <glyph glyph-name="OE" unicode="&#x152;" horiz-adv-x="930" 
d="M424 0q-177 0 -263 71q-105 84 -105 270t105 268q86 71 263 71h464v-37h-312v-284h278v-38h-278v-283h312v-38h-464zM535 38v605h-111q-81 0 -139 -16t-97 -48q-91 -73 -91 -238q0 -167 91 -240q39 -32 97 -47.5t139 -15.5h111z" />
    <glyph glyph-name="oe" unicode="&#x153;" horiz-adv-x="987" 
d="M933 227h-415q1 -45 15.5 -82t40 -64t60 -41.5t74.5 -14.5q57 0 100.5 28t66.5 78l37 -8q-27 -62 -80.5 -97.5t-123.5 -35.5q-75 0 -130 38t-81 103q-26 -65 -81.5 -103t-128.5 -38q-50 0 -92.5 18t-73 51t-48 78t-17.5 99t17.5 99t48 77.5t73 51t92.5 18.5
q73 -1 128.5 -38.5t81.5 -102.5q26 65 81 103t129 38q49 0 90.5 -17.5t71.5 -50t47.5 -77.5t17.5 -100zM287 25q42 0 76.5 15.5t60 43.5t39.5 67t14 85t-14 85t-39.5 67t-60 43.5t-76.5 15.5t-77 -15.5t-60.5 -43.5t-39.5 -67t-14 -85t14 -85t39.5 -67t60.5 -43.5t77 -15.5z
M707 447q-39 0 -72.5 -13.5t-58 -38t-39.5 -59t-18 -76.5h375q-3 42 -17.5 76.5t-39.5 59t-58 38t-72 13.5z" />
    <glyph glyph-name="Racute" unicode="&#x154;" horiz-adv-x="595" 
d="M397 831l-88 -121h-34l78 121h44zM545 0h-51l-179 266h-27h-161v-266h-41v680h202q61 0 101 -9.5t69 -30.5q71 -54 71 -166q0 -63 -24 -110t-71 -73q-16 -8 -34 -13t-39 -8zM284 303q45 0 75.5 5t53.5 16q75 41 75 149q0 95 -59 139q-24 17 -59 24.5t-86 7.5h-157v-341
h157z" />
    <glyph glyph-name="racute" unicode="&#x155;" horiz-adv-x="344" 
d="M270 680l-106 -147h-34l95 147h45zM118 364q23 57 72.5 87.5t123.5 30.5v-39q-196 0 -196 -215v-228h-39v472h39v-108z" />
    <glyph glyph-name="uni0156" unicode="&#x156;" horiz-adv-x="595" 
d="M545 0h-51l-179 266h-27h-161v-266h-41v680h202q61 0 101 -9.5t69 -30.5q71 -54 71 -166q0 -63 -24 -110t-71 -73q-16 -8 -34 -13t-39 -8zM284 303q45 0 75.5 5t53.5 16q75 41 75 149q0 95 -59 139q-24 17 -59 24.5t-86 7.5h-157v-341h157zM175 -177l96 147h41l-107 -147
h-30z" />
    <glyph glyph-name="uni0157" unicode="&#x157;" horiz-adv-x="344" 
d="M118 364q23 57 72.5 87.5t123.5 30.5v-39q-196 0 -196 -215v-228h-39v472h39v-108zM-6 -177l96 147h41l-107 -147h-30z" />
    <glyph glyph-name="Rcaron" unicode="&#x158;" horiz-adv-x="595" 
d="M318 728h-54l-97 103h33l92 -85l91 85h32zM545 0h-51l-179 266h-27h-161v-266h-41v680h202q61 0 101 -9.5t69 -30.5q71 -54 71 -166q0 -63 -24 -110t-71 -73q-16 -8 -34 -13t-39 -8zM284 303q45 0 75.5 5t53.5 16q75 41 75 149q0 95 -59 139q-24 17 -59 24.5t-86 7.5
h-157v-341h157z" />
    <glyph glyph-name="rcaron" unicode="&#x159;" horiz-adv-x="344" 
d="M177 533h-47l-96 147h33l87 -121l87 121h32zM118 364q23 57 72.5 87.5t123.5 30.5v-39q-196 0 -196 -215v-228h-39v472h39v-108z" />
    <glyph glyph-name="Sacute" unicode="&#x15a;" horiz-adv-x="600" 
d="M283 710l78 121h44l-88 -121h-34zM310 -11q-103 0 -173 45.5t-89 128.5l41 8q17 -70 74.5 -107.5t146.5 -37.5q91 0 142 40.5t51 112.5q0 39 -17 64t-45.5 40.5t-66 25t-77.5 18.5q-41 9 -82 19.5t-74 29.5t-53.5 50t-20.5 79q0 42 16 76.5t44.5 58.5t69.5 37.5t90 13.5
q95 0 156.5 -38t87.5 -120l-37 -10q-23 69 -72.5 100.5t-132.5 31.5t-132 -40t-49 -108q0 -38 16.5 -62t44.5 -39t64.5 -24.5t76.5 -17.5q42 -9 83.5 -19.5t75.5 -30.5t55 -51.5t21 -82.5q0 -44 -16.5 -79.5t-47 -60t-74 -38t-97.5 -13.5z" />
    <glyph glyph-name="sacute" unicode="&#x15b;" horiz-adv-x="454" 
d="M203 533l95 147h45l-106 -147h-34zM234 -10q-72 0 -120.5 38.5t-59.5 99.5l36 9q8 -51 46.5 -82.5t96.5 -31.5q57 0 90.5 28t33.5 73q0 27 -11 44.5t-29.5 29t-42.5 17.5t-50 11q-30 6 -58 14t-50 22t-35.5 36t-13.5 55q0 60 43.5 94.5t113.5 34.5q66 0 110.5 -32.5
t55.5 -90.5l-37 -6q-8 45 -42.5 70t-87.5 25q-54 0 -86.5 -24.5t-32.5 -68.5q0 -24 11 -40t29 -26.5t42 -17t50 -11.5q30 -6 59 -14t51.5 -22.5t36 -37.5t13.5 -59q0 -32 -12 -57.5t-33.5 -43t-51.5 -27t-65 -9.5z" />
    <glyph glyph-name="Scedilla" unicode="&#x15e;" horiz-adv-x="600" 
d="M545 180q0 -44 -16.5 -79.5t-47 -60t-73.5 -38t-97 -13.5l-40 -78q8 2 15 3t14 1q35 0 55.5 -19t20.5 -51q0 -35 -23 -56.5t-59 -21.5q-27 0 -47 10.5t-31 28.5l26 13q17 -24 51 -24q25 0 39.5 13.5t14.5 36.5q0 22 -14 33.5t-37 11.5t-40 -10l-25 13l49 97
q-92 7 -153.5 51.5t-78.5 121.5l41 8q17 -70 74.5 -107.5t146.5 -37.5q91 0 142 40.5t51 112.5q0 39 -17 64t-45.5 40.5t-66 25t-77.5 18.5q-41 9 -82 19.5t-74 29.5t-53.5 50t-20.5 79q0 42 16 76.5t44.5 58.5t69.5 37.5t90 13.5q95 0 156.5 -38t87.5 -120l-37 -10
q-23 69 -72.5 100.5t-132.5 31.5t-132 -40t-49 -108q0 -38 16.5 -62t44.5 -39t64.5 -24.5t76.5 -17.5q42 -9 83.5 -19.5t75.5 -30.5t55 -51.5t21 -82.5z" />
    <glyph glyph-name="scedilla" unicode="&#x15f;" horiz-adv-x="454" 
d="M396 127q0 -63 -43.5 -99t-112.5 -38l-40 -79q8 2 15 3t14 1q35 0 55.5 -19t20.5 -51q0 -35 -23 -56.5t-59 -21.5q-27 0 -47 10.5t-31 28.5l26 13q17 -24 51 -24q25 0 39.5 13.5t14.5 36.5q0 22 -14 33.5t-37 11.5t-40 -10l-25 13l50 98q-63 7 -104.5 44t-51.5 93l36 9
q8 -51 46.5 -82.5t96.5 -31.5q57 0 90.5 28t33.5 73q0 27 -11 44.5t-29.5 29t-42.5 17.5t-50 11q-30 6 -58 14t-50 22t-35.5 36t-13.5 55q0 60 43.5 94.5t113.5 34.5q66 0 110.5 -32.5t55.5 -90.5l-37 -6q-8 45 -42.5 70t-87.5 25q-54 0 -86.5 -24.5t-32.5 -68.5
q0 -24 11 -40t29 -26.5t42 -17t50 -11.5q30 -6 59 -14t51.5 -22.5t36 -37.5t13.5 -59z" />
    <glyph glyph-name="Scaron" unicode="&#x160;" horiz-adv-x="600" 
d="M273 728l-97 103h33l92 -85l91 85h32l-97 -103h-54zM310 -11q-103 0 -173 45.5t-89 128.5l41 8q17 -70 74.5 -107.5t146.5 -37.5q91 0 142 40.5t51 112.5q0 39 -17 64t-45.5 40.5t-66 25t-77.5 18.5q-41 9 -82 19.5t-74 29.5t-53.5 50t-20.5 79q0 42 16 76.5t44.5 58.5
t69.5 37.5t90 13.5q95 0 156.5 -38t87.5 -120l-37 -10q-23 69 -72.5 100.5t-132.5 31.5t-132 -40t-49 -108q0 -38 16.5 -62t44.5 -39t64.5 -24.5t76.5 -17.5q42 -9 83.5 -19.5t75.5 -30.5t55 -51.5t21 -82.5q0 -44 -16.5 -79.5t-47 -60t-74 -38t-97.5 -13.5z" />
    <glyph glyph-name="scaron" unicode="&#x161;" horiz-adv-x="454" 
d="M203 533l-96 147h33l87 -121l87 121h32l-96 -147h-47zM234 -10q-72 0 -120.5 38.5t-59.5 99.5l36 9q8 -51 46.5 -82.5t96.5 -31.5q57 0 90.5 28t33.5 73q0 27 -11 44.5t-29.5 29t-42.5 17.5t-50 11q-30 6 -58 14t-50 22t-35.5 36t-13.5 55q0 60 43.5 94.5t113.5 34.5
q66 0 110.5 -32.5t55.5 -90.5l-37 -6q-8 45 -42.5 70t-87.5 25q-54 0 -86.5 -24.5t-32.5 -68.5q0 -24 11 -40t29 -26.5t42 -17t50 -11.5q30 -6 59 -14t51.5 -22.5t36 -37.5t13.5 -59q0 -32 -12 -57.5t-33.5 -43t-51.5 -27t-65 -9.5z" />
    <glyph glyph-name="uni0162" unicode="&#x162;" horiz-adv-x="464" 
d="M252 0h-5l-45 -89q8 2 15 3t14 1q35 0 55.5 -19t20.5 -51q0 -35 -23 -56.5t-59 -21.5q-27 0 -47 10.5t-31 28.5l26 13q17 -24 51 -24q25 0 39.5 13.5t14.5 36.5q0 22 -14 33.5t-37 11.5t-40 -10l-25 13l54 107h-5v643h-192v37h425v-37h-192v-643z" />
    <glyph glyph-name="uni0163" unicode="&#x163;" horiz-adv-x="334" 
d="M294 437h-126v-313q0 -43 24 -66t62 -23h40v-35h-48h-11l-46 -89q8 2 15 3t14 1q35 0 55.5 -19t20.5 -51q0 -35 -23 -56.5t-59 -21.5q-27 0 -47 10.5t-31 28.5l26 13q17 -24 51 -24q25 0 39.5 13.5t14.5 36.5q0 22 -14 33.5t-37 11.5t-40 -10l-25 13l57 113
q-36 11 -57 40.5t-21 74.5v316h-99v35h64q38 0 38 40v119h37v-159h126v-35z" />
    <glyph glyph-name="Tcaron" unicode="&#x164;" horiz-adv-x="464" 
d="M258 728h-54l-97 103h33l92 -85l91 85h32zM444 680v-37h-192v-643h-41v643h-192v37h425z" />
    <glyph glyph-name="tcaron" unicode="&#x165;" horiz-adv-x="306" 
d="M263 545l59 296h40l-66 -296h-33zM246 0q-54 0 -86 32t-32 89v316h-99v35h64q38 0 38 40v119h37v-159h126v-35h-126v-313q0 -43 24 -66t62 -23h40v-35h-48z" />
    <glyph glyph-name="Tbar" unicode="&#x166;" horiz-adv-x="464" 
d="M444 643h-192v-287h120v-30h-120v-326h-41v326h-120v30h120v287h-192v37h425v-37z" />
    <glyph glyph-name="tbar" unicode="&#x167;" horiz-adv-x="334" 
d="M298 221h-130v-97q0 -43 24 -66t62 -23h40v-35h-48q-54 0 -86 32t-32 89v100h-104v30h104v186h-99v35h64q38 0 38 40v119h37v-159h126v-35h-126v-186h130v-30z" />
    <glyph glyph-name="Utilde" unicode="&#x168;" horiz-adv-x="649" 
d="M397 710q-35 0 -52.5 16.5t-30.5 33.5t-26 29.5t-39 12.5q-28 0 -44.5 -23t-16.5 -59h-28q0 48 25 79.5t66 31.5q35 0 53 -17t32 -34q12 -17 25 -28.5t38 -11.5q27 0 43.5 22.5t16.5 58.5h28q0 -48 -24.5 -79.5t-65.5 -31.5zM324 -11q-54 0 -99.5 17t-78 48.5t-50.5 75.5
t-18 99v451h41v-448q0 -47 15 -84.5t42 -64t64.5 -41t83.5 -14.5t84 14.5t65 41t42 64t15 84.5v448h40v-451q0 -55 -18 -99t-50.5 -75.5t-78 -48.5t-99.5 -17z" />
    <glyph glyph-name="utilde" unicode="&#x169;" horiz-adv-x="510" 
d="M177 624q-28 0 -44.5 -22.5t-16.5 -58.5h-28q0 48 25 79t66 31q35 0 53 -16.5t32 -33.5q12 -17 25 -29t38 -12q27 0 43.5 23t16.5 59h28q0 -48 -24.5 -79.5t-65.5 -31.5q-35 0 -52.5 16.5t-30.5 33.5t-26 29t-39 12zM391 472h39v-472h-39v77q-22 -42 -60.5 -64.5
t-89.5 -22.5q-81 0 -124.5 45.5t-43.5 127.5v309h39v-304q0 -69 36 -106t101 -37q63 0 102 43.5t40 119.5v284z" />
    <glyph glyph-name="Umacron" unicode="&#x16a;" horiz-adv-x="649" 
d="M168 763v32h313v-32h-313zM324 -11q-54 0 -99.5 17t-78 48.5t-50.5 75.5t-18 99v451h41v-448q0 -47 15 -84.5t42 -64t64.5 -41t83.5 -14.5t84 14.5t65 41t42 64t15 84.5v448h40v-451q0 -55 -18 -99t-50.5 -75.5t-78 -48.5t-99.5 -17z" />
    <glyph glyph-name="umacron" unicode="&#x16b;" horiz-adv-x="510" 
d="M358 613v-32h-213v32h213zM391 472h39v-472h-39v77q-22 -42 -60.5 -64.5t-89.5 -22.5q-81 0 -124.5 45.5t-43.5 127.5v309h39v-304q0 -69 36 -106t101 -37q63 0 102 43.5t40 119.5v284z" />
    <glyph glyph-name="Uring" unicode="&#x16e;" horiz-adv-x="649" 
d="M324 702q-22 0 -42 8.5t-35 22.5t-23.5 34t-8.5 42q0 23 8.5 42.5t23 33.5t34.5 22.5t43 8.5q22 0 41.5 -8.5t34 -22.5t23 -33.5t8.5 -42.5q0 -22 -8.5 -42t-23 -34t-34 -22.5t-41.5 -8.5zM324 729q32 0 55.5 23.5t23.5 56.5t-23.5 56t-55.5 23q-34 0 -57 -23t-23 -56
t23.5 -56.5t56.5 -23.5zM324 -11q-54 0 -99.5 17t-78 48.5t-50.5 75.5t-18 99v451h41v-448q0 -47 15 -84.5t42 -64t64.5 -41t83.5 -14.5t84 14.5t65 41t42 64t15 84.5v448h40v-451q0 -55 -18 -99t-50.5 -75.5t-78 -48.5t-99.5 -17z" />
    <glyph glyph-name="uring" unicode="&#x16f;" horiz-adv-x="510" 
d="M253 541q-22 0 -42 8.5t-34.5 23t-23 33.5t-8.5 41t8.5 41t23 33.5t34 22.5t42.5 8q22 0 41 -8t33.5 -22.5t22.5 -33.5t8 -41t-8 -41t-22.5 -33.5t-33.5 -23t-41 -8.5zM253 725q-34 0 -56.5 -23t-22.5 -55t23 -55.5t56 -23.5q31 0 54 23.5t23 55.5t-22.5 55t-54.5 23z
M391 472h39v-472h-39v77q-22 -42 -60.5 -64.5t-89.5 -22.5q-81 0 -124.5 45.5t-43.5 127.5v309h39v-304q0 -69 36 -106t101 -37q63 0 102 43.5t40 119.5v284z" />
    <glyph glyph-name="Uhungarumlaut" unicode="&#x170;" horiz-adv-x="649" 
d="M242 710l80 121h42l-88 -121h-34zM372 710l80 121h42l-88 -121h-34zM324 -11q-54 0 -99.5 17t-78 48.5t-50.5 75.5t-18 99v451h41v-448q0 -47 15 -84.5t42 -64t64.5 -41t83.5 -14.5t84 14.5t65 41t42 64t15 84.5v448h40v-451q0 -55 -18 -99t-50.5 -75.5t-78 -48.5
t-99.5 -17z" />
    <glyph glyph-name="uhungarumlaut" unicode="&#x171;" horiz-adv-x="510" 
d="M310 680l-106 -147h-34l96 147h44zM333 533h-34l96 147h44zM391 472h39v-472h-39v77q-22 -42 -60.5 -64.5t-89.5 -22.5q-81 0 -124.5 45.5t-43.5 127.5v309h39v-304q0 -69 36 -106t101 -37q63 0 102 43.5t40 119.5v284z" />
    <glyph glyph-name="Uogonek" unicode="&#x172;" horiz-adv-x="649" 
d="M530 680h40v-451q0 -93 -49.5 -154t-132.5 -79q-47 -25 -78 -60.5t-31 -66.5q0 -21 18.5 -33t50.5 -12q12 0 24.5 1.5t24.5 6.5v-32q-14 -3 -27 -5t-27 -2q-42 0 -69 18.5t-27 50.5q0 31 24.5 65t64.5 62h-12q-54 0 -99.5 17t-78 48.5t-50.5 75.5t-18 99v451h41v-448
q0 -47 15 -84.5t42 -64t64.5 -41t83.5 -14.5t84 14.5t65 41t42 64t15 84.5v448z" />
    <glyph glyph-name="uogonek" unicode="&#x173;" horiz-adv-x="510" 
d="M430 0q-25 -12 -46.5 -28t-37.5 -33.5t-25 -35.5t-9 -34q0 -21 18.5 -33t50.5 -12q12 0 24.5 1.5t24.5 6.5v-32q-14 -3 -27 -5t-27 -2q-42 0 -69 18.5t-27 50.5q0 35 31.5 74t79.5 68v73q-22 -42 -60.5 -64.5t-89.5 -22.5q-81 0 -124.5 45.5t-43.5 127.5v309h39v-304
q0 -69 36 -106t101 -37q63 0 102 43.5t40 119.5v284h39v-472z" />
    <glyph glyph-name="Wcircumflex" unicode="&#x174;" horiz-adv-x="957" 
d="M479 813l-92 -85h-33l97 103h54l97 -103h-32zM882 680h43l-204 -680h-58l-185 627l-184 -627h-59l-204 680h43l192 -644l188 644h48l188 -644z" />
    <glyph glyph-name="wcircumflex" unicode="&#x175;" horiz-adv-x="790" 
d="M395 655l-87 -122h-33l96 147h47l96 -147h-32zM714 472h42l-171 -472h-52l-138 433l-138 -433h-52l-171 472h42l155 -436l141 436h47l140 -436z" />
    <glyph glyph-name="Ycircumflex" unicode="&#x176;" horiz-adv-x="555" 
d="M277 813l-92 -85h-33l97 103h54l97 -103h-32zM535 680l-238 -365v-315h-40v315l-238 365h45l213 -327l213 327h45z" />
    <glyph glyph-name="ycircumflex" unicode="&#x177;" horiz-adv-x="495" 
d="M248 655l-87 -122h-33l96 147h47l96 -147h-32zM420 472h43l-296 -715h-44l104 247l-195 468h43l173 -423z" />
    <glyph glyph-name="Ydieresis" unicode="&#x178;" horiz-adv-x="555" 
d="M202 737q-16 0 -27.5 11.5t-11.5 26.5q0 17 11.5 28t27.5 11q15 0 26.5 -11t11.5 -28q0 -15 -11.5 -26.5t-26.5 -11.5zM353 737q-16 0 -27.5 11.5t-11.5 26.5q0 17 11.5 28t27.5 11q15 0 26.5 -11t11.5 -28q0 -15 -11.5 -26.5t-26.5 -11.5zM535 680l-238 -365v-315h-40
v315l-238 365h45l213 -327l213 327h45z" />
    <glyph glyph-name="Zacute" unicode="&#x179;" horiz-adv-x="567" 
d="M395 831l-88 -121h-34l78 121h44zM81 38h452v-38h-498v40l446 603h-444v37h489v-40z" />
    <glyph glyph-name="zacute" unicode="&#x17a;" horiz-adv-x="459" 
d="M348 680l-106 -147h-34l95 147h45zM423 472l-319 -438h313v-34h-381l319 437h-297v35h365z" />
    <glyph glyph-name="Zdotaccent" unicode="&#x17b;" horiz-adv-x="567" 
d="M290 737q-16 0 -27.5 11.5t-11.5 26.5q0 17 11.5 28t27.5 11q15 0 26.5 -11t11.5 -28q0 -15 -11.5 -26.5t-26.5 -11.5zM81 38h452v-38h-498v40l446 603h-444v37h489v-40z" />
    <glyph glyph-name="zdotaccent" unicode="&#x17c;" horiz-adv-x="459" 
d="M232 618q-16 0 -27.5 11t-11.5 27q0 17 11.5 27.5t27.5 10.5q15 0 26.5 -10.5t11.5 -27.5q0 -16 -11.5 -27t-26.5 -11zM423 472l-319 -438h313v-34h-381l319 437h-297v35h365z" />
    <glyph glyph-name="Zcaron" unicode="&#x17d;" horiz-adv-x="567" 
d="M316 728h-54l-97 103h33l92 -85l91 85h32zM81 38h452v-38h-498v40l446 603h-444v37h489v-40z" />
    <glyph glyph-name="zcaron" unicode="&#x17e;" horiz-adv-x="459" 
d="M255 533h-47l-96 147h33l87 -121l87 121h32zM423 472l-319 -438h313v-34h-381l319 437h-297v35h365z" />
    <glyph glyph-name="florin" unicode="&#x192;" horiz-adv-x="377" 
d="M325 715q-50 0 -77.5 -29.5t-27.5 -95.5v-118h127v-35h-127v-437q0 -83 -38 -121.5t-108 -38.5h-21v35h21q51 0 78.5 29.5t27.5 95.5v437h-99v35h99v118q0 83 38 121.5t107 38.5h22v-35h-22z" />
    <glyph glyph-name="Ohorn" unicode="&#x1a0;" horiz-adv-x="784" 
d="M734 677h33v-50q0 -44 -16 -67t-50 -23q-12 0 -26 3q25 -42 38.5 -91.5t13.5 -107.5q0 -78 -24.5 -143t-68.5 -111.5t-106 -72t-136 -25.5q-75 0 -136.5 25.5t-106 72t-69 111.5t-24.5 143t24.5 142.5t69 110.5t106 71.5t136.5 25.5q81 0 145.5 -29t109.5 -83
q14 -7 25.5 -11t24.5 -4q25 0 31 17t6 48v48zM392 28q66 0 120 22.5t92.5 64t60 99t21.5 127.5t-21.5 127t-60 98t-92.5 63.5t-120 22.5t-120.5 -22.5t-93 -63.5t-60 -98t-21.5 -127t21.5 -127.5t60 -99t93 -64t120.5 -22.5z" />
    <glyph glyph-name="ohorn" unicode="&#x1a1;" horiz-adv-x="574" 
d="M533 517h33v-50q0 -44 -16 -67t-50 -23q-6 0 -11.5 0.5t-10.5 1.5q39 -61 39 -143q0 -54 -17 -99t-48 -78t-73 -51t-92 -18t-92.5 18t-73 51t-48 78t-17.5 99t17.5 99t48 77.5t73 51t92.5 18.5q48 0 87.5 -16.5t69.5 -45.5q14 -8 26.5 -12t25.5 -4q25 0 31 17t6 48v48z
M287 25q42 0 76.5 15.5t60 43.5t39.5 67t14 85t-14 85t-39.5 67t-60 43.5t-76.5 15.5t-77 -15.5t-60.5 -43.5t-39.5 -67t-14 -85t14 -85t39.5 -67t60.5 -43.5t77 -15.5z" />
    <glyph glyph-name="Uhorn" unicode="&#x1af;" horiz-adv-x="649" 
d="M660 740h33v-50q0 -44 -16 -67t-50 -23q-27 0 -57 14v-385q0 -55 -18 -99t-50.5 -75.5t-78 -48.5t-99.5 -17t-99.5 17t-78 48.5t-50.5 75.5t-18 99v451h41v-448q0 -47 15 -84.5t42 -64t64.5 -41t83.5 -14.5t84 14.5t65 41t42 64t15 84.5v448h40v-36q15 -8 27 -12.5
t26 -4.5q25 0 31 17t6 48v48z" />
    <glyph glyph-name="uhorn" unicode="&#x1b0;" horiz-adv-x="510" 
d="M517 531h33v-50q0 -44 -16 -67t-50 -23q-25 0 -54 13v-404h-39v77q-22 -42 -60.5 -64.5t-89.5 -22.5q-81 0 -124.5 45.5t-43.5 127.5v309h39v-304q0 -69 36 -106t101 -37q63 0 102 43.5t40 119.5v284h39v-39q14 -7 25.5 -11t24.5 -4q25 0 31 17t6 48v48z" />
    <glyph glyph-name="uni01CD" unicode="&#x1cd;" horiz-adv-x="637" 
d="M345 728h-54l-97 103h33l92 -85l91 85h32zM569 0l-72 184h-357l-71 -184h-43l265 680h55l266 -680h-43zM154 220h329l-164 422z" />
    <glyph glyph-name="uni01CE" unicode="&#x1ce;" horiz-adv-x="492" 
d="M265 533h-47l-96 147h33l87 -121l87 121h32zM477 35v-35h-26q-68 0 -68 72v36h-4q-23 -57 -68 -87.5t-111 -30.5t-104 32.5t-38 92.5q0 65 45 101t130 50l114 18q14 3 22.5 10t8.5 20q0 66 -35 100t-100 34q-121 0 -136 -109l-40 4q11 69 55.5 104t120.5 35
q84 0 129 -44.5t45 -126.5v-225q0 -28 9.5 -39.5t32.5 -11.5h18zM206 25q85 0 129 60t44 173l-141 -23q-141 -22 -141 -118q0 -45 28.5 -68.5t80.5 -23.5z" />
    <glyph glyph-name="uni01CF" unicode="&#x1cf;" horiz-adv-x="213" 
d="M79 728l-97 103h33l92 -85l91 85h32l-97 -103h-54zM86 0v680h41v-680h-41z" />
    <glyph glyph-name="uni01D0" unicode="&#x1d0;" horiz-adv-x="197" 
d="M74 533l-96 147h33l87 -121l87 121h32l-96 -147h-47zM78 0v472h40v-472h-40z" />
    <glyph glyph-name="uni01D1" unicode="&#x1d1;" horiz-adv-x="784" 
d="M364 728l-97 103h33l92 -85l91 85h32l-97 -103h-54zM392 -11q-75 0 -136.5 25.5t-106 72t-69 111.5t-24.5 143t24.5 142.5t69 110.5t106 71.5t136.5 25.5q74 0 136 -25.5t106 -71.5t68.5 -110.5t24.5 -142.5t-24.5 -143t-68.5 -111.5t-106 -72t-136 -25.5zM392 28
q66 0 120 22.5t92.5 64t60 99t21.5 127.5t-21.5 127t-60 98t-92.5 63.5t-120 22.5t-120.5 -22.5t-93 -63.5t-60 -98t-21.5 -127t21.5 -127.5t60 -99t93 -64t120.5 -22.5z" />
    <glyph glyph-name="uni01D2" unicode="&#x1d2;" horiz-adv-x="574" 
d="M263 533l-96 147h33l87 -121l87 121h32l-96 -147h-47zM287 -10q-50 0 -92.5 18t-73 51t-48 78t-17.5 99t17.5 99t48 77.5t73 51t92.5 18.5t92 -18.5t73 -51t48 -77.5t17 -99t-17 -99t-48 -78t-73 -51t-92 -18zM287 25q42 0 76.5 15.5t60 43.5t39.5 67t14 85t-14 85
t-39.5 67t-60 43.5t-76.5 15.5t-77 -15.5t-60.5 -43.5t-39.5 -67t-14 -85t14 -85t39.5 -67t60.5 -43.5t77 -15.5z" />
    <glyph glyph-name="uni01D3" unicode="&#x1d3;" horiz-adv-x="649" 
d="M297 728l-97 103h33l92 -85l91 85h32l-97 -103h-54zM324 -11q-54 0 -99.5 17t-78 48.5t-50.5 75.5t-18 99v451h41v-448q0 -47 15 -84.5t42 -64t64.5 -41t83.5 -14.5t84 14.5t65 41t42 64t15 84.5v448h40v-451q0 -55 -18 -99t-50.5 -75.5t-78 -48.5t-99.5 -17z" />
    <glyph glyph-name="uni01D4" unicode="&#x1d4;" horiz-adv-x="510" 
d="M275 533h-47l-96 147h33l87 -121l87 121h32zM391 472h39v-472h-39v77q-22 -42 -60.5 -64.5t-89.5 -22.5q-81 0 -124.5 45.5t-43.5 127.5v309h39v-304q0 -69 36 -106t101 -37q63 0 102 43.5t40 119.5v284z" />
    <glyph glyph-name="uni01D5" unicode="&#x1d5;" horiz-adv-x="649" 
d="M168 896v32h313v-32h-313zM249 737q-16 0 -27.5 11.5t-11.5 26.5q0 17 11.5 28t27.5 11q15 0 26.5 -11t11.5 -28q0 -15 -11.5 -26.5t-26.5 -11.5zM400 737q-16 0 -27.5 11.5t-11.5 26.5q0 17 11.5 28t27.5 11q15 0 26.5 -11t11.5 -28q0 -15 -11.5 -26.5t-26.5 -11.5z
M324 -11q-54 0 -99.5 17t-78 48.5t-50.5 75.5t-18 99v451h41v-448q0 -47 15 -84.5t42 -64t64.5 -41t83.5 -14.5t84 14.5t65 41t42 64t15 84.5v448h40v-451q0 -55 -18 -99t-50.5 -75.5t-78 -48.5t-99.5 -17z" />
    <glyph glyph-name="uni01D6" unicode="&#x1d6;" horiz-adv-x="510" 
d="M358 826v-32h-213v32h213zM177 618q-16 0 -27.5 11t-11.5 27q0 17 11.5 27.5t27.5 10.5q15 0 26.5 -10.5t11.5 -27.5q0 -16 -11.5 -27t-26.5 -11zM328 694q15 0 26.5 -10.5t11.5 -27.5q0 -16 -11.5 -27t-26.5 -11q-16 0 -27.5 11t-11.5 27q0 17 11.5 27.5t27.5 10.5z
M391 472h39v-472h-39v77q-22 -42 -60.5 -64.5t-89.5 -22.5q-81 0 -124.5 45.5t-43.5 127.5v309h39v-304q0 -69 36 -106t101 -37q63 0 102 43.5t40 119.5v284z" />
    <glyph glyph-name="uni01D7" unicode="&#x1d7;" horiz-adv-x="649" 
d="M307 843l78 121h44l-88 -121h-34zM249 737q-16 0 -27.5 11.5t-11.5 26.5q0 17 11.5 28t27.5 11q15 0 26.5 -11t11.5 -28q0 -15 -11.5 -26.5t-26.5 -11.5zM400 737q-16 0 -27.5 11.5t-11.5 26.5q0 17 11.5 28t27.5 11q15 0 26.5 -11t11.5 -28q0 -15 -11.5 -26.5
t-26.5 -11.5zM324 -11q-54 0 -99.5 17t-78 48.5t-50.5 75.5t-18 99v451h41v-448q0 -47 15 -84.5t42 -64t64.5 -41t83.5 -14.5t84 14.5t65 41t42 64t15 84.5v448h40v-451q0 -55 -18 -99t-50.5 -75.5t-78 -48.5t-99.5 -17z" />
    <glyph glyph-name="uni01D8" unicode="&#x1d8;" horiz-adv-x="510" 
d="M368 893l-106 -147h-34l95 147h45zM177 618q-16 0 -27.5 11t-11.5 27q0 17 11.5 27.5t27.5 10.5q15 0 26.5 -10.5t11.5 -27.5q0 -16 -11.5 -27t-26.5 -11zM289 656q0 17 11.5 27.5t27.5 10.5q15 0 26.5 -10.5t11.5 -27.5q0 -16 -11.5 -27t-26.5 -11q-16 0 -27.5 11
t-11.5 27zM391 472h39v-472h-39v77q-22 -42 -60.5 -64.5t-89.5 -22.5q-81 0 -124.5 45.5t-43.5 127.5v309h39v-304q0 -69 36 -106t101 -37q63 0 102 43.5t40 119.5v284z" />
    <glyph glyph-name="uni01D9" unicode="&#x1d9;" horiz-adv-x="649" 
d="M297 861l-97 103h33l92 -85l91 85h32l-97 -103h-54zM249 737q-16 0 -27.5 11.5t-11.5 26.5q0 17 11.5 28t27.5 11q15 0 26.5 -11t11.5 -28q0 -15 -11.5 -26.5t-26.5 -11.5zM400 737q-16 0 -27.5 11.5t-11.5 26.5q0 17 11.5 28t27.5 11q15 0 26.5 -11t11.5 -28
q0 -15 -11.5 -26.5t-26.5 -11.5zM324 -11q-54 0 -99.5 17t-78 48.5t-50.5 75.5t-18 99v451h41v-448q0 -47 15 -84.5t42 -64t64.5 -41t83.5 -14.5t84 14.5t65 41t42 64t15 84.5v448h40v-451q0 -55 -18 -99t-50.5 -75.5t-78 -48.5t-99.5 -17z" />
    <glyph glyph-name="uni01DA" unicode="&#x1da;" horiz-adv-x="510" 
d="M275 746h-47l-96 147h33l87 -121l87 121h32zM138 656q0 17 11.5 27.5t27.5 10.5q15 0 26.5 -10.5t11.5 -27.5q0 -16 -11.5 -27t-26.5 -11q-16 0 -27.5 11t-11.5 27zM289 656q0 17 11.5 27.5t27.5 10.5q15 0 26.5 -10.5t11.5 -27.5q0 -16 -11.5 -27t-26.5 -11
q-16 0 -27.5 11t-11.5 27zM391 472h39v-472h-39v77q-22 -42 -60.5 -64.5t-89.5 -22.5q-81 0 -124.5 45.5t-43.5 127.5v309h39v-304q0 -69 36 -106t101 -37q63 0 102 43.5t40 119.5v284z" />
    <glyph glyph-name="uni01DB" unicode="&#x1db;" horiz-adv-x="649" 
d="M308 843l-89 121h44l78 -121h-33zM249 737q-16 0 -27.5 11.5t-11.5 26.5q0 17 11.5 28t27.5 11q15 0 26.5 -11t11.5 -28q0 -15 -11.5 -26.5t-26.5 -11.5zM400 737q-16 0 -27.5 11.5t-11.5 26.5q0 17 11.5 28t27.5 11q15 0 26.5 -11t11.5 -28q0 -15 -11.5 -26.5
t-26.5 -11.5zM324 -11q-54 0 -99.5 17t-78 48.5t-50.5 75.5t-18 99v451h41v-448q0 -47 15 -84.5t42 -64t64.5 -41t83.5 -14.5t84 14.5t65 41t42 64t15 84.5v448h40v-451q0 -55 -18 -99t-50.5 -75.5t-78 -48.5t-99.5 -17z" />
    <glyph glyph-name="uni01DC" unicode="&#x1dc;" horiz-adv-x="510" 
d="M275 746h-33l-107 147h46zM138 656q0 17 11.5 27.5t27.5 10.5q15 0 26.5 -10.5t11.5 -27.5q0 -16 -11.5 -27t-26.5 -11q-16 0 -27.5 11t-11.5 27zM328 618q-16 0 -27.5 11t-11.5 27q0 17 11.5 27.5t27.5 10.5q15 0 26.5 -10.5t11.5 -27.5q0 -16 -11.5 -27t-26.5 -11z
M391 472h39v-472h-39v77q-22 -42 -60.5 -64.5t-89.5 -22.5q-81 0 -124.5 45.5t-43.5 127.5v309h39v-304q0 -69 36 -106t101 -37q63 0 102 43.5t40 119.5v284z" />
    <glyph glyph-name="Gcaron" unicode="&#x1e6;" horiz-adv-x="771" 
d="M360 728l-97 103h33l92 -85l91 85h32l-97 -103h-54zM390 -11q-74 0 -135.5 25.5t-105.5 72t-68.5 111.5t-24.5 143t24.5 142.5t69 110.5t106 71.5t136.5 25.5q98 0 173 -43.5t117 -120.5l-36 -18q-37 67 -102.5 105t-151.5 38q-66 0 -120.5 -22.5t-93 -63.5t-60 -98
t-21.5 -127t21 -127.5t60 -99t93.5 -64t120.5 -22.5q61 0 109 19.5t82.5 55.5t55 86.5t25.5 113.5h-271v36h312v-339h-36v183q-31 -90 -101.5 -142t-177.5 -52z" />
    <glyph glyph-name="gcaron" unicode="&#x1e7;" horiz-adv-x="592" 
d="M310 533h-47l-96 147h33l87 -121l87 121h32zM473 472h40v-476q0 -118 -60.5 -182t-163.5 -64q-81 0 -136.5 40t-81.5 106l35 16q22 -59 68.5 -93.5t113.5 -34.5q88 0 136.5 55.5t48.5 154.5v126q-24 -57 -74.5 -91.5t-119.5 -34.5q-48 0 -89 18t-70.5 50.5t-46.5 77
t-17 98.5q0 53 17 98t46.5 77.5t70.5 50.5t89 18q69 0 119.5 -34.5t74.5 -91.5v116zM285 29q41 0 76 15.5t60 43.5t39 66t14 84q0 45 -14 83.5t-39 66.5t-60 43.5t-76 15.5q-42 0 -76.5 -15.5t-60 -43.5t-39.5 -66.5t-14 -83.5q0 -46 14 -84t39.5 -66t60.5 -43.5t76 -15.5z
" />
    <glyph glyph-name="uni01EA" unicode="&#x1ea;" horiz-adv-x="784" 
d="M475 -2q-24 -12 -45 -28t-36.5 -33t-24 -34.5t-8.5 -33.5q0 -21 18.5 -33t50.5 -12q12 0 24.5 1.5t24.5 6.5v-32q-14 -3 -27 -5t-27 -2q-42 0 -69 18.5t-27 50.5t25 65.5t65 62.5q-7 -1 -13.5 -1h-13.5q-75 0 -136.5 25.5t-106 72t-69 111.5t-24.5 143t24.5 142.5
t69 110.5t106 71.5t136.5 25.5q74 0 136 -25.5t106 -71.5t68.5 -110.5t24.5 -142.5q0 -67 -18 -124t-51 -101.5t-79.5 -74.5t-103.5 -43zM97 341q0 -70 21.5 -127.5t60 -99t93 -64t120.5 -22.5t120 22.5t92.5 64t60 99t21.5 127.5t-21.5 127t-60 98t-92.5 63.5t-120 22.5
t-120.5 -22.5t-93 -63.5t-60 -98t-21.5 -127z" />
    <glyph glyph-name="uni01EB" unicode="&#x1eb;" horiz-adv-x="574" 
d="M353 -1q-25 -12 -46 -28t-36.5 -33t-24.5 -35t-9 -34q0 -21 18.5 -33t50.5 -12q12 0 24.5 1.5t24.5 6.5v-32q-14 -3 -27 -5t-27 -2q-42 0 -69 18.5t-27 50.5t25 66t65 62h-8q-50 0 -92.5 18t-73 51t-48 78t-17.5 99t17.5 99t48 77.5t73 51t92.5 18.5t92 -18.5t73 -51
t48 -77.5t17 -99q0 -90 -45 -153t-119 -84zM96 236q0 -46 14 -85t39.5 -67t60.5 -43.5t77 -15.5t76.5 15.5t60 43.5t39.5 67t14 85t-14 85t-39.5 67t-60 43.5t-76.5 15.5t-77 -15.5t-60.5 -43.5t-39.5 -67t-14 -85z" />
    <glyph glyph-name="Aringacute" unicode="&#x1fa;" horiz-adv-x="637" 
d="M319 702q-22 0 -42 8.5t-35 22.5t-23.5 34t-8.5 42q0 23 8.5 42.5t23 33.5t34.5 22.5t43 8.5q32 0 57 -17l62 96h44l-83 -114q27 -30 27 -72q0 -22 -8.5 -42t-23 -34t-34 -22.5t-41.5 -8.5zM319 888q-34 0 -57 -23t-23 -56t23.5 -56.5t56.5 -23.5q32 0 55.5 23.5
t23.5 56.5q0 20 -9.5 37t-24.5 28h-4l1 2q-18 12 -42 12zM569 0l-72 184h-357l-71 -184h-43l265 680h55l266 -680h-43zM154 220h329l-164 422z" />
    <glyph glyph-name="aringacute" unicode="&#x1fb;" horiz-adv-x="492" 
d="M244 541q-22 0 -42 8.5t-34.5 23t-23 33.5t-8.5 41t8.5 41t23 33.5t34 22.5t42.5 8q26 0 46 -11l79 122h45l-99 -138q16 -14 25 -34.5t9 -43.5q0 -22 -8 -41t-22.5 -33.5t-33.5 -23t-41 -8.5zM244 725q-34 0 -56.5 -23t-22.5 -55t23 -55.5t56 -23.5q31 0 54 23.5t23 55.5
q0 23 -11.5 41t-29.5 28h-6l1 2q-13 7 -31 7zM477 35v-35h-26q-68 0 -68 72v36h-4q-23 -57 -68 -87.5t-111 -30.5t-104 32.5t-38 92.5q0 65 45 101t130 50l114 18q14 3 22.5 10t8.5 20q0 66 -35 100t-100 34q-121 0 -136 -109l-40 4q11 69 55.5 104t120.5 35q84 0 129 -44.5
t45 -126.5v-225q0 -28 9.5 -39.5t32.5 -11.5h18zM206 25q85 0 129 60t44 173l-141 -23q-141 -22 -141 -118q0 -45 28.5 -68.5t80.5 -23.5z" />
    <glyph glyph-name="AEacute" unicode="&#x1fc;" horiz-adv-x="819" 
d="M401 710l78 121h44l-88 -121h-34zM26 0l265 680h487v-37h-315v-284h278v-38h-278v-283h315v-38h-355v184h-282l-72 -184h-43zM154 220h269v423h-104z" />
    <glyph glyph-name="aeacute" unicode="&#x1fd;" horiz-adv-x="887" 
d="M555 680l-106 -147h-34l95 147h45zM834 227h-416q1 -45 15.5 -82t40 -64t60 -41.5t74.5 -14.5q57 0 100.5 28t66.5 78l37 -8q-26 -62 -79.5 -97.5t-124.5 -35.5q-77 0 -133 40.5t-80 109.5q-13 -42 -35 -70.5t-48 -46.5t-54.5 -25.5t-56.5 -7.5q-66 0 -104.5 32.5
t-38.5 92.5q0 65 45 101t130 50l114 18q31 6 31 30q0 67 -35.5 101t-100.5 34q-122 0 -137 -110l-38 4q22 138 176 138q65 0 108.5 -28.5t57.5 -87.5q29 54 80.5 85.5t117.5 31.5q49 0 90.5 -17.5t72 -50t47.5 -77.5t17 -100v-10zM608 447q-39 0 -72.5 -13.5t-58 -38
t-40 -59t-18.5 -76.5h375q-3 42 -17.5 76.5t-39.5 59t-57.5 38t-71.5 13.5zM383 186q-2 12 -3 24.5t-1 25.5v13t1 12l-1 -1l-139 -23q-143 -22 -143 -118q0 -46 28.5 -70t81.5 -24q26 0 53 8.5t51 28t42.5 51t25.5 78.5z" />
    <glyph glyph-name="Oslashacute" unicode="&#x1fe;" horiz-adv-x="784" 
d="M497 831l-88 -121h-34l78 121h44zM604 621q58 -46 90.5 -117.5t32.5 -162.5q0 -78 -24.5 -143t-68.5 -111.5t-106 -72t-136 -25.5q-110 0 -190 54l-67 -96l-23 15l68 97q-59 47 -91.5 119t-32.5 163q0 78 24.5 142.5t69 110.5t106 71.5t136.5 25.5q108 0 190 -54l67 97
l23 -15zM97 341q0 -81 27.5 -144t77.5 -105l357 513q-35 23 -77 35t-90 12q-66 0 -120.5 -22.5t-93 -63.5t-60 -98t-21.5 -127zM392 28q66 0 120 22.5t92.5 64t60 99t21.5 127.5q0 80 -27.5 143t-77.5 104l-357 -512q73 -48 168 -48z" />
    <glyph glyph-name="oslashacute" unicode="&#x1ff;" horiz-adv-x="574" 
d="M403 680l-106 -147h-34l95 147h45zM437 427q38 -33 59 -82t21 -109q0 -54 -17 -99t-48 -78t-73 -51t-92 -18q-74 0 -129 38l-58 -84l-23 16l59 85q-38 32 -59 81.5t-21 109.5q0 54 17.5 99t48 77.5t73 51t92.5 18.5q37 0 69 -10t59 -28l60 85l22 -16zM96 236
q0 -50 16.5 -91t45.5 -69l236 338q-46 33 -107 33q-42 0 -77 -15.5t-60.5 -43.5t-39.5 -67t-14 -85zM287 25q42 0 76.5 15.5t60 43.5t39.5 67t14 85q0 50 -16.5 90.5t-45.5 69.5l-236 -338q47 -33 108 -33z" />
    <glyph glyph-name="uni0218" unicode="&#x218;" horiz-adv-x="600" 
d="M310 -11q-103 0 -173 45.5t-89 128.5l41 8q17 -70 74.5 -107.5t146.5 -37.5q91 0 142 40.5t51 112.5q0 39 -17 64t-45.5 40.5t-66 25t-77.5 18.5q-41 9 -82 19.5t-74 29.5t-53.5 50t-20.5 79q0 42 16 76.5t44.5 58.5t69.5 37.5t90 13.5q95 0 156.5 -38t87.5 -120l-37 -10
q-23 69 -72.5 100.5t-132.5 31.5t-132 -40t-49 -108q0 -38 16.5 -62t44.5 -39t64.5 -24.5t76.5 -17.5q42 -9 83.5 -19.5t75.5 -30.5t55 -51.5t21 -82.5q0 -44 -16.5 -79.5t-47 -60t-74 -38t-97.5 -13.5zM183 -177l96 147h41l-107 -147h-30z" />
    <glyph glyph-name="uni0219" unicode="&#x219;" horiz-adv-x="454" 
d="M234 -10q-72 0 -120.5 38.5t-59.5 99.5l36 9q8 -51 46.5 -82.5t96.5 -31.5q57 0 90.5 28t33.5 73q0 27 -11 44.5t-29.5 29t-42.5 17.5t-50 11q-30 6 -58 14t-50 22t-35.5 36t-13.5 55q0 60 43.5 94.5t113.5 34.5q66 0 110.5 -32.5t55.5 -90.5l-37 -6q-8 45 -42.5 70
t-87.5 25q-54 0 -86.5 -24.5t-32.5 -68.5q0 -24 11 -40t29 -26.5t42 -17t50 -11.5q30 -6 59 -14t51.5 -22.5t36 -37.5t13.5 -59q0 -32 -12 -57.5t-33.5 -43t-51.5 -27t-65 -9.5zM112 -177l96 147h41l-107 -147h-30z" />
    <glyph glyph-name="uni021A" unicode="&#x21a;" horiz-adv-x="464" 
d="M444 680v-37h-192v-643h-41v643h-192v37h425zM115 -177l96 147h41l-107 -147h-30z" />
    <glyph glyph-name="uni021B" unicode="&#x21b;" horiz-adv-x="334" 
d="M246 0q-54 0 -86 32t-32 89v316h-99v35h64q38 0 38 40v119h37v-159h126v-35h-126v-313q0 -43 24 -66t62 -23h40v-35h-48zM102 -177l96 147h41l-107 -147h-30z" />
    <glyph glyph-name="uni0232" unicode="&#x232;" horiz-adv-x="555" 
d="M433 795v-32h-313v32h313zM535 680l-238 -365v-315h-40v315l-238 365h45l213 -327l213 327h45z" />
    <glyph glyph-name="uni0233" unicode="&#x233;" horiz-adv-x="495" 
d="M355 613v-32h-213v32h213zM420 472h43l-296 -715h-44l104 247l-195 468h43l173 -423z" />
    <glyph glyph-name="uni0237" unicode="&#x237;" horiz-adv-x="193" 
d="M-64 -209q40 0 67 8.5t42.5 29.5t22 55.5t6.5 86.5v501h39v-501q0 -59 -9 -100t-29.5 -66.5t-54.5 -36.5t-84 -11v34z" />
    <glyph glyph-name="uni0272" unicode="&#x272;" horiz-adv-x="506" 
d="M263 482q81 0 124.5 -46t43.5 -127v-309h-40v304q0 69 -35.5 106t-100.5 37q-63 0 -102.5 -43.5t-39.5 -120.5v-312q0 -59 -9 -100t-29.5 -66.5t-54.5 -36.5t-84 -11v34q40 0 67 8.5t42.5 29.5t22 55.5t6.5 86.5v501h39v-77q22 42 60.5 64.5t89.5 22.5z" />
    <glyph glyph-name="circumflex" unicode="&#x2c6;" horiz-adv-x="411" 
d="M86 533l96 147h47l96 -147h-32l-87 122l-87 -122h-33z" />
    <glyph glyph-name="caron" unicode="&#x2c7;" horiz-adv-x="411" 
d="M182 533l-96 147h33l87 -121l87 121h32l-96 -147h-47z" />
    <glyph glyph-name="breve" unicode="&#x2d8;" horiz-adv-x="495" 
d="M247 523q-75 0 -118 41t-43 116h33q0 -60 33.5 -94t94.5 -34q62 0 95 34t33 94h34q0 -75 -43.5 -116t-118.5 -41z" />
    <glyph glyph-name="dotaccent" unicode="&#x2d9;" horiz-adv-x="249" 
d="M125 618q-16 0 -27.5 11t-11.5 27q0 17 11.5 27.5t27.5 10.5q15 0 26.5 -10.5t11.5 -27.5q0 -16 -11.5 -27t-26.5 -11z" />
    <glyph glyph-name="ring" unicode="&#x2da;" horiz-adv-x="385" 
d="M194 541q-22 0 -42 8.5t-34.5 23t-23 33.5t-8.5 41t8.5 41t23 33.5t34 22.5t42.5 8q22 0 41 -8t33.5 -22.5t22.5 -33.5t8 -41t-8 -41t-22.5 -33.5t-33.5 -23t-41 -8.5zM194 568q31 0 54 23.5t23 55.5t-22.5 55t-54.5 23q-34 0 -56.5 -23t-22.5 -55t23 -55.5t56 -23.5z
" />
    <glyph glyph-name="ogonek" unicode="&#x2db;" horiz-adv-x="322" 
d="M182 -207q-42 0 -69 18.5t-27 50.5q0 20 10.5 41.5t29 42t43.5 39.5t54 33l13 -18q-25 -12 -46.5 -28t-37.5 -33.5t-25 -35.5t-9 -34q0 -21 18.5 -33t50.5 -12q12 0 24.5 1.5t24.5 6.5v-32q-14 -3 -27 -5t-27 -2z" />
    <glyph glyph-name="tilde" unicode="&#x2dc;" horiz-adv-x="499" 
d="M323 533q-35 0 -52.5 16.5t-30.5 33.5t-26 29t-39 12q-28 0 -44.5 -22.5t-16.5 -58.5h-28q0 48 25 79t66 31q35 0 53 -16.5t32 -33.5q12 -17 25 -29t38 -12q27 0 43.5 23t16.5 59h28q0 -48 -24.5 -79.5t-65.5 -31.5z" />
    <glyph glyph-name="hungarumlaut" unicode="&#x2dd;" horiz-adv-x="442" 
d="M86 533l96 147h44l-106 -147h-34zM215 533l96 147h44l-106 -147h-34z" />
    <glyph glyph-name="gravecomb" unicode="&#x300;" 
d="M-120 533l-107 147h46l94 -147h-33z" />
    <glyph glyph-name="acutecomb" unicode="&#x301;" 
d="M-227 533l95 147h45l-106 -147h-34z" />
    <glyph glyph-name="uni0302" unicode="&#x302;" 
d="M-325 533l96 147h47l96 -147h-32l-87 122l-87 -122h-33z" />
    <glyph glyph-name="tildecomb" unicode="&#x303;" 
d="M-176 533q-35 0 -52.5 16.5t-30.5 33.5t-26 29t-39 12q-28 0 -44.5 -22.5t-16.5 -58.5h-28q0 48 25 79t66 31q35 0 53 -16.5t32 -33.5q12 -17 25 -29t38 -12q27 0 43.5 23t16.5 59h28q0 -48 -24.5 -79.5t-65.5 -31.5z" />
    <glyph glyph-name="uni0304" unicode="&#x304;" 
d="M-299 581v32h213v-32h-213z" />
    <glyph glyph-name="uni0306" unicode="&#x306;" 
d="M-248 523q-75 0 -118 41t-43 116h33q0 -60 33.5 -94t94.5 -34q62 0 95 34t33 94h34q0 -75 -43.5 -116t-118.5 -41z" />
    <glyph glyph-name="uni0307" unicode="&#x307;" 
d="M-124 618q-16 0 -27.5 11t-11.5 27q0 17 11.5 27.5t27.5 10.5q15 0 26.5 -10.5t11.5 -27.5q0 -16 -11.5 -27t-26.5 -11z" />
    <glyph glyph-name="uni0308" unicode="&#x308;" 
d="M-275 618q-16 0 -27.5 11t-11.5 27q0 17 11.5 27.5t27.5 10.5q15 0 26.5 -10.5t11.5 -27.5q0 -16 -11.5 -27t-26.5 -11zM-124 618q-16 0 -27.5 11t-11.5 27q0 17 11.5 27.5t27.5 10.5q15 0 26.5 -10.5t11.5 -27.5q0 -16 -11.5 -27t-26.5 -11z" />
    <glyph glyph-name="hookabovecomb" unicode="&#x309;" 
d="M-201 513v50q42 8 61.5 22t19.5 35t-17 34t-46 13q-16 0 -31 -5t-36 -18l-15 24q25 14 44 20t41 6q43 0 68.5 -19.5t25.5 -52.5q0 -29 -21.5 -47.5t-60.5 -27.5v-34h-33z" />
    <glyph glyph-name="uni030A" unicode="&#x30a;" 
d="M-191 541q-23 0 -42.5 8.5t-34 23t-23 33.5t-8.5 41t8.5 41t23 33.5t34 22.5t42.5 8q22 0 41 -8t33.5 -22.5t22.5 -33.5t8 -41t-8.5 -41t-22.5 -33.5t-33 -23t-41 -8.5zM-191 568q31 0 54 23.5t23 55.5t-22.5 55t-54.5 23q-34 0 -56.5 -23t-22.5 -55t23 -55.5t56 -23.5z
" />
    <glyph glyph-name="uni030B" unicode="&#x30b;" 
d="M-356 533l96 147h44l-106 -147h-34zM-227 533l96 147h44l-106 -147h-34z" />
    <glyph glyph-name="uni030C" unicode="&#x30c;" 
d="M-229 533l-96 147h33l87 -121l87 121h32l-96 -147h-47z" />
    <glyph glyph-name="uni0312" unicode="&#x312;" 
d="M-223 533l107 147h30l-96 -147h-41z" />
    <glyph glyph-name="uni031B" unicode="&#x31b;" 
d="M-152 419q-20 0 -39.5 7t-40.5 20l12 23q19 -11 33.5 -17t30.5 -6q25 0 31 17t6 48v48h33v-50q0 -44 -16 -67t-50 -23z" />
    <glyph glyph-name="dotbelowcomb" unicode="&#x323;" 
d="M-124 -152q-16 0 -27.5 11t-11.5 27t11.5 27.5t27.5 11.5q15 0 26.5 -11.5t11.5 -27.5t-11.5 -27t-26.5 -11z" />
    <glyph glyph-name="uni0326" unicode="&#x326;" 
d="M-223 -177l96 147h41l-107 -147h-30z" />
    <glyph glyph-name="uni0327" unicode="&#x327;" 
d="M-162 -85q35 0 55.5 -19t20.5 -51q0 -35 -23 -56.5t-59 -21.5q-27 0 -47 10.5t-31 28.5l26 13q16 -24 51 -24q25 0 39.5 13.5t14.5 36.5q0 22 -14 33.5t-37 11.5t-40 -10l-25 13l61 121l27 -9l-48 -94q8 2 15 3t14 1z" />
    <glyph glyph-name="uni0328" unicode="&#x328;" 
d="M-140 -207q-42 0 -69 18.5t-27 50.5q0 20 10.5 41.5t29 42t43.5 39.5t54 33l13 -18q-25 -12 -46.5 -28t-37.5 -33.5t-25 -35.5t-9 -34q0 -21 18.5 -33t50.5 -12q12 0 24.5 1.5t24.5 6.5v-32q-14 -3 -27 -5t-27 -2z" />
    <glyph glyph-name="uni0335" unicode="&#x335;" 
d="M-367 247v30h281v-30h-281z" />
    <glyph glyph-name="uni0336" unicode="&#x336;" 
d="M-793 247v26h707v-26h-707z" />
    <glyph glyph-name="uni0337" unicode="&#x337;" 
d="M-333 165v41l247 185v-40z" />
    <glyph glyph-name="uni0338" unicode="&#x338;" 
d="M-483 94l-23 16l398 569l22 -16z" />
    <glyph glyph-name="uni0394" unicode="&#x394;" horiz-adv-x="724" 
d="M26 0l301 750h70l301 -750h-672zM83 38h558l-273 684h-12z" />
    <glyph glyph-name="uni03A9" unicode="&#x3a9;" horiz-adv-x="828" 
d="M76 0v37h197v12q-37 21 -74 54.5t-65.5 79t-46.5 101t-18 119.5q0 74 26 138.5t72 112t109 75t138 27.5q74 0 137.5 -27.5t109.5 -75t72 -112t26 -139.5q0 -64 -18 -119.5t-46.5 -100.5t-65 -78.5t-74.5 -54.5v-12h197v-37h-245v55q39 20 76.5 52t67 75.5t47.5 97.5
t18 118q0 69 -23 127t-63.5 101t-95.5 67t-120 24t-120 -24t-95.5 -67t-63.5 -101t-23 -127q0 -64 18 -118t47.5 -97.5t67 -75.5t76.5 -52v-55h-245z" />
    <glyph glyph-name="uni03BC" unicode="&#x3bc;" horiz-adv-x="510" 
d="M390 472h40v-472h-38l-1 77q-22 -41 -60.5 -64t-89.5 -23q-84 0 -129 51v-284h-39v715h39v-304q0 -69 36 -106t100 -37t103 43.5t39 119.5v284z" />
    <glyph glyph-name="pi" unicode="&#x3c0;" horiz-adv-x="584" 
d="M69 0q30 63 47.5 118t26.5 107t11.5 104t2.5 109h-148l-2 34h572v-34h-109v-295q0 -33 2.5 -69.5t16.5 -73.5h-39q-13 37 -16 73.5t-3 68.5v296h-236q0 -57 -2.5 -109.5t-11.5 -105t-25.5 -107t-45.5 -116.5h-41z" />
    <glyph glyph-name="Wgrave" unicode="&#x1e80;" horiz-adv-x="957" 
d="M495 710h-33l-89 121h44zM882 680h43l-204 -680h-58l-185 627l-184 -627h-59l-204 680h43l192 -644l188 644h48l188 -644z" />
    <glyph glyph-name="wgrave" unicode="&#x1e81;" horiz-adv-x="790" 
d="M418 533h-33l-107 147h46zM714 472h42l-171 -472h-52l-138 433l-138 -433h-52l-171 472h42l155 -436l141 436h47l140 -436z" />
    <glyph glyph-name="Wacute" unicode="&#x1e82;" horiz-adv-x="957" 
d="M583 831l-88 -121h-34l78 121h44zM882 680h43l-204 -680h-58l-185 627l-184 -627h-59l-204 680h43l192 -644l188 644h48l188 -644z" />
    <glyph glyph-name="wacute" unicode="&#x1e83;" horiz-adv-x="790" 
d="M511 680l-106 -147h-34l95 147h45zM714 472h42l-171 -472h-52l-138 433l-138 -433h-52l-171 472h42l155 -436l141 436h47l140 -436z" />
    <glyph glyph-name="Wdieresis" unicode="&#x1e84;" horiz-adv-x="957" 
d="M403 737q-16 0 -27.5 11.5t-11.5 26.5q0 17 11.5 28t27.5 11q15 0 26.5 -11t11.5 -28q0 -15 -11.5 -26.5t-26.5 -11.5zM554 737q-16 0 -27.5 11.5t-11.5 26.5q0 17 11.5 28t27.5 11q15 0 26.5 -11t11.5 -28q0 -15 -11.5 -26.5t-26.5 -11.5zM882 680h43l-204 -680h-58
l-185 627l-184 -627h-59l-204 680h43l192 -644l188 644h48l188 -644z" />
    <glyph glyph-name="wdieresis" unicode="&#x1e85;" horiz-adv-x="790" 
d="M320 618q-16 0 -27.5 11t-11.5 27q0 17 11.5 27.5t27.5 10.5q15 0 26.5 -10.5t11.5 -27.5q0 -16 -11.5 -27t-26.5 -11zM471 618q-16 0 -27.5 11t-11.5 27q0 17 11.5 27.5t27.5 10.5q15 0 26.5 -10.5t11.5 -27.5q0 -16 -11.5 -27t-26.5 -11zM714 472h42l-171 -472h-52
l-138 433l-138 -433h-52l-171 472h42l155 -436l141 436h47l140 -436z" />
    <glyph glyph-name="uni1E9E" unicode="&#x1e9e;" horiz-adv-x="672" 
d="M389 360q42 -7 83 -18t73.5 -31t52 -51.5t19.5 -79.5q0 -44 -16.5 -79.5t-46.5 -60t-72.5 -38t-95.5 -13.5q-46 0 -83.5 8.5t-69.5 24.5l19 33q55 -29 133 -29q90 0 140.5 40.5t50.5 112.5q0 40 -17 65.5t-46 42t-66.5 26t-78.5 15.5l-80 13l224 302h-385v-643h-41v680
h472v-41l-205 -273z" />
    <glyph glyph-name="uni1EA0" unicode="&#x1ea0;" horiz-adv-x="637" 
d="M612 0h-43l-72 184h-357l-71 -184h-43l265 680h55zM154 220h329l-164 422zM319 -75q15 0 26.5 -11.5t11.5 -27.5t-11.5 -27t-26.5 -11q-16 0 -27.5 11t-11.5 27t11.5 27.5t27.5 11.5z" />
    <glyph glyph-name="uni1EA1" unicode="&#x1ea1;" horiz-adv-x="492" 
d="M477 35v-35h-26q-68 0 -68 72v36h-4q-23 -57 -68 -87.5t-111 -30.5t-104 32.5t-38 92.5q0 65 45 101t130 50l114 18q14 3 22.5 10t8.5 20q0 66 -35 100t-100 34q-121 0 -136 -109l-40 4q11 69 55.5 104t120.5 35q84 0 129 -44.5t45 -126.5v-225q0 -28 9.5 -39.5
t32.5 -11.5h18zM206 25q85 0 129 60t44 173l-141 -23q-141 -22 -141 -118q0 -45 28.5 -68.5t80.5 -23.5zM259 -75q15 0 26.5 -11.5t11.5 -27.5t-11.5 -27t-26.5 -11q-16 0 -27.5 11t-11.5 27t11.5 27.5t27.5 11.5z" />
    <glyph glyph-name="uni1EA2" unicode="&#x1ea2;" horiz-adv-x="637" 
d="M322 866q-17 0 -31.5 -5t-34.5 -18l-15 23q23 14 41.5 20t41.5 6q42 0 67 -20t25 -52q0 -29 -21.5 -47.5t-60.5 -27.5v-35h-31v52q43 8 62.5 22t19.5 35t-17 34t-46 13zM569 0l-72 184h-357l-71 -184h-43l265 680h55l266 -680h-43zM154 220h329l-164 422z" />
    <glyph glyph-name="uni1EA3" unicode="&#x1ea3;" horiz-adv-x="492" 
d="M244 667q-16 0 -31 -5t-36 -18l-15 24q25 14 44 20t41 6q43 0 68.5 -19.5t25.5 -52.5q0 -29 -21.5 -47.5t-60.5 -27.5v-34h-33v50q42 8 61.5 22t19.5 35t-17 34t-46 13zM477 35v-35h-26q-68 0 -68 72v36h-4q-23 -57 -68 -87.5t-111 -30.5t-104 32.5t-38 92.5q0 65 45 101
t130 50l114 18q14 3 22.5 10t8.5 20q0 66 -35 100t-100 34q-121 0 -136 -109l-40 4q11 69 55.5 104t120.5 35q84 0 129 -44.5t45 -126.5v-225q0 -28 9.5 -39.5t32.5 -11.5h18zM206 25q85 0 129 60t44 173l-141 -23q-141 -22 -141 -118q0 -45 28.5 -68.5t80.5 -23.5z" />
    <glyph glyph-name="uni1EA4" unicode="&#x1ea4;" horiz-adv-x="637" 
d="M319 813l-92 -85h-33l97 103h54l42 -44l69 107h44l-89 -121h-11l42 -45h-32zM569 0l-72 184h-357l-71 -184h-43l265 680h55l266 -680h-43zM154 220h329l-164 422z" />
    <glyph glyph-name="uni1EA5" unicode="&#x1ea5;" horiz-adv-x="492" 
d="M459 754l-106 -147h-34l95 147h45zM242 655l-87 -122h-33l96 147h47l96 -147h-32zM477 35v-35h-26q-68 0 -68 72v36h-4q-23 -57 -68 -87.5t-111 -30.5t-104 32.5t-38 92.5q0 65 45 101t130 50l114 18q14 3 22.5 10t8.5 20q0 66 -35 100t-100 34q-121 0 -136 -109l-40 4
q11 69 55.5 104t120.5 35q84 0 129 -44.5t45 -126.5v-225q0 -28 9.5 -39.5t32.5 -11.5h18zM206 25q85 0 129 60t44 173l-141 -23q-141 -22 -141 -118q0 -45 28.5 -68.5t80.5 -23.5z" />
    <glyph glyph-name="uni1EA6" unicode="&#x1ea6;" horiz-adv-x="637" 
d="M471 773h-34l-88 121h44zM319 813l-92 -85h-33l97 103h54l97 -103h-32zM569 0l-72 184h-357l-71 -184h-43l265 680h55l266 -680h-43zM154 220h329l-164 422z" />
    <glyph glyph-name="uni1EA7" unicode="&#x1ea7;" horiz-adv-x="492" 
d="M412 607h-33l-107 147h45zM242 655l-87 -122h-33l96 147h47l96 -147h-32zM477 35v-35h-26q-68 0 -68 72v36h-4q-23 -57 -68 -87.5t-111 -30.5t-104 32.5t-38 92.5q0 65 45 101t130 50l114 18q14 3 22.5 10t8.5 20q0 66 -35 100t-100 34q-121 0 -136 -109l-40 4
q11 69 55.5 104t120.5 35q84 0 129 -44.5t45 -126.5v-225q0 -28 9.5 -39.5t32.5 -11.5h18zM206 25q85 0 129 60t44 173l-141 -23q-141 -22 -141 -118q0 -45 28.5 -68.5t80.5 -23.5z" />
    <glyph glyph-name="uni1EA8" unicode="&#x1ea8;" horiz-adv-x="637" 
d="M445 915q-16 0 -30.5 -5t-35.5 -18l-14 23q23 14 41.5 20t40.5 6q42 0 67.5 -20t25.5 -52q0 -29 -21.5 -47.5t-60.5 -27.5v-34h-31v51q82 15 82 57q0 21 -17.5 34t-46.5 13zM319 813l-92 -85h-33l97 103h54l97 -103h-32zM569 0l-72 184h-357l-71 -184h-43l265 680h55
l266 -680h-43zM154 220h329l-164 422z" />
    <glyph glyph-name="uni1EA9" unicode="&#x1ea9;" horiz-adv-x="492" 
d="M346 761q-16 0 -31 -5t-37 -18l-14 24q24 14 43.5 20.5t41.5 6.5q43 0 68.5 -20t25.5 -53q0 -29 -21.5 -47t-60.5 -28v-34h-33v50q42 8 61.5 22t19.5 35t-17 34t-46 13zM242 655l-87 -122h-33l96 147h47l96 -147h-32zM477 35v-35h-26q-68 0 -68 72v36h-4
q-23 -57 -68 -87.5t-111 -30.5t-104 32.5t-38 92.5q0 65 45 101t130 50l114 18q14 3 22.5 10t8.5 20q0 66 -35 100t-100 34q-121 0 -136 -109l-40 4q11 69 55.5 104t120.5 35q84 0 129 -44.5t45 -126.5v-225q0 -28 9.5 -39.5t32.5 -11.5h18zM206 25q85 0 129 60t44 173
l-141 -23q-141 -22 -141 -118q0 -45 28.5 -68.5t80.5 -23.5z" />
    <glyph glyph-name="uni1EAA" unicode="&#x1eaa;" horiz-adv-x="637" 
d="M244 925q-28 0 -44.5 -22.5t-16.5 -59.5h-28q0 49 24.5 80t65.5 31q35 0 53 -16.5t32 -34.5q12 -16 25 -28t38 -12q27 0 43.5 23t16.5 59h28q0 -48 -24.5 -79.5t-64.5 -31.5q-35 0 -53 16.5t-31 33.5t-25.5 29t-38.5 12zM291 831h54l97 -103h-32l-92 85l-92 -85h-32z
M569 0l-72 184h-357l-71 -184h-43l265 680h55l266 -680h-43zM154 220h329l-164 422z" />
    <glyph glyph-name="uni1EAB" unicode="&#x1eab;" horiz-adv-x="492" 
d="M168 796q-28 0 -44.5 -23t-16.5 -59h-28q0 48 24.5 79.5t65.5 31.5q35 0 53 -17t32 -34q12 -17 25 -28.5t38 -11.5q27 0 43.5 22.5t16.5 58.5h28q0 -48 -24.5 -79.5t-64.5 -31.5q-35 0 -53 16.5t-31 33.5t-25.5 29.5t-38.5 12.5zM219 680h46l96 -147h-32l-87 122
l-87 -122h-32zM477 35v-35h-26q-68 0 -68 72v36h-4q-23 -57 -68 -87.5t-111 -30.5t-104 32.5t-38 92.5q0 65 45 101t130 50l114 18q14 3 22.5 10t8.5 20q0 66 -35 100t-100 34q-121 0 -136 -109l-40 4q11 69 55.5 104t120.5 35q84 0 129 -44.5t45 -126.5v-225
q0 -28 9.5 -39.5t32.5 -11.5h18zM206 25q85 0 129 60t44 173l-141 -23q-141 -22 -141 -118q0 -45 28.5 -68.5t80.5 -23.5z" />
    <glyph glyph-name="uni1EAC" unicode="&#x1eac;" horiz-adv-x="637" 
d="M319 813l-92 -85h-33l97 103h54l97 -103h-32zM612 0h-43l-72 184h-357l-71 -184h-43l265 680h55zM154 220h329l-164 422zM319 -75q15 0 26.5 -11.5t11.5 -27.5t-11.5 -27t-26.5 -11q-16 0 -27.5 11t-11.5 27t11.5 27.5t27.5 11.5z" />
    <glyph glyph-name="uni1EAD" unicode="&#x1ead;" horiz-adv-x="492" 
d="M242 655l-87 -122h-33l96 147h47l96 -147h-32zM477 35v-35h-26q-68 0 -68 72v36h-4q-23 -57 -68 -87.5t-111 -30.5t-104 32.5t-38 92.5q0 65 45 101t130 50l114 18q14 3 22.5 10t8.5 20q0 66 -35 100t-100 34q-121 0 -136 -109l-40 4q11 69 55.5 104t120.5 35
q84 0 129 -44.5t45 -126.5v-225q0 -28 9.5 -39.5t32.5 -11.5h18zM206 25q85 0 129 60t44 173l-141 -23q-141 -22 -141 -118q0 -45 28.5 -68.5t80.5 -23.5zM259 -75q15 0 26.5 -11.5t11.5 -27.5t-11.5 -27t-26.5 -11q-16 0 -27.5 11t-11.5 27t11.5 27.5t27.5 11.5z" />
    <glyph glyph-name="uni1EAE" unicode="&#x1eae;" horiz-adv-x="637" 
d="M423 930l-88 -121h-33l78 121h43zM317 719q-65 0 -106 26.5t-51 85.5h32q9 -45 41 -64.5t84 -19.5q54 0 86 19.5t41 64.5h32q-11 -59 -52 -85.5t-107 -26.5zM569 0l-72 184h-357l-71 -184h-43l265 680h55l266 -680h-43zM154 220h329l-164 422z" />
    <glyph glyph-name="uni1EAF" unicode="&#x1eaf;" horiz-adv-x="492" 
d="M359 798l-106 -147h-34l95 147h45zM242 523q-75 0 -118 41t-43 116h33q0 -60 33.5 -94t94.5 -34q62 0 95 34t33 94h34q0 -75 -43.5 -116t-118.5 -41zM477 35v-35h-26q-68 0 -68 72v36h-4q-23 -57 -68 -87.5t-111 -30.5t-104 32.5t-38 92.5q0 65 45 101t130 50l114 18
q14 3 22.5 10t8.5 20q0 66 -35 100t-100 34q-121 0 -136 -109l-40 4q11 69 55.5 104t120.5 35q84 0 129 -44.5t45 -126.5v-225q0 -28 9.5 -39.5t32.5 -11.5h18zM206 25q85 0 129 60t44 173l-141 -23q-141 -22 -141 -118q0 -45 28.5 -68.5t80.5 -23.5z" />
    <glyph glyph-name="uni1EB0" unicode="&#x1eb0;" horiz-adv-x="637" 
d="M335 809h-33l-88 121h43zM318 719q-66 0 -107 26.5t-51 85.5h32q9 -45 41 -64.5t85 -19.5t85 19.5t41 64.5h32q-10 -59 -51.5 -85.5t-106.5 -26.5zM569 0l-72 184h-357l-71 -184h-43l265 680h55l266 -680h-43zM154 220h329l-164 422z" />
    <glyph glyph-name="uni1EB1" unicode="&#x1eb1;" horiz-adv-x="492" 
d="M267 651h-34l-106 147h45zM242 523q-75 0 -118 41t-43 116h34q0 -60 33 -94t94 -34q62 0 95.5 34t33.5 94h33q0 -75 -43.5 -116t-118.5 -41zM477 35v-35h-26q-68 0 -68 72v36h-4q-23 -57 -68 -87.5t-111 -30.5t-104 32.5t-38 92.5q0 65 45 101t130 50l114 18
q14 3 22.5 10t8.5 20q0 66 -35 100t-100 34q-121 0 -136 -109l-40 4q11 69 55.5 104t120.5 35q84 0 129 -44.5t45 -126.5v-225q0 -28 9.5 -39.5t32.5 -11.5h18zM206 25q85 0 129 60t44 173l-141 -23q-141 -22 -141 -118q0 -45 28.5 -68.5t80.5 -23.5z" />
    <glyph glyph-name="uni1EB2" unicode="&#x1eb2;" horiz-adv-x="637" 
d="M321 952q-16 0 -30.5 -5t-35.5 -19l-14 23q23 14 41.5 20.5t40.5 6.5q42 0 67.5 -20t25.5 -52q0 -29 -21.5 -47.5t-60.5 -27.5v-35h-31v52q82 15 82 57q0 21 -17.5 34t-46.5 13zM317 719q-65 0 -106 26.5t-51 85.5h32q9 -45 41 -64.5t84 -19.5q54 0 86 19.5t41 64.5h32
q-11 -59 -52 -85.5t-107 -26.5zM569 0l-72 184h-357l-71 -184h-43l265 680h55l266 -680h-43zM154 220h329l-164 422z" />
    <glyph glyph-name="uni1EB3" unicode="&#x1eb3;" horiz-adv-x="492" 
d="M246 783q-16 0 -31 -5t-35 -19l-15 23q23 14 42 20.5t41 6.5q42 0 67 -20t25 -52q0 -29 -21.5 -47.5t-60.5 -28.5v-31h-30v49q42 7 61.5 21.5t19.5 35.5t-17 34t-46 13zM242 523q-75 0 -118 41t-43 116h33q0 -60 33.5 -94t94.5 -34q62 0 95 34t33 94h34q0 -75 -43.5 -116
t-118.5 -41zM477 35v-35h-26q-68 0 -68 72v36h-4q-23 -57 -68 -87.5t-111 -30.5t-104 32.5t-38 92.5q0 65 45 101t130 50l114 18q14 3 22.5 10t8.5 20q0 66 -35 100t-100 34q-121 0 -136 -109l-40 4q11 69 55.5 104t120.5 35q84 0 129 -44.5t45 -126.5v-225q0 -28 9.5 -39.5
t32.5 -11.5h18zM206 25q85 0 129 60t44 173l-141 -23q-141 -22 -141 -118q0 -45 28.5 -68.5t80.5 -23.5z" />
    <glyph glyph-name="uni1EB4" unicode="&#x1eb4;" horiz-adv-x="637" 
d="M245 952q-29 0 -45.5 -22.5t-16.5 -58.5h-27q0 48 24.5 79.5t65.5 31.5q35 0 53 -17t32 -34q12 -17 25 -29t38 -12q27 0 43.5 23t16.5 59h28q0 -48 -24.5 -79.5t-64.5 -31.5q-35 0 -53 16.5t-31 33.5t-25.5 29t-38.5 12zM318 747q54 0 86 19.5t41 64.5h31
q-10 -59 -51 -85.5t-107 -26.5q-65 0 -106.5 26.5t-50.5 85.5h31q10 -45 42 -64.5t84 -19.5zM569 0l-72 184h-357l-71 -184h-43l265 680h55l266 -680h-43zM154 220h329l-164 422z" />
    <glyph glyph-name="uni1EB5" unicode="&#x1eb5;" horiz-adv-x="492" 
d="M168 833q-29 0 -45.5 -22.5t-16.5 -59.5h-27q0 49 24.5 80t65.5 31q35 0 53 -16.5t32 -33.5q12 -17 25 -29t38 -12q27 0 43.5 23t16.5 59h28q0 -48 -24.5 -79.5t-64.5 -31.5q-35 0 -53 16.5t-31 33.5t-25.5 29t-38.5 12zM241 552q62 0 95.5 34t33.5 94h33
q0 -75 -43.5 -116t-118.5 -41q-74 0 -117 41t-43 116h33q0 -60 33.5 -94t93.5 -34zM477 35v-35h-26q-68 0 -68 72v36h-4q-23 -57 -68 -87.5t-111 -30.5t-104 32.5t-38 92.5q0 65 45 101t130 50l114 18q14 3 22.5 10t8.5 20q0 66 -35 100t-100 34q-121 0 -136 -109l-40 4
q11 69 55.5 104t120.5 35q84 0 129 -44.5t45 -126.5v-225q0 -28 9.5 -39.5t32.5 -11.5h18zM206 25q85 0 129 60t44 173l-141 -23q-141 -22 -141 -118q0 -45 28.5 -68.5t80.5 -23.5z" />
    <glyph glyph-name="uni1EB6" unicode="&#x1eb6;" horiz-adv-x="637" 
d="M317 719q-65 0 -106 26.5t-51 85.5h32q9 -45 41 -64.5t84 -19.5q54 0 86 19.5t41 64.5h32q-11 -59 -52 -85.5t-107 -26.5zM612 0h-43l-72 184h-357l-71 -184h-43l265 680h55zM154 220h329l-164 422zM319 -75q15 0 26.5 -11.5t11.5 -27.5t-11.5 -27t-26.5 -11
q-16 0 -27.5 11t-11.5 27t11.5 27.5t27.5 11.5z" />
    <glyph glyph-name="uni1EB7" unicode="&#x1eb7;" horiz-adv-x="492" 
d="M242 523q-75 0 -118 41t-43 116h33q0 -60 33.5 -94t94.5 -34q62 0 95 34t33 94h34q0 -75 -43.5 -116t-118.5 -41zM477 35v-35h-26q-68 0 -68 72v36h-4q-23 -57 -68 -87.5t-111 -30.5t-104 32.5t-38 92.5q0 65 45 101t130 50l114 18q14 3 22.5 10t8.5 20q0 66 -35 100
t-100 34q-121 0 -136 -109l-40 4q11 69 55.5 104t120.5 35q84 0 129 -44.5t45 -126.5v-225q0 -28 9.5 -39.5t32.5 -11.5h18zM206 25q85 0 129 60t44 173l-141 -23q-141 -22 -141 -118q0 -45 28.5 -68.5t80.5 -23.5zM259 -75q15 0 26.5 -11.5t11.5 -27.5t-11.5 -27t-26.5 -11
q-16 0 -27.5 11t-11.5 27t11.5 27.5t27.5 11.5z" />
    <glyph glyph-name="uni1EB8" unicode="&#x1eb8;" horiz-adv-x="482" 
d="M440 643h-313v-284h278v-38h-278v-283h313v-38h-354v680h354v-37zM270 -75q15 0 26.5 -11.5t11.5 -27.5t-11.5 -27t-26.5 -11q-16 0 -27.5 11t-11.5 27t11.5 27.5t27.5 11.5z" />
    <glyph glyph-name="uni1EB9" unicode="&#x1eb9;" horiz-adv-x="565" 
d="M511 227h-415q1 -45 15.5 -82t40 -64t60 -41.5t74.5 -14.5q57 0 100.5 28t66.5 78l37 -8q-27 -62 -80.5 -97.5t-123.5 -35.5q-50 0 -92.5 18t-73 51t-47.5 78t-17 99t17 99t47.5 78t72.5 51t92 18q49 0 90.5 -17.5t72 -50t47.5 -77.5t17 -100zM285 447q-39 0 -72.5 -13.5
t-58 -38t-39.5 -59t-18 -76.5h375q-3 42 -17.5 76.5t-39.5 59t-58 38t-72 13.5zM287 -75q15 0 26.5 -11.5t11.5 -27.5t-11.5 -27t-26.5 -11q-16 0 -27.5 11t-11.5 27t11.5 27.5t27.5 11.5z" />
    <glyph glyph-name="uni1EBA" unicode="&#x1eba;" horiz-adv-x="482" 
d="M273 866q-17 0 -31.5 -5t-34.5 -18l-15 23q23 14 41.5 20t41.5 6q42 0 67 -20t25 -52q0 -29 -21.5 -47.5t-60.5 -27.5v-35h-31v52q43 8 62.5 22t19.5 35t-17 34t-46 13zM440 643h-313v-284h278v-38h-278v-283h313v-38h-354v680h354v-37z" />
    <glyph glyph-name="uni1EBB" unicode="&#x1ebb;" horiz-adv-x="565" 
d="M286 667q-16 0 -31 -5t-36 -18l-15 24q25 14 44 20t41 6q43 0 68.5 -19.5t25.5 -52.5q0 -29 -21.5 -47.5t-60.5 -27.5v-34h-33v50q42 8 61.5 22t19.5 35t-17 34t-46 13zM511 227h-415q1 -45 15.5 -82t40 -64t60 -41.5t74.5 -14.5q57 0 100.5 28t66.5 78l37 -8
q-27 -62 -80.5 -97.5t-123.5 -35.5q-50 0 -92.5 18t-73 51t-47.5 78t-17 99t17 99t47.5 78t72.5 51t92 18q49 0 90.5 -17.5t72 -50t47.5 -77.5t17 -100zM285 447q-39 0 -72.5 -13.5t-58 -38t-39.5 -59t-18 -76.5h375q-3 42 -17.5 76.5t-39.5 59t-58 38t-72 13.5z" />
    <glyph glyph-name="uni1EBC" unicode="&#x1ebc;" horiz-adv-x="482" 
d="M195 802q-28 0 -44.5 -23t-16.5 -59h-28q0 48 25 79.5t66 31.5q35 0 53 -17t32 -34q12 -17 25 -28.5t38 -11.5q27 0 43.5 22.5t16.5 58.5h28q0 -48 -24.5 -79.5t-65.5 -31.5q-35 0 -52.5 16.5t-30.5 33.5t-26 29.5t-39 12.5zM440 643h-313v-284h278v-38h-278v-283h313
v-38h-354v680h354v-37z" />
    <glyph glyph-name="uni1EBD" unicode="&#x1ebd;" horiz-adv-x="565" 
d="M209 624q-28 0 -44.5 -22.5t-16.5 -58.5h-28q0 48 25 79t66 31q35 0 53 -16.5t32 -33.5q12 -17 25 -29t38 -12q27 0 43.5 23t16.5 59h28q0 -48 -24.5 -79.5t-65.5 -31.5q-35 0 -52.5 16.5t-30.5 33.5t-26 29t-39 12zM511 227h-415q1 -45 15.5 -82t40 -64t60 -41.5
t74.5 -14.5q57 0 100.5 28t66.5 78l37 -8q-27 -62 -80.5 -97.5t-123.5 -35.5q-50 0 -92.5 18t-73 51t-47.5 78t-17 99t17 99t47.5 78t72.5 51t92 18q49 0 90.5 -17.5t72 -50t47.5 -77.5t17 -100zM285 447q-39 0 -72.5 -13.5t-58 -38t-39.5 -59t-18 -76.5h375
q-3 42 -17.5 76.5t-39.5 59t-58 38t-72 13.5z" />
    <glyph glyph-name="uni1EBE" unicode="&#x1ebe;" horiz-adv-x="482" 
d="M270 813l-92 -85h-33l97 103h54l42 -44l69 107h44l-89 -121h-11l42 -45h-32zM86 0v680h354v-37h-313v-284h278v-38h-278v-283h313v-38h-354z" />
    <glyph glyph-name="uni1EBF" unicode="&#x1ebf;" horiz-adv-x="565" 
d="M501 754l-106 -147h-34l95 147h45zM284 655l-87 -122h-33l96 147h47l96 -147h-32zM511 227h-415q1 -45 15.5 -82t40 -64t60 -41.5t74.5 -14.5q57 0 100.5 28t66.5 78l37 -8q-27 -62 -80.5 -97.5t-123.5 -35.5q-50 0 -92.5 18t-73 51t-47.5 78t-17 99t17 99t47.5 78
t72.5 51t92 18q49 0 90.5 -17.5t72 -50t47.5 -77.5t17 -100zM285 447q-39 0 -72.5 -13.5t-58 -38t-39.5 -59t-18 -76.5h375q-3 42 -17.5 76.5t-39.5 59t-58 38t-72 13.5z" />
    <glyph glyph-name="uni1EC0" unicode="&#x1ec0;" horiz-adv-x="482" 
d="M422 773h-34l-88 121h44zM270 813l-92 -85h-33l97 103h54l97 -103h-32zM440 643h-313v-284h278v-38h-278v-283h313v-38h-354v680h354v-37z" />
    <glyph glyph-name="uni1EC1" unicode="&#x1ec1;" horiz-adv-x="565" 
d="M454 607h-33l-107 147h45zM284 655l-87 -122h-33l96 147h47l96 -147h-32zM511 227h-415q1 -45 15.5 -82t40 -64t60 -41.5t74.5 -14.5q57 0 100.5 28t66.5 78l37 -8q-27 -62 -80.5 -97.5t-123.5 -35.5q-50 0 -92.5 18t-73 51t-47.5 78t-17 99t17 99t47.5 78t72.5 51t92 18
q49 0 90.5 -17.5t72 -50t47.5 -77.5t17 -100zM285 447q-39 0 -72.5 -13.5t-58 -38t-39.5 -59t-18 -76.5h375q-3 42 -17.5 76.5t-39.5 59t-58 38t-72 13.5z" />
    <glyph glyph-name="uni1EC2" unicode="&#x1ec2;" horiz-adv-x="482" 
d="M398 941q42 0 67.5 -20t25.5 -52q0 -29 -21.5 -47.5t-60.5 -27.5v-34h-31v51q82 15 82 57q0 21 -17.5 34t-46.5 13q-16 0 -30.5 -5t-35.5 -18l-14 23q23 14 41.5 20t40.5 6zM270 813l-92 -85h-33l97 103h54l97 -103h-32zM86 0v680h354v-37h-313v-284h278v-38h-278v-283
h313v-38h-354z" />
    <glyph glyph-name="uni1EC3" unicode="&#x1ec3;" horiz-adv-x="565" 
d="M388 761q-16 0 -31 -5t-37 -18l-14 24q24 14 43.5 20.5t41.5 6.5q43 0 68.5 -20t25.5 -53q0 -29 -21.5 -47t-60.5 -28v-34h-33v50q42 8 61.5 22t19.5 35t-17 34t-46 13zM284 655l-87 -122h-33l96 147h47l96 -147h-32zM511 227h-415q1 -45 15.5 -82t40 -64t60 -41.5
t74.5 -14.5q57 0 100.5 28t66.5 78l37 -8q-27 -62 -80.5 -97.5t-123.5 -35.5q-50 0 -92.5 18t-73 51t-47.5 78t-17 99t17 99t47.5 78t72.5 51t92 18q49 0 90.5 -17.5t72 -50t47.5 -77.5t17 -100zM285 447q-39 0 -72.5 -13.5t-58 -38t-39.5 -59t-18 -76.5h375
q-3 42 -17.5 76.5t-39.5 59t-58 38t-72 13.5z" />
    <glyph glyph-name="uni1EC4" unicode="&#x1ec4;" horiz-adv-x="482" 
d="M196 925q-28 0 -44.5 -22.5t-16.5 -59.5h-28q0 49 24.5 80t65.5 31q35 0 53 -16.5t32 -34.5q12 -16 25 -28t38 -12q27 0 43.5 23t16.5 59h28q0 -48 -24.5 -79.5t-64.5 -31.5q-35 0 -53 16.5t-31 33.5t-25.5 29t-38.5 12zM243 831h54l97 -103h-32l-92 85l-92 -85h-32z
M440 643h-313v-284h278v-38h-278v-283h313v-38h-354v680h354v-37z" />
    <glyph glyph-name="uni1EC5" unicode="&#x1ec5;" horiz-adv-x="565" 
d="M210 796q-28 0 -44.5 -23t-16.5 -59h-28q0 48 24.5 79.5t65.5 31.5q35 0 53 -17t32 -34q12 -17 25 -28.5t38 -11.5q27 0 43.5 22.5t16.5 58.5h28q0 -48 -24.5 -79.5t-64.5 -31.5q-35 0 -53 16.5t-31 33.5t-25.5 29.5t-38.5 12.5zM261 680h46l96 -147h-32l-87 122
l-87 -122h-32zM511 227h-415q1 -45 15.5 -82t40 -64t60 -41.5t74.5 -14.5q57 0 100.5 28t66.5 78l37 -8q-27 -62 -80.5 -97.5t-123.5 -35.5q-50 0 -92.5 18t-73 51t-47.5 78t-17 99t17 99t47.5 78t72.5 51t92 18q49 0 90.5 -17.5t72 -50t47.5 -77.5t17 -100zM285 447
q-39 0 -72.5 -13.5t-58 -38t-39.5 -59t-18 -76.5h375q-3 42 -17.5 76.5t-39.5 59t-58 38t-72 13.5z" />
    <glyph glyph-name="uni1EC6" unicode="&#x1ec6;" horiz-adv-x="482" 
d="M270 813l-92 -85h-33l97 103h54l97 -103h-32zM440 643h-313v-284h278v-38h-278v-283h313v-38h-354v680h354v-37zM270 -75q15 0 26.5 -11.5t11.5 -27.5t-11.5 -27t-26.5 -11q-16 0 -27.5 11t-11.5 27t11.5 27.5t27.5 11.5z" />
    <glyph glyph-name="uni1EC7" unicode="&#x1ec7;" horiz-adv-x="565" 
d="M284 655l-87 -122h-33l96 147h47l96 -147h-32zM511 227h-415q1 -45 15.5 -82t40 -64t60 -41.5t74.5 -14.5q57 0 100.5 28t66.5 78l37 -8q-27 -62 -80.5 -97.5t-123.5 -35.5q-50 0 -92.5 18t-73 51t-47.5 78t-17 99t17 99t47.5 78t72.5 51t92 18q49 0 90.5 -17.5t72 -50
t47.5 -77.5t17 -100zM285 447q-39 0 -72.5 -13.5t-58 -38t-39.5 -59t-18 -76.5h375q-3 42 -17.5 76.5t-39.5 59t-58 38t-72 13.5zM287 -75q15 0 26.5 -11.5t11.5 -27.5t-11.5 -27t-26.5 -11q-16 0 -27.5 11t-11.5 27t11.5 27.5t27.5 11.5z" />
    <glyph glyph-name="uni1EC8" unicode="&#x1ec8;" horiz-adv-x="213" 
d="M91 710v52q43 8 62.5 22t19.5 35t-17 34t-46 13q-17 0 -31.5 -5t-34.5 -18l-15 23q23 14 41.5 20t41.5 6q42 0 67 -20t25 -52q0 -29 -21.5 -47.5t-60.5 -27.5v-35h-31zM86 0v680h41v-680h-41z" />
    <glyph glyph-name="uni1EC9" unicode="&#x1ec9;" horiz-adv-x="197" 
d="M82 513v50q42 8 61.5 22t19.5 35t-17 34t-46 13q-16 0 -31 -5t-36 -18l-15 24q25 14 44 20t41 6q43 0 68.5 -19.5t25.5 -52.5q0 -29 -21.5 -47.5t-60.5 -27.5v-34h-33zM78 0v472h40v-472h-40z" />
    <glyph glyph-name="uni1ECA" unicode="&#x1eca;" horiz-adv-x="213" 
d="M86 0v680h41v-680h-41zM107 -152q-16 0 -27.5 11t-11.5 27t11.5 27.5t27.5 11.5q15 0 26.5 -11.5t11.5 -27.5t-11.5 -27t-26.5 -11z" />
    <glyph glyph-name="uni1ECB" unicode="&#x1ecb;" horiz-adv-x="197" 
d="M99 618q-16 0 -27.5 11t-11.5 27q0 17 11.5 27.5t27.5 10.5q15 0 26.5 -10.5t11.5 -27.5q0 -16 -11.5 -27t-26.5 -11zM78 0v472h40v-472h-40zM99 -152q-16 0 -27.5 11t-11.5 27t11.5 27.5t27.5 11.5q15 0 26.5 -11.5t11.5 -27.5t-11.5 -27t-26.5 -11z" />
    <glyph glyph-name="uni1ECC" unicode="&#x1ecc;" horiz-adv-x="784" 
d="M392 -11q-75 0 -136.5 25.5t-106 72t-69 111.5t-24.5 143t24.5 142.5t69 110.5t106 71.5t136.5 25.5q74 0 136 -25.5t106 -71.5t68.5 -110.5t24.5 -142.5t-24.5 -143t-68.5 -111.5t-106 -72t-136 -25.5zM392 28q66 0 120 22.5t92.5 64t60 99t21.5 127.5t-21.5 127t-60 98
t-92.5 63.5t-120 22.5t-120.5 -22.5t-93 -63.5t-60 -98t-21.5 -127t21.5 -127.5t60 -99t93 -64t120.5 -22.5zM392 -152q-16 0 -27.5 11t-11.5 27t11.5 27.5t27.5 11.5q15 0 26.5 -11.5t11.5 -27.5t-11.5 -27t-26.5 -11z" />
    <glyph glyph-name="uni1ECD" unicode="&#x1ecd;" horiz-adv-x="574" 
d="M287 -10q-50 0 -92.5 18t-73 51t-48 78t-17.5 99t17.5 99t48 77.5t73 51t92.5 18.5t92 -18.5t73 -51t48 -77.5t17 -99t-17 -99t-48 -78t-73 -51t-92 -18zM287 25q42 0 76.5 15.5t60 43.5t39.5 67t14 85t-14 85t-39.5 67t-60 43.5t-76.5 15.5t-77 -15.5t-60.5 -43.5
t-39.5 -67t-14 -85t14 -85t39.5 -67t60.5 -43.5t77 -15.5zM287 -152q-16 0 -27.5 11t-11.5 27t11.5 27.5t27.5 11.5q15 0 26.5 -11.5t11.5 -27.5t-11.5 -27t-26.5 -11z" />
    <glyph glyph-name="uni1ECE" unicode="&#x1ece;" horiz-adv-x="784" 
d="M376 710v52q43 8 62.5 22t19.5 35t-17 34t-46 13q-17 0 -31.5 -5t-34.5 -18l-15 23q23 14 41.5 20t41.5 6q42 0 67 -20t25 -52q0 -29 -21.5 -47.5t-60.5 -27.5v-35h-31zM392 -11q-75 0 -136.5 25.5t-106 72t-69 111.5t-24.5 143t24.5 142.5t69 110.5t106 71.5t136.5 25.5
q74 0 136 -25.5t106 -71.5t68.5 -110.5t24.5 -142.5t-24.5 -143t-68.5 -111.5t-106 -72t-136 -25.5zM392 28q66 0 120 22.5t92.5 64t60 99t21.5 127.5t-21.5 127t-60 98t-92.5 63.5t-120 22.5t-120.5 -22.5t-93 -63.5t-60 -98t-21.5 -127t21.5 -127.5t60 -99t93 -64
t120.5 -22.5z" />
    <glyph glyph-name="uni1ECF" unicode="&#x1ecf;" horiz-adv-x="574" 
d="M271 513v50q42 8 61.5 22t19.5 35t-17 34t-46 13q-16 0 -31 -5t-36 -18l-15 24q25 14 44 20t41 6q43 0 68.5 -19.5t25.5 -52.5q0 -29 -21.5 -47.5t-60.5 -27.5v-34h-33zM287 -10q-50 0 -92.5 18t-73 51t-48 78t-17.5 99t17.5 99t48 77.5t73 51t92.5 18.5t92 -18.5t73 -51
t48 -77.5t17 -99t-17 -99t-48 -78t-73 -51t-92 -18zM287 25q42 0 76.5 15.5t60 43.5t39.5 67t14 85t-14 85t-39.5 67t-60 43.5t-76.5 15.5t-77 -15.5t-60.5 -43.5t-39.5 -67t-14 -85t14 -85t39.5 -67t60.5 -43.5t77 -15.5z" />
    <glyph glyph-name="uni1ED0" unicode="&#x1ed0;" horiz-adv-x="784" 
d="M392 813l-92 -85h-33l97 103h54l42 -44l69 107h44l-89 -121h-11l42 -45h-32zM392 691q74 0 136 -25.5t106 -71.5t68.5 -110.5t24.5 -142.5t-24.5 -143t-68.5 -111.5t-106 -72t-136 -25.5q-75 0 -136.5 25.5t-106 72t-69 111.5t-24.5 143t24.5 142.5t69 110.5t106 71.5
t136.5 25.5zM392 28q66 0 120 22.5t92.5 64t60 99t21.5 127.5t-21.5 127t-60 98t-92.5 63.5t-120 22.5t-120.5 -22.5t-93 -63.5t-60 -98t-21.5 -127t21.5 -127.5t60 -99t93 -64t120.5 -22.5z" />
    <glyph glyph-name="uni1ED1" unicode="&#x1ed1;" horiz-adv-x="574" 
d="M364 607l95 147h45l-106 -147h-34zM167 533l96 147h47l96 -147h-32l-87 122l-87 -122h-33zM287 -10q-50 0 -92.5 18t-73 51t-48 78t-17.5 99t17.5 99t48 77.5t73 51t92.5 18.5t92 -18.5t73 -51t48 -77.5t17 -99t-17 -99t-48 -78t-73 -51t-92 -18zM287 25q42 0 76.5 15.5
t60 43.5t39.5 67t14 85t-14 85t-39.5 67t-60 43.5t-76.5 15.5t-77 -15.5t-60.5 -43.5t-39.5 -67t-14 -85t14 -85t39.5 -67t60.5 -43.5t77 -15.5z" />
    <glyph glyph-name="uni1ED2" unicode="&#x1ed2;" horiz-adv-x="784" 
d="M510 773l-88 121h44l78 -121h-34zM267 728l97 103h54l97 -103h-32l-91 85l-92 -85h-33zM392 -11q-75 0 -136.5 25.5t-106 72t-69 111.5t-24.5 143t24.5 142.5t69 110.5t106 71.5t136.5 25.5q74 0 136 -25.5t106 -71.5t68.5 -110.5t24.5 -142.5t-24.5 -143t-68.5 -111.5
t-106 -72t-136 -25.5zM392 28q66 0 120 22.5t92.5 64t60 99t21.5 127.5t-21.5 127t-60 98t-92.5 63.5t-120 22.5t-120.5 -22.5t-93 -63.5t-60 -98t-21.5 -127t21.5 -127.5t60 -99t93 -64t120.5 -22.5z" />
    <glyph glyph-name="uni1ED3" unicode="&#x1ed3;" horiz-adv-x="574" 
d="M424 607l-107 147h45l95 -147h-33zM167 533l96 147h47l96 -147h-32l-87 122l-87 -122h-33zM287 -10q-50 0 -92.5 18t-73 51t-48 78t-17.5 99t17.5 99t48 77.5t73 51t92.5 18.5t92 -18.5t73 -51t48 -77.5t17 -99t-17 -99t-48 -78t-73 -51t-92 -18zM287 25q42 0 76.5 15.5
t60 43.5t39.5 67t14 85t-14 85t-39.5 67t-60 43.5t-76.5 15.5t-77 -15.5t-60.5 -43.5t-39.5 -67t-14 -85t14 -85t39.5 -67t60.5 -43.5t77 -15.5z" />
    <glyph glyph-name="uni1ED4" unicode="&#x1ed4;" horiz-adv-x="784" 
d="M531 760h-31v51q82 15 82 57q0 21 -17.5 34t-46.5 13q-16 0 -30.5 -5t-35.5 -18l-14 23q23 14 41.5 20t40.5 6q42 0 67.5 -20t25.5 -52q0 -29 -21.5 -47.5t-60.5 -27.5v-34zM300 728h-33l97 103h54l97 -103h-32l-91 85zM392 -11q-75 0 -136.5 25.5t-106 72t-69 111.5
t-24.5 143t24.5 142.5t69 110.5t106 71.5t136.5 25.5q74 0 136 -25.5t106 -71.5t68.5 -110.5t24.5 -142.5t-24.5 -143t-68.5 -111.5t-106 -72t-136 -25.5zM392 28q66 0 120 22.5t92.5 64t60 99t21.5 127.5t-21.5 127t-60 98t-92.5 63.5t-120 22.5t-120.5 -22.5t-93 -63.5
t-60 -98t-21.5 -127t21.5 -127.5t60 -99t93 -64t120.5 -22.5z" />
    <glyph glyph-name="uni1ED5" unicode="&#x1ed5;" horiz-adv-x="574" 
d="M406 607h-33v50q42 8 61.5 22t19.5 35t-17 34t-46 13q-16 0 -31 -5t-37 -18l-14 24q24 14 43.5 20.5t41.5 6.5q43 0 68.5 -20t25.5 -53q0 -29 -21.5 -47t-60.5 -28v-34zM167 533l96 147h47l96 -147h-32l-87 122l-87 -122h-33zM287 -10q-50 0 -92.5 18t-73 51t-48 78
t-17.5 99t17.5 99t48 77.5t73 51t92.5 18.5t92 -18.5t73 -51t48 -77.5t17 -99t-17 -99t-48 -78t-73 -51t-92 -18zM287 25q42 0 76.5 15.5t60 43.5t39.5 67t14 85t-14 85t-39.5 67t-60 43.5t-76.5 15.5t-77 -15.5t-60.5 -43.5t-39.5 -67t-14 -85t14 -85t39.5 -67t60.5 -43.5
t77 -15.5z" />
    <glyph glyph-name="uni1ED6" unicode="&#x1ed6;" horiz-adv-x="784" 
d="M465 834q-35 0 -53 16.5t-31 33.5t-25.5 29t-38.5 12q-28 0 -44.5 -22.5t-16.5 -59.5h-28q0 49 24.5 80t65.5 31q35 0 53 -16.5t32 -34.5q12 -16 25 -28t38 -12q27 0 43.5 23t16.5 59h28q0 -48 -24.5 -79.5t-64.5 -31.5zM299 728h-32l97 103h54l97 -103h-32l-92 85z
M392 -11q-75 0 -136.5 25.5t-106 72t-69 111.5t-24.5 143t24.5 142.5t69 110.5t106 71.5t136.5 25.5q74 0 136 -25.5t106 -71.5t68.5 -110.5t24.5 -142.5t-24.5 -143t-68.5 -111.5t-106 -72t-136 -25.5zM392 28q66 0 120 22.5t92.5 64t60 99t21.5 127.5t-21.5 127t-60 98
t-92.5 63.5t-120 22.5t-120.5 -22.5t-93 -63.5t-60 -98t-21.5 -127t21.5 -127.5t60 -99t93 -64t120.5 -22.5z" />
    <glyph glyph-name="uni1ED7" unicode="&#x1ed7;" horiz-adv-x="574" 
d="M360 704q-35 0 -53 16.5t-31 33.5t-25.5 29.5t-38.5 12.5q-28 0 -44.5 -23t-16.5 -59h-28q0 48 24.5 79.5t65.5 31.5q35 0 53 -17t32 -34q12 -17 25 -28.5t38 -11.5q27 0 43.5 22.5t16.5 58.5h28q0 -48 -24.5 -79.5t-64.5 -31.5zM199 533h-32l96 147h46l96 -147h-32
l-87 122zM287 -10q-50 0 -92.5 18t-73 51t-48 78t-17.5 99t17.5 99t48 77.5t73 51t92.5 18.5t92 -18.5t73 -51t48 -77.5t17 -99t-17 -99t-48 -78t-73 -51t-92 -18zM287 25q42 0 76.5 15.5t60 43.5t39.5 67t14 85t-14 85t-39.5 67t-60 43.5t-76.5 15.5t-77 -15.5t-60.5 -43.5
t-39.5 -67t-14 -85t14 -85t39.5 -67t60.5 -43.5t77 -15.5z" />
    <glyph glyph-name="uni1ED8" unicode="&#x1ed8;" horiz-adv-x="784" 
d="M267 728l97 103h54l97 -103h-32l-91 85l-92 -85h-33zM392 -11q-75 0 -136.5 25.5t-106 72t-69 111.5t-24.5 143t24.5 142.5t69 110.5t106 71.5t136.5 25.5q74 0 136 -25.5t106 -71.5t68.5 -110.5t24.5 -142.5t-24.5 -143t-68.5 -111.5t-106 -72t-136 -25.5zM392 28
q66 0 120 22.5t92.5 64t60 99t21.5 127.5t-21.5 127t-60 98t-92.5 63.5t-120 22.5t-120.5 -22.5t-93 -63.5t-60 -98t-21.5 -127t21.5 -127.5t60 -99t93 -64t120.5 -22.5zM392 -152q-16 0 -27.5 11t-11.5 27t11.5 27.5t27.5 11.5q15 0 26.5 -11.5t11.5 -27.5t-11.5 -27
t-26.5 -11z" />
    <glyph glyph-name="uni1ED9" unicode="&#x1ed9;" horiz-adv-x="574" 
d="M167 533l96 147h47l96 -147h-32l-87 122l-87 -122h-33zM287 -10q-50 0 -92.5 18t-73 51t-48 78t-17.5 99t17.5 99t48 77.5t73 51t92.5 18.5t92 -18.5t73 -51t48 -77.5t17 -99t-17 -99t-48 -78t-73 -51t-92 -18zM287 25q42 0 76.5 15.5t60 43.5t39.5 67t14 85t-14 85
t-39.5 67t-60 43.5t-76.5 15.5t-77 -15.5t-60.5 -43.5t-39.5 -67t-14 -85t14 -85t39.5 -67t60.5 -43.5t77 -15.5zM287 -152q-16 0 -27.5 11t-11.5 27t11.5 27.5t27.5 11.5q15 0 26.5 -11.5t11.5 -27.5t-11.5 -27t-26.5 -11z" />
    <glyph glyph-name="uni1EDA" unicode="&#x1eda;" horiz-adv-x="784" 
d="M497 831l-88 -121h-34l78 121h44zM734 677h33v-50q0 -44 -16 -67t-50 -23q-12 0 -26 3q25 -42 38.5 -91.5t13.5 -107.5q0 -78 -24.5 -143t-68.5 -111.5t-106 -72t-136 -25.5q-75 0 -136.5 25.5t-106 72t-69 111.5t-24.5 143t24.5 142.5t69 110.5t106 71.5t136.5 25.5
q81 0 145.5 -29t109.5 -83q14 -7 25.5 -11t24.5 -4q25 0 31 17t6 48v48zM392 28q66 0 120 22.5t92.5 64t60 99t21.5 127.5t-21.5 127t-60 98t-92.5 63.5t-120 22.5t-120.5 -22.5t-93 -63.5t-60 -98t-21.5 -127t21.5 -127.5t60 -99t93 -64t120.5 -22.5z" />
    <glyph glyph-name="uni1EDB" unicode="&#x1edb;" horiz-adv-x="574" 
d="M403 680l-106 -147h-34l95 147h45zM533 517h33v-50q0 -44 -16 -67t-50 -23q-6 0 -11.5 0.5t-10.5 1.5q39 -61 39 -143q0 -54 -17 -99t-48 -78t-73 -51t-92 -18t-92.5 18t-73 51t-48 78t-17.5 99t17.5 99t48 77.5t73 51t92.5 18.5q48 0 87.5 -16.5t69.5 -45.5
q14 -8 26.5 -12t25.5 -4q25 0 31 17t6 48v48zM287 25q42 0 76.5 15.5t60 43.5t39.5 67t14 85t-14 85t-39.5 67t-60 43.5t-76.5 15.5t-77 -15.5t-60.5 -43.5t-39.5 -67t-14 -85t14 -85t39.5 -67t60.5 -43.5t77 -15.5z" />
    <glyph glyph-name="uni1EDC" unicode="&#x1edc;" horiz-adv-x="784" 
d="M408 710h-33l-89 121h44zM734 677h33v-50q0 -44 -16 -67t-50 -23q-12 0 -26 3q25 -42 38.5 -91.5t13.5 -107.5q0 -78 -24.5 -143t-68.5 -111.5t-106 -72t-136 -25.5q-75 0 -136.5 25.5t-106 72t-69 111.5t-24.5 143t24.5 142.5t69 110.5t106 71.5t136.5 25.5
q81 0 145.5 -29t109.5 -83q14 -7 25.5 -11t24.5 -4q25 0 31 17t6 48v48zM392 28q66 0 120 22.5t92.5 64t60 99t21.5 127.5t-21.5 127t-60 98t-92.5 63.5t-120 22.5t-120.5 -22.5t-93 -63.5t-60 -98t-21.5 -127t21.5 -127.5t60 -99t93 -64t120.5 -22.5z" />
    <glyph glyph-name="uni1EDD" unicode="&#x1edd;" horiz-adv-x="574" 
d="M310 533h-33l-107 147h46zM533 517h33v-50q0 -44 -16 -67t-50 -23q-6 0 -11.5 0.5t-10.5 1.5q39 -61 39 -143q0 -54 -17 -99t-48 -78t-73 -51t-92 -18t-92.5 18t-73 51t-48 78t-17.5 99t17.5 99t48 77.5t73 51t92.5 18.5q48 0 87.5 -16.5t69.5 -45.5q14 -8 26.5 -12
t25.5 -4q25 0 31 17t6 48v48zM287 25q42 0 76.5 15.5t60 43.5t39.5 67t14 85t-14 85t-39.5 67t-60 43.5t-76.5 15.5t-77 -15.5t-60.5 -43.5t-39.5 -67t-14 -85t14 -85t39.5 -67t60.5 -43.5t77 -15.5z" />
    <glyph glyph-name="uni1EDE" unicode="&#x1ede;" horiz-adv-x="784" 
d="M395 866q-17 0 -31.5 -5t-34.5 -18l-15 23q23 14 41.5 20t41.5 6q42 0 67 -20t25 -52q0 -29 -21.5 -47.5t-60.5 -27.5v-35h-31v52q43 8 62.5 22t19.5 35t-17 34t-46 13zM734 677h33v-50q0 -44 -16 -67t-50 -23q-12 0 -26 3q25 -42 38.5 -91.5t13.5 -107.5
q0 -78 -24.5 -143t-68.5 -111.5t-106 -72t-136 -25.5q-75 0 -136.5 25.5t-106 72t-69 111.5t-24.5 143t24.5 142.5t69 110.5t106 71.5t136.5 25.5q81 0 145.5 -29t109.5 -83q14 -7 25.5 -11t24.5 -4q25 0 31 17t6 48v48zM392 28q66 0 120 22.5t92.5 64t60 99t21.5 127.5
t-21.5 127t-60 98t-92.5 63.5t-120 22.5t-120.5 -22.5t-93 -63.5t-60 -98t-21.5 -127t21.5 -127.5t60 -99t93 -64t120.5 -22.5z" />
    <glyph glyph-name="uni1EDF" unicode="&#x1edf;" horiz-adv-x="574" 
d="M289 667q-16 0 -31 -5t-36 -18l-15 24q25 14 44 20t41 6q43 0 68.5 -19.5t25.5 -52.5q0 -29 -21.5 -47.5t-60.5 -27.5v-34h-33v50q42 8 61.5 22t19.5 35t-17 34t-46 13zM533 517h33v-50q0 -44 -16 -67t-50 -23q-6 0 -11.5 0.5t-10.5 1.5q39 -61 39 -143q0 -54 -17 -99
t-48 -78t-73 -51t-92 -18t-92.5 18t-73 51t-48 78t-17.5 99t17.5 99t48 77.5t73 51t92.5 18.5q48 0 87.5 -16.5t69.5 -45.5q14 -8 26.5 -12t25.5 -4q25 0 31 17t6 48v48zM287 25q42 0 76.5 15.5t60 43.5t39.5 67t14 85t-14 85t-39.5 67t-60 43.5t-76.5 15.5t-77 -15.5
t-60.5 -43.5t-39.5 -67t-14 -85t14 -85t39.5 -67t60.5 -43.5t77 -15.5z" />
    <glyph glyph-name="uni1EE0" unicode="&#x1ee0;" horiz-adv-x="784" 
d="M317 802q-28 0 -44.5 -23t-16.5 -59h-28q0 48 25 79.5t66 31.5q35 0 53 -17t32 -34q12 -17 25 -28.5t38 -11.5q27 0 43.5 22.5t16.5 58.5h28q0 -48 -24.5 -79.5t-65.5 -31.5q-35 0 -52.5 16.5t-30.5 33.5t-26 29.5t-39 12.5zM734 677h33v-50q0 -44 -16 -67t-50 -23
q-12 0 -26 3q25 -42 38.5 -91.5t13.5 -107.5q0 -78 -24.5 -143t-68.5 -111.5t-106 -72t-136 -25.5q-75 0 -136.5 25.5t-106 72t-69 111.5t-24.5 143t24.5 142.5t69 110.5t106 71.5t136.5 25.5q81 0 145.5 -29t109.5 -83q14 -7 25.5 -11t24.5 -4q25 0 31 17t6 48v48zM392 28
q66 0 120 22.5t92.5 64t60 99t21.5 127.5t-21.5 127t-60 98t-92.5 63.5t-120 22.5t-120.5 -22.5t-93 -63.5t-60 -98t-21.5 -127t21.5 -127.5t60 -99t93 -64t120.5 -22.5z" />
    <glyph glyph-name="uni1EE1" unicode="&#x1ee1;" horiz-adv-x="574" 
d="M212 624q-28 0 -44.5 -22.5t-16.5 -58.5h-28q0 48 25 79t66 31q35 0 53 -16.5t32 -33.5q12 -17 25 -29t38 -12q27 0 43.5 23t16.5 59h28q0 -48 -24.5 -79.5t-65.5 -31.5q-35 0 -52.5 16.5t-30.5 33.5t-26 29t-39 12zM533 517h33v-50q0 -44 -16 -67t-50 -23
q-6 0 -11.5 0.5t-10.5 1.5q39 -61 39 -143q0 -54 -17 -99t-48 -78t-73 -51t-92 -18t-92.5 18t-73 51t-48 78t-17.5 99t17.5 99t48 77.5t73 51t92.5 18.5q48 0 87.5 -16.5t69.5 -45.5q14 -8 26.5 -12t25.5 -4q25 0 31 17t6 48v48zM287 25q42 0 76.5 15.5t60 43.5t39.5 67
t14 85t-14 85t-39.5 67t-60 43.5t-76.5 15.5t-77 -15.5t-60.5 -43.5t-39.5 -67t-14 -85t14 -85t39.5 -67t60.5 -43.5t77 -15.5z" />
    <glyph glyph-name="uni1EE2" unicode="&#x1ee2;" horiz-adv-x="784" 
d="M734 677h33v-50q0 -44 -16 -67t-50 -23q-12 0 -26 3q25 -42 38.5 -91.5t13.5 -107.5q0 -78 -24.5 -143t-68.5 -111.5t-106 -72t-136 -25.5q-75 0 -136.5 25.5t-106 72t-69 111.5t-24.5 143t24.5 142.5t69 110.5t106 71.5t136.5 25.5q81 0 145.5 -29t109.5 -83
q14 -7 25.5 -11t24.5 -4q25 0 31 17t6 48v48zM392 28q66 0 120 22.5t92.5 64t60 99t21.5 127.5t-21.5 127t-60 98t-92.5 63.5t-120 22.5t-120.5 -22.5t-93 -63.5t-60 -98t-21.5 -127t21.5 -127.5t60 -99t93 -64t120.5 -22.5zM392 -75q15 0 26.5 -11.5t11.5 -27.5t-11.5 -27
t-26.5 -11q-16 0 -27.5 11t-11.5 27t11.5 27.5t27.5 11.5z" />
    <glyph glyph-name="uni1EE3" unicode="&#x1ee3;" horiz-adv-x="574" 
d="M533 517h33v-50q0 -44 -16 -67t-50 -23q-6 0 -11.5 0.5t-10.5 1.5q39 -61 39 -143q0 -54 -17 -99t-48 -78t-73 -51t-92 -18t-92.5 18t-73 51t-48 78t-17.5 99t17.5 99t48 77.5t73 51t92.5 18.5q48 0 87.5 -16.5t69.5 -45.5q14 -8 26.5 -12t25.5 -4q25 0 31 17t6 48v48z
M287 25q42 0 76.5 15.5t60 43.5t39.5 67t14 85t-14 85t-39.5 67t-60 43.5t-76.5 15.5t-77 -15.5t-60.5 -43.5t-39.5 -67t-14 -85t14 -85t39.5 -67t60.5 -43.5t77 -15.5zM287 -75q15 0 26.5 -11.5t11.5 -27.5t-11.5 -27t-26.5 -11q-16 0 -27.5 11t-11.5 27t11.5 27.5
t27.5 11.5z" />
    <glyph glyph-name="uni1EE4" unicode="&#x1ee4;" horiz-adv-x="649" 
d="M324 -11q-54 0 -99.5 17t-78 48.5t-50.5 75.5t-18 99v451h41v-448q0 -47 15 -84.5t42 -64t64.5 -41t83.5 -14.5t84 14.5t65 41t42 64t15 84.5v448h40v-451q0 -55 -18 -99t-50.5 -75.5t-78 -48.5t-99.5 -17zM325 -152q-16 0 -27.5 11t-11.5 27t11.5 27.5t27.5 11.5
q15 0 26.5 -11.5t11.5 -27.5t-11.5 -27t-26.5 -11z" />
    <glyph glyph-name="uni1EE5" unicode="&#x1ee5;" horiz-adv-x="510" 
d="M391 472h39v-472h-39v77q-22 -42 -60.5 -64.5t-89.5 -22.5q-81 0 -124.5 45.5t-43.5 127.5v309h39v-304q0 -69 36 -106t101 -37q63 0 102 43.5t40 119.5v284zM254 -75q15 0 26.5 -11.5t11.5 -27.5t-11.5 -27t-26.5 -11q-16 0 -27.5 11t-11.5 27t11.5 27.5t27.5 11.5z" />
    <glyph glyph-name="uni1EE6" unicode="&#x1ee6;" horiz-adv-x="649" 
d="M308 710v52q43 8 62.5 22t19.5 35t-17 34t-46 13q-17 0 -31.5 -5t-34.5 -18l-15 23q23 14 41.5 20t41.5 6q42 0 67 -20t25 -52q0 -29 -21.5 -47.5t-60.5 -27.5v-35h-31zM324 -11q-54 0 -99.5 17t-78 48.5t-50.5 75.5t-18 99v451h41v-448q0 -47 15 -84.5t42 -64t64.5 -41
t83.5 -14.5t84 14.5t65 41t42 64t15 84.5v448h40v-451q0 -55 -18 -99t-50.5 -75.5t-78 -48.5t-99.5 -17z" />
    <glyph glyph-name="uni1EE7" unicode="&#x1ee7;" horiz-adv-x="510" 
d="M254 667q-16 0 -31 -5t-36 -18l-15 24q25 14 44 20t41 6q43 0 68.5 -19.5t25.5 -52.5q0 -29 -21.5 -47.5t-60.5 -27.5v-34h-33v50q42 8 61.5 22t19.5 35t-17 34t-46 13zM391 472h39v-472h-39v77q-22 -42 -60.5 -64.5t-89.5 -22.5q-81 0 -124.5 45.5t-43.5 127.5v309h39
v-304q0 -69 36 -106t101 -37q63 0 102 43.5t40 119.5v284z" />
    <glyph glyph-name="uni1EE8" unicode="&#x1ee8;" horiz-adv-x="649" 
d="M429 831l-88 -121h-34l78 121h44zM660 740h33v-50q0 -44 -16 -67t-50 -23q-27 0 -57 14v-385q0 -55 -18 -99t-50.5 -75.5t-78 -48.5t-99.5 -17t-99.5 17t-78 48.5t-50.5 75.5t-18 99v451h41v-448q0 -47 15 -84.5t42 -64t64.5 -41t83.5 -14.5t84 14.5t65 41t42 64t15 84.5
v448h40v-36q15 -8 27 -12.5t26 -4.5q25 0 31 17t6 48v48z" />
    <glyph glyph-name="uni1EE9" unicode="&#x1ee9;" horiz-adv-x="510" 
d="M368 680l-106 -147h-34l95 147h45zM517 531h33v-50q0 -44 -16 -67t-50 -23q-25 0 -54 13v-404h-39v77q-22 -42 -60.5 -64.5t-89.5 -22.5q-81 0 -124.5 45.5t-43.5 127.5v309h39v-304q0 -69 36 -106t101 -37q63 0 102 43.5t40 119.5v284h39v-39q14 -7 25.5 -11t24.5 -4
q25 0 31 17t6 48v48z" />
    <glyph glyph-name="uni1EEA" unicode="&#x1eea;" horiz-adv-x="649" 
d="M341 710h-33l-89 121h44zM660 740h33v-50q0 -44 -16 -67t-50 -23q-27 0 -57 14v-385q0 -55 -18 -99t-50.5 -75.5t-78 -48.5t-99.5 -17t-99.5 17t-78 48.5t-50.5 75.5t-18 99v451h41v-448q0 -47 15 -84.5t42 -64t64.5 -41t83.5 -14.5t84 14.5t65 41t42 64t15 84.5v448h40
v-36q15 -8 27 -12.5t26 -4.5q25 0 31 17t6 48v48z" />
    <glyph glyph-name="uni1EEB" unicode="&#x1eeb;" horiz-adv-x="510" 
d="M275 533h-33l-107 147h46zM517 531h33v-50q0 -44 -16 -67t-50 -23q-25 0 -54 13v-404h-39v77q-22 -42 -60.5 -64.5t-89.5 -22.5q-81 0 -124.5 45.5t-43.5 127.5v309h39v-304q0 -69 36 -106t101 -37q63 0 102 43.5t40 119.5v284h39v-39q14 -7 25.5 -11t24.5 -4q25 0 31 17
t6 48v48z" />
    <glyph glyph-name="uni1EEC" unicode="&#x1eec;" horiz-adv-x="649" 
d="M327 866q-17 0 -31.5 -5t-34.5 -18l-15 23q23 14 41.5 20t41.5 6q42 0 67 -20t25 -52q0 -29 -21.5 -47.5t-60.5 -27.5v-35h-31v52q43 8 62.5 22t19.5 35t-17 34t-46 13zM660 740h33v-50q0 -44 -16 -67t-50 -23q-27 0 -57 14v-385q0 -55 -18 -99t-50.5 -75.5t-78 -48.5
t-99.5 -17t-99.5 17t-78 48.5t-50.5 75.5t-18 99v451h41v-448q0 -47 15 -84.5t42 -64t64.5 -41t83.5 -14.5t84 14.5t65 41t42 64t15 84.5v448h40v-36q15 -8 27 -12.5t26 -4.5q25 0 31 17t6 48v48z" />
    <glyph glyph-name="uni1EED" unicode="&#x1eed;" horiz-adv-x="510" 
d="M254 667q-16 0 -31 -5t-36 -18l-15 24q25 14 44 20t41 6q43 0 68.5 -19.5t25.5 -52.5q0 -29 -21.5 -47.5t-60.5 -27.5v-34h-33v50q42 8 61.5 22t19.5 35t-17 34t-46 13zM517 531h33v-50q0 -44 -16 -67t-50 -23q-25 0 -54 13v-404h-39v77q-22 -42 -60.5 -64.5t-89.5 -22.5
q-81 0 -124.5 45.5t-43.5 127.5v309h39v-304q0 -69 36 -106t101 -37q63 0 102 43.5t40 119.5v284h39v-39q14 -7 25.5 -11t24.5 -4q25 0 31 17t6 48v48z" />
    <glyph glyph-name="uni1EEE" unicode="&#x1eee;" horiz-adv-x="649" 
d="M249 802q-28 0 -44.5 -23t-16.5 -59h-28q0 48 25 79.5t66 31.5q35 0 53 -17t32 -34q12 -17 25 -28.5t38 -11.5q27 0 43.5 22.5t16.5 58.5h28q0 -48 -24.5 -79.5t-65.5 -31.5q-35 0 -52.5 16.5t-30.5 33.5t-26 29.5t-39 12.5zM660 740h33v-50q0 -44 -16 -67t-50 -23
q-27 0 -57 14v-385q0 -55 -18 -99t-50.5 -75.5t-78 -48.5t-99.5 -17t-99.5 17t-78 48.5t-50.5 75.5t-18 99v451h41v-448q0 -47 15 -84.5t42 -64t64.5 -41t83.5 -14.5t84 14.5t65 41t42 64t15 84.5v448h40v-36q15 -8 27 -12.5t26 -4.5q25 0 31 17t6 48v48z" />
    <glyph glyph-name="uni1EEF" unicode="&#x1eef;" horiz-adv-x="510" 
d="M177 624q-28 0 -44.5 -22.5t-16.5 -58.5h-28q0 48 25 79t66 31q35 0 53 -16.5t32 -33.5q12 -17 25 -29t38 -12q27 0 43.5 23t16.5 59h28q0 -48 -24.5 -79.5t-65.5 -31.5q-35 0 -52.5 16.5t-30.5 33.5t-26 29t-39 12zM517 531h33v-50q0 -44 -16 -67t-50 -23q-25 0 -54 13
v-404h-39v77q-22 -42 -60.5 -64.5t-89.5 -22.5q-81 0 -124.5 45.5t-43.5 127.5v309h39v-304q0 -69 36 -106t101 -37q63 0 102 43.5t40 119.5v284h39v-39q14 -7 25.5 -11t24.5 -4q25 0 31 17t6 48v48z" />
    <glyph glyph-name="uni1EF0" unicode="&#x1ef0;" horiz-adv-x="649" 
d="M660 740h33v-50q0 -44 -16 -67t-50 -23q-27 0 -57 14v-385q0 -55 -18 -99t-50.5 -75.5t-78 -48.5t-99.5 -17t-99.5 17t-78 48.5t-50.5 75.5t-18 99v451h41v-448q0 -47 15 -84.5t42 -64t64.5 -41t83.5 -14.5t84 14.5t65 41t42 64t15 84.5v448h40v-36q15 -8 27 -12.5
t26 -4.5q25 0 31 17t6 48v48zM325 -75q15 0 26.5 -11.5t11.5 -27.5t-11.5 -27t-26.5 -11q-16 0 -27.5 11t-11.5 27t11.5 27.5t27.5 11.5z" />
    <glyph glyph-name="uni1EF1" unicode="&#x1ef1;" horiz-adv-x="510" 
d="M517 531h33v-50q0 -44 -16 -67t-50 -23q-25 0 -54 13v-404h-39v77q-22 -42 -60.5 -64.5t-89.5 -22.5q-81 0 -124.5 45.5t-43.5 127.5v309h39v-304q0 -69 36 -106t101 -37q63 0 102 43.5t40 119.5v284h39v-39q14 -7 25.5 -11t24.5 -4q25 0 31 17t6 48v48zM254 -75
q15 0 26.5 -11.5t11.5 -27.5t-11.5 -27t-26.5 -11q-16 0 -27.5 11t-11.5 27t11.5 27.5t27.5 11.5z" />
    <glyph glyph-name="Ygrave" unicode="&#x1ef2;" horiz-adv-x="555" 
d="M294 710h-33l-89 121h44zM535 680l-238 -365v-315h-40v315l-238 365h45l213 -327l213 327h45z" />
    <glyph glyph-name="ygrave" unicode="&#x1ef3;" horiz-adv-x="495" 
d="M272 533h-33l-107 147h46zM420 472h43l-296 -715h-44l104 247l-195 468h43l173 -423z" />
    <glyph glyph-name="uni1EF4" unicode="&#x1ef4;" horiz-adv-x="555" 
d="M257 0v315l-238 365h45l213 -327l213 327h45l-238 -365v-315h-40zM277 -75q15 0 26.5 -11.5t11.5 -27.5t-11.5 -27t-26.5 -11q-16 0 -27.5 11t-11.5 27t11.5 27.5t27.5 11.5z" />
    <glyph glyph-name="uni1EF5" unicode="&#x1ef5;" horiz-adv-x="495" 
d="M420 472h43l-296 -715h-44l104 247l-195 468h43l173 -423zM399 -75q15 0 26.5 -11.5t11.5 -27.5t-11.5 -27t-26.5 -11q-16 0 -27.5 11t-11.5 27t11.5 27.5t27.5 11.5z" />
    <glyph glyph-name="uni1EF6" unicode="&#x1ef6;" horiz-adv-x="555" 
d="M280 866q-17 0 -31.5 -5t-34.5 -18l-15 23q23 14 41.5 20t41.5 6q42 0 67 -20t25 -52q0 -29 -21.5 -47.5t-60.5 -27.5v-35h-31v52q43 8 62.5 22t19.5 35t-17 34t-46 13zM535 680l-238 -365v-315h-40v315l-238 365h45l213 -327l213 327h45z" />
    <glyph glyph-name="uni1EF7" unicode="&#x1ef7;" horiz-adv-x="495" 
d="M250 667q-16 0 -31 -5t-36 -18l-15 24q25 14 44 20t41 6q43 0 68.5 -19.5t25.5 -52.5q0 -29 -21.5 -47.5t-60.5 -27.5v-34h-33v50q42 8 61.5 22t19.5 35t-17 34t-46 13zM420 472h43l-296 -715h-44l104 247l-195 468h43l173 -423z" />
    <glyph glyph-name="uni1EF8" unicode="&#x1ef8;" horiz-adv-x="555" 
d="M202 802q-28 0 -44.5 -23t-16.5 -59h-28q0 48 25 79.5t66 31.5q35 0 53 -17t32 -34q12 -17 25 -28.5t38 -11.5q27 0 43.5 22.5t16.5 58.5h28q0 -48 -24.5 -79.5t-65.5 -31.5q-35 0 -52.5 16.5t-30.5 33.5t-26 29.5t-39 12.5zM535 680l-238 -365v-315h-40v315l-238 365h45
l213 -327l213 327h45z" />
    <glyph glyph-name="uni1EF9" unicode="&#x1ef9;" horiz-adv-x="495" 
d="M173 624q-28 0 -44.5 -22.5t-16.5 -58.5h-28q0 48 25 79t66 31q35 0 53 -16.5t32 -33.5q12 -17 25 -29t38 -12q27 0 43.5 23t16.5 59h28q0 -48 -24.5 -79.5t-65.5 -31.5q-35 0 -52.5 16.5t-30.5 33.5t-26 29t-39 12zM420 472h43l-296 -715h-44l104 247l-195 468h43
l173 -423z" />
    <glyph glyph-name="endash" unicode="&#x2013;" horiz-adv-x="500" 
d="M0 219v34h500v-34h-500z" />
    <glyph glyph-name="emdash" unicode="&#x2014;" horiz-adv-x="1000" 
d="M0 219v34h1000v-34h-1000z" />
    <glyph glyph-name="quoteleft" unicode="&#x2018;" horiz-adv-x="238" 
d="M68 384l67 296h33l-59 -296h-41z" />
    <glyph glyph-name="quoteright" unicode="&#x2019;" horiz-adv-x="238" 
d="M70 384l60 296h40l-66 -296h-34z" />
    <glyph glyph-name="quotesinglbase" unicode="&#x201a;" horiz-adv-x="272" 
d="M87 -175l59 297h40l-66 -297h-33z" />
    <glyph glyph-name="quotedblleft" unicode="&#x201c;" horiz-adv-x="415" 
d="M68 384l67 296h33l-59 -296h-41zM245 384l67 296h33l-59 -296h-41z" />
    <glyph glyph-name="quotedblright" unicode="&#x201d;" horiz-adv-x="415" 
d="M70 384l60 296h40l-66 -296h-34zM247 384l60 296h40l-67 -296h-33z" />
    <glyph glyph-name="quotedblbase" unicode="&#x201e;" horiz-adv-x="448" 
d="M87 -175l59 297h40l-66 -297h-33zM263 -175l59 297h40l-66 -297h-33z" />
    <glyph glyph-name="dagger" unicode="&#x2020;" horiz-adv-x="481" 
d="M439 476v-31h-178v-605h-40v605h-179v31h179v204h40v-204h178z" />
    <glyph glyph-name="daggerdbl" unicode="&#x2021;" horiz-adv-x="511" 
d="M454 445h-179v-368h179v-31h-179v-206h-40v206h-178v31h178v368h-178v31h178v204h40v-204h179v-31z" />
    <glyph glyph-name="bullet" unicode="&#x2022;" horiz-adv-x="482" 
d="M242 78q-32 0 -61 12t-51 33t-35 50t-13 63q0 32 13 60.5t35 50.5t51 35t61 13q31 0 59.5 -13t50.5 -35t35 -50.5t13 -60.5q0 -34 -13 -63t-35 -50t-50.5 -33t-59.5 -12z" />
    <glyph glyph-name="ellipsis" unicode="&#x2026;" horiz-adv-x="760" 
d="M144 -10q-16 0 -27 11t-11 27t11 27.5t27 11.5t27 -11.5t11 -27.5t-11 -27t-27 -11zM383 -10q-15 0 -26.5 11t-11.5 27t11.5 27.5t26.5 11.5q16 0 27 -11.5t11 -27.5t-11 -27t-27 -11zM616 -10q-16 0 -27 11t-11 27t11 27.5t27 11.5t27 -11.5t11 -27.5t-11 -27t-27 -11z
" />
    <glyph glyph-name="perthousand" unicode="&#x2030;" horiz-adv-x="984" 
d="M189 424q-27 0 -51 10.5t-42 28.5t-28.5 42.5t-10.5 52.5q0 27 10.5 51t28.5 42t42 28.5t51 10.5t51 -10.5t41.5 -28.5t28 -42t10.5 -51q0 -28 -10.5 -52.5t-28 -42.5t-41.5 -28.5t-51 -10.5zM133 0l364 680h38l-364 -680h-38zM189 456q21 0 39 8t31.5 21.5t21.5 32.5
t8 40t-8 39t-21.5 32t-31.5 22t-39 8q-42 0 -71 -29.5t-29 -71.5q0 -43 29 -72.5t71 -29.5zM487 -10q-28 0 -52.5 10.5t-42.5 28.5t-28.5 42.5t-10.5 52.5t10.5 52.5t28.5 42.5t42.5 28.5t52.5 10.5q27 0 51 -10.5t42 -28.5t28.5 -42.5t10.5 -52.5t-10.5 -52.5t-28.5 -42.5
t-42 -28.5t-51 -10.5zM797 -10q-28 0 -52.5 10.5t-42.5 28.5t-28.5 42.5t-10.5 52.5t10.5 52.5t28.5 42.5t42.5 28.5t52.5 10.5q27 0 51 -10.5t42 -28.5t28.5 -42.5t10.5 -52.5t-10.5 -52.5t-28.5 -42.5t-42 -28.5t-51 -10.5zM487 22q21 0 39 8t31.5 22t21.5 32.5t8 39.5
t-8 39.5t-21.5 32.5t-32 22t-38.5 8q-21 0 -39.5 -8t-32.5 -22t-22 -32.5t-8 -39.5t8 -39.5t22 -32.5t32.5 -22t39.5 -8zM797 22q21 0 39 8t31.5 22t21.5 32.5t8 39.5t-8 39.5t-21.5 32.5t-32 22t-38.5 8q-21 0 -39.5 -8t-32.5 -22t-22 -32.5t-8 -39.5t8 -39.5t22 -32.5
t32.5 -22t39.5 -8z" />
    <glyph glyph-name="guilsinglleft" unicode="&#x2039;" horiz-adv-x="264" 
d="M186 52l-152 184l152 184h40l-152 -184l152 -184h-40z" />
    <glyph glyph-name="guilsinglright" unicode="&#x203a;" horiz-adv-x="265" 
d="M78 52h-40l152 184l-152 184h40l152 -184z" />
    <glyph glyph-name="fraction" unicode="&#x2044;" horiz-adv-x="144" 
d="M-133 0l384 680h26l-384 -680h-26z" />
    <glyph glyph-name="uni2070" unicode="&#x2070;" horiz-adv-x="343" 
d="M171 386q-128 0 -128 211q0 210 128 210q63 0 95.5 -53t32.5 -157t-32.5 -157.5t-95.5 -53.5zM171 408q104 0 104 189q0 187 -104 187t-104 -187q0 -189 104 -189z" />
    <glyph glyph-name="uni2074" unicode="&#x2074;" horiz-adv-x="312" 
d="M288 512v-22h-52v-98h-24v98h-212v22l205 288h31v-288h52zM27 512h185v264z" />
    <glyph glyph-name="uni2075" unicode="&#x2075;" horiz-adv-x="334" 
d="M145 647q81 0 120 -31t39 -98q0 -59 -35.5 -95.5t-93.5 -36.5q-64 0 -100.5 34t-36.5 94q0 5 0.5 8.5t1.5 7.5h23q0 -4 -0.5 -7t-0.5 -7q0 -52 29.5 -80t83.5 -28q48 0 77 30.5t29 78.5q0 59 -35 83.5t-106 24.5h-86l28 175h206v-22h-186l-21 -131h64z" />
    <glyph glyph-name="uni2076" unicode="&#x2076;" horiz-adv-x="313" 
d="M158 667q29 0 53.5 -11t42.5 -29.5t28 -44t10 -55.5t-10.5 -55.5t-29 -44.5t-43.5 -30t-54 -11q-30 0 -55 11t-43 30t-28 44.5t-10 55.5q0 58 37 100l150 173h30l-122 -141q22 8 44 8zM155 408q25 0 45.5 9.5t35.5 25.5t23.5 38t8.5 47t-8 46.5t-23 37.5t-36 25.5
t-46 9.5q-50 0 -81.5 -34t-31.5 -85q0 -25 8 -47t23 -38t36 -25.5t46 -9.5z" />
    <glyph glyph-name="uni2077" unicode="&#x2077;" horiz-adv-x="272" 
d="M-1 800h276v-22l-221 -386h-28l222 386h-249v22z" />
    <glyph glyph-name="uni2078" unicode="&#x2078;" horiz-adv-x="332" 
d="M166 386q-56 0 -92.5 32.5t-36.5 84.5q0 39 22 67.5t59 39.5q-29 11 -47 36t-18 58q0 45 32.5 74t80.5 29t80.5 -29.5t32.5 -73.5q0 -32 -18 -57.5t-47 -36.5q36 -11 58 -39.5t22 -67.5q0 -52 -36 -84.5t-92 -32.5zM166 618q38 0 64 24.5t26 61.5q0 35 -26 59t-64 24
t-64 -24t-26 -59q0 -37 26 -61.5t64 -24.5zM166 408q46 0 75 27t29 69t-29 68.5t-75 26.5q-47 0 -76 -26.5t-29 -68.5t29.5 -69t75.5 -27z" />
    <glyph glyph-name="uni2079" unicode="&#x2079;" horiz-adv-x="313" 
d="M158 807q30 0 55 -11t43 -30.5t28 -45t10 -55.5q0 -57 -36 -99l-151 -174h-30l122 141q-20 -7 -44 -7q-29 0 -53.5 10.5t-42.5 29.5t-28 44t-10 55t10.5 56t29 45t43.5 30t54 11zM158 546q50 0 81.5 34t31.5 85q1 51 -30.5 85t-82.5 34q-50 0 -81.5 -34t-31.5 -85
t31.5 -85t81.5 -34z" />
    <glyph glyph-name="uni2080" unicode="&#x2080;" horiz-adv-x="343" 
d="M171 -166q-63 0 -95.5 53t-32.5 157q0 211 128 211t128 -211q0 -103 -32.5 -156.5t-95.5 -53.5zM171 -144q104 0 104 188t-104 188t-104 -188t104 -188z" />
    <glyph glyph-name="uni2081" unicode="&#x2081;" horiz-adv-x="192" 
d="M101 248h24v-408h-24v380l-103 -85v29z" />
    <glyph glyph-name="uni2082" unicode="&#x2082;" horiz-adv-x="310" 
d="M29 -160v31l169 172q30 31 42.5 54.5t12.5 49.5q0 40 -25.5 62.5t-70.5 22.5q-51 0 -77.5 -26t-26.5 -74v-21l-24 3v19q0 58 33.5 90t93.5 32q56 0 88.5 -29t32.5 -79q0 -26 -11.5 -53.5t-49.5 -65.5l-164 -166h236v-22h-259z" />
    <glyph glyph-name="uni2083" unicode="&#x2083;" horiz-adv-x="325" 
d="M163 -166q-64 0 -100.5 34.5t-36.5 97.5h25q0 -52 29 -81t83 -29q46 0 75 27.5t29 70.5q0 47 -31 73t-85 26h-14v20h14q43 0 68 23t25 60q0 34 -23.5 55t-61.5 21q-42 0 -67.5 -26t-25.5 -68v-2l-24 3q0 52 32.5 84t83.5 32q48 0 78.5 -27.5t30.5 -70.5q0 -35 -19 -58.5
t-50 -33.5q44 -10 68.5 -38.5t24.5 -73.5q0 -52 -35.5 -85.5t-92.5 -33.5z" />
    <glyph glyph-name="uni2084" unicode="&#x2084;" horiz-adv-x="312" 
d="M288 -40v-23h-52v-97h-24v97h-212v23l205 288h31v-288h52zM27 -40h185v264z" />
    <glyph glyph-name="uni2085" unicode="&#x2085;" horiz-adv-x="334" 
d="M145 95q81 0 120 -31.5t39 -97.5q0 -59 -35.5 -95.5t-93.5 -36.5q-64 0 -100.5 34t-36.5 94q0 5 0.5 8.5t1.5 7.5h23q0 -4 -0.5 -7.5t-0.5 -6.5q0 -52 29.5 -80t83.5 -28q48 0 77 30.5t29 78.5q0 59 -35 83.5t-106 24.5h-86l28 175h206v-22h-186l-21 -131h64z" />
    <glyph glyph-name="uni2086" unicode="&#x2086;" horiz-adv-x="313" 
d="M158 115q29 0 53.5 -11t42.5 -29.5t28 -44t10 -55.5t-10.5 -56t-29 -44.5t-43.5 -29.5t-54 -11q-30 0 -55 11t-43 30t-28 44.5t-10 55.5q0 58 37 100l150 173h30l-122 -141q22 8 44 8zM155 -144q50 0 81.5 34t31.5 85q0 25 -8 47t-23 38t-36 25.5t-46 9.5
q-50 0 -81.5 -34t-31.5 -85q0 -25 8 -47t23 -38t36 -25.5t46 -9.5z" />
    <glyph glyph-name="uni2087" unicode="&#x2087;" horiz-adv-x="272" 
d="M-1 248h276v-22l-221 -386h-28l223 386h-250v22z" />
    <glyph glyph-name="uni2088" unicode="&#x2088;" horiz-adv-x="333" 
d="M166 -166q-56 0 -92.5 32.5t-36.5 84.5q0 38 22.5 67t58.5 40q-29 11 -47 36t-18 58q0 45 32.5 74t80.5 29t80.5 -29.5t32.5 -73.5q0 -32 -18 -57.5t-47 -36.5q36 -11 58 -39.5t22 -67.5q0 -52 -36 -84.5t-92 -32.5zM166 66q38 0 64 24.5t26 60.5t-26 59.5t-64 23.5
t-64 -23.5t-26 -59.5t26 -60.5t64 -24.5zM166 -144q46 0 75.5 27t29.5 69t-29 68.5t-76 26.5q-46 0 -75.5 -26.5t-29.5 -68.5t29.5 -69t75.5 -27z" />
    <glyph glyph-name="uni2089" unicode="&#x2089;" horiz-adv-x="313" 
d="M158 255q30 0 55 -11t43 -30.5t28 -45t10 -55.5q0 -56 -36 -100l-151 -173h-30l123 141q-11 -4 -22 -6t-23 -2q-29 0 -53.5 11t-42.5 29.5t-28 44t-10 55.5t10.5 56t29 45t43.5 30t54 11zM158 -7q25 0 45.5 9.5t35.5 25.5t23.5 37.5t8.5 46.5q1 51 -30.5 85.5t-82.5 34.5
q-50 0 -81.5 -34t-31.5 -85q0 -25 8.5 -47t23.5 -38t35.5 -25.5t45.5 -9.5z" />
    <glyph glyph-name="Euro" unicode="&#x20ac;" horiz-adv-x="743" 
d="M466 28q55 0 100.5 17t80.5 48l32 -25q-41 -37 -94.5 -57.5t-118.5 -20.5q-62 0 -115.5 18.5t-95 52.5t-70 82.5t-40.5 109.5h-78v29h74q-2 14 -3 29t-1 30q0 29 3 56h-73v29h78q12 61 40.5 109.5t70 83t95 53t115.5 18.5q65 0 118.5 -20t94.5 -57l-32 -25
q-35 31 -81 47.5t-100 16.5q-109 0 -183 -60t-96 -166h285v-29h-290q-2 -14 -3 -28t-1 -28q0 -15 1 -30t3 -29h290v-29h-285q23 -106 96.5 -165.5t182.5 -59.5z" />
    <glyph glyph-name="uni2113" unicode="&#x2113;" horiz-adv-x="511" 
d="M299 -10q-74 0 -115 48.5t-43 136.5l-78 -55l-16 24l92 65v287q0 93 36.5 143.5t102.5 50.5q57 0 88.5 -37.5t31.5 -102.5q0 -29 -10 -69.5t-35 -87.5t-67.5 -97t-107.5 -98v-15q0 -75 33.5 -116.5t93.5 -41.5q42 0 77 18.5t58 50.5l20 -23q-29 -40 -71 -60.5t-90 -20.5z
M178 238q57 44 93.5 89t57.5 86.5t29 77.5t8 60q0 51 -22 79.5t-64 28.5q-48 0 -76.5 -41.5t-25.5 -119.5v-260z" />
    <glyph glyph-name="uni2116" unicode="&#x2116;" horiz-adv-x="1261" 
d="M948 199q-49 0 -91 18.5t-72.5 51t-47.5 77.5t-17 99t17 99t47.5 77.5t72.5 50.5t91 18q50 0 92 -18t72 -50.5t47 -77.5t17 -99t-17 -99t-47 -77.5t-72 -51t-92 -18.5zM603 46v634h41v-680h-56l-423 634v-634h-40v680h55zM948 654q-41 0 -75.5 -15.5t-59.5 -43t-39 -66
t-14 -84.5t14 -84.5t39 -66.5t59.5 -43.5t75.5 -15.5t75.5 15.5t59.5 43.5t39 66.5t14 84.5t-14 84.5t-39 66t-59.5 43t-75.5 15.5zM722 95v32h451v-32h-451z" />
    <glyph glyph-name="trademark" unicode="&#x2122;" horiz-adv-x="631" 
d="M110 357v296h-91v27h210v-27h-90v-296h-29zM254 357l25 323h36l118 -268l118 268h36l24 -323h-28l-22 275l-120 -275h-17l-117 273l-23 -273h-30z" />
    <glyph glyph-name="estimated" unicode="&#x212e;" horiz-adv-x="978" 
d="M497 -9q-88 0 -166 30t-136 82t-91.5 122t-33.5 149q0 80 33.5 150.5t91.5 123t136 82.5t166 30q89 0 167 -30t136 -82.5t91.5 -123t33.5 -150.5v-10h-692q-6 0 -6 -4v-210q0 -11 9 -24q51 -52 118 -83t144 -31q84 0 154.5 34.5t121.5 93.5h61q-57 -68 -145.5 -108.5
t-192.5 -40.5zM764 385q4 0 4 7v210q0 7 -2.5 13.5t-7.5 11.5q-51 50 -117 80t-143 30q-76 0 -143 -31t-118 -82q-10 -12 -10 -26v-206q0 -7 6 -7h531z" />
    <glyph glyph-name="oneeighth" unicode="&#x215b;" horiz-adv-x="668" 
d="M101 272v380l-103 -85v29l103 84h24v-408h-24zM443 680h26l-384 -680h-26zM550 218q36 -11 58 -39.5t22 -67.5q0 -52 -36 -84.5t-92 -32.5t-92.5 32.5t-36.5 84.5q0 38 22 67t59 40q-29 11 -47 36t-18 58q0 45 32.5 74t80.5 29t80.5 -29.5t32.5 -73.5q0 -32 -18 -57.5
t-47 -36.5zM412 311q0 -36 26 -60.5t64 -24.5t64 24.5t26 60.5t-26 59.5t-64 23.5t-64 -23.5t-26 -59.5zM502 16q46 0 75 27t29 69t-29 68.5t-75 26.5q-47 0 -76 -26.5t-29 -68.5t29.5 -69t75.5 -27z" />
    <glyph glyph-name="threeeighths" unicode="&#x215c;" horiz-adv-x="802" 
d="M163 266q-64 0 -100.5 34.5t-36.5 97.5h25q0 -51 29 -80.5t83 -29.5q46 0 75 27.5t29 70.5q0 47 -31 73t-85 26h-14v20h14q43 0 68 23.5t25 59.5q0 34 -23.5 55.5t-61.5 21.5q-42 0 -67.5 -26t-25.5 -68v-3l-24 3q0 52 32.5 84t83.5 32q48 0 78.5 -27.5t30.5 -70.5
q0 -35 -19 -58.5t-50 -33.5q44 -10 68.5 -38.5t24.5 -73.5q0 -52 -35.5 -85.5t-92.5 -33.5zM192 0l384 680h26l-384 -680h-26zM635 -6q-56 0 -92.5 32.5t-36.5 84.5q0 38 22 67t59 40q-29 11 -47 36t-18 58q0 45 32.5 74t80.5 29t80.5 -29.5t32.5 -73.5q0 -32 -18 -57.5
t-47 -36.5q36 -11 58 -39.5t22 -67.5q0 -52 -36 -84.5t-92 -32.5zM635 226q38 0 64 24.5t26 60.5t-26 59.5t-64 23.5t-64 -23.5t-26 -59.5t26 -60.5t64 -24.5zM635 16q46 0 75 27t29 69t-29 68.5t-75 26.5q-47 0 -76 -26.5t-29 -68.5t29.5 -69t75.5 -27z" />
    <glyph glyph-name="fiveeighths" unicode="&#x215d;" horiz-adv-x="810" 
d="M304 398q0 -59 -35.5 -95.5t-93.5 -36.5q-64 0 -100.5 34t-36.5 94q0 5 0.5 8.5t1.5 7.5h23q0 -4 -0.5 -7t-0.5 -7q0 -52 29.5 -80t83.5 -28q48 0 77 30.5t29 78.5q0 59 -35 83.5t-106 24.5h-86l28 175h206v-22h-186l-21 -131h64q81 0 120 -31t39 -98zM585 680h26
l-384 -680h-26zM691 218q36 -11 58 -39.5t22 -67.5q0 -52 -36 -84.5t-92 -32.5t-92.5 32.5t-36.5 84.5q0 38 22 67t59 40q-29 11 -47 36t-18 58q0 45 32.5 74t80.5 29t80.5 -29.5t32.5 -73.5q0 -32 -18 -57.5t-47 -36.5zM553 311q0 -36 26 -60.5t64 -24.5t64 24.5t26 60.5
t-26 59.5t-64 23.5t-64 -23.5t-26 -59.5zM643 16q46 0 75 27t29 69t-29 68.5t-75 26.5q-47 0 -76 -26.5t-29 -68.5t29.5 -69t75.5 -27z" />
    <glyph glyph-name="seveneighths" unicode="&#x215e;" horiz-adv-x="739" 
d="M275 680v-22l-221 -386h-28l222 386h-249v22h276zM514 680h26l-384 -680h-26zM620 218q36 -11 58 -39.5t22 -67.5q0 -52 -36 -84.5t-92 -32.5t-92.5 32.5t-36.5 84.5q0 38 22 67t59 40q-29 11 -47 36t-18 58q0 45 32.5 74t80.5 29t80.5 -29.5t32.5 -73.5q0 -32 -18 -57.5
t-47 -36.5zM482 311q0 -36 26 -60.5t64 -24.5t64 24.5t26 60.5t-26 59.5t-64 23.5t-64 -23.5t-26 -59.5zM572 16q46 0 75 27t29 69t-29 68.5t-75 26.5q-47 0 -76 -26.5t-29 -68.5t29.5 -69t75.5 -27z" />
    <glyph glyph-name="arrowleft" unicode="&#x2190;" horiz-adv-x="674" 
d="M186 52l-152 184l152 184h40l-138 -167h586v-34h-586l138 -167h-40z" />
    <glyph glyph-name="arrowup" unicode="&#x2191;" horiz-adv-x="499" 
d="M250 680l184 -152v-40l-167 138v-626h-34v626l-167 -138v40z" />
    <glyph glyph-name="arrowright" unicode="&#x2192;" horiz-adv-x="674" 
d="M488 52h-40l138 167h-586v34h586l-138 167h40l152 -184z" />
    <glyph glyph-name="arrowdown" unicode="&#x2193;" horiz-adv-x="499" 
d="M250 0l-184 152v40l167 -138v626h34v-626l167 138v-40z" />
    <glyph glyph-name="arrowboth" unicode="&#x2194;" horiz-adv-x="981" 
d="M772 420l152 -184l-152 -184h-40l138 167h-760l139 -167h-41l-152 184l152 184h41l-139 -167h760l-138 167h40z" />
    <glyph glyph-name="arrowupdn" unicode="&#x2195;" horiz-adv-x="499" 
d="M250 0l-184 152v40l167 -138v572l-167 -138v40l184 152l184 -152v-40l-167 138v-572l167 138v-40z" />
    <glyph glyph-name="uni2196" unicode="&#x2196;" horiz-adv-x="651" 
d="M585 513v-513h-34v479h-452l138 -167h-40l-152 184l152 184h40l-138 -167h486z" />
    <glyph glyph-name="uni2197" unicode="&#x2197;" horiz-adv-x="651" 
d="M454 680l152 -184l-152 -184h-40l138 167h-452v-479h-34v513h486l-138 167h40z" />
    <glyph glyph-name="uni2198" unicode="&#x2198;" horiz-adv-x="651" 
d="M454 368l152 -184l-152 -184h-40l138 167h-486v513h34v-479h452l-138 167h40z" />
    <glyph glyph-name="uni2199" unicode="&#x2199;" horiz-adv-x="651" 
d="M551 680h34v-513h-486l138 -167h-40l-152 184l152 184h40l-138 -167h452v479z" />
    <glyph glyph-name="partialdiff" unicode="&#x2202;" horiz-adv-x="591" 
d="M470 403q24 -33 40 -74.5t16 -92.5q0 -54 -17 -99t-48 -78t-73.5 -51t-92.5 -18t-92 18t-73 51t-48 78t-17 99t17.5 99t48 78t73 51t92.5 18q44 0 81 -17l-211 285h47zM295 25q42 0 77 15.5t60.5 43.5t39.5 67t14 85q0 44 -14 82.5t-39 67t-60 45t-78 16.5
q-42 0 -76.5 -15.5t-60 -43.5t-39.5 -67t-14 -85t14 -85t39.5 -67t60 -43.5t76.5 -15.5z" />
    <glyph glyph-name="emptyset" unicode="&#x2205;" horiz-adv-x="875" 
d="M802 683l-107 -107q44 -47 68.5 -107t24.5 -128q0 -72 -27.5 -136t-75 -112t-111.5 -75.5t-136 -27.5q-69 0 -129 24.5t-107 68.5l-107 -107l-21 21l107 107q-44 47 -69 107.5t-25 129.5q0 72 28 135.5t75.5 111t111.5 75t136 27.5q69 0 129 -24.5t107 -68.5l107 107z
M123 341q0 -62 22 -116.5t60 -96.5l444 444q-42 38 -96 60t-115 22q-65 0 -122.5 -24.5t-100 -67.5t-67.5 -99.5t-25 -121.5zM752 341q0 61 -22 114.5t-60 95.5l-443 -443q42 -38 96 -60t115 -22q65 0 122 25t100 67.5t67.5 100t24.5 122.5z" />
    <glyph glyph-name="product" unicode="&#x220f;" horiz-adv-x="719" 
d="M143 0v641h-102v39h637v-39h-101v-641h-40v641h-355v-641h-39z" />
    <glyph glyph-name="summation" unicode="&#x2211;" horiz-adv-x="677" 
d="M58 0v58l307 282l-307 282v58h566v-37h-530v-1l333 -301l-333 -302v-2h530v-37h-566z" />
    <glyph glyph-name="minus" unicode="&#x2212;" horiz-adv-x="557" 
d="M53 219v34h451v-34h-451z" />
    <glyph glyph-name="radical" unicode="&#x221a;" horiz-adv-x="773" 
d="M326 0l-174 436h-107v36h133l170 -429h1l342 707h40l-362 -750h-43z" />
    <glyph glyph-name="infinity" unicode="&#x221e;" horiz-adv-x="815" 
d="M229 102q-30 0 -54 10.5t-41.5 28.5t-26.5 42.5t-9 52.5q0 57 35 95t96 38q47 0 90 -28t88 -80q46 52 89 80t89 28q62 0 97 -38t35 -95q0 -28 -9 -52.5t-26.5 -42.5t-42 -28.5t-54.5 -10.5q-45 0 -87.5 27t-90.5 80q-48 -53 -90 -80t-88 -27zM228 135q41 0 79.5 27.5
t77.5 73.5q-41 48 -80 74t-77 26q-47 0 -71 -30t-24 -70q0 -42 24 -71.5t71 -29.5zM586 135q48 0 72 29.5t24 71.5q0 40 -24 70t-72 30q-37 0 -76 -26t-80 -74q39 -46 77.5 -73.5t78.5 -27.5z" />
    <glyph glyph-name="integral" unicode="&#x222b;" horiz-adv-x="368" 
d="M38 -160v35h21q50 0 78 29.5t28 95.5v590q0 83 37.5 121.5t107.5 38.5h21v-35h-21q-51 0 -78.5 -29.5t-27.5 -95.5v-590q0 -83 -37.5 -121.5t-107.5 -38.5h-21z" />
    <glyph glyph-name="approxequal" unicode="&#x2248;" horiz-adv-x="592" 
d="M405 246q-22 0 -40 7t-32.5 18t-26.5 24.5t-22 26.5q-22 26 -42.5 44.5t-52.5 18.5q-46 0 -74.5 -36t-28.5 -93h-33q0 36 10 65.5t28 51t43 33.5t55 12q43 0 70.5 -24t50.5 -53q20 -24 41 -43t53 -19q45 0 73.5 35t28.5 93h33q0 -35 -9.5 -64.5t-27.5 -51t-42.5 -33.5
t-54.5 -12zM405 54q-22 0 -40 7.5t-32.5 18.5t-26.5 24.5t-22 26.5q-21 25 -42 43.5t-53 18.5q-46 -1 -74.5 -36.5t-28.5 -92.5h-33q0 36 10 65.5t28 51t43 33.5t55 12q43 0 70 -24t51 -53q20 -24 41 -43t53 -19q45 0 73.5 35t28.5 94h33q0 -35 -9.5 -65t-27.5 -51.5
t-42.5 -33.5t-54.5 -12z" />
    <glyph glyph-name="notequal" unicode="&#x2260;" horiz-adv-x="567" 
d="M90 -99l115 221h-152v34h170l84 160h-254v34h271l112 213h37l-112 -213h152v-34h-169l-85 -160h254v-34h-271l-116 -221h-36z" />
    <glyph glyph-name="lessequal" unicode="&#x2264;" horiz-adv-x="479" 
d="M426 127l-372 184v45l372 182v-37l-346 -168l346 -169v-37zM426 18h-372v34h372v-34z" />
    <glyph glyph-name="greaterequal" unicode="&#x2265;" horiz-adv-x="479" 
d="M53 127v37l346 169l-346 168v37l372 -182v-45zM53 18v34h372v-34h-372z" />
    <glyph glyph-name="lozenge" unicode="&#x25ca;" horiz-adv-x="624" 
d="M312 88l-266 266l266 266l266 -266zM312 137l217 217l-217 217l-217 -217z" />
    <glyph glyph-name="heart" unicode="&#x2665;" horiz-adv-x="781" 
d="M390 -10q-92 71 -156 128.5t-103.5 107t-57 94t-17.5 88.5q0 75 46 121t121 46q60 0 102.5 -33t58.5 -90h12q16 57 58.5 90t102.5 33q75 0 121 -46t46 -121q0 -44 -17.5 -88.5t-57 -94t-103.5 -107t-156 -128.5z" />
    <glyph glyph-name="uniF8FF" unicode="&#xf8ff;" horiz-adv-x="903" 
d="M452 0q-78 0 -147.5 30t-121 81.5t-81.5 121t-30 147.5q0 79 30 148t81.5 120.5t121 81.5t147.5 30q79 0 148 -30t120.5 -81.5t81.5 -120.5t30 -148q0 -78 -30 -147.5t-81.5 -121t-120.5 -81.5t-148 -30zM452 36q71 0 134 27t109.5 74t73.5 109.5t27 133.5t-27 134
t-73.5 109.5t-109.5 73.5t-134 27t-133.5 -27t-109.5 -73.5t-74 -109.5t-27 -134t27 -133.5t74 -109.5t109.5 -74t133.5 -27zM651 217q-6 0 -12 6l-145 144q-12 14 0 26l145 145q13 13 25 0q5 -5 5 -13t-5 -13l-132 -132l132 -132q5 -5 5 -12t-5 -13q-4 -6 -13 -6zM253 217
q-8 0 -13 5t-5 13v290q0 8 5 13t13 5t13 -5t5 -13v-290q0 -8 -5 -13t-13 -5zM452 217q-8 0 -13 5t-5 13v290q0 8 5 13t13 5t13 -5t5 -13v-290q0 -8 -5 -13t-13 -5zM307 362q-8 0 -13 5t-5 13t5 13t13 5h91q8 0 13 -5t5 -13t-5 -13t-13 -5h-91z" />
    <glyph glyph-name="G.ss05" horiz-adv-x="782" 
d="M392 -11q-75 0 -137 25.5t-106 72t-68.5 111t-24.5 142.5t24.5 143t69 111t106 71.5t136.5 25.5q97 0 171 -42t117 -116l-37 -19q-37 66 -101.5 102.5t-149.5 36.5q-66 0 -120.5 -22.5t-93 -63.5t-60 -98.5t-21.5 -127.5t21 -128t60 -99t94 -64t122 -23q61 0 112 19.5
t89 55.5t61.5 87t27.5 114h-291v36h332l-1 -28q-4 -74 -30.5 -133.5t-70.5 -101.5t-103 -64.5t-128 -22.5z" />
    <glyph glyph-name="Gbreve.ss05" horiz-adv-x="782" 
d="M393 719q-65 0 -106 26.5t-51 85.5h32q9 -45 41 -64.5t84 -19.5q54 0 86 19.5t41 64.5h32q-11 -59 -52 -85.5t-107 -26.5zM392 -11q-75 0 -137 25.5t-106 72t-68.5 111t-24.5 142.5t24.5 143t69 111t106 71.5t136.5 25.5q97 0 171 -42t117 -116l-37 -19
q-37 66 -101.5 102.5t-149.5 36.5q-66 0 -120.5 -22.5t-93 -63.5t-60 -98.5t-21.5 -127.5t21 -128t60 -99t94 -64t122 -23q61 0 112 19.5t89 55.5t61.5 87t27.5 114h-291v36h332l-1 -28q-4 -74 -30.5 -133.5t-70.5 -101.5t-103 -64.5t-128 -22.5z" />
    <glyph glyph-name="Gdotaccent.ss05" horiz-adv-x="782" 
d="M395 737q-16 0 -27.5 11.5t-11.5 26.5q0 17 11.5 28t27.5 11q15 0 26.5 -11t11.5 -28q0 -15 -11.5 -26.5t-26.5 -11.5zM392 -11q-75 0 -137 25.5t-106 72t-68.5 111t-24.5 142.5t24.5 143t69 111t106 71.5t136.5 25.5q97 0 171 -42t117 -116l-37 -19q-37 66 -101.5 102.5
t-149.5 36.5q-66 0 -120.5 -22.5t-93 -63.5t-60 -98.5t-21.5 -127.5t21 -128t60 -99t94 -64t122 -23q61 0 112 19.5t89 55.5t61.5 87t27.5 114h-291v36h332l-1 -28q-4 -74 -30.5 -133.5t-70.5 -101.5t-103 -64.5t-128 -22.5z" />
    <glyph glyph-name="IJacute" horiz-adv-x="611" 
d="M90 710l78 121h44l-88 -121h-34zM490 710l78 121h44l-88 -121h-34zM86 0v680h41v-680h-41zM360 -11q-32 0 -65.5 10t-62.5 28l19 33q23 -14 51 -23t55 -9q60 0 95 40.5t35 111.5v500h41v-505q0 -42 -12 -76.5t-34.5 -58.5t-53 -37.5t-68.5 -13.5z" />
    <glyph glyph-name="M.ss03" horiz-adv-x="804" 
d="M645 680h73v-680h-41v645h-5l-253 -645h-34l-253 645h-5v-645h-41v680h73l243 -617z" />
    <glyph glyph-name="Q.ss04" horiz-adv-x="784" 
d="M727 341q0 -84 -27 -151t-77 -114l72 -76l-39 -13l-62 65q-85 -63 -202 -63q-75 0 -136.5 25.5t-106 72t-69 111.5t-24.5 143t24.5 142.5t69 110.5t106 71.5t136.5 25.5q74 0 136 -25.5t106 -71.5t68.5 -110.5t24.5 -142.5zM97 341q0 -70 21.5 -127.5t60 -99t93 -64
t120.5 -22.5q104 0 177 55l-141 145l39 13l129 -136q43 42 66.5 101.5t23.5 134.5q0 70 -21.5 127t-60 98t-92.5 63.5t-120 22.5t-120.5 -22.5t-93 -63.5t-60 -98t-21.5 -127z" />
    <glyph glyph-name="a.ss02" horiz-adv-x="595" 
d="M475 472h40v-472h-40v113q-26 -57 -76.5 -90t-117.5 -33q-48 0 -89.5 18t-71.5 50.5t-47 78t-17 99.5t17 99t47 78t71.5 51t89.5 18q67 0 117.5 -33.5t76.5 -90.5v114zM286 26q42 0 76.5 15.5t60 43t39.5 66.5t14 85t-14 84.5t-39.5 66.5t-60 43.5t-76.5 15.5
q-41 0 -76 -15.5t-60.5 -43.5t-39.5 -66.5t-14 -84.5t14 -85t39.5 -66.5t60.5 -43t76 -15.5z" />
    <glyph glyph-name="aacute.ss02" horiz-adv-x="595" 
d="M416 680l-106 -147h-34l95 147h45zM475 472h40v-472h-40v113q-26 -57 -76.5 -90t-117.5 -33q-48 0 -89.5 18t-71.5 50.5t-47 78t-17 99.5t17 99t47 78t71.5 51t89.5 18q67 0 117.5 -33.5t76.5 -90.5v114zM286 26q42 0 76.5 15.5t60 43t39.5 66.5t14 85t-14 84.5
t-39.5 66.5t-60 43.5t-76.5 15.5q-41 0 -76 -15.5t-60.5 -43.5t-39.5 -66.5t-14 -84.5t14 -85t39.5 -66.5t60.5 -43t76 -15.5z" />
    <glyph glyph-name="abreve.ss02" horiz-adv-x="595" 
d="M300 523q-75 0 -118 41t-43 116h33q0 -60 33.5 -94t94.5 -34q62 0 95 34t33 94h34q0 -75 -43.5 -116t-118.5 -41zM475 472h40v-472h-40v113q-26 -57 -76.5 -90t-117.5 -33q-48 0 -89.5 18t-71.5 50.5t-47 78t-17 99.5t17 99t47 78t71.5 51t89.5 18q67 0 117.5 -33.5
t76.5 -90.5v114zM286 26q42 0 76.5 15.5t60 43t39.5 66.5t14 85t-14 84.5t-39.5 66.5t-60 43.5t-76.5 15.5q-41 0 -76 -15.5t-60.5 -43.5t-39.5 -66.5t-14 -84.5t14 -85t39.5 -66.5t60.5 -43t76 -15.5z" />
    <glyph glyph-name="acircumflex.ss02" horiz-adv-x="595" 
d="M300 655l-87 -122h-33l96 147h47l96 -147h-32zM475 472h40v-472h-40v113q-26 -57 -76.5 -90t-117.5 -33q-48 0 -89.5 18t-71.5 50.5t-47 78t-17 99.5t17 99t47 78t71.5 51t89.5 18q67 0 117.5 -33.5t76.5 -90.5v114zM286 26q42 0 76.5 15.5t60 43t39.5 66.5t14 85
t-14 84.5t-39.5 66.5t-60 43.5t-76.5 15.5q-41 0 -76 -15.5t-60.5 -43.5t-39.5 -66.5t-14 -84.5t14 -85t39.5 -66.5t60.5 -43t76 -15.5z" />
    <glyph glyph-name="acutecomb.case" 
d="M-208 710l78 121h44l-88 -121h-34z" />
    <glyph glyph-name="adieresis.ss02" horiz-adv-x="595" 
d="M225 618q-16 0 -27.5 11t-11.5 27q0 17 11.5 27.5t27.5 10.5q15 0 26.5 -10.5t11.5 -27.5q0 -16 -11.5 -27t-26.5 -11zM376 618q-16 0 -27.5 11t-11.5 27q0 17 11.5 27.5t27.5 10.5q15 0 26.5 -10.5t11.5 -27.5q0 -16 -11.5 -27t-26.5 -11zM475 472h40v-472h-40v113
q-26 -57 -76.5 -90t-117.5 -33q-48 0 -89.5 18t-71.5 50.5t-47 78t-17 99.5t17 99t47 78t71.5 51t89.5 18q67 0 117.5 -33.5t76.5 -90.5v114zM286 26q42 0 76.5 15.5t60 43t39.5 66.5t14 85t-14 84.5t-39.5 66.5t-60 43.5t-76.5 15.5q-41 0 -76 -15.5t-60.5 -43.5
t-39.5 -66.5t-14 -84.5t14 -85t39.5 -66.5t60.5 -43t76 -15.5z" />
    <glyph glyph-name="agrave.ss02" horiz-adv-x="595" 
d="M324 533h-33l-107 147h46zM475 472h40v-472h-40v113q-26 -57 -76.5 -90t-117.5 -33q-48 0 -89.5 18t-71.5 50.5t-47 78t-17 99.5t17 99t47 78t71.5 51t89.5 18q67 0 117.5 -33.5t76.5 -90.5v114zM286 26q42 0 76.5 15.5t60 43t39.5 66.5t14 85t-14 84.5t-39.5 66.5
t-60 43.5t-76.5 15.5q-41 0 -76 -15.5t-60.5 -43.5t-39.5 -66.5t-14 -84.5t14 -85t39.5 -66.5t60.5 -43t76 -15.5z" />
    <glyph glyph-name="amacron.ss02" horiz-adv-x="595" 
d="M407 613v-32h-213v32h213zM475 472h40v-472h-40v113q-26 -57 -76.5 -90t-117.5 -33q-48 0 -89.5 18t-71.5 50.5t-47 78t-17 99.5t17 99t47 78t71.5 51t89.5 18q67 0 117.5 -33.5t76.5 -90.5v114zM286 26q42 0 76.5 15.5t60 43t39.5 66.5t14 85t-14 84.5t-39.5 66.5
t-60 43.5t-76.5 15.5q-41 0 -76 -15.5t-60.5 -43.5t-39.5 -66.5t-14 -84.5t14 -85t39.5 -66.5t60.5 -43t76 -15.5z" />
    <glyph glyph-name="aogonek.ss02" horiz-adv-x="595" 
d="M515 0q-25 -12 -46.5 -28t-37.5 -33.5t-25 -35.5t-9 -34q0 -21 18.5 -33t50.5 -12q12 0 24.5 1.5t24.5 6.5v-32q-14 -3 -27 -5t-27 -2q-42 0 -69 18.5t-27 50.5q0 35 31 73.5t79 67.5v110q-26 -57 -76.5 -90t-117.5 -33q-48 0 -89.5 18t-71.5 50.5t-47 78t-17 99.5t17 99
t47 78t71.5 51t89.5 18q67 0 117.5 -33.5t76.5 -90.5v114h40v-472zM286 26q42 0 76.5 15.5t60 43t39.5 66.5t14 85t-14 84.5t-39.5 66.5t-60 43.5t-76.5 15.5q-41 0 -76 -15.5t-60.5 -43.5t-39.5 -66.5t-14 -84.5t14 -85t39.5 -66.5t60.5 -43t76 -15.5z" />
    <glyph glyph-name="aring.ss02" horiz-adv-x="595" 
d="M302 541q-22 0 -42 8.5t-34.5 23t-23 33.5t-8.5 41t8.5 41t23 33.5t34 22.5t42.5 8q22 0 41 -8t33.5 -22.5t22.5 -33.5t8 -41t-8 -41t-22.5 -33.5t-33.5 -23t-41 -8.5zM302 725q-34 0 -56.5 -23t-22.5 -55t23 -55.5t56 -23.5q31 0 54 23.5t23 55.5t-22.5 55t-54.5 23z
M475 472h40v-472h-40v113q-26 -57 -76.5 -90t-117.5 -33q-48 0 -89.5 18t-71.5 50.5t-47 78t-17 99.5t17 99t47 78t71.5 51t89.5 18q67 0 117.5 -33.5t76.5 -90.5v114zM286 26q42 0 76.5 15.5t60 43t39.5 66.5t14 85t-14 84.5t-39.5 66.5t-60 43.5t-76.5 15.5
q-41 0 -76 -15.5t-60.5 -43.5t-39.5 -66.5t-14 -84.5t14 -85t39.5 -66.5t60.5 -43t76 -15.5z" />
    <glyph glyph-name="aringacute.ss02" horiz-adv-x="595" 
d="M302 541q-22 0 -42 8.5t-34.5 23t-23 33.5t-8.5 41t8.5 41t23 33.5t34 22.5t42.5 8q26 0 46 -11l79 122h45l-99 -138q16 -14 25 -34.5t9 -43.5q0 -22 -8 -41t-22.5 -33.5t-33.5 -23t-41 -8.5zM302 725q-34 0 -56.5 -23t-22.5 -55t23 -55.5t56 -23.5q31 0 54 23.5t23 55.5
q0 23 -11.5 41t-29.5 28h-6l1 2q-13 7 -31 7zM475 472h40v-472h-40v113q-26 -57 -76.5 -90t-117.5 -33q-48 0 -89.5 18t-71.5 50.5t-47 78t-17 99.5t17 99t47 78t71.5 51t89.5 18q67 0 117.5 -33.5t76.5 -90.5v114zM286 26q42 0 76.5 15.5t60 43t39.5 66.5t14 85t-14 84.5
t-39.5 66.5t-60 43.5t-76.5 15.5q-41 0 -76 -15.5t-60.5 -43.5t-39.5 -66.5t-14 -84.5t14 -85t39.5 -66.5t60.5 -43t76 -15.5z" />
    <glyph glyph-name="atilde.ss02" horiz-adv-x="595" 
d="M225 624q-28 0 -44.5 -22.5t-16.5 -58.5h-28q0 48 25 79t66 31q35 0 53 -16.5t32 -33.5q12 -17 25 -29t38 -12q27 0 43.5 23t16.5 59h28q0 -48 -24.5 -79.5t-65.5 -31.5q-35 0 -52.5 16.5t-30.5 33.5t-26 29t-39 12zM475 472h40v-472h-40v113q-26 -57 -76.5 -90
t-117.5 -33q-48 0 -89.5 18t-71.5 50.5t-47 78t-17 99.5t17 99t47 78t71.5 51t89.5 18q67 0 117.5 -33.5t76.5 -90.5v114zM286 26q42 0 76.5 15.5t60 43t39.5 66.5t14 85t-14 84.5t-39.5 66.5t-60 43.5t-76.5 15.5q-41 0 -76 -15.5t-60.5 -43.5t-39.5 -66.5t-14 -84.5
t14 -85t39.5 -66.5t60.5 -43t76 -15.5z" />
    <glyph glyph-name="braceleft.case" horiz-adv-x="271" 
d="M215 -168q-49 0 -79.5 33.5t-30.5 84.5v214q0 31 -2 57.5t-9 47t-20.5 34.5t-36.5 18v38q23 5 36.5 18.5t20.5 34t9 47t2 57.5v213q0 51 30.5 84.5t79.5 33.5h37v-33h-33q-33 0 -54.5 -24t-21.5 -64v-209q0 -28 -2 -55.5t-9 -51.5t-20 -42.5t-36 -27.5q23 -10 36.5 -28
t20 -42t8.5 -51.5t2 -55.5v-210q0 -40 21.5 -64t54.5 -24h33v-33h-37z" />
    <glyph glyph-name="braceright.case" horiz-adv-x="271" 
d="M20 -168v33h32q33 0 54.5 24t21.5 64v210q0 28 2 55.5t9 51.5t20.5 42t36.5 28q-23 9 -36.5 27.5t-20.5 42.5t-9 51.5t-2 55.5v209q0 40 -21.5 64t-54.5 24h-32v33h37q49 0 79 -33.5t30 -84.5v-213q0 -31 2 -57.5t9 -47t20.5 -34t36.5 -18.5v-38q-23 -4 -36.5 -18
t-20.5 -34.5t-9 -47t-2 -57.5v-214q0 -51 -30 -84.5t-79 -33.5h-37z" />
    <glyph glyph-name="bracketleft.case" horiz-adv-x="273" 
d="M79 -168v1015h184v-33h-147v-949h147v-33h-184z" />
    <glyph glyph-name="bracketright.case" horiz-adv-x="273" 
d="M195 -168h-185v33h148v949h-148v33h185v-1015z" />
    <glyph glyph-name="eight.dnom" horiz-adv-x="332" 
d="M166 -6q-56 0 -92.5 32.5t-36.5 84.5q0 38 22 67t59 40q-29 11 -47 36t-18 58q0 45 32.5 74t80.5 29t80.5 -29.5t32.5 -73.5q0 -32 -18 -57.5t-47 -36.5q36 -11 58 -39.5t22 -67.5q0 -52 -36 -84.5t-92 -32.5zM166 226q38 0 64 24.5t26 60.5t-26 59.5t-64 23.5t-64 -23.5
t-26 -59.5t26 -60.5t64 -24.5zM166 16q46 0 75 27t29 69t-29 68.5t-75 26.5q-47 0 -76 -26.5t-29 -68.5t29.5 -69t75.5 -27z" />
    <glyph glyph-name="eight.lf" horiz-adv-x="541" 
d="M272 -11q-47 0 -86.5 14.5t-68.5 40.5t-45 61.5t-16 78.5q0 66 37 113t98 66q-49 19 -78.5 60.5t-29.5 96.5q0 37 14.5 68t39.5 54t60 36t75 13t74 -13t59 -36t39.5 -54.5t14.5 -67.5q0 -54 -30 -95.5t-78 -61.5q60 -19 97 -66t37 -113q0 -42 -16 -78t-44.5 -62
t-67.5 -40.5t-85 -14.5zM272 377q32 0 59.5 11t47.5 30t31.5 45t11.5 56t-11.5 55t-32 43.5t-47.5 29t-59 10.5t-59.5 -10.5t-48 -29t-32 -43.5t-11.5 -55t11.5 -56t32 -45t48 -30t59.5 -11zM272 27q38 0 69.5 12t54.5 33t36 50.5t13 64.5t-12.5 64t-35.5 50t-55 32.5
t-70 11.5q-39 0 -71 -11.5t-55.5 -32.5t-36.5 -50t-13 -64t13 -64.5t36.5 -50.5t56 -33t70.5 -12z" />
    <glyph glyph-name="eight.numr" horiz-adv-x="332" 
d="M166 266q-56 0 -92.5 32.5t-36.5 84.5q0 39 22 67.5t59 39.5q-29 11 -47 36t-18 58q0 45 32.5 74t80.5 29t80.5 -29.5t32.5 -73.5q0 -32 -18 -57.5t-47 -36.5q36 -11 58 -39.5t22 -67.5q0 -52 -36 -84.5t-92 -32.5zM166 498q38 0 64 24.5t26 61.5q0 35 -26 59t-64 24
t-64 -24t-26 -59q0 -37 26 -61.5t64 -24.5zM166 288q46 0 75 27t29 69t-29 68.5t-75 26.5q-47 0 -76 -26.5t-29 -68.5t29.5 -69t75.5 -27z" />
    <glyph glyph-name="exclamdown.case" horiz-adv-x="218" 
d="M108 690q16 0 27.5 -11t11.5 -27t-11.5 -27.5t-27.5 -11.5q-15 0 -26.5 11.5t-11.5 27.5t11.5 27t26.5 11zM91 496h35l2 -496h-40z" />
    <glyph glyph-name="f_j" horiz-adv-x="532" 
d="M295 437h-127v-437h-40v437h-99v35h99v118q0 81 41.5 125.5t123.5 44.5q74 0 112.5 -37t47.5 -100l-39 -10q-6 54 -34.5 83t-87.5 29q-64 0 -94 -34.5t-30 -100.5v-118h127v-35zM414 472h40v-501q0 -59 -9 -100t-29.5 -66.5t-54.5 -36.5t-84 -11v34q40 0 66.5 8.5
t42 29.5t22 55.5t6.5 86.5v501z" />
    <glyph glyph-name="f_t" horiz-adv-x="594" 
d="M128 0v437h-99v35h99v118q0 83 38 121.5t108 38.5h21v-35h-21q-51 0 -78.5 -29.5t-27.5 -95.5v-118h185q39 0 39 37v122h36v-159h127v-35h-127v-314q0 -43 24 -66t62 -23h40v-34h-48q-54 0 -86 32t-32 89v316h-220v-437h-40z" />
    <glyph glyph-name="five.dnom" horiz-adv-x="334" 
d="M145 255q81 0 120 -31.5t39 -97.5q0 -59 -35.5 -95.5t-93.5 -36.5q-64 0 -100.5 34t-36.5 94q0 5 0.5 8.5t1.5 7.5h23q0 -4 -0.5 -7.5t-0.5 -6.5q0 -52 29.5 -80t83.5 -28q48 0 77 30.5t29 78.5q0 59 -35 83.5t-106 24.5h-86l28 175h206v-22h-186l-21 -131h64z" />
    <glyph glyph-name="five.lf" horiz-adv-x="547" 
d="M233 424q135 0 200 -51.5t65 -162.5q0 -49 -15.5 -89.5t-44 -69.5t-68 -45.5t-87.5 -16.5q-107 0 -167.5 56.5t-60.5 158.5q0 7 0.5 13t1.5 13h39q-1 -7 -1.5 -12.5t-0.5 -11.5q0 -86 49 -132.5t140 -46.5q39 0 71.5 13.5t55.5 37.5t35.5 57t12.5 73q0 98 -57.5 139.5
t-175.5 41.5h-144l46 291h343v-37h-309l-36 -219h108z" />
    <glyph glyph-name="five.numr" horiz-adv-x="334" 
d="M145 527q81 0 120 -31t39 -98q0 -59 -35.5 -95.5t-93.5 -36.5q-64 0 -100.5 34t-36.5 94q0 5 0.5 8.5t1.5 7.5h23q0 -4 -0.5 -7t-0.5 -7q0 -52 29.5 -80t83.5 -28q48 0 77 30.5t29 78.5q0 59 -35 83.5t-106 24.5h-86l28 175h206v-22h-186l-21 -131h64z" />
    <glyph glyph-name="four.dnom" horiz-adv-x="312" 
d="M288 120v-22h-52v-98h-24v98h-212v22l205 288h31v-288h52zM27 120h185v264z" />
    <glyph glyph-name="four.lf" horiz-adv-x="533" 
d="M504 200v-37h-86v-163h-40v163h-354v37l341 480h53v-480h86zM69 200h309v442z" />
    <glyph glyph-name="four.numr" horiz-adv-x="312" 
d="M288 392v-22h-52v-98h-24v98h-212v22l205 288h31v-288h52zM27 392h185v264z" />
    <glyph glyph-name="g.ss01" horiz-adv-x="594" 
d="M522 472v-35h-97q27 -23 42.5 -56t15.5 -73q0 -37 -14 -67.5t-38.5 -52t-58.5 -33t-75 -11.5q-32 0 -61 8t-52 22q-35 -27 -35 -60q0 -34 37.5 -51.5t119.5 -28.5q39 -5 77.5 -13.5t69.5 -23.5t50 -39.5t19 -61.5t-16 -64.5t-45 -45.5t-69 -27t-88 -9q-51 0 -92.5 10
t-71 27.5t-45 42t-15.5 53.5q0 38 21 71.5t72 73.5q-26 12 -43 31.5t-17 49.5q0 24 12 45.5t35 37.5q-25 23 -38.5 53t-13.5 67t14.5 68.5t39.5 54t59 35t73 12.5q37 0 67 -10h161zM445 310q0 30 -11 55.5t-31 44t-47.5 28.5t-60.5 10q-32 0 -59.5 -10t-47 -28t-30.5 -43
t-11 -55q0 -60 41.5 -97.5t107.5 -37.5q67 0 108 36.5t41 96.5zM482 -108q0 28 -15.5 46.5t-42 30.5t-60.5 19t-71 12q-22 3 -43 7t-41 9q-31 -24 -48.5 -42.5t-26.5 -34t-11.5 -28t-2.5 -24.5q0 -45 49.5 -75t134.5 -30q80 0 129 26.5t49 83.5z" />
    <glyph glyph-name="gbreve.ss01" horiz-adv-x="594" 
d="M296 523q-75 0 -118 41t-43 116h33q0 -60 33.5 -94t94.5 -34q62 0 95 34t33 94h34q0 -75 -43.5 -116t-118.5 -41zM522 472v-35h-97q27 -23 42.5 -56t15.5 -73q0 -37 -14 -67.5t-38.5 -52t-58.5 -33t-75 -11.5q-32 0 -61 8t-52 22q-35 -27 -35 -60q0 -34 37.5 -51.5
t119.5 -28.5q39 -5 77.5 -13.5t69.5 -23.5t50 -39.5t19 -61.5t-16 -64.5t-45 -45.5t-69 -27t-88 -9q-51 0 -92.5 10t-71 27.5t-45 42t-15.5 53.5q0 38 21 71.5t72 73.5q-26 12 -43 31.5t-17 49.5q0 24 12 45.5t35 37.5q-25 23 -38.5 53t-13.5 67t14.5 68.5t39.5 54t59 35
t73 12.5q37 0 67 -10h161zM445 310q0 30 -11 55.5t-31 44t-47.5 28.5t-60.5 10q-32 0 -59.5 -10t-47 -28t-30.5 -43t-11 -55q0 -60 41.5 -97.5t107.5 -37.5q67 0 108 36.5t41 96.5zM482 -108q0 28 -15.5 46.5t-42 30.5t-60.5 19t-71 12q-22 3 -43 7t-41 9
q-31 -24 -48.5 -42.5t-26.5 -34t-11.5 -28t-2.5 -24.5q0 -45 49.5 -75t134.5 -30q80 0 129 26.5t49 83.5z" />
    <glyph glyph-name="gdotaccent.ss01" horiz-adv-x="594" 
d="M297 618q-16 0 -27.5 11t-11.5 27q0 17 11.5 27.5t27.5 10.5q15 0 26.5 -10.5t11.5 -27.5q0 -16 -11.5 -27t-26.5 -11zM522 472v-35h-97q27 -23 42.5 -56t15.5 -73q0 -37 -14 -67.5t-38.5 -52t-58.5 -33t-75 -11.5q-32 0 -61 8t-52 22q-35 -27 -35 -60q0 -34 37.5 -51.5
t119.5 -28.5q39 -5 77.5 -13.5t69.5 -23.5t50 -39.5t19 -61.5t-16 -64.5t-45 -45.5t-69 -27t-88 -9q-51 0 -92.5 10t-71 27.5t-45 42t-15.5 53.5q0 38 21 71.5t72 73.5q-26 12 -43 31.5t-17 49.5q0 24 12 45.5t35 37.5q-25 23 -38.5 53t-13.5 67t14.5 68.5t39.5 54t59 35
t73 12.5q37 0 67 -10h161zM445 310q0 30 -11 55.5t-31 44t-47.5 28.5t-60.5 10q-32 0 -59.5 -10t-47 -28t-30.5 -43t-11 -55q0 -60 41.5 -97.5t107.5 -37.5q67 0 108 36.5t41 96.5zM482 -108q0 28 -15.5 46.5t-42 30.5t-60.5 19t-71 12q-22 3 -43 7t-41 9
q-31 -24 -48.5 -42.5t-26.5 -34t-11.5 -28t-2.5 -24.5q0 -45 49.5 -75t134.5 -30q80 0 129 26.5t49 83.5z" />
    <glyph glyph-name="gravecomb.case" 
d="M-119 710l-89 121h44l78 -121h-33z" />
    </font>
</defs>
</svg>
