<svg xmlns="http://www.w3.org/2000/svg" xmlns:xlink="http://www.w3.org/1999/xlink" xmlns:inkscape="http://www.inkscape.org/namespaces/inkscape" version="1.1" width="494.692" height="216.072" viewBox="0 0 494.692 216.072">
<defs>
<clipPath id="clip_0">
<path transform="matrix(1,0,0,-1,0,216.072)" d="M0 216.072H494.692V0H0Z"/>
</clipPath>
</defs>
<g inkscape:groupmode="layer" inkscape:label="Layer 1">
<g clip-path="url(#clip_0)">
<path transform="matrix(1,0,0,-1,145.2285,125.274707)" d="M0 0H-15.088V.078C-13.921 .233-12.911 .778-12.055 1.634L-11.744 1.944C-10.966 2.878-10.5 4.045-10.5 5.367V19.677C-10.655 29.321-10.811 38.81-18.51 38.81-26.599 38.81-29.632 27.766-29.632 22.788V5.367C-29.632 4.045-29.166 2.878-28.388 1.944L-28.154 1.634C-27.299 .778-26.21 .233-25.043 .078V0H-40.131V.078C-38.887 .233-37.876 .778-37.021 1.634L-36.709 1.944C-36.009 2.878-35.543 4.045-35.543 5.367V45.498C-35.543 45.809-35.543 46.042-35.621 46.354-37.72 49.698-46.12 51.098-51.175 51.331V5.444C-51.175 4.122-50.708 2.956-49.931 2.022L-49.62 1.634C-48.842 .855-47.753 .312-46.587 .156V.078H-61.675V.156C-60.508 .312-59.419 .855-58.564 1.711L-58.331 2.022C-57.553 2.956-57.086 4.2-57.086 5.522V51.331C-62.297 51.098-70.386 49.698-72.408 46.354L-70.852 52.887H-38.42L-29.632 56.075V30.099C-28.154 33.988-24.888 39.665-18.122 39.665-6.377 39.665-4.822 31.11-4.667 21.855V5.367C-4.589 4.045-4.122 2.8-3.344 1.867L-3.189 1.711C-2.333 .778-1.245 .233 0 .078Z" fill="black"/>
<path transform="matrix(1,0,0,-1,153.3115,110.65271)" d="M0 0 24.187 7.311C25.121 12.988 22.865 24.11 13.688 24.11 1.478 24.11-3.267 10.655 0 0M30.332-6.378 30.954-6.922C30.954-6.922 25.354-15.244 13.688-15.244 2.566-15.244-6.377-6.222-6.377 4.899-6.377 16.021 2.566 25.043 13.688 25.043 18.043 25.043 21.465 23.721 23.954 21.699 24.032 21.621 24.11 21.621 24.11 21.543 24.965 20.843 25.666 20.143 26.288 19.366 30.954 13.688 28.854 8.71 31.887 9.488V8.633L23.799 6.299 .311-.855C1.089-3.033 2.178-5.056 3.733-6.845L5.289-8.399C8.166-10.967 12.055-12.6 16.955-12.6 25.743-12.6 30.332-6.378 30.332-6.378" fill="black"/>
<path transform="matrix(1,0,0,-1,237.7193,125.19661)" d="M0 0H-28.776-36.787V.078C-35.543 .233-34.532 .777-33.676 1.633L-33.365 1.944C-32.587 2.878-32.199 4.122-32.121 5.366V47.909C-32.432 50.32-34.298 52.264-36.787 52.653V52.809H-35.154-32.121-26.443-.778V44.253L-1.711 45.576C-4.277 49.231-8.478 51.331-12.911 51.331H-26.288V32.587H-10.11L-6.378 35.776V27.999L-10.11 31.187H-26.288V1.478L-9.411 1.4C-6.533 1.4-3.733 2.333-1.4 3.967L1.711 6.222Z" fill="black"/>
<path transform="matrix(1,0,0,-1,256.3823,125.274707)" d="M0 0H-1.556-13.533-15.089V.078C-13.844 .233-12.755 .855-11.978 1.711L-11.744 1.944C-10.967 2.878-10.5 4.122-10.5 5.444V6.456 7.7 45.498C-10.5 48.376-11.589 51.176-13.533 53.275L-4.589 56.075V7.7 5.367C-4.589 4.045-4.122 2.878-3.345 1.944L-3.033 1.634C-2.256 .778-1.167 .233 0 .078Z" fill="black"/>
<path transform="matrix(1,0,0,-1,293.0122,86.154209)" d="M0 0V-.078C-2.566-1.011-3.732-2.722-6.61-9.566L-17.343-37.565C-17.343-37.565-25.043-57.708-33.598-57.708L-35.465-51.719C-24.187-51.719-19.677-39.976-19.677-39.976L-33.831-3.578-35.387 0H-28.776-21.621V-.078C-25.587-.544-28.698-2.489-25.743-9.333L-16.799-32.276-7.777-8.555C-5.443-2.411-8.477-1.011-11.199-.078V0Z" fill="black"/>
<path transform="matrix(1,0,0,-1,323.1851,115.55311)" d="M0 0C0-5.21-4.354-10.421-15.477-10.421-26.442-10.421-30.176-7.077-30.176-7.077L-29.398-1.478C-29.398-1.478-26.909-9.488-15.71-9.488-7.388-9.488-6.377-4.199-6.377-.933-6.377 9.8-29.087 6.456-29.087 20.144-29.087 25.277-24.109 29.943-15.243 29.943-6.377 29.943-2.8 27.455-2.8 27.455L-3.577 23.255C-3.577 23.255-6.532 29.244-15.477 29.244-21.543 29.244-23.643 25.199-23.643 21.077-23.643 9.8 0 13.767 0 0" fill="black"/>
<path transform="matrix(1,0,0,-1,332.6714,80.94321)" d="M0 0-3.578 5.211C-3.578 7.389-2.178 9.177 0 9.177 2.178 9.177 3.577 7.389 3.577 5.211ZM8.089-44.332H6.533-5.444-7V-44.253C-5.755-44.098-4.667-43.476-3.889-42.621L-3.655-42.387C-2.878-41.454-2.411-40.209-2.411-38.887V-37.875-36.631-15.399C-2.411-12.521-3.5-9.722-5.444-7.622L3.5-5.211V-36.631-38.964C3.5-40.287 3.967-41.454 4.744-42.387L5.056-42.698C5.833-43.553 6.922-44.098 8.089-44.253Z" fill="black"/>
<path transform="matrix(1,0,0,-1,371.9468,99.22011)" d="M0 0C-8.322-3.578-14.622-.078-21.544-5.366-26.832-9.333-25.511-22.71-18.666-22.321-7.934-21.621-3.111-10.889-1.867-8.322-.623-5.833 0-3.655 0-1.711ZM-.078-26.055V-19.677-15.088-13.222-12.988L0-6.377V-6.611C-6.066-22.166-13.066-26.832-17.188-26.754-28.232-26.754-32.354-16.565-29.01-10.11-22.866 1.867-9.1-3.811 .077 1.322 .077 5.833-1.322 9.799-4.434 10.811-10.655 12.833-18.978 8.866-23.722 6.377L-30.255 11.044C-27.065 12.288-21.699 13.844-14.933 14.077-12.366 14.232-9.878 13.766-7.467 12.988-5.134 12.133-3.033 11.044-1.089 9.722 .933 8.399 2.488 6.688 3.655 4.744 4.821 2.645 5.755 .544 5.755-1.633V-13.222-18.277C5.755-21.154 6.377-21.388 8.788-22.943Z" fill="black"/>
<path transform="matrix(1,0,0,-1,422.5747,125.274707)" d="M0 0H-1.634-13.533-15.088V.078C-13.922 .233-12.833 .778-12.055 1.634L-11.744 1.944C-10.966 2.878-10.5 4.122-10.5 5.444V19.677C-10.655 29.321-10.811 38.81-18.511 38.81-26.599 38.81-29.632 27.766-29.632 22.788V7.7 5.367C-29.632 4.045-29.165 2.878-28.388 1.944L-28.076 1.634C-27.299 .778-26.21 .233-25.043 .078V0H-26.599-38.576-38.498-40.132V.078C-38.887 .233-37.799 .778-37.021 1.634L-36.787 1.944C-36.01 2.878-35.543 4.122-35.543 5.444V28.932C-35.543 31.81-36.554 34.61-38.576 36.709L-29.632 39.121V30.099C-28.154 33.988-24.888 39.665-18.121 39.665-6.378 39.665-4.822 31.11-4.667 21.855V7.7 5.367C-4.589 4.045-4.122 2.878-3.345 1.944L-3.111 1.634C-2.333 .778-1.244 .233 0 .078Z" fill="black"/>
</g>
</g>
</svg>
