<?xml version="1.0" standalone="no"?>
<!DOCTYPE svg PUBLIC "-//W3C//DTD SVG 20010904//EN"
 "http://www.w3.org/TR/2001/REC-SVG-20010904/DTD/svg10.dtd">
<svg version="1.0" xmlns="http://www.w3.org/2000/svg"
 width="926.000000pt" height="460.000000pt" viewBox="0 0 926.000000 460.000000"
 preserveAspectRatio="xMidYMid meet">

<g transform="translate(0.000000,460.000000) scale(0.100000,-0.100000)"
fill="#000000" stroke="none">
<path d="M946 4145 c-92 -41 -170 -75 -172 -77 -2 -2 60 -145 137 -318 l140
-313 -44 -88 c-93 -184 -234 -353 -342 -411 -54 -29 -169 -52 -208 -43 -22 6
-29 -6 -105 -164 -45 -93 -82 -172 -82 -175 0 -12 58 -35 117 -46 127 -25 255
21 363 130 89 90 162 213 266 450 49 110 91 200 94 200 3 0 71 -147 151 -327
l145 -328 208 -3 c165 -2 207 0 203 10 -3 7 -51 115 -106 239 l-101 226 51
114 c28 63 54 117 58 121 4 5 79 -154 166 -352 l160 -360 207 0 207 0 -18 43
c-113 262 -664 1504 -671 1511 -8 8 -351 -143 -346 -154 1 -3 56 -125 121
-272 l118 -268 -53 -120 c-29 -66 -56 -120 -59 -120 -3 0 -100 217 -216 481
-115 265 -212 482 -215 484 -3 2 -81 -30 -174 -70z"/>
<path d="M4490 2090 l0 -350 2250 0 2250 0 0 350 0 350 -2250 0 -2250 0 0
-350z m4458 -2 l2 -298 -2210 0 -2210 0 0 293 c0 162 3 297 7 300 3 4 997 6
2207 5 l2201 -3 3 -297z"/>
<path d="M5580 2262 c-43 -21 -62 -56 -56 -101 7 -47 29 -67 102 -91 85 -29
112 -58 86 -96 -25 -39 -86 -43 -135 -10 -30 21 -38 22 -53 12 -25 -19 -12
-42 37 -67 64 -32 142 -24 181 20 22 25 28 41 28 77 0 56 -27 86 -98 107 -74
22 -92 34 -92 62 0 52 85 71 130 30 15 -14 19 -13 34 4 22 24 17 34 -28 55
-44 21 -92 20 -136 -2z"/>
<path d="M7792 2267 c-18 -5 -48 -27 -67 -48 -114 -127 -35 -329 130 -329 44
0 112 28 134 54 12 14 11 19 -4 36 -17 19 -18 19 -47 -5 -86 -73 -208 -9 -208
110 0 51 34 110 73 128 19 9 45 17 57 17 25 0 72 -23 90 -45 12 -14 14 -14 31
1 25 23 11 47 -44 73 -47 23 -92 25 -145 8z"/>
<path d="M8665 2266 c-39 -17 -55 -37 -61 -78 -8 -56 24 -95 96 -114 94 -27
124 -70 80 -114 -27 -27 -79 -26 -122 4 -30 20 -37 21 -53 10 -26 -19 -12 -42
41 -66 123 -54 245 29 200 136 -11 27 -27 42 -58 56 -24 11 -50 20 -59 20 -25
0 -69 39 -69 60 0 47 88 63 130 25 15 -14 19 -13 34 4 22 24 17 34 -28 55 -41
19 -90 20 -131 2z"/>
<path d="M4650 2086 l0 -186 30 0 30 0 0 75 0 75 35 0 c34 0 37 -3 72 -75 35
-71 39 -75 71 -75 l33 0 -42 76 -42 76 28 22 c22 18 29 33 32 73 5 45 2 53
-25 84 -30 34 -32 34 -126 37 l-96 4 0 -186z m174 118 c9 -8 16 -31 16 -49 0
-42 -20 -55 -84 -55 l-46 0 0 60 0 60 49 0 c32 0 55 -6 65 -16z"/>
<path d="M5100 2085 l0 -185 125 0 125 0 0 25 c0 25 0 25 -95 25 l-95 0 0 55
0 55 65 0 65 0 0 30 0 30 -65 0 -65 0 0 50 0 50 90 0 c89 0 90 0 90 25 l0 25
-120 0 -120 0 0 -185z"/>
<path d="M5970 2085 l0 -185 30 0 30 0 0 185 0 185 -30 0 -30 0 0 -185z"/>
<path d="M6230 2086 l0 -186 93 0 c115 0 169 23 204 85 31 55 31 145 0 199
-34 60 -82 80 -199 84 l-98 4 0 -186z m188 119 c48 -19 72 -60 72 -120 0 -93
-48 -135 -155 -135 l-55 0 0 135 0 135 50 0 c27 0 67 -7 88 -15z"/>
<path d="M6740 2085 l0 -185 125 0 125 0 0 25 c0 25 0 25 -95 25 l-95 0 0 55
0 55 65 0 65 0 0 30 0 30 -65 0 -65 0 0 50 0 50 90 0 c89 0 90 0 90 25 l0 25
-120 0 -120 0 0 -185z"/>
<path d="M7170 2085 l0 -185 30 0 30 0 0 142 0 142 98 -142 c91 -132 99 -141
130 -142 l32 0 0 185 0 185 -30 0 -29 0 -3 -139 -3 -139 -95 138 c-89 130 -97
139 -127 140 l-33 0 0 -185z"/>
<path d="M8180 2085 l0 -185 125 0 125 0 0 25 c0 25 0 25 -95 25 l-95 0 0 55
0 55 65 0 65 0 0 30 0 30 -65 0 -65 0 0 50 0 50 90 0 c89 0 90 0 90 25 l0 25
-120 0 -120 0 0 -185z"/>
<path d="M3072 2259 c-181 -90 -117 -368 85 -369 78 0 139 40 174 115 76 163
-98 333 -259 254z m165 -84 c34 -34 35 -37 31 -97 -4 -53 -9 -65 -36 -89 -39
-35 -91 -38 -139 -9 -62 37 -69 146 -13 202 23 23 37 28 75 28 40 0 52 -5 82
-35z"/>
<path d="M806 2123 c-4 -82 -8 -165 -10 -185 -4 -37 -3 -38 29 -38 42 0 45 9
45 131 0 54 4 99 8 99 4 0 25 -29 46 -65 23 -40 44 -65 55 -65 11 0 32 26 57
70 l39 70 7 -42 c3 -24 7 -78 7 -120 l1 -78 40 0 c38 0 39 1 35 28 -2 15 -7
98 -11 185 l-6 157 -34 0 c-32 0 -37 -5 -80 -80 -26 -44 -50 -80 -53 -80 -3 0
-28 36 -54 80 -45 74 -50 80 -82 80 l-33 0 -6 -147z"/>
<path d="M1449 2243 c-6 -16 -35 -91 -64 -168 -29 -77 -56 -148 -60 -157 -6
-15 -1 -18 33 -18 38 0 40 1 52 45 l13 46 70 -3 70 -3 15 -42 c13 -41 15 -43
54 -43 28 0 39 4 36 13 -3 6 -33 90 -69 184 l-64 173 -38 0 c-32 0 -39 -4 -48
-27z m67 -115 c9 -29 19 -59 22 -65 3 -9 -9 -13 -43 -13 -34 0 -46 4 -43 13 3
6 13 36 22 65 10 28 19 52 21 52 2 0 11 -24 21 -52z"/>
<path d="M1830 2085 l0 -185 35 0 35 0 0 70 c0 68 1 70 24 70 20 0 32 -13 63
-70 37 -67 39 -70 76 -70 20 0 37 3 37 6 0 3 -17 37 -37 74 l-37 67 27 32 c20
24 27 43 27 75 0 83 -49 116 -170 116 l-80 0 0 -185z m161 106 c20 -16 22 -23
14 -47 -9 -26 -16 -29 -58 -32 l-47 -3 0 50 0 51 34 0 c19 0 44 -9 57 -19z"/>
<path d="M2270 2085 l0 -185 35 0 35 0 0 71 0 70 28 -3 c22 -2 33 -15 62 -70
34 -66 36 -68 73 -68 20 0 37 3 37 6 0 4 -16 37 -37 74 l-36 68 26 32 c20 23
27 43 27 74 0 83 -49 116 -170 116 l-80 0 0 -185z m158 109 c24 -17 29 -53 10
-72 -7 -7 -31 -12 -55 -12 l-43 0 0 50 c0 50 0 50 33 50 18 0 43 -7 55 -16z"/>
<path d="M2710 2085 l0 -185 40 0 40 0 0 185 0 185 -40 0 -40 0 0 -185z"/>
<path d="M3490 2235 l0 -35 60 0 60 0 0 -150 0 -150 35 0 35 0 0 150 0 149 63
3 c62 3 62 3 65 36 l3 32 -160 0 -161 0 0 -35z"/>
<path d="M3960 2235 l0 -35 60 0 60 0 0 -150 0 -150 35 0 35 0 0 150 0 149 63
3 c62 3 62 3 65 36 l3 32 -160 0 -161 0 0 -35z"/>
<path d="M940 1425 c0 -132 -2 -147 -20 -165 -24 -24 -53 -25 -90 -3 -24 14
-31 14 -44 4 -23 -19 -20 -29 17 -51 36 -23 100 -26 137 -7 48 24 60 68 60
225 l0 142 -30 0 -30 0 0 -145z"/>
<path d="M1180 1385 l0 -185 125 0 125 0 0 25 c0 25 0 25 -95 25 l-95 0 0 160
0 160 -30 0 -30 0 0 -185z"/>
<path d="M1560 1545 c0 -24 2 -25 65 -25 l65 0 0 -160 0 -160 30 0 30 0 0 160
0 160 65 0 c63 0 65 1 65 25 l0 25 -160 0 -160 0 0 -25z"/>
<path d="M2480 1384 l0 -186 103 4 c79 2 111 8 142 24 77 41 110 162 65 248
-36 71 -88 94 -217 95 l-93 1 0 -186z m193 122 c50 -21 70 -50 75 -110 8 -98
-42 -146 -152 -146 l-56 0 0 135 0 135 50 0 c28 0 65 -6 83 -14z"/>
<path d="M2980 1432 c0 -114 3 -143 18 -172 51 -96 213 -92 262 5 10 21 16 72
18 168 l4 137 -30 0 -30 0 -4 -140 c-3 -130 -5 -141 -26 -162 -32 -33 -106
-32 -133 1 -17 20 -19 40 -19 162 l0 139 -30 0 -30 0 0 -138z"/>
<path d="M3460 1384 l0 -186 99 4 c89 3 102 6 125 27 14 13 28 39 32 56 7 39
-17 91 -46 100 -20 6 -20 7 5 37 28 33 31 54 13 93 -18 41 -57 55 -148 55
l-80 0 0 -186z m161 126 c12 -7 19 -21 19 -40 0 -36 -23 -50 -84 -50 l-46 0 0
50 0 50 46 0 c25 0 54 -5 65 -10z m2 -151 c41 -22 49 -59 20 -91 -12 -13 -31
-18 -75 -18 l-58 0 0 60 0 60 46 0 c25 0 55 -5 67 -11z"/>
<path d="M3996 1562 c-3 -5 -37 -89 -75 -186 l-69 -177 30 3 c26 3 33 10 48
48 l18 45 75 3 76 3 18 -51 c16 -46 20 -50 50 -50 l33 0 -13 33 c-8 17 -40
101 -73 184 -56 145 -60 153 -86 153 -15 0 -29 -4 -32 -8z m84 -209 c0 -2 -25
-3 -55 -3 -30 0 -55 2 -55 4 0 3 12 37 27 77 l26 72 29 -74 c15 -40 28 -75 28
-76z"/>
<path d="M4350 1385 l0 -185 30 0 30 0 0 185 0 185 -30 0 -30 0 0 -185z"/>
<path d="M2030 1231 c0 -16 5 -31 11 -33 9 -3 9 -9 0 -25 -15 -29 -14 -43 4
-43 18 0 55 70 55 105 0 22 -4 25 -35 25 -32 0 -35 -2 -35 -29z"/>
</g>
</svg>
