<?xml version="1.0" standalone="no"?>
<!DOCTYPE svg PUBLIC "-//W3C//DTD SVG 20010904//EN"
 "http://www.w3.org/TR/2001/REC-SVG-20010904/DTD/svg10.dtd">
<svg version="1.0" xmlns="http://www.w3.org/2000/svg"
 width="733.000000pt" height="340.000000pt" viewBox="0 0 733.000000 340.000000"
 preserveAspectRatio="xMidYMid meet">

<g transform="translate(0.000000,340.000000) scale(0.100000,-0.100000)"
fill="#000000" stroke="none">
<path d="M0 3380 c0 -19 7 -20 235 -20 l235 0 0 -1205 0 -1205 95 0 95 0 0
1205 0 1205 233 0 c129 0 236 3 240 6 3 3 3 12 0 20 -4 12 -94 14 -569 14
-557 0 -564 0 -564 -20z"/>
<path d="M1392 3293 c-20 -104 -34 -186 -67 -398 -9 -55 -22 -136 -30 -180 -8
-44 -24 -138 -35 -210 -11 -71 -27 -168 -35 -215 -8 -47 -21 -130 -30 -185
-30 -192 -47 -291 -65 -395 -10 -58 -26 -154 -35 -215 -9 -60 -23 -141 -30
-180 -13 -66 -36 -210 -51 -317 l-6 -48 95 0 94 0 7 53 c4 28 15 99 25 157 11
58 24 139 31 180 17 109 48 293 65 387 8 45 15 94 15 110 0 15 5 45 11 66 l10
37 234 0 c129 0 236 -4 239 -8 2 -4 12 -57 21 -117 27 -177 42 -270 115 -695
11 -63 21 -126 22 -140 3 -24 5 -25 96 -28 l92 -3 0 38 c0 21 -7 67 -16 103
-8 36 -19 94 -24 130 -5 36 -16 110 -25 165 -37 234 -44 275 -59 365 -9 52
-20 120 -26 150 -5 30 -16 102 -25 160 -9 58 -24 155 -35 215 -10 61 -26 155
-35 210 -9 55 -21 127 -27 160 -5 33 -16 99 -24 148 -8 48 -21 129 -29 180 -8
50 -22 137 -30 192 -9 55 -20 116 -25 135 -6 19 -10 50 -10 68 l0 32 -188 0
-189 0 -21 -107z m228 -43 c6 -41 16 -97 21 -125 6 -27 16 -93 24 -145 20
-134 33 -213 50 -305 8 -44 21 -125 30 -180 37 -237 46 -295 62 -375 9 -47 17
-98 17 -115 l1 -30 -227 -3 -228 -2 0 31 c0 18 9 80 19 138 11 58 27 153 35
211 9 58 21 130 26 160 41 232 68 401 80 490 5 41 16 102 24 135 9 33 15 74
16 92 0 17 5 55 12 83 14 61 19 52 38 -60z"/>
<path d="M2183 3383 c3 -10 10 -47 16 -83 6 -36 19 -117 30 -180 21 -122 40
-239 66 -410 9 -58 22 -139 30 -180 8 -41 21 -120 30 -175 8 -55 24 -154 35
-220 33 -192 48 -283 64 -385 19 -124 58 -361 90 -555 8 -49 20 -125 27 -168
l12 -77 188 0 188 0 10 37 c6 21 11 50 11 66 0 15 8 69 19 120 10 50 26 144
35 207 10 63 26 162 36 220 10 58 33 195 50 305 17 110 38 234 45 275 7 41 16
93 19 115 10 62 24 149 45 275 18 105 34 207 62 380 5 36 17 103 25 150 8 47
21 128 30 180 8 52 16 101 19 108 4 10 -17 12 -92 10 l-96 -3 -12 -55 c-12
-53 -28 -155 -61 -380 -8 -58 -24 -152 -34 -210 -11 -58 -26 -148 -34 -200
-21 -130 -55 -334 -66 -395 -5 -27 -18 -113 -30 -190 -11 -77 -25 -160 -31
-183 -10 -43 -37 -213 -45 -282 -5 -38 -26 -166 -54 -330 -11 -58 -22 -127
-25 -153 -7 -56 -15 -56 -22 0 -2 21 -13 88 -24 148 -27 154 -36 211 -59 360
-11 72 -26 166 -34 210 -8 44 -22 127 -31 185 -20 131 -31 200 -44 270 -11 61
-21 123 -51 315 -11 72 -27 166 -35 210 -14 78 -26 155 -60 375 -19 126 -44
268 -51 293 -5 15 -18 17 -100 17 -86 0 -95 -2 -91 -17z"/>
<path d="M3975 3384 c-96 -35 -223 -155 -303 -288 -187 -307 -251 -945 -146
-1441 21 -99 33 -138 71 -235 87 -218 201 -363 345 -438 47 -24 66 -27 166
-30 97 -3 122 -1 171 18 161 60 315 258 404 520 73 215 109 564 88 870 -6 92
-18 201 -26 241 -47 230 -55 255 -112 394 -70 170 -232 345 -362 391 -50 18
-245 17 -296 -2z m327 -66 c96 -121 161 -268 217 -493 28 -114 39 -189 52
-365 12 -161 6 -594 -10 -700 -5 -30 -12 -77 -15 -105 -29 -211 -140 -499
-238 -618 l-40 -47 -144 0 -143 0 -43 58 c-42 56 -88 133 -109 182 -6 14 -14
32 -19 40 -4 8 -17 49 -29 90 -12 41 -26 85 -31 98 -41 100 -83 467 -83 717 0
328 33 551 123 848 19 62 105 225 148 280 l45 57 143 0 143 0 33 -42z"/>
<path d="M5000 2175 l0 -1225 95 0 95 0 0 495 0 495 214 0 c242 0 219 8 231
-85 4 -27 18 -115 32 -195 26 -157 49 -298 64 -400 5 -36 13 -87 19 -115 5
-27 14 -83 20 -123 l12 -72 94 0 95 0 -6 53 c-4 28 -13 84 -20 122 -8 39 -19
102 -24 140 -6 39 -17 108 -25 155 -8 47 -21 130 -30 185 -9 55 -26 159 -39
230 l-22 130 -78 3 c-68 2 -77 5 -67 17 7 8 17 15 23 15 12 0 98 61 143 102
41 38 125 160 146 213 40 102 68 248 68 355 0 65 -23 209 -43 277 -57 187
-163 313 -333 397 -102 50 -148 56 -419 56 l-245 0 0 -1225z m591 1151 c96
-73 185 -225 225 -386 15 -61 19 -112 19 -270 0 -233 -13 -304 -86 -455 -39
-82 -62 -114 -121 -173 l-72 -72 -183 0 -183 0 0 695 0 695 179 0 178 0 44
-34z"/>
<path d="M6536 3392 c-3 -5 -12 -52 -21 -103 -8 -52 -19 -116 -24 -144 -5 -27
-12 -72 -16 -100 -3 -27 -12 -84 -20 -125 -8 -41 -21 -120 -30 -175 -26 -162
-46 -285 -61 -370 -7 -44 -18 -109 -23 -145 -5 -36 -17 -108 -25 -160 -9 -52
-22 -135 -30 -185 -8 -49 -22 -133 -30 -185 -9 -52 -21 -124 -27 -160 -6 -36
-19 -112 -29 -170 -22 -127 -39 -233 -50 -320 -5 -36 -12 -73 -16 -83 -6 -15
3 -17 89 -17 105 0 101 -3 112 76 3 27 15 96 25 154 10 58 26 150 34 205 40
261 49 315 62 380 7 39 16 94 20 123 l7 52 238 0 c218 0 238 -1 242 -17 3 -10
10 -47 15 -83 6 -36 18 -112 27 -170 9 -58 25 -154 35 -215 11 -60 27 -155 35
-210 9 -55 23 -144 33 -197 l17 -98 92 0 c107 0 103 -7 78 112 -8 40 -28 163
-45 273 -17 110 -39 250 -50 310 -20 120 -41 245 -65 400 -9 55 -22 136 -30
180 -16 85 -30 169 -46 275 -5 36 -16 101 -24 145 -7 44 -21 127 -30 185 -34
223 -46 298 -61 375 -8 44 -18 105 -22 135 l-7 55 -187 3 c-103 1 -189 -2
-192 -6z m214 -167 c7 -38 20 -119 30 -180 21 -120 45 -273 61 -375 5 -36 17
-103 25 -150 14 -80 20 -118 59 -365 9 -55 20 -115 25 -134 5 -19 7 -38 4 -43
-3 -4 -109 -8 -235 -8 l-231 0 6 28 c3 15 8 47 11 72 3 25 12 79 20 120 8 41
22 120 30 175 9 55 23 143 31 195 8 52 24 147 34 210 11 63 27 160 35 215 9
55 22 134 30 175 8 41 17 95 20 120 3 25 9 59 12 75 7 33 5 44 33 -130z"/>
<path d="M477 413 c-4 -3 -7 -96 -7 -205 l0 -198 30 0 30 0 0 60 0 60 58 0 58
0 50 -60 c44 -54 53 -60 87 -60 l39 0 -52 65 -51 64 31 28 c37 33 53 91 40
147 -18 79 -74 106 -223 106 -46 0 -87 -3 -90 -7z m226 -76 c22 -14 27 -25 27
-61 0 -64 -23 -80 -121 -85 l-79 -3 0 79 c0 44 3 83 8 87 13 14 137 1 165 -17z"/>
<path d="M949 416 c-2 -2 -3 -95 -1 -205 l3 -201 150 0 150 0 -3 27 c-3 30 8
28 -150 31 l-88 2 0 60 0 60 101 0 100 0 -3 28 c-3 30 -2 29 -135 31 l-63 1 0
55 0 55 115 0 115 0 0 30 0 30 -143 0 c-79 0 -146 -2 -148 -4z"/>
<path d="M1417 399 c-41 -21 -57 -51 -57 -104 0 -51 27 -75 120 -105 91 -29
106 -43 97 -82 -12 -47 -61 -55 -184 -32 -31 6 -33 5 -33 -24 0 -34 10 -38
107 -48 77 -8 130 11 160 55 52 76 15 146 -93 176 -77 22 -104 40 -104 69 0
42 32 59 102 54 35 -3 70 -7 78 -9 10 -3 16 5 18 22 3 22 -2 29 -29 38 -51 18
-139 13 -182 -10z"/>
<path d="M1790 416 c-3 -2 -4 -95 -2 -205 l3 -201 30 0 29 0 -2 203 -3 202
-25 3 c-14 2 -28 1 -30 -2z"/>
<path d="M2018 414 c-5 -4 -8 -97 -8 -206 l0 -198 118 0 c134 0 166 11 216 73
29 37 31 44 31 125 0 73 -4 93 -23 124 -36 58 -95 81 -221 86 -58 2 -109 1
-113 -4z m214 -66 c59 -17 81 -61 76 -149 -3 -59 -8 -73 -30 -96 -24 -24 -37
-27 -113 -32 -48 -4 -88 -4 -91 -2 -2 2 -4 69 -4 148 l0 143 61 0 c34 0 79 -5
101 -12z"/>
<path d="M2520 215 l0 -205 156 0 155 0 -3 28 -3 27 -123 3 -123 3 3 57 3 57
103 3 103 3 -3 27 -3 27 -103 3 -103 3 3 52 3 52 118 3 118 3 -3 27 -3 27
-147 3 -148 3 0 -206z"/>
<path d="M2957 413 c-4 -3 -7 -96 -7 -205 l0 -198 35 0 35 0 0 148 1 147 37
-40 c20 -22 49 -55 63 -73 120 -149 153 -182 186 -182 l33 0 0 206 0 205 -27
-3 -28 -3 -3 -147 c-1 -82 -6 -148 -10 -148 -4 1 -25 24 -47 52 -22 28 -47 58
-55 67 -9 9 -40 45 -70 81 -29 36 -62 73 -73 83 -19 17 -58 23 -70 10z"/>
<path d="M3590 392 c-132 -66 -155 -215 -51 -322 37 -39 56 -50 99 -59 66 -14
88 -14 152 0 47 10 51 13 48 37 -3 23 -7 27 -33 24 -148 -15 -205 3 -243 80
-18 35 -22 55 -16 83 9 48 55 100 101 116 34 11 114 8 161 -6 19 -6 22 -4 22
22 0 24 -6 31 -33 41 -60 21 -146 15 -207 -16z"/>
<path d="M3970 215 l0 -205 156 0 c138 0 155 2 150 16 -3 9 -6 22 -6 29 0 8
-10 13 -22 13 -13 -1 -67 -1 -121 0 l-98 2 3 58 3 57 103 3 103 3 -3 27 -3 27
-103 3 -103 3 3 52 3 52 118 3 118 3 -3 27 -3 27 -147 3 -148 3 0 -206z"/>
<path d="M4453 405 c-38 -16 -73 -68 -73 -107 0 -14 11 -40 25 -56 24 -29 98
-62 136 -62 10 0 30 -10 45 -23 35 -30 28 -66 -16 -86 -30 -13 -42 -13 -152 5
-37 6 -38 5 -38 -24 0 -33 6 -36 101 -47 102 -12 167 19 188 93 20 70 -19 113
-132 146 -86 25 -113 67 -65 100 26 19 119 21 150 5 23 -13 24 -12 33 21 5 22
2 27 -28 38 -44 16 -134 15 -174 -3z"/>
<path d="M5010 215 l0 -205 121 0 c94 0 127 4 149 16 32 19 60 63 60 94 0 28
-26 77 -47 89 -17 9 -17 10 0 28 11 13 17 36 17 65 0 86 -58 118 -212 118
l-88 0 0 -205z m204 134 c46 -21 41 -92 -7 -104 -13 -4 -48 -5 -78 -3 l-54 3
-3 58 -3 57 60 0 c33 0 71 -5 85 -11z m38 -186 c24 -22 23 -55 -3 -79 -17 -15
-36 -19 -98 -19 l-76 0 -3 58 -3 57 82 0 c63 0 87 -4 101 -17z"/>
<path d="M5408 415 c-4 -4 13 -37 37 -73 111 -168 115 -177 115 -258 l0 -74
30 0 30 0 0 71 c0 78 1 79 110 252 28 43 50 80 50 83 0 2 -15 4 -34 4 -30 0
-38 -6 -71 -57 -21 -32 -47 -73 -59 -90 -11 -18 -25 -32 -30 -30 -5 2 -18 21
-30 42 -50 93 -81 130 -112 133 -16 2 -33 0 -36 -3z"/>
<path d="M6100 391 l0 -30 73 -3 72 -3 3 -123 c3 -120 2 -123 -23 -148 -23
-23 -32 -26 -73 -21 -26 3 -57 9 -70 13 -22 6 -23 4 -20 -27 3 -32 5 -34 55
-43 73 -12 120 -1 160 39 l33 33 -2 169 -3 168 -102 3 -103 3 0 -30z"/>
<path d="M6477 413 c-4 -3 -7 -96 -7 -205 l0 -198 35 0 c23 0 35 5 34 12 -1 7
-1 46 0 86 l1 72 105 0 105 0 0 -85 0 -85 35 0 35 0 -2 203 -3 202 -30 0 -30
0 -3 -81 c-3 -96 0 -94 -129 -94 l-83 0 0 68 c0 90 -7 112 -34 112 -13 0 -26
-3 -29 -7z"/>
<path d="M6980 216 l0 -206 30 0 29 0 3 83 3 82 39 0 c36 0 44 -5 83 -55 24
-30 50 -67 58 -82 13 -23 22 -28 55 -28 44 0 50 10 22 38 -11 11 -33 39 -49
63 -17 24 -40 55 -52 68 -21 24 -21 24 -2 55 31 51 101 177 101 182 0 7 -55 4
-65 -4 -12 -8 -30 -36 -47 -72 -7 -14 -23 -42 -35 -62 -21 -35 -27 -38 -68
-38 l-44 0 -3 88 c-3 87 -3 87 -30 90 l-28 3 0 -205z"/>
</g>
</svg>
