<svg xmlns="http://www.w3.org/2000/svg" xmlns:xlink="http://www.w3.org/1999/xlink" xmlns:inkscape="http://www.inkscape.org/namespaces/inkscape" version="1.1" width="3840" height="557.392" viewBox="0 0 3840 557.392">
<defs>
<clipPath id="clip_0">
<path transform="matrix(1,0,0,-1,0,557.392)" d="M0 557.392H3840V0H0Z"/>
</clipPath>
</defs>
<g inkscape:groupmode="layer" inkscape:label="Logo">
<path transform="matrix(1,0,0,-1,683.1577,49.999818)" d="M0 0-286.848-457.392H-346.31L-633.158 0H-573.044L-450.856-196.025-316.907-410.998-182.304-196.025-60.114 0Z"/>
<path transform="matrix(1,0,0,-1,981.5328,99.00604)" d="M0 0H443.669V49.006H-52.272V-133.625H0Z"/>
<g clip-path="url(#clip_0)">
<path transform="matrix(1,0,0,-1,981.5328,458.38575)" d="M0 0V106.039C0 136.971 25.075 162.046 56.007 162.046H342.403V211.053L50.348 210.846C-6.337 210.813-52.272 164.852-52.272 108.167V-49.006H456.738V0Z"/>
<path transform="matrix(1,0,0,-1,1720.6364,507.39204)" d="M0 0V457.392H52.274V49.006H476.339V0Z"/>
<path transform="matrix(1,0,0,-1,2703.3699,468.18513)" d="M0 0C169.234 0 253.525 80.369 253.525 189.489 253.525 298.609 169.234 378.979 0 378.979-169.888 378.979-254.179 298.609-254.179 189.489-254.179 80.369-169.888 0 0 0M0 427.985C201.905 427.985 307.105 325.401 307.105 189.489 307.105 53.578 201.905-49.006 0-49.006-201.905-49.006-307.105 53.578-307.105 189.489-307.105 325.401-201.905 427.985 0 427.985"/>
<path transform="matrix(1,0,0,-1,3248.973,469.49324)" d="M0 0 14.375 46.39C99.319 18.295 184.264 1.308 281.622 1.308 355.458 1.308 487.449 16.335 487.449 91.477 487.449 153.55 401.196 156.818 282.276 163.354 151.593 169.886 14.375 178.382 14.375 292.73 14.375 409.689 158.126 429.293 260.059 429.293 341.082 429.293 435.827 416.877 506.396 399.89L495.289 351.536C430.599 367.219 341.082 380.287 251.565 380.287 197.331 380.287 67.302 372.447 67.302 295.341 67.302 224.772 175.116 218.892 285.542 213.664 414.92 207.785 541.027 199.289 541.027 93.437 541.027-20.912 390.088-47.698 272.475-47.698 180.996-47.698 87.559-31.363 0 0"/>
</g>
</g>
</svg>
